<?xml version="1.0" encoding="UTF-8" ?>
<!DOCTYPE svg PUBLIC "-//W3C//DTD SVG 1.1//EN" "http://www.w3.org/Graphics/SVG/1.1/DTD/svg11.dtd">
<svg width="275pt" height="231pt" viewBox="0 0 275 231" version="1.1" xmlns="http://www.w3.org/2000/svg">
<g id="#fefefeff">
<path fill="#fefefe" opacity="1.00" d=" M 80.80 152.79 C 80.41 152.37 80.41 152.37 80.80 152.79 Z" />
</g>
<g id="#504b48ff">
<path fill="#504b48" opacity="1.00" d=" M 5.36 0.00 L 11.59 0.00 C 15.39 1.45 18.58 4.01 22.13 5.91 C 25.20 5.28 28.00 3.72 31.07 3.05 C 42.13 0.51 54.14 0.75 64.65 5.34 C 67.08 6.32 69.24 8.02 71.82 8.62 C 74.72 6.95 77.18 4.48 80.43 3.45 C 82.81 2.73 85.69 2.61 87.75 4.23 C 89.22 5.36 89.89 7.24 90.08 9.03 C 90.59 13.99 89.61 19.02 87.47 23.50 C 86.45 25.77 85.04 28.91 87.18 30.98 C 101.73 31.76 116.12 28.21 129.92 23.93 C 136.26 22.07 142.14 18.73 148.73 17.75 C 161.33 15.56 174.23 14.41 186.97 15.94 C 204.53 17.73 221.86 24.97 234.30 37.70 C 241.04 44.20 246.40 52.02 250.56 60.38 C 259.81 78.46 263.72 98.80 264.94 118.93 C 264.96 127.02 265.44 135.16 264.32 143.20 C 263.93 146.46 263.86 149.76 264.15 153.03 C 265.19 164.90 267.96 176.53 271.02 188.02 C 272.23 192.24 273.06 196.59 275.00 200.57 L 275.00 208.75 C 271.66 213.51 266.26 216.15 260.88 217.90 C 248.99 221.73 236.41 223.16 223.95 223.02 C 220.38 222.82 216.32 222.92 213.42 220.51 C 210.91 216.16 213.20 210.74 216.77 207.75 C 221.37 203.91 226.94 201.42 232.59 199.54 C 234.87 198.69 237.47 197.85 238.80 195.63 C 239.72 191.39 236.93 187.66 234.73 184.34 C 228.74 175.84 223.11 167.08 218.09 157.97 C 216.75 155.59 215.66 153.02 213.74 151.04 C 211.38 150.62 209.12 151.97 207.90 153.93 C 202.26 162.43 201.19 173.01 201.82 182.96 C 201.89 192.62 203.69 202.26 202.78 211.92 C 202.34 215.31 201.74 218.87 199.77 221.75 C 197.56 224.76 193.66 225.48 190.26 226.27 C 181.60 227.95 172.82 229.23 163.99 229.13 C 156.72 229.16 148.96 229.28 142.46 225.53 C 139.37 223.98 139.41 220.03 139.79 217.08 C 140.65 212.66 144.04 209.20 147.61 206.69 C 153.32 202.98 159.70 200.47 166.04 198.05 C 167.36 197.42 168.91 196.99 169.86 195.80 C 170.93 193.87 170.70 191.57 170.57 189.45 C 169.72 180.86 167.56 172.45 164.70 164.32 C 162.53 158.17 159.33 152.46 156.51 146.60 C 155.38 144.37 154.39 142.02 152.80 140.07 C 149.19 139.82 145.59 140.31 141.98 140.34 C 137.26 140.51 132.56 139.97 127.85 140.02 C 128.44 143.12 130.06 145.86 131.26 148.74 C 136.67 161.35 141.13 174.53 142.71 188.21 C 143.29 195.25 143.49 202.53 141.34 209.34 C 139.26 216.09 134.72 221.94 128.98 225.99 C 125.55 228.46 121.40 229.55 117.49 231.00 L 102.53 231.00 C 99.64 229.69 96.55 228.80 93.83 227.16 C 91.83 225.72 89.54 223.73 89.82 220.99 C 89.79 217.21 93.03 214.65 96.00 212.92 C 99.91 210.44 104.50 209.50 108.70 207.66 C 110.66 197.21 108.22 185.88 101.55 177.52 C 97.22 172.20 92.45 167.25 88.21 161.86 C 85.78 158.80 83.78 155.37 80.80 152.79 C 80.41 152.37 80.41 152.37 80.80 152.79 C 83.15 169.12 86.45 185.46 86.02 202.04 C 85.92 206.33 85.61 210.76 83.80 214.72 C 82.00 218.54 78.32 221.10 74.42 222.44 C 65.94 225.41 56.63 225.08 47.99 222.99 C 43.49 221.73 38.75 220.01 35.72 216.26 C 33.13 213.11 33.55 208.20 36.23 205.24 C 40.04 200.36 46.19 198.59 51.73 196.51 C 52.70 194.42 52.53 192.05 52.46 189.82 C 51.76 176.46 48.88 163.24 44.28 150.69 C 42.22 144.93 39.33 139.53 37.07 133.86 C 31.04 119.00 28.08 103.03 27.28 87.05 C 27.02 84.66 27.22 82.10 26.16 79.89 C 24.66 77.74 22.57 76.11 20.73 74.28 C 15.28 69.14 11.04 62.76 8.21 55.83 C 4.96 47.51 4.92 38.37 5.51 29.58 C 5.71 27.30 4.63 25.21 3.85 23.14 C 2.28 19.34 1.33 15.34 0.00 11.47 L 0.00 4.30 C 1.70 2.76 3.49 1.32 5.36 0.00 M 6.37 1.38 C 3.57 2.23 0.54 4.77 1.13 8.00 C 1.76 14.68 4.39 20.95 6.74 27.17 C 7.01 31.75 6.40 36.37 6.79 40.96 C 6.48 53.83 13.39 65.81 22.60 74.35 C 24.63 76.38 27.55 78.06 27.98 81.17 C 28.80 85.42 28.72 89.78 29.06 94.08 C 30.54 109.89 34.27 125.58 41.09 139.97 C 48.55 155.57 52.75 172.67 53.80 189.92 C 53.88 192.15 53.98 194.41 53.60 196.62 C 53.11 197.95 51.49 197.99 50.38 198.46 C 45.24 199.94 39.93 202.20 36.71 206.68 C 34.96 208.95 34.80 212.27 36.20 214.75 C 37.94 217.43 40.81 219.09 43.72 220.23 C 50.44 222.99 57.85 223.50 65.04 223.08 C 68.42 222.88 71.74 222.06 74.91 220.88 C 79.29 219.32 82.96 215.48 83.77 210.83 C 85.38 202.66 84.80 194.27 84.07 186.04 C 83.04 172.95 80.48 160.05 78.23 147.14 C 78.56 147.21 79.21 147.35 79.54 147.42 C 84.00 154.21 88.63 160.93 94.12 166.94 C 97.54 171.15 101.55 174.88 104.47 179.47 C 109.94 188.03 112.09 198.78 109.75 208.72 C 105.72 210.37 101.38 211.25 97.61 213.50 C 94.95 215.06 91.66 216.80 91.09 220.14 C 90.27 223.44 93.61 225.50 96.01 226.95 C 105.68 231.54 117.47 230.92 126.84 225.86 C 132.80 222.20 137.51 216.49 139.86 209.89 C 142.01 203.31 142.45 196.24 141.54 189.40 C 139.94 174.38 134.90 159.99 128.81 146.25 C 127.63 143.55 126.15 140.98 125.28 138.15 C 134.41 139.46 143.70 139.22 152.86 138.47 C 154.16 139.02 154.63 140.55 155.36 141.65 C 158.68 148.06 161.97 154.51 164.81 161.16 C 168.03 169.27 170.29 177.77 171.58 186.41 C 171.98 189.45 172.34 192.62 171.60 195.64 C 170.61 197.74 168.29 198.52 166.29 199.30 C 161.06 201.23 155.83 203.24 151.00 206.05 C 147.47 208.01 144.10 210.60 142.15 214.21 C 140.66 216.76 140.68 219.89 141.23 222.71 C 142.56 224.54 144.74 225.45 146.82 226.14 C 154.05 228.17 161.65 228.22 169.10 227.85 C 177.44 227.08 185.87 226.33 193.95 224.01 C 196.84 223.29 199.28 221.07 200.16 218.22 C 202.35 211.04 201.72 203.45 201.16 196.09 C 200.90 185.44 199.09 174.55 202.03 164.10 C 203.46 159.62 205.02 154.89 208.42 151.48 C 210.04 149.79 212.57 149.25 214.76 150.08 C 216.52 151.83 217.36 154.25 218.60 156.36 C 223.66 165.46 229.17 174.32 235.18 182.83 C 237.10 185.71 239.34 188.58 240.03 192.06 C 240.23 193.99 240.40 196.41 238.73 197.78 C 236.01 200.13 232.34 200.77 229.10 202.13 C 223.97 204.20 218.76 206.85 215.31 211.33 C 213.33 213.66 213.61 216.94 214.25 219.72 C 216.12 220.96 218.42 221.18 220.59 221.47 C 228.00 222.21 235.45 221.34 242.83 220.66 C 250.59 219.35 258.48 217.96 265.69 214.66 C 268.83 213.02 272.35 211.18 273.83 207.75 C 274.70 204.04 273.08 200.38 272.14 196.85 C 268.91 185.36 265.75 173.81 263.95 161.99 C 262.70 154.79 262.37 147.41 263.33 140.15 C 264.69 129.47 263.73 118.68 262.76 108.01 C 260.54 89.53 255.75 71.02 246.15 54.92 C 240.51 45.26 232.79 36.79 223.63 30.36 C 212.30 22.49 198.74 18.25 185.07 17.03 C 171.92 16.02 158.64 16.91 145.75 19.69 C 141.89 20.55 138.35 22.40 134.61 23.63 C 119.36 28.93 103.34 33.02 87.08 32.29 C 86.65 32.17 85.79 31.95 85.36 31.83 C 85.02 29.74 84.23 27.40 85.23 25.37 C 87.88 20.16 89.74 14.15 88.70 8.28 C 88.26 5.36 85.09 3.67 82.35 4.35 C 78.21 4.93 75.18 7.97 71.92 10.27 C 70.17 9.76 68.66 8.68 67.04 7.87 C 59.38 3.87 50.60 2.39 42.03 2.86 C 35.11 2.85 28.41 4.88 22.12 7.60 C 17.33 4.72 12.46 -0.02 6.37 1.38 Z" />
<path fill="#504b48" opacity="1.00" d=" M 9.37 5.38 C 12.51 5.11 15.99 6.57 17.92 9.02 C 17.58 10.67 15.62 11.37 14.60 12.61 C 12.33 14.38 11.32 17.30 9.08 19.05 C 7.29 15.69 5.66 11.97 5.83 8.09 C 5.90 6.37 7.94 5.66 9.37 5.38 Z" />
<path fill="#504b48" opacity="1.00" d=" M 79.35 8.39 C 80.72 7.83 82.28 7.89 83.70 8.21 C 85.86 9.46 85.82 12.39 85.57 14.56 C 85.09 16.92 84.80 19.63 83.02 21.40 C 80.80 19.13 79.30 16.24 76.87 14.15 C 76.23 13.26 74.59 12.52 75.09 11.21 C 76.31 10.01 77.77 9.04 79.35 8.39 Z" />
<path fill="#504b48" opacity="1.00" d=" M 35.18 18.07 C 37.36 17.67 38.67 19.94 39.36 21.66 C 40.02 24.06 40.31 27.39 37.80 28.84 C 35.64 29.14 34.40 27.00 33.68 25.32 C 32.91 22.90 32.76 19.63 35.18 18.07 Z" />
<path fill="#504b48" opacity="1.00" d=" M 49.24 17.97 C 49.86 18.00 51.10 18.06 51.72 18.09 C 53.92 20.81 54.65 25.38 51.76 27.90 C 49.50 28.49 47.89 25.94 47.75 23.98 C 47.57 21.93 47.41 19.37 49.24 17.97 Z" />
<path fill="#504b48" opacity="1.00" d=" M 38.30 41.31 C 43.82 40.27 49.47 40.96 55.04 41.06 C 54.93 43.73 54.37 46.47 52.75 48.66 C 50.86 51.57 47.60 53.03 45.00 55.17 C 44.54 58.39 45.25 62.01 48.42 63.58 C 51.67 64.73 55.39 64.63 58.67 63.63 C 61.87 62.58 63.15 59.25 64.36 56.43 L 65.12 56.12 C 65.35 60.02 62.49 63.54 59.08 65.11 C 54.35 66.93 48.70 66.12 44.84 62.77 C 43.43 64.40 42.61 66.59 40.74 67.77 C 36.65 68.42 31.81 68.44 28.61 65.39 C 26.80 63.84 26.25 61.41 26.11 59.13 C 28.19 60.43 28.37 63.26 30.25 64.77 C 32.69 67.23 36.48 67.10 39.64 66.59 C 43.78 64.55 45.03 58.43 42.37 54.77 C 39.04 51.44 34.72 47.30 35.89 42.11 C 36.50 41.91 37.70 41.51 38.30 41.31 Z" />
</g>
</svg>
