<?xml version="1.0" encoding="UTF-8" standalone="no"?>
<svg id="svg2" xmlns:rdf="http://www.w3.org/1999/02/22-rdf-syntax-ns#" xmlns="http://www.w3.org/2000/svg" height="3266pt" width="4646pt" version="1.1" xmlns:cc="http://creativecommons.org/ns#" xmlns:dc="http://purl.org/dc/elements/1.1/" viewBox="0 0 4646 3266">
<path id="path4" d="m3512.7 15.719c-29.17 0.15408-47.856 33.577-49.672 60.431-7.08 21.96 12.97 39.22 31.77 45.02 60.99 17.79 121.99 35.62 183.08 53.02 11.3 3.48 20.241-5.0906 25.381-13.991 19.02 7.28 41.139 19.11 45.589 40.82-14.08 59.15-51.51 109.64-93.1 152.76-117.8 114.77-267.26 189.41-414.88 258-26.49-21.22-70.66 2.3506-77.38 33.691-8.13 2.86-16.801 3.5597-25.241 4.9297-6.17-0.41-12.34-0.38031-18.4-0.12031-38.56-2.14-72.55-21.5-108.68-32.47-90.51-14.96-179.26-39.739-270.07-52.659-11.73-15.05-31.119-22.73-49.809-23.45-50.8-3.53-101.6-7.0306-152.39-10.641-23.53-0.83-48.07-5.6588-70.95 1.8812-24.43 14.06-31.35 47.329-18.67 71.789 6.76 24.05 31.711 36.62 55.111 37.87 74.27 3.3 148.59 5.7894 222.87 9.0594 7.24-0.2 15.489 0.06 21.159-5.25 73.72 11.22 147.29 23.891 221.04 35.111 51.14 4.38 93.88 40.969 146.48 38.459 6.6 2.89 21.17 1.0706 28.05 0.0406 13.83-0.34 27.35-3.7209 40.78-6.7109 20.28 62.24 40.321 124.56 61.091 186.64-13.72 29.11 7.2988 58.77 12.819 87.27-459.76 6.8024-885.05 16.175-1370.6 26.95-27.81-98.67-56.5-197.09-84.5-295.71-0.22-1.42-1.12-3.5291 1-3.8391 41.82-18.1 83.6-42.141 130.65-41.361 57.68-6.72 116.9-12.199 170.82-35.219 22.75-8.92 47.911-33.681 34.991-59.891-15.32-28.19-50.51-33.801-79.42-37.791-164.5-3.02-329.3-11.83-492.7-33.16-22.91-2.53-45.64-7.2597-68.77-7.1797-8.26-2.78-24.639-1.0997-33.009-0.0297-46.33 2.1-99.82 15.09-125.05 57.98-25.92 42.04-0.2006 98.349 39.659 121.39 50.44 29.36 110.51 34.981 167.55 39.491 55.49-1.37 106.84 25.36 162.19 25.32 36.53 124.22 72.179 248.78 108.49 373.09 0.35 2.19 1.8503 4.77 0.3203 6.8-86.65 112.99-173.78 225.64-260.29 338.74-158.56-114.19-351.23-181.66-546.86-186.81-19.85-1.79-46.19-1.6109-66.07-0.011-200.24 5.62-397.64 75.18-558.11 194.87-162.42 120.24-287.53 290.03-354.33 480.74-7.58 35.94-14.761 72.969-8.9406 109.76 1.92 8.93 4.42 19.419 13.2 24.059 9.31 3.05 18.881-1.0397 28.161-2.4297-13.22 59.09-21.54 119.41-22.95 179.99-1.69 19.69-1.6906 45.49 0.01 65.08 5.15 193.51 71.139 384.94 186.56 540.39 107.79 146.3 258.38 261.09 429.08 323.93 248.05 93.11 536.25 71.39 767.28-58.45 191.91-105.37 343.24-280.69 423-484.24 18.67-0.16 38.7 4.83 57.9 6.5-55.31 169.85-113.91 338.94-170.15 508.6-4.57 17.23 29.489 33.991 34.239 13.111 65.6-172.01 135.07-342.6 203.96-513.26 37.97 2.11 77.31 7.6603 115.97 8.9703-34.95 57.2-73.251 112.47-108.84 169.34-2.46 2.8-3.9997 7.12-7.8797 8.25-32.79 7.78-60.011 42.54-48.391 77.08 1.16 24.02 28.86 33.9 49.28 29.93 42.51-11.24 85.061-22.37 127.58-33.6 24.23-6.16 46.69-25.509 48.35-51.759 1.11-21-0.8009-50.281-24.811-58.011-22.73-5.84-44.56 6.1897-66.28 10.93 30.4-49.9 61.031-99.8 92.741-148.88 20.86 1.54 41.81 0.56 62.7 1.65 71.64 13.67 148.72-1.8091 208.75-43.489 52.63-35.66 91.87-90.011 110.03-150.86 14.16 5.83 31.67 4.9609 43.23-5.8891 22.14-20.29 26.051-52.8 25.791-81.22-1.75-74.12-32.081-145.27-76.031-204.08 274.67-295.57 550.86-589.81 825.85-885.12-0.76-2.72 4.57-3.9309 4.45-1.2109 6.52 21.06 13.031 42.161 19.591 63.191-12.08 13.5-32.66 20.65-39.63 38.55-3.3 6.74 4.2291 12.399 3.4891 19.109-77.14 69.8-134.43 161.25-162.97 261.34-41 139.02-29.861 286.95-5.1406 427.92-4.7 10.54-5.7397 25.66 5.7703 31.92 12.8 61.66 26.519 123.31 38.659 185.15 9.08 31.27 45.55 50.759 74.9 32.309 66.59 171.07 159.18 332.2 275.38 474.43 98.63 119.71 214.62 227.08 349.92 304.09 96.73 53.76 205.5 93.629 317.65 89.359 73.07-1.89 146.26-24.98 204.92-69.13 63.77-46.59 108.69-115.09 136.93-188.08 65.43-173.89 52.65-366.36 13.17-544.81-58.82-250.18-177.62-485.41-338.97-685.04-88.18-107.32-190.01-204.56-307.11-279.86 17.47-15.86 38.28-38.089 30.12-63.769-9.46-21.5-34.71-28.901-55.37-34.831-5.67-8.98-13.471-16.799-23.541-20.639-58.23-24.49-120.67-40.911-184.08-41.861-13.3-2.18-33.72-1.4288-47.1-0.019-21.78 0.52-43.56 2.1888-65.15 5.0688 9.44-5.34 10.22-16.999-1.55-20.419-29.41-4.25-59.74-1.1-89.4 0.15-11.23-0.6-16.34 13.8-26.45 14.83-46.28-138.43-92.201-276.99-138.59-415.38-2.3-10.7-11.839-16.001-21.409-17.461-20.44-63.59-39.719-127.61-59.859-191.32-1.91-4.5 5.04-4.4691 7.45-6.4891 117.23-58.23 232.86-120.93 338.89-198.09 55.72-41.41 109.53-86.819 151.24-142.76 24.16-33.21 44.209-71.091 48.589-112.49 0.81-21.77 1.75-46.04-11.75-64.6-17.08-27.47-47.309-41.92-75.139-55.82-11.86-17.86-32.011-26.949-51.761-33.269-50-16.87-99.399-35.63-149.69-51.52-2.6187-0.48906-5.167-0.71462-7.639-0.70156zm-2.6141 13.325c16.737 0.27727 31.926 9.7669 48.003 13.836 45.29 17.2 93.24 28.06 136.82 49.38-22.37 3.65-32.58 33.831-19.72 51.511 4.66 6.47 12.98 7.77 19.33 11.9-6.05 7.59-16.66 5.99-24.83 3.65-50.3-15.07-100.62-30.07-150.92-45.13-15.11-5.4-36.741-8.8609-42.991-26.011 1.56-12.73-1.8494-26.44 3.9406-38.45 4.8-10.59 15.92-14.749 25.12-20.459 1.7672-0.18469 3.5155-0.25525 5.2469-0.22656zm198.4 77.256c33.36 12.87 66.42 35.209 83.4 67.809 11.22 41.52-2.3906 85.401-23.141 121.69-32.77 55.62-80.281 100.62-130.04 140.96-133.56 105.3-285.28 184.36-437.75 258.26-48.96 15.98-104.28 15.58-152.31-3.7203-22.68-9.59-45.82-18.89-70.53-21.47-77.55-12.41-155.13-24.63-232.61-37.4-19.54-1.57-38.77-18.029-39.48-38.289 0.69-13.17 17.96-14.481 27.77-13.111 82.99 7.09 164.17 26.75 245.56 43.57 22.54 4.29 44.471 11.539 64.831 22.159 39.23 14.54 83.469 28.231 124.79 14.281 87.21-39.56 173.02-82.291 256.17-129.84 87.2-50.58 172.53-106.35 244.58-177.42 40.81-41.6 77.66-89.63 95.32-145.87 6.97-19.73-11.501-36.359-27.041-44.969-14.43-9.58-31.549-13.311-46.789-21.041-15.08-12.29 0.8503-35.4 17.27-35.6zm-2220.5 405.44c29.456 0.13267 58.712 5.1084 87.962 8.3422 140.14 16.75 281.16 25.14 422.17 29.92 22.43 0.36 49.31-2.8497 64.4 17.67 5.46 12.34-10.591 18.829-19.361 22.439-40.33 14.28-83.109 22.431-125.94 23.061-43.48 2.14-83.881 20.279-121.83 40.189-29.47 15.59-60.789 32.961-95.359 30.731-48.02 3.07-92.45-19.64-139.85-22.27-54.99-3.1-111.15-7.7309-162.86-28.111-20.28-8.59-40.82-20.98-51.72-40.78-2.69-17.67 7.9697-34.42 20.18-46.18 27.86-24.42 65.96-31.38 101.78-34.25 6.8213-0.56625 13.63-0.79311 20.428-0.7625zm996.6 29.703c61.29 1.49 122.37 9.9691 183.57 14.439 15.98 1.57 32.32 1.6109 47.78 6.5109-11.33 0.86-25.59 4.0397-29.03 16.68-5.27 24.67 13.401 46.099 32.241 59.109-62.88-1.49-125.79-7.5691-188.69-10.589-20.05-2.53-43.799 1.61-60.039-13-8.43-15.17-25.48-32.571-12.22-50.431 8.6-7.62 13.699-21.639 26.389-22.719zm-427.8 10.85c25.61 1.73 61.17 6.8891 71.17 34.689-4.73 8.57-16.609 12.031-25.759 15.191-33.93 7.16-68.99 7.4-103.42 7.3 23.54-4.5 48.001-8.48 69.041-20.65 4.96-3.28 10.86-7.7909 10.18-14.511-1.05-11.26-16.971-16.559-21.211-22.019zm-707.93 62.889c62.21 44.43 141.81 51.381 215.83 56.161 48.47 6.98 95.851 24.779 145.41 21.809 78.48-12.59 144.79-69.941 226.63-67.391 57.98-6.28 116.49-3.7591 174.46-7.9391-16.68 14.75-39.239 20.82-60.089 27.27-45.63 11.78-92.721 16.22-139.61 19.35-57 5.9-103.53 41.83-155.14 62.88-53.73 19.88-108.26-4.6697-160.97-14.68-59.61-5.67-120.73-10.12-176.68-33.32-29.45-12.47-59.321-32.421-69.841-64.141zm1857.7 1.2109c4.893-0.037 9.4538 2.3234 13.662 4.7297-10.72 5.33-21.811 11.149-33.311 14.309-0.7-9.84 7.7812-18.64 17.531-18.87 0.7125-0.11 1.4182-0.16346 2.1172-0.16876zm36.083 71.819c25.8 69.51 46.74 141.01 71.15 211.13 9.79 22.14-32.461 38.309-44.881 22.569-21.01-72.12-43.23-144.05-62.8-216.55 12.23-5.57 24.201-11.74 36.531-17.15zm-1453.2 33.111c7.39 18.44 12.48 41.24 18.42 61.53-14.07 19.71-41.601 29.45-65.161 22.53-6.54-20.69-12.5-41.61-18.25-62.53 22.83-2.81 44.211-12.14 64.991-21.53zm24.439 81.989c16.25 55.75 32.37 111.61 47.97 167.51-13.87 19.06-41.21 31.369-64.4 23.759-17.41-58.48-34.08-117.25-51.27-175.82 23.54 5.72 50.26 2.83 67.7-15.45zm1514.9 90.83c6.59 2.87 7.3494 10.459 9.6594 16.419 43.74 134.72 88.53 269.26 131.52 404.09-23.8 16.98-52.7 25.471-75.97 43.291-46.34-138.98-91.149-278.49-137.61-417.44-0.97-3.35-1.3797-6.8794-1.6297-10.309 8.15 16.44 31.51 12.55 46.22 7.7297 19.68-4.13 39.219-23.06 27.809-43.78zm-1461.8 96.916c0.9038-0.14392 1.359 2.4644 1.814 3.2344 100.79 352.43 202.56 704.61 303.01 1057.1-22.46-1-44.94 0.039-67.37-0.5609-100.82-347.51-202.65-694.84-302.57-1042.6 22.64 5.51 48.97 1.5897 64.7-16.97 0.1488-0.14624 0.288-0.2232 0.4172-0.24376zm1384.1 12.788c4.4901 0.029 8.9822 0.1644 13.467 0.3968 5.62 18.76 11.881 37.359 17.191 56.209-457.44 8.66-914.99 17.649-1372.4 27.559-5.22-17.68-10.49-35.389-15.1-53.219 444.79-9.29 889.66-20.231 1334.5-30.161 7.4313-0.5875 14.909-0.8342 22.392-0.7859zm23.181 72.976c4.1264-0.014 8.2553 0.063 12.377 0.2391 14.69 46.33 29.76 92.86 43.17 139.52-284.69 307.06-568.09 615.43-852.73 922.46-10.99-9.15-22.38-17.831-34-26.061 12.38-22.47 25.219-44.72 37.909-67.02 7.08-14.59 22.33-22.91 37.02-28.05 20.29-2.46 43.97-6.3597 55.85-25.08 11.34-20.8 7.0503-47.58-3.8797-67.75-9.79-17.94-32.491-22.369-51.141-19.489-43.1 7.47-86.231 14.839-129.24 22.739-11.4 4.56-21.879 12.01-29.589 21.63-11.93 16.65-6.7706 38.671-0.4906 56.541 10.08 22.53 38.76 30.1 61.28 25.63-0.63 19.51-17.949 36.03-26.839 53.7-64.59-31.94-137.99-34.689-208.55-35.009-90.36-314.3-180.55-628.71-270.08-943.24 446.12-8.82 892.24-20.25 1338.4-29.95 6.825-0.5063 13.696-0.7855 20.573-0.8094zm-1448.7 63.539c8.13 20.4 15.141 47.19 20.741 70.12-224.78 291.95-449.6 583.95-673.47 876.6-22.42 8.13-49.849 7.0497-74.109 12.68 241.61-320.23 484.6-639.58 726.84-959.4zm26.42 87.72c79.11 273.74 159.27 547.27 237.85 821.12-43.12 1.87-90.67 0.2897-135.48 0.7797-49.83-204.82-164.31-393.66-324.22-531.13 73.14-97.14 147-194.15 221.15-290.51l0.7-0.2609zm1483.4 5.0703c5.1 16.97 12.411 33.93 15.331 51.27-277.64 298.46-555.76 596.5-833.8 894.59-10.21-10.76-20.901-21.139-30.961-32.009 283.19-304.56 565.88-609.64 849.43-913.85zm-2348 62.328c199.55 1.031 398.39 65.974 559.68 183.52-18.89 25.05-38.259 51.29-57.959 74.8-144.17-101.78-319.11-160.72-495.99-161.81-197.92-4.88-395.94 62.709-551.9 184.16-86.77 67.38-161.59 150.47-218.26 244.67-22.75-23.54-53.411 9.01-48.041 33.95 1.04 10.12 23.28 8.2203 16.22 19.22-25.65 49.31-39.641 104.82-73.361 149.72-15.37 20.51-38.329 37.36-64.519 39.25-12.88-1.5-12.811-18.02-13.161-27.85 1.83-30.12 10.55-59.289 17.58-88.469 75.68-208.08 222.72-389.53 411.3-505.73 140.1-87.16 302.78-137.54 467.68-144.31 16.898-0.8375 33.814-1.2093 50.725-1.1218zm2573.6 2.2656c7.6542-0.0008 15.289 0.3306 22.831 1.4156 7.98 0.69 7.53 8.8209 1.4 12.061-48.97 34.29-99.251 66.73-150.59 97.37-23.94 15.8-54.831 7.7388-80.491 1.0188-0.75-7.08 5.4612-12.35 11.081-15.48 47.86-26.49 97.18-51.35 139.78-86.12 7.54-5.91 16.99-8.9 26.52-9.5 9.7538-0.2138 19.628-0.7647 29.469-0.7656zm115.81 16.803c68.807 0.2683 137.77 12.414 201.18 39.523 11.34 5.08 24.76 9.59 31.5 20.85 0.66 6.25 0.1194 17.37-5.4906 20.93-77.23-22.91-156.15-42.149-236.74-48.059-46.35-2.66-93.541-1.5903-138.29 12.08 19.19-14.08 38.691-27.98 58.891-40.57 16.79-2.63 33.84-2.54 50.78-3.7 12.695-0.7453 25.431-1.1028 38.173-1.0531zm-39.931 40.381c95.648-0.066 189.61 24.585 280.01 54.122 2.8-10.05 4.5794-20.36 5.2594-30.77 16.24 2.35 35.891 9.13 41.641 26.1 4.84 18.58-6.9997 36.291-19.43 48.941-32.56 33.51-85.21 51.46-130.02 33.37-115.5-35.03-244-50.911-359.26-6.8109-8.63-18.26-10.08-40.06-23.1-55.95 33.88-19.05 62.539-49.77 102.04-56.95 25.68-6.58 52.051-10.129 78.511-11.489 8.1289-0.3726 16.246-0.5569 24.352-0.5624zm-2658.1 54.148c177.37-0.4254 354.91 55.653 498.88 159.35-8.55 14.03-21.211 27.921-31.231 41.991-1.38 4.04-5.5397 2.0503-7.4797-0.2297-138.2-97.04-307.86-147.63-476.54-143.82-114.77 2.16-228.92 29.77-332.25 79.72-139.92 67.39-259.47 175.88-341.05 307.93-1.03 1.06-1.8003 3.6594-3.6703 2.5094-15.83-8.71-31.51-17.75-47.25-26.62 83.06-137.19 204.34-251.34 347.09-324.69 113.14-59.2 239.86-91.1 367.34-95.67 8.7183-0.2953 17.441-0.4525 26.164-0.4734zm2375.6 11.133c20.53 3.35 41.27 7.9609 62.2 8.1109 5.08 3.47 8.4703 8.8094 10.72 14.459 67.65 197.82 134.48 395.94 202.2 593.74 43.87 101.07 109.17 190.8 176.12 277.62-5.19 7.12-10.91 14.759-13.75 23.559-8.03-0.62-11.781-8.92-15.961-14.6-54.75-79.52-109.78-158.84-164.74-238.21-5.13-7.71-11.361-14.96-14.041-23.95-81.98-211.73-163.86-423.5-245.82-635.24-0.78-2.26 0.7203-4.9606 3.0703-5.4906zm-4.15 26.9c10.16 24.22 19.06 49.141 28.52 73.691-43.81 31.2-80.08 72.42-107.02 118.88-79.47 136.53-89.54 302.53-84.48 455.19-14.62-66.6-25.891-134.46-25.191-202.85-2.53-115 30.331-230.53 93.041-326.97 27.31-42.63 59.73-81.821 95.13-117.94zm265.5 23.37c67.903-0.3342 135.3 13.936 199.63 35.12 37.64 15.01 77.361-4.5303 109.53-23.82 2.24-1.55 4.7094 0.5409 6.7594 1.5609 127.19 79.23 236.18 185.04 328.82 302.24 149.65 192.57 260.29 416.93 313.66 655.33 33.66 157.35 44.38 324.46-3.03 480.13-19.47 61.75-48.901 121.2-92.291 169.72-53.8 61.93-131.02 102.47-212.32 112.67-77.1 10.98-155.65-2.6303-228.49-28.37-133.08-47.79-249.12-133.41-350.23-230.78-113.13-110.75-207.55-239.88-283.29-378.71-66.46-122.23-118.92-252.42-152.33-387.58 21.33 8.46 43.069 16.629 63.759 26.389 28.89 129.65 78.341 254.25 142.21 370.56 102.23 183.37 241.15 351.71 421.61 462.38 79.46 47.51 168.76 83.759 262.34 86.709 83.32 4.38 168.95-25.29 228.26-84.75 76.88-75.81 109.56-184.9 119.11-289.88 13.77-152.11-17.38-304.94-67.8-447.98-74.85-205.55-193.7-396.44-352.34-547.67-59.44-55.69-124.69-105.7-196.4-144.61-77.42-41.71-163.94-71.511-252.84-69.181-46.38 0.02-92.21 12.071-133.9 32.011-7.89-23.87-17.119-47.51-23.939-71.63 39.26-17.08 81.8-25.7 124.38-28.8 9.7138-0.6662 19.425-1.0132 29.125-1.0609zm-2636.9 12.134c161.55-0.6224 322.82 50.442 454.72 143.68-4.46 7.55-11.48 14.739-16.63 22.509-53.46-36.05-110.46-67.301-171.13-89.491-183.88-69.2-394.79-63.25-574.13 17.25-142.33 62.73-263.91 170.3-345.76 302.32-8.52-3.53-16.14-9.18-24.6-13 73.43-121.04 180.04-221.85 304.72-288.96 104.41-56.65 221.89-88.381 340.51-93.491 10.764-0.5038 21.535-0.7742 32.305-0.8156zm-1.3078 44.544c6.0952-0.021 12.19 0.034 18.283 0.1625 0.8711 0.1662 1.8649 0.1902 2.9219 0.1422 4.7996 0.2415 9.6177 0.4757 14.448 0.5672 140.4 5.18 278.32 53.15 393.58 133.12-112.81 148.07-226.88 295.55-340.51 443.07-47.28 10.5-96.45 17.899-140.47 39.459-9.78 5.66-20.599 11.671-26.009 22.041-5.6 13.85-0.9009 29.13 6.0891 41.52-188.03-105.32-375.13-212.39-562.94-318.13-2.79-0.39-3.3706-3.15-1.7906-5 68.94-110.1 165.88-202.82 280.05-265.02 108.47-60.171 232.41-91.508 356.35-91.933zm639.93 8.1922c155.41 131.74 267.39 316.51 316.32 515.02-32.45-1.38-64.84 1.6697-97.3 0.6297-46.51-169.81-144.25-324.83-276.44-440.97 19.42-24.65 37.639-50.39 57.419-74.68zm1769.6 9.1906c10.97 23.22 20.101 51.15 29.981 76.3-63.43 60.81-98.621 145.59-114.29 230.83-18.22 100.42-14.05 203.89 3.65 304.09-21.63-8-43.309-16.049-64.709-24.559-20.02-94.7-29.371-191.79-24.891-288.56-0.56-18.07 5.8594-35.161 10.659-52.281 28.93-94.24 78.84-186.6 159.6-245.82zm256.71 18.288c18.748 0.029 37.583 1.0843 54.164 5.2218-67.51 3.37-136.3 31.11-185.92 79.08-6.44-16.71-11.989-33.84-17.669-50.83 35.74-19.3 75.96-29.309 116.28-32.859 10.68-0.2775 21.897-0.63 33.145-0.6124zm81.691 27.134c31.023-0.01 63.986 4.2772 93.853 13.808 113.29 49.16 211.03 128.54 295.51 217.51 102.16 109.55 184.98 236.63 247.31 372.69 65.79 144.76 109.69 301.33 112.98 460.98-0.16 10.67-0.118 21.36-0.02 32.08-1.88 89.52-18.981 180.89-63.411 259.55-7.18 12.05-13.82 25.141-25.56 33.441-46.47 39.22-106.47 60.65-166.97 63-10.42-0.11-20.75-0.1309-31.08-0.011-109.25-5.57-210.34-57.439-297.39-120.59-144.48-107.31-257.21-252.9-340.49-411.52-41.72-80.29-75.861-164.67-100.04-251.9 114.82 46.6 229.64 93.43 344.14 140.78 11.74 25.09 33.75 51.01 64.38 49.02 27.31-2.9 42.66-31.49 42.67-56.73 26.1-20.74 54.64-38.501 81.58-58.241 4.74-4.29 10.119 3.2397 15.359 3.1297 24.21 8.2 49.31-10.08 55.22-33.53 14.56-44.94-14.439-109.71-66.509-110.56-51.52-60.74-96.101-127.59-132.11-198.67-50.16-134.52-100.81-268.91-150.53-403.56 6.8906-0.4462 13.947-0.6768 21.106-0.6781zm-37.167 1.1093c1.1308 0.05 1.4828 1.7544 2.0516 2.8188 49.74 132.83 99.56 265.63 149.48 398.39 34.19 74.29 82.599 140.94 132.06 205.65-7.74 3.65-13.7 9.65-17.93 17-51.91-71.09-103.27-142.6-154.81-213.96-3.19-3.65-4.58-8.28-6.35-12.65-52.33-128.76-104.16-257.74-156.67-386.43 16.56-5.66 34-7.9209 51.25-10.561 0.3563-0.1931 0.6579-0.2692 0.9187-0.2579zm-60.609 14.288c52.74 131.84 105.67 263.61 158.72 395.32 47.43 72.03 98.891 141.55 146.44 213.45-75.57-20.85-150.81-43.189-226.31-64.389-23.71-35.73-44.439-73.68-62.609-112.57-41.73-121.18-81.92-242.9-123.8-364.02 28.22-31.36 65.66-53.78 105.3-67.75 0.57-0.01 1.6994-0.031 2.2594-0.041zm-2079.1 20.061c12.11 6.79 22.25 20.059 33.7 29.389 111.19 108.54 194.46 246.43 235.64 396.4-16.79 1.57-37.88 0.5303-56.35 1.9703-2.87-4.02-3.9606-8.7803-5.3906-13.37-44.56-142.48-130.14-271.06-240.86-370.66 10.86-14.73 22.019-29.28 33.259-43.73zm1877.8 21.109c10.15 23.23 19.89 50.43 29.23 75.38-46.91 85.64-61.519 185.56-59.539 282.13 0.39 65.31 9.4094 130.44 23.909 194.06-32.15-11.76-64.349-23.6-96.239-35.97-19.49-111.57-23.81-227.86 5.35-338.14 17.78-65.55 47.809-129.9 97.289-177.46zm-1921.9 37c111.59 95.64 195.09 227.42 238.4 368.62-7.98 0.98-20.549 3.01-28.719 1.15-43-133.08-121.64-254.21-225.73-347.54 3.85-7.39 10.44-15.13 16.05-22.23zm-26.93 35.091c101.92 87.57 178.09 207.44 220.58 335.82-166.82 5.27-333.79 13.94-499.84 31.72 91.48-123.14 186.48-244.9 279.26-367.54zm1987.6 30.219c43.63 107.84 83.481 217.62 126.16 325.99 10.35 17.65 22.9 33.94 33.53 51.45-69.55-19.52-138.83-40.02-208.39-59.5-1.62-0.29-1.3703-2.41-1.7203-3.55-8.62-106.36 1.7703-217.93 50.42-314.39zm-3268.1 85.4c2.3264 0.061 4.4881 1.3137 6.5656 2.3187 237.39 130.7 475.04 260.95 712.36 391.78-8.46 3.88-15.18 13.861-23.53 16.431-232.88-130.67-465.68-261.59-698.47-392.45-9.39-2.31-8.8394-16.551 0.6906-17.691 0.815-0.2975 1.6089-0.4095 2.3844-0.389zm13.206 44.289c16.25 8.56 34.09 17.53 48.5 27.58-94.81 182.07-121.04 399.08-69.761 598.09 61 247.05 241.92 461.65 477.19 559.81 170.44 72.49 366.32 83.49 543.7 30.03 230.52-67.73 424.68-243.9 518.25-464.74 33.83 6.41 70.019 10.579 102.66 16.839-89.72 230.62-276.43 422.2-505.67 516.15-237.7 99.4-518.03 89.9-748.11-26.2-201.98-99.8-363.63-276.8-447.13-485.9-73.051-181.7-87.909-386.3-41.619-576.6 67.54-44.68 85.3-128.13 122-195.15zm63.369 36.12c7.46 2.48 18.321 7.7291 24.111 13.489-103.44 197.34-118.91 438.75-39.991 647.32 64.57 174.62 193.39 324.99 357.24 413.75 177.72 98.19 395.67 120.11 589.4 59.32 211.1-64.17 388.78-224.98 478.23-426.14 7.95 2.63 35.1-1.9891 25.52 11.961-86.27 193.99-251.41 352.08-450.69 426.26-131.94 49.71-277.39 63.22-416.18 38.33-196.9-34.5-377.95-147.7-497.24-307.8-109.82-144.8-168.32-327.4-164.02-509 1.38-127.49 33.71-254.97 93.63-367.49zm2258.7 5.4641c12.165-0.1206 25.264 4.8981 29.997 16.736 9.34 21.32 3.3194 54.629-22.291 61.359-43.18 7.66-86.58 14.12-129.83 21.35-23.07 4.63-44.049-19.519-39.959-41.889 2.21-14.43 7.8194-32.671 23.959-36.381 43.85-6.77 87.7-13.619 131.52-20.589 2.1297-0.3641 4.3504-0.5636 6.6031-0.5859zm-2220.2 15.236c191.46 106.21 382.58 213.08 573.69 319.91-14.54 24.25-7.1197 54.31 5.1703 77.95 8.54 20.16 26.359 33.871 43.459 46.541 36.81 27.15 78.07 47.38 119.4 66.6 195.53 84.63 404.7 132.33 613.15 172.7-53.61 118.29-137.6 222.79-241.97 300.14-121.58 90.71-271.25 143.07-422.97 147.01-15.03-0.1-30.061-0.1109-45.081-0.011-219.63-4.75-432.55-114.87-567.37-287.6-84.81-107.32-140.62-237.55-158.79-373.2-22.92-159.94 5.3294-327.32 81.309-470.04zm2885 15.559c4.09 57.94 12.29 115.99 24.15 173.03-8.2-2.97-17.18-5.4494-24.47-9.8594-4.99-54.17-5.4497-109.04 0.3203-163.17zm-734.54 74.286c5.7175-0.3213 3.5421 9.5485 1.639 13.214-12.84 21.24-27.31 41.53-40.47 62.6-3.82-0.81-7.0503-3.2097-10.42-5.0297 9.97-19.53 21.15-38.51 31.6-57.82 3.75-5.87 8.78-12.399 16.4-12.759 0.4537-0.1169 0.8704-0.1833 1.2516-0.2047zm-464.85 40.927c94.695 0.03 189.39 1.2488 284.02 4.2875 131.65 8.22 243.85 107 291.53 226.48 15.07 37.5 25.31 78.461 20.43 119.03-3.03 23.33-17.789 51.55-44.619 51.28-27.01-2.72-46.041-25.29-61.991-45.12-37.03-47.52-64.77-102.39-108.35-144.65-32.86-31.79-78.371-44.499-121.74-54.259-125.41-23.6-253.98-21.51-380.94-18.02-295.09 8.93-590.55 34.829-885.67 14.639-23.14-1.56-47.69-4.1788-67.4-17.519-10.62-6.58-14.92-23.131-5.35-32.461 14.25-13.64 33.719-19.71 51.959-26.03 52.79-15.99 107.53-24.03 161.98-32.03 244.33-31.54 491.05-39.861 737.02-44.991 43.038-0.4187 86.082-0.651 129.12-0.6375zm1417.9 11.398c71.89 20.67 143.43 42.769 215.26 63.739 10.8 2.1 13 15.3 19.25 22.72-76.26-22.13-152.65-43.82-228.94-65.83-8.32-2.22-2.3188-14.93-5.5688-20.63zm4.3797 32.83c79.49 22.31 158.51 46.919 237.89 69.859 3.23 0.71 5.9406 2.6709 7.2406 5.9109 29.86 46.26 61.33 91.519 90.8 138.01-106.29-40.2-213.08-79.41-319.25-119.77-7.88-30.56-13.19-62.459-16.68-94.009zm-226.52 14.656c2.7159-0.095 5.4628 0.5784 7.9453 1.6734 195.04 78.5 390.36 156.37 585.35 234.95 1.4 3.72 2.5606 13.291 1.4406 16.241-197.63-78.67-395.47-156.89-593.01-235.82-8.3-0.34-11.7-12.98-4.4203-16.68 0.8875-0.215 1.79-0.3324 2.6953-0.364zm7.5453 32.214c10.08 4.04 21.01 7.1891 30.32 12.739 14.93 59.12 32.67 117.67 53.77 174.95-8 6.34-20.251 13.04-30.041 6.2703-11.39-7.93-15.491-22.18-19.241-34.83-16.91-51.73-27.489-105.29-34.809-159.13zm516.8 10.169c76.02 22.45 151.95 45.231 227.91 67.881-2.13 3.18 1.6009 14.949-5.0391 12.109-68.11-19.54-136.15-39.29-204.32-58.58-10.13-2.07-12.94-14.271-18.55-21.411zm27.32 38.75c65.6 19.84 131.59 38.56 197.05 58.8-26.87 15.19-53.46 30.961-80.32 46.111-12.14-6.68-26.019-8.2009-39.559-7.9109-27.06-31.2-53.59-63.09-77.17-97zm242.25 2.4078c38.671 0.3698 61.613 47.843 54.289 82.292-2.78 21.33-23.049 40.891-45.669 34.461 18.32-13.87 27.87-42.971 12.05-62.211-14.38-17.26-39.9-11.389-57.8-3.6094-0.45-21.09 9.8791-47.51 33.339-50.82 1.2797-0.088 2.5432-0.1244 3.7906-0.1125zm-654.25 2.5422c33.13 13.94 66.89 26.7 99.67 41.3 40.1 143.05 103.9 279.62 187.21 402.73 92.84 135.8 209.22 259.11 353.51 340.49 105.15 59.37 235.68 94.541 352.39 48.611-46.96 37.15-107.49 55.34-166.94 57-76.51 3.3-151.5-19.52-219.95-52.1-76.92-37.13-146.34-88.291-209.24-145.76-98.27-90.41-180.32-197.61-246.8-313.2-67.73-118.3-119.83-245.95-149.85-379.07zm-1323.2 11.931c16.212-0.1416 32.42 1.8866 48.642 0.5391-31.76 39.42-55.74 86.01-63.75 136.43-25.13-2.26-50.331-3.9694-75.431-6.3594-6.84 1.48-4.27-4.7406-4.6-8.2406 13.51 3.49 28.741 8.1512 42.141 1.7312 17.37-6.53 26.251-25.621 26.841-43.211 0.5-26.9-0.1003-53.81 0.1797-80.7 6.32-0.01 12.64 0.03 19.03 0.02 2.3162-0.125 4.6325-0.1891 6.9484-0.2094zm-95.667 0.1219c15.749-0.013 31.498 0.012 47.248 0.1672 3.2 28.3 7.0506 57.68-0.8594 85.55-3.01 8.91-10.751 17.15-20.561 17.73-20.66-4.54-41.769-13.319-55.039-30.539-15.72-20.77-16.23-48.01-18.03-72.85 15.745 0 31.492-0.045 47.241-0.058zm-77.67 0.8531c4.0238-0.01 8.0487 0.084 12.069 0.2938 4.82 39.66 15.81 81.94 47.12 109.32 2.17 5.65 0.4897 12.301 0.08 18.311-33.61-2.53-67.2-5.5503-100.8-8.0203 1.35-39.67 1.5809-79.411-1.7891-118.99 7.71 0.07 15.5 0.49 23.25-0.1 6.6625-0.5063 13.364-0.8005 20.07-0.8141zm244.25 1.375c17.14 0.16 34.531 0.63 51.461 3.35-58.85 44.12-92.75 118.79-87.17 192.2-8.57-12.23-24.871-13.731-38.491-9.8812-0.34-68.14 25.23-137.74 74.2-185.67zm-316.79 0.6438c4.175-0.024 8.3572 0.075 12.542 0.2453 3.51 38.44 4.3409 77.181 2.1609 115.74-9.28 0.03-18.53-1.0303-27.7-2.1703 1.39-36.87 1.3597-73.84-2.1703-110.6-0.8-2.07 1.0703-2.4903 2.6703-2.7203 4.155-0.325 8.3219-0.4715 12.497-0.4953zm-31.288 1.1359c1.88 16.21 2.5606 32.64 3.1906 48.98-0.12 12.68-0.09 25.38-0.03 38.1-2.07 8.34 5.4897 29.57-10.67 23.68-216.44-17.81-432.98-34.75-649.34-53.28-15.28-16.96 4.6097-38.58 22.13-42.98 55.3 1.23 110.64 0.16 165.96 0.55 12.08 0.23 24.17 0.079 36.25-0.7109 144.2-2.87 288.35-9.1691 432.51-14.339zm429.74 3.3c21.07 2.04 42.67 3.0491 63.23 8.0391 8.36 30.34 17.21 60.571 26.12 90.761-22.13 4.63-42.281 17.099-56.041 35.089-13.12-41.37-24.6-83.47-36.82-125.2-2.79-3.82-0.5491-7.9291 3.5109-8.6891zm-1221.2 2.2203c8.39 1.99 17.071 1.9597 25.541 3.4797-22.6 11.14-40.561 33.789-42.411 59.659-4.36 33.08 18.141 66.331 49.641 76.291 8.1 2.99 17.299 1.54 24.909 6.05 40.53 21.22 82.67 39.15 125.3 55.67 256.23 95.52 525.91 150.67 796.45 186.44-3.81 5.73-2.0397 20.79-12.53 17.75-147.76-20.87-294.67-47.83-440.17-80.93-124.49-29.07-248.62-61.71-367.93-108.08-62.95-25.7-127.06-53.01-178.76-98.23-16.85-14.46-25.66-37.48-24.47-59.47 2.02-26.03 21.02-48.37 44.43-58.63zm90.491 6.2094c10.78 2.32 24.78-0.33 33.95 2.05-5.74 3.78-10.321 10.68-11.491 18.2-5.43-8.99-14.849-13.69-22.459-20.25zm1207.4 1.1406c17.61 3.95 35.699 6.4894 52.839 12.259-10.1 18.72-22.099 36.629-33.209 54.859-7.16-21.45-12.95-44.899-19.63-67.119zm-93.911 2.5c14.22 42.22 26.401 88.849 39.331 132.96-38.8-3.3-77.61-6.4706-116.42-9.5406 7.65-49.02 37.559-93.949 77.089-123.42zm-1149.3 7.6141c27.063-0.7383 53.192 22.631 53.033 50.325 2.77 28.45-22.64 55.66-51.12 54.87-27.72 2.25-53.18-22.07-53.95-49.45-2.19-26.91 19.6-53.04 46.62-55.27 1.805-0.2694 3.613-0.4258 5.4172-0.475zm1315.4 8.4047c5.28 0.02 10.25 3.22 15.33 4.75-13.04 21.91-26.14 43.91-39.78 65.47-6.01 0.75-12.2-0.1303-18.08-1.0203 14.09-23.11 28.1-46.31 42.53-69.2zm1675.1 8.7624c7.4424-0.2287 15.868 4.6869 14.372 13.078-0.63 18.45-16.069 32.89-30.869 41.9-24.13 13.74-47.75 28.49-72.1 41.78-3.7-14.22-12.12-26.81-19.75-38.65 35.04-19.03 64.78-50.779 105.25-57.689 0.9912-0.2475 2.0337-0.386 3.0969-0.4188zm-1642.3 5.0376c2.71 0.19 4.9209 2.0312 6.8609 3.8312-8.18 8.2-15.17 17.629-24.22 24.919 5.29-9.87 11.189-19.43 17.359-28.75zm-1347.2 6.0093c-0.5812 0.012-1.168 0.049-1.7593 0.111-15.78 0.93-27.96 18.42-21.38 33.38 5.7 18.02 34.1 21.191 43.05 4.1906 11.053-14.812-1.8901-38.052-19.911-37.681zm1362.3 5.1907c11.55 7.38 22.53 19.39 31.7 30.65-16.27 17.35-32.051 35.311-48.941 52.011-8.19-12.45-20.071-21.86-33.041-28.8 16.96-17.77 33.391-36.061 50.281-53.861zm-1289.8 27.9c307.85 22.1 615.74 44.089 923.53 66.859-0.81 10.28-1.18 20.63-2.15 30.92-309.21-24.35-618.36-50.729-927.55-75.859 1.94-7.31 3.7303-15.1 6.1703-21.92zm2768.6 5.1766c43.432 0.2979 66.929 58.005 50.916 94.623-7.04 17.4-27.57 28.231-45.57 20.791-31.66-13.16-47.349-52.291-39.159-84.561 3.57-14.48 14.15-28.28 29.55-30.7 1.4419-0.1125 2.8631-0.1627 4.2641-0.1531zm-1436.6 12.033c26.7 27.31 47.529 63.431 71.309 94.581-3.58 61.75-39.27 120.2-90.72 154.09-52.36 35.29-121.31 43.69-180.87 22.98 10.97-18.47 22.091-37.02 34.111-54.8 53.06 22.56 119.11-17.18 123.39-74.7-1.72-29.75 4.9-60.74-6.6-89.15 16.17-17.83 32.791-35.52 49.381-53zm-131.15 16.425c33.91 0.4032 65.323 27.555 70.742 61.286-27.52-36.65-83.839-47.17-121.74-20.77-8.9 4.65-15.131 13.491-22.411 19.441 4.95-30.54 32.02-56.09 62.83-59.2 3.5353-0.5531 7.0702-0.798 10.578-0.7562zm-1219.8 7.6062c223.42 17.4 446.89 36.089 670.35 53.769 3.37 0.83 10.491-0.8891 7.0406 5.7609-7.41 51.74-20.71 102.58-38.17 151.83-141.09-26.17-281.35-57.859-419.09-98.309-85.61-25.87-171.45-53.6-251.68-93.35 12.05-3.81 22.44-11.1 31.55-19.7zm1013.8 30.8c39.2 1.93 78.29 5.9588 117.5 7.9188-1.5 10.86-4.49 21.501-4.2 32.631-37.92-1.02-75.96-5.1706-113.7-8.8406-2.18-9.32-0.87-21.369 0.4-31.709zm205.44 4.486c25.87 0.2503 51.058 15.522 63.177 38.464 13.33 24.58 11.231 56.579-6.0391 78.769-18.19 24.53-53.04 35.56-81.8 24.97 16.13-29.41 35.569-57.3 52.609-86.3 10.38-22.75-25.469-40.37-40.389-23.15-17.38 25.48-33 53.161-51.35 77.441-28.06-41.13 2.82-104.8 52.7-109.36 3.6876-0.5988 7.3964-0.8686 11.092-0.8328zm-525.5 20.533c9.19 0.24 18.34 1.6612 27.55 1.9812-6.68 55.08-20.21 109.53-39.02 161.71-9.18-1.64-18.379-3.1906-27.489-5.0906 17.64-51.44 31.259-104.62 38.959-158.6zm44.2 3.8109c33.82 1.98 67.68 4.7091 101.38 8.0891-8.11 57.88-19.94 115.69-39.38 170.85-33.9-3.62-67.469-10.579-101.14-16.059 18.34-52.85 31.209-107.53 39.139-162.88zm120.07 10.089c25.54 0.77 51.24 3.03 76.55 6.05-19.23 58.01-38.43 116.13-58.7 173.77-16.44-0.55-32.6-4.65-48.97-6.25-2.31-0.61-8.9991 0.17-7.0891-4.3 18.42-54.97 29.539-112.11 38.209-169.27zm109.19 2.3078c10.872-0.2135 21.045 9.1141 24.898 18.433-92.95 241.08-186.64 481.93-279.64 723-1.19 2.83-5.03 11.88-8.35 6.25-2.05-8.13 0.76-16.351 3.6-23.941 86.46-235.95 156.26-477.58 242.07-713.76 1.92-6.3 9.1991-9.1194 15.239-9.8094 0.7293-0.1019 1.458-0.1592 2.1828-0.1734zm48.338 9.7828c37.28 2.95 74.64 5.6106 111.88 9.1906-1.42 23.17 1.6509 47.979 15.411 67.339 1.13 1.81 3.29 4.0306 1.3 6.0906-13.29 20.03-25.91 40.57-39.58 60.3-47.95-32.15-82.931-85.1-89.011-142.92zm214.42 0.1906c4.25 5.93-3.1806 15.5-6.4406 21.7-76.86 123.41-154.06 246.61-230.82 370.08-4.59 10.55-18.56 10.039-28 12.839-2.62-7.42 1.49-15.179 5.8-21.019 83.07-124.24 165.61-248.84 248.95-372.9 2.87-4.06 5.6794-8.75 10.509-10.7zm208.96 10.419c8.98 8.66 19.38 22.17 31.32 30.45-17.32 63.64-59.839 120.14-116.44 154.07-68.86 42.58-158.77 50.27-233.35 18.73 6.5-10.79 12.979-21.71 20.139-32.05 57.27 21.51 123.48 18.091 177.97-9.9094 62.66-30.79 108.36-92.611 120.36-161.29zm-436.28 23.081c14.87 50.78 47.96 95.709 91.88 125.19-6.59 10.33-13.07 20.84-20.13 30.87-39.27-25.51-72.029-62.27-91.589-104.93 6.38-17.09 12.699-34.33 19.839-51.13zm-28.07 72.109c18.07 30.8 40.941 59.191 68.931 81.591-32.25-1.37-64.57-6.4406-96.82-9.5406 8.15-24.36 18.559-48.07 27.889-72.05zm-34.45 88.091c41.81 3.15 83.681 6.7688 125.51 9.7188-5.18 7.22-9.0897 15.45-14.88 22.2-39.5-2.13-78.84-7.46-118.12-12.15 0.85-6.89 4.1391-13.809 7.4891-19.769zm171.44 33.98c3.02 0.94 5.9794 2.1391 8.8094 3.6391-3.33 0.43-14.809 1.5709-8.8094-3.6391zm-48.164 166.45c9.36 0.1332 18.781 4.0063 22.494 13.156 8.15 24.62-2.5597 57.411-28.83 65.941-42.51 12.43-85.249 24.029-127.81 36.259-11.38 3.08-25.191 0.9606-32.431-9.1094-14.61-23.61-0.6397-62.31 27.07-69.35 43.32-12.41 86.71-24.791 130.38-35.841 2.8924-0.73 6.0065-1.1007 9.1265-1.0563z" fill="#1f1b17"/>
</svg>
