<?xml version="1.0" encoding="UTF-8" standalone="no"?>
<!DOCTYPE svg PUBLIC "-//W3C//DTD SVG 1.1//EN" "http://www.w3.org/Graphics/SVG/1.1/DTD/svg11.dtd">
<svg width="100%" height="100%" viewBox="0 0 500 500" version="1.1" xmlns="http://www.w3.org/2000/svg" xmlns:xlink="http://www.w3.org/1999/xlink" xml:space="preserve" xmlns:serif="http://www.serif.com/" style="fill-rule:evenodd;clip-rule:evenodd;stroke-linejoin:round;stroke-miterlimit:2;">
    <g id="Simple-Butterfly-Outline" serif:id="Simple Butterfly Outline" transform="matrix(3.41087,0,0,3.41087,-4625.87,-2767.87)">
        <path d="M1431.76,842.649C1432.92,844.444 1434.02,846.204 1435.05,847.931C1436.76,843.36 1439.5,839.601 1442.84,835.708C1448.86,828.688 1454.07,825.955 1458.17,826.11C1462.49,826.274 1465.85,829.497 1467.92,834.876C1472.74,847.374 1470.64,871.879 1459.85,890.814C1462.15,888.894 1464.96,886.691 1468.64,883.967C1475.47,878.924 1479.47,877.698 1483.62,876.723C1487.56,875.797 1491.64,875.124 1498.7,871.321C1499.19,871.054 1499.8,871.144 1500.2,871.542C1500.6,871.941 1500.68,872.552 1500.42,873.046C1497.19,878.987 1494.24,880.209 1490.82,881.046C1488.32,881.659 1485.51,881.998 1481.99,884.274C1484.18,884.752 1487.18,885.487 1489.31,886.865C1490.6,887.701 1491.6,888.765 1492.09,890.073C1492.59,891.397 1492.6,892.996 1491.76,894.926C1491.49,895.555 1490.76,895.852 1490.12,895.597C1486.45,894.128 1484.88,892.955 1483.3,891.815C1481.85,890.773 1480.4,889.765 1476.99,888.549C1473.75,887.39 1470.96,888.466 1469.96,890.079C1469.73,890.448 1469.6,890.839 1469.67,891.216C1469.74,891.582 1469.99,891.904 1470.41,892.178C1473.9,894.481 1475.75,899.258 1473.93,903.531C1472.76,906.256 1470.09,908.833 1465.22,910.292C1459.21,912.09 1455.23,914.289 1452.46,916.736C1451.14,917.903 1450.11,919.124 1449.26,920.377C1447.18,923.46 1446.22,926.733 1445.06,929.877C1443.15,935.011 1440.75,939.828 1433.09,943.234C1432.6,943.452 1431.34,943.583 1429.8,943.286C1427.05,942.756 1423.4,940.978 1422.37,937.034C1421.56,933.905 1422.43,929.174 1427.44,922.332C1425.31,923.018 1422.97,923.79 1420.43,924.691C1398.17,932.583 1371.2,921.839 1361.92,908.97C1358.62,904.392 1357.51,899.538 1359.3,895.09C1361.02,890.783 1365.57,886.758 1373.94,883.831C1381.36,881.234 1390.88,882.507 1400.35,885.446C1390.41,878.467 1387.94,876.225 1385.74,868.942C1381.4,854.549 1392.29,838.68 1404.76,832.685C1413.34,828.565 1422.56,829.056 1428.25,837.365L1428.56,837.815C1429.68,839.454 1430.74,841.064 1431.76,842.649ZM1452.42,892.781C1452.62,894.126 1452.78,895.433 1452.9,896.702C1467.36,878.037 1470.82,849.457 1465.56,835.789C1463.92,831.548 1461.48,828.778 1458.08,828.649C1454.47,828.512 1450.07,831.188 1444.77,837.362C1441.15,841.575 1438.25,845.597 1436.77,850.849C1437.12,851.447 1437.45,852.042 1437.79,852.632C1440.79,845.635 1444.56,839.981 1448.17,836.321C1451.46,832.987 1454.72,831.309 1457.22,831.454C1461.8,831.72 1464.19,835.727 1465.1,841.075C1466.31,848.218 1465,857.701 1464.57,861.267C1462.83,875.71 1457,886.146 1452.42,892.781ZM1423.71,835.998C1418.83,831.658 1412.13,831.964 1405.86,834.975C1394.39,840.487 1384.18,854.973 1388.18,868.208C1389.66,873.131 1391.32,875.512 1395.73,878.968C1398.83,881.397 1403.21,884.326 1409.7,888.884C1410.18,889.225 1410.37,889.859 1410.14,890.407C1410.11,890.494 1410.06,890.577 1410.01,890.654C1409.67,891.139 1409.03,891.324 1408.48,891.098C1396.91,886.335 1384.11,882.964 1374.78,886.228C1367.35,888.825 1363.18,892.216 1361.65,896.036C1360.18,899.715 1361.26,903.698 1363.99,907.484C1372.8,919.706 1398.44,929.792 1419.59,922.296C1423.67,920.847 1427.24,919.727 1430.28,918.766C1431.77,917.024 1434.07,914.638 1435.27,913.375C1436.04,912.56 1436.84,911.761 1437.67,911.008C1438.38,910.365 1439.38,909.548 1440.29,908.783C1431.96,903.774 1415.62,893.49 1404.16,883.466C1397.38,877.544 1392.33,871.643 1391.33,866.963C1387.93,851.077 1404.17,830.742 1423.71,835.998ZM1391.06,902.192C1391.18,902.233 1406.41,906.719 1412.91,909.465C1416.84,911.124 1419.91,912.86 1421.18,914.377C1421.88,915.214 1422.13,916.05 1422.03,916.81C1421.93,917.574 1421.48,918.354 1420.44,919.013C1419.09,919.865 1416.44,920.618 1412.1,921.097C1395.93,922.877 1377.76,916.227 1372.14,910.371C1370.5,908.661 1369.86,906.938 1370.17,905.467C1370.47,904.007 1371.73,902.591 1374.43,901.653C1375.26,901.365 1376.29,901.096 1377.49,900.91C1379.82,900.388 1385.39,900.301 1391.06,902.192ZM1377.88,903.43C1377.73,903.47 1374.76,904.166 1373.91,904.648C1373.23,905.034 1372.79,905.438 1372.66,905.939C1372.45,906.769 1373.04,907.641 1373.97,908.613C1376.07,910.795 1380.05,913.051 1385.02,914.903C1392.65,917.742 1402.58,919.589 1411.82,918.572C1414.9,918.233 1417.03,917.785 1418.37,917.227C1418.78,917.053 1419.11,916.877 1419.34,916.681C1419.42,916.608 1419.52,916.57 1419.51,916.486C1419.49,916.221 1419.24,915.986 1418.94,915.695C1418.42,915.199 1417.68,914.706 1416.8,914.168C1409.81,909.925 1390.84,904.541 1385.68,903.485C1382.23,902.776 1379.22,903.065 1377.88,903.43ZM1428.35,904.516C1428.77,904.786 1430.07,905.613 1430.45,906.066C1431.84,907.714 1432.56,908.961 1432.79,909.836C1432.92,910.29 1432.94,910.685 1432.89,911.023L1432.7,911.636L1432.35,912.173C1431.92,912.64 1431.19,912.983 1430.15,913.043C1426.98,913.226 1419.58,910.677 1412.47,908.4C1403.79,905.62 1398.7,903.058 1394.41,901.169C1388.22,898.441 1383.79,897.202 1372.09,898.906C1369.74,899.249 1368.52,898.305 1368.17,897.256C1367.85,896.294 1368.2,894.783 1369.74,893.334C1371.83,891.37 1376.25,889.215 1383.12,888.871C1392.94,888.38 1407.97,891.564 1428.35,904.516ZM1428.51,907.702C1428.27,907.422 1427.37,906.904 1426.98,906.659C1398.96,888.851 1381.54,889.904 1374.11,893.466C1372.38,894.293 1371.25,895.219 1370.76,896.053C1370.7,896.146 1370.65,896.277 1370.62,896.371C1370.76,896.402 1371.01,896.446 1371.21,896.44C1371.37,896.435 1371.54,896.419 1371.72,896.393C1384.15,894.582 1388.86,895.946 1395.44,898.845C1399.66,900.707 1404.69,903.239 1413.24,905.981C1418.94,907.807 1424.83,909.865 1428.4,910.395C1429.02,910.488 1429.57,910.532 1430.01,910.507C1430.1,910.501 1430.21,910.485 1430.3,910.467C1430.17,910.163 1429.9,909.548 1429.54,909.024C1429.26,908.626 1428.91,908.187 1428.51,907.702ZM1442.6,910.159C1441.55,911.052 1440.25,912.105 1439.37,912.894C1438.59,913.603 1437.84,914.356 1437.11,915.124C1435.87,916.43 1433.43,918.963 1431.98,920.686C1421.01,933.684 1424.5,938.679 1428.63,940.311C1429.64,940.712 1430.64,940.896 1431.39,940.93C1431.67,940.942 1432.04,940.903 1432.09,940.898C1438.88,937.867 1440.98,933.555 1442.67,928.993C1443.91,925.667 1444.95,922.217 1447.16,918.955C1448.11,917.538 1449.29,916.156 1450.78,914.834C1453.75,912.2 1458.02,909.794 1464.49,907.858C1468.41,906.684 1470.65,904.728 1471.59,902.535C1472.91,899.432 1471.55,895.971 1469.01,894.299C1467.91,893.572 1467.34,892.633 1467.17,891.662C1467,890.701 1467.22,889.677 1467.8,888.735C1469.25,886.412 1473.17,884.487 1477.85,886.157C1481.59,887.495 1483.19,888.608 1484.79,889.754C1486.05,890.664 1487.3,891.599 1489.82,892.714C1489.95,892.059 1489.91,891.482 1489.72,890.97C1489.23,889.67 1487.88,888.838 1486.4,888.193C1483.39,886.888 1479.68,886.456 1478.61,886.076C1478.17,885.923 1477.86,885.55 1477.78,885.098C1477.7,884.646 1477.87,884.187 1478.22,883.896C1482.25,880.593 1485.47,879.671 1488.29,879.021C1490.93,878.413 1493.17,878.083 1495.42,875.759C1490.67,877.849 1487.39,878.446 1484.2,879.196C1480.31,880.111 1476.56,881.277 1470.15,886.01C1460.99,892.783 1457.27,896.187 1453.25,900.297C1452.88,900.686 1451.01,902.488 1450.66,902.823C1449.65,903.791 1448.57,904.821 1447.34,905.953C1446.72,906.522 1446.06,907.117 1445.36,907.742L1444.62,908.401C1444.11,908.853 1443.57,909.322 1443.01,909.808L1442.6,910.159ZM1446.21,903.534C1447.88,901.992 1449.27,900.64 1450.58,899.363C1450.5,898.208 1450.39,897.019 1450.25,895.796C1450.12,894.62 1449.95,893.411 1449.76,892.17C1448.32,882.97 1445.04,871.962 1438.17,858.696C1437.66,857.699 1437.12,856.689 1436.56,855.666C1435.85,854.354 1435.1,853.021 1434.31,851.666C1432.12,847.896 1429.65,843.959 1426.87,839.847C1407.59,831.204 1390.53,851.069 1393.82,866.432C1394.74,870.756 1399.57,876.081 1405.83,881.554C1417.52,891.775 1434.34,902.267 1442.32,907.04C1443,906.442 1443.64,905.873 1444.25,905.327C1440.91,898.19 1438.46,894.254 1430.88,888.033C1430.34,887.588 1430.26,886.787 1430.7,886.245C1431.15,885.704 1431.95,885.625 1432.49,886.069C1440.2,892.397 1442.86,896.45 1446.21,903.534ZM1418.37,841.48C1421.41,841.977 1423.42,844.85 1423.85,848.013C1424.23,850.84 1423.34,853.796 1421.13,855.314C1419.66,856.322 1417.57,856.756 1414.78,855.977C1412.2,855.257 1410.47,852.567 1410.13,849.619C1409.83,847.002 1410.62,844.264 1412.61,842.695C1413.94,841.641 1415.83,841.066 1418.37,841.48ZM1417.96,843.987C1416.31,843.717 1415.06,844.001 1414.19,844.688C1412.87,845.731 1412.45,847.59 1412.65,849.329C1412.87,851.221 1413.81,853.068 1415.46,853.53C1417.32,854.048 1418.72,853.889 1419.69,853.219C1421.15,852.22 1421.58,850.218 1421.33,848.356C1421.05,846.309 1419.93,844.309 1417.96,843.987ZM1414.23,850.143C1413.78,848.826 1414.05,847.38 1414.69,846.356C1415.16,845.602 1415.83,845.081 1416.54,844.919C1417.67,844.66 1419.12,845.243 1420.02,847.841C1420.95,850.548 1419.85,852.323 1418.48,852.841C1417.08,853.37 1415.12,852.715 1414.23,850.143ZM1429.46,865.57C1436.12,869.68 1429.16,879.476 1421.94,875.31C1417.33,872.651 1418.86,866.474 1423.07,864.758C1424.82,864.043 1427.05,864.085 1429.46,865.57ZM1428.56,867.03C1426.73,865.903 1425.05,865.803 1423.72,866.346C1420.73,867.564 1419.53,871.936 1422.8,873.825C1428.03,876.84 1433.38,870.005 1428.56,867.03ZM1426.6,868.229C1429.78,868.906 1428.39,873.511 1425.06,872.706C1422.36,872.056 1422.25,867.301 1426.6,868.229ZM1439.35,855.488C1446.44,868.702 1450.06,879.782 1451.81,889.128C1455.95,882.686 1460.56,873.348 1462.05,860.964C1462.46,857.526 1463.76,848.385 1462.59,841.499C1461.91,837.49 1460.51,834.189 1457.07,833.99C1455.08,833.874 1452.61,835.444 1449.98,838.106C1446.23,841.907 1442.33,847.977 1439.35,855.488ZM1456.32,843.131C1458.96,843.831 1460.98,845.635 1461.77,848.029C1462.53,850.346 1462.15,853.278 1459.84,856.335C1457.54,859.367 1454.13,859.247 1451.18,857.768C1448.38,856.37 1446.12,853.729 1445.74,851.947C1444.27,845.104 1450.96,841.716 1456.32,843.131ZM1455.67,845.587C1451.99,844.615 1447.21,846.714 1448.22,851.412C1448.32,851.872 1448.65,852.396 1449.09,852.936C1449.87,853.896 1451.03,854.855 1452.32,855.496C1454.18,856.43 1456.36,856.716 1457.82,854.801C1459.49,852.587 1459.91,850.499 1459.36,848.821C1458.83,847.219 1457.44,846.055 1455.67,845.587ZM1455.14,847.371C1456.84,847.997 1457.68,849.635 1457.65,851.134C1457.63,852.206 1457.16,853.189 1456.34,853.746C1455.5,854.307 1454.24,854.494 1452.55,853.668C1450.28,852.551 1449.78,850.525 1450.35,849.056C1450.93,847.569 1452.67,846.459 1455.14,847.371ZM1456.34,866.612C1456.97,869.648 1455.71,871.385 1454.15,872.054C1451.72,873.092 1448.29,871.567 1448.56,867.894C1448.68,866.292 1449.35,865.183 1450.22,864.503C1452.35,862.831 1455.75,863.727 1456.34,866.612ZM1454.66,866.96C1454.38,865.604 1452.96,865.088 1451.82,865.539C1451.01,865.863 1450.37,866.69 1450.27,868.021C1450.11,870.149 1452.07,871.079 1453.47,870.478C1454.46,870.054 1455.06,868.881 1454.66,866.96ZM1452.98,866.806C1454.65,867.205 1453.92,869.915 1452.17,869.441C1450.76,869.058 1450.7,866.26 1452.98,866.806Z"/>
    </g>
</svg>
