<?xml version="1.0" encoding="UTF-8" standalone="no"?>
<svg xmlns:rdf="http://www.w3.org/1999/02/22-rdf-syntax-ns#" xmlns="http://www.w3.org/2000/svg" height="700" viewBox="0 0 771.96643 700" width="771.97" version="1.1" xmlns:cc="http://creativecommons.org/ns#" xmlns:dc="http://purl.org/dc/elements/1.1/">
<path d="m451.37 0.0054407c-9.8549 0.30706-15.004 13.608-16.746 40.799l-1.3508 21.109-16.683-13.48c-21.934-17.721-23.094-17.728-18.109-0.11522 7.1913 25.406 6.6612 25.894-11.994 11.049-19.43-15.461-20.034-14.853-11.383 11.498 11.186 34.072 10.762 35.346-7.6997 23.083-19.077-12.671-21.652-11.205-14.335 8.1645 2.3187 6.1376 5.1395 13.906 6.2694 17.263 1.1299 3.3564 2.7615 7.9333 3.6234 10.171 12.081 31.363 9.479 32.604-15.193 7.2547-12.815-13.167-19.932-19.831-23.055-18.915l16.003 15.729c9.105 8.9504 17.438 17.872 18.518 19.829 3.1067 5.629-5.9507 3.3154-10.576-2.7016-2.3055-2.9991-3.8025-3.8067-3.83-2.066-0.0346 2.1881-0.99729 1.9964-4.112-0.82242-4.7206-4.2721-5.314-1.8159-0.95352 3.9492 4.8638 6.4306 3.6675 11.224-1.2992 5.2046-4.102-4.9712-4.1756-4.9826-3.1983-0.50855 0.54992 2.5173 0.31799 4.5769-0.51647 4.5769-2.5165 0-5.8309-9.0351-7.1792-19.567-0.69902-5.4601-1.7528-13.132-2.3401-17.048l-0.95748-6.3886c-2.8907 1.7805-1.3857 12.154 2.507 32.447 4.3193 22.518 1.4364 21.881-25.821-5.7172-29.305-29.671-30.565-29.355-24.319 6.1025 7.5284 42.739 4.9317 44.314-25.145 15.256-26.044-25.162-29.148-26.571-24.648-11.176 1.1423 3.9084 2.9919 13.515 4.1121 21.347 1.1202 7.8316 2.5208 15.792 3.1109 17.688 0.68537 2.2017-0.75096 4.6403-3.977 6.7541-6.1083 4.0023-7.5193 3.383-30.934-13.556-23.241-16.814-26.539-15.968-19.94 5.1132 6.2087 19.837 6.9011 22.972 6.9011 31.192 0 17.149-6.4624 16.166-41.228-6.2615-25.243-16.284-24.949-16.729-16.063 24.164 6.2152 28.602 3.8047 29.959-26.583 14.931-44.381-21.948-43.022-23.299-23.933 23.719 9.0769 22.357 7.7274 26.366-7.2944 21.657-44.019-13.801-45.223-13.688-34.875 3.3016 4.4567 7.3172 7.1602 12.743 18.566 37.279 8.6418 18.59 7.7248 19.196-24.478 16.142-12.155-1.1526-22.788-2.0968-23.627-2.0977-3.2009-0.004-1.1405 4.465 10.787 23.397 6.7712 10.748 12.896 21.095 13.611 22.992 0.71508 1.897 4.3278 8.6366 8.0294 14.978 3.7016 6.3416 6.7303 11.936 6.7303 12.432 0 1.0372-22.89 8.3046-37.124 11.788-13.117 3.2099-12.619 4.5182 10.679 28.03 26.69 26.934 26.603 28.732-2.1573 45.002-21.957 12.421-22.04 14.57-0.89392 23.031l16.273 6.5117 0.6039 8.2202c0.54077 7.3503-0.48034 9.4556-9.6623 19.948-14.617 16.704-14.435 17.101 9.567 20.723 12.812 1.9336 23.905 21.556 21.784 38.534-1.5215 12.178 0.55187 14.152 9.1975 8.7525 3.3744-2.1074 4.8238-1.7076 9.6345 2.6579 3.1145 2.8263 8.9847 7.5676 13.047 10.536 5.2329 3.824 7.7853 7.529 8.7565 12.706 1.6662 8.8814 5.2019 10.569 12.769 6.0986 7.5682-4.4706 24.443 1.3382 28.665 9.8689 2.8923 5.8442 5.7692 6.5366 13.174 3.1625 3.5059-1.5973 8.1383-1.5448 16.877 0.19071 6.6249 1.3157 17.215 2.682 23.532 3.0354 11.694 0.65418 20.044 3.6454 20.044 7.1832 0 3.3513 9.6628 2.1522 11.013-1.3667 1.6185-4.2178 20.619-2.5276 25.407 2.2606 3.9759 3.976 9.1549 3.961 12.475-0.0397 1.4588-1.7578 4.0361-2.5821 5.8443-1.8673 20.014 7.9118 79.234-0.14998 82.118-11.18 0.70482-2.6953 2.7559-4.1461 5.8522-4.1359 9.2962 0.0329 47.665 5.8094 59.611 8.975 20.051 5.3134 23.097 2.5617 9.9484-8.9829l-7.4176-6.5157 15.554 1.4581c19.416 1.8194 20.251-0.62974 4.8788-14.315-6.1198-5.4481-8.9424-9.0305-6.6111-8.391 14.261 3.9123 15.256 3.8967 15.256-0.25427 0-2.2219-1.3731-5.1786-3.0513-6.5713-4.1992-3.485-3.8237-6.1025 0.87804-6.1025 2.1622 0 4.5143-1.8308 5.2245-4.0684 1.606-5.0602 3.583-5.0644 19.65-0.0278 18.35 5.7521 21.615 3.1141 10.501-8.4863-7.4795-7.8069-4.7559-9.1932 9.0306-4.5968 6.4195 2.1403 12.817 4.2014 14.215 4.5809 4.6485 1.2611 2.6274-4.867-3.5598-10.795-8.1266-7.7858-7.6964-9.4583 2.0342-7.9023 7.2697 1.1625 8.1367 0.85704 8.1367-2.8685 0-5.9148-15.558-18.725-22.741-18.725-3.155 0-5.737-0.76919-5.737-1.7084 0-6.3695-27.21-8.6879-35.813-3.0513-4.9982 3.2749-5.3418 3.1922-11.271-2.7374l-6.1184-6.1184 10.509-6.7422c13.437-8.6223 20.318-19.271 20.318-31.446 0-8.4161 0.54146-9.3961 6.6111-11.947 56.047-23.553 48.778-145.98-9.2174-155.25-10.755-1.7198-16.077-11.731-9.2889-17.473 7.1191-6.0224 10.546-4.3843 14.946 7.1434 4.6546 12.193 12.682 15.742 17.64 7.803 1.7879-2.8629 3.9401-3.7797 7.0481-2.9996 3.2966 0.82738 5.1239-0.12762 6.9488-3.6313 1.3623-2.6155 2.6709-4.9964 2.9082-5.292 0.70681-0.88049 44.792 14.846 74.283 26.5l27.461 10.854 1.1919 11.085c0.6559 6.0982 2.3883 15.215 3.8498 20.258 2.5259 8.7158 2.3418 9.8902-3.7346 23.735-10.079 22.964-0.12067 39.888 12.058 20.493l4.1518-6.6111-1.3349 11.45c-1.5887 13.641 1.0503 20.08 8.2281 20.08 5.8588 0 9.1422-5.2218 9.1856-14.613 0.0172-3.7096 0.91786-8.1192 2.0024-9.7974 1.471-2.2763 1.9792-1.1565 2.0024 4.41 0.0578 13.838 4.6692 17.697 12.586 10.532 4.427-4.0064 4.7669-13.617 1.4104-39.79-2.4202-18.872-1.8268-22.147 3.2499-17.934 7.4836 6.2108 19.4-4.461 19.4-17.374 0-4.9949 1.1083-4.262 13.731 9.0545 13.019 13.735 20.85 18.066 20.85 11.534 0-14.698-12.544-44.672-21.712-51.883-6.0309-4.7439-5.9695-6.1899 0.25824-6.1899 7.9602 0 14.885 4.1277 17.497 10.433 3.0846 7.4469 9.5941 7.6813 17.958 0.64361l6.174-5.1967-1.184 10.004c-2.8616 24.162 13.603 39.705 19.877 18.764l2.4831-8.2837 4.3743 4.1081c13.162 12.365 20.239-2.2716 10.215-21.124-6.062-11.402-6.06-11.383-1.47-11.383 5.9841 0 12.658-5.9594 12.658-11.303 0-8.49-7.2188-13.775-16.738-12.253l-8.1526 1.3032 1.4025-9.3485c1.5779-10.522-2.3648-19.253-8.6969-19.253-6.4636 0-8.2173 3.9385-7.0004 15.729 1.2954 12.551-1.0727 12.911-11.514 1.7481-8.7002-9.3013-22.493-5.3753-19.734 5.6178 0.66843 2.6632 4.065 7.6311 7.5487 11.037l6.333 6.1939-4.863 3.1824c-3.6107 2.3658-7.596 2.8624-15.495 1.9269l-10.636-1.2595 1.5614-7.3381c4.2101-19.762-1.0396-35.628-15.376-46.46-16.908-12.776-18.036-8.9203-5.5821 19.086 6.6779 15.017 7.1909 17.415 5.4033 25.372-3.467 15.43-12.66 18.443-17.716 5.8085-8.6946-21.73-27.614-20.095-36.492 3.1506-4.2517 11.133-0.68613 11.428-36.019-2.9877-44.137-18.008-72.846-33.372-83.878-44.887-7.2903-7.6094-5.1706-7.7299 6.9051-0.38936 66.778 40.593 166.35 37.492 105.74-3.2936-8.2493-5.5509-9.5957-7.4873-10.807-15.562-1.7417-11.615-4.9869-11.764-12.491-0.57608l-5.8006 8.6452-1.7441-9.1538c-0.95975-5.0346-2.1499-11.213-2.646-13.731-1.2282-6.232-3.9011-5.7528-10.763 1.9269-6.6148 7.4033-6.0507 8.1608-10.473-14.132-2.6127-13.171-4.3145-14.656-11.001-9.5988-6.1119 4.6228-6.7461 3.8734-8.2042-9.7259-1.9208-17.914-2.6085-19.501-8.7922-20.215-5.1784-0.59754-5.5358-1.3131-6.1105-12.332-0.56548-10.842-0.96907-11.697-5.5225-11.697-6.9041 0-9.2627-5.4908-6.619-15.395 1.7877-6.6976 1.542-9.4629-1.3786-15.618-2.6526-5.59-3.0693-8.9168-1.6567-13.155 3.021-9.063 7.4908-7.0681 8.7525 3.9055 1.3314 11.58 2.8839 13.449 8.3433 10.04 5.6754-3.5444 6.1931-2.5701 7.3699 13.878 1.1454 16.009 2.3227 16.868 12.65 9.2491 8.3934-6.1925 8.3172-6.2648 11.089 10.632 2.8589 17.43 6.4059 18.672 15.511 5.439 7.5266-10.939 10.048-9.2298 13.039 8.824 1.778 10.731 2.9025 10.759 8.9234 0.21851 5.7545-10.074 7.6825-8.2897 9.6504 8.9353 1.6872 14.768 5.4082 15.244 10.044 1.2872 4.0105-12.074 6.9422-10.278 7.0362 4.3067 0.13643 21.194 4.8353 23.676 13.484 7.1236 7.8704-15.063 8.8956-14.242 8.8956 7.1156 0 19.312 1.5108 21.917 8.0334 13.862 3.8856-4.7985 6.6484 0.23951 14.438 26.313 3.2553 10.897 5.9084 11.19 15.908-0.44894 48.45-56.392 39.069-172.07-24.7-192.65-0.60851-0.27271-1.2704-0.58929-1.8316-0.83036-1.6433-0.70596-2.996-1.2402-3.826-1.4343-4.172-0.97521-8.4698-1.3293-12.722-1.4422-3.9398-0.10462-9.4137 0.35481-12.765 0.66349-5.7443-0.11464-11.915-0.5006-11.915-0.5006l-5.8522-8.7287c-7.429-11.077-22.486-26.617-32.551-33.592-4.2836-2.9685-9.6812-9.1153-11.994-13.659-14.83-29.118-36.04-40.756-46.04-25.274-4.5431 7.0343-5.1361 7.3117-11.76 5.4827-4.8851-1.3488-9.0924-1.1627-14.033 0.62376-6.6742 2.4134-7.4147 2.2186-13.675-3.6472-9.58-8.9775-17.18-13.474-23.1-13.29zm-127.09 118.06c0.13663-0.0842 0.28448-0.14085 0.44099-0.18673l-0.55224-0.5443 0.11125 0.73103zm133.64-112.76c9.7639 0.62873 22.313 12.362 35.217 35.419 1.0291 1.839 2.566 2.6505 3.4128 1.8037 0.84672-0.84673-1.344-5.6298-4.8669-10.628-6.2972-8.9339-6.333-9.126-2.213-11.331 10.126-5.4195 20.074 1.5649 20.115 14.12 0.0172 5.1773 0.91786 10.785 2.0024 12.463 1.3629 2.1089 1.9809-2.0473 2.0024-13.457 0.0796-42.2 35.054-27.018 52.086 22.61 1.311 3.8202 1.4718 3.7716 2.6858-0.82639 1.2521-4.7426 1.6912-4.533 13.87 6.7422 17.381 16.092 26.445 30.778 20.846 33.774-2.2116 1.1836-4.0207 3.3964-4.0207 4.9146 0 2.1048 1.8118 1.8112 7.6282-1.2356 5.9878-3.1366 11.861-5.1781 17.577-6.2575 3.5296-0.28969 7.7628-0.57598 10.751-0.49663 3.9447 0.10475 7.9 0.43839 11.732 1.2594 0.78399 0.20724 1.5625 0.43131 2.3361 0.67541 0.61354 0.23406 1.3252 0.52286 2.1057 0.85816 1.6258 0.69846 3.5252 1.5712 5.3318 2.4196 2.4998 1.174 3.5494 1.7024 4.7438 2.2884 45.733 27.738 66.181 121.93 18.86 178.79-12.397 14.897-11.942 14.94-17.755-1.6925-20.832-59.602-23.452-64.089-39.361-67.398-42.748-8.8924-70.172-23.705-88.141-47.608-10.284-13.681-20.215-31.771-17.72-32.281 0.85795-0.17527 4.7652-0.40411 8.681-0.50855 12.438-0.33172 9.9774-4.222-3.0513-4.8232-18.806-0.86776-40.08 15.93-37.199 29.372 0.59622 2.782 2.046 1.3994 5.6734-5.4152l4.8749-9.1538 1.4303 10.171c0.78794 5.594 2.4336 20.241 3.6552 32.551 5.8047 58.491 33.996 102.12 81.272 125.76 18.769 9.386 30.23 12.79 21.959 6.5237-9.0011-6.8187-1.3085-6.6057 8.4625 0.2344 27.309 19.118-7.6494 28.005-55.547 14.12-63.638-18.448-106.79-62.848-106.79-109.87 0-4.0433-1.0192-7.2706-2.2964-7.2706-10.044 0 15.419 66.451 30.795 80.366 5.9676 5.4006 5.0995 9.1379-2.1216 9.1379-4.8965 0-7.0405 1.4706-10.374 7.1196-4.8738 8.2604-5.5275 8.3991-15.574 3.2618-20.079-10.267-30.826-32.451-33.608-69.373-0.55531-7.3695-0.76276-6.6544-1.0489 3.6671-0.49693 17.927 4.7778 39.217 12.527 50.564 11.425 16.73 34.037 28.725 37.235 19.754 7.5765-21.25 40.04-1.538 34.41 20.894-1.7358 6.916-6.0112 5.8949-8.9114-2.1256-1.3763-3.8059-3.9901-8.154-5.8085-9.6623-3.0418-2.5232-3.0543-2.2535-0.15496 3.3612 2.9453 5.7036 4.5581 15.662 3.8737 23.902-0.5394 6.4936-8.4307 4.3961-8.4307-2.2408 0-6.9361-3.8132-18.61-6.0787-18.61-0.88682 0-0.27628 4.5512 1.3548 10.115 3.487 11.895 0.60024 21.414-6.4919 21.414-5.1323 0-11.616-12.75-11.895-23.389-0.1963-7.4859-0.45476-7.7456-8.542-8.6572-20.15-2.2712-33.484-16.013-47.728-49.186-7.4672-17.391-19.767-32.461-25.574-31.335-5.6934 1.1039-5.8959 5.7728-0.2503 5.7728 8.9755 0 14.95 7.2953 25.097 30.652 11.602 26.704 18.872 35.868 34.748 43.802 6.4878 3.2425 12.191 6.1398 12.674 6.4362 0.48292 0.29648-2.1851 3.6953-5.9277 7.5567l-6.8018 7.0243 6.2654 13.798c38.181 84.089-11.185 197.14-91.927 210.52-16.708 2.7686-17.542 1.9208-8.8121-8.9591 7.5921-9.4619 13.77-23.296 13.77-30.834 0-6.8976 1.0156-7.1432 12.733-3.095 11.953 4.1296 23.089 4.7902 30.87 1.8316 9.3924-3.571 5.4837-5.6313-8.7525-4.6127-32.895 2.3536-47.934-13.926-29.579-32.014 42.673-42.053 39.054-131.04-7.1673-176.3l-10.6-10.381 2.3282-8.6452c1.6574-6.1551 1.6966-9.2768 0.14305-10.83-1.5536-1.5536-2.1812-0.35191-2.1812 4.1637 0 12.973-3.0599 15.181-13.496 9.7378-3.2046-1.6713-7.4303-3.0452-9.3882-3.0513-5.6192-0.0198-4.1458 3.8359 2.0342 5.3238 78.699 18.948 87.101 183.38 10.171 199.06-3.2033 0.6525-5.594 2.4833-5.594 4.2869 0 2.0418 1.252 2.7836 3.5598 2.1057 14.599-4.2886 18.591-3.8782 20.203 2.0858 4.9045 18.151-1.6442 37.94-17.767 53.687l-9.4557 9.2372 6.9726 8.0533c3.8349 4.4304 8.8356 12.39 11.116 17.684l4.1478 9.6226 5.1252-4.0286c16.604-13.061 74.894 7.0384 61.701 21.275-6.3435 6.8455-13.96 22.824-16.687 35.01l-2.5507 11.399-16.401-1.6726c-9.02-0.92077-21.586-1.8088-27.922-1.9746-10.838-0.28344-12.705-1.1557-31.53-14.684-43.55-31.298-101.48-60.981-144.07-73.822l-18.28-5.5105-3.1228-18.045c-3.1027-17.939-3.0922-18.108 1.7163-27.573 2.6607-5.2373 4.4073-10.73 3.8816-12.205-0.55172-1.5487-2.5212 0.54282-4.6603 4.9464-4.8255 9.9337-5.0891 9.8216-11.609-4.9305-3.0529-6.9075-6.0259-12.083-6.6071-11.502-0.58122 0.58123 0.88127 5.436 3.2499 10.791 4.9206 11.124 11.947 43.091 11.987 54.525 0.0153 4.4059 1.1141 7.9917 2.5705 8.391 1.3985 0.38343 7.5773 1.8014 13.731 3.1546 39.577 8.7036 130.77 57.163 166.11 88.264 11.023 9.703 10.161 10.876-10.715 14.597-26.454 4.7144-32.75 3.5604-28.232-5.1768 5.6795-10.983 4.5573-12.154-11.72-12.237-8.1113-0.0411-21.155-1.428-28.987-3.083-16.047-3.3912-43.383-8.015-66.111-11.184-67.229-9.3741-128.45-56.131-138.37-105.67-2.2747-11.363-4.8046-19.698-8.1764-26.949-4.3078-9.2632 0.63666-26.459 10.771-37.453 7.8753-8.5437 8.0692-9.0673 4.3703-11.772-9.0285-6.6018-4.8353-78.054 6.6905-114.02 18.887-58.94 70.681-111.88 109.46-111.88 7.9624 0 8.9051-0.56184 11.077-6.5674 6.462-17.87 34.692-35.467 74.744-46.595 14.333-3.9821 27.432-8.4446 29.11-9.9166 9.2241-8.091 52.313-22.627 70.179-23.675l12.205-0.71514 0.64363 8.1367c1.2059 15.224 4.4418 12.634 4.4418-3.5558 0-25.182 15.007-65.928 30.997-84.164 17.564-20.031 41.438-27.541 27.485-8.6452-5.8267 7.8905-6.3014 31.284-0.86215 42.459 1.9059 3.9158 2.9058 5.2889 2.2209 3.0513-3.9501-12.906-3.3317-36.626 1.1005-42.205 4.0282-5.0707 4.4718-8.1795 4.8034-33.564 0.35903-27.49 7.8457-41.039 18.911-40.326zm72.038 15.014c-3.4651-0.0931-6.6445 1.4018-9.1022 4.9106-7.4684 10.663-2.1296 37.646 10.326 52.197 14.053 16.418 27.191 9.1866 27.191-14.966 0-21.242-16.04-41.809-28.415-42.142zm-65.423 5.1331c-0.65542 0.062-1.2967 0.1906-1.9229 0.38936-16.008 5.0806-13.426 47.348 3.7545 61.474 16.491 13.559 31.482-5.3619 24.994-31.546-4.2605-17.194-16.995-31.249-26.826-30.318zm65.479 0.19865c8.6419-0.34405 20.223 8.3554 20.223 18.316 0 1.5672-2.1211 1.2666-8.1367-1.1522-2.797-1.1246-8.9758-1.4675-13.731-0.76282-9.7899 1.4509-11.934-3.5379-5.4788-12.753 1.6903-2.4132 4.243-3.5325 7.1236-3.6472zm-64.843 4.3067c2.8609-0.12194 6.1448 1.2093 9.6464 4.1558 6.5864 5.5421 8.3992 10.23 3.1824 8.2281-5.3131-2.0388-13.028 3.1114-16.742 11.18-4.9219 10.691-6.627 9.8161-6.627-3.4088 0-12.589 4.2463-19.887 10.54-20.155zm-66.107 8.2599 4.9901 3.9571c2.7427 2.1779 6.3167 5.117 7.946 6.5276 1.6293 1.4107 5.5295 4.4885 8.6651 6.8415s5.2158 4.7604 4.6246 5.3516c-0.59127 0.59128-2.6384-0.19814-4.5531-1.7561-3.0663-2.495-3.3244-2.4084-2.1494 0.72706 1.8766 5.0073-1.9848 4.4495-4.7318-0.68336-1.2488-2.3334-2.7302-3.7855-3.2896-3.2261s-0.008 2.9083 1.2277 5.2166c1.8973 3.5452 1.7309 3.9966-1.0846 2.9162-2.6652-1.0227-3.0574-0.40025-1.9468 3.0989 0.76389 2.4068 0.89754 4.3743 0.294 4.3743-1.0274 0-5.3389-13.769-8.5658-27.354l-1.4263-5.9913zm129.75 7.9261c1.8552-0.0854 3.1109 1.6293 3.1109 4.8828 0 10.472 13.031 12.203 14.625 1.9428 0.62256-4.0087 0.69046-4.0062 5.2086 0.22646 6.0108 5.6311 6.1858 17.808 0.36153 25.213-5.2521 6.6769-8.0985 6.7174-15.813 0.22647-11.053-9.3004-16.855-24.822-11.339-30.338 1.402-1.402 2.7327-2.1022 3.8459-2.1534zm-45.781 3.0433c6.3536 0 8.6512 26.071 3.0076 34.128-10.802 15.422-30.535-5.8868-23.234-25.089l2.0779-5.4668 5.1172 5.5185c5.872 6.336 11.069 4.3382 11.069-4.2551 0-2.66 0.88322-4.8351 1.9627-4.8351zm-109.22 5.006c2.7501 0.0822 27.733 20.445 27.382 22.455-0.19533 1.1188-1.6187 1.7451-3.1625 1.3906-1.7635-0.40496-2.236 0.27861-1.2714 1.8395 1.0119 1.6373 0.68556 1.9586-0.95352 0.94557-1.3679-0.84543-2.0546-2.662-1.5256-4.0405 0.52899-1.3786-0.3236-2.507-1.8951-2.507-3.1863 0-3.8269 2.5504-1.0687 4.2551 0.98374 0.60799 2.2705 2.952 2.8606 5.2086 0.59011 2.2566 0.32548 3.6397-0.58802 3.0751-3.8619-2.3868-8.0947 1.3544-5.9873 5.292 2.3273 4.3486 1.3738 5.2078-1.47 1.323-2.3091-3.1544-13.501-38.195-12.515-39.182 0.0409-0.0409 0.10599-0.0583 0.1947-0.0556zm208.34 17.366c-1.9128-0.037-3.4446 1.974-3.4446 5.7688 0 3.1699 0.60893 6.3738 1.3548 7.1196 4.8039 4.8039 10.205-2.4188 6.7024-8.9631-1.4074-2.6297-3.1249-3.8966-4.6127-3.9253zm0.62376 4.0723c1.1188 0 2.0342 1.3731 2.0342 3.0513s-0.91538 3.0513-2.0342 3.0513-2.0342-1.3731-2.0342-3.0513 0.91537-3.0513 2.0342-3.0513zm-230.04 13.413c1.6153-0.30592 6.1543 2.6979 15.097 8.7326 15.487 10.451 20.791 20.981 8.7366 17.35-3.5232-1.0613-3.8553-0.80811-1.7839 1.3667 4.1812 4.3899 2.8729 6.8531-1.5256 2.8725-4.7206-4.2721-5.314-1.8159-0.95352 3.9492 1.6426 2.1717 2.9722 5.3756 2.9559 7.1196-0.0274 2.79-0.26747 2.8038-2.0024 0.11919-1.5945-2.4674-1.9772-2.1754-2.0024 1.5256-0.0171 2.5173-0.94715 4.5769-2.066 4.5769s-2.0342-1.6795-2.0342-3.7306-0.66975-4.4004-1.4899-5.2205c-0.82012-0.82012-2.5654-4.8617-3.8776-8.983-1.3122-4.1212-4.285-12.469-6.6071-18.55-2.7522-7.2072-4.0627-10.822-2.4474-11.128zm220.86 4.8947c-4.022 0-5.9226 8.8139-3.0553 14.172 2.9176 5.4515 8.9705 4.6047 9.8252-1.3746 0.8119-5.6799-2.9528-12.797-6.77-12.797zm-0.0119 5.145c0.94776-0.026 1.9802 0.63137 3.095 1.9746 1.7836 2.1491 1.9958 3.9002 0.63965 5.2563-1.3561 1.3561-2.9244 0.96119-4.708-1.1879s-1.9958-3.9002-0.63965-5.2563c0.50855-0.50854 1.0444-0.77103 1.613-0.78665zm-26.226 5.8562c-0.36652 0.14396-0.28564 1.1812 0.23043 3.1546 0.72693 2.7798 0.0834 5.3425-1.6408 6.5475-2.355 1.6458-2.3167 1.8434 0.21851 1.1522 3.7581-1.0247 5.2031-7.296 2.3401-10.159-0.54703-0.54702-0.9283-0.78164-1.1482-0.69527zm63.516 11.375c-1.2528 0-0.61682 1.8358 1.4144 4.0803 4.4713 4.9407 2.3692 7.9193-3.1546 4.4696-3.7294-2.329-5.6056-0.68305-2.6222 2.3004 2.0414 2.0414 8.4058 1.6289 9.8054-0.63568 1.5918-2.5755-2.4778-10.215-5.443-10.215zm28.983 0c-10.393 0-7.2074 40.464 4.275 54.299 4.1093 4.9514 3.5653 2.6957-1.8713-7.7831-6.8948-13.289-8.7398-33.782-3.7306-41.426 1.8342-2.7993 2.4322-5.0894 1.327-5.0894zm35.781 6.321c-5.1764 0.19608-0.89815 18.546 8.979 32.181 7.456 10.293 10.048 10.462 10.024 0.65554-0.0195-7.8033-8.7364-25.628-15.129-30.934-1.6316-1.3541-2.9151-1.9394-3.8737-1.9031zm-29.237 4.5928c-6.1055 0.2618-5.252 17.71 5.5185 35.364 2.5402 4.1635 5.6559 6.6111 8.4148 6.6111 6.8038 0 4.3501-21.849-3.7466-33.369-4.342-6.1779-7.7976-8.708-10.187-8.6055zm-368.79 0.82638c2.4411-0.30854 8.4076 5.6679 20.199 17.644 19.187 19.488 25.111 28.616 14.12 21.752-2.3038-1.4387-3.5792-1.6344-2.8367-0.43306 2.2067 3.5706-1.2555 2.4808-4.3663-1.3747-2.6305-3.2601-2.7611-3.1535-1.5336 1.2714 0.90981 3.2797 0.6189 4.3854-0.90983 3.4406-1.2386-0.76553-2.2716-2.4816-2.2964-3.8141-0.0504-2.7027-7.9779-13.526-8.0493-10.989-0.0249 0.88367 1.7871 5.1968 4.0247 9.5829 4.6712 9.1564 4.8643 10.171 1.9309 10.171-1.1759 0-3.518-3.3014-5.2046-7.3381s-3.4843-6.9249-3.9929-6.4164c-0.50854 0.50855 0.47329 4.2676 2.1812 8.3552 3.278 7.8455 0.73224 10.431-3.1426 3.1903-1.2488-2.3334-2.7302-3.7855-3.2896-3.2261-0.5594 0.55939-0.0457 2.8298 1.1402 5.0457 1.6425 3.0691 1.4376 4.6256-0.85419 6.5276-2.5771 2.1388-3.0094 1.2224-3.0155-6.3965-0.004-4.8919-1.4251-17.003-3.1585-26.913-2.3046-13.175-3.3866-19.771-0.94556-20.08zm370.26 2.499c3.118 0 14.239 23.426 14.243 30.004 0.004 6.1947-3.8004 1.6739-5.9913-7.1196-1.324-5.3143-4.1499-12.637-6.2773-16.273-2.1275-3.6361-3.0163-6.6111-1.9746-6.6111zm-139 0.58403c2.673 0.15514 6.7859 5.0697 6.7859 8.7247 0 1.3357-2.2884 3.9282-5.0854 5.7608l-5.0854 3.3333v-8.0652c0-4.435 1.0556-8.715 2.3441-9.5114 0.30685-0.18965 0.65907-0.26451 1.0409-0.24235zm64.478 0.0795c-0.49931-0.0408-0.73501 0.33163-0.73501 1.1204 0 1.2558 0.91538 2.2845 2.0342 2.2845 3.5139 0 2.2094 5.7582-1.5256 6.7342-2.6788 0.70005-2.4271 0.99049 1.0171 1.1681 5.3954 0.27816 6.349-5.9334 1.5256-9.9365-1.0541-0.8748-1.817-1.3299-2.3163-1.3707zm108.61 2.7056c0.29034 0.0659 1.1078 1.0388 2.4315 2.7334 2.1847 2.797 4.5186 7.2514 5.1887 9.9007 2.088 8.2552 0.19323 6.3881-4.5809-4.5173-2.5454-5.8143-3.5232-8.2268-3.0394-8.1168zm-161.95 15.538c1.2398 0.065 3.0056 2.0643 5.3715 5.9635 3.083 5.0811 3.051 5.7086-0.47677 9.6067-5.7562 6.3606-7.211 5.1136-7.211-6.1701 0-6.374 0.72224-9.4837 2.3163-9.4001zm-290.09 1.6925c1.7486-0.30996 7.0949 4.9814 19.65 17.195 10.835 10.54 18.715 19.162 17.509 19.162-1.2057 0-3.5084-1.6019-5.1132-3.5598-2.6807-3.2704-2.8306-3.1464-1.8594 1.5256 1.0397 5.0014 0.97228 4.9846-4.1478-1.0171-2.8634-3.3564-4.7312-4.7295-4.1518-3.0513 3.4622 10.027 3.2284 10.356-1.7283 2.4593-6.1349-9.7743-9.0475-10.282-4.1001-0.71514 5.1062 9.8742 3.5781 12.267-2.1335 3.3413-4.141-6.471-4.9977-7.0956-4.1955-3.0513 0.5548 2.797 0.30467 6.9162-0.55621 9.1538-1.1935 3.1021-2.1205 1.1697-3.8975-8.1367-1.2818-6.7128-3.3182-17.083-4.5252-23.043-1.2947-6.3933-2.1109-10.021-0.75089-10.262zm232.38 1.7759c-1.2182 0-1.0605 1.2169 0.38936 2.9639 3.1265 3.7672 0.98253 7.4283-3.3731 5.7569-2.2191-0.85157-2.8346-0.48633-1.8514 1.1045 2.0673 3.345 6.675 2.9616 8.0692-0.67143 1.4477-3.7726-0.45249-9.1538-3.234-9.1538zm137.17 12.38c-0.49833-0.14604-0.37632 0.60971 0.24237 2.3679 0.83867 2.3834 0.22519 3.5598-1.8554 3.5598-1.7091 0-2.5429 0.91538-1.8514 2.0342 1.8728 3.0302 5.0492 2.4624 6.4363-1.1522 0.67284-1.7534 0.0534-4.2707-1.3786-5.594-0.77159-0.71299-1.2942-1.1281-1.5932-1.2157zm-67.43 0.84228 7.2626 7.8149 7.2666 7.8189-5.6655 5.9118c-8.0558 8.4084-8.9812 7.6-8.9194-7.8149l0.0556-13.731zm-102.58 1.0806c-1.2615 0.034-0.6905 0.99313 1.2674 2.1335s3.5598 3.3555 3.5598 4.9226c0 1.567-1.6019 3.7822-3.5598 4.9226-3.2472 1.8913-3.2612 2.0771-0.13906 2.1335 1.8825 0.034 4.0205-1.8128 4.7477-4.1041 1.3902-4.38-1.9777-10.113-5.8761-10.008zm74.633 4.712c0.29327 0.0607 0.77254 1.175 1.5812 3.1983 1.3026 3.259 1.2609 5.6283-0.12714 7.0163-1.4388 1.4388-2.0591-0.10553-1.9706-4.9225 0.0681-3.7092 0.13942-5.3701 0.51649-5.292zm-323.95 6.8494c2.3746 0.12268 8.1026 4.0921 19.166 12.01 17.306 12.387 19.095 14.238 15.979 16.516-5.0753 3.7111-7.89 3.1775-10.596-2.0103-2.2866-4.3838-2.343-4.3409-1.2912 1.0171 1.4323 7.2965-0.12931 7.101-4.0644-0.50854-1.7357-3.3564-4.1226-6.1025-5.304-6.1025-1.1813 0-0.24301 3.0813 2.0858 6.8495s4.1965 8.1162 4.1518 9.6623c-0.0448 1.5462-1.4892 0.21573-3.2102-2.9599s-3.5893-5.3142-4.1518-4.7517c-0.56249 0.56247-0.0295 2.8693 1.18 5.1292 2.946 5.5046 2.7719 6.5059-0.87804 5.1053-2.1998-0.84416-2.7157-0.24766-1.8157 2.0977 0.69179 1.8028 0.24525 3.2777-0.99325 3.2777s-2.2527-2.4537-2.2527-5.451c0-5.5349-0.94898-9.4108-7.0521-28.808-2.3497-7.4681-3.3282-11.195-0.95352-11.073zm374 9.5511c1.1714-0.27853 3.6453 1.419 8.1049 4.3703 9.8318 6.5064 9.8782 6.7728 2.9678 17.215-7.3934 11.172-7.2614 11.287-10.572-9.1975-1.3589-8.4079-2.0067-12.03-0.50059-12.388zm-344.84 13.41c-0.43969 0-0.79858 1.3731-0.79858 3.0513s0.88692 3.0513 1.9706 3.0513 1.4426-1.3731 0.79858-3.0513c-0.644-1.6782-1.5309-3.0513-1.9706-3.0513zm103.1 2.0461c-0.13867 0.0209 0.47689 0.85834 1.7362 2.5308 2.1449 2.8486 2.1734 4.1694 0.14701 6.6111-1.8246 2.1984-1.8778 3.0513-0.18674 3.0513 4.2309 0 4.9285-6.3121 1.0846-9.8212-1.7508-1.5984-2.6424-2.3928-2.7811-2.3719zm271.98 0.26223c2.2119-0.22624 8.5826 2.8943 8.5737 4.5411-0.007 1.268-1.7358 4.9126-3.8379 8.101l-3.822 5.7966-0.92175-8.8479c-0.50769-4.8665-0.80026-9.0416-0.65157-9.277 0.11567-0.18295 0.34354-0.28155 0.65952-0.31385zm-72.944 1.76c3.7198 0 4.2312 1.2266 4.2312 10.171 0 10.874-0.79067 12.268-3.7545 6.6111-4.6877-8.9472-4.9118-16.782-0.47677-16.782zm-385.99 4.2551c1.5717-0.14362 8.364 3.341 16.44 8.5221 9.2301 5.9212 21.13 13.286 26.444 16.369 11.239 6.5199 14.353 13.246 3.4247 7.3977-3.2063-1.716-3.937-1.4336-3.9452 1.5256-0.008 2.843-1.135 2.3065-5.1927-2.4712-3.5929-4.2305-4.524-4.7409-3.0393-1.6607 3.6956 7.6668 2.3589 7.8644-3.8776 0.56814-6.3505-7.4296-8.4759-6.1328-2.9281 1.7879 1.7923 2.5589 2.8233 5.0909 2.2884 5.6258-0.53482 0.5348-2.9537-2.3873-5.3755-6.4919s-4.9286-6.9348-5.5702-6.2932c-0.64155 0.64155 0.76949 4.2978 3.1347 8.1248 4.7584 7.6992 5.2203 9.5272 2.4037 9.5272-1.0434 0-2.4801-1.8308-3.1903-4.0684-0.71018-2.2376-2.123-4.0684-3.1387-4.0684-1.0831 0-1.0465 2.1029 0.0874 5.0854 1.9194 5.0484-0.71666 7.5113-2.7215 2.5427-0.63174-1.5656-1.089-1.22-1.1879 0.89791-0.20304 4.3488-4.011 6.8605-4.998 3.2976-1.7946-6.4782-9.4001-43.639-9.4001-45.928 0-0.17421 0.11715-0.26953 0.34168-0.29003zm478.32 0.56416c0.7798 0.0291 1.7486 0.2286 2.9321 0.51251 7.6155 1.827 7.4858 1.3571 3.4406 12.344-5.0912 13.828-6.2383 14.348-7.7235 3.5122-1.8379-13.409-2.0283-16.495 1.3508-16.369zm-129.69 1.3468c-1.1747 0.034-0.53555 0.99313 1.4223 2.1335 5.2758 3.0729 4.7628 10.797-0.62376 9.3882-3.4496-0.9021-3.7592-0.58043-1.764 1.8236 1.835 2.2111 3.0919 2.358 5.2007 0.60785 4.9926-4.1434 1.9609-14.133-4.2352-13.953zm146.66 1.1283c1.0866-0.22396 2.3772 1.0159 3.5638 4.1081 0.8962 2.3354 2.711 2.9035 6.3648 1.9865 8.0848-2.0292 8.0244 3.003-0.20262 16.814-9.5793 16.081-8.907 16.716-12.034-11.387-0.74642-6.7077 0.4974-11.148 2.3083-11.522zm-278.85 13.413c-0.2286-0.0237-0.45893-0.013-0.69131 0.0318-3.7175 0.71593-5.5787 6.1353-3.7465 10.91 1.3117 3.4183 6.5155 3.9008 8.4426 0.78269 2.2759-3.6824-0.57578-11.368-4.0048-11.724zm-1.1522 3.7028c1.1188 0 2.0342 1.3731 2.0342 3.0513s-0.91538 3.0513-2.0342 3.0513-2.0342-1.3731-2.0342-3.0513 0.91538-3.0513 2.0342-3.0513zm187.16 0.73104c2.7577 0.2346 3.7703 4.7221 4.8669 16.051 0.73094 7.5519 0.98926 13.731 0.57212 13.731-1.7515 0-7.3157-7.7066-11.339-15.709l-4.3187-8.5896 5.2046-3.4088c2.1472-1.4069 3.7604-2.1806 5.0139-2.0739zm115.85 7.7513c0.95814-0.0668 2.2207 2.2428 3.6869 7.0203 1.8419 6.0015 1.6733 8.2628-0.90982 12.205-4.4508 6.7928-4.7358 6.3484-4.7358-7.3659 0-7.758 0.72679-11.773 1.9587-11.859zm-153.11 5.7569c-1.4875 0-1.4146 0.80635 0.21852 2.4394 2.7383 2.7383 3.3206 9.7656 0.81049 9.7656-0.89503 0-2.7787-1.1442-4.1876-2.5427-2.0538-2.0388-2.2944-1.8372-1.2078 1.0171 1.8732 4.9204 9.0584 4.6495 9.0584-0.34168 0-5.6482-2.128-10.338-4.6921-10.338zm-420.46 0.92968c1.3606-0.1796 4.0633 0.95258 8.3711 2.801 21.039 9.0274 28.68 12.966 32.42 16.706 4.112 4.112 5.5277 9.2423 1.9388 7.0243-1.1188-0.69146-2.0342 0.26959-2.0342 2.1335 0 2.1766-1.0915 2.969-3.0513 2.2169-1.6782-0.64398-3.0701-0.0562-3.095 1.3071-0.0249 1.3634-1.9422 0.1907-4.2591-2.6063-3.4125-4.1197-3.9414-4.3128-2.7771-1.0171 3.9953 11.31 3.4866 12.173-3.0036 5.0854l-6.5197-7.1196 4.2352 7.358c5.9993 10.431 5.1491 12.17-1.8713 3.83-6.7552-8.025-8.423-5.5321-1.8713 2.797 2.3272 2.9586 3.911 6.3363 3.5201 7.509-1.5627 4.6881-9.875-10.059-18.844-33.437-3.9686-10.344-5.4262-14.29-3.1585-14.589zm182.17 3.5439c-6.5667-0.3871-11.372 7.8862-7.3024 17.712 2.8005 6.761 11.047 8.7544 15.948 3.8538 3.8062-3.8062 2.8738-13.4-1.7521-18.026-2.3165-2.3165-4.7043-3.4109-6.8932-3.5399zm-0.94955 3.6631c4.6769 0 10.536 8.4388 8.8717 12.777-2.6157 6.8163-10.312 5.7761-13.186-1.7839-2.3764-6.2503-0.5144-10.993 4.3147-10.993zm68.832 3.0274c-0.73312-0.11524-0.91101 1.2348-0.36951 3.3055 0.97034 3.7106 0.48869 4.0975-3.4962 2.8328-3.154-1.001-4.1801-0.75051-3.23 0.78665 2.4068 3.8943 9.2889 2.6373 9.2889-1.6965 0-2.1716-0.82901-4.4585-1.8435-5.0854-0.12681-0.0784-0.24489-0.12657-0.34961-0.14302zm228.2 1.0409c1.5879 0 5.892 16.261 5.892 22.261 0 6.1499-2.9882 5.1345-10.024-3.4009-7.815-9.4809-5.7598-18.86 4.1319-18.86zm-109.53 11.685c-0.33965 0.0149-0.52842 0.13893-0.52842 0.38537 0 1.2265 2.975 4.0445 6.6111 6.2615 6.5349 3.9844 14.407 5.7229 10.576 2.3361-4.493-3.9726-14.281-9.0876-16.659-8.983zm77.326 4.5372c-1.0006-0.13332-0.57982 0.59412 1.1959 2.7453 3.8065 4.6115 1.4286 10.961-2.793 7.4573-2.9746-2.4687-4.3918 0.0103-1.6011 2.801 0.78454 0.78452 2.8441 1.1561 4.5769 0.8224 4.1627-0.80163 4.2459-12.058 0.0993-13.429-0.65193-0.21554-1.1444-0.35285-1.478-0.39729zm55.781 4.7914c0.7691-0.1023 1.2129 0.53859 1.7243 1.8713 0.65327 1.7025 0.89855 6.8319 0.54827 11.399l-0.63568 8.3036-6.5833-4.1876c-7.1467-4.5421-6.9024-7.4019 1.2674-14.795 1.8144-1.642 2.9099-2.4881 3.679-2.5904zm-137.51 4.9146c-0.12779 0.0251-0.19467 0.0942-0.19467 0.20661 0 2.9917 9.5572 10.664 15.499 12.443 8.1805 2.4493 15.014 2.4827 15.014 0.0715 0-1.1188-2.5679-2.0342-5.7052-2.0342-3.1374 0-10.003-2.7271-15.256-6.0588-4.5969-2.9153-8.4618-4.8044-9.3564-4.6286zm-247.7 0.78665c-0.36444 0.006-0.74842 0.0375-1.1561 0.0954-5.7042 0.80995-7.3206 9.8348-2.6063 14.549 6.2278 6.2278 12.415-1.0972 8.9154-10.556-1.0684-2.8881-2.6019-4.1323-5.153-4.0882zm-0.65951 3.7982c2.9834 0 4.0684 1.3561 4.0684 5.0854 0 4.7864-3.6939 6.8187-6.7819 3.7306-3.0351-3.0351-1.2554-8.8161 2.7136-8.8161zm407.51 1.7004c2.1741-0.12615 3.0773 4.0505 3.246 13.047 0.15214 8.1161-1.5038 9.0108-9.5193 5.145-5.8851-2.8383-5.7634-4.7318 0.87008-13.429 2.3364-3.0631 4.0988-4.6879 5.4033-4.7636zm-508.07 2.6698c0.58563-0.14111 1.4683 0.89593 2.1017 2.5467 0.72395 1.8866 0.86135 3.8864 0.30195 4.4458s-1.6122-0.52504-2.3361-2.4116c-0.72395-1.8866-0.85737-3.8904-0.29797-4.4498 0.06992-0.0699 0.14677-0.11094 0.23043-0.1311zm-49.138 3.6909c4.6351 0.0861 15.972 3.2753 33.238 9.4279 9.6136 3.4258 13.978 6.921 8.6452 6.921-1.1188 0-2.0342 1.5135-2.0342 3.3651 0 3.1326-0.25725 3.1326-3.7187 0-5.8344-5.28-7.6972-3.9356-2.3838 1.7203 5.9197 6.3013 3.0546 6.7515-3.5399 0.55622-4.2064-3.9518-4.6329-4.0388-3.3453-0.68336 1.0277 2.6782 0.75154 3.4002-0.90584 2.3759-3.6095-2.2308-2.7688 1.2067 1.6885 6.9051 5.219 6.6721 5.0719 7.6887-1.0171 7.0203-5.9616-0.65442-6.31 0.46287-1.7203 5.5344 3.0944 3.4193 3.101 3.7187 0.05165 3.7187-2.18 0-6.8595-7.149-13.643-20.85-5.6779-11.468-11.191-21.718-12.253-22.781-2.211-2.213-1.8434-3.2817 0.93763-3.23zm217.02 2.1097c-4.4968 0-7.1252 7.7433-3.9333 11.589 2.6544 3.1984 7.0701 3.4478 8.8916 0.5006 2.4019-3.8864-0.96237-12.09-4.9583-12.09zm-0.0914 4.1558c0.55011 0.0587 1.1912 0.39662 1.8753 1.0806 1.1554 1.1554 1.1854 3.0989 0.0755 4.8947-1.5607 2.5252-2.0495 2.4335-3.2181-0.61184-1.2215-3.1833-0.38289-5.5395 1.2674-5.3636zm417.01 8.3075c0.95427 0.10974 3.4602 2.7655 7.0282 7.9142 6.5726 9.4843 8.9334 25.2 5.153 34.327-3.3895 8.1829-11.219 10.369-9.4081 2.6262 3.6829-15.745 3.5002-29.896-0.4847-37.497-2.6434-5.0423-3.2427-7.4797-2.2884-7.3699zm-5.7529 3.23c0.51589-0.19571 2.2368 2.0701 4.7596 6.9488 1.7382 3.3613 2.8745 6.9624 2.5268 8.0016-0.34766 1.0392-2.515-2.1728-4.8153-7.1355-2.3004-4.9631-2.9871-7.6192-2.4712-7.8149zm-504.9 4.8709c-0.90992-0.0837-1.8549 0.0361-2.8169 0.40523-4.5499 1.746-4.3917 13.373 0.23044 16.881 4.5709 3.4698 5.5917 3.4595 8.542-0.0953 4.9598-5.9762 0.41393-16.606-5.9555-17.191zm579.39 0.39331c1.3085 0.0937 2.8629 1.1348 4.565 3.2182 4.0232 4.9241 3.8893 12.525-0.42114 24.136-3.6918 9.9446-7.1622 3.5458-8.2599-15.232-0.46457-7.9479 1.2373-12.328 4.116-12.122zm-579.88 1.8673c3.3302-0.19335 6.9521 5.2416 5.6019 9.4955-1.5509 4.8866-3.281 5.3603-6.7859 1.8554-3.051-3.051-3.1669-9.0748-0.21057-10.902 0.44848-0.27718 0.91878-0.42134 1.3945-0.44897zm-94.124 0.32183c0.76293 0.11509 1.9532 0.98129 3.0314 2.2805 1.4377 1.7323 2.1565 3.6083 1.5971 4.1677-0.5594 0.55939-2.1937-0.40125-3.6313-2.1335-1.4377-1.7323-2.1565-3.6083-1.5971-4.1677 0.13985-0.13985 0.34561-0.18535 0.59992-0.14699zm210.93 1.327c-3.1925 0.0571-3.1865 0.2197 0.0993 2.1335 4.4774 2.6079 4.9362 10.972 0.50854 9.273-1.6782-0.64398-3.0513-0.28509-3.0513 0.79858 0 3.6225 7.6471 2.0244 8.6492-1.8077 1.3191-5.0444-1.9203-10.474-6.2058-10.397zm42.845 0.25824c-0.35952 0.0316-0.2227 0.57677 0.42512 1.625 0.92741 1.5006 0.42525 3.3161-1.2078 4.3504-2.2171 1.4043-2.0606 1.7831 0.75486 1.8077 3.989 0.0349 4.8342-5.0437 1.2118-7.2825-0.57339-0.35437-0.96822-0.51959-1.184-0.50061zm185.94 2.0382c0.0511-0.013 0.1025-0.0114 0.15494 0.0119 0.8391 0.37292 9.4534 5.0554 19.142 10.405 49.761 27.477 92.159 41.451 94.116 31.017 4.5531-24.27 29.294-26.1 32.992-2.4394 2.4235 15.505-9.5095 17.216-12.551 1.7998-0.81977-4.1556-1.9296-6.3425-2.4672-4.859-0.53764 1.4835 0.0865 6.5181 1.3866 11.188 2.2853 8.2088 2.0571 9.0296-6.8892 24.7-12.456 21.818-14.546 40.936-4.0326 36.901 4.1552-1.5945 2.4567 34.977-2.3242 50.04-1.3681 4.3104-5.5689 4.7459-8.7525 0.90982-1.6137-1.9444-1.7057-7.0764-0.31387-17.799 3.846-29.63 2.8552-33.66-4.0008-16.277-7.0405 17.85-8.8417 20.119-13.155 16.54-4.4129-3.6624-3.9205-8.8348 1.9468-20.413 5.8321-11.509 6.2626-18.827 2.0342-34.581-1.6516-6.1534-3.0132-14.017-3.0274-17.473-0.018-4.6728-1.2968-6.8628-4.9822-8.542-9.6745-4.408-75.348-29.258-85.964-32.527-11.098-3.4173-13.045-5.2491-7.7354-7.2865 2.1619-0.8296 3.0513-4.2056 3.0513-11.577 0-5.3647 0.60387-9.5433 1.3707-9.7378zm204.16 6.4482c3.8321 0.23761 9.2126 3.164 14.029 8.6492 6.9958 7.9677 8.3928 14.312 2.6699 12.134-2.8542-1.0866-3.0558-0.84603-1.0171 1.2078 1.3985 1.4088 2.5427 3.2925 2.5427 4.1876 0 5.737-21.054-11.404-22.96-18.693-1.3787-5.2721 0.90367-7.7228 4.7358-7.4851zm-304.05 4.9583c-0.73852 0.0137-1.1561 0.23591-1.1561 0.67541 0 1.1157 2.975 3.3223 6.6111 4.9027 7.7147 3.3532 21.069 3.9346 22.884 0.99722 0.75987-1.2295-2.0339-2.0342-7.064-2.0342-4.5772 0-11.496-1.3269-15.376-2.948-2.5473-1.0643-4.669-1.616-5.8999-1.5932zm352.48 11.212c9.7572-0.25276 17.177 5.8914 10.33 12.594-5.9499 5.8246-20.883 5.7913-16.047-0.0358 1.8315-2.2068 1.1877-2.6693-3.2539-2.3441-7.7792 0.56965-8.4295-3.8346-1.1244-7.6123 3.3298-1.7219 6.843-2.518 10.095-2.6023zm-517.84 4.0803c-0.41654 0.14908 0.34868 1.1249 2.3401 3.3254 3.9238 4.3358 2.9528 11.262-1.3786 9.8332-1.3979-0.46109-3.6717-3.0522-5.0537-5.7608-1.7678-3.4648-2.5216-3.916-2.5427-1.5137-0.0165 1.878 1.4084 4.853 3.1665 6.6111 4.1318 4.1317 8.2359 4.0752 9.853-0.13903 1.7664-4.603-0.32909-10.269-4.3703-11.82-1.09-0.41827-1.7644-0.62582-2.0143-0.53635zm494.65 3.0473c3.4984 0.25621 7.7213 5.5252 6.8733 9.9285-1.4332 7.4419-11.851 4.3264-11.851-3.5439 0-1.8768 1.233-4.4336 2.7414-5.6854 0.65882-0.54679 1.4294-0.75836 2.2368-0.69925zm-407.79 1.4581c-5.8015 0-7.7468 6.2603-4.0763 13.119 2.6624 4.9748 9.8377 5.5188 11.617 0.882 2.2988-5.9905-2.0154-14.001-7.5408-14.001zm74.255 1.7004c-0.21784 0.0171-0.36312 0.0572-0.42512 0.11918-1.28 1.28 7.4808 5.738 14.704 7.4812 9.0768 2.1905 14.862 2.1369 16.273-0.14701 0.69146-1.1188-0.43443-2.0342-2.503-2.0342s-9.1179-1.3935-15.666-3.099c-5.7292-1.4923-10.859-2.4398-12.384-2.3202zm-74.085 1.6925c2.3955-0.13187 5.1131 1.7707 5.5781 5.0139 0.34109 2.379-0.72531 4.8115-2.3917 5.451-3.8724 1.486-8.2039-3.6862-6.5952-7.8785 0.65033-1.6947 1.9715-2.5073 3.4088-2.5864zm-311.42 1.4938c12.034 0.004 40.755 3.5831 40.755 5.7092 0 1.9731-1.2992 2.488-4.0684 1.6091-5.0181-1.5927-5.2701 0.61577-0.50854 4.4577 3.2429 2.6166 3.107 2.7467-1.5256 1.478-4.9263-1.3492-4.974-1.2671-1.5256 2.5983 4.7887 5.3678 4.4915 7.3663-0.68336 4.5968-6.2947-3.3688-7.1135-0.78033-1.0171 3.2142 6.2317 4.0831 6.979 7.8678 1.1919 6.031-2.2813-0.72404-4.0684-0.36725-4.0684 0.81446 0 1.1591-1.6019 1.6-3.5598 0.97736-2.3171-0.73681-1.6069 0.66963 2.0342 4.0326 6.0876 5.6226 7.4854 10.595 2.4354 8.6572-2.1684-0.83208-2.6561-0.42337-1.5614 1.3071 0.8766 1.3857 1.7337 5.0362 1.9031 8.1129s0.07718 5.594-0.20262 5.594c-0.9574 0-11.22-16.183-11.259-17.755-0.02169-0.86308-5.4585-10.243-12.082-20.846-6.6234-10.603-11.736-19.584-11.363-19.956 0.44171-0.44171 2.3282-0.63267 5.1053-0.63172zm704.15 0.19c7.1816 0 7.6069 3.4928 0.74295 6.1025-6.0505 2.3004-6.8402 5.0031-1.0171 3.4804 5.8794-1.5375 5.0039 1.4723-2.1891 7.5249-9.3554 7.872-14.084 6.2201-14.084-4.9226 0-5.1856 9.5061-12.185 16.548-12.185zm-24.176 4.1001c3.0767-0.0171 5.594 0.88361 5.594 2.0024 0 2.572-4.1568 2.572-8.1367 0-2.3777-1.5366-1.8164-1.9782 2.5427-2.0024zm50.6 2.0024c6.9557 0 19.255 21.371 17.143 29.786-2.2267 8.8718-10.846 3.638-18.308-11.116-3.4943-6.91-2.7604-18.669 1.1641-18.669zm-385.73 5.0854 3.5598 4.2273c1.9579 2.3257 3.5598 5.7146 3.5598 7.5288s-1.6019 4.291-3.5598 5.5066c-3.2545 2.0206-3.2108 2.1584 0.50854 1.6091 6.0598-0.89498 6.4271-9.9733 0.60391-14.911l-4.6723-3.9611zm371.61 0.22646c0.96578-0.24215 1.6843 1.4167 1.8594 5.3675 0.19313 4.3593 0.27031 4.3355 1.613-0.48867 1.7067-6.1318 3.4292-3.7679 6.1701 8.4625 1.377 6.1466 1.3749 11.577-0.0119 16.599-4.3971 15.925-18.196 2.5059-15.149-14.732 1.613-9.1254 3.9088-14.805 5.5185-15.209zm-278.93 0.25824c0.54784 0.0209 1.182 0.0944 1.907 0.1907 54.901 7.289 59.735 121.5 6.1184 144.57-5.6021 2.41-10.187 4.7531-10.187 5.2086 0 0.45545 0.92195 3.2546 2.0501 6.2217 4.473 11.765-9.3852 29.935-27.66 36.262-10.172 3.5218-10.044 4.4749 2.4752 18.172l10.429 11.41 4.6762-4.9782c7.727-8.2251 22.478-10.109 32.181-4.112 1.0504 0.64919-3.7983 6.9023-10.775 13.894-8.6218 8.64-13.878 15.967-16.416 22.881-6.0747 16.544-14.931 16.371-32.193-0.62773-17.672-17.403-43.81-25.157-60.831-18.045l-7.5646 3.1625-5.6536-10.385c-7.2627-13.344-7.6283-12.561 6.5555-13.929 71.833-6.9308 128.63-111.06 105.5-193.43-3.9992-14.245-4.4507-16.615-0.6158-16.468zm217.16 0.0993c2.6485 0.17276 7.0105 2.9024 13.242 9.1339 6.5568 6.5568 9.8498 12.266 13.361 23.186 7.0098 21.801 5.3863 23.668-8.1804 9.4319-18.87-19.801-26.368-42.271-18.423-41.752zm73.854 0.43306c-0.5594 0 1.6155 2.7461 4.8312 6.1025 3.2156 3.3564 6.3059 6.1025 6.8653 6.1025s-1.6155-2.7461-4.8312-6.1025c-3.2156-3.3564-6.306-6.1025-6.8654-6.1025zm-87.704 5.741c1.771-0.0478 3.8975 1.3276 5.9436 4.6921 6.3424 10.429 7.459 22.702 2.793 30.691-6.4812 11.097-13.298 9.439-21.498-5.2324l-4.9464-8.8479 4.0167-7.8268 4.0127-7.8228 3.9611 7.7156c2.1774 4.2442 4.4209 7.2518 4.9901 6.6826 0.56917-0.56915 0.0454-2.8812-1.1641-5.1411-4.1834-7.8168-2.0052-14.805 1.8912-14.911zm-253.35 0.56416c-0.77867-0.0518-0.75967 0.47691-0.0477 1.6289 0.85742 1.3873 3.5249 3.3134 5.9277 4.2829 5.7473 2.3189 29.798 2.5242 29.798 0.25427 0-0.97166-6.6365-2.2353-14.748-2.8089-8.1113-0.57364-16.5-1.7636-18.641-2.646-1.0669-0.43965-1.8212-0.68009-2.2884-0.71117zm240.11 3.8657c0.52836 0-1.7099 5.2634-4.9702 11.697-3.2602 6.4331-7.0197 16.061-8.3552 21.395-2.4964 9.9692-4.797 13.211-6.9289 9.7617-2.2434-3.6298 16.295-42.853 20.254-42.853zm-372.53 6.0986c-2.401-0.1031-4.8938 1.4478-6.7938 4.998-2.2869 4.2732-2.1696 5.7579 0.80255 10.294 5.3683 8.1931 14.519 6.486 14.1-2.6301-0.35474-7.7283-4.1072-12.49-8.1089-12.662zm59.007 0.21055c-5.994-0.21387-9.6745 9.5811-3.6432 16.246 4.1133 4.5452 5.2898 4.746 8.5856 1.4502 3.3705-3.3705 3.0638-12.821-0.51251-15.789-1.5387-1.277-3.0467-1.8577-4.4299-1.907zm-114.76 3.9611c-3.8518 0.39917-7.1134 5.4284-4.9941 12.106 1.5309 4.8234 7.6018 5.3408 11.24 0.95749 1.9745-2.3792 2.0408-4.2942 0.29004-8.1367-1.703-3.7377-4.2245-5.166-6.5356-4.9265zm54.541 0c2.4359-0.0644 5.1985 1.3973 6.7024 4.2074 1.8148 3.3911 1.6608 4.9502-0.72705 7.3381-3.7558 3.7558-12.325-3.336-10.326-8.5459 0.75786-1.9749 2.4558-2.9495 4.3504-2.9996zm59.055 0.20659c0.29115-0.003 0.59613 0.0139 0.91775 0.0596 3.3045 0.46931 4.5769 2.0169 4.5769 5.5662 0 5.6552-3.0998 7.4446-6.6866 3.8578-4.0669-4.0669-3.1755-9.431 1.1919-9.4836zm144.43 0.54034c-0.90456-0.16955-1.3676 1.2415-1.1124 3.6115 0.38515 3.5773-0.39004 4.5436-3.2579 4.0524-2.2593-0.38692-3.2286 0.22293-2.4235 1.5256 0.73772 1.1936 3.1165 2.1693 5.2881 2.1693 4.2673 0 5.7775-8.8032 1.919-11.188-0.14646-0.0905-0.28397-0.14662-0.41318-0.17083zm-256.66 2.3401c2.3813-0.0464 3.7557 3.5878 2.062 8.0016-0.64398 1.6782-2.1443 3.0513-3.3333 3.0513-3.8301 0-4.7256-6.3194-1.3707-9.6743 0.94111-0.94111 1.8483-1.3632 2.642-1.3786zm-49.516 3.2737c-0.44724 0.0186-0.91087 0.11544-1.3866 0.29799-3.2207 1.2359-4.5242 9.6077-1.9031 12.229 3.2625 3.2625 8.8146 1.2256 8.7843-3.2221-0.0387-5.6852-2.364-9.4347-5.4947-9.3048zm-34.033 2.1216c-0.91869 0.0216-1.8526 0.29166-2.7692 0.86612-4.2963 2.6926-5.4116 9.3797-2.4792 14.859 2.485 4.6433 8.1209 5.4667 11.855 1.7322 5.5515-5.5515-0.17624-17.609-6.6071-17.457zm34.474 1.5892c1.6782 0 3.0513 1.3199 3.0513 2.9321 0 3.3984-2.905 5.6926-4.8034 3.7942-2.4312-2.4312-1.3118-6.7263 1.7521-6.7263zm-34.97 2.5467c1.9962-0.0347 4.2025 1.1824 5.5344 3.6711 3.5194 6.576-1.9311 11.959-6.9885 6.9011-1.8939-1.8939-3.1613-4.921-2.8129-6.7303 0.48535-2.5202 2.2708-3.8072 4.267-3.8419zm309.35 0.15494c-0.77155-0.0903-1.833 0.0377-3.0036 0.40924-2.3412 0.74308-10.122 1.4261-17.29 1.5177-12.461 0.15919-17.045 2.1617-9.4756 4.1399 9.9514 2.6006 31.021-0.90525 31.021-5.1609 0-0.50854-0.47996-0.81554-1.2515-0.90586zm195.56 1.2515c1.7552 0.21003 3.2076 6.8694 5.8324 22.491 4.452 26.496 4.9823 43.295 1.5018 47.489-6.1841 7.4527-7.5053 3.5083-9.5988-28.673-0.74599-11.468-2.1521-20.85-3.1268-20.85-2.6956 0-2.133-5.1212 1.5852-14.414 1.5895-3.9725 2.753-6.169 3.8061-6.0429zm-313.61 8.9154c-1.8606-0.0615-3.8093 0.69448-5.6496 2.5348-4.5953 4.5953-3.9441 10.478 1.7958 16.218 6.0214 6.0214 8.4299 6.2514 11.208 1.0608 4.787-8.9447-0.70903-19.594-7.354-19.813zm-0.84626 3.4049c4.9427 0 8.9622 6.8257 7.2309 12.281-1.7405 5.4837-6.337 5.005-10.322-1.0767-3.9611-6.0454-2.5389-11.204 3.091-11.204zm-225.41 4.1438c-0.44959 0.10712-0.007 0.7501 1.2753 2.1097 3.6186 3.8358 3.1445 9.4425-1.0171 12.026-3.2537 2.0201-3.21 2.1599 0.50854 1.6011 5.0864-0.7643 5.9533-13.879 1.0171-15.387-0.92347-0.28217-1.5141-0.4139-1.7839-0.34962zm103.02 4.2749c-4.6873-0.14003-6.5197 4.0124-4.7557 11.041 0.98686 3.932 2.4145 5.0561 5.8125 4.5729 6.699-0.95258 6.6294-14.578-0.0795-15.53-0.33764-0.0479-0.66487-0.0741-0.97736-0.0834zm238.63 0.63172c-1.4115-0.0137-3.5703 0.38071-6.3926 1.2118-3.842 1.1313-12.934 1.4711-20.207 0.75488-12.989-1.2792-15.895 1.5143-4.0684 3.9094 7.8688 1.5936 28.695-0.0897 31.121-2.5149 2.1776-2.1776 1.8996-3.3383-0.45293-3.3612zm43.727 1.5256c-1.4728-0.0432-3.0523 0.61286-4.5372 2.0977-2.88 2.88-3.0525 4.3248-1.037 8.7486 3.4816 7.6413 11.53 6.3326 11.53-1.8752 0-5.4066-2.7153-8.8761-5.9555-8.971zm-281.88 1.64c2.7122 0 4.0684 1.3561 4.0684 4.0684 0 3.9202-3.9817 5.5137-6.7819 2.7136-2.8002-2.8002-1.2067-6.7819 2.7136-6.7819zm281.7 0.74294c1.5707 0.0659 3.087 2.2841 3.087 5.4788 0 2.1716-0.94384 3.9492-2.0978 3.9492-2.7456 0-4.7362-5.3083-3.0274-8.0731 0.59937-0.96981 1.3242-1.3847 2.0381-1.3548zm-440.8 5.9635c2.6587 0.0941 3.905 0.71741 2.8089 2.0381-1.6842 2.0294-1.6516 3.3663 0.11919 5.1371 1.834 1.834 1.3757 2.3917-1.9627 2.3917-2.3953 0-4.9224 0.91538-5.6138 2.0342-0.71303 1.1537 0.99682 2.0342 3.9492 2.0342 7.3544 0 6.9781 6.0499-0.38935 6.2614l-5.594 0.1629 5.594 2.0421c6.2813 2.2941 7.457 5.7034 2.0342 5.8999-2.7274 0.0988-2.4896 0.56109 1.0171 1.9706 6.2345 2.506 5.7572 5.5947-1.0171 6.5833l-5.594 0.81843 6.6111 1.6051c6.7789 1.648 9.1224 5.1689 3.4406 5.1689-1.7442 0-2.6461 0.85365-2.0024 1.8951 5.1762 8.3753-5.6837 0.53245-22.142-15.987-10.947-10.98-19.122-20.43-18.163-20.99 8.245-4.84 28.929-9.34 36.905-9.05zm242.43 15.67c-5.4644 0-7.5214 12.451-2.8328 17.14 4.3165 4.3165 11.045 0.73786 11.045-5.8761 0-4.8171-4.7002-11.263-8.2122-11.263zm64.776 0c-1.0617 0-0.44727 1.4836 1.3667 3.2976 4.4388 4.4388 3.0461 9.9618-2.4633 9.7736-2.4268-0.0828-3.9429 0.60368-3.3731 1.5256 2.3269 3.765 8.886 1.5402 10.135-3.4366 1.27-5.06-1.8259-11.16-5.6655-11.16zm89.786 2.6857c-1.6394-0.0201-4.6516 0.48772-8.9472 1.5694-5.5816 1.4055-14.987 1.9009-22.622 1.1879-13.649-1.2745-16.226-0.47771-8.4943 2.6301 7.652 3.0757 29.602 2.4093 36.397-1.1045 5.3166-2.7493 6.3993-4.2494 3.6671-4.2829zm-153.47 1.3826c3.1591 0 5.9947 7.0534 4.0803 10.151-0.69764 1.1288-2.5341 2.054-4.0803 2.054-1.5461 0-3.3826-0.92525-4.0803-2.054-1.9144-3.0976 0.92119-10.151 4.0803-10.151zm-112.35 8.1367c-2.104 0-1.6196 1.1402 1.5892 3.7386 4.7879 3.877 4.0538 8.4665-1.3548 8.4665-1.6782 0-2.4872 0.91538-1.7958 2.0342 2.1297 3.4459 5.0646 2.2685 7.4613-2.9917 2.5577-5.6135-0.39654-11.248-5.8999-11.248zm293.79 2.356c-0.30507-0.0179-0.61658 0.004-0.92968 0.0636-3.6482 0.6953-5.7265 7.8656-3.7624 12.984 1.4608 3.8068 6.1862 3.7041 9.4319-0.20661 3.3196-3.9999-0.16379-12.572-4.7398-12.841zm-244.8 1.7124c-4.2309 0-7.2941 9.5541-4.6484 14.497 1.3712 2.5622 3.8086 3.8237 6.6111 3.4247 8.1688-1.1629 6.3335-17.922-1.9626-17.922zm-123.79 1.0171c-7.4063 0-9.5146 7.2041-3.9174 13.389 1.9415 2.1453 4.0741 3.886 4.7398 3.8697 9.1664-0.23593 8.3553-17.259-0.82241-17.259zm368.19 1.0171c1.6951 0 3.0513 1.8082 3.0513 4.0684s-1.3561 4.0684-3.0513 4.0684c-1.6951 0-3.0513-1.8082-3.0513-4.0684s1.3561-4.0684 3.0513-4.0684zm-368.96 1.1164c3.3062 0.0908 6.4775 4.4956 5.1291 8.0096-1.4235 3.7096-3.7222 3.9219-7.0044 0.63965-3.287-3.287-3.0772-7.0516 0.46484-8.4108 0.465-0.17844 0.9381-0.25137 1.4104-0.23839zm125.33 1.1522c1.8218 0.15909 3.7648 1.9989 4.2471 5.3795 0.4937 3.4604-0.36239 4.557-3.5598 4.557-3.1664 0-4.2114-1.2993-4.2114-5.2364 0-3.3384 1.7022-4.8591 3.524-4.7001zm160.19 5.3795c-0.63059-0.0535-0.98133 0.005-0.98133 0.1907 0 1.8144 7.803 6.5911 14.176 8.677 6.7601 2.2128 26.781 0.84166 32.511-2.2249 7.212-3.8597 3.5221-4.5665-9.6425-1.8474-11.026 2.2774-13.408 2.1136-24.625-1.7163-5.1224-1.749-9.5465-2.9185-11.438-3.0791zm73.111 14.974c-1.5649-0.10661-2.8963 0.90793-2.8963 3.3334 0 2.1332 0.60893 4.4906 1.3548 5.2364 3.1356 3.1356 7.0424 1.1856 6.4164-3.2022-0.46216-3.2394-2.8628-5.2304-4.8749-5.3675zm-277.51 3.822c-4.8619 0-6.7226 2.9859-5.0815 8.1566 1.726 5.4381 8.3797 5.1847 9.8332-0.37348 1.4588-5.5785 0.11139-7.7831-4.7517-7.7831zm0.11919 2.0342c1.0528 0 1.915 1.3731 1.915 3.0513 0 3.1457-2.4013 4.043-4.6921 1.7521-1.6252-1.6252 0.21208-4.8034 2.7771-4.8034zm191.22 0.11125c-0.42276 0.0736 0.21192 0.83999 1.907 2.6301 1.6808 1.775 6.7154 4.5651 11.188 6.2018 13.872 5.0764 39.662 2.9576 39.662-3.2578 0-1.129-1.6019-1.43-3.5598-0.67144-11.918 4.6176-26.972 3.2278-47.295-4.3624-1.0157-0.37927-1.6494-0.58448-1.9031-0.54031zm-116.52 5.9913c-1.3961 0-1.0716 1.0487 0.78267 2.5427 5.3566 4.316 5.9663 9.453 1.6408 13.778-3.1942 3.1942-3.3834 4.0207-0.92572 4.0207 5.5432 0 8.1457-9.2532 4.267-15.173-1.8627-2.8428-4.458-5.1689-5.7648-5.1689zm-219.54 5.5701c0.19081 0.0294 0.29003 0.11003 0.29003 0.2503 0 1.1222-2.0462 2.6912-4.5451 3.4843l-4.5411 1.4422 4.6722 1.7283c6.2167 2.2997 3.7511 5.7647-4.3504 6.1105-5.418 0.23123-5.6512 0.41542-1.4064 1.1164 10.246 1.692 11.555 2.6914 7.4613 5.7052-3.5353 2.6028-3.4911 2.7793 0.85817 3.4168 2.5208 0.36944 4.9626 1.8157 5.4231 3.2142 1.1496 3.4909-0.46944 3.1507-16.746-3.536-18.101-7.4361-18.125-7.8148-1.0886-17.016 6.8636-3.7072 12.637-6.1219 13.973-5.9158zm84.708 2.5666c-1.8986 0-3.0513 1.9212-3.0513 5.0854 0 3.1643 1.1527 5.0854 3.0513 5.0854s3.0513-1.9212 3.0513-5.0854c0-3.1643-1.1527-5.0854-3.0513-5.0854zm175.63 4.0684c-1.4538 0-1.3448 1.0408 0.31386 3.0393 1.3878 1.6722 2.0408 4.8761 1.4541 7.1196-1.2057 4.6106 2.148 5.6435 3.8578 1.1879 1.3436-3.5013-2.546-11.347-5.6258-11.347zm-199.21 4.2591c-7.3965-0.12869-10.601 9.7931-4.5928 16.432 4.0999 4.5304 7.5046 4.726 10.906 0.62773 3.4372-4.1416 0.0952-15.958-4.7795-16.897-0.52888-0.10185-1.0405-0.15431-1.5336-0.16289zm-0.72308 3.965c2.4706-0.0945 5.1345 1.2867 5.9833 3.9611 0.70706 2.2276 0.71353 4.9737 0.0159 6.1025-3.2428 5.2469-12.739-1.1655-10.473-7.0719 0.74791-1.949 2.552-2.9182 4.4736-2.9917zm338.51 8.4387c-2.8208-0.23995-4.7846 4.822-3.2062 8.9353 1.7895 4.6634 6.321 2.3532 6.321-3.2221 0-2.6105-1.1448-5.128-2.5427-5.594-0.19492-0.065-0.38406-0.10319-0.57212-0.11918zm-203.42 4.0684c-2.8208-0.23995-4.7846 4.822-3.2062 8.9353 1.7895 4.6634 6.321 2.3532 6.321-3.2221 0-2.6105-1.1448-5.128-2.5427-5.594-0.19491-0.065-0.38405-0.10319-0.57211-0.11918zm78.483 1.7084c-1.1747 0.034-0.53556 0.99313 1.4223 2.1335 4.1627 2.4246 4.6327 7.9915 1.0171 12.046-2.1632 2.4259-2.0113 2.4505 1.0171 0.15893 5.7119-4.3221 3.2509-14.533-3.4565-14.339zm-111.72 2.2487c-4.0189 0.25725-3.9922 0.33827 0.37347 1.172 2.5857 0.49381 5.219 2.2419 5.8483 3.8816 0.62919 1.6397 1.6164 2.5036 2.197 1.923 2.0741-2.0741-4.171-7.2485-8.4188-6.9766zm-157.91 3.7902c1.1188 0 2.0342 1.3199 2.0342 2.9321s-0.91538 3.4961-2.0342 4.1875c-1.1188 0.69146-2.0342-0.62846-2.0342-2.9321s0.91538-4.1875 2.0342-4.1875zm326.49 2.7016c-10.4-0.0439-10.967 0.75271-4.5848 3.385 5.8168 2.3992 22.355 1.6864 23.226-1.0012 0.39152-1.2078-5.122-2.1478-13.572-2.3162-1.8955-0.0378-3.5838-0.0613-5.0695-0.0676zm-158.19 3.5836c-0.12018-0.0845-0.85824 0.81253-2.3123 2.6222-1.9377 2.4116-4.6086 3.4202-7.2348 2.7334-2.2888-0.59851-4.1597-0.32815-4.1597 0.60389 0 0.93202 1.6019 2.0584 3.5598 2.503 4.6627 1.0588 6.1464 0.1751 8.7446-5.2007 1.0216-2.1138 1.5226-3.1773 1.4025-3.2618zm-33.079 5.1212c-2.0614 0.0288-3.5623 2.5121-2.3202 5.7489 0.67284 1.7534 2.1144 3.1864 3.2022 3.1864 3.4981 0 4.676-4.1544 2.0699-7.2944-0.96334-1.1608-2.0149-1.6539-2.9519-1.6408zm-47.676 0.79858c-7.7067 0-10.803 9.3245-5.0179 15.109 1.7581 1.7581 3.9795 3.1983 4.9384 3.1983 1.717 0 8.1367-5.6544 8.1367-7.1673 0-3.6726-5.4009-11.14-8.0572-11.14zm-82.972 0.11522c4.1812-0.13334 4.5816 2.1104 1.0171 5.7013-2.0387 2.0538-1.8372 2.2944 1.0171 1.2078 2.4041-0.91527 3.5598-0.37085 3.5598 1.6766 0 1.6674-1.8308 3.507-4.0684 4.0922-2.2376 0.58516-4.0684 2.0464-4.0684 3.246 0 1.5146 1.5558 1.4728 5.0934-0.13906 6.4141-2.9224 9.1369-0.57079 3.9134 3.381-3.8147 2.886-3.8004 2.9683 0.58403 3.0314 2.4779 0.0356 5.4539 1.839 6.615 4.0088 1.1612 2.1697 1.4222 4.2905 0.58006 4.712-3.0309 1.5168-36.111-3.6186-36.111-5.6059 0-3.9518 18.357-25.2 21.867-25.312zm306.98 1.8633c-0.61759 0.0364-0.0858 0.83719 1.4502 2.7255 3.0524 3.7524 8.3949 4.6427 8.3949 1.3985 0-1.1188-0.84003-2.0342-1.8673-2.0342s-3.5446-0.62962-5.594-1.3985c-1.23-0.46148-2.0132-0.71317-2.3838-0.6913zm-224.86 1.466c2.4903 0.13367 4.8431 2.9475 4.8431 6.9766 0.00001 4.581-4.611 5.015-8.1367 0.76679-2.0213-2.4355-2.018-3.6709 0.0199-6.1264 0.98183-1.183 2.1418-1.6778 3.2738-1.617zm114.41 2.9797c-5.0012-0.0189-6.4822 5.4912-2.6897 11.279 4.3192 6.5919 8.0533 4.9054 8.0533-3.6353 0-5.5344-0.88021-7.074-4.3187-7.5646-0.3642-0.052-0.71147-0.0782-1.0449-0.0795zm73.195 3.7466c-3.438 0-1.6124 3.6207 2.348 4.6564 2.5035 0.65468 4.1575 2.8987 4.3028 5.8324 0.1824 3.6853 0.45423 3.9257 1.1959 1.0568 0.93853-3.6303-4.44-11.546-7.8467-11.546zm-73.469 0.35757c0.96086-0.045 2.0975 0.37327 3.1704 1.4462 1.5706 1.5706 1.6141 2.9151 0.14302 4.3862s-2.8707 1.2128-4.5729-0.83831c-2.1192-2.5535-0.85447-4.8952 1.2594-4.9941zm41.14 3.7624c-2.0126-0.21705-3.973 1.143-3.973 3.679 0 2.0511 0.63393 4.3606 1.4064 5.1331 2.0758 2.0758 7.4424-4.0298 5.8323-6.6349-0.83364-1.3489-2.0582-2.047-3.2658-2.1772zm127.03 0.50458c-1.1379-0.14524-2.5028 0.31373-3.4366 1.2475-1.6622 1.6622-1.2831 2.2646 1.4303 2.2646 2.8326 0 3.4736 1.1747 2.7374 5.0258-0.5282 2.7631-0.17848 4.5368 0.7787 3.9452 2.4972-1.5434 2.1472-10.514-0.47278-12.134-0.30407-0.18792-0.65767-0.3012-1.037-0.34961zm-21.482 3.5121c-1.4587 0-1.3541 1.0281 0.30193 3.0235 1.3809 1.6639 1.9764 4.4101 1.327 6.1025-1.2978 3.3821 1.7804 4.2762 3.7505 1.0886 1.5733-2.5456-2.4652-10.215-5.3794-10.215zm99.484 12.134c4.1517-0.27698 8.8096 2.8735 15.642 10.06 5.9547 6.2632 5.8028 6.6517-1.907 4.8788-22.84-5.2521-25.806-7.1756-19.241-12.491 1.8361-1.4868 3.6194-2.3215 5.5066-2.4474zm-381.39 0.3814c-0.33459-0.0729-0.43464 0.62433-0.46087 2.062-0.034 1.8646 1.0807 3.8043 2.4792 4.3067 2.9781 1.0699 7.6282-2.1526 7.6282-5.2841 0-1.1956-1.2423-0.47224-2.7612 1.6051-2.6844 3.6711-2.8273 3.6684-5.0258-0.11918-0.95916-1.6524-1.5248-2.4976-1.8594-2.5706zm317.64 1.7243c-2.8008 0-2.7886 0.3699 0.12714 3.2857 3.9014 3.9014 3.0007 8.0165-1.6687 7.6242-1.8254-0.15338-2.8144 0.53316-2.201 1.5256 1.533 2.4805 6.4489 2.2696 8.0652-0.34565 2.1647-3.5025-0.90527-12.09-4.3226-12.09zm-369.09 2.2884c0.75741-0.0154 1.6273 0.032 2.6142 0.12714 6.0363 0.58202 6.5505 1.1662 5.9039 6.7382-1.3149 11.33-3.537 12.672-8.2321 4.9702-5.3098-8.71-5.588-11.728-0.28606-11.836zm418.09 3.6989 10.171 6.9408c5.594 3.8168 12.389 9.3328 15.101 12.261 2.7123 2.9279 4.5431 5.2516 4.0684 5.1649-0.47472-0.0867-5.439-1.8453-11.033-3.9094-5.594-2.0642-12.513-3.8228-15.376-3.9094-10.207-0.30913-13.265-4.674-7.7315-11.033l4.7994-5.5145zm-404.35 2.0699c0.36469-0.22858 0.56417 0.71054 0.56417 2.9122 0 1.9307 0.85363 2.9838 1.8951 2.3401s2.4281-0.30489 3.083 0.75486c0.65495 1.0597 0.25901 2.5035-0.87803 3.2062-1.137 0.70272-2.038 2.8241-2.0024 4.716 0.0568 3.02 0.4277 2.9608 3.0314-0.48072 4.3616-5.7651 5.8527-2.5284 2.1414 4.6484-4.6398 8.9724-3.8083 10.348 2.0223 3.3413 2.7932-3.3564 4.4759-4.4542 3.7386-2.4394-1.1569 3.1613-0.54029 3.4741 4.5094 2.2805 4.1138-0.9724 5.2482-0.73532 3.8181 0.79459-3.7148 3.9739-29.496 16.01-29.496 13.77 0.000193-1.2106 1.3922-9.4654 3.091-18.343 2.0742-10.839 3.6792-16.998 4.4815-17.501zm224.48 9.0704c-1.0772-0.0269-2.1878 0.33475-3.2062 1.18-3.7037 3.0738-3.8961 6.4814-0.55223 9.8252 3.5913 3.5913 8.5884 2.0298 9.2968-2.9043 0.63871-4.4486-2.3068-8.0201-5.5384-8.101zm-124.87 1.2118c-1.4781 0.019-1.2547 0.76766 0.57211 1.923 2.5664 1.623 2.4956 2.0858-0.49662 3.234-1.9201 0.73682-2.9301 2.2483-2.2448 3.3572 0.75623 1.2236 2.4431 0.81479 4.2948-1.0369 3.2117-3.2117 1.9845-7.5301-2.1256-7.4772zm124.83 2.0024c1.0528 0 1.915 1.3731 1.915 3.0513 0 3.1457-2.4012 4.0429-4.6921 1.7521-1.6252-1.6252 0.21206-4.8034 2.7771-4.8034zm169.23 0.59199c2.3767-0.27638 5.4776 2.8267 11.399 9.7021 10.524 12.22 10.511 12.248-3.7783 8.6492-17.452-4.3959-16.689-3.6982-12.845-11.76 1.964-4.1186 3.3759-6.3762 5.2245-6.5912zm-327.39 1.5137c-0.97027-0.11578-0.64116 0.48222 0.8979 2.1136 3.4855 3.6946 3.1985 6.6391-0.50855 5.2165-1.6782-0.64397-3.0513-0.28509-3.0513 0.79858s1.896 1.9706 4.2114 1.9706c5.0042 0 4.8832-8.2387-0.14303-9.7577-0.61562-0.18604-1.083-0.30307-1.4064-0.34166zm91.462 3.9412c-1.002-0.13391-0.57177 0.60203 1.2237 2.7771 2.574 3.1182 1.766 4.3016-2.4355 3.5717-0.92225-0.16019-1.0669 0.69351-0.32181 1.8991 0.74508 1.2055 2.4148 1.8384 3.7108 1.4064 3.4144-1.1381 2.8937-8.0665-0.69528-9.2531-0.65411-0.21627-1.1479-0.35663-1.4819-0.40126zm90.986 3.1069c-1.6782 0-3.3561 2.1428-3.7267 4.7596-0.52246 3.6896 0.16261 4.5968 3.0513 4.0406 4.4776-0.86231 5.087-8.8002 0.67541-8.8002zm-113.63 3.2c-2.3718 0.0986-2.0115 0.76271 1.2674 2.3441 2.5173 1.2141 4.6475 3.668 4.7358 5.4549 0.109 2.2052 0.49992 2.4119 1.2118 0.63966 1.3838-3.4451-3.0352-8.6124-7.215-8.4386zm175.35 0.60787c-0.58196 0.0395-1.1264 0.37579-1.5694 1.0926-0.77394 1.2522 0.0145 2.2288 1.7958 2.2288 1.7442 0 3.1704 1.3731 3.1704 3.0513s-1.4262 3.0513-3.1704 3.0513c-1.7443 0-2.6064 0.91538-1.915 2.0342 2.047 3.3121 4.7154 2.3352 6.174-2.2606 1.2643-3.9834-1.9637-9.3687-4.4855-9.1975zm-38.129 1.3786c-0.75189 0.10026-1.1919 0.73662-1.1919 1.9428 0 1.1188 1.2743 2.0342 2.8328 2.0342 3.0684 0 5.7857 4.9414 3.8061 6.921-0.66877 0.66879-3.1201 1.2313-5.451 1.2475-3.4816 0.0256-3.6946 0.38243-1.1879 2.0024 7.0224 4.5383 12.743-3.9568 6.9647-10.342-2.401-2.6531-4.5196-3.9733-5.7728-3.8062zm-243.74 2.0501c1.7497-0.38376 4.5531 2.4409 4.5531 5.0338 0 1.8345 1.2152 2.4014 3.3731 1.5733 2.8851-1.1071 3.1953-0.20704 2.1534 6.2138-0.72696 4.4798-0.44683 7.0269 0.69528 6.321 1.0525-0.65048 1.915-2.9576 1.915-5.1291 0-2.1716 0.91538-3.9492 2.0342-3.9492 2.6385 0 2.5873 3.3035-0.13111 8.383-1.1914 2.2261-1.7506 5.1395-1.2436 6.476 0.50708 1.3365 2.547-1.23 4.5332-5.7052 3.4565-7.7878 3.6662-7.9189 4.8908-3.0711 0.86652 3.4302 1.781 4.2509 2.8367 2.5427 0.85735-1.3872 2.4196-2.5228 3.4724-2.5228 4.2892 0 1.4193 5.7244-6.7303 13.421-11.152 10.532-15.757 13.957-15.797 11.748-0.0175-0.97608-1.8494-10.393-4.0723-20.926-2.2229-10.532-3.6424-19.548-3.1546-20.036 0.19577-0.19577 0.42148-0.31864 0.67144-0.37348zm-7.0878 0.36156c2.858 0.0203 3.4504 2.9877 4.8669 10.803 2.6299 14.509 1.1512 15.075-10.83 4.1398l-9.857-8.9988 7.5646-3.2062c4.012-1.7011 6.5411-2.7496 8.2559-2.7374zm331.68 4.7755c7.5841-0.49339 21.704 8.1773 21.704 15.272 0 2.353-0.54055 2.2625-15.117-2.4434-14.842-4.7917-14.661-4.6014-10.54-10.89 0.8003-1.2214 2.203-1.825 3.9531-1.9388zm-224.06 1.2992c-0.82839-0.0506 0.0957 1.7683 2.9281 4.6007 3.4716 3.4716 9.3505 3.4975 9.9246 0.0437 0.18595-1.1188-0.0424-1.3476-0.50854-0.50855-1.3856 2.4941-5.0284 1.7502-8.9949-1.8395-1.7248-1.5609-2.8522-2.266-3.3492-2.2964zm56.683 4.847c-0.57549-0.003-1.143 0.0914-1.6806 0.29797-2.8928 1.1118-2.6168 1.5571 1.5852 2.5507 6.5324 1.5446 6.8718 7.313 0.38937 6.615-2.7086-0.29162-4.1648 0.35389-3.4406 1.5256 1.1963 1.9356 9.1538 2.9613 9.1538 1.18 0-0.4679 0.50857-2.1807 1.1323-3.8061 1.3882-3.6176-3.1111-8.3454-7.1395-8.3632zm25.276 7.6361c-0.7643-0.10627-0.96147 0.85337-0.96147 3.0989 0 2.3746 0.86222 4.3187 1.915 4.3187 3.5241 0 4.1738-3.5816 1.1124-6.1224-0.9452-0.78444-1.6074-1.2314-2.066-1.2952zm131.21 1.9785c6.2995-0.4079 29.243 12.604 33.679 19.782 2.1653 3.5035 0.97669 3.5014-18.82-0.0278-23.22-4.1394-25.376-6.6851-16.242-19.174 0.25653-0.35071 0.73095-0.53785 1.3826-0.58006zm-48.562 1.3707c-1.1615 0-1.5856 1.3731-0.9416 3.0513s0.15783 3.0513-1.0807 3.0513-2.2527 0.99299-2.2527 2.205c0 1.2121 1.1442 1.8273 2.5427 1.3667 3.1206-1.0277 4.6689-9.6742 1.7322-9.6742zm-224.53 0.41318c0.4049-0.0669 0.95828 0.0822 1.6448 0.34567 1.8265 0.70089 4.1614 1.2753 5.1887 1.2753s2.0209 3.4327 2.209 7.6282l0.34168 7.6282 0.80254-7.6718c0.94422-9.0482 4.5119-8.1818 4.859 1.18l0.23838 6.4919 1.5534-6.1025 1.5534-6.1025 0.23838 5.594c0.28779 6.6891 4.2075 7.5663 4.5451 1.0171 0.19995-3.8784 0.3872-3.9898 1.2237-0.72309 0.79315 3.0975 1.3412 3.2974 2.7851 1.0171 1.2506-1.975 1.8059-2.0744 1.8276-0.32976 0.0171 1.3788-3.9296 6.6423-8.7724 11.697-11.194 11.683-12.814 11.536-16.389-1.4899-4.6118-16.806-5.6044-21.164-3.8498-21.454zm-5.5264 0.15893c1.7038 0.0263 2.473 2.9938 4.0842 9.71 2.9872 12.452 3.0861 12.339-7.656 8.3552-10.161-3.7687-10.618-5.8141-2.94-13.17 3.295-3.1568 5.1866-4.9152 6.5118-4.8947zm39.913 11.188 3.1387 4.7994c1.7257 2.6395 3.7888 6.859 4.5848 9.3763 1.5176 4.799-2.0263 5.563-14.593 3.1426-5.8246-1.1219-5.707-2.1583 1.1998-10.485l5.6695-6.8336zm9.9126 0.44497c1.6782 0 3.0513 1.7776 3.0513 3.9492s0.95397 4.5371 2.1176 5.2563c1.3854 0.85621 1.6328-0.61086 0.71911-4.2511-0.98682-3.9318-0.71484-5.1388 0.93366-4.12 1.282 0.79231 2.3965 2.987 2.4752 4.8788 0.11655 2.8041 0.46598 2.6888 1.8912-0.62773 1.4997-3.49 1.7636-3.2008 1.8474 2.0342 0.0538 3.3564-1.6575 8.3846-3.8022 11.176l-3.9015 5.0775-4.1478-9.1458c-4.9752-10.969-5.2453-14.227-1.184-14.227zm21.232 2.0978c1.3083 0.12585 2.4252 1.6321 3.3413 4.5133 1.4046 4.418 1.5054 4.4356 2.9281 0.50855 1.3118-3.6209 1.8419-3.2854 4.7954 3.0513 3.0342 6.5098 3.2538 6.6405 2.5745 1.5256-0.40858-3.0767 0.0455-5.594 1.0091-5.594 0.96365 0 1.7521 1.0233 1.7521 2.2726 0 1.3318 2.1255 1.863 5.1371 1.2872 5.85-1.1183 5.6239 1.3929-1.3707 15.256-2.1168 4.1955-4.2402 7.6282-4.7199 7.6282-2.9544 0-19.833-27.354-18.006-29.182 0.91988-0.9199 1.7736-1.3429 2.5586-1.2674zm200.85 5.7012c5.1278 0.39085 21.09 9.7743 24.235 14.863 1.4096 2.2809-2.1286 1.967-13.659-1.2118-14.412-3.9731-16.469-6.2316-12.042-13.23 0.22142-0.35004 0.7335-0.47698 1.466-0.42116zm-160.21 2.3719c2.3574 0 4.7802 2.2115 6.1263 5.594 1.6394 4.1193 2.004 4.3874 1.3786 1.0171-1.3924-7.5045 2.0097-5.1857 4.4776 3.0513 1.257 4.1955 2.3171 8.5435 2.356 9.6623 0.17961 5.1673-4.39 2.4622-10.95-6.48-8.3059-11.323-8.71-12.845-3.389-12.845zm-45.233 3.1864c2.5098-0.24466 6.53 3.707 6.6905 7.4931 0.0356 0.83909-2.2249 1.5256-5.0219 1.5256-5.2862 0-6.3956-2.914-3.0989-8.1288 0.3523-0.55727 0.85108-0.83351 1.4303-0.88995zm36.838 0.0596c3.9938 0.36633 8.5658 5.45 8.5658 11.74 0 1.4122-7.1128 1.3484-12.714-0.11521-4.329-1.1313-4.3412-1.3563-0.4569-8.8678 1.0929-2.1134 2.7893-2.9238 4.6047-2.7573zm27.608 1.1085c0.14536-0.003 0.30342 0.073 0.46881 0.23838 0.66152 0.66156 0.59789 3.1012-0.13905 5.4232-1.9253 6.0659-5.138 5.2032-5.1014-1.3707 0.0243-4.3591 0.46583-4.9204 2.0024-2.5427 1.6236 2.5123 1.9768 2.5436 2.0024 0.17083 0.0128-1.1887 0.33072-1.9112 0.76679-1.919zm8.6055 1.7481c3.1534 0 11.399 11.132 9.5868 12.944-0.71282 0.71282-2.2882 1.1569-3.5002 0.98928-9.685-1.3395-13.393-2.1098-13.393-2.7851 0-3.1901 5.2153-11.148 7.3064-11.148zm10.513 0.19467c0.79148-0.0473 1.8217 0.66475 2.6023 1.8991 1.0408 1.6458 1.9066 1.9987 1.923 0.78665 0.0171-1.212 1.4048-2.2011 3.083-2.2011s3.0513 1.0423 3.0513 2.3202c0 7.3497-5.4892 9.9968-9.1498 4.41-1.9826-3.0259-2.9768-6.1333-2.205-6.9051 0.19294-0.19297 0.43145-0.29412 0.69528-0.30991z"/>
</svg>
