<?xml version="1.0" encoding="UTF-8" standalone="no"?>
<!-- Created with Inkscape (http://www.inkscape.org/) -->

<svg
   xmlns:dc="http://purl.org/dc/elements/1.1/"
   xmlns:cc="http://creativecommons.org/ns#"
   xmlns:rdf="http://www.w3.org/1999/02/22-rdf-syntax-ns#"
   xmlns:svg="http://www.w3.org/2000/svg"
   xmlns="http://www.w3.org/2000/svg"
   xmlns:xlink="http://www.w3.org/1999/xlink"
   xmlns:sodipodi="http://sodipodi.sourceforge.net/DTD/sodipodi-0.dtd"
   xmlns:inkscape="http://www.inkscape.org/namespaces/inkscape"
   width="29.718697mm"
   height="32.000103mm"
   viewBox="0 0 105.30247 113.38619"
   id="svg2"
   version="1.1"
   inkscape:version="0.91 r13725"
   sodipodi:docname="Hund-lineart.svg">
  <title
     id="title4136">dog - lineart</title>
  <defs
     id="defs4">
    <pattern
       inkscape:collect="always"
       xlink:href="#Polkadots-med"
       id="pattern6341"
       patternTransform="matrix(2.9208707,0,0,2.8769478,19.907509,925.13732)" />
    <pattern
       inkscape:stockid="Polka dots, medium"
       id="Polkadots-med"
       patternTransform="translate(0,0) scale(10,10)"
       height="10"
       width="10"
       patternUnits="userSpaceOnUse"
       inkscape:collect="always">
      <circle
         id="circle5353"
         r="0.15"
         cy="0.810"
         cx="2.567"
         style="fill:black;stroke:none" />
      <circle
         id="circle5355"
         r="0.15"
         cy="2.33"
         cx="3.048"
         style="fill:black;stroke:none" />
      <circle
         id="circle5357"
         r="0.15"
         cy="2.415"
         cx="4.418"
         style="fill:black;stroke:none" />
      <circle
         id="circle5359"
         r="0.15"
         cy="3.029"
         cx="1.844"
         style="fill:black;stroke:none" />
      <circle
         id="circle5361"
         r="0.15"
         cy="1.363"
         cx="6.08"
         style="fill:black;stroke:none" />
      <circle
         id="circle5363"
         r="0.15"
         cy="4.413"
         cx="5.819"
         style="fill:black;stroke:none" />
      <circle
         id="circle5365"
         r="0.15"
         cy="4.048"
         cx="4.305"
         style="fill:black;stroke:none" />
      <circle
         id="circle5367"
         r="0.15"
         cy="3.045"
         cx="5.541"
         style="fill:black;stroke:none" />
      <circle
         id="circle5369"
         r="0.15"
         cy="5.527"
         cx="4.785"
         style="fill:black;stroke:none" />
      <circle
         id="circle5371"
         r="0.15"
         cy="5.184"
         cx="2.667"
         style="fill:black;stroke:none" />
      <circle
         id="circle5373"
         r="0.15"
         cy="1.448"
         cx="7.965"
         style="fill:black;stroke:none" />
      <circle
         id="circle5375"
         r="0.15"
         cy="5.049"
         cx="7.047"
         style="fill:black;stroke:none" />
      <circle
         id="circle5377"
         r="0.15"
         cy="0.895"
         cx="4.340"
         style="fill:black;stroke:none" />
      <circle
         id="circle5379"
         r="0.15"
         cy="0.340"
         cx="7.125"
         style="fill:black;stroke:none" />
      <circle
         id="circle5381"
         r="0.15"
         cy="1.049"
         cx="9.553"
         style="fill:black;stroke:none" />
      <circle
         id="circle5383"
         r="0.15"
         cy="2.689"
         cx="7.006"
         style="fill:black;stroke:none" />
      <circle
         id="circle5385"
         r="0.15"
         cy="2.689"
         cx="8.909"
         style="fill:black;stroke:none" />
      <circle
         id="circle5387"
         r="0.15"
         cy="4.407"
         cx="9.315"
         style="fill:black;stroke:none" />
      <circle
         id="circle5389"
         r="0.15"
         cy="3.870"
         cx="7.820"
         style="fill:black;stroke:none" />
      <circle
         id="circle5391"
         r="0.15"
         cy="5.948"
         cx="8.270"
         style="fill:black;stroke:none" />
      <circle
         id="circle5393"
         r="0.15"
         cy="7.428"
         cx="7.973"
         style="fill:black;stroke:none" />
      <circle
         id="circle5395"
         r="0.15"
         cy="8.072"
         cx="9.342"
         style="fill:black;stroke:none" />
      <circle
         id="circle5397"
         r="0.15"
         cy="9.315"
         cx="8.206"
         style="fill:black;stroke:none" />
      <circle
         id="circle5399"
         r="0.15"
         cy="9.475"
         cx="9.682"
         style="fill:black;stroke:none" />
      <circle
         id="circle5401"
         r="0.15"
         cy="6.186"
         cx="9.688"
         style="fill:black;stroke:none" />
      <circle
         id="circle5403"
         r="0.15"
         cy="6.296"
         cx="3.379"
         style="fill:black;stroke:none" />
      <circle
         id="circle5405"
         r="0.15"
         cy="8.204"
         cx="2.871"
         style="fill:black;stroke:none" />
      <circle
         id="circle5407"
         r="0.15"
         cy="8.719"
         cx="4.59"
         style="fill:black;stroke:none" />
      <circle
         id="circle5409"
         r="0.15"
         cy="9.671"
         cx="3.181"
         style="fill:black;stroke:none" />
      <circle
         id="circle5411"
         r="0.15"
         cy="7.315"
         cx="5.734"
         style="fill:black;stroke:none" />
      <circle
         id="circle5413"
         r="0.15"
         cy="6.513"
         cx="6.707"
         style="fill:black;stroke:none" />
      <circle
         id="circle5415"
         r="0.15"
         cy="9.670"
         cx="5.730"
         style="fill:black;stroke:none" />
      <circle
         id="circle5417"
         r="0.15"
         cy="8.373"
         cx="6.535"
         style="fill:black;stroke:none" />
      <circle
         id="circle5419"
         r="0.15"
         cy="7.154"
         cx="4.37"
         style="fill:black;stroke:none" />
      <circle
         id="circle5421"
         r="0.15"
         cy="7.25"
         cx="0.622"
         style="fill:black;stroke:none" />
      <circle
         id="circle5423"
         r="0.15"
         cy="5.679"
         cx="0.831"
         style="fill:black;stroke:none" />
      <circle
         id="circle5425"
         r="0.15"
         cy="8.519"
         cx="1.257"
         style="fill:black;stroke:none" />
      <circle
         id="circle5427"
         r="0.15"
         cy="6.877"
         cx="1.989"
         style="fill:black;stroke:none" />
      <circle
         id="circle5429"
         r="0.15"
         cy="3.181"
         cx="0.374"
         style="fill:black;stroke:none" />
      <circle
         id="circle5431"
         r="0.15"
         cy="1.664"
         cx="1.166"
         style="fill:black;stroke:none" />
      <circle
         id="circle5433"
         r="0.15"
         cy="0.093"
         cx="1.151"
         style="fill:black;stroke:none" />
      <circle
         id="circle5435"
         r="0.15"
         cy="10.093"
         cx="1.151"
         style="fill:black;stroke:none" />
      <circle
         id="circle5437"
         r="0.15"
         cy="4.451"
         cx="1.302"
         style="fill:black;stroke:none" />
      <circle
         id="circle5439"
         r="0.15"
         cy="3.763"
         cx="3.047"
         style="fill:black;stroke:none" />
    </pattern>
    <pattern
       inkscape:collect="always"
       xlink:href="#Polkadots-large"
       id="pattern6080"
       patternTransform="matrix(0.92238022,0,0,1.0980717,73.394218,957.27031)" />
    <pattern
       inkscape:collect="always"
       xlink:href="#Polkadots-large"
       id="pattern5896"
       patternTransform="matrix(0.62179239,-0.26336826,0.43643224,1.0303832,71.550845,980.31026)" />
    <pattern
       inkscape:isstock="true"
       inkscape:stockid="Polka dots, large"
       id="Polkadots-large"
       patternTransform="translate(0,0) scale(10,10)"
       height="10"
       width="10"
       patternUnits="userSpaceOnUse"
       inkscape:collect="always">
      <circle
         id="circle5531"
         r="0.45"
         cy="0.810"
         cx="2.567"
         style="fill:black;stroke:none" />
      <circle
         id="circle5533"
         r="0.45"
         cy="2.33"
         cx="3.048"
         style="fill:black;stroke:none" />
      <circle
         id="circle5535"
         r="0.45"
         cy="2.415"
         cx="4.418"
         style="fill:black;stroke:none" />
      <circle
         id="circle5537"
         r="0.45"
         cy="3.029"
         cx="1.844"
         style="fill:black;stroke:none" />
      <circle
         id="circle5539"
         r="0.45"
         cy="1.363"
         cx="6.08"
         style="fill:black;stroke:none" />
      <circle
         id="circle5541"
         r="0.45"
         cy="4.413"
         cx="5.819"
         style="fill:black;stroke:none" />
      <circle
         id="circle5543"
         r="0.45"
         cy="4.048"
         cx="4.305"
         style="fill:black;stroke:none" />
      <circle
         id="circle5545"
         r="0.45"
         cy="3.045"
         cx="5.541"
         style="fill:black;stroke:none" />
      <circle
         id="circle5547"
         r="0.45"
         cy="5.527"
         cx="4.785"
         style="fill:black;stroke:none" />
      <circle
         id="circle5549"
         r="0.45"
         cy="5.184"
         cx="2.667"
         style="fill:black;stroke:none" />
      <circle
         id="circle5551"
         r="0.45"
         cy="1.448"
         cx="7.965"
         style="fill:black;stroke:none" />
      <circle
         id="circle5553"
         r="0.45"
         cy="5.049"
         cx="7.047"
         style="fill:black;stroke:none" />
      <circle
         id="circle5555"
         r="0.45"
         cy="0.895"
         cx="4.340"
         style="fill:black;stroke:none" />
      <circle
         id="circle5557"
         r="0.45"
         cy="0.340"
         cx="7.125"
         style="fill:black;stroke:none" />
      <circle
         id="circle5559"
         r="0.45"
         cy="1.049"
         cx="9.553"
         style="fill:black;stroke:none" />
      <circle
         id="circle5561"
         r="0.45"
         cy="2.689"
         cx="7.006"
         style="fill:black;stroke:none" />
      <circle
         id="circle5563"
         r="0.45"
         cy="2.689"
         cx="8.909"
         style="fill:black;stroke:none" />
      <circle
         id="circle5565"
         r="0.45"
         cy="4.407"
         cx="9.315"
         style="fill:black;stroke:none" />
      <circle
         id="circle5567"
         r="0.45"
         cy="3.870"
         cx="7.820"
         style="fill:black;stroke:none" />
      <circle
         id="circle5569"
         r="0.45"
         cy="5.948"
         cx="8.270"
         style="fill:black;stroke:none" />
      <circle
         id="circle5571"
         r="0.45"
         cy="7.428"
         cx="7.973"
         style="fill:black;stroke:none" />
      <circle
         id="circle5573"
         r="0.45"
         cy="8.072"
         cx="9.342"
         style="fill:black;stroke:none" />
      <circle
         id="circle5575"
         r="0.45"
         cy="9.315"
         cx="8.206"
         style="fill:black;stroke:none" />
      <circle
         id="circle5577"
         r="0.45"
         cy="9.475"
         cx="9.682"
         style="fill:black;stroke:none" />
      <circle
         id="circle5579"
         r="0.45"
         cy="6.186"
         cx="9.688"
         style="fill:black;stroke:none" />
      <circle
         id="circle5581"
         r="0.45"
         cy="6.296"
         cx="3.379"
         style="fill:black;stroke:none" />
      <circle
         id="circle5583"
         r="0.45"
         cy="8.204"
         cx="2.871"
         style="fill:black;stroke:none" />
      <circle
         id="circle5585"
         r="0.45"
         cy="8.719"
         cx="4.59"
         style="fill:black;stroke:none" />
      <circle
         id="circle5587"
         r="0.45"
         cy="9.671"
         cx="3.181"
         style="fill:black;stroke:none" />
      <circle
         id="circle5589"
         r="0.45"
         cy="7.315"
         cx="5.734"
         style="fill:black;stroke:none" />
      <circle
         id="circle5591"
         r="0.45"
         cy="6.513"
         cx="6.707"
         style="fill:black;stroke:none" />
      <circle
         id="circle5593"
         r="0.45"
         cy="9.670"
         cx="5.730"
         style="fill:black;stroke:none" />
      <circle
         id="circle5595"
         r="0.45"
         cy="8.373"
         cx="6.535"
         style="fill:black;stroke:none" />
      <circle
         id="circle5597"
         r="0.45"
         cy="7.154"
         cx="4.37"
         style="fill:black;stroke:none" />
      <circle
         id="circle5599"
         r="0.45"
         cy="7.25"
         cx="0.622"
         style="fill:black;stroke:none" />
      <circle
         id="circle5601"
         r="0.45"
         cy="5.679"
         cx="0.831"
         style="fill:black;stroke:none" />
      <circle
         id="circle5603"
         r="0.45"
         cy="8.519"
         cx="1.257"
         style="fill:black;stroke:none" />
      <circle
         id="circle5605"
         r="0.45"
         cy="6.877"
         cx="1.989"
         style="fill:black;stroke:none" />
      <circle
         id="circle5607"
         r="0.45"
         cy="3.181"
         cx="0.374"
         style="fill:black;stroke:none" />
      <circle
         id="circle5609"
         r="0.45"
         cy="1.664"
         cx="1.166"
         style="fill:black;stroke:none" />
      <circle
         id="circle5611"
         r="0.45"
         cy="0.093"
         cx="1.151"
         style="fill:black;stroke:none" />
      <circle
         id="circle5613"
         r="0.45"
         cy="10.093"
         cx="1.151"
         style="fill:black;stroke:none" />
      <circle
         id="circle5615"
         r="0.45"
         cy="4.451"
         cx="1.302"
         style="fill:black;stroke:none" />
      <circle
         id="circle5617"
         r="0.45"
         cy="3.763"
         cx="3.047"
         style="fill:black;stroke:none" />
    </pattern>
  </defs>
  <sodipodi:namedview
     id="base"
     pagecolor="#ffffff"
     bordercolor="#666666"
     borderopacity="1.0"
     inkscape:pageopacity="0.0"
     inkscape:pageshadow="2"
     inkscape:zoom="1.4"
     inkscape:cx="87.209936"
     inkscape:cy="51.614864"
     inkscape:document-units="mm"
     inkscape:current-layer="layer1"
     showgrid="false"
     inkscape:window-width="1659"
     inkscape:window-height="1230"
     inkscape:window-x="831"
     inkscape:window-y="70"
     inkscape:window-maximized="0"
     inkscape:snap-global="false"
     fit-margin-left="1"
     fit-margin-top="1"
     fit-margin-right="1"
     fit-margin-bottom="1" />
  <metadata
     id="metadata7">
    <rdf:RDF>
      <cc:Work
         rdf:about="">
        <dc:format>image/svg+xml</dc:format>
        <dc:type
           rdf:resource="http://purl.org/dc/dcmitype/StillImage" />
        <dc:title>dog - lineart</dc:title>
        <dc:date>2015-02-10</dc:date>
        <dc:creator>
          <cc:Agent>
            <dc:title>Frank Tremmel</dc:title>
          </cc:Agent>
        </dc:creator>
        <dc:subject>
          <rdf:Bag>
            <rdf:li>dog</rdf:li>
            <rdf:li>animal</rdf:li>
            <rdf:li>puppy</rdf:li>
            <rdf:li>hund</rdf:li>
            <rdf:li>tier</rdf:li>
            <rdf:li>line art</rdf:li>
            <rdf:li>outline</rdf:li>
            <rdf:li></rdf:li>
          </rdf:Bag>
        </dc:subject>
        <dc:description>line art dog</dc:description>
        <cc:license
           rdf:resource="http://creativecommons.org/publicdomain/zero/1.0/" />
      </cc:Work>
      <cc:License
         rdf:about="http://creativecommons.org/publicdomain/zero/1.0/">
        <cc:permits
           rdf:resource="http://creativecommons.org/ns#Reproduction" />
        <cc:permits
           rdf:resource="http://creativecommons.org/ns#Distribution" />
        <cc:permits
           rdf:resource="http://creativecommons.org/ns#DerivativeWorks" />
      </cc:License>
    </rdf:RDF>
  </metadata>
  <g
     inkscape:label="Ebene 1"
     inkscape:groupmode="layer"
     id="layer1"
     transform="translate(-2.5264731,-943.55371)">
    <g
       id="g4281"
       transform="matrix(1.2298403,0,0,1.2298403,-11.936568,-225.42222)">
      <path
         sodipodi:nodetypes="ccccccscccccccccccccccccccccccc"
         inkscape:connector-curvature="0"
         id="path4180-7"
         d="m 76.212215,1027.7729 c -0.20689,0.334 5.482056,3.4911 6.696426,3.0357 0.508174,-0.5339 0.295393,-1.6685 -0.625002,-3.3928 1.904764,0.9907 2.380957,2.4298 3.750007,1.9642 l -1.785721,-2.1428 c 1.78572,-0.1653 6.160716,0.9298 6.160721,-1.9643 0,0 -4.52694,0.07 -4.017855,0.1786 0.202566,0.043 3.508402,-3.2281 4.285705,-4.5536 l -3.92857,0.625 c 2.02283,-1.9939 4.346228,-3.0657 4.642863,-6.0715 -1.18676,1.2166 -3.247715,2.6223 -4.196435,1.6964 1.75858,-1.5152 3.703315,-4.1835 4.107144,-6.0713 -1.500969,0.5638 -2.098646,0.7581 -3.571429,0.9821 1.64362,-1.9095 3.316566,-2.877 4.464286,-4.5535 -1.10119,0.7877 -2.113094,0.2878 -3.660713,0.982 1.56633,-1.3723 2.370872,-1.5479 4.285712,-4.2855 l -3.839286,1.2499 c 1.647797,-1.5361 4.233416,-2.4824 4.553576,-6.42854 -1.617583,0.0147 -2.459402,0.73343 -3.839289,3.12504 1.28714,-2.1306 2.520729,-3.42779 3.660712,-6.96433 -3.003704,2.06816 -3.379979,3.16056 -4.553568,4.99993 1.15322,-2.48356 2.399015,-4.1834 2.410715,-5.98207 l -2.946423,3.57142 -0.535716,-3.83928 c -3.283094,5.3789 -4.527226,9.51843 -5.089291,14.64273 l -1.33928,-5.0891 c -0.5724,-1.1739 -0.646082,-1.5675 -0.982142,4.8213 0.39071,2.2409 1.74632,2.791 1.07142,7.5893 -0.54925,1.3095 -0.414307,2.1726 -2.232137,3.4821 -2.23932,0.1334 -3.5121,-1.6663 -5.26786,-2.5 z"
         style="fill:#ffffff;fill-opacity:1;fill-rule:evenodd;stroke:#ff006d;stroke-width:0.28811115;stroke-linecap:butt;stroke-linejoin:round;stroke-miterlimit:4;stroke-dasharray:none;stroke-opacity:1" />
      <path
         sodipodi:nodetypes="ccccccccccccccccccccccccccccccccccccccsccccccccccccccccscccccccccccccccccccccccccccccccccc"
         inkscape:connector-curvature="0"
         id="path4180"
         d="m 87.802799,992.99702 c -0.707514,0.55647 -0.875606,1.12036 -1.41175,1.64697 -1.957208,2.67773 -3.329294,7.50561 -3.927257,10.77621 -0.525979,-1.0741 -0.507262,-3.227 -1.223495,-4.0348 -1.492641,0.3781 -1.316261,2.4363 -1.587437,3.6544 -0.04966,1.5355 -0.312055,3.396 0.482582,4.8287 1.214643,2.0725 0.752662,4.4606 0.140457,6.6539 -0.151022,2.0378 -1.810032,2.5629 -3.143639,1.202 -0.860579,-0.5385 -1.629361,-1.3515 -2.63001,-1.6013 -0.637031,0.051 -0.522086,0.8036 -0.365551,1.2237 l 2.197894,10.3092 c 0.05161,-0.9496 -0.270374,1.6536 0.504689,1.5734 2.046164,1.1151 4.472809,2.4891 6.792355,2.8646 0.54182,0.2152 -0.04513,-2.2339 -0.338333,-3.1422 1.82415,1.2148 3.357583,1.4902 4.388453,0.9669 -0.610844,-0.6086 -2.102718,-1.5841 -2.366748,-2.0488 -0.758503,-0.8187 1.67255,0.2475 2.746441,0.1138 1.223035,-0.1969 2.735341,-0.032 3.251077,-3.8606 -1.684928,0.562 -2.25199,0.3451 -2.657136,0.5531 -0.681666,0.172 -1.416586,0.3871 -0.587037,-0.3609 0.604387,-0.9894 3.248878,-2.2427 3.509247,-3.8697 -0.460022,-0.4006 -3.010967,0.3615 -3.535971,0.3745 2.243374,-1.3714 3.462181,-3.2101 3.980993,-5.4315 0.0968,-0.4855 -0.58174,-0.8188 -0.90678,-0.4455 -0.65415,0.6863 -2.37431,2.0119 -2.758361,1.8933 1.509985,-1.7782 3.368171,-3.8376 3.751491,-6.2646 -0.13277,-0.6474 -0.99233,-0.4571 -1.25209,0 -0.49419,0.6623 -2.451676,1.393 -1.142208,0.2268 1.040568,-1.2238 2.474075,-1.9857 3.283305,-3.3743 0.12964,-0.5947 -0.41089,-1.2162 -0.73224,-0.7349 -0.46396,0.3599 -2.572895,1.5401 -1.458407,0.4284 1.247647,-1.0694 2.25835,-2.0519 3.03831,-3.3483 0.13329,-0.5973 -0.256601,-0.7669 -0.72293,-0.3937 -0.614531,0.508 -2.21724,1.3838 -1.948902,0.9729 0.299188,-0.4582 1.797596,-1.7644 2.371654,-2.3941 0.603022,-0.932 1.159845,-2.50417 0.883615,-3.46937 -0.33158,-0.46274 -2.16506,0.56424 -2.36769,0.95854 0.4646,-1.13164 2.104536,-3.64119 2.128106,-4.87901 -0.18979,-0.5736 -0.74431,-0.23765 -1.13316,0.10738 l -1.674359,1.48566 c 0.36124,-1.07156 1.053259,-1.95859 0.852659,-3.10675 -0.29047,-0.53089 -0.96018,-0.19995 -1.15048,0.23999 l -2.659763,3.27413 c 0.126963,-1.01111 0.432262,-2.02219 0.449947,-3.03368 0.05302,-0.929 -0.07717,-1.19153 -1.071541,-0.53447 z m -0.07533,3.17495 c -0.105308,0.9023 -0.08867,1.537 -0.08194,2.43956 0.194328,0.5619 0.362123,0.3738 0.548875,-0.097 0.699079,-0.84535 1.398158,-1.69073 2.097237,-2.53611 -0.526229,1.60093 -1.306398,3.11431 -1.913252,4.67438 -0.03669,0.5914 0.746082,-0.2896 0.963881,-0.81609 0.689042,-0.88417 2.5388,-2.92918 3.317125,-3.233 -1.120701,1.77219 -2.701658,4.57619 -3.47538,6.04379 -0.111163,0.605 0.345855,0.4363 0.594897,-0.1061 0.64189,-0.7429 2.355219,-2.4678 3.17568,-2.89813 0.446096,0.20681 0.168192,1.33193 -0.742144,2.34403 -1.277902,1.4208 -3.498753,2.9222 -4.05535,4.0051 -0.101546,0.5956 0.585443,0.2329 1.223958,-0.037 0.622375,-0.078 1.398738,-0.462 2.414178,-0.9225 -0.483187,0.7588 -3.673079,3.2169 -4.306233,3.7724 1.528532,0.5082 1.719159,-0.2469 3.139671,-0.3611 -0.701982,0.9315 -2.686729,2.6606 -3.311993,3.6337 -0.10866,0.7855 0.965993,0.7355 1.466434,0.6853 0.728417,0.086 2.559329,-1.6109 1.732491,-0.3399 -0.755957,1.6281 -2.428654,3.3061 -3.735197,4.5317 -0.292718,0.8567 0.977073,1.6943 3.67536,0.1002 0.231201,0.4146 -2.927985,2.4103 -3.245834,2.88 -0.341262,0.7223 -1.293596,1.0247 -1.108263,1.9306 0.350852,0.6321 3.28291,-0.3825 3.817548,-0.3991 -0.388091,0.6071 -1.956705,1.2925 -2.470033,1.9662 -1.196344,1.0658 -1.333061,1.4552 -1.896137,2.16 0.532957,0.1784 1.560422,0.126 2.429996,0.1224 0.664811,-0.1613 0.980442,-0.2021 1.981684,-0.3156 0.329415,2.6734 -4.999053,1.1068 -6.078718,1.5981 -0.474739,0.5673 1.503538,1.8672 1.776192,2.3063 -0.348794,0.5646 -2.978477,-2.4797 -3.699765,-2.8525 -0.614595,-0.1321 -0.362851,1.3202 0.131326,1.6314 0.454723,0.5595 0.329089,1.1191 0.783812,1.6786 -1.936074,-0.5409 -3.812725,-1.3593 -5.523439,-2.4161 l -2.03125,-9.5371 c 1.395589,0.9215 2.930864,2.1622 4.713817,1.8244 1.323785,-0.7931 1.858983,-2.3195 2.074465,-3.7701 0.45623,-1.4964 0.460615,-3.1447 0.186577,-4.6775 -0.379676,-1.4206 -1.842204,-2.9416 -1.429699,-4.4849 0.0717,-0.8454 -0.478284,-3.4831 0.302853,-3.5087 -0.06331,2.2125 0.950102,4.3957 1.428218,5.6472 0.322849,0.5804 1.28825,0.1473 1.092919,-0.4575 0.130816,-4.2999 1.513149,-8.2537 3.536547,-12.13787 0.376615,-0.67479 0.592739,-0.80051 0.498889,-0.0712 z"
         style="color:#000000;font-style:normal;font-variant:normal;font-weight:normal;font-stretch:normal;font-size:medium;line-height:normal;font-family:sans-serif;text-indent:0;text-align:start;text-decoration:none;text-decoration-line:none;text-decoration-style:solid;text-decoration-color:#000000;letter-spacing:normal;word-spacing:normal;text-transform:none;direction:ltr;block-progression:tb;writing-mode:lr-tb;baseline-shift:baseline;text-anchor:start;white-space:normal;clip-rule:nonzero;display:inline;overflow:visible;visibility:visible;opacity:1;isolation:auto;mix-blend-mode:normal;color-interpolation:sRGB;color-interpolation-filters:linearRGB;solid-color:#000000;solid-opacity:1;fill:#000000;fill-opacity:1;fill-rule:evenodd;stroke:none;stroke-width:1.0629921;stroke-linecap:butt;stroke-linejoin:round;stroke-miterlimit:4;stroke-dasharray:none;stroke-dashoffset:0;stroke-opacity:1;color-rendering:auto;image-rendering:auto;shape-rendering:auto;text-rendering:auto;enable-background:accumulate" />
    </g>
    <path
       style="fill:#ffffff;fill-opacity:1;fill-rule:evenodd;stroke:#ff006d;stroke-width:0.35433069;stroke-linecap:butt;stroke-linejoin:round;stroke-miterlimit:4;stroke-dasharray:none;stroke-opacity:1"
       d="m 22.303442,979.34835 c -0.824202,3.26085 -2.027184,6.71215 -5.051128,8.67478 2.928189,0.35334 2.23274,0.45917 4.39229,0 -3.293783,2.33829 -3.229683,2.64735 -3.953063,3.84324 2.415758,-0.4683 2.854987,-0.26342 4.611901,-0.98827 -3.110652,4.54064 -4.659324,6.09304 -7.466889,7.90612 0.188018,0.69258 2.090961,0.93856 4.172674,0.54905 l -1.647106,1.26273 c -1.262481,1.8162 -1.158097,2.3876 -0.1098,2.4707 l 2.415758,-0.7687 c -1.773942,3.0341 -2.581638,4.0303 -3.074608,5.9296 l 2.745188,-1.7569 c -1.331192,3.8131 -1.406101,4.1153 -0.988276,4.7218 1.343246,-0.7755 1.584626,-0.5401 3.294222,-1.5374 0.591062,0.7687 -0.08949,0.8785 -0.658846,1.6471 -1.720313,1.9605 -2.232747,2.7937 -3.95306,4.2276 1.606221,-0.3209 2.09132,-0.4858 4.611899,-1.9766 l -2.525564,4.557 c -1.472414,4.4738 -1.732722,7.7355 -1.756913,10.7611 -0.252708,3.1275 -1.616933,4.9583 -3.623639,6.0394 l -4.7217006,1.8667 c -3.592253,2.7279 -1.996535,3.3197 -0.76865,4.0629 -0.03849,1.5118 0.904265,3.2604 3.7334376,2.0863 3.234862,3.8588 7.814398,1.6304 7.357082,0 5.642827,0.3727 3.753972,-3.0591 4.172671,-5.1609 1.31208,0.5506 2.455524,-0.5007 3.184413,-5.4904 l 0.878456,1.2079 c -0.251849,-1.2255 0.126832,-1.2515 -0.878456,-4.3923 1.986099,0.8296 1.869353,0.7805 2.854985,1.7569 -0.410356,-1.4331 -0.322951,-1.8926 -0.439233,-3.9531 l 2.745186,1.6472 c 0.7772,3.0174 1.429383,3.5278 0.658839,5.71 -1.929263,3.8649 -1.953749,5.0631 -2.525563,7.0275 -0.392836,1.7261 -3.025801,3.1723 -5.709977,4.6119 -2.526989,1.7685 -0.06693,3.231 0.988272,4.1728 1.126957,3.4401 3.858946,2.0713 5.490355,1.2078 4.106043,1.5627 5.76345,0.4729 6.368814,-1.7568 2.265649,0.2159 3.996083,-0.1033 3.074601,-3.0746 0.24373,-2.0395 0.0086,-4.2838 2.19615,-5.4904 0.03812,-1.8449 1.558231,-1.8391 3.623637,-2.5256 1.914653,0.8683 2.798224,0.1725 3.733436,0.4393 2.985438,1.3128 2.119725,1.1045 3.074597,2.0863 -0.327039,0.771 -0.173191,1.1445 -0.768642,1.6471 0,0 -1.779272,1.1722 -2.525564,0.9882 -6.436848,-1.5871 -4.148706,3.6831 -3.184413,3.9531 0.744263,1.6959 1.663859,3.4804 3.843259,2.306 1.09967,0.6552 2.06466,1.7888 2.929857,1.9383 2.071079,0.3576 3.570326,-1.2887 4.97625,-2.3776 4.373299,-0.1309 7.856368,-0.3272 11.529754,-1.4276 6.916262,0.8021 7.193081,-0.8037 9.992456,-3.1843 2.731082,-1.5314 4.183778,-4.5459 4.282472,-7.2473 0.264637,-2.1229 -0.119085,-4.0262 1.098075,-4.5021 0.0366,-1.3865 -1.134665,-4.9597 -0.329415,-3.2941 0.339584,1.589 -1.042624,-1.624 -2.415759,-4.063 1.61847,0.1242 0.692839,0.9178 3.074598,0.2196 -1.503497,-0.9714 -2.736676,-1.2587 -5.38055,-3.1843 0.344667,-1.1695 1.48898,-0.7352 3.184405,-0.8784 -1.871805,-2.7206 -7.266011,-2.3131 -11.968979,-8.3452 l 1.427487,-1.5373 -1.427483,-2.9648 1.75691,-0.7686 c -3.607343,-3.2617 -5.010054,-3.7613 -7.796306,-5.3807 0.862413,-1.2926 -0.665029,-1.9585 0.768645,-1.5373 -1.903325,-1.0483 -2.049735,-0.8548 -3.953061,-1.31771 1.382673,-0.78748 2.347208,-0.88656 5.05114,-0.65882 -1.712294,-1.8679 -2.270803,-2.62075 -4.831515,-3.07461 0.623689,-0.60376 -0.04646,-0.23 2.086335,-1.20788 -2.932628,-0.86256 -5.468653,-0.28393 -7.576697,-6.36881 -0.739171,-4.56818 -3.004057,-7.61064 -5.160939,-10.76111 l -10.54149,-8.56496 z"
       id="path4178-8"
       inkscape:connector-curvature="0"
       sodipodi:nodetypes="cccccccccccccccccccccccccccccccccccccccccccsccscccccccccccccccccccccccc" />
    <path
       style="color:#000000;font-style:normal;font-variant:normal;font-weight:normal;font-stretch:normal;font-size:medium;line-height:normal;font-family:sans-serif;text-indent:0;text-align:start;text-decoration:none;text-decoration-line:none;text-decoration-style:solid;text-decoration-color:#000000;letter-spacing:normal;word-spacing:normal;text-transform:none;direction:ltr;block-progression:tb;writing-mode:lr-tb;baseline-shift:baseline;text-anchor:start;white-space:normal;clip-rule:nonzero;display:inline;overflow:visible;visibility:visible;opacity:1;isolation:auto;mix-blend-mode:normal;color-interpolation:sRGB;color-interpolation-filters:linearRGB;solid-color:#000000;solid-opacity:1;fill:#000000;fill-opacity:1;fill-rule:evenodd;stroke:none;stroke-width:1.77165353;stroke-linecap:butt;stroke-linejoin:round;stroke-miterlimit:4;stroke-dasharray:none;stroke-dashoffset:0;stroke-opacity:1;color-rendering:auto;image-rendering:auto;shape-rendering:auto;text-rendering:auto;enable-background:accumulate"
       d="m 41.081078,968.57016 c -3.893166,1.76287 -7.609748,4.03289 -11.436226,5.9869 -2.6744,1.54229 -5.587355,2.7762 -8.122879,4.4988 -0.740467,3.02132 -1.051942,7.19337 -4.485718,8.26483 -0.621447,0.74863 -2.653955,1.26901 -1.474363,1.86371 1.16973,0.26114 3.140212,-0.276 3.416721,0.004 0.276508,0.27937 -1.529186,1.91878 -2.476625,2.96138 -0.725343,1.01482 1.196536,0.17529 2.355431,-0.0981 1.840078,-0.64404 1.953211,0.609 0.262336,2.40038 -1.174144,2.07894 -4.021816,2.52295 -5.222338,4.4226 -0.220139,2.20284 4.657083,0.6511 2.155867,3.06994 -0.03918,0.5305 -1.302308,2.1875 -1.06046,2.4616 0.241848,0.2741 1.988665,-0.8346 2.259379,-0.5648 0.541426,0.5397 0.03431,1.3229 -0.82182,2.4262 -0.27113,0.5953 -0.774132,2.6675 -0.117425,2.9477 0.553322,0.236 1.401248,-0.8727 2.199103,-1.6838 -0.294778,1.1572 -0.929869,2.5792 -0.897101,3.6651 0.56364,1.1328 1.658798,0.2272 3.142775,-0.6709 -0.06893,0.4996 -2.00076,2.6371 -3.298242,3.722 -1.049312,1.3329 -1.331554,1.3207 0.213474,2.0064 1.72663,-0.6432 2.555655,-1.5113 2.905891,-1.574 0.350236,0.369 -1.864652,2.8888 -2.633982,4.241 -1.486015,3.9006 -1.688095,8.7758 -2.33415,12.5802 -0.896154,3.5409 -4.386459,3.3023 -7.1227656,4.7138 -2.937446,1.2382 -3.133489,5.1866 -0.942556,5.6624 0.355259,1.9102 3.1765036,2.475 4.6754996,2.4618 0.835337,1.6754 5.975759,3.6354 7.597439,-0.6706 3.533024,0.6443 4.383595,-2.1575 4.747044,-4.1597 0.07626,-0.4201 0.475856,-0.3739 0.900145,-0.7475 0.42429,-0.3735 0.795631,-1.6715 1.125961,-1.907 0.261388,-1.3673 0.779515,-2.0017 0.873545,-2.7459 0.318966,-0.1442 0.560462,0.7859 1.067013,0.3707 -0.52764,-3.2381 -1.133443,-3.8649 -0.884885,-4.1683 0.669717,0.1745 1.558814,1.3674 2.724641,1.5037 -0.208811,-2.2586 -1.607177,-9.2595 -0.486543,-8.8752 1.214211,3.5971 2.085093,7.4449 1.73186,11.256 -1.942234,3.864 -1.600217,8.7604 -6.249918,10.2384 -3.732421,0.372 -3.239269,6.4586 -1.024322,6.1825 0.945072,3.3383 4.881248,2.7935 7.114676,1.9337 1.000729,0.6061 1.454528,0.3793 2.669441,0.8465 1.587457,-0.1168 2.977492,-0.9946 3.733594,-2.3153 0.571973,-0.999 1.80903,-0.8387 3.1225,-1.0364 0.614452,-0.9931 0.335455,-1.7104 0.324783,-2.9708 -0.01562,-1.844 0.310822,-3.9977 2.216504,-5 0.288521,-2.5818 1.817732,-3.0383 3.839078,-2.6227 0.866988,0.1784 2.507202,0.4744 3.006331,0.7522 0.902749,0.3558 1.237047,0.5671 1.399808,0.8753 0.416826,0.7893 -0.829248,0.401 -1.753697,0.8957 -0.464129,0.2484 -0.859389,0.6318 -1.507442,0.6931 -0.849534,0.08 -1.977059,0.3748 -2.523998,0.4362 -2.240585,1.2269 -2.583574,3.8739 -0.041,4.9064 -0.442106,2.8168 3.117529,3.834 4.78568,3.1698 2.076006,1.712 4.982097,1.7538 6.596697,0.3273 0.677227,-0.5983 1.104801,-1.2251 1.705529,-1.3969 0.600728,-0.1718 1.37461,0.1119 2.123292,0.09 3.459254,0.4598 5.804807,-0.4645 8.604684,-1.1854 1.085246,-0.2794 2.962231,0.033 4.182356,0.3672 2.167804,-0.5947 3.323278,-1.6858 4.851259,-2.9358 1.433398,-1.1726 2.98806,-2.6356 4.366313,-3.9413 1.082456,-0.8823 1.230681,-2.0534 1.268211,-3.1905 0.744432,0.454 1.25229,0.6372 2.343751,0.5906 1.950557,0.609 3.05817,1.8948 3.244256,0.9194 -0.02697,-0.6598 -3.231227,-1.5863 -4.056235,-2.1179 -0.592072,-0.5702 -1.367187,-1.5219 -1.311055,-1.6883 0.09537,-0.2827 -0.119996,-3.0327 0.07413,-3.1823 0.324168,-0.1444 0.821708,0.1 0.973426,-0.176 0.22211,-1.7521 -0.418739,-4.0456 -0.508411,-5.1167 0.04386,-0.6644 -2.578054,-2.0653 -0.422008,-2.1142 1.289396,0.1469 0.661877,-1.3465 -0.361144,-1.9609 -0.963056,-0.8009 -3.393009,-1.3548 -3.092107,-2.0695 0.112739,-0.2679 1.787813,0.3238 2.393647,-0.041 0.165182,-2.2389 -2.044235,-2.8819 -4.011383,-3.6244 -1.562957,-0.4733 -4.22457,-1.2812 -5.138129,-2.2081 -0.310723,-0.3152 -2.012536,-1.6361 -1.827006,-2.1958 0.18553,-0.5597 2.148597,1.8379 2.798819,0.9437 -1.250892,-1.2373 -2.497737,-2.727 -2.080544,-3.0629 0.299127,-1.5189 -0.497721,-1.5653 -1.208594,-2.667 0.363326,-0.7115 1.080159,-0.4293 1.832911,-0.7171 -0.112112,-0.9482 -2.097262,-2.2839 -2.981452,-3.3365 -0.86035,-1.1371 -4.540694,-2.3031 -4.394376,-2.882 0.0448,-0.1773 1.503963,0.193 2.172103,0.01 -1.220109,-1.5243 -4.188059,-2.64106 -5.169332,-3.10044 2.839407,0.54994 3.374781,0.75214 5.207977,0.20016 -1.157176,-0.56301 -2.369614,-2.65007 -3.685215,-3.22902 -1.110681,-0.0976 -0.652535,-0.45542 0.875805,-1.60894 -1.132324,-0.82811 -3.574231,-0.8497 -5.024078,-1.8452 -4.256104,-2.4412 -3.188951,-8.32563 -6.144813,-11.82842 -1.228882,-2.28264 -2.794886,-4.30474 -4.961162,-5.74519 -2.872367,-2.25299 -5.614254,-4.71902 -8.563796,-6.84625 -0.104168,-0.0311 -0.217516,-0.0428 -0.322398,-0.0448 z m -0.105692,2.39243 9.843526,7.99636 c 2.471957,3.26116 4.409512,6.93117 5.169582,10.96904 0.245137,2.65825 5.974811,5.06032 6.285503,5.85723 -1.326116,0.552 -1.522426,0.59334 -0.565619,1.0602 0.957605,0.0951 4.390592,1.40957 4.470954,2.01535 -4.937883,-0.77251 -5.331471,-0.0985 -4.911551,1.14573 0.576104,1.3022 4.596028,1.6388 3.275594,3.1736 1.100472,1.2081 1.617439,1.5126 3.527044,2.3949 4.039262,2.0234 4.55534,3.3955 2.112683,2.0669 -0.401162,-0.2183 -1.141356,-0.3054 -1.455384,0.06 0.527759,0.5943 1.408412,1.2838 2.093527,2.3172 0.542027,0.8176 0.961664,1.9522 0.98733,2.7144 -1.026166,-0.5419 -1.200002,-0.5748 -1.630565,-0.1855 0.713727,1.4474 1.384226,4.5236 4.213182,6.4339 1.335529,0.9018 4.180775,0.8444 5.3251,1.1421 1.934801,0.5033 2.684504,0.8946 2.477713,1.3049 -0.254163,0.5043 -3.09541,-0.3315 -4.102211,-0.3697 -0.469532,-0.019 -0.579775,0.2896 -0.174757,0.8988 1.563875,2.5916 4.864154,2.0192 5.68782,3.8628 -1.022824,-0.8213 -1.846024,-0.8304 -1.766704,-0.3173 0.242622,1.5694 3.38678,5.334 2.387514,7.4307 -1.76467,0.256 -0.788864,1.1957 -0.78273,1.9501 0.0095,1.1583 0.0884,2.3434 -0.06158,3.0238 -1.065834,4.8355 -2.54801,5.2951 -5.992869,7.4264 -2.388197,2.6443 -6.037321,2.1642 -8.948236,1.8234 -4.276017,1.8869 -6.971813,0.9749 -10.76031,1.6122 -1.835244,1.9963 -5.6804,3.306 -6.882866,0.7322 -0.07901,-0.03 0.348645,-1.2993 0.539112,-1.655 0.451253,-0.8425 1.596914,-1.3878 1.20826,-1.852 -0.23006,-0.2747 -1.475445,0.6251 -2.126087,1.2188 -0.474854,0.5085 -1.03881,1.8063 -0.808751,1.9501 -0.693627,0.5048 -1.197043,0.4159 -1.620915,0.1684 -0.423871,-0.2473 -1.078781,-0.8081 -0.716602,-1.4026 -0.712868,-0.8002 1.166616,-1.8097 0.886637,-2.3949 -0.325397,-0.4473 -1.967906,1.0893 -1.811946,1.6074 -1.099874,-2.4525 0.312982,-3.6099 3.023041,-2.6881 0.913206,-0.4374 1.406403,-1.0647 3.643521,-1.2741 0.09621,-0.3523 0.800762,-0.6196 2.453392,-0.8032 0.24846,-0.027 2.187024,0.8695 2.760936,1.1082 0.679667,0.2826 3.881383,0.2124 4.233444,0.1898 0.805272,-0.052 2.758567,-0.1855 2.735726,-0.9219 -0.04317,-1.3917 -1.855467,-0.5895 -2.643355,-0.4657 -0.760011,0.1193 -2.597627,0.059 -2.756256,-0.017 -0.576356,-0.2765 -3.598648,-1.0554 -3.740881,-1.0882 -0.633283,-0.1467 -2.772778,-0.4276 -2.737612,-0.4091 -0.20506,-0.6064 -1.049011,-1.6392 -2.25018,-1.7144 0.183789,-0.9934 2.558935,-1.0893 1.402563,-1.9041 -0.658956,-0.015 -1.816258,0.5858 -3.076854,0.7736 -0.168612,0.025 0.796758,-0.8453 1.208894,-1.7823 0.821669,-0.8109 0.165787,-2.7463 -0.408494,-2.4569 -0.405016,0.5819 -0.360208,1.8718 -1.058658,2.5019 -1.082773,0.9588 -1.646023,1.5881 -1.729858,1.5635 -1.276766,-0.3807 -1.165524,-1.3696 -2.179513,-0.6545 -1.830251,0.8102 -3.273412,2.5213 -4.319696,4.2626 -1.072835,1.7856 -1.724403,3.6169 -1.621447,5.6854 1.271924,2.723 -2.192752,0.8021 -3.002242,2.282 -0.340382,1.1012 -2.164269,1.8514 -2.916072,1.9592 -0.89814,0.1289 -0.857982,0.012 -1.800261,-0.2624 -0.437722,-0.1273 -0.695774,-0.3251 -0.750743,-0.9636 0.178352,-1.6662 1.36724,-2.3605 1.197273,-2.3864 -0.402901,-0.647 -1.582317,0.925 -1.870079,1.6189 -0.481875,0.9706 -0.460322,1.4753 -0.635356,1.506 -0.496477,0.078 -0.656928,0.3812 -1.080137,0.7495 -0.557142,-0.097 -1.230443,-0.064 -2.136466,-0.5654 -0.272496,-0.1509 -0.41372,-0.4771 -0.301894,-1.2246 0.0089,-0.059 -0.3336,-0.3649 -0.118557,-0.7495 0.275667,-0.4932 1.089049,-1.0931 1.157327,-1.359 0.152328,-0.5933 -0.489753,-0.2525 -0.780512,-0.2151 -0.867714,0.1119 -2.034701,1.5935 -1.924891,1.4769 -0.801322,-1.2715 0.254386,-2.069 0.389952,-2.3205 0.626792,-0.3127 1.424606,-0.6659 1.997981,-1.0022 2.198611,-1.2903 4.525876,-2.4284 5.424901,-5.5299 0.393599,-3.4231 2.293965,-6.2584 1.181768,-10.0023 -0.172901,-0.8882 -0.08247,-2.7805 -0.300894,-4.0569 -0.43646,-2.5505 -2.185279,-4.1162 -2.691344,-4.5427 -0.306269,-2.0491 -0.905956,-3.3447 -1.440359,-3.2485 -0.313256,1.3792 -0.278895,2.4771 -0.920843,3.0931 -0.770139,1.5325 -0.153133,2.9781 0.456844,4.4348 0.217643,0.7007 0.523082,3.9961 0.707894,3.6534 -0.356719,0.1655 -1.25038,-3.1392 -2.230623,-2.2724 -0.816638,0.7221 1.160289,1.5891 0.540521,1.7383 -0.364553,0.087 -1.456703,-0.9452 -1.8085,-0.549 -0.326074,0.7258 1.033731,2.5025 1.183833,3.1787 0.06621,0.2984 -0.48444,0.1486 -1.46038,0.062 -0.644033,0.8136 0.507479,1.8297 0.06253,2.8396 -0.408769,0.9278 -0.344078,2.136 -1.048196,2.3687 -0.606057,0.4395 -0.29702,-2.9808 -0.817481,-2.9434 -0.675753,-0.2731 -0.705745,2.9889 -0.849539,3.7312 -0.815769,1.2436 0.06957,4.1489 -1.921711,4.3163 -1.38366,0.087 -2.200468,0.2282 -2.38682,0.8853 -1.512826,2.5019 -4.54281,1.1948 -5.138425,0.5016 -0.867189,-1.1285 0.152556,-3.2151 -0.03976,-3.3018 -0.831355,-0.3751 -1.989671,2.8446 -1.605698,2.7465 -1.528771,0.2851 -2.9267166,0.3726 -2.4508106,-2.3056 0.125285,-0.8604 1.7306336,-1.5125 1.0137496,-1.6801 -0.8485726,-0.1985 -2.0447996,1.0926 -1.7761326,1.0777 -2.632079,-0.3565 2.6779236,-3.1303 3.6856416,-2.9065 2.899123,-0.8827 5.239061,-2.0954 6.044557,-5.2659 0.865671,-3.6911 0.333258,-7.3822 1.668883,-11.0111 0.492907,-2.4747 2.386015,-5.3825 2.913124,-7.8012 -0.776993,-0.6145 -2.434178,1.6429 -3.65028,1.6335 2.510877,-2.6492 4.237065,-4.2584 2.911985,-5.5286 -0.971716,0.4344 -1.760723,1.6221 -2.4596,0.9877 -0.576806,-0.5237 0.962172,-4.5255 0.464424,-4.9477 -0.641634,-0.048 -1.322019,1.1365 -2.603947,1.9849 1.105567,-2.8172 2.758606,-3.7439 3.11443,-5.9618 -0.757944,-0.085 -2.931536,2.3462 -3.078019,1.3642 0.191938,-0.5129 2.937082,-3.64108 2.624932,-4.49297 -1.414497,0.92976 -2.468074,0.98507 -3.789117,0.91387 0.296742,-0.41919 6.471854,-4.73024 7.273154,-8.57176 -0.393166,0.26178 -3.512491,1.083 -3.696806,0.56046 -0.237081,-0.15315 0.791897,-1.14832 1.880774,-1.85168 0.805698,-1.02613 1.447607,-1.73633 0.816834,-2.28474 -0.79167,0.36398 -1.773848,0.92006 -3.856433,1.32183 1.49354,-0.44571 4.959108,-4.82983 4.427737,-6.40921 0.117278,-1.85974 2.502255,-1.99501 3.759136,-2.9879 4.70954,-2.52119 9.419118,-5.04244 14.128632,-7.5636 z"
       id="path4178"
       inkscape:connector-curvature="0"
       sodipodi:nodetypes="ccccccccccccccsccccccccccccsscccccccccccscscscsssccccccscscccccccccccscccccccccsccccccccccccccccccccscsccssssccscssccccssccscccccssssssscccccccccsccsscccsccssssccsccscccccsscscsccccccsccscccccccsccccccccccccccc" />
    <path
       style="fill:#ffffff;fill-opacity:1;fill-rule:evenodd;stroke:#ff006d;stroke-width:0.35433069;stroke-linecap:butt;stroke-linejoin:miter;stroke-miterlimit:4;stroke-dasharray:none;stroke-opacity:1"
       d="m 38.005871,974.51684 c 3.660238,-0.29283 8.104315,2.1578 10.980715,-0.87847 0,0 4.551565,-7.34455 4.392288,-11.41994 -0.13939,-3.56634 -4.611901,-9.66302 -4.611901,-9.66302 -1.97992,-1.48735 -2.342403,-4.36105 -6.149201,-4.28249 -2.201181,-0.85173 -6.197067,0.65373 -7.027664,0.76865 -0.941332,0.19054 -0.661865,-0.93779 -4.282478,-0.98826 -2.840525,2.07292 -5.797994,4.24409 -8.015925,4.94132 -1.409975,0.59148 -1.312264,1.35609 -0.988263,2.52555 0.63352,0.61968 3.873956,0.72358 4.062868,1.64713 -0.424619,0.75181 -2.585933,2.24683 -5.34714,3.28559 -1.866353,0.70212 -4.126057,1.01686 -5.8532,1.43612 -0.216673,0.59151 -0.181566,-0.18016 0.658845,2.52555 -0.285021,0.30377 -0.294814,1.03195 -0.475539,1.30791 -1.581174,2.41443 0.344446,3.39591 1.573615,5.06091 2.53138,0.54322 1.911864,4.30398 3.184404,6.25901 0.83623,1.2847 2.583789,3.87877 5.929587,4.17268 1.187634,-0.66433 2.861973,-1.33846 3.643552,0.0596 1.235218,-0.3271 2.902697,-2.19554 4.028316,-2.63986 0.775094,-0.30595 0.592435,1.3057 1.442133,0.60375 0.766756,-0.63343 1.903325,-2.69695 2.854988,-4.72171 z"
       id="path4168-0"
       inkscape:connector-curvature="0"
       sodipodi:nodetypes="ccscccccccsccscsccsscc" />
    <g
       id="g4325"
       transform="matrix(1.2298403,0,0,1.2298403,-100.30036,-199.43655)">
      <path
         sodipodi:nodetypes="cccccccccc"
         inkscape:connector-curvature="0"
         id="path4172-3"
         d="m 97.801555,950.58494 c 1.178485,-0.13309 1.281979,0.34811 1.686143,0.65749 l 4.293152,2.14657 c 1.92791,0.36136 3.67772,0.70272 5.28798,-1.21038 1.41445,-1.12872 1.70418,-0.41382 2.29134,0.93935 -0.14485,1.10987 -1.68429,1.34557 -2.78109,1.40746 -2.07759,1.34352 -2.13573,1.53308 -3.15673,2.27284 l -1.26269,0.25254 c -0.85315,-0.80637 -1.58736,-0.66121 -2.27285,-0.12627 -2.838682,-0.80474 -3.561115,-3.55096 -4.085255,-6.3396 z"
         style="fill:#ffffff;fill-opacity:1;fill-rule:evenodd;stroke:#ff006d;stroke-width:0.28811115;stroke-linecap:butt;stroke-linejoin:round;stroke-miterlimit:4;stroke-dasharray:none;stroke-opacity:1" />
      <path
         sodipodi:nodetypes="ccccccccccccccccccccccccccccccccc"
         inkscape:connector-curvature="0"
         id="path4172"
         d="m 97.281158,950.17645 c -0.119997,0.30221 0.09599,0.38103 0.272518,0.7657 0.373682,1.939 0.649977,4.1439 2.2136,5.48985 0.614604,0.51364 1.350834,0.92783 2.143804,1.06831 0.48206,-0.0698 0.87259,-0.66917 1.40377,-0.36242 0.34856,0.16641 0.62418,0.62791 1.06853,0.45737 0.44129,-0.10298 0.90032,-0.14785 1.32927,-0.29156 1.02823,-0.75963 2.02545,-1.56523 3.11492,-2.23952 1.61509,-0.50901 2.36482,-0.61711 3.02452,-1.44025 0.29412,-0.37271 0.33928,-0.40861 0.0258,-0.9787 -0.27094,-0.72739 -0.38679,-1.35799 -1.26459,-1.42 -0.794,-0.0378 -1.56367,0.19003 -2.05436,0.75626 -0.89495,0.92655 -2.26133,1.15873 -3.49279,0.99578 -0.52228,-0.0723 -1.07382,-0.085 -1.53004,-0.37726 -1.29424,-0.64031 -2.57826,-1.30399 -3.878923,-1.92961 -0.595144,-0.18983 -1.033482,-0.34644 -1.638628,-0.49478 l -0.326762,-0.23586 c -0.318261,-0.005 -0.161347,0.29628 -0.410626,0.23669 z m 1.170507,0.7956 c 0.781639,0.24076 1.762285,1.29904 2.500755,1.64224 0.89735,0.44006 1.82969,0.70419 2.7349,1.12563 1.62288,0.33652 3.32041,0.21465 4.65113,-0.51426 0.40567,-0.20548 1.33934,-0.68412 1.38385,-0.78641 0.27795,-0.28393 0.90509,-0.62956 1.0173,0.0482 0.41021,0.44683 0.29463,1.07319 -0.32715,1.18836 -0.64079,0.25684 -1.32449,0.52565 -1.99586,0.62476 -1.12696,0.66302 -2.19156,1.14125 -3.22379,1.94139 -0.33594,0.0671 -0.67187,0.13411 -1.00781,0.20117 -0.48663,-0.37273 -1.1489,-0.75548 -1.75672,-0.419 -0.48876,0.4673 -1.24316,0.38157 -1.72407,0.0924 -1.16518,-0.7439 -1.530865,-2.41913 -1.788531,-3.72109 -0.06164,-0.26888 -0.703589,-1.0121 -0.763893,-1.28129 -0.231112,-0.37843 0.03892,-0.25573 0.299889,-0.14208 z"
         style="color:#000000;font-style:normal;font-variant:normal;font-weight:normal;font-stretch:normal;font-size:medium;line-height:normal;font-family:sans-serif;text-indent:0;text-align:start;text-decoration:none;text-decoration-line:none;text-decoration-style:solid;text-decoration-color:#000000;letter-spacing:normal;word-spacing:normal;text-transform:none;direction:ltr;block-progression:tb;writing-mode:lr-tb;baseline-shift:baseline;text-anchor:start;white-space:normal;clip-rule:nonzero;display:inline;overflow:visible;visibility:visible;opacity:1;isolation:auto;mix-blend-mode:normal;color-interpolation:sRGB;color-interpolation-filters:linearRGB;solid-color:#000000;solid-opacity:1;fill:#000000;fill-opacity:1;fill-rule:evenodd;stroke:none;stroke-width:1.16929138;stroke-linecap:butt;stroke-linejoin:round;stroke-miterlimit:4;stroke-dasharray:none;stroke-dashoffset:0;stroke-opacity:1;color-rendering:auto;image-rendering:auto;shape-rendering:auto;text-rendering:auto;enable-background:accumulate" />
    </g>
    <path
       style="color:#000000;font-style:normal;font-variant:normal;font-weight:normal;font-stretch:normal;font-size:medium;line-height:normal;font-family:sans-serif;text-indent:0;text-align:start;text-decoration:none;text-decoration-line:none;text-decoration-style:solid;text-decoration-color:#000000;letter-spacing:normal;word-spacing:normal;text-transform:none;direction:ltr;block-progression:tb;writing-mode:lr-tb;baseline-shift:baseline;text-anchor:start;white-space:normal;clip-rule:nonzero;display:inline;overflow:visible;visibility:visible;opacity:1;isolation:auto;mix-blend-mode:normal;color-interpolation:sRGB;color-interpolation-filters:linearRGB;solid-color:#000000;solid-opacity:1;fill:#000000;fill-opacity:1;fill-rule:evenodd;stroke:none;stroke-width:1px;stroke-linecap:butt;stroke-linejoin:miter;stroke-miterlimit:4;stroke-dasharray:none;stroke-dashoffset:0;stroke-opacity:1;color-rendering:auto;image-rendering:auto;shape-rendering:auto;text-rendering:auto;enable-background:accumulate"
       d="m 45.391287,1021.601 c -0.460389,1.2666 -0.726666,2.3004 -0.760006,3.9164 0.300615,1.2414 0.637953,2.4772 0.915591,3.7222 -0.05902,0.6637 -0.140256,1.3239 -0.09697,2.0047 0.01252,0.1969 -0.246186,-1.0402 -0.770935,-1.801 -0.348112,-0.5046 -0.490617,-0.6316 -0.527671,-1.0809 -0.127758,-1.549 -1.426908,-1.661 -1.2059,-0.4892 -0.110858,-0.053 0.239529,1.2188 0.827863,2.3321 0.598707,1.133 1.435542,2.1081 1.318374,2.0027 -0.52494,-0.4725 -1.052239,-0.9733 -1.492895,-0.4342 l 0.965286,3.6209 c -0.123611,0.065 -1.402691,-0.607 -1.062542,-0.1668 0.608787,0.7876 1.24928,2.6962 0.633689,2.6375 -0.199369,-0.3996 -1.29166,-2.7791 -1.491028,-3.1786 -0.587764,-0.7044 -0.691589,-0.3718 -0.556614,0.4725 0.54037,2.0178 0.952584,3.3619 2.512586,4.8698 0.537214,0.5943 0.996783,0.3345 1.378707,0.1912 l -0.421197,-2.7873 c 0.433129,0.1585 0.618652,0.069 0.855964,0.032 0.171089,-1.8009 -0.566593,-2.3901 -0.953606,-3.4469 0.574086,0.4227 0.371717,0.1856 0.945802,0.6083 0.767357,0.1533 0.171866,-1.8766 0.13746,-3.8586 -0.0059,0.065 1.130709,1.4108 1.168145,0.4642 -0.156101,-0.3507 -0.847117,-1.1097 -0.959034,-2.301 -0.422446,-0.9726 -0.797123,-1.8376 -0.721922,-3.3077 0.228603,-0.6284 -0.435671,-1.7556 0.192345,-1.9851 0.376768,-0.1377 1.15133,-0.2548 0.945049,-1.5006 -0.385126,-1.6718 -1.391415,-1.1953 -1.77654,-0.5368 z"
       id="path4258"
       inkscape:connector-curvature="0"
       sodipodi:nodetypes="ccccsscscccscccccccccccccscc" />
    <path
       style="color:#000000;font-style:normal;font-variant:normal;font-weight:normal;font-stretch:normal;font-size:medium;line-height:normal;font-family:sans-serif;text-indent:0;text-align:start;text-decoration:none;text-decoration-line:none;text-decoration-style:solid;text-decoration-color:#000000;letter-spacing:normal;word-spacing:normal;text-transform:none;direction:ltr;block-progression:tb;writing-mode:lr-tb;baseline-shift:baseline;text-anchor:start;white-space:normal;clip-rule:nonzero;display:inline;overflow:visible;visibility:visible;opacity:1;isolation:auto;mix-blend-mode:normal;color-interpolation:sRGB;color-interpolation-filters:linearRGB;solid-color:#000000;solid-opacity:1;fill:#000000;fill-opacity:1;fill-rule:evenodd;stroke:none;stroke-width:1px;stroke-linecap:butt;stroke-linejoin:round;stroke-miterlimit:4;stroke-dasharray:none;stroke-dashoffset:0;stroke-opacity:1;color-rendering:auto;image-rendering:auto;shape-rendering:auto;text-rendering:auto;enable-background:accumulate"
       d="m 24.480636,1014.8477 c -1.482927,0.9611 -2.38108,2.6151 -2.664036,4.3314 -0.0318,0.485 -0.299539,1.0214 -0.06446,1.4838 0.266819,0.4314 0.845868,0.2788 1.162663,0 1.327928,-0.8006 2.165462,-1.4329 3.207716,-2.578 -1.341853,2.512 0.403517,4.7987 1.639665,7.2899 0.696722,1.1899 2.232111,2.7991 3.572634,3.783 0.253618,0.3828 1.028322,0.6303 1.297551,0.3229 l -0.109727,-0.6106 c -0.870767,-0.9844 -2.643689,-1.8381 -3.396263,-2.9388 -1.462344,-2.0342 -2.089904,-3.4755 -2.264988,-5.9178 -0.08192,-0.997 0.388519,-2.8956 0.344306,-3.8907 -0.123797,-0.5201 -0.549775,-0.5938 -0.788955,-0.1238 -0.879538,1.1831 -1.969348,2.209 -3.218784,2.9939 0.245247,-1.2373 0.620913,-2.5477 1.705113,-3.2392 0.2733,-0.5327 0.352486,-1.5314 -0.422428,-0.8995 z"
       id="path4263"
       inkscape:connector-curvature="0"
       sodipodi:nodetypes="ccccccccccccccccc" />
    <path
       style="color:#000000;font-style:normal;font-variant:normal;font-weight:normal;font-stretch:normal;font-size:medium;line-height:normal;font-family:sans-serif;text-indent:0;text-align:start;text-decoration:none;text-decoration-line:none;text-decoration-style:solid;text-decoration-color:#000000;letter-spacing:normal;word-spacing:normal;text-transform:none;direction:ltr;block-progression:tb;writing-mode:lr-tb;baseline-shift:baseline;text-anchor:start;white-space:normal;clip-rule:nonzero;display:inline;overflow:visible;visibility:visible;opacity:1;isolation:auto;mix-blend-mode:normal;color-interpolation:sRGB;color-interpolation-filters:linearRGB;solid-color:#000000;solid-opacity:1;fill:#000000;fill-opacity:1;fill-rule:evenodd;stroke:none;stroke-width:0.99921262;stroke-linecap:butt;stroke-linejoin:miter;stroke-miterlimit:4;stroke-dasharray:none;stroke-dashoffset:0;stroke-opacity:1;color-rendering:auto;image-rendering:auto;shape-rendering:auto;text-rendering:auto;enable-background:accumulate"
       d="m 35.449752,988.07706 c 0.268662,1.79513 0.634147,5.13798 0.241885,5.34735 -0.878585,-1.50566 -2.246152,-4.53526 -2.270699,-3.76347 -0.164807,1.42367 0.210314,2.38164 -0.217284,3.95893 -0.437222,-1.80061 -0.692433,-3.09777 -1.036506,-2.83572 -0.09845,1.55031 0.226304,3.13588 -1.03035,4.58968 -0.182251,-1.03213 0.541256,-6.09261 -0.300316,-5.08676 -1.028239,2.54983 -2.496315,5.75226 -4.730466,6.99568 l 2.391338,-6.5578 c 0.04981,-1.28731 -0.238486,-1.0531 -0.598617,-0.49567 l -2.418065,3.53282 c -1.020657,-0.48458 0.179774,-3.12028 -0.83326,-3.49413 -1.362857,1.31612 -1.639933,2.59088 -3.476763,2.95905 l -0.551322,1.2714 3.577881,-2.11931 c -0.290673,0.83827 -0.34056,1.63276 0.498658,2.2656 0.671014,0.33085 1.083062,-0.0289 1.446988,-0.51693 l -1.435696,4.40761 c -0.383257,1.64781 0.544112,0.67435 1.127333,0.38918 1.343731,-1.53628 2.608762,-3.38734 4.044423,-4.5559 0.316769,1.14825 0.284131,1.46619 0.6009,1.79447 0.401139,0.98548 0.996391,0.21148 1.39753,-0.20928 l 0.529679,-1.64804 c 0.231938,0.31512 0.08588,1.15278 0.824696,1.39975 0.435625,-0.35107 0.763033,-0.29394 0.833215,-1.27456 -0.05403,-0.48201 -0.203945,-1.69331 0.07934,-2.25172 l 1.17844,2.16129 c 0.555696,0.46457 1.044274,0.42577 1.393508,-0.6581 l -0.323945,-3.34984 c 1.680977,3.04986 3.881404,2.72332 5.949833,3.25475 0.439143,-0.18236 0.980633,-0.31821 0.31914,-1.00087 -3.943008,0.52303 -5.076178,-2.12032 -7.211491,-4.50946 z"
       id="path4268"
       inkscape:connector-curvature="0"
       sodipodi:nodetypes="cccccccccccccccccccccccccccccccc" />
    <path
       style="fill:#000000;fill-opacity:1;fill-rule:evenodd;stroke:#000000;stroke-width:0.29055119;stroke-linecap:butt;stroke-linejoin:miter;stroke-miterlimit:4;stroke-dasharray:none;stroke-opacity:1"
       d="m 16.817695,965.52191 c -0.62573,-0.44631 -1.59894,-0.75687 -1.776898,-1.58164 -0.320354,-1.48472 0.07916,-2.77068 1.913349,-2.53888 l 2.808359,0.35491 c 0.838228,0.10589 1.673374,0.0328 2.525565,0.0588 1.253264,0.0382 2.527584,1.31931 0.658843,3.01579 -0.300624,0.27292 -1.077583,0.62703 -1.647108,1.31769 -1.597909,1.93781 -2.474088,0.80555 -4.48211,-0.62668 z"
       id="path4273"
       inkscape:connector-curvature="0"
       sodipodi:nodetypes="ssssssss" />
    <path
       style="color:#000000;font-style:normal;font-variant:normal;font-weight:normal;font-stretch:normal;font-size:medium;line-height:normal;font-family:sans-serif;text-indent:0;text-align:start;text-decoration:none;text-decoration-line:none;text-decoration-style:solid;text-decoration-color:#000000;letter-spacing:normal;word-spacing:normal;text-transform:none;direction:ltr;block-progression:tb;writing-mode:lr-tb;baseline-shift:baseline;text-anchor:start;white-space:normal;clip-rule:nonzero;display:inline;overflow:visible;visibility:visible;opacity:1;isolation:auto;mix-blend-mode:normal;color-interpolation:sRGB;color-interpolation-filters:linearRGB;solid-color:#000000;solid-opacity:1;fill:#000000;fill-opacity:1;fill-rule:evenodd;stroke:none;stroke-width:1.77165353;stroke-linecap:butt;stroke-linejoin:miter;stroke-miterlimit:4;stroke-dasharray:none;stroke-dashoffset:0;stroke-opacity:1;color-rendering:auto;image-rendering:auto;shape-rendering:auto;text-rendering:auto;enable-background:accumulate"
       d="m 30.540962,947.09737 c -2.663702,1.78323 -4.856584,4.15725 -7.877478,5.36069 -1.680247,0.79903 -1.783719,1.94305 -1.166334,3.46865 1.070708,0.57995 1.645706,0.37753 2.311078,0.26449 0.647886,-0.21143 2.020566,0.418 1.962587,0.95484 -0.03654,0.33829 -1.082794,1.36406 -1.728673,1.60848 -2.656361,1.59228 -5.639574,1.77341 -8.691627,2.40777 -0.989329,1.02619 -1.658164,1.89555 -0.180287,3.98836 -1.397427,1.37255 -1.775662,3.30773 -0.550881,4.7287 0.881177,0.85414 1.374611,2.28049 2.696627,2.45554 1.426073,1.30392 1.192262,3.54233 2.336572,5.05552 1.07414,2.22149 3.140653,3.94766 5.628066,4.27254 1.177425,0.26993 2.037262,-0.94778 3.203835,-1.0878 0.405672,0.37077 0.531403,1.37583 0.482966,1.94438 0.769575,0.0852 1.46308,-0.81192 1.899787,-1.52847 1.111933,-0.28673 1.914452,-1.18526 2.960095,-1.57329 0.82141,-0.36641 0.2478,1.99994 0.154012,2.03305 1.678086,-0.11167 2.015561,-2.22274 2.26753,-2.44212 1.679946,-0.77246 1.854495,-4.9689 3.996988,-4.1101 2.975714,0.37777 6.6193,2.40484 9.158654,0.26368 1.218321,-1.0597 1.705859,-2.70478 2.523136,-4.05749 1.566367,-3.29562 3.474325,-7.02329 2.286203,-10.74561 -1.017914,-3.02344 -2.739982,-5.79086 -4.620097,-8.33821 -1.538766,-1.37103 -2.462767,-3.56116 -4.616192,-4.15135 -1.854519,-0.38903 -3.057394,-0.64446 -4.964817,-0.26747 -1.414833,-0.0954 -4.41881,1.1352 -5.526975,0.36434 -1.360682,-0.82734 -2.38053,-0.87454 -3.944807,-0.86912 z m 0.648549,1.64677 c 1.966331,-0.35019 3.394579,2.17565 5.304445,1.5442 1.988912,-0.52699 4.074526,-1.83933 6.114793,-1.22367 2.080658,-0.33594 3.404457,2.08534 4.469062,3.55238 0.518811,0.70331 1.187962,0.99628 1.127218,1.14655 1.796286,2.69921 3.716604,5.53558 4.216041,8.80148 -0.236042,3.58798 -2.042691,6.84568 -3.727105,9.94479 -0.983534,2.16803 -3.734094,2.04552 -5.704817,1.67829 -1.83743,-0.30878 -3.704482,-0.63401 -5.571169,-0.40321 -0.469257,1.60142 -0.530733,2.31197 -1.800209,3.21725 -0.148472,0.12804 -0.627836,1.94674 -0.779526,2.05334 0.01491,0.051 -0.259373,-1.38605 -1.064592,-1.0818 -0.664555,0.37471 -1.476389,1.13709 -2.238684,1.28718 -0.3341,0.0658 -1.393527,1.2724 -1.752708,1.32214 -0.472796,0.0654 -0.255239,-1.02878 -0.779206,-0.95796 -0.96044,0.12981 -2.463674,1.1542 -3.35382,0.94173 -1.906472,-0.16811 -3.542933,-1.64118 -4.215746,-3.48459 -1.300827,-1.8588 -1.000569,-4.96452 -3.37156,-5.98602 -1.096405,-0.97501 -3.691435,-2.55013 -2.742435,-4.23002 0.826954,-0.82822 1.258872,-2.26944 0.597775,-3.39824 -0.193044,-0.53096 -0.215286,-1.33873 0.457483,-1.63228 0.98078,-0.42794 2.944398,-0.19551 3.914865,-0.002 2.222041,-0.91861 4.261653,-2.20252 6.367266,-3.34961 0.849209,-1.17586 0.405002,-2.37385 -1.101502,-2.84366 -0.470777,-0.19674 -1.842594,0.21339 -2.559264,-0.0895 -0.620031,-0.26207 -0.694455,-1.22354 0.06079,-1.56818 2.786596,-1.05126 5.780477,-3.50794 8.132604,-5.2385 z"
       id="path4168"
       inkscape:connector-curvature="0"
       sodipodi:nodetypes="ccccscccccccccccccccccccccccccccccccccccccccccccsccsccc" />
    <path
       style="fill:#000000;fill-opacity:1;fill-rule:evenodd;stroke:#000000;stroke-width:0.29055119;stroke-linecap:butt;stroke-linejoin:miter;stroke-miterlimit:4;stroke-dasharray:none;stroke-opacity:1"
       d="m 32.916969,958.24021 c 0.757705,-0.47442 0.979838,-1.1531 1.552908,-1.63055 1.999329,-1.66571 2.714432,-0.61778 3.494043,0.0389 1.566542,1.31946 1.313649,1.9588 0.970567,2.63994 -0.519728,1.03186 -1.176467,1.2662 -1.750328,1.477 -1.126751,0.41393 -2.155682,-0.0387 -2.753104,-0.15702 -0.369021,-0.073 -0.823331,-0.3486 -1.358796,-0.58234 -0.837056,-0.36539 -1.132745,-1.17387 -0.15529,-1.78589 z"
       id="path4275"
       inkscape:connector-curvature="0"
       sodipodi:nodetypes="ssssssss" />
    <path
       style="fill:#000000;fill-opacity:1;fill-rule:evenodd;stroke:#000000;stroke-width:0.35433069;stroke-linecap:butt;stroke-linejoin:miter;stroke-miterlimit:4;stroke-dasharray:none;stroke-opacity:1"
       d="m 25.451973,955.80542 c -0.666368,0 -2.051184,-0.0953 -2.950524,0.23294 -1.517024,0.55367 -1.148715,2.49523 -0.155291,3.41639 1.053345,0.97671 2.994849,-0.53493 3.571687,-1.2035 0.828343,-0.96005 0.49149,-2.44583 -0.465872,-2.44583 z"
       id="path4277"
       inkscape:connector-curvature="0"
       sodipodi:nodetypes="sssss" />
    <g
       id="g4295"
       transform="matrix(1.2298403,0,0,1.2298403,-30.603788,-225.0928)">
      <path
         sodipodi:nodetypes="cccccccscccsccccccccccccccccccccc"
         inkscape:connector-curvature="0"
         id="path4170-9"
         d="m 63.287447,958.09761 c 1.72619,1.11182 3.184523,1.47153 5.892856,1.60714 -1.12454,0.80771 -2.422736,1.84385 -1.785706,2.23214 0.99605,-0.38884 1.999325,-1.12037 3.660715,-0.17856 l -0.89286,1.51785 c 1.36345,0.25487 1.647006,0.0888 2.857146,0.80357 l -2.05358,1.875 c 1.85226,0.84664 3.33056,1.64639 4.01786,2.23214 1.18623,1.01096 1.78406,1.63863 2.24839,2.48918 0.0781,0.29202 0.89336,1.28408 -0.37339,0.90368 l -1.78572,0.0893 c 1.19727,2.18059 2.45706,3.34817 2.92028,6.23374 0.39766,2.47717 -0.04205,3.58442 -0.241706,5.28411 -1.152901,-4.04202 -2.175828,-5.0409 -2.936528,-6.62881 -0.0826,1.42986 -0.313857,1.37056 -0.545617,4.2181 0.4186,2.18461 2.093041,3.87526 2.847241,5.55645 -1.62746,-0.34783 -2.775953,-1.1226 -3.918663,-2.52074 0.52257,1.88157 1.602623,2.72547 2.946423,4.19643 -1.87285,-0.55287 -2.313314,-0.15418 -4.017854,-2.05357 l 1.071424,2.5 c -3.37086,-1.63067 -4.666496,-3.79877 -5.446427,-6.60714 -1.09571,1.32629 -0.228014,1.83132 -0.267864,2.94643 -1.49817,-1.65659 -3.188936,-2.49558 -3.303566,-5.53571 l -0.892854,2.05356 c -0.77812,-1.29813 -2.088067,-1.3208 -0.803577,-4.91071 l -2.053573,2.05357 c -0.88726,-1.22787 0.93499,-3.26859 2.32143,-5.17857 -2.19357,1.61929 -2.47947,0.8518 -4.01786,1.16071 1.79779,-1.3065 3.4423,-2.67365 4.375,-4.19642 0.59519,-1.19065 0.710623,-1.85625 1.071433,-3.75001 l -3.035713,3.03572 c 0.60151,-1.91313 0.0073,-1.66646 1.874999,-5.26786 -2.159437,-2.99054 -1.032817,-5.57915 0.267861,-6.16072 z"
         style="fill:#ffffff;fill-opacity:1;fill-rule:evenodd;stroke:none;stroke-width:0.35433072;stroke-linecap:butt;stroke-linejoin:round;stroke-miterlimit:4;stroke-dasharray:none;stroke-opacity:1" />
      <path
         sodipodi:nodetypes="ccccccccccccccccccccccccccccccccccccccccccsccccccccccccccccccccccccccccccccccccccscc"
         inkscape:connector-curvature="0"
         id="path4170"
         d="m 63.145368,957.18276 c -0.344535,0.5169 -0.472665,1.79465 0.512429,2.02974 1.064423,0.69333 2.960219,0.63504 4.233669,0.86731 -1.060492,0.60241 -1.601074,1.30505 -1.769617,2.55704 0.576225,-5e-4 2.544521,-0.27057 4.272884,-0.29844 -0.533507,0.11671 -2.241191,1.50497 -1.698021,1.57396 0.835645,0.26714 3.359369,0.0564 3.510766,0.64212 -0.436837,0.48116 -1.613339,1.21894 -1.921262,1.7939 0.73788,0.31728 1.040737,0.49778 1.465983,0.80336 1.952192,0.91722 3.958879,2.07299 5.073698,3.98189 0.158943,0.1135 -0.81034,0.22288 -1.2033,0.0882 -0.385357,-0.21806 -0.890865,-0.49463 -1.42174,-0.54565 0.293455,1.01424 1.419019,2.44707 1.845975,3.42026 1.089154,2.09419 2.392975,5.4134 1.719914,7.77383 -0.355351,-1.757 -0.763974,-3.13245 -1.646715,-4.7044 -0.416145,-0.38372 -0.680766,-1.62323 -1.789467,-1.6513 -0.404783,1.57339 -0.349404,4.08366 -0.433808,5.56329 0.293814,1.55804 1.577345,3.58334 3.017857,5.0745 -1.344095,-0.43834 -2.591473,-1.46722 -3.318856,-2.69683 -0.498027,-0.63817 -0.778667,-0.82718 -1.3661,-0.82381 0.141926,0.92336 1.682308,3.64634 1.669981,3.87712 -1.076595,-0.68088 -0.759975,-0.40439 -1.664015,-1.27927 -0.523804,-0.2727 -1.418053,-1.27113 -1.015039,-0.86425 l 0.445425,2.70947 c -1.820834,-1.39137 -2.172764,-2.32408 -2.781247,-4.46344 -0.322438,-0.50137 -0.960645,-1.91669 -1.404901,-1.84607 -0.535385,0.60566 -0.475294,3.28458 -1.260074,1.86428 -0.947396,-1.14632 -0.723723,-1.72233 -1.320539,-2.85903 -0.151078,-0.75634 -0.09742,-1.17629 -0.743499,-1.65755 -0.942582,0.99962 -0.84651,1.58377 -1.251459,2.36834 -1.02481,-1.37478 0.0097,-3.3861 0.39265,-4.84615 -0.02538,-0.60521 -0.628287,-0.2433 -0.820894,0.28895 l -2.052222,2.05302 c 0.500832,-1.2737 2.199601,-3.16103 2.85841,-4.33594 0.140307,-0.58346 -0.05906,-1.35876 -0.392263,-0.90104 -0.889112,0.50347 -2.694259,1.43888 -2.895627,1.14679 1.720714,-1.11997 3.439164,-2.20181 3.919476,-4.34906 0.365953,-1.27377 0.698115,-2.80506 0.846971,-4.11735 -0.109245,-0.56494 -0.513866,-0.11568 -0.682225,0.38938 l -1.973384,2.28138 c 0.228013,-1.12371 0.325486,-1.6937 0.62051,-2.66148 0.204269,-0.46892 0.833432,-1.10436 0.416441,-1.70583 -0.359167,0.17283 -1.587206,2.08398 -2.20935,3.97918 -0.360741,1.09891 -0.355368,2.16244 -0.361511,2.90307 0.672198,0.0391 0.909564,-0.33947 1.337285,-0.82988 0.549095,-0.75347 1.082984,-1.07223 1.626312,-1.83014 -0.157603,1.35048 -1.095454,2.97082 -2.277955,3.71248 -1.140728,0.9298 -2.474324,1.61977 -3.587338,2.57165 -0.309547,0.49469 0.54783,1.0055 1.022716,0.75909 0.771465,0.079 1.358873,0.51126 2.938468,-0.5877 -0.840431,1.07714 -2.931748,4.32942 -1.481214,6.0391 0.27661,-0.5785 0.553542,-1.34784 0.725424,-1.76155 0.331257,-0.42345 0.627096,-1.0449 1.036354,-1.29856 -0.851268,1.25479 0.297283,4.2435 1.390967,5.17276 0.0017,-0.65043 0.19518,-0.99008 0.564834,-1.33267 0.37942,0.51149 0.491798,1.37459 1.072158,2.08276 0.634884,0.90538 2.640529,2.54528 3.452104,3.29045 -0.51087,-1.12387 -0.653415,-2.79927 -0.51168,-3.45247 0.275794,0.51933 0.55883,1.51578 0.724024,2.16991 0.692804,2.24027 1.359145,2.44231 2.931278,3.47561 0.846207,0.3476 2.945149,1.78262 2.570771,1.44073 -0.231258,-0.45415 -0.58801,-1.56019 -0.822721,-2.71403 0.86752,0.48966 2.732142,1.3652 3.755107,1.37951 0.508352,-0.15674 -0.683877,-0.85559 -1.093902,-1.09065 -0.450077,-0.54165 -1.634724,-2.33607 -0.223127,-1.25661 0.507869,0.24989 2.300259,1.42914 2.70778,0.67558 0.08265,-0.72252 -1.308115,-1.8272 -1.411208,-2.54371 -0.484274,-1.64101 -1.48243,-1.93517 -1.805909,-3.89877 0.02074,-0.6547 -0.285719,-2.21503 0.13388,-2.85434 0.463,1.49141 1.640063,5.4753 2.486168,6.82609 0.206994,0.46 0.656336,-0.52778 0.686832,-1.03126 0.341258,-1.80297 0.842274,-3.53272 0.49849,-5.41015 -0.273508,-2.2122 -1.404632,-4.06298 -2.526951,-5.95844 0.804568,0.10407 1.181361,0.23179 1.896682,-0.10664 -0.749926,-3.3114 -2.994997,-5.28203 -5.429006,-5.75334 -1.077418,-0.19697 -0.06667,-0.6365 0.231706,-1.03513 0.324807,-0.3122 0.782709,-0.53287 1.825365,-0.83393 -0.870733,-1.36432 -4.074807,-1.49098 -3.845844,-1.76284 -0.01563,-0.56367 0.841592,-0.53384 2.081237,-1.19312 -0.801817,-0.74239 -4.055967,-0.50942 -4.336842,-0.67011 0.300603,-0.42281 1.135107,-0.78903 1.853246,-1.5011 -0.558356,-0.63942 -3.121181,-0.81751 -3.967475,-1.00776 -1.519009,-0.34147 -2.21445,-0.30348 -3.65392,-1.30427 z"
         style="color:#000000;font-style:normal;font-variant:normal;font-weight:normal;font-stretch:normal;font-size:medium;line-height:normal;font-family:sans-serif;text-indent:0;text-align:start;text-decoration:none;text-decoration-line:none;text-decoration-style:solid;text-decoration-color:#000000;letter-spacing:normal;word-spacing:normal;text-transform:none;direction:ltr;block-progression:tb;writing-mode:lr-tb;baseline-shift:baseline;text-anchor:start;white-space:normal;clip-rule:nonzero;display:inline;overflow:visible;visibility:visible;opacity:1;isolation:auto;mix-blend-mode:normal;color-interpolation:sRGB;color-interpolation-filters:linearRGB;solid-color:#000000;solid-opacity:1;fill:#000000;fill-opacity:1;fill-rule:evenodd;stroke:none;stroke-width:1.0629921;stroke-linecap:butt;stroke-linejoin:round;stroke-miterlimit:4;stroke-dasharray:none;stroke-dashoffset:0;stroke-opacity:1;color-rendering:auto;image-rendering:auto;shape-rendering:auto;text-rendering:auto;enable-background:accumulate" />
    </g>
    <path
       sodipodi:nodetypes="cccccccccc"
       inkscape:connector-curvature="0"
       id="path4172-3-5"
       d="m 19.494329,969.47574 c 1.449343,-0.16369 1.576619,0.42811 2.073683,0.80862 l 5.279889,2.63985 c 2.371022,0.44447 4.523009,0.86433 6.503371,-1.48847 1.739548,-1.38825 2.095869,-0.50903 2.817983,1.15519 -0.178143,1.365 -2.071408,1.65487 -3.420297,1.731 -2.555104,1.65229 -2.626607,1.88546 -3.882274,2.79518 l -1.552907,0.31066 c -1.049238,-0.99175 -1.952199,-0.8133 -2.795242,-0.15533 -3.491124,-0.98978 -4.379597,-4.36717 -5.024206,-7.7967 z"
       style="fill:url(#pattern5896);fill-opacity:1;fill-rule:evenodd;stroke:none;stroke-width:0.35433072;stroke-linecap:butt;stroke-linejoin:round;stroke-miterlimit:4;stroke-dasharray:none;stroke-opacity:1" />
    <g
       id="g4320"
       transform="matrix(1.2298403,0,0,1.2298403,-79.512421,-222.06786)">
      <path
         sodipodi:nodetypes="ccccscc"
         inkscape:connector-curvature="0"
         id="path4174-8"
         d="m 81.885539,969.77642 c -4.8352,1.34926 -3.93241,5.90887 -3.91434,8.27062 -0.0145,2.47394 1.66578,1.4192 2.71478,0.69448 l 2.17814,-0.53664 c 0.30858,0 0.60536,-1.56863 1.13643,-2.05188 1.31318,-1.19495 1.66636,-3.19537 3.47239,-4.48255 -2.1852,0.55437 -3.90455,-0.43899 -5.5874,-1.89403 z"
         style="fill:#ffffff;fill-opacity:1;fill-rule:evenodd;stroke:#ff006d;stroke-width:0.28811115;stroke-linecap:butt;stroke-linejoin:miter;stroke-miterlimit:4;stroke-dasharray:none;stroke-opacity:1" />
      <path
         sodipodi:nodetypes="ccccccc"
         inkscape:connector-curvature="0"
         id="path4176-4"
         d="m 86.789297,971.67587 c -0.410363,0.31262 -0.215078,0.25969 -1.631597,2.85097 -0.0575,0.21331 -0.901154,0.80864 1.071046,0.16325 0.402438,0.86418 1.297491,0.45705 2.041041,0.0794 l 3.217615,-2.99889 c -1.764137,0.27349 -3.270571,0.55562 -4.698105,-0.0947 z"
         style="fill:#ffffff;fill-opacity:1;fill-rule:evenodd;stroke:#ff006d;stroke-width:0.28811115;stroke-linecap:butt;stroke-linejoin:round;stroke-miterlimit:4;stroke-dasharray:none;stroke-opacity:1" />
      <path
         sodipodi:nodetypes="ccccccccccccccccccccccccccccccccccccccccccccc"
         inkscape:connector-curvature="0"
         id="path4174"
         d="m 82.122489,969.07834 c -1.562083,0.37064 -3.062313,1.27285 -3.845703,2.71289 -0.938664,1.67257 -0.856808,3.65966 -0.753906,5.51172 0.04964,0.81051 -0.08489,1.77979 0.570312,2.39258 0.622718,0.54933 1.53266,0.29833 2.16211,-0.10157 0.334055,-0.17812 0.601977,-0.48641 0.99414,-0.52734 l 1.847656,-0.45508 c -0.232651,0.0899 0.633628,-0.21105 0.623047,-0.51172 0.514938,-0.89227 0.860257,-1.87142 1.330079,-2.78711 0.347301,0.0383 0.724825,-0.27033 1.017578,-0.125 0.456776,0.37337 1.075699,0.4247 1.644214,0.17599 0.287418,-0.1182 0.603291,-0.0815 0.865551,-0.24435 1.116135,-1.01162 1.920403,-2.19245 3.033937,-3.20682 0.279187,-0.27683 0.2516,-0.46267 -0.140833,-0.48674 -0.314519,0.0127 -0.840351,0.0898 -1.154565,0.12273 -1.094848,0.0763 -1.65266,0.19628 -2.511551,0.0245 l -1.289082,-0.19649 c -1.583806,-0.38629 -2.085148,-0.49543 -3.149062,-1.20836 -0.591251,-0.3726 -0.716245,-0.63393 -1.243922,-1.08989 z m -0.158203,1.19531 c 0.305751,0.25415 0.626764,0.50109 0.960938,0.72852 -0.391737,0.14676 -2.885899,3.43691 -2.216797,3.64843 0.458791,0.26454 1.62292,-2.63021 3.796875,-2.97851 0.328568,0.0915 1.071956,0.4204 1.511718,0.50586 -0.452176,0.56614 -0.369696,0.95338 -0.817801,1.5226 -0.04852,0.16158 -0.386854,0.6093 -0.646485,1.1144 -0.422554,0.67679 -1.015319,1.11964 -1.303292,1.86495 -0.208531,0.30369 -0.02004,1.00741 -0.42913,1.09291 -0.682545,0.17557 -1.645367,0.63619 -2.320591,0.82813 -0.510701,0.32443 -0.981817,0.27813 -1.595982,0.35826 -0.388436,-0.27372 -0.572346,-0.89329 -0.613281,-1.32617 -0.05223,-1.7054 -0.177627,-3.82553 0.570312,-5.42188 0.535404,-1.16273 1.910735,-1.58386 3.103516,-1.9375 z m 5.568359,1.98633 c 0.808863,0.24474 2.476458,-0.0291 3.312778,-0.11434 l -2.618516,2.35616 c -0.33031,0.14277 -1.000313,0.55534 -1.377576,0.4574 -0.335972,-0.10682 -0.299152,-0.46733 -0.688781,-0.45275 -0.15342,-0.12904 -0.395251,-0.22107 -0.626378,-0.23316 0.03099,-0.23435 0.279031,-0.43955 0.326595,-0.57866 0.208527,-0.26165 0.25863,-0.4446 0.467164,-0.70624 0.190603,-0.23816 0.460425,-0.25504 0.461625,-0.25644 0.314295,-0.34546 0.463753,-0.49194 0.743079,-0.47196 z"
         style="color:#000000;font-style:normal;font-variant:normal;font-weight:normal;font-stretch:normal;font-size:medium;line-height:normal;font-family:sans-serif;text-indent:0;text-align:start;text-decoration:none;text-decoration-line:none;text-decoration-style:solid;text-decoration-color:#000000;letter-spacing:normal;word-spacing:normal;text-transform:none;direction:ltr;block-progression:tb;writing-mode:lr-tb;baseline-shift:baseline;text-anchor:start;white-space:normal;clip-rule:nonzero;display:inline;overflow:visible;visibility:visible;opacity:1;isolation:auto;mix-blend-mode:normal;color-interpolation:sRGB;color-interpolation-filters:linearRGB;solid-color:#000000;solid-opacity:1;fill:#000000;fill-opacity:1;fill-rule:evenodd;stroke:none;stroke-width:1.0629921;stroke-linecap:butt;stroke-linejoin:miter;stroke-miterlimit:4;stroke-dasharray:none;stroke-dashoffset:0;stroke-opacity:1;color-rendering:auto;image-rendering:auto;shape-rendering:auto;text-rendering:auto;enable-background:accumulate" />
    </g>
    <path
       style="color:#000000;display:inline;overflow:visible;visibility:visible;opacity:1;fill:#ffffff;fill-opacity:1;fill-rule:evenodd;stroke:#000000;stroke-width:0.70866138;stroke-linecap:round;stroke-linejoin:round;stroke-miterlimit:4;stroke-dasharray:none;stroke-dashoffset:0;stroke-opacity:1;marker:none;enable-background:accumulate"
       d="m 37.609365,958.40416 a 1.8232716,1.9216255 0 0 1 -1.823271,1.92162 1.8232716,1.9216255 0 0 1 -1.823272,-1.92162 1.8232716,1.9216255 0 0 1 1.823272,-1.92163 1.8232716,1.9216255 0 0 1 1.823271,1.92163 z"
       id="path4344"
       inkscape:connector-curvature="0" />
    <path
       inkscape:connector-curvature="0"
       style="color:#000000;display:inline;overflow:visible;visibility:visible;opacity:1;fill:#ffffff;fill-opacity:1;fill-rule:evenodd;stroke:#000000;stroke-width:0.70866138;stroke-linecap:round;stroke-linejoin:round;stroke-miterlimit:4;stroke-dasharray:none;stroke-dashoffset:0;stroke-opacity:1;marker:none;enable-background:accumulate"
       d="m 23.739379,957.67843 a 0.90594509,1.2508305 0 0 1 -0.905945,1.25082 0.90594509,1.2508305 0 0 1 -0.905946,-1.25082 0.90594509,1.2508305 0 0 1 0.905946,-1.25083 0.90594509,1.2508305 0 0 1 0.905945,1.25083 z"
       id="path4344-2" />
    <path
       style="fill:url(#pattern6080);fill-opacity:1;fill-rule:evenodd;stroke:none;stroke-width:0.35433072;stroke-linecap:butt;stroke-linejoin:round;stroke-miterlimit:4;stroke-dasharray:none;stroke-opacity:1"
       d="m 27.456601,972.82907 c -0.504677,0.38448 -0.264502,0.31938 -2.006595,3.50624 -0.07072,0.26234 -1.108283,0.9945 1.317208,0.20077 0.494937,1.06281 1.595705,0.5621 2.510153,0.0977 l 3.801867,-3.68815 c -2.16961,0.33634 -3.866987,0.68332 -5.622633,-0.11647 z"
       id="path4176-4-6"
       inkscape:connector-curvature="0"
       sodipodi:nodetypes="ccccccc" />
    <path
       style="fill:url(#pattern6341);fill-opacity:1;fill-rule:evenodd;stroke:none;stroke-width:0.29055119;stroke-linecap:butt;stroke-linejoin:miter;stroke-miterlimit:4;stroke-dasharray:none;stroke-opacity:1"
       d="m 22.03605,1013.2838 -3.846206,8.0125 -2.484653,12.2679 c -2.043072,1.6511 -4.551327,2.9534 -7.7645376,3.727 0,0 -1.242327,2.0188 -1.242327,2.7952 0,0.7765 2.57562,2.8673 2.57562,2.8673 1.1228686,0.5376 2.1670306,1.0276 2.7042666,0.3938 l 2.950525,2.0188 c 1.607176,0.2839 3.184657,0.2707 4.503433,-2.3294 1.844404,-0.2412 3.673229,-0.5525 4.658723,-4.6586 l 2.639944,-3.7271 0.621163,-2.4846 -0.776454,-2.64 c 0.656426,-0.6277 1.876981,0.2959 3.105815,1.2424 l -0.465872,-4.0376 c 1.089155,0.731 2.446197,2.2658 3.261108,2.174 -0.856906,-2.5299 -1.010402,-4.5323 -2.914463,-7.8476 l -1.278389,3.4995 c -0.370964,0.3193 -1.231809,-1.8108 -1.86349,-2.7952 -0.251872,-1.9878 0.07502,-3.3968 0.229035,-4.9787 -1.114777,1.5972 -2.865185,2.3539 -4.111305,3.4258 -0.04846,-0.7959 0.07557,-1.7069 0.465872,-2.7953 l 1.552909,-2.174 c -1.018522,0.063 -1.785574,-0.4607 -2.520717,-1.9561 z"
       id="path6082"
       inkscape:connector-curvature="0"
       sodipodi:nodetypes="ccccsccccccccccccccccccc" />
    <path
       inkscape:connector-curvature="0"
       style="color:#000000;display:inline;overflow:visible;visibility:visible;opacity:1;fill:#000000;fill-opacity:1;fill-rule:evenodd;stroke:none;stroke-width:0.70866144;stroke-linecap:round;stroke-linejoin:round;stroke-miterlimit:4;stroke-dasharray:none;stroke-dashoffset:0;stroke-opacity:1;marker:none;enable-background:accumulate"
       d="m 36.554749,958.34785 a 0.78010339,0.822185 0 0 1 -0.780102,0.82219 0.78010339,0.822185 0 0 1 -0.780104,-0.82219 0.78010339,0.822185 0 0 1 0.780104,-0.82218 0.78010339,0.822185 0 0 1 0.780102,0.82218 z"
       id="path4344-7" />
    <path
       inkscape:connector-curvature="0"
       style="color:#000000;display:inline;overflow:visible;visibility:visible;opacity:1;fill:#000000;fill-opacity:1;fill-rule:evenodd;stroke:none;stroke-width:0.70866144;stroke-linecap:round;stroke-linejoin:round;stroke-miterlimit:4;stroke-dasharray:none;stroke-dashoffset:0;stroke-opacity:1;marker:none;enable-background:accumulate"
       d="m 22.883757,957.69038 a 0.78010339,0.822185 0 0 1 -0.780102,0.82218 0.78010339,0.822185 0 0 1 -0.780104,-0.82218 0.78010339,0.822185 0 0 1 0.780104,-0.82219 0.78010339,0.822185 0 0 1 0.780102,0.82219 z"
       id="path4344-7-6" />
  </g>
</svg>
