<svg xmlns="http://www.w3.org/2000/svg" viewBox="161 61 878 678" width="878" height="678">
<g fill="none" stroke="#000" stroke-width="9" stroke-linecap="round" stroke-linejoin="round">
<circle cx="200" cy="100" r="15" fill="#000" stroke="none"/>
<circle cx="400" cy="100" r="15" fill="#000" stroke="none"/>
<circle cx="600" cy="100" r="15" fill="#000" stroke="none"/>
<circle cx="800" cy="100" r="15" fill="#000" stroke="none"/>
<circle cx="1000" cy="100" r="15" fill="#000" stroke="none"/>
<circle cx="200" cy="300" r="15" fill="#000" stroke="none"/>
<circle cx="400" cy="300" r="15" fill="#000" stroke="none"/>
<circle cx="600" cy="300" r="15" fill="#000" stroke="none"/>
<circle cx="800" cy="300" r="15" fill="#000" stroke="none"/>
<circle cx="1000" cy="300" r="15" fill="#000" stroke="none"/>
<circle cx="200" cy="500" r="15" fill="#000" stroke="none"/>
<circle cx="400" cy="500" r="15" fill="#000" stroke="none"/>
<circle cx="600" cy="500" r="15" fill="#000" stroke="none"/>
<circle cx="800" cy="500" r="15" fill="#000" stroke="none"/>
<circle cx="1000" cy="500" r="15" fill="#000" stroke="none"/>
<circle cx="200" cy="700" r="15" fill="#000" stroke="none"/>
<circle cx="400" cy="700" r="15" fill="#000" stroke="none"/>
<circle cx="600" cy="700" r="15" fill="#000" stroke="none"/>
<circle cx="800" cy="700" r="15" fill="#000" stroke="none"/>
<circle cx="1000" cy="700" r="15" fill="#000" stroke="none"/>
</g>
</svg>
