<?xml version="1.0" encoding="UTF-8"?>
<!DOCTYPE svg  PUBLIC '-//W3C//DTD SVG 1.1//EN'  'http://www.w3.org/Graphics/SVG/1.1/DTD/svg11.dtd'>
<svg enable-background="new 0 0 648 504" version="1.1" viewBox="0 0 648 504" xml:space="preserve" xmlns="http://www.w3.org/2000/svg">
<g clip-rule="evenodd" fill-rule="evenodd">
	<path d="m496.51 162.46c3.905-1.067 7.814-2.121 11.711-3.216 0.707-0.198 1.555-0.165 2.017-0.925 0.419-8e-3 0.855 0.057 1.246-0.047 1.087-0.29 2.156-0.642 3.228-0.985 0.313-0.1 0.608-0.25 0.956-0.397-1.05-0.948-1.332-1.026-2.319-0.459-1.05 0.602-2.061 1.272-3.089 1.912-1.906 0.352-3.763 1.039-5.751 0.841-0.301-0.03-0.611 3e-3 -0.907-0.052-0.89-0.166-1.508-0.919-1.452-1.729 0.054-0.79 0.647-1.426 1.521-1.516 0.859-0.088 1.732-0.049 2.592-0.144 2.281-0.252 4.501-0.769 6.646-1.606 1-0.391 2.026-0.717 3.048-1.052 1.689-0.554 3.531 0.74 3.615 2.58 0.168-0.011 0.343 9e-3 0.499-0.037 0.622-0.181 1.238-0.383 1.648-0.511 0.45-0.67 0.687-1.342 1.159-1.65 0.702-0.458 1.148 0.273 1.674 0.838 1.291-0.41 2.622-0.772 3.91-1.252 4.42-1.647 8.826-3.335 13.236-5.012 0.198-0.075 0.383-0.185 0.709-0.346-1.171-1.137-2.238-2.246-3.382-3.27-2.989-2.674-6.329-4.848-9.913-6.625-2.714-1.346-5.501-2.546-8.241-3.839-4.361-2.058-8.958-3.464-13.528-4.945-11.281-3.655-22.6-7.201-33.835-10.994-8.329-2.811-16.83-5.035-25.186-7.742-0.877-0.284-1.534-0.212-2.249 0.397-0.986 0.841-2.074 1.564-3.112 2.347-0.299 0.226-0.575 0.481-0.825 0.691 2.08 1.403 4.096 2.736 6.078 4.114 0.853 0.592 1.64 1.276 2.453 1.923 0.609 0.485 1.175 1.039 1.827 1.458 3.461 2.223 6.898 4.494 10.717 6.083 6.073 2.528 12.156 5.032 18.227 7.566 0.954 0.398 1.865 0.902 2.731 1.529-0.39-0.145-0.785-0.278-1.17-0.436-3.084-1.264-6.119-2.665-9.261-3.765-3.67-1.285-7.424-2.331-11.155-3.436-1.92-0.568-3.76-1.295-5.503-2.281-1.244-0.703-2.536-1.325-3.754-2.069-1.217-0.744-2.393-1.561-3.542-2.406-2.302-1.692-4.549-3.459-6.871-5.122-0.764-0.546-1.694-0.859-2.543-1.289-0.552-0.28-0.894 0.081-1.259 0.386-3.06 2.556-6.134 5.094-9.175 7.672-3.801 3.223-7.574 6.472-11.76 9.21-1.035 0.677-1.848 1.692-2.772 2.541-0.367 0.336-0.765 0.942-1.296 0.481-0.545-0.474-0.032-0.925 0.331-1.299 0.305-0.315 0.588-0.585 0.377-1.124-0.222-0.567 0.163-1.035 0.581-1.337 0.659-0.477 1.397-0.843 2.088-1.279 0.429-0.271 0.884-0.534 1.233-0.893 0.694-0.712 1.326-1.486 1.979-2.239 0.141-0.162 0.315-0.326 0.379-0.52 0.504-1.542 1.717-2.512 2.938-3.375 2.099-1.482 3.931-3.252 5.815-4.971 0.188-0.171 0.359-0.377 0.48-0.599 0.467-0.848 0.911-1.709 1.433-2.696 0.332 0.372 0.542 0.607 0.807 0.903 0.485-0.435 0.959-0.86 1.407-1.261-0.19-0.722-0.721-0.922-1.225-1.177-1.39-0.702-2.872-1.283-4.119-2.186-1.271-0.921-2.586-1.728-3.971-2.439-0.843-0.433-1.72-0.798-2.574-1.208-0.309-0.148-0.646-0.291-0.881-0.526-0.883-0.886-1.958-1.019-3.124-0.928-1.035 0.081-2.072 0.154-3.11 0.174-4.506 0.084-9.013 0.117-13.519 0.23-3.045 0.077-6.063-0.182-9.063-0.625-2.992-0.442-5.969-0.993-8.942-1.549-1.739-0.325-3.464-0.732-5.186-1.144-0.602-0.144-1.047-0.076-1.521 0.372-3.658 3.447-7.341 6.868-11.016 10.297-0.063 0.059-0.121 0.125-0.184 0.184-0.869 0.812-1.071 0.764-1.635-0.397-0.537-0.086-1.078-0.173-1.687-0.271-0.74 0.857-1.508 1.67-1.516 2.997-7e-3 1.031-0.923 1.367-1.805 1.585-0.578 1.818-1.852 3.015-3.416 3.937-1.566 0.923-3.124 1.867-4.743 2.689-1.188 0.604-2.458 1.052-3.71 1.52-0.97 0.362-1.968 0.651-2.955 0.964-0.268 0.084-0.543 0.138-0.958-0.014 0.179-0.171 0.327-0.416 0.54-0.502 4.029-1.646 7.612-4.107 11.374-6.236 1.107-0.626 2.032-1.576 3.126-2.445-0.297-0.368-0.482-0.586-0.655-0.813-0.481-0.634-0.652-1.361-0.327-2.081 0.46-1.017 0.87-2.117 1.575-2.951 2.152-2.545 4.435-4.979 6.667-7.457 0.395-0.438 0.944-0.741 1.018-1.445 0.025-0.237 0.351-0.476 0.584-0.653 1.757-1.333 3.522-2.657 5.293-3.972 0.513-0.38 1.063-0.643 1.266-1.384 0.117-0.432 0.638-0.794 1.043-1.101 2.035-1.543 4.095-3.053 6.138-4.587 0.772-0.58 1.523-1.183 2.632-0.792 0.265-0.377 0.504-0.721 0.754-1.079-0.52-0.677-1.21-0.566-1.824-0.583-3.217-0.089-6.401 0.12-9.52 1.014-2.661 0.763-5.342 1.459-8.012 2.192-4.562 1.251-9.203 1.727-13.895 1.112-1.726-0.227-2.677 0.349-3.37 1.827-0.306 0.652-0.784 1.251-1.286 1.776-0.927 0.967-1.94 1.851-2.892 2.795-0.264 0.261-0.536 0.583-0.635 0.926-0.645 2.241-2.223 3.885-3.584 5.663-0.241 0.316-0.694 0.543-1.093 0.65-0.848 0.227-1.415 0.769-1.983 1.386-0.46 0.5-0.986 0.979-1.571 1.313-1.135 0.647-1.932 1.431-2.368 2.753-0.307 0.929-1.025 1.868-1.817 2.46-1.757 1.315-3.029 3.095-4.666 4.503-1.176 1.013-2.431 1.946-3.726 2.801-0.507 0.335-1.221 0.501-1.838 0.493-0.799-0.011-1.189 0.317-1.457 0.993-0.174 0.441-0.417 0.856-0.626 1.284-0.676 1.376-1.528 2.635-2.706 3.619-0.587 0.491-0.703 0.979-0.556 1.695 0.34 1.653 0.655 3.315 0.88 4.987 0.409 3.03 0.427 6.045-0.646 8.977-0.088 0.24-0.132 0.501-0.162 0.757-0.137 1.167-0.139 1.14-1.304 1.419-0.295 0.071-0.569 0.346-0.791 0.584-0.765 0.824-1.468 1.708-2.264 2.5-0.362 0.36-0.885 0.56-1.539 0.954 0.165-1.373 0.793-2.201 1.366-3.042 0.634-0.931 1.298-1.841 1.982-2.736 0.375-0.492 0.434-0.971 0.289-1.572-0.213-0.881-0.429-1.79-0.435-2.688-0.02-3.097-0.564-6.119-1.145-9.139-0.587-3.057-1.21-6.107-1.779-9.168-0.143-0.767-0.482-1.186-1.25-1.433-3.087-0.994-6.149-2.067-9.227-3.09-2.609-0.867-5.324-1.208-8.045-1.357-4.498-0.246-9.004-0.319-13.503-0.551-4.549-0.235-9.056-0.877-13.45-2.077-4.813-1.314-9.264-3.406-12.987-6.823-1.591-1.46-3.253-2.546-5.549-2.725-2.161-0.169-4.317-0.49-6.473-0.267-3.139 0.323-6.281 0.707-9.386 1.263-1.731 0.31-3.399 0.996-5.082 1.555-3.49 1.158-6.972 2.343-10.455 3.522-0.396 0.134-0.78 0.3-1.169 0.451 6e-3 0.088 0.012 0.177 0.018 0.265 1.646 0.276 3.285 0.597 4.938 0.814 1.644 0.216 3.302 0.329 4.957 0.729-0.095 0.052-0.199 0.162-0.283 0.147-2.906-0.483-5.774-0.143-8.652 0.311-1.664 0.262-3.355 0.418-5.039 0.475-2.648 0.089-5.271 0.306-7.856 0.909-0.376 0.088-0.768 0.122-1.155 0.154-2.414 0.203-4.839 0.312-7.24 0.614-4.079 0.514-8.149 1.103-12.211 1.741-5.818 0.914-11.592 2.064-17.207 3.874-5.654 1.822-11.069 4.245-16.426 6.797-0.078 0.037-0.188 0.057-0.228 0.12-0.859 1.372-2.51 1.596-3.673 2.54-1.801 1.46-3.933 2.348-6.039 3.264-0.635 0.276-1.267 0.569-1.925 0.781-3.247 1.046-5.969 2.912-8.414 5.25-1.566 1.498-1.937 3.216-0.932 5.156 0.416 0.803 0.968 1.534 1.449 2.303 0.127 0.204 0.222 0.429 0.41 0.799-0.35-0.035-0.6 0.019-0.714-0.083-1.268-1.124-2.55-2.244-2.865-4.05-0.042-0.247-0.151-0.502-0.295-0.708-0.906-1.295-0.6-2.54 0.155-3.75 0.227-0.363 0.531-0.686 0.838-0.989 2.327-2.299 4.823-4.358 7.924-5.555 0.277-0.106 0.537-0.257 0.749-0.569-0.924 0.252-1.85 0.5-2.772 0.759-1.583 0.443-3.149 0.956-4.75 1.32-1.087 0.248-2.229 0.249-3.333 0.437-1.359 0.231-2.75 0.406-4.047 0.843-8.534 2.873-17.176 5.385-25.852 7.778-5.423 1.496-10.889 2.842-16.491 3.5-2.008 0.236-3.976 0.738-6.034 0.682-1.519-0.041-2.965 0.533-4.373 1.125-3.958 1.665-7.468 4.03-10.639 6.895-3.215 2.905-6.374 5.872-9.54 8.831-0.422 0.394-0.74 0.898-1.222 1.494 0.482 0.063 0.726 0.117 0.97 0.121 1.114 0.018 1.853 0.574 2.378 1.529 0.197 0.358 0.495 0.705 0.832 0.932 1.676 1.132 3.151 2.43 3.953 4.352 0.064 0.153 0.196 0.277 0.383 0.533 0.335-0.411 0.625-0.77 0.918-1.127 0.604-0.736 1.158-1.522 1.828-2.194 0.906-0.909 1.92-0.958 2.907-0.158 0.525 0.425 0.952 0.98 1.384 1.509 0.328 0.401 0.556 0.885 0.894 1.276 1.42 1.642 1.497 3.518 1.026 5.506-0.149 0.632-0.271 1.271-0.393 1.909-0.11 0.574 0.208 0.785 0.845 0.829 0.187-0.436 0.396-0.898 0.585-1.369 0.758-1.895 1.586-3.755 2.832-5.389 0.391-0.513 0.813-1.034 1.319-1.421 1.375-1.05 3.043-0.638 3.803 0.909 0.632 1.288 0.58 2.69 0.588 4.074 3e-3 0.563-0.072 1.126-0.055 1.688 0.029 0.936-0.172 1.801-0.623 2.62-0.155 0.282-0.255 0.594-0.211 1.014 0.2-0.18 0.429-0.336 0.596-0.542 2.412-2.973 5.108-5.663 8.084-8.067 0.53-0.428 1.126-0.841 1.761-1.059 1.008-0.347 1.685 0.073 1.688 1.135 3e-3 1.104-0.208 2.226-0.467 3.307-0.206 0.862-0.624 1.673-0.762 2.654 0.249-0.187 0.516-0.354 0.743-0.564 1.047-0.974 2.051-1.996 3.134-2.928 0.651-0.561 1.376-1.067 2.142-1.453 0.924-0.466 1.51-0.108 1.607 0.928 0.084 0.902 0.066 1.815 0.074 2.724 4e-3 0.425-0.035 0.851-0.064 1.479 0.56-0.139 0.998-0.234 1.427-0.356 3.702-1.058 7.375-2.239 11.114-3.14 2.553-0.615 5.193-0.893 7.806-1.227 2.832-0.362 5.675-0.653 8.52-0.901 2.113-0.184 4.234-0.298 6.355-0.357 2.555-0.072 5.114-0.039 7.67-0.077 5.159-0.078 10.289-0.524 15.403-1.196 5.45-0.716 10.896-1.471 16.358-2.08 8.281-0.924 16.599-1.108 24.918-0.779 4.446 0.176 8.752 1.162 12.798 3.078 1.091 0.517 2.104 1.199 3.142 1.822 0.203 0.122 0.357 0.323 0.446 0.684-0.861-0.091-1.721-0.182-2.582-0.273-0.071 0.118-0.143 0.236-0.215 0.354 0.282 0.184 0.587 0.339 0.842 0.555 2.608 2.21 4.786 4.753 6.201 7.909 0.78 1.737 1.657 3.431 2.482 5.148 0.124 0.258 0.207 0.536 0.308 0.804-0.075 0.043-0.15 0.087-0.225 0.13-0.966-1.306-2.051-2.541-2.875-3.931-2.533-4.271-5.865-7.819-9.624-11.004-0.227-0.192-0.485-0.422-0.758-0.474-1.896-0.359-3.801-0.675-5.823-0.819 0.512 0.424 0.984 0.911 1.542 1.261 1.297 0.813 2.358 1.875 3.455 2.93 5.473 5.268 9.823 11.415 13.958 17.723 2.112 3.222 4.033 6.571 6.016 9.877 0.262 0.437 0.405 0.952 0.56 1.445 0.194 0.619 0.288 1.274 0.523 1.875 0.656 1.677 0.917 3.412 0.954 5.203 0.091 4.469 8e-3 8.923-0.789 13.339-0.883 4.891-2.926 9.313-5.443 13.546-0.354 0.595-0.745 1.176-1.028 1.805-0.871 1.939-2.296 3.44-3.768 4.915-4.509 4.523-9.435 8.554-14.556 12.355-2.616 1.941-5.41 3.581-8.376 4.938-0.976 0.447-1.939 0.981-2.792 1.627-5.181 3.923-10.332 7.887-15.487 11.843-2.283 1.752-4.735 3.193-7.442 4.192-0.484 0.179-0.958 0.408-1.4 0.674-0.46 0.276-0.825 0.418-1.424 0.209-0.795-0.277-1.554 0.255-2.437 0.448 0.251 0.659 0.479 1.164 0.637 1.689 0.289 0.963 0.104 1.429-0.732 1.984-1.301 0.865-2.794 1.13-4.298 1.345-0.554 0.079-1.119 0.086-1.748 0.131-0.527 2.217-2.268 2.715-4.22 2.869-1.136 0.09-2.063-0.243-2.484-1.424-0.194-0.545-0.504-0.878-1.224-0.701 0.127 0.628 0.251 1.208 0.36 1.791 0.14 0.749-0.11 1.323-0.69 1.838-0.542 0.48-0.974 1.082-1.469 1.616-0.957 1.03-2.013 1.889-3.512 1.948-0.508 0.021-1.016 0.058-1.625 0.093 0.036 0.592-0.021 1.082 0.107 1.518 0.453 1.544-1.329 3.654-2.662 4.007-2.799 0.741-5.489 0.694-7.916-1.154-0.275-0.209-0.549-0.437-0.859-0.581-1.019-0.476-1.615-0.176-2.065 0.871-0.599 1.391-1.282 2.746-1.893 4.132-0.145 0.329-0.23 0.728-0.201 1.082 0.077 0.939-0.239 1.531-1.15 1.678-0.63 0.102-1.343 0.167-1.925-0.029-0.84-0.283-1.584-0.24-2.392 0.02-0.523 0.168-1.086 0.212-1.706 0.326 0.301 0.967 0.88 1.338 1.757 1.329 1.298-0.013 2.6-0.065 3.895 4e-3 0.719 0.039 1.453 0.215 2.135 0.458 5.952 2.122 11.885 4.295 17.839 6.41 6.215 2.208 12.609 3.729 19.099 4.871 1.489 0.262 2.959 0.635 4.442 0.936 0.658 0.134 1.326 0.216 2.163 0.35 0-0.931 4e-3 -1.654 0-2.378-0.032-4.468 1.799-8.224 4.479-11.643 0.934-1.191 1.994-2.284 2.919-3.482 3.217-4.168 7.141-7.53 11.572-10.338 5.412-3.429 11.263-5.9 17.291-7.997 6.478-2.252 13.112-3.899 19.883-4.931 3.932-0.6 7.901-1.001 11.866-1.331 9.036-0.753 18.101-0.515 27.155-0.652 2.427-0.036 4.854-0.072 7.28-0.117 0.415-8e-3 0.829-0.063 1.399-0.107-0.178-0.548-0.299-0.948-0.438-1.343-0.805-2.287-1.679-4.553-2.392-6.867-0.352-1.144-0.47-2.372-0.572-3.573-0.045-0.531 0.134-1.122 0.351-1.626 0.343-0.8 1.045-1.04 1.922-0.892 0.497 0.085 1.03 0.117 1.523 0.033 2.353-0.396 4.582-0.015 6.684 1.055 3.916 1.992 7.531 4.448 10.918 7.239 0.357 0.294 0.632 0.704 0.893 1.095 0.621 0.928 1.211 1.877 1.992 3.097 0.263-0.726 0.502-1.168 0.578-1.637 0.311-1.917 0.563-3.843 0.865-5.762 0.033-0.208 0.245-0.389 0.375-0.581 0.198 0.185 0.527 0.343 0.574 0.561 0.271 1.269 0.476 2.551 0.7 3.829 0.037 0.21 0.063 0.421 0.11 0.745 0.329-0.11 0.586-0.21 0.852-0.285 0.535-0.15 1.069-0.386 1.611-0.408 1.084-0.043 1.959-0.581 2.974-0.936-0.451-1.773-0.938-3.43-1.287-5.114-0.755-3.644-1.443-7.302-2.149-10.956-0.243-1.256-0.157-2.428 0.965-3.291 0.034-0.025 0.072-0.056 0.089-0.093 1.15-2.476 3.339-2.226 5.367-1.81 1.403 0.287 2.72 1.073 4.029 1.729 1.735 0.868 3.062 2.146 4.079 3.857 1.972 3.318 4.298 6.399 6.766 9.371 0.219 0.263 0.395 0.562 0.619 0.885 2.125-1.611 4.056-3.072 5.982-4.54 0.169-0.13 0.441-0.312 0.433-0.455-0.055-0.899 0.577-1.274 1.296-1.616-0.112-0.411-0.186-0.739-0.291-1.057-1.049-3.163-2.29-6.275-2.799-9.587-0.196-1.274-0.216-2.59-0.174-3.882 0.042-1.299 0.825-2.024 2.128-2.199 1.568-0.21 3.042 0.043 4.282 1.076 1.763 1.469 3.511 2.958 5.222 4.487 1.159 1.037 2.242 2.157 3.419 3.298 0.102-0.191 0.246-0.39 0.316-0.611 1.383-4.379 2.634-8.795 3.452-13.317 0.198-1.094 0.149-2.234 0.189-3.354 0.014-0.398-0.052-0.825 0.469-0.923 0.563-0.107 0.751 0.315 0.894 0.74 0.055 0.161 0.055 0.34 0.076 0.512 0.762 5.941-0.132 11.651-2.416 17.163-0.447 1.08-0.885 2.168-1.414 3.207-0.326 0.639-0.331 1.18-0.086 1.846 0.939 2.561 1.82 5.143 2.716 7.719 0.097 0.275 0.149 0.565 0.246 0.939-1.474 0.35-2.889 0.313-4.301 0.14-2.444-0.3-4.731-1.105-6.779-2.456-0.936-0.617-1.625-0.53-2.425 0.136-1.166 0.97-2.352 1.917-3.568 2.822-1.35 1.005-2.742 1.951-4.122 2.928 2.362 4.858 3.968 9.971 4.786 15.3 0.279 1.817 0.128 3.711 0.068 5.565-0.074 2.294-0.214 4.588-0.417 6.874-0.079 0.889-0.333 1.782-0.646 2.623-0.317 0.852-0.154 1.412 0.508 2.038 4.574 4.325 9.436 8.289 14.585 11.912 3.909 2.75 7.925 5.309 12.408 7.018 3.396 1.295 6.852 2.437 10.264 3.691 4.498 1.654 9.167 2.523 13.893 3.185 2.356 0.329 4.706 0.724 7.043 1.172 1.104 0.212 1.952 0.155 2.738-0.823 0.948-1.18 2.133-2.136 3.527-2.819 0.562-0.276 1.014-0.773 1.699-1.022-1.491 1.992-2.981 3.985-4.578 6.119 1.255-0.243 2.242-0.754 3.15-1.355 1.423-0.943 2.935-1.451 4.644-1.392 0.387 0.014 0.778-0.051 1.165-0.097 2.108-0.245 3.303 0.264 4.009 3.046 0.094 0.368 0.144 0.748 0.229 1.211 1.5-0.533 2.169-1.732 2.848-2.91 0.099-0.171 0.107-0.421 0.09-0.629-0.081-0.979-0.187-1.955-0.288-2.987 1.387 0.334 1.814 0.956 1.497 2.237-0.29 1.172-0.714 2.31-1.079 3.463-0.051 0.162-0.105 0.322-0.214 0.654 1.111 0.171 2.162 0.344 3.216 0.492 6.729 0.948 13.458 1.872 20.007 3.79 1.276 0.374 2.641 0.621 3.963 0.612 1.224-9e-3 2.466-0.361 3.661-0.701 1.385-0.394 2.619-0.185 4.022 0.606-1.447 1.143-3.279 0.844-4.791 1.854 0.44 0.267 0.83 0.481 1.197 0.729 1.649 1.109 3.354 2.15 4.917 3.372 1.09 0.853 1.929 1.989 2.279 3.401 0.071 0.288 0.241 0.551 0.381 0.859 1.366 0.209 2.745 0.335 4.079 0.652 0.868 0.207 1.699 0.641 2.486 1.079 0.343 0.191 0.63 0.614 0.78 0.996 1.267 3.221 0.808 6.275-0.994 9.167-0.472 0.757-1.002 1.478-1.567 2.306 1.012 0.252 1.835 0.457 2.725 0.68-0.362 0.774-0.934 0.915-1.554 0.948-0.476 0.024-0.952 0.024-1.429 0.028-0.98 0.01-1.21 0.256-1.095 1.264 0.236 2.064 0.48 4.127 0.739 6.188 0.865 6.905-0.577 13.254-4.554 18.997-0.099 0.143-0.197 0.286-0.283 0.436-0.042 0.072-0.056 0.16-0.111 0.331 0.296 0.095 0.593 0.189 0.968 0.31-0.111 0.308-0.205 0.569-0.338 0.936 0.923 0.097 1.825 0.12 2.694 0.302 0.929 0.193 1.623 0.783 2.112 1.833-0.845-0.049-1.618-0.107-2.394-0.137-0.779-0.029-1.56-0.061-2.339-0.037-0.972 0.029-1.898-0.05-2.71-0.878-0.995 0.91-1.942 1.777-3.056 2.796 0.484 0.113 0.745 0.208 1.012 0.229 0.432 0.034 0.866 0.021 1.3 0.025 2.232 0.018 3.477 1.247 3.693 3.477 0.175 1.807-0.505 3.33-1.427 4.758-0.643 0.995-1.169 2.014-1.484 3.149-0.16 0.577-0.476 0.893-1.139 1.059-1.074 0.27-2.086 0.782-3.133 1.171-0.971 0.36-1.937 0.757-2.936 1.021-1.072 0.283-2.039 0.73-2.876 1.439-1.352 1.146-2.919 1.804-4.606 2.303-1.235 0.364-2.389 0.998-3.594 1.472-0.519 0.204-1.07 0.4-1.617 0.436-1.487 0.098-2.479-1.271-1.853-2.612 1.816-3.889 4.057-7.496 7.71-9.936 1.623-1.083 2.383-2.655 3.184-4.432-0.352 0.09-0.634 0.126-0.887 0.232-2.459 1.035-4.664 2.403-6.476 4.431-2.278 2.552-4.694 4.979-7.031 7.479-0.471 0.504-0.847 1.096-1.275 1.64-0.259 0.328-0.534 0.644-0.802 0.964-0.086-0.029-0.172-0.059-0.258-0.088 0.034-0.241-3e-3 -0.525 0.112-0.718 2.719-4.552 5.765-8.839 9.784-12.375 1.478-1.299 3.043-2.431 4.765-3.359 0.303-0.163 0.633-0.373 0.956-0.385 1.316-0.049 2.202-0.873 3.183-1.588 1.432-1.045 2.933-1.997 4.395-3.003 0.533-0.367 1.089-0.724 1.551-1.171 2.396-2.32 4.142-5.055 5.468-8.131 1.773-4.117 2.009-8.381 1.695-12.743-0.049-0.67-0.187-1.333-0.283-2-0.093-0.023-0.185-0.048-0.277-0.071-0.235 0.384-0.494 0.755-0.701 1.154-1.032 1.988-2.427 3.548-4.644 4.279-0.638 0.21-1.16 0.75-1.771 1.069-1.788 0.936-3.228 0.094-3.267-1.943-0.038-1.949 0.014-3.9 0.032-5.851 2e-3 -0.259-2e-3 -0.532 0.074-0.774 0.767-2.454 0.784-5.031 1.268-7.531 0.09-0.467 0.198-0.937 0.367-1.379 0.881-2.301 1.815-4.582 2.665-6.894 0.31-0.842 0.537-1.743 0.61-2.633 0.042-0.509-0.168-1.16-0.495-1.556-0.85-1.025-1.749-2.041-2.774-2.884-1.268-1.042-2.678-1.911-4.033-2.847-0.923-0.638-1.993-0.826-3.075-0.919-2.201-0.188-4.408-0.311-6.607-0.519-3.879-0.368-7.755-0.774-11.631-1.177-2.714-0.282-5.425-0.587-8.137-0.875-0.169-0.018-0.343 0.016-0.567 0.028-0.095 0.178-0.228 0.351-0.285 0.547-0.938 3.209-2.714 5.985-4.57 8.706-1.272 1.865-2.509 3.729-3.13 5.935-0.238 0.846-0.914 1.257-1.748 1.336-0.891 0.084-1.679-0.249-2.063-1.064-0.459-0.972-0.852-1.993-1.119-3.032-0.591-2.305-1.046-4.644-1.633-6.949-0.515-2.027-0.883-4.06-0.822-6.159 0.013-0.421-0.074-0.846-0.125-1.358-1.817-0.309-3.557-0.623-5.303-0.895-4.745-0.739-9.565-1.164-14.16-2.611-6.974-2.195-13.991-4.323-20.467-7.826-4.204-2.274-8.021-5.131-11.839-7.987-6.38-4.774-11.901-10.468-17.445-16.14-4.636-4.743-9.31-9.451-14.336-13.78-2.324-2.001-4.897-3.713-7.363-5.549-0.085-0.063-0.227-0.05-0.41-0.086-0.108 0.556 0.303 0.812 0.547 1.123 1.791 2.287 3.561 4.584 4.884 7.192 0.995 1.962 1.681 3.978 1.55 6.225-0.028 0.488 0.175 1.006 0.341 1.486 0.193 0.559 0.461 1.092 0.789 1.848-0.736-0.126-1.23-0.224-1.729-0.292-1.586-0.218-3.183-0.375-4.76-0.646-2.722-0.468-5.203-1.593-7.595-2.936-4.389-2.464-8.171-5.694-11.604-9.333-0.805-0.854-1.628-1.179-2.727-1.14-2.555 0.092-5.111 0.201-7.667 0.218-5.461 0.033-10.922-0.034-16.383 0.027-4.722 0.054-9.448 0.123-14.163 0.368-11.353 0.588-22.395 2.811-33.14 6.529-5.573 1.929-11.019 4.127-16.192 6.99-3.614 2.001-6.67 4.649-9.463 7.642-1.035 1.108-2.036 2.249-3.042 3.384-0.199 0.225-0.393 0.47-0.521 0.738-0.782 1.641-1.601 3.267-2.301 4.942-1.147 2.743-1.383 5.611-0.926 8.539 0.077 0.491 0.182 1.048-0.313 1.277-0.378 0.175-0.962 0.211-1.331 0.04-1.069-0.493-2.149-0.559-3.291-0.466-3.604 0.291-7.183 0.045-10.743-0.555-6.525-1.101-12.728-3.271-18.869-5.655-4.156-1.614-8.359-3.109-12.233-5.375-1.125-0.658-2.396-0.981-3.744-0.785-0.341 0.05-0.694 0.012-1.038 0.051-1.594 0.179-2.639-0.648-3.415-1.901-0.451-0.728-0.66-1.679-1.258-2.22-0.565-0.512-1.552-0.521-2.254-0.925-1.272-0.731-2.549-1.493-3.684-2.415-3.764-3.059-6.871-6.717-9.461-10.811-0.368-0.582-0.682-1.212-0.92-1.856-0.403-1.092-0.164-2.072 0.541-2.609 0.86-0.656 2.329-0.779 3.149-0.229 1.973 1.326 3.935 2.67 5.904 4.002 0.196 0.132 0.415 0.23 0.913 0.505-0.32-0.659-0.502-1.03-0.681-1.402-0.786-1.64-1.581-3.275-2.354-4.921-0.616-1.312-0.56-2.69-0.329-4.072 0.118-0.707 0.537-1.048 1.257-1.058 0.992-0.016 1.752 0.274 2.434 1.146 3.197 4.087 6.927 7.629 11.256 10.516 0.456 0.304 0.937 0.567 1.406 0.851 0.067-0.058 0.133-0.114 0.2-0.172-0.164-0.317-0.305-0.648-0.495-0.949-2.368-3.736-4.543-7.579-6.4-11.598-1.471-3.185-2.193-6.559-2.452-10.039-0.034-0.458 0.04-0.964 0.209-1.39 0.482-1.204 1.781-1.492 2.765-0.642 0.292 0.252 0.525 0.574 0.78 0.869 4.965 5.738 10.055 11.357 15.574 16.574 0.782 0.739 1.582 1.449 2.767 1.975 0-0.684 0.021-1.214-3e-3 -1.742-0.154-3.33-0.321-6.659-0.476-9.989-0.014-0.301 5e-3 -0.61 0.06-0.906 0.104-0.568 0.28-1.123 0.933-1.279 0.683-0.163 1.275-0.01 1.734 0.577 0.987 1.263 2.011 2.496 2.985 3.77 1.63 2.131 3.231 4.284 4.848 6.427 0.101 0.133 0.226 0.247 0.476 0.517 0.043-0.423 0.088-0.688 0.094-0.953 0.028-1.256 0.042-2.512 0.07-3.768 5e-3 -0.214 0.038-0.434 0.096-0.641 0.229-0.805 0.483-1.638 1.403-1.884 0.952-0.255 1.813 0.025 2.47 0.772 0.8 0.911 1.566 1.852 2.349 2.778 0.236 0.279 0.479 0.553 0.809 0.932-0.289-3.747-0.563-7.305-0.848-10.998-0.522-0.036-1.114-0.108-1.706-0.112-4.914-0.038-9.767-0.525-14.51-1.879-4.499-1.283-8.707-3.151-12.387-6.095-0.202-0.162-0.421-0.308-0.648-0.432-5.164-2.816-8.33-7.299-10.572-12.581-1.729-4.071-2.206-8.325-2.186-12.704 0.021-4.677 0.902-9.121 3.057-13.287 0.357-0.69 0.758-1.368 1.224-1.988 0.241-0.321 0.636-0.619 1.017-0.723 0.841-0.229 1.339 0.294 1.18 1.148-0.039 0.209-0.117 0.419-0.215 0.609-1.105 2.124-1.249 4.395-0.98 6.71 0.189 1.634 0.433 3.263 0.728 4.881 0.089 0.488 0.386 0.958 0.661 1.391 1.502 2.357 3.364 4.415 5.471 6.233 5.42 4.676 11.563 8.073 18.439 10.069 1.479 0.43 3.061 0.544 4.606 0.692 1.593 0.152 3.201 0.139 4.798 0.258 0.929 0.068 1.777-0.092 2.66-0.391 3.237-1.093 6.149-2.805 8.946-4.699 2.36-1.598 4.154-3.78 5.606-6.231 4.239-7.151 7.207-14.876 10.192-22.592 3.308-8.548 8.82-15.334 16.36-20.501 3.256-2.232 6.624-4.265 10.244-5.872 2.702-1.199 5.55-1.609 8.456-1.804 0.67-0.045 1.375 0.099 2.131-0.339-0.251-0.386-0.43-0.716-0.661-1.005-1.109-1.386-2.264-2.736-3.343-4.144-2.101-2.739-4.683-5.001-7.276-7.226-3.086-2.647-6.135-5.356-9.641-7.481-0.89-0.54-1.779-0.893-2.791-0.891-5.069 0.01-10.142-0.058-15.207 0.105-3.805 0.122-7.604 0.501-11.398 0.86-2.973 0.281-5.934 0.688-8.896 1.071-5.248 0.677-10.511 1.083-15.807 1.023-3.51-0.04-7.021-0.03-10.531-0.075-1.342-0.017-2.683-0.187-4.023-0.181-3.002 0.015-5.937 0.517-8.818 1.358-6.271 1.832-12.545 3.652-18.82 5.469-0.872 0.252-1.751 0.491-2.64 0.673-0.624 0.128-0.983 0.426-1.157 1.054-0.195 0.707-0.465 1.397-0.748 2.076-0.216 0.518-0.461 1.032-0.766 1.501-0.809 1.247-1.753 1.276-2.487 0.018-0.541-0.927-0.924-1.946-1.36-2.932-0.104-0.234-0.139-0.5-0.204-0.75-0.459-1.773-0.641-1.781-2.141-0.68-0.775 0.569-1.217 1.284-1.667 2.077-1.066 1.884-2.19 3.735-3.318 5.583-0.268 0.439-0.601 0.859-0.979 1.207-0.732 0.672-1.5 0.562-1.88-0.357-0.395-0.95-0.614-1.975-0.878-2.975-0.252-0.956-0.459-1.923-0.69-2.884-0.141-0.587-0.303-1.169-0.429-1.759-0.184-0.861-0.627-1.09-1.369-0.613-0.47 0.302-0.906 0.671-1.306 1.063-0.868 0.847-1.688 1.743-2.555 2.59-1.223 1.195-2.262 2.508-2.842 4.141-0.058 0.163-0.128 0.323-0.206 0.477-0.222 0.435-0.572 0.641-1.063 0.548-0.507-0.096-0.748-0.468-0.75-0.928-5e-3 -0.951-0.047-1.921 0.111-2.851 0.328-1.917 0.775-3.813 1.178-5.717 0.079-0.371 0.176-0.737 0.287-1.195-0.494-0.142-0.895-0.257-1.33-0.382-0.185 0.244-0.376 0.426-0.484 0.648-0.894 1.84-2.26 3.293-3.878 4.479-1.913 1.403-3.483 3.128-4.91 4.981-2.032 2.64-4.298 5.123-5.841 8.109-0.872 1.688-1.594 3.452-2.433 5.157-0.256 0.521-0.592 1.069-1.039 1.413-0.614 0.472-1.289 0.214-1.548-0.526-0.152-0.436-0.228-0.943-0.171-1.398 0.266-2.145 0.54-4.292 0.903-6.422 0.94-5.525 2.981-10.656 5.703-15.532 0.338-0.604 0.679-1.208 1.011-1.816 0.036-0.066 0.016-0.163 0.032-0.382-0.344 0.128-0.662 0.203-0.935 0.355-2.85 1.595-5.475 3.484-7.596 5.996-1.286 1.522-2.591 3.035-3.757 4.647-0.779 1.077-1.38 2.295-1.966 3.496-0.516 1.057-1.049 1.472-1.96 1.265-0.812-0.185-1.123-0.831-1.149-1.925-0.167-7.122 2.549-13.265 6.446-18.994 1.339-1.969 2.824-3.838 4.23-5.761 0.331-0.453 0.665-0.917 0.905-1.419 0.125-0.262 0.149-0.661 0.041-0.925-0.215-0.528-0.049-0.906 0.247-1.316 1.794-2.495 3.537-5.029 5.375-7.491 2.741-3.669 5.973-6.86 9.693-9.538 2.507-1.806 5.217-3.248 8.106-4.349 2.248-0.857 4.539-0.975 6.897-0.557 0.707 0.125 1.471 0.091 2.186-0.018 7.068-1.081 13.972-2.892 20.878-4.705 5.564-1.46 11.156-2.821 16.75-4.163 2.017-0.484 4.076-0.791 6.12-1.16 0.644-0.116 1.27-0.148 1.513-0.962 0.068-0.23 0.533-0.413 0.846-0.482 0.459-0.102 0.947-0.12 1.421-0.109 1.414 0.03 2.732-0.331 4.039-0.837 4.161-1.612 8.395-2.996 12.757-3.964 0.126-0.028 0.25-0.091 0.376-0.098 1.958-0.108 3.619-0.93 5.274-1.941 8.539-5.216 17.716-8.87 27.528-10.846 4.112-0.828 8.258-1.507 12.41-2.105 4.154-0.598 8.335-1.009 12.504-1.502 0.043-5e-3 0.086-0.011 0.129-0.013 1.08-0.06 2.263 0.138 3.209-0.249 0.943-0.385 1.648-1.354 2.458-2.067 2.608-2.299 5.455-4.264 8.402-6.104 1.278-0.798 2.478-1.748 3.614-2.742 1.587-1.388 3.39-2.392 5.262-3.31 0.608-0.298 1.28-0.511 1.455-1.349 0.056-0.265 0.452-0.511 0.745-0.665 1.686-0.885 3.347-1.835 5.093-2.586 5.248-2.257 10.523-4.449 15.804-6.627 1.243-0.512 2.404-1.096 3.529-1.862 2.107-1.436 4.324-2.724 6.558-3.959 2.041-1.128 4.165-2.106 6.253-3.148 1.104-0.552 1.551-1.632 1.84-2.676 0.362-1.311 0.874-2.326 2.082-3.111 1.22-0.792 2.224-1.918 3.38-2.95-0.415-1.462 0.263-2.65 1.038-3.828 0.303-0.46 0.459-1.014 0.741-1.491 0.415-0.701 0.825-1.417 1.336-2.046 2.34-2.88 5.31-5.087 8.092-7.493 0.357-0.31 0.718-0.615 1.055-0.903-0.351-1.438-0.375-1.516 0.733-2.535 2.848-2.616 5.82-5.051 9.5-6.467 1.775-0.684 3.501-1.496 5.249-2.25 0.159-0.069 0.338-0.111 0.471-0.213 2.504-1.932 5.464-2.933 8.336-4.119 0.919-0.379 1.807-0.835 2.723-1.224 1.99-0.844 3.975-1.7 5.991-2.478 0.589-0.227 1.288-0.341 1.913-0.276 3.189 0.331 6.283-0.342 9.416-0.706 2.223-0.258 4.5-0.203 6.742-0.081 0.893 0.049 1.748 0.67 2.634 0.997 0.338 0.125 0.761 0.302 1.062 0.202 3.203-1.057 6.407-2.114 9.569-3.287 1.117-0.415 2.118-1.141 3.169-1.732 0.188-0.105 0.347-0.264 0.536-0.366 1.085-0.587 2.018-8e-3 1.969 1.24-0.013 0.34-0.136 0.675-0.209 1.013-0.087 0.407-0.175 0.815-0.324 1.513 0.649-0.355 1.052-0.568 1.447-0.793 1.692-0.965 3.371-1.955 5.076-2.897 3.38-1.868 7.083-2.474 10.871-2.706 0.978-0.06 1.867-0.06 2.791-0.694 0.924-0.635 2.162-0.838 3.284-1.156 2.372-0.671 4.744-1.353 7.144-1.911 1.083-0.252 2.231-0.239 3.353-0.309 0.504-0.032 0.854-0.142 1.168-0.623 0.253-0.389 0.757-0.742 1.212-0.851 1.974-0.472 3.96-0.911 5.96-1.248 4.771-0.804 9.585-0.669 14.391-0.507 0.869 0.03 1.764 0.378 2.572 0.742 0.513 0.231 0.904 0.297 1.455 0.169 0.921-0.215 1.878-0.347 2.823-0.371 2.946-0.074 5.894-0.072 8.841-0.118 1.382-0.022 2.487 0.574 3.193 1.679 0.781 1.222 1.069 2.632 0.791 4.095-0.053 0.279-0.241 0.553-0.425 0.783-1.563 1.958-3.138 3.905-4.708 5.858-0.022 0.028-0.013 0.081-0.031 0.212 0.124 0.047 0.267 0.147 0.41 0.15 3.854 0.084 7.715 0.338 11.56 0.189 4.668-0.181 9.331-0.655 13.791-2.237 1.529-0.542 3.684-2.16 4.807-3.641-0.338-0.023-0.604-0.072-0.863-0.054-0.813 0.057-1.646 0.295-2.429 0.175-1.136-0.174-2.232-0.12-3.354 0.01-4.013 0.463-7.936-0.262-11.86-0.936-1.974-0.339-3.903-0.802-5.604-1.932-0.894-0.594-1.103-1.053-0.878-1.946 0.205-0.813 0.438-0.968 1.306-0.814 1.745 0.309 3.492 0.611 5.231 0.951 5.675 1.112 11.398 1.612 17.181 1.417 0.568-0.019 1.098-0.027 1.546-0.501 0.21-0.222 0.606-0.331 0.932-0.368 1.037-0.118 1.899-0.518 2.552-1.348 0.105-0.134 0.243-0.249 0.383-0.35 0.631-0.456 1.517-0.457 2.051-0.012 0.591 0.492 0.718 1.201 0.329 1.997-0.967 1.982-2.459 3.569-4.03 5.053-1.54 1.455-3.223 2.759-4.856 4.114-0.594 0.492-1.22 0.948-1.844 1.403-1.37 1-3.022 0.947-4.589 1.207-4.405 0.732-8.823 1.397-13.306 1.134-2.895-0.17-5.781-0.475-8.667-0.767-0.592-0.06-1.178-0.289-1.737-0.514-0.474-0.19-0.875-0.258-1.343 0.032-2.146 1.329-4.515 1.694-6.989 1.518-1.153-0.083-2.162 0.16-3.194 0.761-2.004 1.167-4.161 1.927-6.562 1.685-0.642-0.064-1.306 0.076-1.946 7e-3 -0.852-0.092-1.724-0.203-2.528-0.477-1.136-0.388-2.008-0.194-2.975 0.546-2.543 1.944-5.346 3.378-8.642 3.44-0.656 0.012-1.331-0.299-1.975-0.525-0.395-0.138-0.748-0.395-1.205-0.646-0.139 0.34-0.249 0.604-0.354 0.869-0.766 1.935-2.253 3.275-3.884 4.412-0.612 0.426-1.554 0.377-2.451 0.567-0.027 0.21-0.041 0.504-0.106 0.787-0.128 0.545-0.187 1.137-0.447 1.614-1.423 2.603-3.593 4.428-6.297 5.548-0.737 0.305-1.699 0.104-2.556 0.076-0.467-0.015-0.93-0.156-1.229-0.21-0.776 0.72-1.416 1.365-2.111 1.943-0.813 0.677-1.729 0.753-2.394 0.279-0.698-0.497-0.86-1.444-0.422-2.479 0.051-0.12 0.112-0.234 0.172-0.349 1.269-2.415 1-3.773-1.043-5.7-0.627-0.592-1.238-1.236-1.702-1.956-0.992-1.543-2.407-2.583-3.896-3.561-0.145-0.094-0.297-0.226-0.455-0.242-1.727-0.172-3.46-0.365-5.076 0.527-0.303 0.167-0.578 0.413-0.9 0.513-2.659 0.825-4.666 2.65-6.597 4.494-2.977 2.841-5.8 5.844-8.686 8.781-0.148 0.151-0.271 0.329-0.521 0.638 0.993-0.112 1.652-0.581 2.232-1.073 1.896-1.61 4.07-2.578 6.477-3.136 1.086-0.252 2.107-0.794 3.195-1.027 1.132-0.243 2.308-0.292 3.467-0.388 2.349-0.192 4.671 0.128 6.955 0.589 0.993 0.2 1.986 0.676 2.837 1.241 1.589 1.056 2.974 2.331 3.89 4.091 0.924 1.775 1.403 3.609 1.417 5.603 0.011 1.385 0.128 2.77 0.209 4.154 0.066 1.125-0.31 2.14-0.812 3.104-0.48 0.922-1.233 1.556-2.383 1.729 0.076 0.357 0.13 0.64 0.196 0.918 0.644 2.704 0.592 5.319-0.937 7.764-0.344 0.549-0.604 1.151-0.945 1.702-1.168 1.89-1.359 2-3.591 2.182 0.737 2.396 0.086 4.726-0.412 7.117 0.305 0.039 0.515 0.095 0.722 0.088 4.722-0.161 9.403-0.469 13.974-1.913 3.293-1.04 6.687-1.783 10.064-2.526 2.595-0.571 5.258-0.456 7.9-0.368 0.593 0.02 1.175 0.27 1.769 0.378 0.37 0.068 0.778 0.17 1.125 0.083 1.689-0.424 2.806 1.18 2.301 2.741-0.488 1.509-1.296 2.824-2.301 4.038-0.911 1.101-1.796 2.225-2.686 3.344-0.13 0.163-0.225 0.352-0.414 0.652 0.375 0.068 0.646 0.16 0.916 0.159 6.759-0.038 13.515-0.063 20.271-0.458 5.793-0.34 11.604-0.366 17.407-0.575 6.061-0.218 12.117-0.587 18.18-0.703 4.978-0.095 9.963 0.04 14.942 0.181 0.95 0.027 1.936 0.457 2.815 0.886 1.018 0.498 1.455 1.489 1.39 2.603-0.066 1.114-0.59 1.966-1.716 2.373-0.399 0.145-0.789 0.368-1.124 0.631-1.569 1.229-3.12 2.48-4.67 3.733-0.191 0.154-0.34 0.361-0.648 0.697 0.591 0.14 1.029 0.237 1.465 0.348 3.733 0.944 7.455 1.938 11.201 2.826 5.995 1.42 11.724 3.686 17.613 5.436 11.536 3.429 22.934 7.292 34.326 11.165 2.942 1 5.793 2.304 8.615 3.62 3.999 1.864 8.111 3.555 11.643 6.274 1.676 1.291 3.269 2.706 4.785 4.182 0.891 0.867 1.659 1.904 2.297 2.974 0.608 1.021 0.978 2.186 1.505 3.412 0.181 0.019 0.523 0.025 0.853 0.096 0.781 0.166 1.358 0.605 1.527 1.413 0.169 0.804-0.158 1.462-0.823 1.907-0.427 0.286-0.909 0.499-1.386 0.702-2.271 0.967-4.548 1.916-6.819 2.88-0.3 0.127-0.578 0.306-1.006 0.536 0.422 0.264 0.691 0.454 0.979 0.609 4.441 2.38 8.558 5.265 12.662 8.167 0.703 0.497 1.315 1.125 1.959 1.705 1.932 1.74 3.884 3.458 5.779 5.235 4.709 4.416 9.424 8.827 14.076 13.303 3.872 3.726 7.642 7.558 11.492 11.308 1.226 1.194 2.214 2.545 3.072 4.007 0.343 0.585 0.71 0.948 1.502 0.999 1.499 0.097 2.086 1.216 1.516 2.567-0.148 0.352-0.238 0.729-0.35 1.097-0.261 0.853-0.754 1.136-1.662 1.036-0.361-0.04-0.787-0.058-1.097 0.092-1.636 0.794-3.245 1.643-4.858 2.482-0.104 0.054-0.165 0.188-0.316 0.369 0.542 0.447 1.082 0.87 1.598 1.322 8.178 7.171 16.457 14.237 23.95 22.144 1.812 1.912 3.44 4.011 5.03 6.117 1.853 2.454 3.654 4.956 5.318 7.54 1.189 1.848 2.277 3.797 3.125 5.821 1.354 3.235 2.563 6.568 2.857 10.087 0.193 2.315 0.019 4.671-0.12 7.001-0.069 1.152-1.219 1.853-2.291 1.393-1.229-0.527-2.196-0.277-3.294 0.352-1.035 0.593-2.221 0.92-3.474 1.416 0.258 0.48 0.45 0.957 0.74 1.363 3.268 4.563 5.702 9.603 8.307 14.543 0.685 1.3 1.306 2.645 1.826 4.019 1.839 4.858 3.727 9.702 5.391 14.621 1.205 3.564 1.987 7.257 2.574 10.989 0.698 4.447 1.527 8.875 2.33 13.305 0.37 2.043 0.882 4.062 1.203 6.11 0.268 1.705 0.362 3.438 0.509 5.16 0.061 0.709-0.265 1.316-0.846 1.657-0.847 0.497-1.749 0.914-2.663 1.279-0.716 0.286-1.505 0.387-2.226 0.663-2.697 1.037-5.456 1.612-8.369 1.531-5.631-0.157-11.266-0.185-16.896-0.361-1.813-0.057-3.5 0.558-5.269 0.659-0.689 0.04-1.43 0.227-2.063 0.048-2.313-0.655-3.997 0.496-5.76 1.786 0.162 0.231 0.302 0.43 0.441 0.629-0.04 0.073-0.061 0.179-0.123 0.216-2.935 1.748-5.917 3.403-8.624 5.53-2.344 1.841-4.886 3.428-7.324 5.15-0.671 0.474-1.357 0.963-1.905 1.564-1.377 1.515-3.127 2.223-5.063 2.669-1.759 0.404-3.485 0.944-5.237 1.377-0.624 0.154-1.281 0.227-1.924 0.236-4.767 0.075-9.533 0.125-14.3 0.184-4.681 0.057-9.354-4e-3 -14.021-0.467-2.464-0.244-4.924-0.024-7.384 0.287-3.133 0.398-6.285 0.648-9.428 0.978-2.796 0.293-5.59 0.609-8.386 0.91-0.324 0.035-0.652 0.032-1.067-0.162 0.158-0.136 0.299-0.356 0.478-0.393 0.806-0.16 1.629-0.23 2.433-0.399 5.67-1.198 11.34-2.394 17.002-3.629 2.756-0.601 5.531-1.026 8.347-1.18 2.681-0.145 5.361-0.349 8.044-0.366 4.375-0.029 8.753 0.043 13.128 0.134 1.327 0.027 2.579-0.146 3.793-0.668 3.497-1.505 6.984-3.035 10.502-4.49 1.514-0.626 3.071-1.174 4.65-1.606 1.82-0.498 3.196-1.717 4.683-2.729 0.71-0.482 1.188-1.362 1.651-2.134 0.512-0.852 1.154-1.502 2.044-1.927 1.675-0.8 3.361-1.579 5.016-2.419 1.192-0.605 2.33-1.319 3.513-1.944 1.478-0.78 2.999-1.063 4.622-0.382 0.315 0.132 0.778 0.093 1.113-0.03 0.972-0.357 1.913-0.798 2.742-1.153 0.145-0.451 0.186-0.828 0.371-1.11 0.777-1.182 1.857-1.938 3.3-2.037 1.642-0.111 3.294-0.293 4.931-0.217 2.108 0.099 4.038-0.419 5.871-1.334 1.805-0.9 3.604-1.116 5.521-0.446 0.348 0.121 0.765 0.041 1.148 0.066 0.473 0.03 0.962 8e-3 1.414 0.126 0.747 0.195 1.224 0.856 1.197 1.51-0.025 0.642-0.562 1.29-1.296 1.442-0.906 0.188-1.838 0.199-2.657-0.288-1.457-0.866-2.821-0.777-4.289 0.046-1.04 0.583-2.217 0.926-3.642 1.501 0.519 0.105 0.735 0.193 0.948 0.188 3.075-0.088 6.153-0.131 9.223-0.313 1.151-0.068 2.305-0.397 3.418-0.737 1.604-0.49 3.17-1.1 4.899-1.71-0.087-0.598-0.129-1.238-0.278-1.853-1.313-5.435-2.256-10.947-2.997-16.473-1.025-7.644-3.021-14.997-5.482-22.278-2.353-6.964-5.556-13.53-8.868-20.053-1.134-2.232-2.479-4.357-3.77-6.602-0.252 0.034-0.549 0.047-0.831 0.118-4.09 1.022-8.229 1.153-12.379 0.548-2.283-0.333-4.473-0.097-6.67 0.497-3.004 0.813-6.011 1.618-9.039 2.328-0.865 0.203-1.812 0.105-2.718 0.077-0.81-0.025-1.5 0.173-2.2 0.604-1.138 0.699-2.374 1.238-3.526 1.917-3.204 1.888-5.798 4.517-8.489 7.033-2.184 2.041-4.42 4.042-7.119 5.405-1.58 0.797-3.208 1.498-4.808 2.258-0.663 0.314-1.302 0.682-1.962 1.005-2.174 1.065-4.329 2.175-6.536 3.17-2.682 1.211-5.445 2.241-8.104 3.498-3.188 1.507-6.519 1.622-9.771 0.752-3.516-0.941-7.072-1.663-10.604-2.505-0.88-0.21-1.771-0.367-2.653-0.568-0.657-0.149-1.093-0.646-1.008-1.163 0.096-0.587 0.502-0.835 1.062-0.979 4.081-1.046 8.065-0.337 12.047 0.596 1.26 0.296 2.528 0.596 3.81 0.749 2.235 0.269 4.357-0.108 6.436-1.082 2.544-1.192 5.189-2.167 7.789-3.24 0.234-0.097 0.459-0.219 0.752-0.36-0.121-0.233-0.23-0.41-0.31-0.601-0.309-0.748-0.159-1.121 0.497-1.498 0.552-0.317 1.069-0.694 1.602-1.046 0.865-0.572 1.679-1.253 2.607-1.694 1.64-0.779 3.348-1.414 5.029-2.104 0.158-0.065 0.345-0.16 0.492-0.127 0.224 0.05 0.424 0.199 0.635 0.307-0.112 0.211-0.176 0.482-0.347 0.619-0.229 0.183-0.563 0.228-0.814 0.389-1.709 1.093-3.411 2.197-5.107 3.309-0.119 0.078-0.184 0.241-0.452 0.611 0.533-0.22 0.817-0.29 1.052-0.439 1.297-0.825 2.73-1.311 4.211-1.651 1.936-0.445 3.683-1.315 5.229-2.506 1.749-1.346 3.376-2.85 5.043-4.299 0.256-0.222 0.581-0.491 0.644-0.787 0.313-1.489 1.523-1.995 2.674-2.591 0.381-0.196 0.771-0.386 1.115-0.638 0.56-0.408 1.086-0.861 1.621-1.302 2.959-2.438 6.276-4.097 10.048-4.919 2.621-0.572 5.223-1.173 7.897-1.5 1.829-0.223 3.63-0.791 5.404-1.332 1.66-0.507 3.269-1.154 5.06-0.71 0.272 0.067 0.601-0.113 0.89-0.077 0.354 0.044 0.817 0.093 1.01 0.324 0.313 0.377 0.12 0.83-0.279 1.116-0.176 0.126-0.4 0.182-0.603 0.269 0.063 0.128 0.125 0.256 0.188 0.384 0.247 0.063 0.519 0.229 0.736 0.176 2.474-0.612 5.024-0.89 7.419-1.854 1.643-0.662 3.364-1.125 5.046-1.688 0.656-0.22 1.338-0.401 1.944-0.721 1.452-0.765 2.862-1.611 4.756-1.599-0.152-1.165-0.205-2.196-0.43-3.188-1.369-6.067-3.639-11.732-7.51-16.682-1.146-1.467-2.207-3.003-3.268-4.535-2.229-3.224-4.863-6.102-7.667-8.815-5.045-4.881-10.176-9.674-15.236-14.538-2.373-2.281-4.664-4.648-7.007-6.961-0.223-0.22-0.599-0.515-0.83-0.46-1.412 0.333-2.803 0.755-4.445 1.217 1.247 1.737 2.92 2.935 3.289 5.275-1.8-1.383-3.682-2.202-5.057-3.729-0.527-0.586-1.024-0.674-1.812-0.553-6.167 0.946-12.352 1.878-18.616 1.373-3.674-0.297-7.342-0.558-11.027-0.456-1.199 0.033-2.396 0.163-3.602 0.349 1.426 0.576 3.006 0.678 4.269 1.51-0.135 0.797-0.634 0.893-1.096 0.938-0.601 0.058-1.213 0.063-1.815 0.022-5.082-0.349-10.02 0.362-14.836 1.985-0.409 0.138-0.824 0.272-1.215 0.454-1.857 0.859-3.777 1.509-5.819 1.738-0.542 0.062-0.825 0.246-0.932 0.849-0.181 1.029-0.599 1.335-1.656 1.491-0.342 0.05-0.7 0.064-1.018 0.183-2.384 0.889-4.785 1.741-7.132 2.721-2.066 0.863-3.985 1.013-6.109 0-1.773-0.847-3.76-1.251-5.661-1.822-0.336-0.101-0.738-0.074-0.761-0.531-0.025-0.514 0.38-0.59 0.782-0.675 0.758-0.159 1.499-0.419 2.263-0.52 1.66-0.218 3.301-0.071 4.824 0.669 1.111 0.541 2.184 0.501 3.238-0.042 1.473-0.759 3-1.338 4.623-1.676 0.418-0.087 0.83-0.256 1.211-0.453 1.255-0.647 2.55-1.058 3.99-0.937 0.311 0.026 0.669-0.124 0.956-0.281 4.578-2.507 9.306-4.604 14.521-5.396 0.251-0.038 0.603-0.063 0.721-0.227 0.832-1.157 2.209-1.096 3.351-1.459 2.341-0.745 4.735-1.333 7.13-1.89 1.554-0.362 3.139-0.611 4.723-0.809 1.889-0.236 3.799-0.304 5.683-0.563 0.929-0.127 1.852-0.449 2.723-0.813 1.074-0.45 2.18-0.545 3.308-0.536 2.124 0.017 4.248 0.102 6.37 0.076 1.017-0.012 2.032-0.213 3.171-0.342-0.887-2.319-1.704-4.429-3.284-6.151-0.402-0.439-0.749-0.95-1.035-1.474-0.809-1.481-1.461-3.059-2.383-4.462-1.017-1.546-2.199-2.998-3.431-4.383-1.063-1.197-2.231-2.274-2.928-3.775-0.273-0.591-1.001-0.955-1.373-1.521-1.158-1.757-2.858-2.987-4.229-4.53-0.637-0.718-1.039-1.644-1.433-2.6 0.954 0.626 1.993 1.154 2.84 1.902 1.124 0.993 2.098 2.157 3.134 3.249 0.533 0.563 1.088 1.109 1.584 1.703 0.384 0.459 0.69 0.984 1.035 1.477 0.469 0.67 0.901 1.37 1.422 1.997 0.827 0.998 1.715 1.946 2.576 2.916 0.028 0.032 0.051 0.072 0.084 0.099 3.234 2.63 5.019 6.46 7.82 9.454 1.211 1.293 1.582 3.057 2.287 4.628 0.146 0.327 0.06 0.758 0.085 1.222 0.84 0.395 1.735 0.222 2.601-0.018 2.086-0.578 4.189-1.114 6.225-1.839 2.034-0.725 3.994-1.657 5.983-2.506 0.151-0.064 0.278-0.184 0.564-0.377-0.385-0.413-0.702-0.799-1.064-1.135-5.847-5.422-11.698-10.839-17.552-16.254-1.559-1.441-3.127-2.873-4.695-4.303-2.177-1.984-4.354-3.968-6.541-5.941-1.094-0.987-2.266-1.893-3.308-2.93-5.186-5.161-11.342-8.938-17.665-12.482-0.264-0.147-0.554-0.248-0.82-0.389-0.967-0.514-1.897-0.591-2.973-0.17-1.527 0.597-3.134 0.991-4.704 1.479-0.322 0.1-0.636 0.229-1.089 0.394 0.332 0.315 0.548 0.568 0.809 0.761 2.121 1.57 4.197 3.188 6.632 4.305 1.077 0.494 1.997 1.364 2.921 2.144 0.758 0.641 1.375 1.445 2.127 2.094 0.737 0.637 1.566 1.168 2.418 1.792-0.156 0.056-0.282 0.151-0.354 0.121-2.348-1.01-4.681-2.049-6.784-3.529-0.318-0.224-0.638-0.469-0.993-0.612-2.939-1.184-5.355-3.164-7.813-5.085-0.034-0.026-0.073-0.048-0.104-0.078-0.981-0.988-2.027-1.14-3.401-0.689-5.268 1.727-10.624 3.147-16.117 3.966-4.539 0.677-9.08 1.351-13.673 1.559-0.755 0.034-1.571 0.063-1.856-0.806-0.16-0.487-0.028-1.07-0.028-1.72-4.859 0.193-9.849 0.012-14.839-0.127-7.456-0.208-13.887-0.692-15.116-1.34 0.505-0.053 0.825-0.151 1.125-0.108 4.064 0.584 8.128 0.141 12.192 0.027 2.166-0.06 4.333-0.089 6.5-0.136 2.815-0.061 5.635-0.068 8.446-0.208 1.813-0.09 3.621-0.344 5.422-0.593 0.666-0.092 1.331-0.239 1.885-0.771 0.301-0.29 0.869-0.442 1.308-0.425 1.789 0.072 3.499-0.358 5.421-0.73-1.075 0.946-2.031 1.771-2.966 2.619-0.237 0.215-0.408 0.502-0.611 0.756-1.229-0.041-2.472-0.282-3.653 0.294 0.541 0.073 1.084 0.119 1.616 0.061 0.687-0.092 1.361-0.25 2.038-0.372zm-186.06 111.87c0.167-0.617 0.439-1.228 0.478-1.852 0.067-1.077-0.022-2.164-0.028-3.246-8e-3 -1.561-0.916-2.714-1.755-4.245-0.384 1.772-0.7 3.229-1.072 4.947 0.104 0.199 0.337 0.66 0.584 1.113 0.598 1.096 1.202 2.188 1.803 3.28 0.384 0.286 0.463 0.615 0.213 1.161-0.785-1.18-1.397-2.279-2.181-3.239-1.852-2.27-3.646-4.577-5.24-7.036-1.554-2.398-3.104-4.8-4.615-7.225-0.781-1.252-1.24-1.581-2.619-1.27-0.589 0.133-1.104 0.593-1.698 0.931 0.23 1.253 0.423 2.4 0.655 3.539 0.604 2.968 1.216 5.935 1.851 8.896 0.087 0.404 0.222 0.979 0.514 1.131 2.125 1.113 3.441 3.019 4.8 4.849 2.66 3.581 5.235 7.226 7.825 10.858 2.741 3.844 5.454 7.708 8.194 11.553 0.248 0.348 0.417 0.848 1.081 0.896-1.016-9.647-2.61-19.065-6.966-27.833-0.189 0.494-0.241 0.986-0.3 1.478-0.153 1.278-0.195 1.313-1.524 1.314zm-185.47-10.315c0.736 0.594 1.484 1.173 2.207 1.784 2.515 2.128 5.275 3.798 8.557 4.414 1.611 0.302 3.245 0.507 4.877 0.669 5.4 0.536 10.726 0.114 15.932-1.458 8.034-2.425 15.526-6.068 22.835-10.142 2.16-1.204 3.967-2.777 5.641-4.536 1.463-1.536 2.847-3.147 4.279-4.713 3.096-3.385 6.137-6.824 9.322-10.124 2.627-2.721 5.6-5.042 9.046-6.687 1.729-0.824 3.519-1.458 5.44-1.642 1.325-0.127 1.351-0.11 1.653-1.483 1.284-5.828 1.773-11.69 0.605-17.599-0.377-1.907-0.892-3.787-1.32-5.685-0.328-1.454-0.526-1.579-1.923-1.165-2.992 0.887-5.559 2.601-8.134 4.266-5.577 3.606-10.254 8.248-14.67 13.146-5.745 6.372-11.494 12.736-17.709 18.659-3.608 3.438-7.292 6.789-11.411 9.625-0.96 0.661-1.892 1.374-2.779 2.13-3.457 2.945-7.581 4.465-11.892 5.545-2.461 0.616-5.001 0.288-7.508 0.342-1.744 0.036-3.449-0.255-5.114-0.771-6.786-2.104-12.887-5.468-18.344-10.009-0.342-0.284-0.69-0.562-1.036-0.842-0.042 0.477 0.063 0.797 0.229 1.081 2.38 4.075 4.707 8.182 7.176 12.202 1.708 2.78 3.859 5.224 6.412 7.284 0.454 0.367 0.892 0.813 1.818 0.729-1.665-1.613-3.498-2.83-4.189-5.02zm172.79-192.36c-0.274 0.864-0.497 1.562-0.714 2.26-0.076 0.244-0.252 0.526-0.189 0.731 0.293 0.945 0.451 2.038 1.044 2.759 0.73 0.887 0.718 1.684 0.484 2.64-0.476 1.94-1.022 3.851-2.181 5.522-0.09 0.13-0.12 0.302-0.206 0.53 1.181 0.137 2.185 0.145 3.01-0.832 0.466-0.551 1.074-1.033 1.709-1.381 2.352-1.288 4.735-2.518 7.12-3.744 0.545-0.28 1.021-0.479 1.184-1.213 0.109-0.489 0.594-0.946 1.009-1.302 0.722-0.619 1.504-1.171 2.29-1.708 1.144-0.782 2.313-1.528 3.474-2.286 0.379-0.248 0.687-0.518 0.597-1.044-0.224-1.31 0.342-2.379 1.114-3.348 1.782-2.234 3.593-4.444 5.39-6.667 0.128-0.158 0.23-0.335 0.344-0.503-1.334-0.919-1.459-1.51-0.626-2.808 0.163-0.254 0.34-0.505 0.541-0.73 1.532-1.709 3.031-3.45 4.618-5.107 1.828-1.908 3.691-3.789 5.623-5.591 1.643-1.532 3.333-3.031 5.132-4.372 2.26-1.683 4.945-2.483 7.668-3.032 1.429-0.287 2.919-0.272 4.384-0.358 0.287-0.017 0.611 0.075 0.873 0.207 1.39 0.701 2.871 1.282 4.119 2.185 1.632 1.181 3.164 2.535 4.568 3.98 1.105 1.138 2.057 2.471 2.24 4.162 6e-3 0.051 0.127 0.09 0.194 0.134 2.588-1.018 4.043-1.929 5.455-3.577 0.339-0.396 0.588-0.965 0.654-1.483 0.27-2.104-0.043-4.12-0.994-6.051-0.309-0.626-0.65-1.067-1.297-1.334-3.956-1.637-7.907-3.287-11.851-4.955-0.954-0.403-1.832-0.412-2.709 0.185-0.392 0.266-0.839 0.449-1.255 0.681-2.303 1.285-4.622 2.544-6.898 3.875-1.005 0.587-2.024 1.217-2.861 2.013-2.419 2.295-4.72 4.714-7.127 7.021-0.867 0.831-1.892 1.503-2.877 2.201-0.198 0.141-0.546 0.072-0.841 0.102-0.184-0.771 0.299-1.142 0.661-1.543 1.598-1.768 3.213-3.52 4.816-5.283 0.22-0.242 0.409-0.513 0.788-0.994-0.593 0.156-0.923 0.212-1.23 0.329-1.292 0.492-2.548 1.097-3.993 1.011-0.223-0.014-0.471 0.166-0.686 0.293-1.186 0.699-2.332 1.471-3.551 2.105-3.033 1.575-6.121 3.044-9.136 4.651-1.157 0.616-2.332 0.995-3.599 0.852-1.162-0.132-2.076 0.118-2.923 0.938-0.382 0.37-0.996 0.495-1.491 0.756-1.326 0.698-2.633 1.309-3.322 2.875-0.651 1.481-1.271 3.108-2.661 4.102-1.391 0.994-1.905 2.244-1.637 3.883 0.021 0.127-7e-3 0.261 7e-3 0.39 0.192 1.732-0.109 3.302-1.099 4.812-0.851 1.301-1.752 2.456-3.156 3.061zm16.467 52.132c0.781-1.95 1.763-3.534 2.143-5.379 0.414-2.008 0.483-4.035 0.443-6.078-0.015-0.755-0.259-1.132-1.018-1.397-1.876-0.655-3.75-1.353-5.542-2.206-2.148-1.022-4.202-2.241-6.315-3.34-2.453-1.276-4.545-3.091-6.841-4.603-0.572-0.376-1.087-0.783-1.749-0.958-4.317-1.147-8.683-2.09-13.153-2.268-5.457-0.217-10.919-0.152-16.367 0.301-1.854 0.154-3.728 0.263-5.547 0.621-3.351 0.659-6.675 1.459-9.996 2.26-1.028 0.248-2.008 0.69-3.206 1.112 0.475 0.375 0.75 0.635 1.065 0.834 2.673 1.688 5.305 3.449 8.046 5.019 2.71 1.552 5.606 2.78 8.67 3.415 5.604 1.162 11.271 1.837 17.014 1.838 3.333 1e-3 6.671 0.1 9.995 0.331 2.453 0.171 4.9 0.498 7.282 1.225 3.023 0.922 6.063 1.782 8.96 3.066 0.704 0.312 1.341 0.528 2.009-0.149 0.229-0.232 0.721-0.283 1.093-0.283 0.942 0 1.577 0.575 1.856 1.687 0.389 1.542 0.727 3.097 1.158 4.952zm6.842-5.37c0.652-0.566 1.184-0.98 1.659-1.45 1.261-1.248 2.508-2.509 3.732-3.792 0.215-0.224 0.379-0.568 0.416-0.874 0.072-0.614 0.353-1.022 0.848-1.377 0.234-0.168 0.493-0.561 0.455-0.807-0.301-1.913-0.369-3.876-1.343-5.645-1.031-1.872-2.209-3.633-3.738-5.124-1.495-1.458-2.842-3.038-4.563-4.304-4.383-3.224-9.304-4.784-14.633-5.027-3.234-0.148-6.49 0.081-9.731 0.233-4.484 0.211-8.822 1.202-13.052 2.68-0.225 0.078-0.429 0.214-0.913 0.461 1.288 0.128 2.263 0.27 3.244 0.315 3.877 0.182 7.633 1.026 11.317 2.168 1.349 0.418 2.779 0.946 3.844 1.824 1.695 1.396 3.575 2.35 5.54 3.226 3.594 1.604 7.083 3.447 10.831 4.7 1.271 0.425 2.53 0.897 3.761 1.427 1.676 0.721 2.568 2.005 2.501 3.872-0.081 2.247-0.179 4.493-0.264 6.739-6e-3 0.16 0.036 0.321 0.089 0.755zm-107.9 85.788c-0.347-1.722-1.012-3.121-1.779-4.48-0.629-1.115-0.626-1.125-1.939-0.845-0.591 0.125-1.184 0.258-1.762 0.434-4.721 1.436-9.351 3.125-13.875 5.098-2.305 1.005-4.604 2.071-6.45 3.818-5.601 5.303-10.611 11.012-13.357 18.433-1.859 5.026-3.845 10.022-6.536 14.691-0.075 0.13-0.083 0.298-0.122 0.449 0.554-0.185 0.939-0.498 1.298-0.838 5.246-4.983 10.233-10.216 15.052-15.611 4.154-4.652 8.311-9.302 13.193-13.226 3.848-3.092 8.012-5.588 12.851-6.827 1.123-0.288 2.212-0.704 3.426-1.096zm165.83-102.04c0.563 0.159 1.005 0.324 1.463 0.407 1.7 0.309 3.426 0.504 5.105 0.9 5.375 1.269 10.83 1.801 16.338 1.91 5.455 0.107 10.91 0.239 16.365 0.299 1.313 0.015 2.471 0.278 3.52 1.076 0.301 0.229 0.704 0.32 1.055 0.485 1.679 0.791 3.373 1.553 5.03 2.387 1.695 0.853 3.368 1.753 5.022 2.683 0.733 0.412 1.295 0.408 1.992-0.134 0.688-0.534 1.537-0.848 2.657-0.985-0.333 0.485-0.54 0.788-0.747 1.09 2.896-1.996 5.776-3.925 8.577-6.318-0.552-0.073-0.839-0.112-1.21-0.161 0.12-0.289 0.18-0.54 0.314-0.742 1.146-1.726 2.827-2.659 4.81-2.974 1.251-0.199 2.067-0.891 3.086-1.936-0.721-0.024-1.177-0.052-1.633-0.052-3.032 3e-3 -6.064 2e-3 -9.097 0.025-1.473 0.011-2.945 0.052-4.416 0.11-5.495 0.217-10.988 0.47-16.483 0.662-2.77 0.096-5.545 0.036-8.314 0.141-4.587 0.174-9.168 0.492-13.755 0.622-3.506 0.1-7.019 0.052-10.525-0.026-2.246-0.05-4.499-0.139-6.701-0.699-1.432-0.365-1.439-0.334-2.453 1.23zm-166.39 134.13c-0.053-0.087-0.106-0.174-0.16-0.262-0.292 0.032-0.594 0.031-0.875 0.104-0.417 0.108-0.831 0.242-1.227 0.41-3.979 1.685-7.27 4.375-10.3 7.353-3.119 3.064-6.093 6.281-9.034 9.519-2.516 2.771-5.29 5.18-8.401 7.279-3.958 2.671-8.042 5.104-12.294 7.252-5.349 2.702-10.914 4.843-16.814 6.021-1.387 0.276-2.786 0.492-4.41 0.777 1.765 2.699 2.521 5.713 4.047 8.222 1.655-0.347 3.128-0.651 4.6-0.969 0.207-0.045 0.418-0.125 0.599-0.235 2.431-1.496 4.963-2.854 7.264-4.53 7.837-5.712 15.559-11.583 23.396-17.296 2.778-2.025 5.414-4.18 7.78-6.665 1.942-2.039 3.868-4.093 5.796-6.144 3.026-3.219 6.051-6.44 9.069-9.667 0.343-0.368 0.644-0.778 0.964-1.169zm90.884-150.64c0.02 0.126 0.04 0.253 0.06 0.38 0.364 0 0.731 0.032 1.091-5e-3 3.871-0.398 7.737-0.861 11.613-1.196 2.627-0.227 5.275-0.458 7.902-0.36 2.934 0.109 5.867 0.532 8.552 1.903 1.924 0.981 3.882 1.901 5.757 2.967 0.968 0.549 1.841 1.302 2.654 2.07 0.413 0.391 0.669 0.995 0.874 1.548 0.279 0.751 0.442 1.545 0.66 2.34 0.975-0.191 1.59-0.72 2.162-1.318 0.358-0.375 0.697-0.771 1.076-1.125 0.355-0.332 0.679-0.635 0.646-1.194-0.027-0.452 0.268-0.738 0.717-0.762 0.532-0.028 0.713-0.397 0.926-0.787 0.796-1.45 0.571-2.917 0.146-4.411-0.583-2.043-1.706-3.762-3.052-5.372-1.015-1.213-2.117-2.274-3.646-2.823-0.524-0.188-1.046-0.443-1.494-0.771-0.601-0.439-1.24-0.517-1.951-0.544-3.895-0.148-7.669 0.664-11.418 1.515-2.439 0.554-4.82 1.383-7.202 2.165-4.478 1.47-8.943 2.976-13.398 4.513-0.927 0.32-1.785 0.839-2.675 1.267zm-33.715-20.327c0.069 0.068 0.138 0.136 0.208 0.204 0.364-0.186 0.723-0.384 1.093-0.556 1.291-0.6 2.549-1.297 3.887-1.766 3.413-1.197 6.951-1.735 10.57-1.721 1.948 7e-3 3.896-3e-3 5.842 0.046 0.684 0.017 1.383 0.122 2.041 0.307 0.66 0.186 1.311 0.451 1.313 1.372 0 0.295 0.313 0.59 0.484 0.884 0.193 0.334 0.53 0.659 0.552 1.003 0.077 1.213 0.928 1.52 1.865 1.799 1.57 0.467 2.567-0.201 2.626-1.857 0.068-1.902 0.115-3.807-0.423-5.671-0.239-0.829-0.544-1.68-0.555-2.525-0.034-2.598-1.347-4.696-2.483-6.873-0.352-0.674-0.923-1-1.686-1.01-2.045-0.029-4.055 0.195-6.02 0.791-3.31 1.003-6.233 2.791-9.089 4.648-2.097 1.363-4.014 3.006-5.985 4.557-0.394 0.31-0.715 0.74-0.993 1.165-0.705 1.081-1.364 2.192-2.045 3.289-0.398 0.639-0.801 1.276-1.202 1.914zm51.056 4.832c0.059 0.07 0.118 0.14 0.177 0.21 0.265-0.117 0.533-0.228 0.794-0.353 4.215-2.017 8.396-4.105 12.655-6.024 2.247-1.013 4.649-1.614 7.149-1.726 0.938-0.042 1.869-0.245 2.806-0.357 0.381-0.046 0.77-0.077 1.151-0.056 0.559 0.031 1.113 0.167 1.67 0.165 0.887-5e-3 1.608 0.322 2.191 0.952 0.47 0.507 0.862 1.086 1.343 1.583 1.221 1.263 2.471 2.498 3.77 3.805 0.667-0.76 0.877-1.471 0.914-2.268 0.07-1.514 0.115-3.032 0.266-4.539 0.128-1.278-0.049-2.493-0.385-3.716-0.445-1.617-1.558-2.628-2.911-3.48-1.546-0.973-3.331-0.852-5.014-1.085-4.22-0.584-8.205 0.468-11.849 2.495-2.17 1.207-4.177 2.792-6.027 4.462-1.954 1.763-3.677 3.791-5.422 5.773-1.164 1.322-2.19 2.768-3.278 4.159zm-55.036 199.32c0.069 0.486 0.065 0.997 0.22 1.454 1.179 3.48 2.383 6.953 3.602 10.42 0.11 0.313 0.332 0.618 0.578 0.844 3.059 2.812 6.051 5.703 9.226 8.378 2.861 2.411 6.123 4.226 9.731 5.331 1.229 0.377 2.481 0.687 3.853 0.62-0.023-0.239 1e-3 -0.419-0.061-0.562-0.896-2.051-1.769-4.114-2.725-6.139-0.493-1.043-1.135-2.017-1.719-3.017-0.369-0.632-0.701-1.294-1.143-1.871-1.342-1.752-2.735-3.466-4.097-5.204-0.364-0.464-0.685-0.962-1.026-1.444-0.037 0.613 0.135 1.131 0.276 1.657 0.235 0.875 0.472 1.75 0.658 2.636 0.037 0.176-0.154 0.398-0.269 0.668-1.197-1.812-1.75-3.263-2.138-5.619-0.117-0.708-0.312-1.31-1.178-1.467-0.314 1.058 0.089 2.194-0.602 3.167-1.056-1.701-1.056-1.701-1.305-4.217-0.1-1.006-0.309-1.228-1.441-1.466 0.069 2.055 0.422 4.121-0.407 6.315-3.956-3.01-6.813-6.851-10.033-10.484zm84.224-188.59c0.227-0.072 0.343-0.073 0.379-0.127 1.181-1.75 2.573-3.378 3.266-5.415 0.348-1.024 0.645-2.102 0.175-3.157-0.507-1.137-1.001-2.288-1.902-3.208-1.301-1.326-2.603-2.645-3.519-4.305-0.564-1.021-1.629-1.247-2.691-0.742-0.311 0.147-0.569 0.413-0.887 0.533-0.634 0.242-1.285 0.571-1.94 0.6-2.767 0.122-5.374 0.843-7.886 1.943-1.781 0.78-3.515 1.672-5.298 2.447-4.292 1.864-8.409 4.059-12.433 6.436-0.355 0.21-0.684 0.466-1.025 0.701 0.278 0.151 0.482 0.14 0.669 0.079 1.561-0.51 3.13-0.998 4.676-1.551 5.377-1.923 10.895-3.022 16.626-3.009 1.519 4e-3 2.915 0.22 4.154 1.167 0.371 0.283 0.857 0.408 1.27 0.643 0.71 0.404 1.45 0.776 2.093 1.271 1.496 1.152 2.623 2.625 3.486 4.303 0.25 0.485 0.536 0.95 0.787 1.391zm-17.787 27.689c0.814-0.205 1.473-0.451 2.01-1.002 0.724-0.743 1.496-1.438 2.225-2.177 0.233-0.237 0.438-0.529 0.575-0.832 0.483-1.063 0.938-2.137 1.388-3.214 0.132-0.315 0.31-0.66 0.29-0.98-0.093-1.506-0.239-3.009-0.381-4.512-0.14-1.488-1.085-2.388-2.29-3.098-0.818-0.483-1.595-1.05-2.444-1.468-1.896-0.93-3.75-1.927-5.847-2.428-3.721-0.89-7.469-0.77-11.231-0.57-0.309 0.017-0.611 0.146-1.242 0.306 2.329 1.046 3.992 2.416 5.49 4.08 1.204 1.337 2.734 2.376 4.079 3.594 0.992 0.898 2.007 1.794 2.853 2.823 2.021 2.455 3.794 5.06 4.196 8.345 0.045 0.367 0.206 0.722 0.329 1.133zm-62.569-15.074c0.183 0.019 0.329 0.081 0.428 0.036 1.456-0.656 2.909-1.318 4.354-1.996 0.401-0.188 0.496-0.519 0.437-0.971-0.118-0.896 0.326-1.552 0.969-2.147 0.94-0.87 2.043-1.428 3.194-1.949 1.059-0.479 2.092-1.027 3.095-1.617 0.967-0.569 1.275-1.276 0.869-2.306-0.663-1.684-1.328-3.393-2.244-4.942-0.676-1.146-1.766-2.053-3.308-1.876-1.973 0.227-3.949 0.444-5.912 0.74-4.47 0.674-8.683 2.282-12.962 3.643-0.409 0.13-0.799 0.333-1.18 0.535-0.184 0.098-0.325 0.275-0.57 0.491 1.791-0.128 3.423-0.333 5.057-0.343 2.812-0.018 4.874 1.229 6.082 3.843 0.504 1.091 1.136 2.126 1.748 3.165 0.562 0.954 0.843 1.945 0.251 2.944-0.535 0.902-0.415 1.801-0.308 2.75zm124.46-58.222c0.428-0.149 0.693-0.26 0.968-0.334 1.286-0.351 2.559-0.88 3.867-0.995 2.454-0.216 4.642-0.917 6.49-2.582 0.352-0.317 0.727-0.64 1.146-0.844 1.612-0.783 1.798-2.16 1.658-3.715-0.073-0.814-0.131-1.635-0.114-2.452 0.012-0.595-0.042-1.105-0.533-1.514-0.229-0.19-0.426-0.438-0.58-0.693-0.626-1.039-1.536-1.406-2.732-1.373-4.191 0.116-8.398-0.113-12.563 0.575-0.816 0.135-1.683 0.083-2.517 0.528 0.691 0.952 1.365 1.814 1.213 3.003-0.022 0.182 0.109 0.426 0.242 0.577 0.765 0.871 1.582 1.698 2.324 2.587 1.364 1.635 2.49 3.358 1.626 5.649-0.175 0.467-0.3 0.954-0.495 1.583zm-142.88 61.623c0.543-0.147 1-0.254 1.444-0.396 2.968-0.947 5.974-1.731 9.074-2.111 0.9-0.11 1.801-0.219 2.703-0.318 0.47-0.051 0.918-0.219 0.925-0.729 0.016-1.246 0.106-2.526-0.139-3.73-0.219-1.075-0.894-2.051-1.281-3.102-0.401-1.087-1.104-1.517-2.261-1.528-2.753-0.027-5.464 0.311-8.039 1.227-5.779 2.055-11.51 4.244-17.257 6.388-0.254 0.095-0.477 0.275-0.714 0.416 0.477 0.162 0.896 0.171 1.315 0.161 2.894-0.072 5.792-0.27 8.681-0.188 2.526 0.071 4.634 1.055 5.549 3.91zm-141.54 178.28c-0.1 0.028-0.199 0.058-0.298 0.086-0.084 2.308 0.321 4.535 1.263 6.651 2.262 5.078 5.027 9.876 8.166 14.458 0.783 1.143 1.618 2.238 3.002 2.774 0.552 0.214 1.009 0.665 1.523 0.986 0.623 0.39 1.224 0.853 1.899 1.114 1.408 0.545 2.858 1.114 4.242-0.126 0.145-0.129 0.401-0.159 0.611-0.185 1.03-0.125 1.61-0.858 1.351-1.951-0.235-0.991-0.682-1.937-1.088-2.88-0.237-0.551-0.69-1.026-0.842-1.592-0.214-0.801-0.734-1.184-1.383-1.593-1.275-0.804-2.622-1.572-3.689-2.612-3.348-3.264-6.579-6.647-9.857-9.982-0.219-0.222-0.458-0.423-0.688-0.634-0.074 0.054-0.148 0.107-0.222 0.161 1.48 2.92 2.961 5.84 4.441 8.76-0.095 0.059-0.191 0.117-0.287 0.176-0.951-1.222-2.025-2.369-2.825-3.684-1.281-2.104-2.39-4.313-3.554-6.487-0.607-1.135-1.177-2.292-1.765-3.44zm263.38-249.05c0.274 0.244 0.467 0.494 0.721 0.625 1.083 0.565 1.6 1.485 1.907 2.634 0.208 0.776 0.489 1.626 1.003 2.21 1.737 1.976 2.792 4.217 3.112 6.819 0.014 0.111 0.111 0.211 0.207 0.384 0.291-0.127 0.558-0.243 0.824-0.36 0.832-0.363 1.637-0.821 2.501-1.071 2.522-0.729 4.808-1.885 6.917-3.446 1.083-0.801 1.527-1.848 1.523-3.117-2e-3 -0.617 0.108-1.218-0.35-1.844-0.91-1.244-1.706-2.584-2.425-3.95-0.36-0.685-0.773-0.949-1.513-0.93-2.121 0.055-4.243 0.063-6.365 0.101-0.519 9e-3 -1.052-2e-3 -1.55 0.115-2.02 0.476-4.028 0.994-6.038 1.509-0.148 0.04-0.272 0.181-0.474 0.321zm-266.24 208.11c-0.108-0.011-0.217-0.022-0.326-0.034-0.116 0.345-0.283 0.682-0.339 1.037-0.656 4.122-1.116 8.24 0.385 12.297 0.089 0.241 0.119 0.504 0.18 0.757 0.803 3.313 2.105 6.417 3.99 9.255 2.952 4.443 7.169 7.316 11.951 9.461 0.176 0.079 0.389 0.078 0.753 0.145-0.241-0.358-0.36-0.584-0.524-0.771-1.663-1.899-3.073-3.976-4.236-6.211-1.877-3.61-3.732-7.232-5.565-10.864-1.148-2.276-2.171-4.623-3.991-6.483-0.15-0.153-0.251-0.353-0.388-0.521-1.28-1.577-1.942-3.319-1.707-5.403 0.098-0.87-0.112-1.775-0.183-2.665zm178.42-147.23c1.326 0.198 2.512-0.372 3.738-0.37 0.094 0 0.183-0.174 0.283-0.255 0.703-0.573 1.441-1.107 2.104-1.721 0.979-0.907 1.888-1.888 2.858-2.805 1.277-1.206 0.799-3.789-0.254-4.948-0.206-0.227-0.342-0.634-0.308-0.936 0.077-0.689-0.262-1.161-0.647-1.634-1.339-1.644-3.084-2.536-5.192-2.525-2.507 0.013-5.018 0.097-7.517 0.282-1.088 0.081-2.234 0.142-3.244 0.708 0.439 0.102 0.866 0.125 1.294 0.142 1.781 0.068 3.992 1.683 4.596 3.326 0.537 1.459 1.126 2.9 1.657 4.362 0.735 2.025 1.515 4.053 0.632 6.374zm87.409-44.525c1.103-0.899 2.021-1.672 2.965-2.411 1.091-0.854 1.469-1.917 1.285-3.302-0.167-1.26-0.872-2.222-1.457-3.263-0.44-0.785-0.884-1.568-1.352-2.336-0.267-0.436-0.513-0.928-0.895-1.242-1.161-0.956-2.493-1.546-4.036-1.537-1.43 8e-3 -2.863-0.051-4.287 0.042-2.997 0.196-5.927 0.727-8.641 2.104-0.25 0.127-0.47 0.314-0.827 0.559 0.456 0.195 0.755 0.346 1.068 0.454 1.186 0.408 2.4 0.744 3.56 1.216 1.64 0.668 3.202 1.537 4.864 2.137 3.136 1.132 5.421 3.143 6.878 6.127 0.205 0.418 0.48 0.802 0.875 1.452zm-57.694 5.512c0.376 0.066 0.47 0.114 0.537 0.09 0.529-0.191 1.051-0.402 1.578-0.598 3.721-1.381 7.503-2.587 10.982-4.59 1.412-0.813 2.452-1.876 3.351-3.133 0.444-0.622 0.755-1.371 0.989-2.105 0.345-1.083-0.086-1.621-1.234-1.687-0.778-0.044-1.56-0.044-2.337-0.1-0.665-0.047-1.335-0.202-1.648-0.858-0.286-0.6-0.756-0.664-1.289-0.614-1.849 0.172-3.697 0.357-5.544 0.553-0.88 0.093-1.757 0.218-2.785 0.348 0.377 1.082 0.649 2.032 1.035 2.933 0.598 1.394 0.655 2.792 0.05 4.158-0.362 0.82-0.897 1.568-1.398 2.32-0.716 1.069-1.468 2.112-2.287 3.283zm-273.12 151.2c0.1 0.021 0.199 0.042 0.298 0.063 0.145-0.212 0.292-0.422 0.432-0.637 2.508-3.862 5.421-7.41 8.502-10.819 1.684-1.863 3.417-3.687 5.203-5.452 1.121-1.108 1.739-2.324 1.621-3.924-0.066-0.904 0.05-1.821 6e-3 -2.728-0.045-0.943-0.12-1.895-0.31-2.816-0.103-0.499 4e-3 -1.347-0.708-1.36-0.431-8e-3 -0.98 0.489-1.291 0.899-1.61 2.126-3.229 4.252-4.714 6.466-1.47 2.191-2.839 4.456-4.158 6.743-2.198 3.815-3.744 7.895-4.673 12.203-0.095 0.447-0.139 0.907-0.208 1.362zm388.12 175.59c0.476-0.268 0.794-0.394 1.046-0.6 1.306-1.066 2.607-2.139 3.879-3.245 0.279-0.243 0.479-0.613 0.633-0.962 0.63-1.421 1.212-2.863 1.844-4.282 0.405-0.91 0.46-2.05 1.585-2.518 0.099-0.041 0.144-0.209 0.214-0.318 0.797-1.234 1.617-2.454 2.383-3.708 0.703-1.151 1.338-2.367 1.205-3.765-0.165-1.737-0.749-2.732-2.567-2.763-0.855-0.015-1.712-2e-3 -2.718-2e-3 -0.575 1.022-1.286 2.064-1.775 3.2-1.421 3.294-2.766 6.621-4.114 9.945-0.52 1.28-1 2.578-1.443 3.887-0.555 1.632-0.453 3.285-0.172 5.131zm-144.78-326.61c0.063 0.074 0.125 0.148 0.188 0.223 0.083 8e-3 0.175 0.044 0.249 0.021 0.37-0.119 0.74-0.239 1.1-0.385 2.705-1.098 5.528-1.317 8.406-1.15 1.485 0.086 2.656 0.689 3.419 2.001 1.432 2.463 3.004 4.866 3.311 7.808 0.011 0.104 0.15 0.194 0.251 0.316 0.591-0.35 1.42-0.552 1.701-1.058 1.084-1.953 2.169-3.924 2.201-6.284 0.03-2.283-0.451-4.564-4e-3 -6.846 0.032-0.165 4e-3 -0.347-0.021-0.517-0.137-0.94-0.501-1.332-1.443-1.271-1.198 0.079-2.424 0.158-3.572 0.474-4.681 1.288-9.086 3.301-13.481 5.322-0.804 0.371-1.539 0.894-2.305 1.346zm-241.51 120.96c-2.33 3.448-4.726 6.887-7.004 10.403-1.603 2.474-2.834 5.149-3.692 7.981-0.168 0.556-0.271 1.132-0.405 1.699 0.082 0.045 0.164 0.091 0.246 0.136 0.49-0.461 0.951-0.959 1.476-1.377 1.989-1.586 4.075-3.06 5.981-4.74 2.429-2.141 4.741-4.418 7.051-6.69 0.538-0.528 0.911-1.247 1.271-1.925 0.37-0.694 0.368-1.548-0.105-2.106-0.909-1.076-1.879-2.142-3.28-2.649-0.462-0.167-0.894-0.422-1.539-0.732zm220.68-93.923c0.546-0.348 0.975-0.635 1.416-0.901 4.577-2.76 9.45-4.728 14.812-5.207 2.581-0.231 5.186-0.294 7.778-0.259 1.881 0.025 3.645 0.682 5.159 1.734 0.674-0.274 0.884-0.7 0.69-1.287-0.189-0.571-0.355-1.166-0.649-1.684-0.469-0.825-1.094-1.564-1.542-2.399-0.313-0.582-0.681-0.804-1.325-0.776-3.069 0.133-6.153 0.099-9.206 0.39-2.979 0.284-5.85 1.128-8.512 2.583-2.788 1.525-5.277 3.467-7.795 5.382-0.841 0.64-1.193 1.287-0.826 2.424zm-17.331 23.201c-0.465-0.997-1.24-1.057-1.953-1.088-3.028-0.129-6.049-0.075-9.067 0.31-3.723 0.476-7.201 1.792-10.729 2.95-2.676 0.879-5.292 1.901-7.75 3.283-2.526 1.419-5.023 2.892-7.527 4.35-0.302 0.176-0.573 0.406-0.858 0.611 0.511 0.062 0.917-0.047 1.316-0.181 5.042-1.681 10.095-3.333 15.121-5.061 3.31-1.138 6.74-1.498 10.189-1.756 1.421-0.106 2.915 0.188 4.265-0.146 1.392-0.343 2.646-1.238 3.968-1.874 0.964-0.463 1.943-0.899 3.025-1.398zm55.065-60.115c5e-3 0.094 0.01 0.188 0.015 0.283 0.851 0 1.701-0.011 2.551 2e-3 2.08 0.032 3.256 1.19 3.354 3.294 0.02 0.432-0.02 0.872 0.047 1.295 0.316 2.018 0.351 4.026-0.061 6.037-0.161 0.79 0.371 1.277 1.147 1.009 0.434-0.15 0.87-0.421 1.188-0.75 1.141-1.18 2.283-2.367 3.33-3.629 1.605-1.936 2.443-4.182 2.197-6.719-0.072-0.74-0.326-1.541-0.74-2.148-0.396-0.583-0.677-1.061-0.296-1.738-0.321-0.141-0.589-0.201-0.785-0.354-0.854-0.667-1.724-0.51-2.698-0.261-3.247 0.83-6.134 2.532-9.249 3.679zm108.14-6.327c1.525 0.305 3.207 0.078 4.879-0.582 1.183-0.468 2.26-1.087 3.107-2.046 1.409-1.596 2.563-3.36 3.361-5.34 0.104-0.261 0.139-0.592 0.086-0.867-0.312-1.607-0.766-1.949-2.485-1.998-3.11-0.089-6.22-0.192-9.33-0.283-0.247-7e-3 -0.495 0.04-0.813 0.068 0.203 0.773 0.457 1.464 0.554 2.178 0.104 0.766 0.055 1.553 0.087 2.33 8e-3 0.168 0.085 0.333 0.123 0.5 0.262 1.135 0.56 2.262 0.762 3.407 0.087 0.492 3e-3 1.023-0.059 1.53-0.043 0.372-0.177 0.733-0.272 1.103zm-24.076 317.81c0.721-0.997 1.321-1.77 1.858-2.584 1.571-2.382 3.212-4.722 4.175-7.454 0.62-1.764 0.467-3.588 0.574-5.393 0.013-0.205-0.056-0.446-0.165-0.62-0.128-0.202-0.335-0.487-0.522-0.5-1.545-0.101-3.107-0.361-4.591 0.373-1.162 0.575-2.341 1.114-3.504 1.686-0.38 0.187-0.735 0.423-1.061 0.612 0.141 1.09 0.359 2.068 0.371 3.049 0.019 1.537 0.284 3.01 0.773 4.456 0.514 1.517 1.021 3.035 1.526 4.556 0.173 0.517 0.326 1.042 0.566 1.819zm-267.28-48.987c-0.548-0.215-0.996-0.365-1.421-0.563-1.292-0.6-2.631-1.123-3.85-1.847-4.439-2.638-8.182-6.079-11.374-10.129-0.188-0.237-0.405-0.451-0.608-0.677-0.057 0.575 0.083 1.015 0.255 1.441 1.438 3.559 3.513 6.753 5.798 9.803 1.632 2.177 3.409 4.248 5.178 6.318 0.664 0.776 1.463 1.45 2.403 1.87 1.466-1.569 1.461-1.571 2.193-3.522 0.086-0.23 0.216-0.539 0.408-0.62 0.905-0.388 0.845-1.201 1.018-2.074zm202.44-51.945c-0.137 0.547-0.26 0.784-0.241 1.008 0.071 0.818 0.085 1.662 0.307 2.443 0.912 3.202 1.896 6.383 2.846 9.574 0.146 0.493 0.443 0.788 0.914 1.013 1.093 0.521 2.128 1.166 3.235 1.653 1.459 0.643 2.942 1.252 4.46 1.734 0.744 0.237 1.569 0.496 2.55 0.158-0.269-0.789-0.526-1.542-0.808-2.365-0.439 0.395-0.763 0.685-1.29 1.158-0.074-1.138-0.112-2.01-0.194-2.878-0.085-0.9 0.228-1.843-0.315-2.969-0.625 1.191-1.146 2.183-1.752 3.338-0.362-1.889 1.123-2.89 1.608-4.317-0.376-0.264-0.674-0.474-1.05-0.737-0.361 0.827-0.828 1.511-0.941 2.249-0.151 0.993-0.76 1.321-1.477 1.606-0.884-1.46-1.73-2.849-2.568-4.243-0.826-1.372-1.614-2.769-2.474-4.119-0.87-1.365-1.675-2.78-2.81-4.306zm96.394 164.24c1.71-0.27 3.044-0.651 4.196-1.568 1.412-1.123 3.004-1.784 4.787-2.18 1.661-0.369 3.293-0.935 4.766-1.908 1.034-0.684 1.625-1.68 2.215-2.658 0.713-1.183 1.065-2.518 0.794-4.116-0.919 0.084-1.92-0.07-2.666 0.296-1.463 0.717-2.807 1.689-4.155 2.621-0.815 0.564-1.556 1.24-2.315 1.882-1.588 1.34-3.195 2.657-4.736 4.049-0.766 0.691-1.418 1.515-2.09 2.305-0.263 0.307-0.437 0.691-0.796 1.277zm-106.13-117.4c-3.883-5.724-7.766-11.447-11.677-17.213-1.924 0.972-4.061 1.18-5.798 2.679 6.457 4.264 11.661 9.743 17.475 14.534zm-200.92 11.497c-0.173-0.333-0.231-0.494-0.33-0.626-1.624-2.183-3.25-4.364-4.883-6.541-0.178-0.237-0.4-0.442-0.605-0.659-0.852-0.896-1.979-1.289-3.062-1.821-2.201-1.081-4.412-2.212-6.064-4.133-0.123-0.143-0.376-0.174-0.57-0.256 0.512 1.184 1.15 2.205 1.861 3.174 2.447 3.331 5.261 6.31 8.615 8.746 1.44 1.046 2.997 1.857 5.038 2.116zm19.563-26.392c-0.043 0.336-0.096 0.506-0.083 0.669 0.283 3.277 0.667 6.55 0.823 9.832 0.075 1.573 1.334 2.599 1.489 4.081 0.016 0.151 0.298 0.299 0.482 0.404 0.85 0.49 1.69 0.406 2.465 0.04-0.254-1.195-0.642-2.28-0.68-3.377-0.054-1.549 0.106-3.111 0.265-4.658 0.071-0.689 0.061-1.212-0.496-1.745-1.502-1.439-2.848-3.02-3.822-4.882-0.053-0.1-0.187-0.157-0.443-0.364zm250.73-186.47c-0.063-0.062-0.125-0.123-0.188-0.184-1.78 1.519-3.503 3.115-5.357 4.537-1.872 1.437-3.877 2.703-5.839 4.053 0.35 0.736 0.424 1.359-0.018 1.939-0.288 0.378-0.601 0.737-0.899 1.107-1.38 1.707-2.759 3.414-4.11 5.086 0.471 0.583 0.833 1.03 1.247 1.543 0.3-0.29 0.602-0.53 0.842-0.821 2.223-2.704 4.436-5.416 6.646-8.13 0.048-0.058 0.039-0.163 0.054-0.228-0.187-0.275-0.365-0.538-0.632-0.931 0.518-0.189 0.911-0.458 1.3-0.45 0.814 0.016 1.265-0.457 1.712-1 1.541-1.869 3.087-3.733 4.621-5.607 0.232-0.282 0.415-0.607 0.621-0.914zm-308.11 94.937c0.11 0.016 0.22 0.031 0.331 0.047 0.19-0.219 0.414-0.417 0.566-0.659 1.133-1.792 2.349-3.541 3.343-5.408 0.745-1.398 1.217-2.945 1.771-4.44 0.187-0.504 0.278-1.056 0-1.625-0.199 0.093-0.337 0.118-0.417 0.2-2.024 2.076-4.054 4.146-6.045 6.253-0.229 0.242-0.367 0.714-0.32 1.047 0.213 1.535 0.507 3.058 0.771 4.585zm271.89-157.43c-3.386 1.203-6.775 2.406-10.132 3.599-0.126 0.819-0.214 1.63-0.385 2.422-0.164 0.763-0.928 1.309-0.942 2.282 0.407-0.136 0.7-0.198 0.96-0.327 2.045-1.016 4.111-1.995 6.118-3.084 1.992-1.081 3.186-2.962 4.438-4.761 0.011-0.016-0.027-0.065-0.057-0.131zm-276.67 142.8c-2.248 1.365-6.26 10.253-6.053 13.05 0.123-0.056 0.253-0.083 0.342-0.161 2.316-2.011 3.972-4.55 5.634-7.082 0.159-0.242 0.278-0.555 0.291-0.841 0.055-1.165 0.088-2.333 0.072-3.499-6e-3 -0.444-0.168-0.886-0.286-1.467zm85.183 112.41c-0.252-0.541-0.428-0.927-0.61-1.31-1.055-2.218-2.114-4.433-3.167-6.651-0.37-0.778-0.711-1.571-1.097-2.342-0.114-0.229-0.334-0.403-0.506-0.603-0.3 4.053 0.448 7.928 0.923 11.937 1.575-0.08 2.993-0.241 4.457-1.031zm122.34-8.596c-0.191-1.843-0.387-3.591-0.544-5.341-0.046-0.51-0.171-0.936-0.635-1.193-1.393-0.772-2.761-1.6-4.198-2.279-0.787-0.372-1.684-0.586-2.757-0.343 2.766 3.113 5.437 6.12 8.134 9.156zm-133.95 4.389c-0.167 0.28-0.29 0.391-0.286 0.495 0.069 1.803 0.145 3.605 0.248 5.406 0.01 0.185 0.171 0.39 0.315 0.531 0.395 0.385 0.826 0.731 1.228 1.109 0.542 0.512 1.563 0.567 2.415 0.115 0.579-0.308 0.738-0.743 0.489-1.669-0.132-0.493-0.314-1.007-0.606-1.416-0.974-1.366-1.998-2.696-3.027-4.021-0.167-0.215-0.46-0.333-0.776-0.55zm-57.258-95.626c1.101-2.487 1.686-7.326 1.128-8.544-1.297 0.881-3.489 3.116-3.826 3.808 0.9 1.579 1.738 3.051 2.698 4.736zm52.311 107.67c0.716-0.681 1.335-1.205 1.866-1.807 0.193-0.219 0.303-0.651 0.236-0.936-0.505-2.128-1.691-3.895-2.993-5.729 0.134 2.306 0.231 4.436 0.399 6.56 0.049 0.612 0.304 1.207 0.492 1.912zm169.1-33.881c-0.229 1.309-0.464 2.614-0.682 3.923-0.027 0.16-0.01 0.367 0.072 0.499 0.586 0.935 1.195 1.854 1.796 2.78 0.107-0.029 0.214-0.058 0.321-0.087 0.017-0.49 0.066-0.982 0.043-1.471-0.065-1.421-0.167-2.84-0.239-4.26-0.051-1.045-0.069-1.077-1.311-1.384zm265.13 99.021c1.46-0.03 1.442-0.056 2.151-0.559 0.982-0.698 1.992-1.358 2.995-2.028 1.896-1.266 3.798-2.524 5.692-3.793 0.054-0.037 0.055-0.153 0.1-0.29-0.449-0.447-0.867-0.293-1.34 0.027-1.639 1.111-3.311 2.175-4.94 3.299-1.512 1.042-2.985 2.139-4.658 3.344zm-267.12-96.621c0.101-0.041 0.201-0.081 0.302-0.122 0.039-0.337 0.086-0.674 0.117-1.012 0.201-2.232 0.203-2.237-1.774-3.265-0.734-0.382-1.486-0.732-2.229-1.097-0.056 0.079-0.113 0.158-0.169 0.237 1.25 1.754 2.502 3.506 3.753 5.259zm24.559-6.123c0.077-0.017 0.154-0.034 0.23-0.051 0.096-0.547 0.225-1.091 0.272-1.642 0.024-0.278 0-0.656-0.167-0.842-1.021-1.137-2.169-2.137-3.318-3.135-0.065 0.06-0.131 0.119-0.197 0.178 1.061 1.831 2.121 3.662 3.18 5.492zm0.351 0.913c0.268 0.587 0.485 1.064 0.703 1.543 0.089-8e-3 0.178-0.016 0.267-0.023 0.376-0.969 0.753-1.937 1.159-2.984-0.471-0.251-0.64-0.809-1.362-0.842 0.306 0.958 0.249 1.751-0.767 2.306zm274.59 83.494c2.031 0.158 2.524 0.117 3.521-0.294-1.205-0.206-2.258-0.515-3.521 0.294z"/>
	<path d="m142.75 144.42c0.753-0.308 1.502-0.625 2.26-0.92 1.54-0.602 2.966-1.386 4.31-2.363 5.667-4.12 11.924-7.005 18.712-8.707 1.46-0.366 2.983-0.507 4.485-0.669 3.376-0.365 6.739-0.198 10.096 0.304 4.461 0.667 8.8 1.837 13.12 3.096 0.415 0.121 0.868 0.207 1.217 0.439 1.941 1.291 4.044 0.922 6.143 0.671 0.512-0.061 1.025-0.108 1.606-6e-3 -0.223 0.146-0.431 0.328-0.671 0.433-2.222 0.966-4.45 1.921-6.677 2.874-0.477 0.204-0.94 0.362-1.494 0.178-0.354-0.118-0.772-0.047-1.162-0.048-5.502-0.015-11.006-0.143-16.504-1e-3 -3.888 0.1-7.768 0.545-11.647 0.876-2.155 0.185-4.3 0.473-6.454 0.673-1.127 0.105-2.185 0.365-3.264 0.74-1.538 0.534-3.165 0.85-4.777 1.126-3.064 0.525-6.145 0.956-9.218 1.425-0.028-0.04-0.055-0.081-0.081-0.121zm46.881-7.607c0.016-0.079 0.031-0.157 0.046-0.236-0.167-0.092-0.325-0.229-0.503-0.268-2.027-0.445-4.039-1.001-6.089-1.281-3.641-0.497-7.303-0.833-10.959-1.209-0.371-0.039-0.787 0.036-1.138 0.171-3.632 1.396-7.258 2.812-10.88 4.235-0.306 0.12-0.578 0.329-0.865 0.496 5.04-0.858 10.077-1.537 15.148-1.741 5.073-0.205 10.159-0.123 15.24-0.167z"/>
	<path d="m232.56 186.98c-2.091-0.518-4.175-1.072-6.276-1.546-5.097-1.149-9.971-2.896-14.498-5.513-1.335-0.772-2.515-1.817-3.746-2.763-0.208-0.159-0.31-0.455-0.316-0.9 0.459 0.185 0.935 0.337 1.374 0.562 1.925 0.987 3.827 2.021 5.76 2.989 4.407 2.208 9.106 3.51 13.925 4.434 3.991 0.766 7.988 1.505 11.963 2.348 2.668 0.566 5.282 1.354 7.692 2.688 1.94 1.073 3.53 2.496 4.467 4.556 0.054 0.119 0.092 0.253 0.176 0.347 1.67 1.854 1.293 3.958 0.511 5.952-0.723 1.844-1.685 3.613-2.697 5.322-2.8 4.731-5.667 9.424-8.549 14.107-0.424 0.688-1.014 1.307-1.633 1.835-1.515 1.292-3.087 2.515-4.644 3.758-0.376 0.3-0.843 0.665-1.245 0.169-0.401-0.496 0.048-0.871 0.425-1.178 3.572-2.912 6.092-6.723 8.811-10.358 0.854-1.142 1.52-2.424 2.366-3.572 1-1.357 1.185-2.829 0.946-4.434-0.095-0.638-0.09-1.295-0.086-1.943 1e-3 -0.236 0.131-0.471 0.228-0.79 1.115 0.583 0.729 1.838 1.352 2.554 1.397-1.322 3.429-6.227 3.451-8.397-1.024-0.365-1.442-1.093-1.505-2.248-0.035-0.646-0.604-1.322-1.065-1.873-1.049-1.254-2.447-2.051-3.934-2.684-2.88-1.225-5.911-1.946-8.953-2.615-1.435-0.316-2.884-0.56-4.327-0.837l0.027 0.03z"/>
	<path d="m396.56 314.03c-0.083-1.751 0.303-3.163 0.928-4.501 0.988-2.115 2.08-4.184 3.062-6.302 1.545-3.334 3.032-6.655 3.607-10.373 0.635-4.097 1.729-8.122 2.59-12.185 0.692-3.265 1.21-6.552 1.188-9.905-6e-3 -0.906-0.173-1.688-0.884-2.341-0.438-0.403-0.789-0.926-1.093-1.445-0.209-0.358-0.35-0.797-0.382-1.211-0.062-0.79 0.385-1.348 1.109-1.54 0.662-0.176 1.463 0.133 1.686 0.86 0.323 1.059 0.938 1.921 1.477 2.853 0.3 0.521 0.34 1.242 0.348 1.875 0.053 4.219-0.574 8.367-1.366 12.496-0.873 4.547-1.735 9.095-2.615 13.64-0.115 0.594-0.254 1.193-0.476 1.752-1.053 2.653-2.062 5.32-3.538 7.791-1.198 2.004-2.201 4.122-3.349 6.157-0.398 0.705-0.952 1.327-1.473 1.956-0.141 0.169-0.419 0.224-0.819 0.423z"/>
	<path d="m276.79 204.5c-1.145 0.637-1.678-0.331-2.599-0.802 0.072 1.804-0.474 3.487 0.95 4.874 0.266 0.26 0.444 0.646 0.569 1.007 0.229 0.659 0.014 1.257-0.5 1.607-0.56 0.381-1.316 0.371-1.767-0.199-0.854-1.081-1.742-2.188-1.442-3.734 0.066-0.34 0.17-0.691 0.142-1.027-0.221-2.55 0.879-4.668 1.983-6.864 2.699-5.368 6.01-10.331 9.773-14.974 3.052-3.766 6.409-7.279 9.969-10.586 1.298-1.207 2.562-2.451 3.837-3.683 0.09-0.087 0.165-0.2 0.218-0.314 0.896-1.928 2.507-3.167 4.196-4.322 0.219-0.15 0.555-0.257 0.795-0.202 0.151 0.035 0.357 0.452 0.302 0.619-0.075 0.229-0.36 0.404-0.583 0.564-0.374 0.267-0.851 0.432-1.142 0.764-1.624 1.849-3.174 3.763-4.808 5.603-1.812 2.039-3.724 3.987-5.524 6.035-2.486 2.827-4.913 5.707-7.355 8.572-0.277 0.326-0.492 0.705-0.772 1.113 0.588 1.172 1.167 2.329 1.749 3.485 0.097 0.193 0.271 0.377 0.286 0.575 0.021 0.274-0.074 0.558-0.119 0.838-0.303-0.081-0.728-0.063-0.888-0.26-0.758-0.932-1.444-1.923-2.189-2.939-0.859 0.749-1.358 1.517-0.994 2.793 0.29 1.015 0.239 2.135 0.275 3.21 7e-3 0.228-0.267 0.465-0.411 0.698-0.207-0.176-0.489-0.313-0.605-0.536-0.309-0.591-0.546-1.22-0.931-2.109-0.648 0.938-1.123 1.625-1.563 2.264 0.548 1.552 1.062 3.008 1.582 4.478-1.072 0.225-1.072 0.225-2.391-2.407-0.771 0.823-1.188 1.822-1.476 2.797-0.131 0.443 0.379 1.093 0.639 1.63 0.233 0.488 0.523 0.951 0.794 1.432z"/>
	<path d="m456.38 182.05c0.038-0.144 0.082-0.309 0.127-0.474 0.372-1.361 0.912-1.829 2.293-1.771 0.699 0.03 1.257-0.152 1.808-0.542 4.624-3.271 9.28-6.499 13.873-9.813 2.541-1.833 5.259-3.335 8.073-4.673 0.771-0.367 1.631-0.565 2.466-0.777 0.474-0.121 0.992-0.063 1.252 0.437 0.274 0.53-0.081 0.919-0.453 1.226-0.397 0.329-0.825 0.631-1.274 0.885-3.508 1.979-6.945 4.056-10.034 6.674-1.152 0.977-2.416 1.823-3.634 2.723-2.818 2.081-5.618 4.187-8.471 6.218-0.757 0.538-1.641 0.972-2.531 1.23-1.832 0.531-2.364 0.271-3.495-1.343z"/>
	<path d="m328.06 213c-0.128-2.21 0.72-3.987 2.368-5.396 0.788-0.673 1.621-1.299 2.469-1.897 1.223-0.864 2.606-1.106 4.081-0.946 0.363 0.04 0.79 0.067 0.778 0.483-6e-3 0.248-0.321 0.563-0.576 0.715-1.829 1.09-3.538 2.325-5.061 3.825-0.896 0.883-1.4 1.928-1.21 3.15 0.292 1.875 0.558 3.783 1.142 5.578 1.27 3.908 2.733 7.752 4.116 11.624 0.378 1.06 0.766 2.117 1.114 3.186 0.147 0.449 0.245 0.923 0.294 1.393 0.052 0.495-0.062 0.974-0.595 1.18-0.517 0.2-0.969-2e-3 -1.252-0.426-0.431-0.646-0.876-1.304-1.166-2.018-1.353-3.326-2.713-6.651-3.955-10.02-1.002-2.719-1.906-5.481-2.322-8.369-0.098-0.684-0.151-1.375-0.225-2.062z"/>
	<path d="m435.88 337.26c1.545-1.267 2.513-2.953 3.503-4.621 0.265-0.445 0.568-0.89 0.724-1.376 0.773-2.421 2.151-4.524 3.473-6.651 1.399-2.253 2.048-4.743 2.565-7.297 0.197-0.969 0.408-1.951 0.766-2.868 0.558-1.43 0.907-2.882 0.957-4.413 0.012-0.345 0.028-0.694 0.092-1.033 0.187-1.009 0.827-1.562 1.769-1.56 0.923 2e-3 1.711 0.596 1.751 1.564 0.044 1.064-0.091 2.145-0.241 3.204-0.084 0.59-0.35 1.156-0.551 1.727-1.065 3.014-2.14 6.023-3.204 9.037-0.671 1.902-1.829 3.523-2.956 5.162-0.71 1.032-1.438 2.053-2.15 3.084-1.557 2.256-3.254 4.377-5.618 5.857-0.217 0.136-0.447 0.252-0.672 0.377-0.07-0.064-0.14-0.129-0.208-0.193z"/>
	<path d="m408.87 134.63c0.906-1.083 1.666-2.02 2.457-2.929 0.893-1.026 1.893-1.875 3.291-2.182 0.477-0.105 0.9-0.482 1.33-0.764 0.379-0.249 0.732-0.537 1.098-0.808 0.078 0.076 0.156 0.152 0.234 0.229-0.19 0.233-0.345 0.514-0.578 0.689-0.743 0.558-1.374 1.186-1.627 2.115-0.022 0.082-0.061 0.167-0.116 0.23-1.358 1.566-2.695 3.154-4.097 4.681-0.508 0.553-1.189 0.411-1.645 0.064-0.795 1.318-1.455 2.633-2.321 3.796-1.074 1.44-2.594 2.401-4.151 3.271-0.527 0.294-1.054 0.594-1.593 0.865-0.423 0.212-0.852 0.432-1.302 0.563-0.881 0.258-1.688 5e-3 -2.099-0.591-0.397-0.575-0.367-1.524 0.222-2.167 0.695-0.761 1.472-1.457 2.266-2.117 0.663-0.551 1.41-1 2.104-1.515 1.144-0.849 1.983-1.947 2.415-3.301 0.306-0.958 0.911-1.666 1.627-2.297 0.729-0.642 1.491-0.435 1.848 0.468 0.111 0.279 0.146 0.587 0.245 0.872 0.083 0.233 0.21 0.45 0.392 0.828z"/>
	<path d="m107.34 156.42c1.173-2.11 2.385-4.005 2.328-6.653 1.138 2.171 0.326 4.923-1.922 7.3-4.49-1.04-8.963-2.187-12.932-4.736-1.676-1.077-3.388-2.098-5.06-3.181-1.004-0.65-2.103-0.835-3.23-0.659-2.434 0.381-4.88 0.742-7.275 1.307-3.492 0.824-6.939 1.833-10.414 2.732-0.786 0.204-1.602 0.3-2.411 0.396-0.166 0.02-0.484-0.158-0.509-0.288-0.041-0.21 0.031-0.547 0.184-0.67 0.435-0.348 0.913-0.659 1.414-0.904 2.823-1.379 5.87-2.067 8.893-2.818 2.315-0.575 4.654-1.02 7.058-0.912 0.559 0.025 1.125 0.085 1.667 0.219 0.834 0.206 1.563 0.396 2.466-0.053 0.527-0.263 1.46 4e-3 2.091 0.293 1.491 0.684 2.938 1.479 4.354 2.311 2.503 1.471 4.972 3 7.792 3.815 0.789 0.228 1.579 0.496 2.387 0.598 0.917 0.116 1.641 0.456 2.218 1.177 0.203 0.257 0.517 0.425 0.901 0.726z"/>
	<path d="m594.43 232.85c0.231 0.098 0.506 0.145 0.688 0.3 1.575 1.337 3.158 2.669 4.684 4.064 0.395 0.361 0.63 0.92 0.875 1.42 0.799 1.627 1.486 3.318 2.828 4.613 0.185 0.177 0.354 0.396 0.455 0.628 1.088 2.482 3.048 4.402 4.343 6.75 0.187 0.338 0.393 0.709 0.688 0.938 2.192 1.698 2.512 4.348 3.428 6.689 0.134 0.344 0.104 0.771 0.078 1.155-0.051 0.792-0.455 1.299-1.08 1.438-0.674 0.151-1.288-0.056-1.608-0.786-0.639-1.458-1.164-2.967-1.732-4.456-0.228-0.597-0.432-1.202-0.666-1.796-0.604-1.523-1.134-3.084-1.85-4.554-1.052-2.161-2.063-4.34-3.677-6.201-0.919-1.059-1.498-2.41-2.246-3.62-0.405-0.654-0.776-1.347-1.285-1.913-0.807-0.898-1.748-1.675-2.571-2.56-0.551-0.593-0.996-1.286-1.488-1.934 0.044-0.057 0.09-0.116 0.136-0.175z"/>
	<path d="m390.44 147.78c-0.524 0.228-0.742 0.39-0.974 0.412-2.02 0.186-3.816 1.059-5.672 1.768-4.506 1.722-9.195 2.7-13.973 3.255-1.021 0.119-2.075 0.019-3.11-0.045-0.684-0.042-1.363-0.194-1.866-0.814 0.418-0.716 1.109-0.774 1.784-0.886 2.728-0.452 5.465-0.856 8.177-1.387 3.179-0.623 6.324-1.419 9.506-2.02 1.775-0.335 3.596-0.433 5.397-0.619 0.136-0.015 0.286 0.125 0.731 0.336z"/>
	<path d="m220.65 238.82c0.085-0.498 0.076-1.015 0.262-1.447 2.563-5.961 5.165-11.906 7.72-17.87 0.318-0.742 0.431-1.574 0.631-2.365 0.058-0.23 0.09-0.467 0.143-0.75 0.601 0.203 0.529 0.615 0.489 0.981-0.391 3.624-1.032 7.185-2.545 10.541-1.138 2.523-2.202 5.081-3.387 7.581-0.439 0.926-1.106 1.75-1.719 2.583-0.329 0.448-0.749 0.847-1.594 0.746z"/>
	<path d="m232.54 186.95c0.122 0.169 0.228 0.353 0.368 0.505 0.674 0.73 1.439 1.391 2.022 2.187 2.417 3.301 4.486 6.791 5.514 10.806 0.421 1.646 0.637 3.309 0.48 5.015-0.083 0.904-0.046 1.819-0.12 2.724-0.042 0.524-0.197 1.04-0.301 1.559-0.097-8e-3 -0.194-0.016-0.291-0.023-0.036-0.18-0.125-0.368-0.099-0.538 0.185-1.175 0.08-2.324-0.218-3.471-0.293-1.13-0.555-2.27-0.805-3.411-0.809-3.694-2.534-6.98-4.488-10.168-0.747-1.218-1.476-2.446-2.205-3.674-0.313-0.528-0.423-1.046 0.174-1.475-3e-3 -4e-3 -0.031-0.036-0.031-0.036z"/>
	<path d="m82.229 159.21c-1.183-0.182-2.394-0.226-3.469-0.876-0.476-0.288-0.988-0.602-1.52-0.692-0.749-0.126-1.487-0.119-2.205 0.427-0.889 0.676-1.848 0.296-2.306-0.752-0.575-1.318-0.13-2.474 0.676-3.505 0.677-0.866 1.878-1.06 3.099-0.56 0.472 0.193 0.903 0.5 1.325 0.795 0.456 0.318 0.884 0.676 1.313 1.03 0.231 0.191 0.579 0.377 0.636 0.621 0.346 1.487 1.689 2.217 2.451 3.512z"/>
	<path d="m618.5 305.64c0.075 0.1 0.176 0.188 0.223 0.299 2.198 5.116 4.938 9.985 6.723 15.299 1.131 3.365 2.159 6.744 2.967 10.194 0.285 1.216 0.534 2.44 0.787 3.664 0.116 0.564 0.103 0.566-0.403 1.288-0.684-0.628-0.893-1.513-1.051-2.302-1.016-5.057-2.85-9.876-4.2-14.83-1.169-4.288-3.224-8.196-4.76-12.321-0.147-0.397-0.3-0.792-0.45-1.188 0.054-0.035 0.108-0.069 0.164-0.103z"/>
	<path d="m230.84 226.87c0.547-1.612 1.153-3.208 1.626-4.842 0.491-1.697 0.919-3.419 1.253-5.154 0.326-1.694 0.49-3.418 0.742-5.127 0.247-1.67-3e-3 -3.396 0.399-5.037 0.695-2e-3 0.807 0.351 0.827 0.77 0.268 5.75-0.176 11.403-2.382 16.798-0.275 0.672-0.673 1.305-1.09 1.904-0.251 0.361-0.647 0.623-0.979 0.929-0.131-0.08-0.264-0.16-0.396-0.241z"/>
	<path d="m430.75 190.88c-0.691 0-1.385 0.035-2.073-8e-3 -1.017-0.064-1.815-0.536-2.299-1.453-0.687-1.301 0.067-2.636 1.531-2.649 1.164-0.01 2.333 0.039 3.493 0.146 0.965 0.088 1.862 0.402 2.431 1.288 0.401 0.627 0.509 1.299 0.15 1.963-0.321 0.596-0.896 0.755-1.549 0.73-0.561-0.021-1.123-4e-3 -1.685-4e-3 1e-3 -5e-3 1e-3 -9e-3 1e-3 -0.013z"/>
	<path d="m312.08 158.75c0.258 0.796 0.618 1.502-3e-3 2.167-0.508 0.544-0.937 9e-3 -1.453-0.172-0.662 0.778-1.464 1.212-2.481 0.663-0.651-0.351-1.071-0.889-1.049-1.663 0.03-1.052 0.914-1.239 1.693-1.545 0.041-0.313 0.013-0.64 0.135-0.895 0.138-0.288 0.406-0.719 0.626-0.725 0.704-0.02 1.156-0.55 1.739-0.706 0.767-0.205 1.61-0.24 2.407-0.176 0.621 0.049 1.03 0.694 1.051 1.31 0.023 0.688-0.3 1.19-0.936 1.4-0.519 0.173-1.08 0.22-1.729 0.342z"/>
	<path d="m277.9 260.05c-0.63 0.899-1.259 1.8-1.99 2.844 1.022 0.29 1.928 0.418 2.865 0.434 0.512 9e-3 1.042 0.032 1.529 0.172 0.345 0.099 0.817 0.344 0.907 0.626 0.229 0.722 0.793 0.959 1.354 1.267 0.928 0.511 1.722 1.171 2.091 2.204 0.11 0.308 0.168 0.681 0.103 0.994-0.095 0.458-0.656 0.66-1.023 0.393-0.865-0.63-1.74-1.254-2.542-1.959-0.402-0.354-0.651-0.882-1.018-1.397-0.09-8e-3 -0.267-0.062-0.425-0.028-2.026 0.417-3.375-0.619-4.532-2.086-0.562-0.711-0.571-0.968-0.017-1.707 0.801-1.069 1.4-1.532 2.698-1.757z"/>
	<path d="m327.29 133.8c-0.255-0.179-0.715-0.367-0.961-0.709-0.333-0.462-0.225-1.066 0.21-1.413 0.527-0.42 1.128-0.854 1.765-1.012 2.182-0.54 4.327-1.174 6.416-2.003 0.234-0.093 0.53-0.167 0.757-0.105 0.349 0.095 0.76 0.239 0.966 0.502 0.3 0.382-0.076 0.694-0.332 0.993-0.92 1.072-2.253 1.433-3.468 1.954-1.464 0.627-2.998 1.092-4.505 1.618-0.201 0.07-0.42 0.089-0.848 0.175z"/>
	<path d="m497.55 142.45c0.91 0.483 1.842 0.912 2.704 1.453 0.985 0.618 1.917 1.324 2.855 2.015 1.001 0.738 1.987 1.497 2.968 2.263 0.235 0.184 0.415 0.439 0.631 0.651 0.517 0.509 1.02 1.035 1.565 1.511 0.505 0.441 0.791 0.979 0.563 1.599-0.131 0.355-0.494 0.751-0.838 0.86-0.261 0.083-0.746-0.176-0.974-0.426-0.607-0.668-1.13-1.415-1.687-2.13-0.16-0.205-0.298-0.435-0.489-0.604-0.995-0.883-1.985-1.773-3.015-2.616-0.837-0.686-1.622-1.365-2.209-2.329-0.51-0.841-1.348-1.483-2.074-2.247z"/>
	<path d="m454.37 163.34c-0.289 0.086-0.572 0.218-0.867 0.251-3.047 0.346-6.091 0.717-9.144 0.998-2.855 0.262-5.623 0.884-8.351 1.736-0.947 0.296-1.9 0.58-2.863 0.819-0.411 0.103-0.863 0.144-1.277 0.083-0.21-0.031-0.377-0.351-0.563-0.541 0.202-0.193 0.438-0.578 0.602-0.549 2.102 0.373 3.848-0.769 5.714-1.327 3.939-1.179 7.99-1.364 12.046-1.575 1.206-0.063 2.408-0.186 3.613-0.27 0.334-0.023 0.671-4e-3 1.007-4e-3 0.027 0.127 0.055 0.253 0.083 0.379z"/>
	<path d="m440.97 187.9c0.555-1.424 1.852-1.835 2.985-2.403 0.962-0.482 1.994-0.841 3.105-0.757 0.334 0.026 0.697 0.083 0.984 0.239 0.759 0.414 0.816 1.306 0.044 1.616-1.792 0.718-3.627 1.338-5.469 1.92-0.576 0.183-1.208 0.047-1.649-0.615z"/>
	<path d="m305.68 159.21c0.543 0.93 0.837 1.835 0.875 2.827 0.017 0.452-0.011 0.911 0.06 1.354 0.148 0.923 0.176 1.803-0.525 2.543-0.454 0.479-0.728 0.48-1.171 4e-3 -0.463-0.497-1.622-4.249-1.418-4.874 0.123-0.376 0.401-0.75 0.708-1.006 0.38-0.316 0.865-0.509 1.471-0.848z"/>
	<path d="m313.1 153.03c-0.257-0.188-0.703-0.361-0.864-0.679-0.135-0.267-0.028-0.751 0.135-1.05 0.175-0.321 0.498-0.629 0.831-0.784 1.164-0.541 2.348-1.042 3.552-1.483 0.233-0.085 0.73 0.077 0.85 0.277 0.128 0.214 0.063 0.698-0.109 0.909-0.43 0.526-0.919 1.034-1.475 1.419-0.666 0.461-1.421 0.795-2.147 1.167-0.185 0.094-0.405 0.12-0.773 0.224z"/>
	<path d="m431.89 416c-1.299 0.763-2.368 0.997-3.508 0.915-1.089-0.078-2.089-0.916-2.348-1.934-0.13-0.51-0.073-0.99 0.394-1.259 0.541-0.312 0.902 0.051 1.147 0.502 0.39 0.716 1.014 0.999 1.784 1.135 0.755 0.134 1.492 0.372 2.531 0.641z"/>
	<path d="m487.85 364.56c-1.027 0.11-1.461-0.554-2.026-0.973-0.588-0.436-1.178-0.871-1.798-1.257-0.582-0.362-1.205-0.658-1.809-0.985-0.627-0.34-1.366-0.529-1.771-1.289 0.513-0.5 1.017-0.328 1.542-0.13 1.488 0.563 2.615 1.642 3.786 2.65 0.674 0.581 1.292 1.23 2.076 1.984z"/>
	<path d="m129.62 146.38c1.819 0.726 3.542 1.214 4.978 2.512-1.563 0.775-3.941-0.427-4.978-2.512z"/>
	<path d="m114.08 149.19c0.45 1.184 0.519 2.044 0.036 2.893-1.234-0.188-2.055-1.192-2.042-2.572 0.271 0.24 0.502 0.416 0.699 0.625 0.201 0.214 0.368 0.461 0.637 0.805 0.224-0.587 0.401-1.049 0.67-1.751z"/>
	<path d="m128.81 307.61c1.202-0.476 3.493-0.247 4.571 0.405-1.581 0.524-3.026 0.722-4.571-0.405z"/>
	<path d="m132.97 306.52c0.696-0.47 1.462-0.354 2.2-0.24 0.411 0.063 0.49 0.517 0.189 0.777-0.635 0.552-1.845 0.299-2.389-0.537z"/>
	<path d="m153 292.42c0.609-0.839 1.297-0.842 1.907-0.98 0.143-0.033 0.391 0.139 0.496 0.284 0.064 0.089-1e-3 0.398-0.097 0.452-0.404 0.229-0.827 0.471-1.273 0.561-0.265 0.053-0.584-0.169-1.033-0.317z"/>
	<path d="m156.63 288.95c-0.474-0.846-0.155-1.702 0.613-1.714 0.245-4e-3 0.612 0.177 0.705 0.376 0.083 0.178-0.057 0.585-0.231 0.734-0.309 0.264-0.72 0.41-1.087 0.604z"/>
	<path d="m447.43 363.71c0.388-0.294 0.813-0.551 1.153-0.893 0.356-0.358 0.631-0.8 0.944-1.208 0.276 1.422-0.586 2.437-2.097 2.101z"/>
	<path d="m117.08 151.62c-0.136-1.02-0.699-1.84 0.11-2.632 0.519 0.084 0.626 0.421 0.652 0.827 0.041 0.661-0.154 1.213-0.762 1.805z"/>
	<path d="m134.09 147.39c1.03-0.703 1.698 0.148 2.48 0.252-1.208 0.757-1.587 0.72-2.48-0.252z"/>
	<path d="m119.03 290.02c0.209 0.302 0.417 0.603 0.626 0.904-0.041 0.033-0.082 0.066-0.123 0.1-0.227-0.285-0.454-0.569-0.681-0.854 0.06-0.05 0.119-0.101 0.178-0.15z"/>
</g>
</svg>
