<?xml version="1.0" encoding="UTF-8" standalone="no"?>
<!-- Created with Inkscape (http://www.inkscape.org/) -->

<svg
   xmlns:dc="http://purl.org/dc/elements/1.1/"
   xmlns:cc="http://creativecommons.org/ns#"
   xmlns:rdf="http://www.w3.org/1999/02/22-rdf-syntax-ns#"
   xmlns:svg="http://www.w3.org/2000/svg"
   xmlns="http://www.w3.org/2000/svg"
   xmlns:xlink="http://www.w3.org/1999/xlink"
   xmlns:sodipodi="http://sodipodi.sourceforge.net/DTD/sodipodi-0.dtd"
   xmlns:inkscape="http://www.inkscape.org/namespaces/inkscape"
   width="32.045799mm"
   height="25.525343mm"
   viewBox="0 0 113.5481 90.444126"
   id="svg2"
   version="1.1"
   inkscape:version="0.91 r13725"
   sodipodi:docname="Elefant-lineart.svg">
  <title
     id="title4136">elefant - lineart</title>
  <defs
     id="defs4">
    <pattern
       inkscape:collect="always"
       xlink:href="#Polkadots-large"
       id="pattern6768"
       patternTransform="matrix(0.31035648,0,0,0.44545162,101.3528,1035.8514)" />
    <pattern
       inkscape:collect="always"
       xlink:href="#Polkadots-large"
       id="pattern6676"
       patternTransform="matrix(0.45000113,0,0,0.62500111,40.70079,944.06691)" />
    <pattern
       inkscape:collect="always"
       xlink:href="#Wavy"
       id="pattern6584"
       patternTransform="matrix(0.05194959,0.03281216,-0.22079669,0.3495746,97.63708,1036.4886)" />
    <pattern
       inkscape:stockid="Wavy"
       id="Wavy"
       height="5.1805778"
       width="30.066020"
       patternUnits="userSpaceOnUse"
       inkscape:collect="always">
      <path
         id="path5872"
         d="M 7.597,0.061 C 5.079,-0.187 2.656,0.302 -0.01,1.788 L -0.01,3.061 C 2.773,1.431 5.173,1.052 7.472,1.280 C 9.770,1.508 11.969,2.361 14.253,3.218 C 18.820,4.931 23.804,6.676 30.066,3.061 L 30.062,1.788 C 23.622,5.497 19.246,3.770 14.691,2.061 C 12.413,1.207 10.115,0.311 7.597,0.061 z "
         style="fill:black;stroke:none;" />
    </pattern>
    <pattern
       inkscape:collect="always"
       xlink:href="#Polkadots-large"
       id="pattern6300"
       patternTransform="matrix(0.6732233,0,0,0.81412428,92.291108,963.19223)" />
    <pattern
       inkscape:collect="always"
       xlink:href="#Polkadots-large"
       id="pattern6208"
       patternTransform="matrix(0.66619048,0,0,0.73690116,28.284271,896.6114)" />
    <pattern
       inkscape:collect="always"
       xlink:href="#Polkadots-large"
       id="pattern6116"
       patternTransform="scale(0.79999999,0.79999999)" />
    <pattern
       inkscape:collect="always"
       xlink:href="#Polkadots-large"
       id="pattern6005"
       patternTransform="matrix(0.92499999,0,0,0.89999999,110.83898,1010.8092)" />
    <pattern
       inkscape:stockid="Polka dots, large"
       id="Polkadots-large"
       patternTransform="translate(0,0) scale(10,10)"
       height="10"
       width="10"
       patternUnits="userSpaceOnUse"
       inkscape:collect="always">
      <circle
         id="circle5694"
         r="0.45"
         cy="0.810"
         cx="2.567"
         style="fill:black;stroke:none" />
      <circle
         id="circle5696"
         r="0.45"
         cy="2.33"
         cx="3.048"
         style="fill:black;stroke:none" />
      <circle
         id="circle5698"
         r="0.45"
         cy="2.415"
         cx="4.418"
         style="fill:black;stroke:none" />
      <circle
         id="circle5700"
         r="0.45"
         cy="3.029"
         cx="1.844"
         style="fill:black;stroke:none" />
      <circle
         id="circle5702"
         r="0.45"
         cy="1.363"
         cx="6.08"
         style="fill:black;stroke:none" />
      <circle
         id="circle5704"
         r="0.45"
         cy="4.413"
         cx="5.819"
         style="fill:black;stroke:none" />
      <circle
         id="circle5706"
         r="0.45"
         cy="4.048"
         cx="4.305"
         style="fill:black;stroke:none" />
      <circle
         id="circle5708"
         r="0.45"
         cy="3.045"
         cx="5.541"
         style="fill:black;stroke:none" />
      <circle
         id="circle5710"
         r="0.45"
         cy="5.527"
         cx="4.785"
         style="fill:black;stroke:none" />
      <circle
         id="circle5712"
         r="0.45"
         cy="5.184"
         cx="2.667"
         style="fill:black;stroke:none" />
      <circle
         id="circle5714"
         r="0.45"
         cy="1.448"
         cx="7.965"
         style="fill:black;stroke:none" />
      <circle
         id="circle5716"
         r="0.45"
         cy="5.049"
         cx="7.047"
         style="fill:black;stroke:none" />
      <circle
         id="circle5718"
         r="0.45"
         cy="0.895"
         cx="4.340"
         style="fill:black;stroke:none" />
      <circle
         id="circle5720"
         r="0.45"
         cy="0.340"
         cx="7.125"
         style="fill:black;stroke:none" />
      <circle
         id="circle5722"
         r="0.45"
         cy="1.049"
         cx="9.553"
         style="fill:black;stroke:none" />
      <circle
         id="circle5724"
         r="0.45"
         cy="2.689"
         cx="7.006"
         style="fill:black;stroke:none" />
      <circle
         id="circle5726"
         r="0.45"
         cy="2.689"
         cx="8.909"
         style="fill:black;stroke:none" />
      <circle
         id="circle5728"
         r="0.45"
         cy="4.407"
         cx="9.315"
         style="fill:black;stroke:none" />
      <circle
         id="circle5730"
         r="0.45"
         cy="3.870"
         cx="7.820"
         style="fill:black;stroke:none" />
      <circle
         id="circle5732"
         r="0.45"
         cy="5.948"
         cx="8.270"
         style="fill:black;stroke:none" />
      <circle
         id="circle5734"
         r="0.45"
         cy="7.428"
         cx="7.973"
         style="fill:black;stroke:none" />
      <circle
         id="circle5736"
         r="0.45"
         cy="8.072"
         cx="9.342"
         style="fill:black;stroke:none" />
      <circle
         id="circle5738"
         r="0.45"
         cy="9.315"
         cx="8.206"
         style="fill:black;stroke:none" />
      <circle
         id="circle5740"
         r="0.45"
         cy="9.475"
         cx="9.682"
         style="fill:black;stroke:none" />
      <circle
         id="circle5742"
         r="0.45"
         cy="6.186"
         cx="9.688"
         style="fill:black;stroke:none" />
      <circle
         id="circle5744"
         r="0.45"
         cy="6.296"
         cx="3.379"
         style="fill:black;stroke:none" />
      <circle
         id="circle5746"
         r="0.45"
         cy="8.204"
         cx="2.871"
         style="fill:black;stroke:none" />
      <circle
         id="circle5748"
         r="0.45"
         cy="8.719"
         cx="4.59"
         style="fill:black;stroke:none" />
      <circle
         id="circle5750"
         r="0.45"
         cy="9.671"
         cx="3.181"
         style="fill:black;stroke:none" />
      <circle
         id="circle5752"
         r="0.45"
         cy="7.315"
         cx="5.734"
         style="fill:black;stroke:none" />
      <circle
         id="circle5754"
         r="0.45"
         cy="6.513"
         cx="6.707"
         style="fill:black;stroke:none" />
      <circle
         id="circle5756"
         r="0.45"
         cy="9.670"
         cx="5.730"
         style="fill:black;stroke:none" />
      <circle
         id="circle5758"
         r="0.45"
         cy="8.373"
         cx="6.535"
         style="fill:black;stroke:none" />
      <circle
         id="circle5760"
         r="0.45"
         cy="7.154"
         cx="4.37"
         style="fill:black;stroke:none" />
      <circle
         id="circle5762"
         r="0.45"
         cy="7.25"
         cx="0.622"
         style="fill:black;stroke:none" />
      <circle
         id="circle5764"
         r="0.45"
         cy="5.679"
         cx="0.831"
         style="fill:black;stroke:none" />
      <circle
         id="circle5766"
         r="0.45"
         cy="8.519"
         cx="1.257"
         style="fill:black;stroke:none" />
      <circle
         id="circle5768"
         r="0.45"
         cy="6.877"
         cx="1.989"
         style="fill:black;stroke:none" />
      <circle
         id="circle5770"
         r="0.45"
         cy="3.181"
         cx="0.374"
         style="fill:black;stroke:none" />
      <circle
         id="circle5772"
         r="0.45"
         cy="1.664"
         cx="1.166"
         style="fill:black;stroke:none" />
      <circle
         id="circle5774"
         r="0.45"
         cy="0.093"
         cx="1.151"
         style="fill:black;stroke:none" />
      <circle
         id="circle5776"
         r="0.45"
         cy="10.093"
         cx="1.151"
         style="fill:black;stroke:none" />
      <circle
         id="circle5778"
         r="0.45"
         cy="4.451"
         cx="1.302"
         style="fill:black;stroke:none" />
      <circle
         id="circle5780"
         r="0.45"
         cy="3.763"
         cx="3.047"
         style="fill:black;stroke:none" />
    </pattern>
  </defs>
  <sodipodi:namedview
     id="base"
     pagecolor="#ffffff"
     bordercolor="#666666"
     borderopacity="1.0"
     inkscape:pageopacity="0.0"
     inkscape:pageshadow="2"
     inkscape:zoom="4"
     inkscape:cx="70.93806"
     inkscape:cy="15.050404"
     inkscape:document-units="mm"
     inkscape:current-layer="layer1"
     showgrid="false"
     inkscape:window-width="1359"
     inkscape:window-height="1047"
     inkscape:window-x="977"
     inkscape:window-y="69"
     inkscape:window-maximized="0"
     inkscape:snap-global="false"
     showguides="false"
     fit-margin-top="1"
     fit-margin-right="1"
     fit-margin-bottom="1"
     fit-margin-left="1" />
  <metadata
     id="metadata7">
    <rdf:RDF>
      <cc:Work
         rdf:about="">
        <dc:format>image/svg+xml</dc:format>
        <dc:type
           rdf:resource="http://purl.org/dc/dcmitype/StillImage" />
        <dc:title>elefant - lineart</dc:title>
        <cc:license
           rdf:resource="http://creativecommons.org/publicdomain/zero/1.0/" />
        <dc:date>2015-02-17</dc:date>
        <dc:creator>
          <cc:Agent>
            <dc:title>Frank Tremmel</dc:title>
          </cc:Agent>
        </dc:creator>
        <dc:subject>
          <rdf:Bag>
            <rdf:li>elefant</rdf:li>
            <rdf:li>animal</rdf:li>
            <rdf:li>tier</rdf:li>
            <rdf:li>outline</rdf:li>
            <rdf:li>line art</rdf:li>
            <rdf:li />
          </rdf:Bag>
        </dc:subject>
        <dc:description>line art elefant</dc:description>
      </cc:Work>
      <cc:License
         rdf:about="http://creativecommons.org/publicdomain/zero/1.0/">
        <cc:permits
           rdf:resource="http://creativecommons.org/ns#Reproduction" />
        <cc:permits
           rdf:resource="http://creativecommons.org/ns#Distribution" />
        <cc:permits
           rdf:resource="http://creativecommons.org/ns#DerivativeWorks" />
      </cc:License>
    </rdf:RDF>
  </metadata>
  <g
     inkscape:label="Ebene 1"
     inkscape:groupmode="layer"
     id="layer1"
     transform="translate(5.4161584,-955.52136)"
     style="display:inline">
    <path
       style="fill:#ffffff;fill-rule:evenodd;stroke:#ffff00;stroke-width:0.35433072;stroke-linecap:butt;stroke-linejoin:miter;stroke-miterlimit:4;stroke-dasharray:none;stroke-opacity:1"
       d="m 35.875,1032.9872 -0.125,-10.5 c -3.143943,-4.0194 -3,-9.5 -4.5,-14.25 l -1.0625,-5.5625 0.3125,-5.0625 -2.875,0 c 1.33166,-1.64357 2.2087,-3.48199 2.375,-5.625 -2.534328,1.37467 -4.274562,1.23255 -5.3125,-0.875 -0.276961,2.59808 -3.219622,6.98679 -7.5625,7.5 l -1.9375,16.3125 c -1.122941,3.3344 -1.534079,7.0559 -4.5625,9.4375 -1.8770985,1.3522 -3.6645462,1.8976 -5.375,1.75 -0.5266865,1.1032 -1.4005132,0.2972 -2.25,-0.375 -1.9500368,1.1204 -1.7859311,-0.1082 -2.375,-0.5 l 0.5,-2.5 c -1.46887996,-0.057 -0.83905345,-1.1638 -0.75,-2 l 2.25,-1 2.5,1.25 c 1.4583047,0.611 2.1365045,-1.3848 2.625,-2.875 0.083333,-5.9691 0.1666667,-11.5877 0.25,-18 l 1.25,-5.25 c -1.2520156,1.10977 -2.078843,2.50299 -4.25,3 -3.0522842,0.6328 -4.68798479,-1.19662 -5.625,-2.375 3.7286322,-0.86801 6.970298,-2.26725 8.875,-5.125 -0.9948758,-0.25512 -1.3447081,-1.15529 -1.875,-1.875 0.3015633,-1.05635 1.0405537,-2.02522 3,-2.75 -1.8026531,-3.64469 -3.0706646,-8.35867 -3.75,-13.75 -0.1499322,-3.21457 1.5621302,-5.96363 2.625,-8.875 1.704171,-1.19564 0.7959334,-2.74752 5.75,-3.5 2.265177,0.13256 2.856275,1.26957 3.5,2.375 1.664841,-0.71558 2.386314,-1.58839 5.875,-2 l 5.75,2.375 c 2.924567,-0.97935 5.313996,-2.18167 10.125,-2.375 4.321795,-0.0541 7.508622,1.40517 10.875,2.625 1.75,1.20833 3.130764,3.15514 5.25,3.625 1.281331,1.01306 3.730227,1.53434 6.25,1 l 11.8125,-3 c 4.359393,-0.51045 7.780546,0.98058 10.8125,2.3125 4.339292,2.84374 8.887152,6.21499 12,10.6875 l 5.375,9.125 c 1.10237,2.74683 1.64732,5.58656 1.75,8.5 -0.48961,2.17706 -1.10263,3.9807 -1.4375,6.3125 -1.11351,2.7787 -0.25722,5.3965 -0.1875,6.5625 0.24893,3.5518 0.25671,7.0433 1.125,10.75 l 1.375,5.5 c 0.19294,1.3087 -0.66409,0.9375 -1.25,1 l 0.625,2.6875 -2,-0.6875 -2.25,2 c -0.610734,-0.4595 -0.900978,-1.3179 -0.6875,-4.25 l -0.9375,-0.5 c 1.16267,-1.7771 2.39351,-3.3769 2.75,-7.25 l -1.625,-8.625 c -0.383196,-2.1127 -0.560115,-4.5348 0.375,-8.625 1.44804,-2.89069 0.04526,-4.35596 0,-6.5 -2.014626,7.5206 -6.491407,14.3026 -10,21.375 -0.671505,1.8353 -0.218698,3.2208 -0.125,4.75 1.525359,3.433 3.479241,6.4374 4.25,10.625 -0.166201,1.4304 0.306326,2.6479 -0.75,4.375 -2.053799,1.1509 -3.987059,1.2169 -5.875,0.875 l -1.875,2.375 c -1.041667,1.3818 -2.083333,1.4903 -3.125,1.75 -1.728468,0.6199 -2.576984,0.01 -3.5,-0.5 -1.861341,1.181 -2.65993,0.2365 -3.375,-0.875 -0.875,0 -1.75,1.5771 -2.625,-1.625 0.260648,-1.8256 1.303031,-3.8466 4.875,-6.5 1.32092,-3.0916 2.800251,-6.0021 3,-10.375 -1.826274,-4.4638 -3.883513,-8.4079 -6.375,-11.375 -4.882155,0.839 -6.639777,-0.7771 -9.375,-1.625 l -0.5,6.25 1.375,5.75 -0.125,5.625 c 0.935912,1.6827 0.88318,4.0715 2.875,5 1.083901,1.8329 2.425095,3.0763 2.125,5.875 0.06782,1.2049 -0.964539,2.8248 -2.625,4 -1.852422,0.9139 -2.968311,0.6493 -4,0.25 -2.317993,1.2383 -3.281886,0.2198 -4.125,-1 -2.005323,0.771 -2.301837,-0.7364 -2.875,-1.875 l 1.875,-2.75 c 1.287515,-1.4583 0.510336,-2.9167 -0.5,-4.375 -1.385464,-1.1405 -2.142547,-3.852 -2.875,-6.625 -0.212145,-3.0609 -1.089558,-6.3594 -3.625,-10.25 l -2.875,-4.75 0,-3.8125 c -1.345585,-0.9399 -2.747383,-1.8358 -4,-1.375 l -0.75,14.6875 2.125,14.25 1.625,5.125 c -0.131199,1.7677 -1.719398,2.807 -2.75,4.125 l -2.1875,0.9375 c -1.409938,0.8544 -2.523135,-0.01 -3.3125,-0.6875 -1.25,0.4586 -2.5,0.6769 -3.75,-1 -1.636675,0.3761 -3.057279,0.347 -3.375,-1.75 0.216106,-1.3856 0.456364,-2.6745 1,-2.75 z"
       id="path6022"
       inkscape:connector-curvature="0"
       sodipodi:nodetypes="ccccccccccccccccccccccccccccccccccccccccccccccccccccccccccccccccccccccccccccccccccccccccccccccc" />
    <path
       style="color:#000000;font-style:normal;font-variant:normal;font-weight:normal;font-stretch:normal;font-size:medium;line-height:normal;font-family:sans-serif;text-indent:0;text-align:start;text-decoration:none;text-decoration-line:none;text-decoration-style:solid;text-decoration-color:#000000;letter-spacing:normal;word-spacing:normal;text-transform:none;direction:ltr;block-progression:tb;writing-mode:lr-tb;baseline-shift:baseline;text-anchor:start;white-space:normal;clip-rule:nonzero;display:inline;overflow:visible;visibility:visible;opacity:1;isolation:auto;mix-blend-mode:normal;color-interpolation:sRGB;color-interpolation-filters:linearRGB;solid-color:#000000;solid-opacity:1;fill:#000000;fill-opacity:1;fill-rule:evenodd;stroke:none;stroke-width:1.77165353;stroke-linecap:butt;stroke-linejoin:bevel;stroke-miterlimit:4;stroke-dasharray:none;stroke-dashoffset:0;stroke-opacity:1;color-rendering:auto;image-rendering:auto;shape-rendering:auto;text-rendering:auto;enable-background:accumulate"
       d="m 29.029906,961.66627 c -1.241,-0.80447 -2.904289,-1.49087 -4.584413,-1.84229 -2.246791,-0.46994 -5.086188,0.15918 -6.423557,1.40609 -1.240477,-1.3414 -1.626978,-1.92867 -3.044538,-2.10792 -3.391034,-0.42881 -6.0326217,1.58933 -7.7353,4.45993 -1.6292112,2.74675 -2.3987893,6.27397 -2.1427539,9.18483 0.4078268,4.63657 1.8601906,8.31811 3.3752653,12.70819 -1.347106,0.68558 -2.1335927,1.53945 -2.3987434,2.11622 -0.518155,1.12712 0.6334933,2.09391 0.9835848,2.71653 -0.5843813,0.68772 -1.4692189,1.56666 -2.2860803,2.17253 -1.8032463,1.33747 -4.3472864,1.88569 -6.6462218,2.71198 1.51031662,2.31923 4.1510632,3.64876 6.4299903,3.40239 1.8874928,-0.20405 3.0806918,-1.24031 3.971305,-2.21994 -0.4983291,1.54921 -1.0118973,3.32189 -1.2092773,5.00289 -0.512354,4.3635 -0.00457,9.75 -0.163437,14.5993 -0.063829,1.9484 0.170582,3.3723 -1.4714467,4.2107 -0.7368411,0.3762 -1.8432636,-0.8825 -2.9401916,-1.052 -0.8762412,-0.1354 -2.34973778,0.8812 -2.71776677,1.346 -1.20200173,1.5179 0.0866665,2.4834 0.51451246,2.9411 -0.50950156,1.5532 -0.19969855,3.0306 0.63761841,3.4051 0.3909512,0.1749 1.4404158,-0.2728 1.9254015,-0.4443 0.360472,0.3396 1.0563029,0.9371 1.4292881,0.9453 0.3822467,0.01 1.0106868,-0.2515 1.2884662,-0.5975 1.7291804,-0.2455 3.5165354,-0.8371 4.6704207,-1.5713 1.595934,-1.0154 3.111098,-3.0035 4.049651,-5.4125 1.160781,-2.9795 2.021946,-7.1331 2.295193,-10.3566 0.295208,-3.4826 0.644924,-7.0448 1.270123,-10.48224 1.677702,-0.11354 3.048806,-1.04818 4.364526,-2.38442 1.100303,-1.11746 2.070179,-2.91835 2.305661,-4.3771 0.534532,0.78941 1.208608,1.28055 2.268309,1.34251 1.116505,0.0653 1.416647,-0.0643 1.961527,-0.45422 -0.124054,1.3049 -2.097224,4.0004 -1.911312,5.11439 0.1158,0.69387 1.793047,0.26942 2.456018,0.52377 0.147205,1.15888 0.178054,2.36181 -0.168652,3.74401 0.4456,2.669 0.900747,5.3482 1.463284,7.9998 0.961533,4.5324 1.92432,9.2344 4.00198,13.4185 0.764556,2.9728 -0.307485,5.877 0.479785,8.8972 -2.22578,1.9731 -4.18169,1.8636 -3.464637,6.6566 0.906991,0.7273 2.331103,1.7272 3.388578,0.9052 0.615136,1.5002 3.282916,2.0945 4.10575,1.1544 0.969136,1.4838 2.725074,0.9298 3.913783,0.5414 1.434677,-0.4688 2.680383,-1.3338 3.554224,-2.677 3.18659,-2.495 -0.43864,-5.4708 -0.318243,-8.3578 -1.345665,-6.664 -2.589468,-13.5339 -1.289987,-20.305 0.283424,-2.7268 -0.05103,-4.8644 -0.02423,-7.6034 1.407345,-0.1096 2.582409,0.6175 2.902626,1.3288 0.155093,2.0725 -1.02009,4.239 0.935528,5.7836 2.1171,2.0234 3.09313,4.7646 4.19547,7.4225 1.013503,2.4437 1.410964,5.6382 1.885274,8.262 0.441227,2.4408 3.11886,3.8981 3.326183,5.9315 0.103934,1.0194 -0.599677,2.0176 -1.696764,3.4229 -1.078759,1.3818 -0.516684,2.6814 0.72561,3.6437 0.347788,0.2694 1.248888,0.2624 1.744723,-0.027 0.250872,0.6205 0.213498,1.0919 0.624121,1.223 0.614412,0.1962 1.252327,0.3302 1.867664,0.3899 0.662961,0.064 1.206215,-0.244 1.922895,-0.7311 0.431704,0.2755 1.042893,0.6444 1.512753,0.5483 1.415072,-0.2894 2.682035,-0.8325 3.573803,-1.5547 1.527248,-1.0326 2.296921,-2.2579 2.255902,-3.6536 -0.07769,-2.6435 -2.359265,-6.0234 -4.026141,-7.9044 -2.354737,-3.8983 -0.214283,-8.9114 -1.734495,-13.0648 -0.804244,-2.1973 -0.481826,-4.7139 -0.352733,-6.3588 1.593971,0.2208 2.104077,0.6001 4.135342,0.9361 1.399883,0.2315 2.683431,0.4605 4.334275,0.4842 1.056832,1.796 2.571994,3.9009 3.65346,5.4057 1.051778,1.4635 1.636885,4.2333 1.890286,5.9206 0.314871,2.0966 -0.135383,2.8673 -0.735793,5.1133 -0.428155,1.6017 -1.383942,2.652 -1.819897,4.0733 -2.434228,1.0467 -4.269634,3.9287 -4.632094,6.7342 0.149747,1.6889 1.356246,3.2449 3.044514,2.2486 0.282608,1.4035 2.274749,1.7605 3.616879,0.873 1.403712,0.9262 2.872668,0.3769 3.95845,0.4109 1.95547,-0.6592 2.416059,-0.9127 4.497188,-3.6537 1.977481,0.381 4.330912,-0.1193 6.267779,-1.363 2.054329,-2.9888 0.602733,-6.6839 -0.710491,-10.0176 -1.876879,-4.7646 -3.312662,-5.3543 -2.735767,-9.9129 1.687479,-3.0157 3.908995,-7.3007 5.913363,-11.3304 1.365528,-2.7453 2.748679,-5.2775 3.330239,-7.57973 0.0015,4.52803 -1.129407,7.73363 -0.772518,12.10623 0.298293,3.6547 2.580743,7.0788 1.736444,10.5362 0.05466,1.057 -1.40386,3.0126 -1.965724,4.1546 -0.830929,1.6888 -0.794237,2.2964 0.507428,2.0752 -1.155081,2.073 -0.309552,3.3847 0.780434,4.5529 1.055381,-0.5674 1.398941,-0.9202 2.397121,-2.1476 0.83349,0.8408 1.74587,0.9509 2.65834,0.5869 -0.12127,-0.7817 -0.42673,-1.4409 -0.6194,-2.4219 2.2136,0.5717 0.1623,-4.9256 -0.4562,-7.3322 -0.3259,-1.9753 -0.41373,-4.1007 -0.69256,-6.2421 -0.56802,-4.3624 -1.02496,-8.8797 0.64596,-12.98915 1.97898,-4.8671 0.25628,-10.56527 -2.06127,-15.16325 -3.537329,-7.01799 -8.979922,-12.9171 -15.514135,-17.1761 -5.604079,-3.72041 -12.725493,-3.82382 -18.939615,-1.70575 -4.110871,2.119 -8.738233,2.85782 -11.948398,0.52345 -3.183169,-3.35779 -9.416032,-5.75774 -13.923882,-6.00945 -6.129283,-0.34225 -7.580681,0.65848 -11.665634,2.26702 z m 11.735732,-0.50367 c 4.069387,-0.10558 7.850071,0.91543 10.931876,3.57507 1.817656,1.56866 2.706127,3.35513 3.501718,4.66907 -1.836148,-0.55281 -4.867113,-0.21349 -5.631904,1.06933 4.388048,-2.09396 9.567573,2.27926 9.038176,6.28209 -1.251819,2.53939 -3.09104,6.84146 -6.540666,8.21589 -0.644294,-1.68484 -4.118847,-4.53156 -5.614189,-4.45991 1.755596,1.53035 4.495293,3.76266 4.395633,5.62298 -0.556646,0.69655 -0.699998,1.03429 -2.017759,2.13079 -1.542862,1.2838 -2.720695,1.86066 -3.93566,2.45811 -1.461728,-1.1991 -3.474353,-3.87333 -4.399041,-5.37978 -0.05906,2.3137 1.933351,4.68437 2.754297,6.13217 -4.084084,1.07596 -9.968417,5.89707 -14.189204,5.46521 0.830341,-1.15657 1.614661,-2.57958 1.535255,-4.34045 -0.09131,-2.02488 0.424625,-6.28994 -0.492043,-8.26883 -0.538546,3.26973 0.09903,5.35859 -0.990138,6.75763 -0.763727,0.9342 -1.401042,0.95318 -2.14459,1.01265 -0.776417,0.0621 -1.955268,-0.75058 -1.825561,-2.4917 0.5028,-0.0524 0.831504,-1.89834 0.805442,-3.23005 -0.03626,-1.85296 0.04169,-3.48031 0.971611,-4.5073 1.430406,-0.66729 2.098089,-1.10939 4.183271,-2.24931 0.811668,-0.44372 1.437691,-0.88472 1.757708,-1.60302 0.330515,-0.74187 0.393627,-1.65025 0.239568,-2.63312 -0.239554,-1.52832 -0.70581,-1.94503 -2.269347,-2.64358 1.434129,1.73416 1.699658,3.38963 0.806957,4.8246 -1.118755,1.79835 -3.482334,2.83365 -5.24641,3.10314 -1.129239,1.35868 -1.01284,3.41708 -1.209693,5.11499 -0.143205,1.23518 -0.330083,2.75267 -0.677751,3.76379 -0.100122,0.29118 -1.168054,-1.22542 -1.707349,-1.223 -0.664291,0.003 -1.163378,-0.0137 -1.656756,0.6529 -0.296226,-1.44329 -0.274501,-3.09063 0.157372,-4.69076 0.404554,-1.49891 1.744242,-4.12782 1.527011,-4.48586 -0.284476,-0.46886 -1.624108,1.66738 -2.284617,3.76334 -1.506154,4.7794 1.38081,7.66397 -2.6339,10.57917 -2.069996,1.38211 -5.496669,0.0573 -7.158464,0.492 1.13956,2.13143 3.367443,3.40811 5.724201,4.23321 -0.841236,4.30824 -0.91133,9.91544 -1.68735,14.86944 -0.512966,3.2747 -1.411629,6.3605 -3.224735,8.8214 -0.856677,1.1627 -2.0587015,1.9154 -3.4806338,2.4029 -0.3662078,0.1256 -1.5810293,0.4535 -2.160737,0.5666 -0.1237752,-0.375 0.1386197,-1.403 -0.1972308,-2.0372 -0.2459226,-0.4644 -0.6088947,-0.9489 -1.1112974,-1.1136 -0.66405,-0.2178 -1.4293476,-0.1398 -1.8852088,0.2821 -0.2648925,0.1277 -1.78745582,0.043 -1.92980063,-0.5125 -0.0748745,-0.292 0.31669363,-1.2216 1.02701203,-1.4511 0.4181597,-0.1352 1.3878422,-0.1541 1.9930656,0.2921 0.7214523,0.5319 1.0242101,0.6527 1.4666322,0.6635 0.3552187,0.01 0.8710888,-0.022 1.2331525,-0.2049 1.0010786,-0.5054 1.3520495,-1.8821 1.6390888,-3.2926 0.2421603,-1.19 0.4013867,-2.9972 0.4405833,-3.9643 0.1426718,-3.5201 0.00834,-6.6854 0.043783,-10.2248 0.034273,-3.4228 0.7393446,-5.90843 0.9362205,-9.2714 0.3066604,-5.23826 0.6493465,-10.98102 2.7822465,-15.86527 -2.652817,-2.11013 -3.3970641,-7.0852 -0.54925,-9.82969 3.39464,-1.75669 5.185158,-4.04396 6.44809,-6.64814 1.717029,-1.16412 3.760365,-1.66424 5.852594,-1.16817 1.995673,0.47318 4.052737,1.90343 5.23,2.47773 2.76484,-2.56664 7.818493,-2.40993 11.428722,-2.5036 z m -26.888672,-0.332 c 1.275899,-0.24793 2.619649,0.77856 2.915772,1.32609 0.320059,0.59179 -1.634236,2.34833 -3.038612,3.07655 0.03641,-0.69178 -0.565688,-1.78087 -1.426808,-2.12763 -0.906488,-0.36503 -2.100005,0.0385 -3.137852,0.37343 1.130264,-1.80871 3.14395,-2.3485 4.6875,-2.64844 z m -2.724609,3.375 c 1.193377,0.43811 1.442636,1.46359 0.335332,2.88325 -1.449772,1.85872 -3.3411005,3.9735 -2.6136987,6.39548 0.525348,4.11435 3.0548157,6.61978 0.7656286,10.81844 -1.319632,-0.66623 -2.3053801,-7.66393 -2.7070858,-10.87549 -0.1716637,-2.01119 -0.049647,-5.26875 0.9111747,-7.45384 0.6803297,-1.5472 1.6653238,-2.37114 3.3086492,-1.76784 z m 27.052734,-0.832 c -2.115296,-0.18781 -4.381319,0.39863 -5.116696,1.78164 -0.393173,0.73943 -0.212589,1.04556 0.345212,2.72617 0.423765,1.27677 -0.436622,2.66732 -0.360114,2.87711 1.169366,-0.90335 1.06191,-1.23445 1.027342,-2.13164 -0.03998,-1.03762 -0.71785,-2.84417 -0.106681,-3.4193 1.20071,-1.1299 3.159146,-1.17647 5.574251,-0.94262 2.499753,0.24206 6.011713,1.52259 8.008652,2.37922 -0.629509,-1.12328 -2.595252,-1.66728 -4.633455,-2.38484 -0.735509,-0.25894 -4.073891,-0.82673 -4.738511,-0.88574 z m 37.285156,1.82812 c 9.431526,0.67518 17.215618,7.72702 22.056652,15.23363 1.253234,1.9433 1.81229,4.05087 2.958251,5.76308 1.21716,1.81859 1.85675,3.64227 2.19747,6.44295 0.55851,4.59088 -2.30022,8.29182 -1.86188,12.81512 0.44062,4.5469 1.19104,8.5871 1.33949,13.0653 0.54336,0.6203 0.72321,2.2094 0.96885,3.4523 0.27571,1.395 0.97291,3.1185 -0.54749,2.2567 -0.0407,0.9546 -0.0267,1.8855 0.48458,2.5871 -0.69706,-0.131 -0.86393,0.3689 -1.59769,-0.3024 -1.03797,0.8334 -1.29685,0.8793 -2.058643,1.5157 -0.130195,-0.1548 -0.609921,-2.0576 -0.107416,-3.4895 -0.47078,-0.5203 -1.488138,-0.2304 -0.932629,-0.7552 0.767059,-0.7247 2.129628,-3.0262 2.466688,-4.7661 0.05,-2.7377 -0.4584,-4.9447 -0.979007,-7.6242 -0.80239,-4.1297 -1.311394,-7.4302 0.111608,-11.53459 0.961939,-2.87512 -0.248742,-7.72595 -1.427397,-7.72365 -0.794127,3.39606 -2.397706,7.33703 -4.306432,11.09724 -2.034843,4.0086 -4.398389,7.8298 -5.893179,11.1708 0.367141,3.6092 -1.727797,6.2308 -1.43923,9.7061 0.08075,2.3255 -0.655354,4.453 -1.034001,6.648 -0.166766,0.9666 -0.08693,2.0029 -0.224256,3.0009 -0.121156,0.8806 -0.01519,2.0354 -0.633071,2.78 -0.989369,1.1923 -1.600074,1.421 -2.448591,1.6686 -0.400991,-0.8197 -1.099872,-1.656 -2.122,-1.8792 -0.919304,-0.2007 -1.438239,-0.075 -2.018283,0.536 -0.20176,-0.497 -1.146915,-0.7174 -1.611404,-0.8253 -0.468574,-0.1088 -0.800573,0.018 -1.272626,0.3092 -0.01953,-1.206 -0.630681,-1.5211 -1.279305,-1.7656 0.73603,-1.9587 2.0762,-3.1102 3.236317,-3.8089 1.810746,-3.0768 3.203992,-6.4481 3.888691,-11.0915 0.415626,-4.1258 1.448361,-9.112 -1.212891,-12.7988 -1.890669,-5.2403 2.715283,-9.31364 5.245558,-13.22814 -2.86875,1.86155 -4.556697,4.58728 -5.900191,7.52104 -0.901835,1.9693 -1.219009,4.1699 -1.187473,5.0794 -0.530834,0.5757 -4.398586,1.1047 -5.336938,1.0488 -2.878311,-0.1714 -5.99532,-0.5137 -8.404501,-1.8783 -0.441691,-1.8841 0.231171,-5.4099 -1.524366,-8.96796 -0.908822,-1.84198 -0.997911,-3.28704 -2.349594,-4.73599 0.641598,2.00132 1.81229,4.58804 2.338208,7.27585 0.396221,2.025 0.235374,4.1456 0.277336,5.9023 0.03032,1.2694 -0.01309,2.5398 -0.145287,3.7945 -0.210263,1.9957 0.04619,4.1915 0.510133,6.4009 0.318598,1.5172 0.968565,2.9942 0.695806,4.6045 -0.30745,1.8152 -0.02909,3.4347 0.52308,5.0934 0.539264,1.6199 1.195019,3.5666 2.560002,4.8928 1.48105,0.8748 2.028583,3.4531 1.91534,5.2156 -0.09585,1.4918 -1.221113,2.9677 -2.682892,2.2308 -0.312207,-0.633 -0.644182,-0.9061 -0.986243,-0.9779 -0.8042,-0.1688 -1.708337,0.5538 -2.321399,1.0773 -0.441662,-0.5337 -0.435222,-1.2313 -1.255689,-1.3043 -0.726821,-0.065 -1.369806,0.3501 -1.846398,0.2626 -0.765864,-0.8885 -1.419279,-0.9562 -1.46388,-1.5546 -0.03643,-0.4887 0.573597,-0.7698 0.786059,-1.4198 0.327504,-1.0021 0.257704,-2.4552 -0.32416,-3.5863 -1.320025,-1.2714 -2.521098,-2.4785 -3.047129,-4.1616 -0.92987,-2.9751 -0.689403,-6.6865 -1.97312,-9.5056 -0.952483,-2.0917 -3.61313,-5.2995 -4.834383,-8.0856 -0.892331,-2.0357 -0.44845,-4.4248 -0.744828,-4.6582 -1.547704,-1.2188 -2.488523,-1.6843 -4.000871,-1.8906 -0.894338,0.6045 -2.09536,0.2912 -3.304224,-0.6055 -2.084491,-1.54628 -1.967014,-2.53457 -3.128542,-3.04536 0.793548,1.2609 1.512306,2.56206 2.415564,3.36006 0.690252,0.6099 1.618256,0.7699 1.995811,1.3223 0.417366,0.6107 1.164116,1.1673 0.783734,2.5063 0.36702,3.7562 -0.302273,7.4571 -0.622591,11.182 -0.07717,6.0587 1.353432,12.0223 2.446953,17.9228 3.03464,3.306 -1.390214,5.1851 -2.796385,5.6332 -0.394619,-0.2556 -0.143204,-1.5803 -1.461801,-1.9583 -1.078028,-0.309 -1.321146,0.078 -1.841497,0.7314 -0.171543,-0.5773 -0.696758,-1.4561 -1.13872,-1.4516 -0.677951,0.01 -1.30707,0.1798 -1.889437,0.5085 -0.199893,-0.5444 -0.106267,-1.0661 -0.716675,-1.3077 -0.64547,-0.2555 -1.246928,-0.087 -1.926479,0.087 1.251192,-1.2745 4.200229,-1.793 3.379133,-3.7587 -0.283667,-4.1299 0.845269,-9.5861 -1.662319,-13.2638 -1.323303,-3.2099 -2.201911,-6.5734 -2.868401,-9.9822 -0.504965,-2.5827 -0.888168,-5.1913 -1.25076,-7.7789 -0.179355,-1.2799 -0.517313,-2.27854 -0.126498,-3.00695 2.2207,-0.52516 6.053261,-1.5208 8.589335,-3.14459 3.601354,-2.30586 7.210805,-3.6218 10.793025,-6.38518 3.513315,-2.71022 7.709734,-6.26357 9.433739,-10.68031 0.875957,-2.24412 -0.197459,-4.30501 -1.508168,-6.16228 -1.386624,-1.96484 -3.038824,-3.70179 -2.929477,-5.18671 3.94181,2.10465 8.42932,1.04721 12.359334,-0.4708 2.524489,-0.69015 5.124486,-1.21036 7.751994,-1.19326 z m -49.4375,7.89649 c -0.991111,0.60622 -1.339898,1.47377 -1.189059,3.05779 0.126068,0.34511 -8.07e-4,-1.72703 1.736138,-2.22375 2.62393,-0.75038 2.021784,0.87656 3.036019,0.80076 0.130979,-0.72556 -0.738846,-1.48167 -1.727629,-1.59769 -0.61849,-0.0726 -1.236979,-0.41541 -1.855469,-0.0371 z m 25.794922,2.24218 c 2.475198,0.8463 1.912455,0.89075 4.261991,2.66274 -1.090549,-1.9702 -1.906389,-3.23854 -4.315035,-3.71704 l -4.883242,-0.9701 c 0.753873,1.30602 3.09142,1.39362 4.936286,2.0244 z m -36.000536,-0.91942 c 0.690304,0.26393 2.384718,0.20042 3.913347,1.1389 0.814788,0.50023 1.633693,1.34841 2.057311,2.54233 0.568765,-1.15095 -0.187565,-2.42967 -2.010143,-3.25791 -1.545985,-0.70255 -3.350376,-0.70263 -3.960515,-0.42332 z m 0.664599,4.47802 c -1.867259,-0.29526 -2.712865,0.2929 -3.286022,1.45621 1.264442,-0.77802 2.135454,-0.83129 3.282243,-0.58796 1.771303,0.37584 2.189835,1.97725 3.605914,1.80133 -0.791638,-0.67301 -2.516409,-2.4979 -3.602135,-2.66958 z m -1.34268,4.23629 c -1.754447,-0.0861 -2.779695,0.49235 -4.049781,1.86696 1.466407,-0.51276 2.129191,-0.68788 3.925015,-0.79234 1.735081,-0.10093 2.368351,0.64909 3.664683,1.49474 0.01498,-1.17174 -2.496557,-2.51814 -3.539917,-2.56936 z m -6.0303671,3.58245 c 0.059058,0.48305 -0.019692,0.98942 -0.082739,1.54563 -0.082613,0.72882 -0.295782,1.28899 -0.8905347,1.34708 -0.4192791,0.0409 -0.8625367,-0.61845 -0.7631203,-1.31043 0.1363338,-0.94894 1.5061678,-1.44433 1.736394,-1.58228 z m 5.5933661,2.03382 c -1.466112,-0.29238 -2.488975,0.15476 -4.002058,1.38013 0.678708,0.0845 2.133145,-0.95924 3.727862,-0.55334 1.963296,0.49971 2.497103,1.53508 3.804526,1.64892 -0.916493,-1.35819 -2.430327,-2.25635 -3.53033,-2.47571 z m 8.022098,0.59858 c 0.779341,0.062 1.487447,1.05016 1.544139,1.67133 0.154631,1.6943 -2.039473,4.39328 -3.290003,5.24385 -0.941375,0.64029 -2.335668,1.58993 -3.691404,1.62362 -2.187547,0.0543 -3.797731,-0.93033 -4.922759,-2.37272 1.688855,0.517 3.319189,0.65936 5.211028,0.0626 1.576992,-0.49745 3.330494,-3.24929 3.654468,-5.21024 0.448312,-0.51395 0.734853,-1.0789 1.494531,-1.01844 z m -13.9311427,1.24264 c 0.3933992,1.33619 0.075558,3.40457 -0.289109,3.79944 -1.0917153,1.18214 -2.8757355,2.81962 -4.8274954,2.9126 -1.2117471,0.0577 -2.3010689,-0.78159 -3.27436383,-1.31671 1.57666523,-0.5177 3.76386693,-1.44814 5.36480223,-2.57775 0.9763974,-0.68894 2.4927733,-1.55257 3.026166,-2.81758 z m 1.0188452,9.64203 c 0.9009365,0.1113 1.9933995,-0.35317 2.8503375,-0.148 1.507281,0.3608 1.816117,0.7153 2.58307,1.2732 -0.284803,-0.8626 -1.567177,-1.74745 -2.682492,-1.88401 -0.865292,-0.10595 -1.778644,0.16617 -2.7509155,0.75891 z m -0.1110614,4.4239 c 1.1166979,-0.1507 1.9415109,-0.5591 2.9112399,-0.2158 1.887296,0.6682 1.579357,1.5046 2.490497,1.872 0,0 -0.647467,-2.489 -2.737983,-2.7344 -1.128098,-0.1324 -2.061062,0.3613 -2.6637539,1.078 z m -0.2192471,4.8655 c 0.68494,0.1282 1.002333,-1.0657 2.463968,-0.945 1.655275,0.1366 1.738365,1.1311 2.724713,1.7521 -0.258109,-1.0868 -1.469689,-2.6056 -2.660632,-2.6554 -1.296772,-0.054 -2.001973,0.6991 -2.528049,1.8483 z m 69.508001,-1.1701 c 0.565241,0.6557 0.849694,1.9126 1.161446,3.4846 0.466429,2.352 0.136748,4.5371 -0.08815,5.4848 -0.481892,-0.9988 -1.126621,-2.8456 -1.843397,-3.9645 -1.297966,-2.0262 -2.322679,-3.6145 -2.322173,-4.3524 1.463714,-0.022 1.689281,-0.2311 3.092274,-0.6525 z M 9.2422789,1014.04 c 1.3057291,-0.1621 1.5046341,-0.6687 2.0381031,-0.5517 0.967747,0.2122 1.61869,0.8893 2.520054,1.942 0,0 0.07578,-1.8643 -2.093392,-2.5371 -1.552105,-0.4814 -2.4647651,1.1468 -2.4647651,1.1468 z m -0.1495491,2.9973 c 0.4606592,-0.03 0.6702976,-0.1161 1.5815152,0.2142 1.367112,0.4954 1.285721,1.1101 1.874405,1.9639 -0.08112,-0.9912 -0.452317,-2.4091 -1.499504,-2.6538 -1.2202387,-0.2853 -1.5982706,0.084 -1.9564162,0.4757 z m -0.9763325,2.9265 c 0.7824324,0.1735 1.0260267,0.1613 1.80166,0.5696 1.1628907,0.6122 0.8809387,0.7354 1.3016497,1.4074 0.200475,-1.1298 -0.500849,-2.0315 -1.096953,-2.2445 -0.5413854,-0.1935 -1.3992167,-0.1237 -2.0063567,0.2675 z m 80.5574437,-0.039 c 1.71134,3.3037 3.640001,6.9853 3.31826,9.5441 -0.181746,1.4454 0.833527,1.6851 0.524126,3.3655 -1.968666,2.0211 -4.228251,2.082 -5.20223,1.4635 0.753683,-3.7944 1.1762,-11.0209 1.359844,-14.3731 z m -84.5499006,3.1385 c 0.3274301,0 1.0058549,0.6794 1.1055515,1.2548 0.093616,0.5403 -0.033032,1.0841 -0.3327199,1.2506 -0.2529234,0.1406 -0.8930721,0.2891 -1.4976629,-0.4139 -0.7925641,0.3235 -1.5184696,0.2484 -1.8226746,0.03 -0.5378793,-0.3854 0.1091105,-2.091 0.5837347,-1.9975 l 0.9753973,0 c 0.2959754,0.2056 0.2534621,0.5563 0.1412217,0.9369 -0.1265942,0.5007 0.8906447,0.8509 0.8493137,0.082 -0.539438,-0.7465 -0.295104,-1.1632 -0.00216,-1.1429 z m 69.4053696,12.0892 c 0.550295,-0.02 0.764618,0.1912 0.964532,0.5059 0.294306,0.4633 0.420598,0.9601 0.405232,1.1376 -0.04219,0.4873 -0.557201,1.0878 -0.928828,1.0868 -0.624074,0 -0.865104,-0.5841 -0.939834,-1.3031 -0.02828,-0.2721 -0.067,-0.9959 0.498898,-1.4272 z m -14.671875,0.5547 c 1.141879,0.8145 0.88115,1.7249 0.641862,1.9456 -0.222779,0.2054 -0.847068,0.453 -1.261549,0.2014 -0.487035,-0.2955 -1.119341,-1.1661 -0.792246,-1.6989 0.169769,-0.2765 0.91844,-0.8002 1.411933,-0.4481 z m 17.867187,1.2383 c 0.890248,0.041 1.16638,0.5885 1.190827,0.8869 0.03418,0.417 -0.811629,1.0157 -1.324518,0.9414 -1.019217,-0.1478 -1.094542,-0.8303 -1.149026,-1.2038 -0.05232,-0.3586 0.616655,-0.6549 1.282717,-0.6245 z m -15.222656,-0.051 c 0.887703,0.371 1.580941,0.8165 1.657168,1.2188 0.111418,0.5879 -0.743809,1.0833 -1.334369,1.1185 -0.828548,0.049 -2.523416,-0.7445 -1.611288,-1.8352 z m 18.832031,0.2635 c 0.653049,0.028 1.364603,0.9356 1.368093,1.1589 0.01374,0.8792 -1.456459,0.8749 -1.8883,0.8647 -0.466526,-0.011 -1.174752,-0.9558 -1.163142,-1.2291 0.0097,-0.228 0.68759,-0.8367 1.683349,-0.7945 z m -14.884268,-0.2715 c 0.417173,0.4279 1.119966,1.0639 1.074973,1.3023 -0.07407,0.3923 -1.236357,0.9431 -1.733585,0.9152 -0.632532,-0.035 -1.322647,-1.1152 -0.743222,-1.6165 0.221836,-0.192 0.787099,-0.3651 1.401834,-0.601 z m -29.902405,1.7756 c -0.0032,1.1255 -1.965019,0.8802 -2.705064,-0.012 -0.225847,-0.4355 -0.300225,-1.1763 -0.163173,-1.5818 0.269073,-0.321 1.591921,-0.7322 2.17425,-0.2719 0.592234,0.4681 0.527881,1.1799 0.693987,1.8657 z m 2.147847,-0.8233 c 0.693479,0.1375 1.395908,1.3082 1.42308,1.6485 0.0815,1.021 -0.858898,1.1615 -1.574849,1.1305 -0.417967,-0.018 -1.72404,-0.7899 -1.551991,-1.6529 0.122293,-0.6135 0.507014,-1.3634 1.70376,-1.1261 z m 2.865657,0.6572 c 0.634633,0.1661 1.396506,1.2928 1.420736,1.5661 0.05672,0.6397 0.270481,1.1847 -0.858405,1.2082 -1.049949,0.022 -1.566543,-0.7415 -1.552457,-1.4156 0.0053,-0.252 0.539681,-1.4765 0.990126,-1.3587 z"
       id="path4168"
       inkscape:connector-curvature="0"
       sodipodi:nodetypes="sscssscscscscssssscscscssscscscsccscccccsccccccssssscsscscscscscssscccccccscscscsccccccssscccscssccccccscccccccscsccssscscsssscsccccssscscssssssssssccscssssscssscccssscscssscsscsssscscccccscsccsccssscscsccccccscscscsssssscscscsccscssccsscscscccccscscscccsssssccccssccssscccsccscscssscsscscscssscscscscssscsccscscsccccscccccscccccsccccccccccsccccsccscscsccssccscsscccccccscccscccscccccccccccccccccccccccscssssssssss" />
    <path
       style="fill:#000000;fill-rule:evenodd;stroke:#000000;stroke-width:0.35433072;stroke-linecap:butt;stroke-linejoin:miter;stroke-miterlimit:4;stroke-dasharray:none;stroke-opacity:1"
       d="m 25.1875,978.1122 c -0.02305,-0.96986 0.487384,-1.67297 1.125,-2.3125 1.386933,-0.92071 2.217413,-0.35755 3.125,0 -0.447639,0.42681 -0.503526,0.89936 -1.4375,1.8125 -0.940394,1.08276 -2.023852,0.47947 -2.8125,0.5 z"
       id="path4271"
       inkscape:connector-curvature="0"
       sodipodi:nodetypes="ccccc" />
    <path
       style="fill:#000000;fill-rule:evenodd;stroke:#000000;stroke-width:0.35433072;stroke-linecap:butt;stroke-linejoin:miter;stroke-miterlimit:4;stroke-dasharray:none;stroke-opacity:1"
       d="m 10.0625,975.2372 c 1.612168,-0.40726 2.158854,0.70759 2.625,1.9375 -1.404166,0.70583 -1.897052,0.31813 -2.5,0.0625 z"
       id="path4273"
       inkscape:connector-curvature="0"
       sodipodi:nodetypes="cccc" />
    <path
       style="fill:url(#pattern6005);fill-opacity:1;fill-rule:evenodd;stroke:none;stroke-width:0.35433072;stroke-linecap:butt;stroke-linejoin:miter;stroke-miterlimit:4;stroke-dasharray:none;stroke-opacity:1"
       d="m 60.634407,987.66193 c 3.534996,3.18241 4.503293,8.41818 10.606601,9.54594 5.756165,0.9522 6.916653,-1.3529 10.606602,-6.18718 3.096198,-2.15563 5.494028,-3.01428 7.424621,-3.00521 -3.299832,5.12654 -8.271046,8.5817 -9.899495,15.37962 l -0.28217,3.8158 c -7.108339,1.8739 -10.340887,0.6802 -15.097402,-0.9874 0.02205,-2.4385 0.337361,-4.5838 -0.416054,-7.7978 -0.734432,-3.797 -2.076355,-5.77153 -3.11948,-8.64245 -0.609643,-1.50939 -0.867194,-2.59627 0.176777,-2.12132 z"
       id="path4523"
       inkscape:connector-curvature="0"
       sodipodi:nodetypes="cccccccccc" />
    <path
       style="fill:url(#pattern6676);fill-opacity:1;fill-rule:evenodd;stroke:none;stroke-width:0.35433072;stroke-linecap:butt;stroke-linejoin:miter;stroke-miterlimit:4;stroke-dasharray:none;stroke-opacity:1"
       d="m 73.539105,1008.5216 c 2.613859,3.4824 5.241064,6.942 6.717515,12.3743 l 0.987437,-8.3173 c -0.788317,-2.9067 -1.44749,-4.8755 -2.401651,-5.2945 z"
       id="path6007"
       inkscape:connector-curvature="0"
       sodipodi:nodetypes="ccccc" />
    <path
       style="fill:url(#pattern6768);fill-opacity:1;fill-rule:evenodd;stroke:none;stroke-width:0.35433072;stroke-linecap:butt;stroke-linejoin:miter;stroke-miterlimit:4;stroke-dasharray:none;stroke-opacity:1"
       d="m 88.5,1018.4872 c -0.894067,5.7092 -1.571861,10.4953 -2.1875,16.4375 1.506419,0.5775 2.635339,0.9801 6.25,-0.875 0.655091,-1.0411 0.65501,-2.7444 0.6875,-4.875 -1.533786,-3.5823 -2.477568,-7.4006 -4.75,-10.6875 z"
       id="path6009"
       inkscape:connector-curvature="0"
       sodipodi:nodetypes="ccccc" />
    <path
       style="fill:url(#pattern6584);fill-opacity:1;fill-rule:evenodd;stroke:none;stroke-width:0.35433072;stroke-linecap:butt;stroke-linejoin:miter;stroke-miterlimit:4;stroke-dasharray:none;stroke-opacity:1"
       d="m 100.4375,1016.8622 c 1.1875,0.75 2.0625,0.375 2.0625,0.375 l 1.625,7.0625 c 0.2478,1.0719 -0.52654,0.7128 -1.0625,0.6875 -0.0894,0.3195 0.0717,1.0396 0.8125,2.6875 -0.77083,0.3154 -1.54167,-0.069 -2.3125,-0.75 l -2.25,1.875 c -1.681237,-1.4375 -0.715737,-2.8125 -0.5625,-4.25 l -1,-0.125 0.1875,-0.75 c 1.510905,-1.8944 2.48626,-4.0863 2.5,-6.8125 z"
       id="path6011"
       inkscape:connector-curvature="0"
       sodipodi:nodetypes="ccccccccccc" />
    <path
       style="fill:url(#pattern6300);fill-opacity:1;fill-rule:evenodd;stroke:none;stroke-width:0.35433072;stroke-linecap:butt;stroke-linejoin:miter;stroke-miterlimit:4;stroke-dasharray:none;stroke-opacity:1"
       d="m 49.5,988.6122 c -2.541667,2.37642 -5.083333,2.98374 -7.625,3.9375 -3.764781,2.45298 -7.772896,3.44596 -11.6875,5 l 0.8125,8.75 c 3.854144,9.3335 9.766901,11.1258 13.4375,17.6875 -0.966007,-3.3355 -1.300717,-6.958 -0.4375,-11.125 0.57141,-3.075 0.571668,-6.9497 0.3125,-11.1875 1.110466,-0.1828 0.44803,-1.289 3.9375,0.3125 1.22723,-0.2365 -2.052797,-4.35416 -2.1875,-6.375 1.577013,-2.2471 3.452899,-4.43442 3.4375,-7 z"
       id="path6013"
       inkscape:connector-curvature="0"
       sodipodi:nodetypes="cccccccccc" />
    <path
       style="fill:url(#pattern6208);fill-opacity:1;fill-rule:evenodd;stroke:none;stroke-width:0.35433072;stroke-linecap:butt;stroke-linejoin:miter;stroke-miterlimit:4;stroke-dasharray:none;stroke-opacity:1"
       d="m 47.022601,966.53711 c -3.640018,0.95053 -8.253611,0.0513 -9.722718,5.12653 -2.109158,4.40071 -3.354427,9.14698 -7.071068,12.9047 l -0.176777,6.89429 c -0.682823,0.88667 -3.24176,3.28276 -5.126524,-0.35355 l 0.883884,-6.98269 c 0.230354,-1.1394 0.158726,-2.3996 1.502601,-3.09359 1.111551,-0.28927 2.095532,-0.96125 3.093593,-1.59099 1.285756,-0.44857 4.130096,-2.66258 0.441941,-6.98268 l 0.08839,-2.43068 c 0.992467,1.44569 2.159754,1.4527 2.916815,-0.0442 0.551101,-1.13669 -0.671692,-3.92904 -0.441942,-4.86136 4.889066,-3.39837 12.422059,0.20929 13.611806,1.41421 z"
       id="path6015"
       inkscape:connector-curvature="0"
       sodipodi:nodetypes="ccccccccccccc" />
    <path
       style="fill:url(#pattern6116);fill-opacity:1;fill-rule:evenodd;stroke:none;stroke-width:0.35433072;stroke-linecap:butt;stroke-linejoin:miter;stroke-miterlimit:4;stroke-dasharray:none;stroke-opacity:1"
       d="m 22.3125,34.236328 c -1.504518,0.83518 -2.678941,2.46727 -3.6875,4.625 -0.347795,3.784774 -2.143437,7.086638 -3.400391,10.56836 0.873032,0.01013 1.746109,-0.131856 2.619141,-0.341797 L 17.875,48.673828 c 0.750018,0.0103 1.730319,-1.47624 2.8125,-3.625 0.02043,-1.8543 -0.458407,-3.87502 0.0625,-5.5625 -0.09074,-1.83333 1.04976,-3.41667 1.5625,-5.25 z m -7.619141,17.494141 c -0.477802,3.378105 0.06436,5.904898 -0.0059,8.943359 0.151539,5.4241 -0.950282,9.7294 -1.875,11.5 -0.662473,1.6416 -1.592568,3.5509 -3.25,6.1875 0.592952,0.2758 1.671593,0.4434 3.75,-3.4375 1.377676,-2.3125 1.863737,-4.625 2.4375,-6.9375 l 1.8125,-15.125 0.04102,-0.55664 c -0.9982,0.003 -1.964405,-0.210072 -2.910157,-0.574219 z"
       transform="translate(0,946.06299)"
       id="path6017"
       inkscape:connector-curvature="0" />
  </g>
</svg>
