<svg xmlns="http://www.w3.org/2000/svg" viewBox="0 0 1200 800" width="1200" height="800">
<g fill="none" stroke="#000" stroke-width="9" stroke-linecap="round" stroke-linejoin="round">
<rect x="300" y="370" width="22" height="52" rx="6"/>
<rect x="700" y="370" width="22" height="52" rx="6"/>
<rect x="270" y="330" width="480" height="42" rx="8"/>
<line x1="340" y1="330" x2="340" y2="372"/>
<line x1="410" y1="330" x2="410" y2="372"/>
<line x1="480" y1="330" x2="480" y2="372"/>
<line x1="550" y1="330" x2="550" y2="372"/>
<line x1="620" y1="330" x2="620" y2="372"/>
<line x1="690" y1="330" x2="690" y2="372"/>
<rect x="840" y="330" width="52" height="32" rx="12"/>
<path d="M780 360 L 930 360 L 990 450 L 990 602 L 780 602 Z"/>
<path d="M800 385 L915 385 L960 455 L800 455 Z"/>
<rect x="250" y="420" width="530" height="182" rx="10"/>
<circle cx="480" cy="510" r="46"/>
<circle cx="360" cy="622" r="70"/><circle cx="360" cy="622" r="25.2"/>
<circle cx="565" cy="622" r="70"/><circle cx="565" cy="622" r="25.2"/>
<circle cx="880" cy="622" r="70"/><circle cx="880" cy="622" r="25.2"/>
</g>
</svg>
