<?xml version="1.0" encoding="UTF-8" standalone="no"?>
<!-- Created with Inkscape (http://www.inkscape.org/) -->

<svg
   width="72.329056mm"
   height="51.146229mm"
   viewBox="0 0 72.329056 51.146229"
   version="1.1"
   id="svg1330"
   xml:space="preserve"
   inkscape:version="1.2 (dc2aedaf03, 2022-05-15)"
   sodipodi:docname="Fish line art.svg"
   xmlns:inkscape="http://www.inkscape.org/namespaces/inkscape"
   xmlns:sodipodi="http://sodipodi.sourceforge.net/DTD/sodipodi-0.dtd"
   xmlns="http://www.w3.org/2000/svg"
   xmlns:svg="http://www.w3.org/2000/svg"
   xmlns:rdf="http://www.w3.org/1999/02/22-rdf-syntax-ns#"
   xmlns:cc="http://creativecommons.org/ns#"
   xmlns:dc="http://purl.org/dc/elements/1.1/"><title
     id="title1352">Fish line art</title><sodipodi:namedview
     id="namedview1332"
     pagecolor="#ffffff"
     bordercolor="#666666"
     borderopacity="1.0"
     inkscape:showpageshadow="2"
     inkscape:pageopacity="0.0"
     inkscape:pagecheckerboard="0"
     inkscape:deskcolor="#d1d1d1"
     inkscape:document-units="mm"
     showgrid="false"
     inkscape:zoom="0.69041105"
     inkscape:cx="269.40472"
     inkscape:cy="467.11303"
     inkscape:window-width="1920"
     inkscape:window-height="991"
     inkscape:window-x="-9"
     inkscape:window-y="-9"
     inkscape:window-maximized="1"
     inkscape:current-layer="layer1" /><defs
     id="defs1327" /><g
     inkscape:label="Lager 1"
     inkscape:groupmode="layer"
     id="layer1"
     transform="translate(-33.656183,-147.6603)"><path
       style="fill:#000000;stroke-width:0.0427927"
       d="m 95.319716,198.79775 c -1.386013,-0.0964 -2.660512,-0.77025 -3.916193,-2.07054 -0.976046,-1.01072 -1.552108,-2.00474 -2.439563,-4.20957 -0.845058,-2.0995 -1.307556,-2.89942 -2.178205,-3.76732 -0.471222,-0.46973 -1.032206,-0.90478 -1.427522,-1.10705 l -0.140552,-0.0719 0.153724,0.30526 c 0.210156,0.4173 0.430324,1.09257 0.515587,1.58134 0.09324,0.53447 0.06359,1.37367 -0.06577,1.86148 -0.206226,0.77766 -0.773434,1.69615 -1.440778,2.33308 -0.823276,0.78576 -1.573702,1.06895 -2.832636,1.06895 -1.510911,0 -3.119682,-0.49696 -5.52761,-1.70749 -1.847592,-0.92884 -3.313185,-1.81084 -7.617108,-4.584 -1.829533,-1.17884 -3.166086,-2.0249 -3.370432,-2.13356 -0.05323,-0.0283 -0.370969,-0.0994 -0.70608,-0.15791 -1.15743,-0.2022 -2.714257,-0.57466 -3.844886,-0.91985 -0.2262,-0.0691 -0.438497,-0.12556 -0.47177,-0.12556 -0.03327,0 -0.179647,0.13961 -0.325276,0.31025 -0.919509,1.07739 -2.25191,2.13831 -3.368914,2.68248 -1.473139,0.71767 -3.049613,0.90699 -4.464164,0.53612 -0.75343,-0.19754 -1.252968,-0.4871 -1.803252,-1.04528 -1.487751,-1.50907 -2.858375,-4.37902 -3.706206,-7.76041 -0.194758,-0.77675 -0.234033,-0.99636 -0.234033,-1.30863 v -0.37525 l -0.203266,-0.14404 c -0.40236,-0.28514 -1.328127,-1.01281 -1.950613,-1.53322 -5.08222,-4.24884 -8.434951,-9.255 -9.867764,-14.73413 -0.413945,-1.58293 -0.525546,-2.50017 -0.350561,-2.88124 0.145745,-0.31738 0.270183,-0.37916 0.914613,-0.45407 l 0.443894,-0.0516 -0.07882,-0.2389 c -0.260043,-0.78824 -0.161964,-1.3976 0.279099,-1.73402 0.166616,-0.12708 0.44065,-0.20221 1.805543,-0.49501 4.119507,-0.88371 8.052892,-1.35931 12.253963,-1.48168 l 0.999474,-0.0291 0.39129,-0.32943 c 0.545797,-0.45951 1.28092,-1.23711 1.610882,-1.70396 0.411834,-0.58267 0.652591,-1.02852 0.922433,-1.70821 0.440009,-1.10833 0.844911,-1.63023 1.687743,-2.17546 2.153649,-1.39319 5.651209,-0.88699 8.922465,1.29134 1.240013,0.82572 2.001958,1.6289 2.520996,2.65741 0.553346,1.0965 0.754495,2.05468 0.923385,4.39865 0.05878,0.81578 0.152995,1.64921 0.240863,2.13068 l 0.06865,0.37618 0.925978,0.54966 c 2.080502,1.23497 3.059029,1.76278 3.450948,1.86141 0.594185,0.14954 1.562636,0.21739 4.634795,0.32473 3.331094,0.11639 4.295729,0.17493 5.665146,0.34379 1.485762,0.18321 2.307328,0.40467 3.24705,0.8753 2.541464,1.27279 5.053386,3.74754 5.863743,5.77697 0.267297,0.66941 0.344989,1.02144 0.368333,1.66892 0.02716,0.7535 -0.05683,1.15064 -0.390145,1.84446 -0.441108,0.91821 -0.923039,1.53292 -2.375131,3.02953 -1.380463,1.42277 -1.928328,2.1242 -2.376534,3.04266 -0.181165,0.37124 -0.494462,1.21168 -0.494462,1.32642 0,0.10002 1.517049,0.6163 2.43926,0.83012 0.963623,0.22343 2.158205,0.31939 2.774584,0.22288 0.672049,-0.10522 1.50987,-0.42814 3.17353,-1.22314 2.603268,-1.24401 3.641409,-1.63313 5.049544,-1.89271 0.585325,-0.10791 1.937015,-0.10614 2.436935,0.003 1.71562,0.37516 2.8753,1.24737 3.47837,2.61613 0.53921,1.2238 0.61917,3.10251 0.22038,5.17792 -0.43381,2.25767 -1.57747,5.42814 -2.56523,7.11132 -1.39146,2.3711 -3.221271,4.34358 -4.875635,5.25579 -0.997481,0.55 -2.066053,0.82301 -2.974095,0.75984 z m 0.256074,-1.36284 c -0.19237,-0.36695 -0.487921,-0.91095 -0.656775,-1.2089 l -0.307009,-0.54171 -0.234542,-0.0531 c -0.750357,-0.16989 -1.373903,-0.44854 -1.989051,-0.88886 -1.291414,-0.92438 -2.084392,-2.00307 -3.03532,-4.12898 -0.193391,-0.43233 -0.213299,-0.45902 -0.526735,-0.70608 -0.519901,-0.40978 -0.511918,-0.40732 -0.334997,-0.10316 0.278699,0.47915 0.609185,1.19635 1.045977,2.2699 1.054831,2.59259 1.513969,3.36583 2.629784,4.42887 1.12805,1.07469 2.199522,1.5835 3.359232,1.59518 l 0.399201,0.004 z m 1.394649,0.43758 c 0.659539,-0.22531 1.345226,-0.61046 1.987063,-1.11614 0.398915,-0.31429 0.769866,-0.65319 0.769866,-0.70335 0,-0.0933 -1.663769,-1.33153 -1.789201,-1.33153 -0.02707,0 -0.150695,0.0648 -0.274717,0.14407 -0.66951,0.42777 -1.457603,0.71703 -2.200209,0.80756 -0.08421,0.0103 -0.06071,0.068 0.283077,0.69589 0.206204,0.37657 0.484472,0.89169 0.618375,1.1447 0.13391,0.25301 0.2583,0.46002 0.276434,0.46002 0.01813,0 0.166321,-0.0456 0.329312,-0.10122 z m 3.867141,-2.97985 c 0.42319,-0.50794 0.90105,-1.14424 0.90105,-1.19984 0,-0.0443 -0.98871,-0.52896 -1.49093,-0.73079 l -0.356923,-0.14343 -0.237674,0.27746 c -0.13072,0.1526 -0.446188,0.48062 -0.701036,0.72894 l -0.46336,0.45148 0.130329,0.077 c 0.184113,0.10876 1.084623,0.78559 1.362647,1.02419 l 0.232917,0.19988 0.12431,-0.11778 c 0.0684,-0.0648 0.29278,-0.31997 0.49867,-0.5671 z m -4.892156,-0.0214 c 0.248446,-0.0628 0.606098,-0.19795 0.867532,-0.32768 0.409687,-0.2033 0.438416,-0.22548 0.363739,-0.28075 -0.137318,-0.10164 -1.310224,-0.66099 -2.456075,-1.17129 -0.600169,-0.26728 -1.407659,-0.64488 -1.79442,-0.8391 l -0.70321,-0.35313 0.318076,0.28349 c 0.840709,0.7493 1.600444,1.60276 2.155173,2.42107 l 0.253779,0.37435 h 0.286345 c 0.164135,0 0.466756,-0.0456 0.709061,-0.10696 z m -2.045909,-0.26211 c -0.611763,-0.85421 -1.452406,-1.68041 -3.260599,-3.20461 l -0.251759,-0.21221 0.139956,0.27752 c 0.610113,1.20978 1.397806,2.12305 2.433171,2.82106 0.28005,0.18881 0.924966,0.51287 1.024818,0.51496 0.03355,6e-4 -9.03e-4,-0.0785 -0.08559,-0.19672 z m -11.825101,-0.66864 c -0.07654,-0.26212 -0.458746,-1.0921 -0.704494,-1.52984 -0.151947,-0.27067 -0.929706,-1.47421 -1.728345,-2.67455 -0.79864,-1.20033 -1.559733,-2.35043 -1.691317,-2.55576 -0.269463,-0.42048 -0.226276,-0.3992 -0.897966,-0.44251 -0.369622,-0.0239 -0.438385,-0.0188 -0.409328,0.0299 0.01921,0.0322 0.702403,0.98284 1.518214,2.11256 0.815808,1.12973 1.576133,2.19848 1.68961,2.375 0.473779,0.73699 0.816133,1.66953 0.898522,2.44749 0.0359,0.33892 -0.01542,0.31804 0.804732,0.32762 l 0.548492,0.006 z m -1.99608,-0.32095 c -0.105436,-0.70102 -0.379271,-1.38733 -0.824908,-2.06748 -0.304922,-0.46538 -3.371868,-4.72467 -3.484649,-4.83937 -0.05654,-0.0575 -0.204618,-0.0764 -0.792831,-0.10113 l -0.723303,-0.0304 0.184188,0.33649 c 0.494648,0.90365 1.098617,1.74777 1.924766,2.69008 0.288886,0.32951 0.617626,0.73001 0.730539,0.89 0.435167,0.61663 0.815537,1.52423 0.936202,2.23387 0.02801,0.16476 0.05945,0.34148 0.06986,0.39274 0.01443,0.071 0.09784,0.12342 0.35053,0.22019 0.466118,0.17854 1.504883,0.51083 1.619606,0.5181 0.03306,0.002 0.03603,-0.0701 0.01,-0.24308 z m 3.056153,0.09 c 0.111796,-0.0562 0.203265,-0.11872 0.203265,-0.13896 0,-0.0202 -0.08814,-0.29431 -0.195869,-0.60907 -0.355532,-1.03877 -0.868101,-2.0577 -1.59025,-3.16124 -0.675656,-1.03249 -2.097908,-2.85535 -2.251961,-2.88627 -0.132409,-0.0266 -0.754705,-0.0627 -0.754705,-0.0438 0,0.009 0.656626,1.00384 1.459169,2.21122 0.802545,1.20738 1.58218,2.40205 1.732522,2.65481 0.438771,0.73768 0.813865,1.53006 0.984071,2.07885 0.02078,0.067 0.121686,0.0413 0.413758,-0.1055 z m 15.100676,-0.15786 c 0.339105,-0.29717 0.965259,-0.95992 0.930601,-0.98499 -0.03982,-0.0288 -1.110278,-0.34013 -1.770599,-0.51495 -0.400111,-0.10593 -1.208896,-0.31996 -1.797296,-0.47561 -2.434272,-0.64395 -3.887927,-1.23029 -5.617688,-2.26594 -0.336012,-0.20117 -0.619842,-0.36577 -0.630726,-0.36577 -0.0109,0 0.03295,0.10819 0.09743,0.24043 0.11414,0.23413 0.141318,0.2564 1.037257,0.85004 1.665126,1.10327 2.619366,1.62022 4.664409,2.52687 0.576631,0.25565 1.414302,0.65171 1.861484,0.88015 0.447184,0.22843 0.825185,0.41721 0.839998,0.4195 0.01482,0.002 0.188127,-0.13708 0.385134,-0.30973 z m -13.621801,-1.26203 0.242999,-0.35773 -0.213694,-0.41009 c -0.439672,-0.84373 -0.995964,-1.62168 -2.395298,-3.34971 -0.353499,-0.43653 -0.692981,-0.85973 -0.754411,-0.94043 l -0.111694,-0.14675 -0.539822,-0.045 c -0.50785,-0.0423 -0.536712,-0.0406 -0.487403,0.0289 0.02882,0.0406 0.208855,0.27226 0.40006,0.51473 1.465908,1.85894 2.420406,3.48058 2.946849,5.00656 0.08369,0.24257 0.163081,0.46993 0.176434,0.50523 0.03261,0.0862 0.413032,-0.33022 0.73598,-0.80566 z m 17.698158,0.5596 c 0.3339,-0.51847 0.63916,-1.0902 0.93104,-1.7438 0.26842,-0.60108 0.2813,-0.64389 0.20259,-0.67329 -0.17876,-0.0668 -1.87757,-0.31823 -1.89425,-0.2804 -0.23477,0.53236 -0.6236,1.21697 -0.99992,1.76052 -0.12798,0.18486 -0.21641,0.35015 -0.19651,0.36732 0.0199,0.0172 0.24801,0.12202 0.50691,0.23303 0.25889,0.111 0.64403,0.2946 0.85585,0.408 0.21183,0.1134 0.39034,0.20872 0.3967,0.21182 0.006,0.003 0.0953,-0.12433 0.19759,-0.2832 z m -24.943955,-0.10696 c -0.07722,-0.37285 -0.353425,-1.09902 -0.545418,-1.43394 -0.257718,-0.44956 -0.440205,-0.68947 -1.016893,-1.33689 -0.797047,-0.8948 -1.427326,-1.79511 -2.036089,-2.90842 l -0.275179,-0.50325 -0.223941,-0.0269 c -0.314616,-0.0378 -0.801645,-0.0342 -0.801645,0.006 0,0.0628 0.576227,0.99051 0.929067,1.49585 0.193259,0.27676 0.56508,0.77281 0.826282,1.10231 0.261199,0.32951 0.567669,0.74846 0.681043,0.93102 0.244477,0.39366 0.44888,0.98302 0.515653,1.48677 0.03275,0.24712 0.07146,0.38203 0.120713,0.42078 0.0933,0.0734 1.760842,0.90579 1.814587,0.90579 0.02322,0 0.02828,-0.0596 0.01183,-0.13907 z m 22.302351,-0.79167 c 0.346984,-0.4407 1.161794,-1.78772 1.111694,-1.83782 -0.0146,-0.0146 -1.138731,-0.0414 -2.498134,-0.0595 -2.563087,-0.0343 -3.151134,-0.0701 -4.204748,-0.25597 -1.407054,-0.24827 -2.703624,-0.7054 -4.311368,-1.52005 -0.429532,-0.21765 -0.780965,-0.38955 -0.780965,-0.38201 0,0.0275 0.93584,0.61749 1.552231,0.97864 1.793411,1.05076 2.861687,1.45256 6.150458,2.31326 1.380869,0.3614 2.389017,0.64658 2.717341,0.76869 0.09414,0.035 0.178674,0.065 0.18785,0.0667 0.0092,0.002 0.04321,-0.0307 0.07564,-0.0719 z m -24.933502,-0.51644 c 0,-0.32513 -0.328851,-0.98809 -0.768004,-1.5483 -0.960043,-1.22469 -1.525996,-2.0402 -2.034268,-2.93131 -0.134246,-0.23535 -0.258272,-0.44297 -0.275615,-0.46135 -0.01734,-0.0184 -0.274217,-0.028 -0.57084,-0.0214 l -0.539307,0.012 0.215937,0.38513 c 0.118768,0.21183 0.37991,0.66269 0.580317,1.00193 0.578872,0.97987 0.888338,1.64842 0.973285,2.10266 0.02734,0.14624 0.07158,0.17767 1.189441,0.84515 0.63857,0.3813 1.176342,0.69327 1.195046,0.69327 0.0187,0 0.03401,-0.035 0.03401,-0.0778 z m 10.511754,-1.01339 c 0.04421,-0.74942 -0.1304,-1.47699 -0.564844,-2.35361 -0.369111,-0.74479 -0.263783,-0.6833 -1.356356,-0.79184 -0.511948,-0.0509 -0.948186,-0.0861 -0.969411,-0.0782 -0.02123,0.008 0.355894,0.50529 0.838037,1.10546 0.812661,1.01158 1.529447,2.02007 1.828645,2.57281 l 0.124552,0.23011 0.03707,-0.12838 c 0.02039,-0.0706 0.04843,-0.32095 0.06231,-0.5563 z m 18.666902,-0.96064 c 0.38502,-1.00826 0.94959,-2.88165 0.8871,-2.94365 -0.0462,-0.0458 -1.6796,-0.0323 -1.88263,0.0156 l -0.16705,0.0394 -0.14512,0.55228 c -0.17194,0.6544 -0.42401,1.44009 -0.63188,1.96959 -0.0849,0.21617 -0.13232,0.39258 -0.1094,0.40675 0.0222,0.0138 0.24821,0.0496 0.50211,0.0796 0.2539,0.03 0.63495,0.0897 0.84677,0.13254 0.59727,0.12088 0.55133,0.13743 0.7001,-0.25217 z m -32.599258,-0.29614 c -0.09516,-0.18927 -0.353003,-0.64828 -0.572975,-1.02002 -0.21997,-0.37174 -0.529647,-0.91179 -0.688169,-1.2001 l -0.288221,-0.52421 h -0.31794 c -0.226908,0 -0.317359,0.0153 -0.315911,0.0535 0.0012,0.0294 0.07435,0.44779 0.162732,0.9297 l 0.160702,0.87621 1.003371,0.64644 c 0.551853,0.35554 1.009235,0.63208 1.016402,0.61453 0.0072,-0.0176 -0.06483,-0.18677 -0.159991,-0.37604 z m 29.912018,-0.0591 c 0.31966,-0.82183 0.79353,-2.3312 0.74661,-2.37811 -0.0432,-0.0432 -0.82755,0.19236 -2.546622,0.765 -2.687822,0.89534 -3.187295,1.00106 -4.728595,1.00091 -0.876054,0 -1.105645,-0.0142 -1.561849,-0.096 -1.462027,-0.26223 -2.973595,-0.79052 -4.643098,-1.62275 -0.305967,-0.15252 -0.537049,-0.25792 -0.513511,-0.23423 0.0788,0.0793 1.44712,0.83186 2.161033,1.18852 1.676245,0.83741 3.065025,1.29848 4.493237,1.49174 0.982397,0.13293 1.558793,0.16236 3.76576,0.19225 1.23564,0.0168 2.346315,0.0339 2.468165,0.0381 l 0.22155,0.008 z m -13.140325,-0.79166 c -0.292828,-0.37442 -0.573626,-0.60415 -1.443907,-1.1813 -1.06922,-0.70908 -1.465758,-0.90068 -1.465758,-0.70821 0,0.023 0.129982,0.12275 0.288853,0.22166 0.158864,0.0989 0.826877,0.54111 1.484471,0.98268 0.65759,0.44156 1.202987,0.80284 1.212,0.80284 0.009,0 -0.02502,-0.0529 -0.07566,-0.11767 z m -34.922624,-0.38514 c -0.04666,-0.1118 -0.175954,-0.36661 -0.28732,-0.56625 l -0.202488,-0.36298 -0.373944,-0.0534 c -0.735045,-0.10501 -1.408334,-0.32404 -1.901322,-0.61852 -0.131317,-0.0784 -0.451404,-0.34482 -0.711309,-0.59195 -0.259904,-0.24713 -0.456114,-0.42043 -0.436024,-0.38513 0.112428,0.19756 0.597283,0.91357 0.767908,1.13401 0.294812,0.38088 0.825188,0.90407 1.108732,1.0937 0.376853,0.25204 1.081295,0.45493 1.825801,0.52585 0.08237,0.008 0.182406,0.0173 0.222289,0.0211 0.06619,0.006 0.06511,-0.0109 -0.01232,-0.19642 z m 1.165371,0.0926 c 0.457713,-0.0868 1.149435,-0.30763 1.149435,-0.36699 0,-0.0251 -0.125513,-0.23723 -0.278915,-0.47136 -0.213426,-0.32573 -0.296322,-0.4203 -0.353042,-0.40275 -0.210929,0.0653 -0.754956,0.16039 -1.04766,0.18318 -0.182403,0.0142 -0.331872,0.0374 -0.332149,0.0516 -6.02e-4,0.0246 0.486219,1.0727 0.498593,1.07369 0.0033,6.1e-4 0.166966,-0.03 0.363738,-0.0673 z m 41.781129,-0.27222 c 0.807788,-0.14086 1.536295,-0.34891 3.378475,-0.96483 0.942624,-0.31515 1.928384,-0.62426 2.190584,-0.6869 l 0.47672,-0.1139 0.046,-0.24164 c 0.10001,-0.52547 0.19916,-1.76753 0.14539,-1.8213 -0.0505,-0.0505 -1.31772,0.52385 -2.98491,1.35289 -2.29787,1.14266 -3.362193,1.53805 -4.651406,1.72793 -0.63701,0.0938 -1.753373,0.0636 -2.345203,-0.0634 -1.042294,-0.22379 -2.486449,-0.791 -5.534762,-2.17385 -0.490466,-0.2225 -0.898207,-0.39808 -0.9061,-0.39019 -0.0079,0.008 -0.02063,0.0687 -0.02831,0.13521 -0.01337,0.11593 0.01918,0.13922 0.799115,0.57177 2.927303,1.62347 4.790262,2.37837 6.572841,2.66342 0.737098,0.11788 0.824179,0.12368 1.621967,0.10814 0.466997,-0.009 0.87996,-0.0441 1.219592,-0.1033 z m -27.535357,-0.63508 c -0.06548,-0.3598 -0.128365,-0.66349 -0.139736,-0.67486 -0.01138,-0.0114 -0.430658,-0.0155 -0.931754,-0.009 l -0.91108,0.0116 1.043896,0.66767 c 0.574141,0.36721 1.04701,0.66569 1.050817,0.66328 0.0038,-0.002 -0.04666,-0.29876 -0.112143,-0.65856 z m -12.002833,0.0353 c 0.234099,-0.14033 0.47208,-0.292 0.528846,-0.33706 l 0.10321,-0.0819 -0.140046,-0.22995 c -0.07702,-0.12647 -0.186567,-0.29192 -0.243432,-0.36767 l -0.103388,-0.13773 -0.416083,0.20903 c -0.228845,0.11496 -0.487424,0.23817 -0.574617,0.27381 l -0.158536,0.0648 0.211522,0.32082 c 0.116338,0.17645 0.234097,0.37036 0.261687,0.43092 0.02759,0.0606 0.06255,0.1101 0.07768,0.1101 0.01515,0 0.219054,-0.11481 0.453154,-0.25514 z m 27.947763,-0.98585 c 0.433859,-0.95975 0.740862,-1.89208 0.922957,-2.80292 0.07597,-0.38001 0.09445,-0.62328 0.09589,-1.26239 0.0021,-0.95596 -0.04523,-1.21715 -0.264882,-1.46028 -0.08353,-0.0925 -0.159187,-0.16079 -0.168125,-0.15185 -0.0089,0.009 -0.07248,0.34162 -0.141212,0.7393 -0.393705,2.27805 -0.714561,3.58318 -1.185939,4.82398 -0.105798,0.27848 -0.181848,0.51684 -0.169002,0.52969 0.02822,0.0282 0.484738,0.0906 0.603316,0.0824 0.06455,-0.004 0.137125,-0.12216 0.307,-0.49794 z m -1.491319,-0.0963 c 0.242067,-0.62848 0.538347,-1.55489 0.68771,-2.15034 0.233037,-0.92902 0.733018,-3.6339 0.733018,-3.96559 0,-0.10957 -0.08927,-0.22327 -0.549483,-0.69982 -0.302215,-0.31294 -0.787383,-0.8355 -1.078145,-1.16124 -0.290765,-0.32574 -0.539942,-0.59727 -0.553726,-0.60339 -0.04293,-0.0191 -0.685431,1.08259 -1.013324,1.73749 -0.564149,1.12679 -0.9897,2.25001 -1.186093,3.13062 -0.226559,1.01588 -0.453629,2.53157 -0.520887,3.47691 l -0.02969,0.41722 0.208351,0.003 c 0.114597,0.002 0.776431,0.0567 1.470742,0.12292 0.694309,0.0662 1.35243,0.12277 1.462479,0.12577 l 0.200097,0.005 0.168941,-0.43863 z m 12.021889,0.20468 c 1.131351,-0.23502 1.900136,-0.54321 4.376294,-1.75438 0.976742,-0.47776 2.006982,-0.95999 2.289412,-1.07161 0.28243,-0.11163 0.52928,-0.21729 0.54855,-0.23481 0.0401,-0.0364 -0.10191,-0.66745 -0.20551,-0.9134 -0.0399,-0.0948 -0.0909,-0.15509 -0.12052,-0.14262 -0.0282,0.0119 -0.9179,0.40112 -1.977021,0.86496 -3.26527,1.43004 -4.00082,1.71858 -5.07094,1.98924 -0.836653,0.21161 -1.279829,0.26838 -2.118238,0.27133 -1.744378,0.006 -3.313612,-0.44293 -5.71141,-1.63446 -0.458168,-0.22767 -0.844811,-0.41927 -0.859196,-0.42576 -0.0144,-0.007 -0.04567,0.0958 -0.06951,0.22738 l -0.04336,0.2392 0.199306,0.10099 c 0.305497,0.15481 2.211516,1.00722 3.224949,1.44226 1.637124,0.70278 2.465037,0.98097 3.350427,1.12578 0.560035,0.0916 1.518395,0.0547 2.186769,-0.0841 z m -41.056266,-0.0271 c 0.174001,-0.0259 0.342147,-0.063 0.373658,-0.0825 0.127805,-0.079 -1.05337,-1.24321 -2.911746,-2.86995 -1.242985,-1.08806 -2.482967,-2.29057 -3.327417,-3.22688 -0.318404,-0.35304 -0.607176,-0.67077 -0.641714,-0.70608 -0.08694,-0.0889 0.43208,0.75231 0.853204,1.3828 0.881204,1.31929 1.416629,1.96521 2.773479,3.3458 1.004754,1.02233 1.462196,1.54331 1.775363,2.02196 l 0.118994,0.18187 h 0.33491 c 0.1842,0 0.477269,-0.0212 0.651269,-0.0471 z m 4.322913,-0.43439 0.506282,-0.48139 -0.19312,-0.27167 c -0.106216,-0.14943 -0.203546,-0.2821 -0.216287,-0.29484 -0.01274,-0.0127 -0.146997,0.0825 -0.298345,0.21174 -0.151348,0.1292 -0.400098,0.32664 -0.552775,0.43874 l -0.277596,0.20382 0.218166,0.33753 c 0.119993,0.18563 0.238246,0.3375 0.262783,0.33749 0.02454,-2e-5 0.272438,-0.21666 0.550892,-0.48142 z m -6.312735,0.19377 c -0.07795,-0.11116 -0.614045,-0.68405 -1.191308,-1.27309 -1.13112,-1.1542 -1.423141,-1.47487 -1.956088,-2.14802 -0.371812,-0.46962 -1.040563,-1.4217 -1.44466,-2.05672 -0.138255,-0.21726 -0.258899,-0.3875 -0.268096,-0.3783 -0.0554,0.0554 0.776304,1.87022 1.193523,2.60434 0.926291,1.62984 1.960529,2.81345 2.757476,3.15573 0.246227,0.10575 0.860802,0.29257 0.973342,0.29587 0.06534,0.002 0.05524,-0.0295 -0.06419,-0.19981 z m 26.874329,-0.47619 c 0.09152,-1.11228 0.345576,-2.68734 0.590625,-3.66168 0.322596,-1.28268 1.299762,-3.41893 2.121084,-4.63705 l 0.210017,-0.31149 -0.265123,-0.29831 c -0.145819,-0.16407 -0.280876,-0.29831 -0.300128,-0.29831 -0.117229,0 -1.300102,1.74325 -1.789107,2.63669 -0.958363,1.75097 -1.35741,3.01292 -1.561871,4.93924 -0.08386,0.79002 -0.164695,2.14089 -0.130196,2.17561 0.02566,0.0258 0.481545,0.0693 0.877666,0.0837 l 0.194746,0.007 z m -1.815033,-0.0599 c 0.07096,-1.41211 0.22343,-2.65681 0.433766,-3.5411 0.40642,-1.70869 1.413402,-3.71132 2.797123,-5.56278 0.202175,-0.27051 0.391269,-0.52354 0.420208,-0.56229 0.04526,-0.0606 -0.101461,-0.2558 -1.048422,-1.3948 -0.605571,-0.72838 -1.643863,-1.97896 -2.307314,-2.77906 -1.842599,-2.22214 -3.662904,-4.33619 -3.733685,-4.33619 -0.055,0 -0.98861,1.11452 -1.451626,1.73291 -1.338691,1.78792 -2.416065,3.74473 -3.345714,6.07677 -0.828922,2.07935 -1.496107,4.29022 -2.395515,7.93805 -0.616012,2.49844 -0.636944,2.5857 -0.623528,2.59912 0.05584,0.0558 1.169358,0.0949 2.742838,0.0961 2.401764,0.002 5.55004,0.10711 7.617108,0.25445 0.258895,0.0185 0.559722,0.0363 0.668495,0.0397 l 0.197772,0.006 z m -21.274798,0.21506 c 0.253011,-0.11976 0.460194,-0.23881 0.460402,-0.26455 6.02e-4,-0.0771 -0.843028,-0.87357 -1.391963,-1.31406 -0.281982,-0.22628 -0.965226,-0.73482 -1.518323,-1.13009 -1.888135,-1.34936 -2.742712,-2.03564 -3.979725,-3.19596 -0.60059,-0.56336 -1.67006,-1.67864 -2.074015,-2.16287 -0.141089,-0.16913 -0.173953,-0.17212 -0.252096,-0.023 -0.0594,0.11338 -0.05268,0.12607 0.287486,0.54245 1.380568,1.68988 2.693881,3.02702 4.648982,4.73335 1.252121,1.09279 2.068784,1.86104 2.576303,2.42356 0.265858,0.29467 0.499683,0.56477 0.519613,0.60024 0.0495,0.0881 0.167905,0.0538 0.723336,-0.20908 z m 48.377696,0.11658 c 0.69527,0 0.8274,-0.01 0.84427,-0.0642 0.043,-0.13801 0.19191,-1.11418 0.23406,-1.53438 0.0582,-0.57998 0.0579,-1.16156 -6e-4,-1.16156 -0.0963,0 -1.28368,0.31358 -1.71353,0.45252 l -0.45332,0.14653 -0.027,0.65261 c -0.0244,0.59064 -0.0773,1.13486 -0.14142,1.45696 l -0.0239,0.11967 0.2285,-0.0341 c 0.12568,-0.0187 0.59942,-0.0341 1.05277,-0.0341 z m -38.424236,-2.86712 c 1.238745,-5.0248 2.166957,-7.79998 3.499502,-10.46282 1.010099,-2.0185 2.055588,-3.58694 3.514462,-5.27239 l 0.396611,-0.45821 -0.546047,-0.58654 c -0.30033,-0.32259 -0.606712,-0.65559 -0.680854,-0.73998 -0.07414,-0.0844 -0.14413,-0.14383 -0.155534,-0.13206 -0.08022,0.0828 -3.008865,4.53342 -3.365297,5.1142 -2.818401,4.59237 -3.810396,7.3925 -4.600901,12.98713 -0.267183,1.89092 -0.26522,1.86873 -0.16796,1.89785 0.09174,0.0275 1.181555,0.23079 1.342296,0.25043 0.131247,0.016 0.05784,0.2657 0.763722,-2.59761 z m -2.841475,1.91498 c 0.01593,-0.13533 0.123517,-0.91041 0.239099,-1.72241 0.391561,-2.75079 0.746972,-4.4047 1.331478,-6.19601 0.450362,-1.38021 0.813128,-2.25126 1.536398,-3.68911 0.902621,-1.7944 1.771905,-3.22706 3.903722,-6.43371 l 1.361174,-2.04745 -0.150342,-0.18348 c -0.353608,-0.43153 -2.876212,-2.79941 -3.795811,-3.563 -0.0622,-0.0516 -0.09669,-0.01 -0.315896,0.3827 -0.67212,1.20367 -1.452475,2.167 -2.515596,3.10542 -0.642102,0.56679 -1.081346,0.91 -2.437001,1.90415 -1.464008,1.07362 -2.089852,1.58232 -2.828844,2.29934 -0.962983,0.93436 -1.484706,1.5983 -1.826639,2.32455 l -0.164782,0.35 0.158127,0.0278 c 0.08697,0.0153 0.504748,0.0325 0.928396,0.0382 0.566552,0.008 0.938948,0.0375 1.408053,0.11317 0.70955,0.1144 1.033441,0.21229 1.287888,0.38925 0.59061,0.41076 1.374717,2.06745 1.665172,3.51825 0.166153,0.82993 0.206015,1.23978 0.206015,2.11824 0,0.87929 -0.04007,1.29066 -0.206153,2.11652 -0.305949,1.52133 -1.114942,3.2888 -2.108204,4.60596 l -0.132109,0.17518 0.266244,0.0761 c 0.909788,0.26004 1.95163,0.5316 2.047909,0.53379 0.105791,0.002 0.114536,-0.0126 0.141702,-0.2435 z m -5.652485,-0.0695 c 0.191671,-0.15003 0.434615,-0.34956 0.53988,-0.44338 l 0.191388,-0.17059 -0.597919,-0.59723 c -0.891422,-0.89038 -1.465581,-1.28322 -3.336656,-2.28298 -1.781696,-0.952 -2.861362,-1.66142 -4.086703,-2.68526 -0.584939,-0.48875 -1.577331,-1.41508 -1.841997,-1.71937 l -0.226941,-0.26092 -0.142332,0.13795 c -0.07828,0.0759 -0.142332,0.15825 -0.142332,0.18305 0,0.13286 1.657219,1.8717 2.588961,2.71649 1.098363,0.99585 1.8821,1.61384 3.573194,2.81753 1.379146,0.98164 2.330601,1.76366 2.810577,2.31005 0.129217,0.1471 0.254619,0.26746 0.278666,0.26746 0.02406,0 0.200543,-0.12276 0.392214,-0.2728 z m 2.438401,-0.46228 0.378199,-0.47597 -0.213661,-0.21366 -0.213657,-0.21366 -0.142863,0.16659 c -0.07857,0.0916 -0.252228,0.28222 -0.385893,0.42354 l -0.243034,0.25695 0.191777,0.26726 c 0.105475,0.147 0.205084,0.26674 0.221355,0.2661 0.01626,-6e-4 0.199766,-0.21536 0.407777,-0.47715 z m 34.128646,0.24098 c 0.841558,-0.12244 1.855843,-0.42394 2.979584,-0.88569 0.501466,-0.20605 4.825575,-2.08653 4.850165,-2.10924 0.008,-0.007 -0.0688,-0.10386 -0.17058,-0.21434 -0.20323,-0.22048 -0.59677,-0.51351 -0.88429,-0.65846 l -0.18444,-0.093 -1.227722,0.68297 c -2.778982,1.54592 -4.11892,2.09706 -5.806551,2.38836 -0.609401,0.10519 -2.053718,0.10477 -2.688554,-9.1e-4 -1.323962,-0.22011 -2.47904,-0.61516 -3.783615,-1.29404 -0.335259,-0.17447 -0.620302,-0.31721 -0.633429,-0.31721 -0.01313,0 -0.01804,0.1011 -0.01093,0.22466 l 0.01295,0.22466 0.855854,0.43573 c 1.817893,0.92552 3.172292,1.41378 4.47184,1.61208 0.553952,0.0845 1.6535,0.0866 2.219733,0.004 z m -35.055467,-1.19924 c 0.160527,-0.17818 0.297884,-0.35042 0.305244,-0.38276 0.02298,-0.10101 -1.392698,-1.18574 -2.345583,-1.79724 -0.494229,-0.31717 -0.991916,-0.6162 -2.225222,-1.33703 -2.9694,-1.73551 -4.378916,-2.70577 -5.511364,-3.7938 l -0.312047,-0.29981 -0.167547,0.19084 c -0.09215,0.10497 -0.168369,0.2022 -0.169371,0.21608 -0.0032,0.0445 1.330987,1.33304 1.774074,1.71342 1.303415,1.11892 2.285258,1.77664 4.17229,2.79495 2.045199,1.10365 2.698935,1.55068 3.573195,2.44335 0.305967,0.31241 0.569391,0.56981 0.585385,0.57199 0.01599,0.002 0.160419,-0.14181 0.320946,-0.31999 z m 1.92579,-0.47839 c 0.120508,-0.20594 0.251764,-0.43969 0.291678,-0.51943 l 0.07257,-0.14499 -0.165878,-0.16587 -0.165876,-0.16588 -0.330128,0.50208 -0.33013,0.50209 0.179815,0.18321 c 0.09889,0.10077 0.190843,0.18322 0.204325,0.18322 0.01349,0 0.123113,-0.1685 0.243622,-0.37443 z m 32.556876,0.13809 c 1.107437,-0.16624 2.127028,-0.51806 3.595181,-1.24054 0.801642,-0.39449 2.55266,-1.34201 2.646463,-1.43206 0.07741,-0.0743 -0.594724,-0.1402 -1.211913,-0.11879 -1.093133,0.0379 -2.053224,0.3128 -4.056682,1.16139 -1.373277,0.58167 -1.839145,0.75961 -2.398228,0.91599 -0.379594,0.10618 -0.477089,0.11577 -1.163191,0.11447 -1.030574,-0.002 -1.862186,-0.16331 -3.165426,-0.61416 -0.340586,-0.11782 -0.625226,-0.20824 -0.632526,-0.20095 -0.0073,0.007 0.280987,0.15841 0.640648,0.33579 2.023622,0.99803 3.916485,1.35345 5.745674,1.07886 z m 10.28783,-0.21141 c 0.27309,-0.0815 0.76279,-0.21457 1.08822,-0.2957 0.32543,-0.0811 0.60401,-0.15983 0.61907,-0.17489 0.0823,-0.0822 -0.26166,-1.46613 -0.35986,-1.44803 -0.0258,0.005 -0.54165,0.22415 -1.14646,0.48756 -0.89892,0.39151 -1.09435,0.49149 -1.07062,0.54768 0.0748,0.17718 0.23401,0.70705 0.25854,0.86049 0.0151,0.0941 0.047,0.17109 0.071,0.17109 0.024,0 0.26705,-0.0667 0.54014,-0.1482 z m -43.686247,-0.86151 c 0.164355,-0.24937 0.29883,-0.47876 0.29883,-0.50976 0,-0.12855 -0.881234,-0.67954 -2.297963,-1.43679 -2.861413,-1.52945 -4.951681,-2.85434 -7.41177,-4.69785 l -0.830242,-0.62215 -0.227842,0.25469 c -0.125311,0.14008 -0.228305,0.27676 -0.228877,0.30374 -0.0015,0.0709 0.611181,0.63639 1.213072,1.11973 1.040572,0.83561 2.107135,1.53167 4.44855,2.90321 2.207094,1.29285 3.087078,1.86921 4.151804,2.71927 0.285992,0.22833 0.534748,0.41608 0.552796,0.41723 0.01804,0.001 0.167285,-0.20195 0.331642,-0.45132 z m 31.012358,-0.21971 c -0.08879,-0.009 -0.223584,-0.009 -0.29955,3e-4 -0.07596,0.009 -0.0033,0.017 0.161427,0.0168 0.164753,-1.6e-4 0.226908,-0.008 0.138123,-0.0172 z m -29.32925,-0.55527 c 0.181201,-0.46496 0.413018,-1.23674 0.413018,-1.37506 0,-0.0799 -0.192142,-0.25879 -0.231986,-0.21597 -0.0084,0.009 -0.08477,0.22481 -0.169615,0.47941 -0.08485,0.2546 -0.234503,0.63561 -0.332573,0.84668 l -0.178307,0.38377 0.14369,0.14825 c 0.07903,0.0815 0.154989,0.14824 0.168803,0.14824 0.01382,0 0.09795,-0.18689 0.18697,-0.41532 z m 42.093139,-0.4621 c 0.52956,-0.23005 0.96951,-0.42387 0.97766,-0.4307 0.0358,-0.03 -0.26364,-0.40408 -0.51284,-0.64079 -0.30114,-0.28604 -0.51529,-0.44748 -0.59357,-0.44748 -0.10267,0 -1.14824,0.43403 -1.72919,0.71781 l -0.59555,0.29092 0.23146,0.16628 c 0.30303,0.21771 0.64396,0.54213 0.78774,0.74961 l 0.11506,0.16603 0.1782,-0.0767 c 0.098,-0.0422 0.61147,-0.26493 1.14103,-0.49498 z m -42.922203,-0.38725 c 0.09682,-0.24763 0.214754,-0.5795 0.262073,-0.73749 0.04732,-0.15799 0.09403,-0.31138 0.103798,-0.34086 0.03488,-0.10528 -0.883186,-0.5143 -2.752822,-1.22645 -2.149472,-0.81874 -3.781545,-1.55863 -5.057894,-2.29298 -0.73075,-0.42044 -1.894094,-1.20125 -2.448691,-1.64351 l -0.458827,-0.36589 -0.152023,0.19909 c -0.08361,0.10951 -0.145196,0.21978 -0.136854,0.24505 0.03822,0.11584 2.10066,1.61898 3.41036,2.48554 1.507924,0.99771 2.738213,1.72826 4.557425,2.70622 1.268892,0.68212 1.714641,0.94103 2.139638,1.24278 0.164752,0.11698 0.312652,0.20505 0.328667,0.19571 0.01602,-0.009 0.108333,-0.21958 0.20515,-0.46721 z m 35.155654,-0.32149 c 0.933958,-0.31845 1.795681,-0.47413 2.631419,-0.4754 0.630915,-9e-4 0.927968,0.0392 1.52994,0.20649 l 0.39593,0.11007 0.67389,-0.34111 c 0.37063,-0.18761 0.87216,-0.42564 1.11451,-0.52896 l 0.44063,-0.18786 -0.14108,-0.0586 c -0.36641,-0.15212 -0.94667,-0.23457 -1.66022,-0.2359 -1.235539,-0.002 -2.299241,0.26274 -4.022516,1.00238 -0.592546,0.25432 -1.407839,0.63425 -1.369037,0.63797 0.01196,0.001 0.194894,-0.057 0.406534,-0.12912 z m -9.887465,-1.56634 c 0.529888,-1.1186 1.029351,-1.76754 2.625353,-3.41106 1.241239,-1.27818 1.689107,-1.83206 2.100444,-2.59762 0.195074,-0.36306 0.368255,-0.86101 0.408048,-1.17327 l 0.02728,-0.21396 -0.112832,0.12838 c -0.06205,0.0706 -0.290639,0.32094 -0.507961,0.5563 -0.259917,0.28149 -0.413807,0.48651 -0.449691,0.5991 -0.09359,0.29365 -0.456668,1.01297 -0.675424,1.33816 -0.379397,0.56397 -0.757895,1.00339 -1.72244,1.99968 -1.404493,1.45071 -1.899897,2.07296 -2.353824,2.95647 -0.298135,0.58028 -0.33647,0.71876 -0.231618,0.83661 0.04489,0.0505 0.157832,0.12624 0.250969,0.1684 l 0.169339,0.0767 0.141037,-0.43107 c 0.07757,-0.23708 0.226667,-0.61183 0.331332,-0.83278 z m -23.782829,-0.64984 c 0.02099,-0.7903 0.01509,-0.96317 -0.03404,-0.99427 -0.0327,-0.0207 -0.07089,-0.0379 -0.08485,-0.0383 -0.01397,-3e-4 -0.03776,0.30264 -0.05286,0.67333 -0.01512,0.3707 -0.05583,0.84651 -0.09049,1.05736 -0.03466,0.21085 -0.05901,0.38574 -0.05412,0.38863 0.0049,0.003 0.05704,0.0378 0.11588,0.0775 0.106111,0.0717 0.107261,0.0712 0.141025,-0.0677 0.01873,-0.077 0.04548,-0.57046 0.05946,-1.0966 z m 22.473903,0.56986 c 0.469701,-0.93824 1.05712,-1.68956 2.407639,-3.07945 0.84158,-0.86611 1.410818,-1.49698 1.499887,-1.66231 0.0234,-0.0434 -0.195008,0.1206 -0.485355,0.36451 -0.29035,0.24392 -0.990067,0.82139 -1.554929,1.28327 -0.564866,0.46188 -1.248478,1.02924 -1.519142,1.26079 -0.56626,0.48444 -1.412161,1.29481 -1.412161,1.35285 0,0.0401 0.819738,0.93888 0.838863,0.91976 0.0058,-0.006 0.10709,-0.20349 0.225198,-0.43942 z m -23.429803,0.0551 c 0.05559,-0.22181 0.115937,-1.27509 0.08945,-1.5613 -0.02858,-0.30891 -0.029,-0.3097 -0.177482,-0.3507 -0.234349,-0.0647 -1.016926,-0.23974 -2.109252,-0.47177 -0.553097,-0.11748 -1.255967,-0.28209 -1.561934,-0.36579 -2.317456,-0.63392 -4.394115,-1.54984 -6.093581,-2.68759 l -0.316565,-0.21193 -0.08047,0.10185 c -0.04426,0.056 -0.117081,0.15105 -0.161828,0.21119 l -0.08135,0.10934 0.350013,0.28195 c 1.78134,1.43497 4.017406,2.62862 7.161069,3.8227 1.355223,0.51476 2.250433,0.87942 2.603343,1.06046 0.164752,0.0845 0.311905,0.15461 0.327005,0.15577 0.01512,0.001 0.03831,-0.0412 0.05159,-0.0942 z m -14.741169,-1.24661 c 0.08546,-0.1289 0.455897,-0.55828 0.823182,-0.95418 1.14687,-1.23621 1.847343,-2.06344 2.529994,-2.98783 0.721333,-0.97677 0.869017,-1.12295 1.381035,-1.36701 0.419742,-0.20008 0.606269,-0.23365 1.625963,-0.29268 l 0.898486,-0.052 0.116808,-0.21396 c 0.06424,-0.11768 0.23571,-0.48356 0.381039,-0.81307 0.705797,-1.60026 1.226066,-2.42939 2.089132,-3.32939 0.842113,-0.87815 1.392924,-1.24409 3.233153,-2.14799 2.163807,-1.06283 2.784203,-1.45218 3.575661,-2.24402 0.84042,-0.84082 1.345256,-1.77124 1.685231,-3.1059 0.05985,-0.23495 0.108992,-0.44941 0.109206,-0.47658 9.04e-4,-0.11627 -2.087302,-1.42116 -3.032658,-1.89505 -1.603823,-0.80397 -3.516652,-1.38977 -5.727335,-1.75397 -0.863045,-0.14218 -2.013277,-0.28428 -2.044931,-0.25263 -0.01147,0.0115 -0.04013,0.80888 -0.06367,1.772 -0.08551,3.49941 -0.267237,5.17783 -0.77771,7.18299 -0.641094,2.51821 -2.07525,5.42458 -3.823426,7.74829 -1.135616,1.50948 -2.577909,2.93894 -4.093253,4.05681 -0.229666,0.16943 -0.413496,0.32213 -0.408506,0.33934 0.01259,0.0434 1.331933,1.05526 1.351429,1.03645 0.0087,-0.008 0.08571,-0.12069 0.17117,-0.2496 z m 37.059701,-0.20834 c 0.533791,-0.51213 1.409387,-1.26313 2.707535,-2.32225 1.244653,-1.01548 2.311786,-1.92761 2.838539,-2.42625 l 0.385137,-0.36458 0.01424,-0.46743 c 0.0078,-0.25708 -0.0018,-0.52917 -0.02138,-0.60464 l -0.03564,-0.13721 -0.40653,0.45326 c -1.998923,2.22869 -4.651238,3.78839 -7.225649,4.24904 l -0.400204,0.0716 0.614169,0.70513 c 0.337792,0.38781 0.717171,0.82527 0.843064,0.97213 0.125895,0.14686 0.239076,0.26702 0.251526,0.26702 0.01244,0 0.208288,-0.17813 0.435208,-0.39583 z m -21.477922,-0.98424 c -0.0012,-0.28261 -0.415727,-1.74854 -0.523434,-1.85078 -0.03093,-0.0294 -0.03746,-0.021 -0.02081,0.0266 0.136996,0.39212 0.334895,1.21567 0.394639,1.64228 0.01647,0.11768 0.03885,0.22841 0.04971,0.24606 0.04096,0.0665 0.100275,0.0284 0.0999,-0.0642 z m -17.054623,-0.53958 c 2.503086,-1.89112 4.327502,-4.0732 5.885693,-7.03956 1.237613,-2.35607 1.875493,-4.36642 2.201516,-6.93829 0.167704,-1.32295 0.280828,-3.44466 0.280861,-5.26775 l 1.8e-5,-0.98848 -0.417227,-0.0276 c -0.229477,-0.0152 -0.524055,-0.0277 -0.654618,-0.0279 l -0.237388,-2.1e-4 -0.0024,1.23029 c -0.0041,2.0924 -0.227772,3.9361 -0.720469,5.93749 -0.229832,0.93361 -0.439352,1.59791 -0.877286,2.78153 -1.118899,3.02408 -2.032885,4.85743 -3.20137,6.42158 -0.859519,1.15056 -1.643806,1.91019 -3.111094,3.01327 -0.353039,0.26541 -0.657822,0.497 -0.677294,0.51466 -0.01948,0.0177 0.173094,0.21628 0.427927,0.4414 0.536805,0.4742 0.40045,0.48043 1.103113,-0.0504 z m 16.117503,-0.0818 c -0.04916,-0.22898 -0.142368,-0.58001 -0.207129,-0.78007 -0.0986,-0.30458 -0.131666,-0.36236 -0.203334,-0.35525 -0.981262,0.0973 -1.960479,0.10047 -2.9313,0.009 -1.868753,-0.17524 -3.801807,-0.797 -5.305819,-1.70658 -0.311478,-0.18838 -0.384797,-0.21605 -0.514388,-0.19415 -0.08312,0.014 -0.174449,0.0399 -0.202949,0.0576 -0.0633,0.0391 0.836017,0.58667 1.656936,1.00882 1.908173,0.98125 3.568818,1.54432 6.131504,2.079 0.570701,0.11906 1.172436,0.25115 1.337188,0.29352 0.164752,0.0424 0.306103,0.0606 0.314113,0.0405 0.008,-0.02 -0.02566,-0.22383 -0.07482,-0.45281 z m 20.848137,-0.71972 c 2.125706,-0.44709 4.20204,-1.62591 5.983296,-3.39695 0.598093,-0.59466 1.236667,-1.31706 1.236667,-1.399 0,-0.071 -0.430984,-0.91391 -0.46523,-0.90987 -0.01479,0.002 -0.190569,0.19502 -0.390624,0.4295 -0.494594,0.57969 -1.719546,1.78004 -2.267656,2.22211 -1.678717,1.35395 -3.801195,2.31218 -5.465803,2.46763 -0.323572,0.0302 -0.323774,0.0255 0.01891,0.44371 l 0.247221,0.3017 0.290163,-0.0244 c 0.15959,-0.0134 0.525467,-0.0739 0.813061,-0.13441 z M 43.596931,174.0791 c 1.3329,-0.99894 2.136882,-1.73947 2.816664,-2.59435 1.272418,-1.60016 2.223111,-3.44919 3.392499,-6.59813 0.635228,-1.71055 0.949745,-2.85482 1.221011,-4.44223 0.258212,-1.51101 0.314559,-2.1875 0.319016,-3.82995 l 0.0041,-1.49775 -1.347972,-0.0104 c -0.741384,-0.006 -1.598309,0.004 -1.904276,0.0214 l -0.556308,0.0318 -0.05399,0.66329 c -0.222464,2.73294 -0.833663,5.5244 -1.708937,7.80504 -0.833404,2.17154 -1.823393,3.87159 -3.217304,5.5249 -0.367214,0.43555 -1.549084,1.63467 -2.112866,2.14371 l -0.374643,0.33827 0.602409,0.67478 c 0.630675,0.70645 2.163579,2.25652 2.231528,2.25652 0.02168,0 0.331788,-0.21911 0.689102,-0.48689 z m 16.602326,-0.5248 0.32483,-0.0275 -0.165074,-0.32558 c -0.09079,-0.17906 -0.258134,-0.45969 -0.371866,-0.6236 -0.24435,-0.35216 -0.204768,-0.33872 -1.212422,-0.4117 -0.707667,-0.0513 -4.196361,-0.0239 -5.070937,0.0398 l -0.385134,0.028 0.381162,0.18313 c 1.188514,0.571 2.717344,0.9826 4.219055,1.13586 0.276082,0.0282 1.951839,0.0293 2.280386,0.001 z m 20.344081,-0.1664 c 2.219157,-0.28773 4.294099,-1.40656 6.298634,-3.39629 0.449528,-0.44621 1.215964,-1.28803 1.454454,-1.59751 0.0499,-0.0648 0.02942,-0.10855 -0.165126,-0.35304 -0.12215,-0.15352 -0.233208,-0.27911 -0.246796,-0.27911 -0.01358,0 -0.324845,0.29416 -0.691694,0.6537 -0.366852,0.35954 -0.8756,0.82651 -1.130562,1.03773 -1.971212,1.63296 -4.151734,2.67121 -6.423091,3.05832 -0.280798,0.0479 -0.518598,0.0951 -0.528434,0.10491 -0.0098,0.01 0.133244,0.20089 0.317971,0.42456 0.387739,0.46948 0.323075,0.44936 1.114644,0.34673 z m -0.949949,-1.54146 c 1.613402,-0.26808 3.244373,-0.9373 4.792785,-1.96657 0.843146,-0.56047 1.425993,-1.04124 2.287011,-1.88647 l 0.746472,-0.73279 -0.10458,-0.12377 c -0.05752,-0.0681 -0.204997,-0.21749 -0.327722,-0.33204 l -0.223141,-0.20827 -0.611316,0.57864 c -2.572524,2.43502 -4.515283,3.47147 -7.427387,3.96248 -0.383192,0.0646 -0.698185,0.13232 -0.699992,0.15048 -0.0018,0.0182 0.117874,0.18407 0.265952,0.3687 l 0.26923,0.3357 0.216799,-0.0233 c 0.119231,-0.0128 0.486385,-0.0681 0.815889,-0.12282 z m -23.936835,-0.40432 h 0.808057 l 0.07136,-0.18187 c 0.03925,-0.10002 0.19294,-0.42319 0.341542,-0.71815 0.353595,-0.70185 0.804367,-1.27202 1.741806,-2.20316 0.772019,-0.76684 1.36025,-1.26261 2.487611,-2.09661 2.38961,-1.76777 3.039726,-2.29521 3.698506,-3.00057 0.686891,-0.73545 1.267013,-1.54233 1.662618,-2.31249 l 0.217488,-0.4234 -0.555412,-0.44238 c -0.305477,-0.2433 -0.560707,-0.43526 -0.567182,-0.42657 -0.0065,0.009 -0.05315,0.17402 -0.103716,0.3674 -0.425503,1.62715 -1.30927,2.96327 -2.597344,3.92681 -0.803163,0.6008 -1.146674,0.79146 -3.573646,1.98345 -1.151679,0.56563 -1.781428,1.00807 -2.469419,1.73488 -0.752974,0.79546 -1.238115,1.56079 -1.837016,2.89796 -0.220422,0.49213 -0.400767,0.90681 -0.400767,0.92149 0,0.0147 0.06018,0.0147 0.133729,-4e-5 0.07355,-0.0147 0.497352,-0.0267 0.941787,-0.0267 z m -15.489849,-0.84037 c 2.799507,-2.50262 4.510329,-5.31815 5.638958,-9.28011 0.484638,-1.70128 0.864996,-3.86863 1.010385,-5.75732 l 0.02813,-0.36544 -0.806677,0.0573 c -0.443671,0.0315 -0.830745,0.0654 -0.860166,0.0752 -0.0304,0.0102 -0.05349,0.0889 -0.05349,0.18244 0,0.0905 -0.03005,0.48103 -0.06676,0.8679 -0.313851,3.30677 -1.536758,6.86285 -3.229259,9.39033 -0.905045,1.35153 -1.972843,2.46464 -3.08793,3.21897 -0.231051,0.1563 -0.420031,0.29512 -0.419952,0.3085 1.29e-4,0.0226 0.959811,1.31867 1.198057,1.61794 0.05884,0.0739 0.119677,0.13072 0.135192,0.12624 0.01551,-0.004 0.2466,-0.20337 0.513515,-0.44199 z m 50.703341,-0.29463 0.18058,-0.23407 -0.112233,-0.35319 c -0.06173,-0.19425 -0.145858,-0.42656 -0.186964,-0.51624 l -0.07472,-0.16305 -0.33657,0.453 -0.336575,0.453 0.0714,0.28423 c 0.03927,0.15632 0.08316,0.41019 0.09754,0.56413 l 0.02614,0.27991 0.245413,-0.26683 c 0.134979,-0.14676 0.326677,-0.37216 0.425998,-0.50089 z m -12.838591,0.27816 c 0.596103,-0.0779 1.612378,-0.28742 2.163485,-0.44616 1.735862,-0.49998 3.296434,-1.42951 5.011773,-2.98518 0.301857,-0.27376 0.660993,-0.612 0.798083,-0.75165 l 0.249255,-0.25391 -0.270652,-0.21318 c -0.148857,-0.11725 -0.387884,-0.29495 -0.531176,-0.3949 l -0.260528,-0.18172 -0.589842,0.4543 c -1.453008,1.11914 -2.743085,1.9894 -4.045626,2.72911 -0.80344,0.45627 -2.129959,1.05371 -3.014572,1.3577 -0.281159,0.0966 -0.51942,0.18389 -0.529472,0.19394 -0.01006,0.01 0.09001,0.14161 0.222361,0.29236 0.182643,0.20804 0.263834,0.2708 0.3369,0.26044 0.05295,-0.008 0.259956,-0.035 0.460011,-0.0611 z m -0.744268,-1.29986 c 2.016795,-0.68543 3.969672,-1.78604 6.403607,-3.60898 0.488372,-0.36577 0.887946,-0.68049 0.887946,-0.69938 0,-0.0189 -0.29752,-0.18268 -0.661153,-0.36399 l -0.661159,-0.32967 -0.33377,0.31225 c -1.650964,1.54452 -3.470881,2.81582 -5.058373,3.5335 -0.524335,0.23705 -1.709711,0.65849 -1.854787,0.65943 -0.04119,3e-4 -0.07489,0.0123 -0.07489,0.0267 0,0.0551 0.572252,0.70128 0.621092,0.70128 0.02828,0 0.357441,-0.10401 0.731485,-0.23113 z m 12.726318,-0.47211 c 0.164704,-0.22203 0.299463,-0.41593 0.299463,-0.43089 0,-0.047 -0.49055,-0.74874 -0.52345,-0.74875 -0.01722,0 -0.155633,0.15791 -0.30756,0.35091 l -0.276232,0.35092 0.106803,0.17329 c 0.05874,0.0953 0.167577,0.29366 0.241857,0.44076 0.07428,0.1471 0.140595,0.26745 0.147361,0.26745 0.0067,0 0.147051,-0.18166 0.311758,-0.40369 z M 38.29263,168.45063 c 1.35145,-0.91195 2.552221,-2.27773 3.559507,-4.04866 1.188454,-2.08944 2.06574,-4.73472 2.412332,-7.27392 0.08937,-0.65474 0.187175,-1.69209 0.161921,-1.71735 -0.02277,-0.0228 -1.376816,0.14486 -2.644085,0.32736 -1.858541,0.26765 -3.882461,0.64249 -5.427179,1.00514 -0.734752,0.1725 -0.774061,0.20183 -0.774061,0.57765 0,0.31716 0.129435,0.73358 0.379013,1.21936 0.108824,0.21183 0.20447,0.39958 0.21254,0.41723 0.0081,0.0177 -0.116909,0.0326 -0.277738,0.0332 -0.281854,10e-4 -0.929438,0.0531 -1.351537,0.10858 l -0.203266,0.0267 v 0.26142 c 0,0.52791 0.418194,2.30373 0.853586,3.62469 0.570847,1.73191 1.469315,3.64858 2.472358,5.27421 0.12707,0.20594 0.249997,0.37443 0.27317,0.37443 0.02316,0 0.182221,-0.0945 0.353439,-0.21006 z m 2.389697,-7.25834 c -1.827951,-0.39693 -2.489718,-2.64072 -1.168503,-3.96194 0.467976,-0.46797 0.986384,-0.68 1.662612,-0.68 0.828348,0 1.519229,0.37875 1.984868,1.08813 0.316001,0.48141 0.437823,1.12756 0.319269,1.6934 -0.199754,0.95337 -0.90372,1.66381 -1.844337,1.86129 -0.363539,0.0763 -0.599328,0.0761 -0.953909,-9e-4 z m 1.231518,-0.82067 c 0.305777,-0.14914 0.594898,-0.44216 0.752001,-0.76214 0.116046,-0.23635 0.125794,-0.29269 0.125794,-0.72693 0,-0.44481 -0.0074,-0.48489 -0.134641,-0.72817 -0.165683,-0.3168 -0.49432,-0.63115 -0.818862,-0.78326 -0.21438,-0.10048 -0.297818,-0.11469 -0.673521,-0.11469 -0.397089,0 -0.449678,0.0103 -0.710573,0.13871 -0.339316,0.16704 -0.639817,0.47311 -0.799962,0.81479 -0.100431,0.21428 -0.114687,0.2979 -0.114687,0.67262 0,0.38954 0.01187,0.45289 0.132081,0.70609 0.159501,0.33589 0.46195,0.6457 0.77488,0.79374 0.439599,0.20796 1.027869,0.20365 1.46749,-0.0108 z m -1.096458,-0.27073 c -0.229941,-0.071 -0.544638,-0.31089 -0.686648,-0.52338 -0.485364,-0.72625 -0.108423,-1.6749 0.753221,-1.89564 0.645864,-0.16546 1.294258,0.21393 1.484598,0.86867 0.16942,0.58279 -0.104789,1.18519 -0.66813,1.46782 -0.216142,0.10844 -0.663737,0.15027 -0.883041,0.0825 z m 0.171187,-1.49959 c 0.159287,-0.1253 0.159287,-0.38201 0,-0.50731 -0.06201,-0.0488 -0.155699,-0.0887 -0.208192,-0.0887 -0.05249,0 -0.146177,0.0399 -0.208192,0.0887 -0.159283,0.1253 -0.159283,0.38201 0,0.50731 0.06201,0.0488 0.1557,0.0887 0.208192,0.0887 0.05249,0 0.146178,-0.0399 0.208192,-0.0887 z m 35.037451,9.5055 c 1.902532,-0.53422 3.875412,-1.71106 5.978948,-3.5665 0.360028,-0.31756 0.470105,-0.43745 0.424895,-0.46275 -0.06977,-0.039 -0.907334,-0.18869 -1.307086,-0.23354 l -0.267906,-0.03 -0.673536,0.65836 c -1.744523,1.70524 -3.390172,2.6843 -5.20054,3.09401 l -0.119348,0.027 0.269122,0.31854 c 0.172964,0.20473 0.300881,0.31896 0.357992,0.31971 0.04887,6.1e-4 0.29073,-0.0555 0.537459,-0.1248 z m 13.04544,-0.6685 c 0.141498,-0.17806 0.257269,-0.34019 0.257269,-0.36029 0,-0.0598 -0.433504,-0.51576 -0.469298,-0.49364 -0.0181,0.0112 -0.142558,0.15435 -0.276542,0.31812 l -0.243613,0.29776 0.227273,0.27998 c 0.125001,0.15398 0.231855,0.28039 0.237457,0.2809 0.0056,6e-4 0.125953,-0.14477 0.267454,-0.32283 z m -14.09969,-0.55064 c 1.227895,-0.29843 2.427753,-0.91583 3.594588,-1.84964 0.586289,-0.46921 1.44304,-1.26395 1.402554,-1.30104 -0.03077,-0.0282 -1.318803,-0.11708 -1.924257,-0.13281 l -0.264945,-0.007 -0.254752,0.23585 c -1.031902,0.95536 -2.339045,1.75862 -3.395836,2.08679 -0.242628,0.0754 -0.473809,0.14995 -0.51375,0.16579 -0.112483,0.0446 0.666028,0.90608 0.818762,0.906 0.06034,-3e-5 0.302275,-0.0469 0.537636,-0.10406 z m 13.18424,-0.49997 0.24915,-0.30453 -0.190804,-0.16765 c -0.104939,-0.0922 -0.253574,-0.21755 -0.33029,-0.27856 l -0.139493,-0.11091 -0.253706,0.27285 -0.253704,0.27284 0.307608,0.30913 c 0.169182,0.17002 0.319865,0.30963 0.334847,0.31025 0.01497,6e-4 0.13936,-0.13592 0.276392,-0.30342 z m -1.167365,-1.01407 c 0.287372,-0.2904 0.310855,-0.23766 -0.287088,-0.64486 -0.220063,-0.14986 -0.402059,-0.24617 -0.431544,-0.22836 -0.129461,0.0782 -0.488213,0.37586 -0.480416,0.39861 0.01006,0.0293 0.895779,0.71501 0.930116,0.72006 0.0125,0.002 0.13352,-0.10862 0.268932,-0.24545 z m -13.322395,0.005 c 0.9655,-0.27591 1.982811,-0.83035 2.894063,-1.57728 0.172335,-0.14127 0.259832,-0.23881 0.224273,-0.25002 -0.03207,-0.0101 -0.498153,-0.0303 -1.035732,-0.0449 l -0.977416,-0.0265 -0.347452,0.22288 c -0.648665,0.4161 -1.277788,0.69584 -2.162826,0.96168 -0.0355,0.0107 0.09536,0.1788 0.342339,0.43986 0.457156,0.48323 0.391308,0.46623 1.062751,0.27435 z m 11.75501,-1.04588 c 0.126468,-0.0976 0.240478,-0.19445 0.253361,-0.2153 0.02834,-0.0459 -0.932697,-0.50926 -1.279466,-0.61691 l -0.247774,-0.0769 -0.17325,0.17325 -0.173245,0.17325 0.463811,0.23489 c 0.255098,0.1292 0.560099,0.29534 0.677779,0.36921 0.117681,0.0739 0.22181,0.13467 0.231405,0.13512 0.0096,6e-4 0.120914,-0.079 0.247379,-0.17658 z m -12.882344,-0.44227 c 0.239767,-0.0802 0.56751,-0.21225 0.728317,-0.29338 l 0.292376,-0.1475 -0.278153,-0.0246 c -0.152984,-0.0135 -0.547746,-0.0449 -0.87725,-0.0698 -0.727832,-0.055 -1.339471,-0.15332 -1.625014,-0.26136 l -0.212857,-0.0805 0.533802,0.53774 0.5338,0.53773 0.234521,-0.0262 c 0.128986,-0.0144 0.430691,-0.0919 0.670458,-0.1721 z m 10.708389,-0.50933 0.140314,-0.14477 -0.276946,-0.0482 c -0.417464,-0.0727 -1.226059,-0.17575 -1.378995,-0.17575 -0.07934,0 -0.166137,0.0342 -0.210155,0.0829 -0.07275,0.0804 -0.07006,0.0837 0.08965,0.1098 0.409108,0.0669 1.268621,0.24304 1.35403,0.27742 0.135457,0.0545 0.12866,0.057 0.282102,-0.10133 z m -2.545144,-0.36452 c 0.07095,-0.0784 0.06768,-0.0822 -0.08965,-0.1061 -0.0898,-0.0136 -0.583617,-0.0468 -1.097373,-0.0736 -0.681838,-0.0357 -0.946865,-0.0361 -0.981379,-0.001 -0.02602,0.026 -0.03894,0.0554 -0.02873,0.0653 0.01021,0.01 0.336277,0.0405 0.724622,0.0681 0.608064,0.0431 1.289978,0.10447 1.373434,0.12352 0.014,0.003 0.05859,-0.0308 0.09908,-0.0755 z m -3.061341,-0.19018 c 0.03946,-0.0475 -0.05394,-0.0625 -0.536435,-0.0856 -0.838478,-0.0402 -1.374641,-0.0346 -1.405138,0.0148 -0.03351,0.0542 -0.07642,0.0493 0.727476,0.0837 1.147758,0.0491 1.162845,0.0489 1.214097,-0.0128 z m -2.951046,-0.11032 c 0.0719,-0.0455 -0.168393,-0.0746 -0.9162,-0.1108 -0.729138,-0.0353 -1.592759,-0.13874 -1.975126,-0.23653 -0.470731,-0.12039 -1.560672,-0.7127 -3.994459,-2.17071 -0.647244,-0.38774 -1.196058,-0.71539 -1.219596,-0.7281 -0.07552,-0.0408 -0.0087,0.0158 0.427927,0.36262 0.235361,0.18694 0.653381,0.53205 0.928935,0.76691 0.407995,0.34774 0.67016,0.52318 1.412161,0.945 1.379279,0.7841 1.533181,0.86172 1.888984,0.95272 0.651345,0.16659 3.267583,0.3327 3.447374,0.21889 z m -7.930606,-4.54585 c -0.0366,-0.31414 -0.09585,-0.95629 -0.131657,-1.42701 -0.09487,-1.24688 -0.231774,-2.38536 -0.294382,-2.44796 -0.0068,-0.007 -0.157022,0.19026 -0.333835,0.43791 l -0.321473,0.45028 0.102473,0.35196 c 0.180008,0.61827 0.354234,1.88454 0.354629,2.57743 l 1.29e-4,0.25701 0.331646,0.19938 c 0.182402,0.10965 0.337795,0.19325 0.345317,0.18577 0.0075,-0.007 -0.01626,-0.27063 -0.05287,-0.58477 z m -1.350972,-0.59256 c -0.0507,-0.64182 -0.192807,-1.57915 -0.247548,-1.63281 -0.01716,-0.0168 -0.266999,0.27147 -0.555187,0.64064 -0.288191,0.36918 -0.580386,0.73928 -0.64933,0.82247 l -0.125348,0.15123 0.799104,0.53345 0.799103,0.53345 0.01412,-0.21397 c 0.0078,-0.11768 -0.008,-0.49318 -0.03491,-0.83446 z m -1.751226,-0.84693 c 0.68101,-0.8489 1.237112,-1.58226 1.237112,-1.63143 0,-0.13408 -0.605312,-1.15902 -0.684494,-1.15902 -0.01716,0 -0.24828,0.38995 -0.513581,0.86655 -0.265304,0.47661 -0.641473,1.12115 -0.835939,1.43233 l -0.353572,0.56576 0.348636,0.1924 c 0.19175,0.10582 0.367894,0.19223 0.391428,0.19202 0.02355,-1.6e-4 0.208219,-0.20658 0.41041,-0.45861 z m -1.442089,-0.7043 c 0.172926,-0.26478 0.540476,-0.88581 0.816784,-1.38007 0.276304,-0.49426 0.547586,-0.97768 0.602842,-1.07428 l 0.100471,-0.17564 -0.115829,-0.10796 c -0.06371,-0.0594 -0.257365,-0.21618 -0.430351,-0.34845 -0.287127,-0.21956 -0.391561,-0.2605 -0.391561,-0.1535 0,0.0217 -0.208273,0.46825 -0.462832,0.99241 -0.480097,0.98856 -0.817985,1.58049 -1.144144,2.00435 -0.104674,0.13604 -0.190316,0.26453 -0.190316,0.28554 0,0.0277 0.598837,0.32041 0.888889,0.43444 0.0064,0.002 0.153125,-0.21206 0.326047,-0.47684 z m -1.613285,-0.55718 c 0.415297,-0.55203 0.720174,-1.08716 1.222249,-2.14536 0.380752,-0.80249 0.45487,-0.98989 0.408966,-1.03399 -0.05853,-0.0562 -0.797657,-0.4586 -1.067984,-0.5814 l -0.156064,-0.0709 -0.161826,0.39176 c -0.621459,1.50453 -1.196626,2.61851 -1.605901,3.11031 -0.119758,0.1439 -0.208839,0.27054 -0.197962,0.28142 0.02948,0.0295 1.154883,0.3927 1.229391,0.39679 0.03531,0.002 0.183414,-0.15495 0.329131,-0.34864 z m -2.084016,-0.48828 c 0.34533,-0.37784 0.625474,-0.82375 0.987667,-1.57209 0.267138,-0.55194 0.895599,-1.96775 0.895599,-2.01763 0,-0.0395 -1.366806,-0.42891 -1.386971,-0.39515 -0.0042,0.007 -0.08732,0.25706 -0.184657,0.55551 -0.32917,1.00934 -0.923822,2.07245 -1.676697,2.99758 -0.282773,0.34747 -0.297261,0.37507 -0.207451,0.3952 0.0531,0.0119 0.346883,0.0779 0.65285,0.14663 0.305967,0.0687 0.588075,0.1268 0.626901,0.12901 0.03883,0.002 0.170567,-0.10536 0.292759,-0.23906 z m -2.200757,-0.47369 c 0.902118,-1.01992 1.478858,-1.97373 1.857566,-3.07202 0.09482,-0.27499 0.172404,-0.50595 0.172404,-0.51322 0,-0.007 -0.123962,-0.0265 -0.27547,-0.0427 -0.334151,-0.0358 -1.268064,0.0488 -1.33353,0.12073 -0.0259,0.0285 -0.106914,0.24434 -0.180059,0.47975 -0.151634,0.48803 -0.479419,1.1832 -0.742157,1.57399 -0.25754,0.38305 -0.471831,0.63898 -0.928462,1.1089 -0.370484,0.38126 -0.394943,0.41665 -0.301167,0.43568 0.09963,0.0202 1.277851,0.18084 1.409221,0.19211 0.03639,0.003 0.181135,-0.12431 0.321654,-0.28318 z m -2.202278,-0.47072 c 0.807583,-0.83351 1.180004,-1.31242 1.46986,-1.89014 0.156416,-0.31177 0.378726,-0.90362 0.350144,-0.9322 -0.03132,-0.0313 -0.549155,0.24517 -0.823396,0.43963 -0.320446,0.22724 -0.75879,0.69622 -0.952789,1.01938 -0.07948,0.13241 -0.235216,0.46684 -0.346067,0.74319 -0.110851,0.27635 -0.262455,0.62226 -0.3369,0.76869 -0.07444,0.14643 -0.135352,0.27641 -0.135352,0.28885 0,0.0124 0.07398,0.0226 0.164394,0.0226 0.152827,0 0.195755,-0.0324 0.610106,-0.46002 z m -1.510379,0.29955 c 0.130139,-0.18449 0.302017,-0.54243 0.542491,-1.12976 0.298938,-0.73011 0.537796,-1.13368 0.904756,-1.52868 0.512392,-0.55153 0.962145,-0.85359 1.710485,-1.14876 l 0.399996,-0.15777 0.04256,-0.21599 c 0.03971,-0.20151 0.09956,-0.73656 0.147967,-1.32274 l 0.02072,-0.25089 -0.126649,0.0253 c -0.183194,0.0366 -0.724483,0.294 -0.992476,0.47188 -0.323747,0.21489 -0.698901,0.59596 -0.909493,0.92382 -0.09854,0.15342 -0.271529,0.51002 -0.384412,0.79245 -0.520893,1.30326 -1.066765,2.12584 -2.073022,3.12387 l -0.474598,0.47073 0.525151,0.0234 c 0.288832,0.0129 0.538281,0.0273 0.554329,0.0321 0.01605,0.005 0.06654,-0.0443 0.112193,-0.10901 z m 13.165913,-0.4114 c 0.375836,-0.53103 0.370849,-0.48117 0.104979,-1.0495 -0.231558,-0.49499 -0.580164,-1.00532 -0.969306,-1.41898 -0.353735,-0.37602 -1.044981,-0.94183 -1.067687,-0.87393 -0.0076,0.0229 -0.165806,0.36212 -0.351476,0.75394 l -0.337581,0.71241 0.262741,0.19147 c 0.144507,0.10531 0.354566,0.26418 0.466796,0.35306 0.112232,0.0889 0.210071,0.15391 0.217422,0.14454 0.0073,-0.009 0.165863,-0.29218 0.352249,-0.62846 l 0.338882,-0.61142 0.137779,0.16209 c 0.07578,0.0892 0.17042,0.22245 0.210318,0.2962 l 0.07254,0.1341 -0.306602,0.55641 c -0.168631,0.30601 -0.306566,0.57303 -0.306524,0.59337 4.2e-5,0.0203 0.115395,0.1909 0.256339,0.37902 0.140943,0.18813 0.316296,0.45468 0.389672,0.59235 0.07337,0.13766 0.148488,0.23408 0.166918,0.21426 0.01843,-0.0198 0.181577,-0.24524 0.362541,-0.50093 z m -3.08808,-2.41292 c 0.03587,-0.0883 0.191042,-0.42487 0.344814,-0.74802 l 0.27959,-0.58754 -0.350867,-0.21622 c -0.423867,-0.26121 -1.044646,-0.58337 -1.069319,-0.55494 -0.02304,0.0266 -0.586725,1.52087 -0.586725,1.55542 0,0.0144 0.14924,0.10128 0.331642,0.19313 0.182405,0.0918 0.466443,0.24578 0.631192,0.34206 0.164756,0.0963 0.311903,0.17541 0.326999,0.17582 0.01509,3e-4 0.0568,-0.0714 0.09267,-0.15971 z m -2.002533,-0.82452 c 0.01479,-0.0239 0.15878,-0.39024 0.319949,-0.81396 l 0.293033,-0.77041 -0.156953,-0.0661 c -0.273232,-0.11511 -1.130047,-0.38926 -1.426703,-0.45649 l -0.285522,-0.0647 -0.02777,0.21966 c -0.06649,0.52597 -0.197815,1.42394 -0.217986,1.49052 -0.01707,0.0564 0.01915,0.083 0.162033,0.11882 0.528804,0.13265 1.011397,0.27061 1.125485,0.32175 0.161759,0.0725 0.181385,0.0744 0.214432,0.0209 z m -2.119265,-0.74812 c 0.07443,-0.39832 0.208249,-1.49523 0.185338,-1.51914 -0.0317,-0.0331 -1.339347,-0.0525 -1.53749,-0.0229 l -0.175907,0.0263 -0.02936,0.50108 c -0.01617,0.2756 -0.05322,0.67522 -0.08237,0.88804 l -0.05299,0.38696 0.822409,-0.002 0.822412,-0.002 0.04797,-0.25675 z"
       id="path1346" /></g><metadata
     id="metadata1348"><rdf:RDF><cc:License
         rdf:about="http://creativecommons.org/publicdomain/zero/1.0/"><cc:permits
           rdf:resource="http://creativecommons.org/ns#Reproduction" /><cc:permits
           rdf:resource="http://creativecommons.org/ns#Distribution" /><cc:permits
           rdf:resource="http://creativecommons.org/ns#DerivativeWorks" /></cc:License><cc:Work
         rdf:about=""><cc:license
           rdf:resource="http://creativecommons.org/publicdomain/zero/1.0/" /><dc:title>Fish line art</dc:title></cc:Work></rdf:RDF></metadata></svg>
