<?xml version="1.0" encoding="UTF-8" standalone="no"?>
<!DOCTYPE svg PUBLIC "-//W3C//DTD SVG 1.1//EN" "http://www.w3.org/Graphics/SVG/1.1/DTD/svg11.dtd">
<svg width="100%" height="100%" viewBox="0 0 500 500" version="1.1" xmlns="http://www.w3.org/2000/svg" xmlns:xlink="http://www.w3.org/1999/xlink" xml:space="preserve" xmlns:serif="http://www.serif.com/" style="fill-rule:evenodd;clip-rule:evenodd;stroke-linejoin:round;stroke-miterlimit:2;">
    <g id="Simple-Flower" serif:id="Simple Flower" transform="matrix(2.86192,0,0,2.86192,-4059.98,-2924.42)">
        <path d="M1460.5,1163.78C1457.21,1165.52 1453.63,1166.78 1449.77,1167.29C1440.17,1168.56 1434.66,1162.81 1431.41,1156.42C1429.19,1152.07 1428.04,1147.42 1427.35,1144.63C1427.08,1143.54 1426.89,1142.75 1426.73,1142.43C1426.16,1141.35 1424.95,1140.41 1423.74,1139.27C1421.69,1137.34 1419.63,1134.91 1419.85,1130.82C1420.32,1122 1426.15,1116.27 1433.73,1112.52C1436.72,1111.04 1439.97,1109.87 1443.26,1108.93C1441.24,1108.21 1439.4,1107.32 1437.84,1106.23C1429.96,1100.74 1426.44,1096.21 1425.62,1092.02C1424.99,1088.79 1425.92,1085.72 1427.8,1082.53C1429.6,1079.47 1432.27,1076.28 1435.19,1072.65C1437.06,1070.33 1437.28,1067.01 1437.98,1063.59C1438.55,1060.82 1439.41,1057.98 1441.46,1055.48C1443.5,1052.98 1446.73,1050.8 1452.12,1049.37C1460.34,1047.18 1468.84,1051.03 1476.31,1056.97L1476.71,1057.3C1475.58,1052.51 1475.8,1047.95 1478.04,1044.02C1480.95,1038.93 1487.33,1034.83 1498.84,1032.74C1499.77,1032.57 1508.76,1028.84 1517.79,1028.74C1523.39,1028.67 1529,1030 1532.84,1034.24C1535.4,1037.06 1537.2,1041.19 1537.66,1047.11C1537.97,1050.96 1537.79,1054.64 1537.26,1058.09C1542.68,1051.34 1548.13,1048.02 1556.97,1048.86C1561.14,1049.25 1563.62,1050.34 1565.28,1051.93C1566.93,1053.52 1567.78,1055.63 1568.61,1058.17C1570.16,1062.92 1571.73,1069.23 1579.58,1076.21C1582.29,1078.61 1583.95,1083.34 1583.22,1088.51C1582.54,1093.35 1579.77,1098.59 1573.8,1102.53C1579,1105.07 1584.64,1108.81 1588.38,1114.11C1591.1,1117.95 1592.12,1120.7 1592.12,1123.16C1592.12,1124.84 1591.65,1126.38 1590.88,1128.05C1589.07,1131.92 1585.54,1136.51 1582.95,1145.41C1581.46,1150.53 1572.82,1158.03 1561.23,1154.68C1561.65,1158.84 1560.88,1162.53 1559.38,1165.53C1557.13,1170.06 1553.21,1173.06 1549.09,1173.81C1542.59,1174.99 1540.06,1177.58 1537.51,1179.88C1534.95,1182.17 1532.39,1184.21 1526.37,1184.51C1525.93,1184.53 1525.48,1184.54 1525,1184.54L1524.83,1184.54C1521,1184.53 1517.9,1183.62 1515.39,1182.1C1514.69,1181.67 1514.03,1181.19 1513.41,1180.67C1510.89,1178.55 1509.11,1175.72 1507.86,1172.64L1507.79,1172.47C1506.76,1175.35 1505.38,1178.18 1503.61,1181.01C1500.67,1185.69 1497.48,1188.11 1494.32,1189.1C1489.56,1190.59 1484.79,1188.85 1480.84,1186.47C1477.87,1184.69 1475.37,1182.56 1473.7,1181.29C1473.08,1180.82 1472.6,1180.47 1472.27,1180.36C1465.52,1178.09 1461.9,1175.25 1460.46,1171.98C1459.38,1169.52 1459.5,1166.79 1460.5,1163.78ZM1539.31,1125.13C1539.29,1124.68 1539.4,1124.35 1539.57,1124.13L1539.75,1123.94L1539.96,1123.8C1540.14,1123.7 1540.36,1123.63 1540.61,1123.62C1541.03,1123.59 1541.6,1123.69 1542.29,1123.92C1544.88,1124.78 1549.42,1127.49 1552.74,1128.76C1553.53,1129.06 1554.24,1129.28 1554.83,1129.36C1555.12,1129.39 1555.37,1129.4 1555.57,1129.33C1556.02,1129.18 1556.44,1128.92 1556.58,1128.82C1556.55,1128.79 1556.52,1128.74 1556.49,1128.71C1556.3,1128.52 1556.02,1128.33 1555.68,1128.13C1555.44,1127.99 1555.17,1127.86 1554.88,1127.71C1552.56,1126.61 1548.87,1125.5 1546.44,1124.58C1545.29,1124.15 1544.41,1123.74 1544,1123.4C1543.44,1122.94 1543.1,1122.55 1542.91,1122.24C1542.83,1122.08 1542.77,1121.93 1542.73,1121.8L1542.69,1121.55L1542.71,1121.29L1542.78,1121.04L1542.9,1120.81L1543.06,1120.62L1543.24,1120.47C1543.5,1120.29 1543.9,1120.13 1544.43,1120.05C1546.3,1119.74 1550.13,1120.1 1553.45,1120.1C1555.46,1120.1 1557.28,1120 1558.21,1119.42C1558.54,1119.21 1558.79,1119.03 1558.96,1118.86L1559,1118.83C1558.76,1118.74 1558.34,1118.59 1557.96,1118.52C1556.05,1118.19 1553.03,1118.18 1551.08,1118.01C1550.07,1117.91 1549.31,1117.74 1548.98,1117.54C1548.34,1117.13 1547.92,1116.78 1547.67,1116.5C1547.4,1116.17 1547.3,1115.88 1547.28,1115.63L1547.3,1115.36L1547.37,1115.1L1547.5,1114.88L1547.65,1114.7C1547.88,1114.49 1548.25,1114.29 1548.76,1114.14C1550.47,1113.65 1554.12,1113.55 1556.82,1112.65C1558.3,1112.15 1559.52,1111.46 1559.58,1110.1C1559.59,1109.99 1559.59,1109.9 1559.54,1109.84C1559.48,1109.77 1559.38,1109.75 1559.26,1109.72C1558.71,1109.6 1557.91,1109.7 1556.94,1109.87C1553.85,1110.43 1549.19,1111.88 1544.83,1111.99C1543.8,1112.02 1542.78,1111.97 1541.8,1111.83C1541.72,1115.1 1540.98,1118.42 1539.24,1121.59C1538.81,1122.38 1538.27,1123.2 1537.65,1124.02C1538.22,1124.39 1538.77,1124.76 1539.31,1125.13ZM1483.99,1085.65C1482.52,1085.17 1481.05,1084.45 1479.62,1083.59C1475.55,1081.14 1471.76,1077.58 1469.03,1075.67C1468.16,1075.06 1467.43,1074.62 1466.84,1074.51C1466.68,1074.48 1466.55,1074.46 1466.44,1074.52C1466.34,1074.57 1466.28,1074.66 1466.22,1074.79C1466.22,1074.82 1466.23,1074.89 1466.24,1074.93C1466.27,1075.05 1466.33,1075.18 1466.4,1075.32C1466.62,1075.76 1466.98,1076.28 1467.43,1076.85C1469.73,1079.79 1474.26,1084.07 1476,1086.8C1476.45,1087.51 1476.72,1088.14 1476.79,1088.64C1476.86,1089.15 1476.74,1089.57 1476.47,1089.9C1476.13,1090.31 1475.44,1090.62 1474.22,1090.53C1474.04,1090.52 1473.78,1090.44 1473.47,1090.29C1473.01,1090.05 1472.34,1089.57 1471.54,1088.96C1469.1,1087.08 1465.38,1083.83 1463.02,1082.79C1462.73,1082.66 1462.46,1082.57 1462.23,1082.53C1462.08,1082.51 1461.95,1082.47 1461.88,1082.55C1461.83,1082.6 1461.81,1082.67 1461.8,1082.75C1461.76,1082.94 1461.75,1083.17 1461.78,1083.46C1461.82,1083.87 1462.02,1084.28 1462.32,1084.7C1462.86,1085.46 1463.7,1086.22 1464.67,1086.96C1467.26,1088.95 1470.72,1090.78 1472.18,1092.02C1472.59,1092.36 1472.87,1092.69 1473.01,1092.95L1473.1,1093.2L1473.15,1093.5L1473.13,1093.72L1473.07,1093.94L1472.96,1094.14L1472.82,1094.3C1472.71,1094.41 1472.56,1094.52 1472.35,1094.61C1472.03,1094.74 1471.54,1094.85 1470.81,1094.88C1470.03,1094.93 1468.43,1094.53 1466.57,1094.01C1464.01,1093.28 1460.91,1092.32 1459.01,1092.27C1458.68,1092.26 1458.4,1092.27 1458.17,1092.34C1458.09,1092.36 1458.01,1092.38 1457.97,1092.44C1457.95,1092.48 1457.96,1092.53 1457.96,1092.59C1457.98,1092.7 1458.01,1092.82 1458.07,1092.96C1458.15,1093.19 1458.38,1093.36 1458.68,1093.53C1459.11,1093.78 1459.66,1093.99 1460.31,1094.19C1463.61,1095.18 1469,1095.61 1471.71,1096.38C1472.42,1096.58 1472.97,1096.82 1473.31,1097.07C1473.52,1097.22 1473.67,1097.39 1473.76,1097.57L1473.87,1097.8L1473.92,1098.06C1473.96,1098.51 1473.71,1099.12 1472.79,1099.72C1472.2,1100.1 1471.15,1100.33 1469.86,1100.43C1467.21,1100.62 1463.41,1100.34 1460.96,1100.5C1460.43,1100.54 1459.97,1100.6 1459.61,1100.69C1459.5,1100.72 1459.37,1100.77 1459.29,1100.81C1459.31,1100.85 1459.33,1100.88 1459.35,1100.92C1459.53,1101.15 1459.8,1101.41 1460.19,1101.72C1461.75,1102.95 1464.39,1103.44 1467.09,1103.62C1469.17,1103.76 1471.29,1103.7 1473.04,1103.6C1474.33,1098.28 1476.16,1094.15 1476.98,1092.87C1478.73,1090.14 1481.22,1087.72 1483.99,1085.65ZM1462.51,1162.63C1461.12,1165.89 1460.68,1168.8 1461.82,1171.39C1463.14,1174.39 1466.54,1176.88 1472.74,1178.96C1473.17,1179.1 1473.8,1179.51 1474.6,1180.12C1476.24,1181.36 1478.69,1183.45 1481.6,1185.21C1485.21,1187.37 1489.53,1189.04 1493.88,1187.69C1496.78,1186.78 1499.66,1184.52 1502.36,1180.22C1504.44,1176.91 1505.94,1173.59 1506.99,1170.2C1507.28,1169.26 1507.54,1168.32 1507.76,1167.37C1509.63,1159.31 1509.12,1150.81 1507.62,1141.13C1506.64,1141.31 1505.69,1141.45 1504.77,1141.56C1503.75,1143.64 1503.29,1145.98 1503.07,1148.25C1502.77,1151.35 1502.9,1154.32 1502.68,1156.36C1502.58,1157.37 1502.38,1158.17 1502.06,1158.71C1501.63,1159.44 1501,1159.81 1500.08,1159.72L1499.83,1159.66L1499.61,1159.56L1499.27,1159.28C1498.98,1158.95 1498.69,1158.32 1498.46,1157.46C1497.83,1155.08 1497.46,1150.75 1496.86,1147.74C1496.67,1146.79 1496.46,1145.98 1496.21,1145.44C1496.15,1145.33 1496.1,1145.23 1496.04,1145.15L1496.03,1145.14C1496,1145.16 1495.97,1145.19 1495.94,1145.22C1495.8,1145.37 1495.65,1145.58 1495.49,1145.86C1495.41,1145.99 1495.38,1146.29 1495.33,1146.68C1495.16,1147.92 1495.06,1149.96 1494.93,1152.05C1494.8,1154.19 1494.63,1156.38 1494.34,1157.84C1494.19,1158.56 1494,1159.12 1493.79,1159.46C1493.71,1159.59 1493.63,1159.69 1493.55,1159.77L1493.31,1159.95L1493.06,1160.07L1492.78,1160.12C1492.4,1160.13 1491.84,1159.89 1491.33,1159.02C1490.86,1158.22 1490.69,1156.87 1490.72,1155.29C1490.76,1153.17 1491.1,1150.63 1491.15,1148.74C1491.17,1148.16 1491.16,1147.65 1491.1,1147.24C1491.07,1147.08 1491.01,1146.89 1490.97,1146.79C1490.89,1146.82 1490.77,1146.88 1490.66,1146.94C1490.6,1147.07 1490.18,1147.92 1489.87,1148.75C1488.86,1151.46 1487.45,1155.96 1486.24,1157.93C1485.96,1158.38 1485.68,1158.71 1485.43,1158.92C1485.28,1159.04 1485.12,1159.12 1484.98,1159.18L1484.59,1159.25L1484.33,1159.23L1484.08,1159.14L1483.86,1159.01L1483.68,1158.86C1483.45,1158.62 1483.22,1158.2 1483.03,1157.55C1482.86,1156.93 1483.02,1155.88 1483.46,1154.62C1484.34,1152.08 1486.27,1148.47 1487.44,1145.82C1487.82,1144.96 1488.12,1144.21 1488.26,1143.65L1488.28,1143.55C1488.25,1143.57 1488.21,1143.59 1488.18,1143.6C1487.29,1144.08 1486.32,1145.26 1485.38,1146.42C1484.32,1147.73 1483.29,1149.03 1482.49,1149.59C1481.9,1149.99 1481.37,1150.06 1480.93,1149.88C1480.54,1149.73 1480.13,1149.32 1479.92,1148.46C1479.81,1148.03 1479.82,1147.5 1479.97,1146.89C1480.15,1146.13 1480.54,1145.23 1481.05,1144.26C1482.27,1141.98 1484.23,1139.32 1485.66,1137.47C1485.32,1137.29 1484.98,1137.1 1484.64,1136.91C1483.12,1139.86 1478.36,1148.68 1470.79,1156.09C1468.32,1158.5 1465.56,1160.76 1462.51,1162.63ZM1535.29,1060.69C1536.17,1056.54 1536.57,1052.03 1536.19,1047.22C1535.76,1041.71 1534.13,1037.86 1531.75,1035.23C1528.19,1031.31 1522.99,1030.16 1517.81,1030.22C1508.89,1030.32 1500.02,1034.03 1499.11,1034.19C1488.19,1036.18 1482.09,1039.93 1479.33,1044.75C1476.95,1048.92 1477.1,1053.84 1478.71,1058.98C1478.82,1059.34 1478.94,1059.69 1479.06,1060.05C1479.29,1060.68 1479.53,1061.33 1479.8,1061.97C1482.45,1068.45 1487.07,1075.1 1491.8,1080.94C1492.73,1080.49 1493.64,1080.08 1494.52,1079.71C1494.99,1079.51 1495.46,1079.32 1495.91,1079.14C1497.27,1078.62 1498.51,1078.21 1499.59,1077.92C1499.61,1076.31 1499.27,1074.69 1498.79,1073.16C1497.91,1070.34 1496.57,1067.79 1495.92,1065.99C1495.65,1065.24 1495.51,1064.6 1495.51,1064.1C1495.52,1063.61 1495.66,1063.22 1495.91,1062.93C1496.18,1062.63 1496.58,1062.4 1497.18,1062.34C1497.51,1062.31 1497.84,1062.39 1498.17,1062.62C1498.49,1062.83 1498.82,1063.2 1499.14,1063.71C1500.14,1065.28 1501.18,1068.35 1502.31,1070.73C1502.81,1071.77 1503.31,1072.67 1503.85,1073.21C1504.12,1073.48 1504.4,1073.66 1504.7,1073.54C1504.71,1073.34 1504.77,1072.64 1504.72,1072.02C1504.47,1069.35 1503.45,1064.94 1503.43,1062.67C1503.43,1062.03 1503.51,1061.53 1503.65,1061.21L1503.8,1060.95L1504.04,1060.7L1504.26,1060.57L1504.5,1060.49C1504.87,1060.41 1505.45,1060.55 1506.18,1061.23C1506.71,1061.73 1507.18,1062.67 1507.58,1063.85C1508.39,1066.28 1508.93,1069.83 1509.53,1072.08C1509.66,1072.57 1509.79,1073 1509.93,1073.33L1509.96,1073.4C1510.06,1073.25 1510.17,1073.04 1510.26,1072.83C1510.5,1072.24 1510.61,1070.74 1510.74,1069C1510.94,1066.16 1511.15,1062.71 1511.73,1061.05C1511.9,1060.58 1512.11,1060.22 1512.33,1060L1512.68,1059.73L1512.9,1059.64L1513.14,1059.6L1513.39,1059.6L1513.63,1059.66C1513.76,1059.7 1513.89,1059.76 1514.04,1059.86C1514.32,1060.05 1514.65,1060.4 1515,1060.96C1515.36,1061.52 1515.51,1062.48 1515.48,1063.67C1515.43,1066.04 1514.72,1069.43 1514.48,1071.83C1514.41,1072.53 1514.46,1073.35 1514.49,1073.73C1514.59,1073.67 1514.71,1073.59 1514.81,1073.5C1515.4,1073.01 1515.88,1071.77 1516.35,1070.39C1517.17,1068 1517.91,1065.21 1518.61,1064.2C1518.9,1063.79 1519.22,1063.58 1519.51,1063.52L1519.8,1063.5L1520.09,1063.56L1520.44,1063.76C1520.52,1063.83 1520.61,1063.91 1520.69,1064.02C1520.93,1064.32 1521.19,1064.86 1521.44,1065.73C1521.98,1067.62 1521.56,1070.33 1520.78,1072.99C1520.25,1074.78 1519.57,1076.55 1518.95,1078.02C1520.4,1078.43 1521.8,1078.94 1523.14,1079.56C1528.02,1071.98 1531.74,1065.62 1535.29,1060.69ZM1486.99,1138.16C1485.58,1139.97 1483.58,1142.66 1482.35,1144.96C1481.91,1145.8 1481.56,1146.57 1481.41,1147.23C1481.33,1147.57 1481.29,1147.86 1481.35,1148.1C1481.38,1148.24 1481.45,1148.38 1481.49,1148.46C1481.52,1148.44 1481.57,1148.42 1481.6,1148.4C1481.8,1148.28 1482.01,1148.08 1482.24,1147.85C1483.12,1146.95 1484.17,1145.51 1485.21,1144.32C1485.98,1143.44 1486.76,1142.69 1487.48,1142.3C1487.92,1142.06 1488.28,1141.95 1488.54,1141.93L1488.92,1141.95L1489.13,1142.01L1489.33,1142.12L1489.55,1142.33L1489.69,1142.57C1489.77,1142.74 1489.82,1142.97 1489.81,1143.25C1489.8,1143.74 1489.59,1144.48 1489.23,1145.39C1488.48,1147.28 1487.09,1149.95 1485.99,1152.37C1485.38,1153.7 1484.86,1154.95 1484.6,1155.93C1484.46,1156.44 1484.37,1156.86 1484.45,1157.14C1484.5,1157.31 1484.57,1157.46 1484.62,1157.59C1484.86,1157.24 1485.36,1156.5 1485.68,1155.78C1486.9,1153.05 1488.19,1148.77 1489,1146.93C1489.29,1146.28 1489.58,1145.89 1489.77,1145.76C1490.47,1145.28 1491.02,1145.22 1491.42,1145.34L1491.67,1145.44L1491.89,1145.59C1492.01,1145.69 1492.12,1145.81 1492.21,1145.96C1492.4,1146.27 1492.53,1146.71 1492.59,1147.28C1492.77,1148.99 1492.34,1152.02 1492.22,1154.62C1492.15,1156.15 1492.16,1157.52 1492.6,1158.26C1492.62,1158.3 1492.64,1158.34 1492.67,1158.37L1492.69,1158.32C1492.86,1157.8 1492.99,1157.07 1493.1,1156.21C1493.43,1153.55 1493.54,1149.77 1493.76,1147.43C1493.86,1146.27 1494.04,1145.42 1494.22,1145.11C1494.61,1144.43 1494.99,1144.03 1495.31,1143.83C1495.48,1143.72 1495.64,1143.66 1495.8,1143.63L1496.08,1143.6L1496.36,1143.64C1496.64,1143.71 1496.92,1143.88 1497.17,1144.19C1497.4,1144.49 1497.63,1144.93 1497.82,1145.5C1498.67,1148.05 1499.07,1153.49 1499.77,1156.57C1499.9,1157.17 1500.04,1157.66 1500.21,1158.02C1500.25,1158.1 1500.31,1158.19 1500.34,1158.25C1500.62,1158.23 1500.77,1158.03 1500.89,1157.74C1501.06,1157.35 1501.15,1156.83 1501.21,1156.21C1501.43,1154.17 1501.3,1151.2 1501.6,1148.1C1501.81,1145.95 1502.23,1143.73 1503.08,1141.7C1497.28,1142.06 1492.35,1140.83 1486.99,1138.16ZM1445.88,1109.75C1441.94,1110.75 1437.96,1112.07 1434.39,1113.84C1427.3,1117.35 1421.76,1122.65 1421.33,1130.89C1421.14,1134.44 1422.98,1136.52 1424.76,1138.2C1426.1,1139.47 1427.41,1140.55 1428.04,1141.75C1428.23,1142.12 1428.47,1143.01 1428.78,1144.28C1429.46,1146.99 1430.57,1151.52 1432.73,1155.75C1435.72,1161.63 1440.75,1166.99 1449.57,1165.83C1453.87,1165.26 1457.8,1163.72 1461.34,1161.61C1462.17,1161.11 1462.98,1160.59 1463.76,1160.04C1465.93,1158.53 1467.92,1156.82 1469.76,1155.03C1477.23,1147.72 1481.91,1139.01 1483.36,1136.17C1482.93,1135.92 1482.5,1135.66 1482.06,1135.39C1481.79,1135.23 1481.53,1135.06 1481.28,1134.89C1480.86,1134.61 1480.46,1134.32 1480.08,1134.02C1479.13,1133.29 1478.28,1132.51 1477.52,1131.69C1475.66,1132.56 1473.96,1133.7 1472.41,1134.87C1469.72,1136.9 1467.5,1139.04 1465.79,1140.19C1465.09,1140.66 1464.46,1140.98 1463.91,1141.11C1463.43,1141.22 1463,1141.19 1462.62,1141.04C1462.21,1140.88 1461.84,1140.58 1461.54,1140.06C1461.35,1139.73 1461.3,1139.3 1461.46,1138.78C1461.61,1138.3 1461.96,1137.71 1462.48,1137.05C1464.22,1134.83 1467.85,1131.67 1469.39,1129.53C1469.59,1129.25 1469.75,1128.98 1469.86,1128.75C1469.9,1128.65 1469.94,1128.51 1469.95,1128.44C1469.87,1128.41 1469.68,1128.36 1469.5,1128.35C1469.41,1128.34 1469.27,1128.4 1469.09,1128.46C1468.66,1128.62 1468.09,1128.9 1467.45,1129.25C1464.77,1130.68 1460.77,1133.23 1458.58,1134.01C1458.09,1134.18 1457.67,1134.27 1457.35,1134.27C1457.16,1134.28 1456.99,1134.25 1456.85,1134.2L1456.49,1134.02L1456.3,1133.84L1456.16,1133.61L1456.07,1133.37L1456.04,1133.13C1456.02,1132.82 1456.11,1132.36 1456.4,1131.75C1456.73,1131.05 1457.57,1130.24 1458.71,1129.42C1461.08,1127.71 1464.81,1125.83 1467.07,1124.39C1467.61,1124.05 1468.05,1123.74 1468.37,1123.46C1468.12,1123.43 1467.81,1123.39 1467.48,1123.38C1466.7,1123.37 1464.95,1123.84 1462.91,1124.39C1459.66,1125.27 1455.74,1126.38 1453.64,1126.45C1453.08,1126.47 1452.63,1126.41 1452.31,1126.3C1452.15,1126.24 1452.02,1126.16 1451.9,1126.08L1451.72,1125.91L1451.56,1125.69L1451.46,1125.44L1451.41,1125.18C1451.4,1125.03 1451.42,1124.87 1451.47,1124.69C1451.56,1124.34 1451.81,1123.89 1452.28,1123.33C1452.74,1122.79 1453.81,1122.29 1455.27,1121.89C1458.24,1121.07 1462.93,1120.52 1466.21,1119.88C1467.28,1119.68 1468.19,1119.47 1468.82,1119.23C1468.9,1119.2 1468.99,1119.16 1469.07,1119.13C1468.99,1119.08 1468.91,1119.04 1468.83,1119C1468,1118.6 1466.48,1118.61 1464.75,1118.67C1461.89,1118.79 1458.53,1119.13 1456.55,1118.79C1455.39,1118.59 1454.64,1118.11 1454.37,1117.45C1454.17,1116.98 1454.17,1116.37 1454.56,1115.6C1455.37,1113.99 1457.34,1113.06 1459.83,1112.66C1463.65,1112.05 1468.69,1112.61 1471.68,1112.97C1471.7,1112.5 1471.72,1112.04 1471.76,1111.58C1467.56,1111.81 1462.43,1111.91 1457.29,1111.55C1453.36,1111.27 1449.42,1110.71 1445.88,1109.75ZM1477.43,1059.83C1476.76,1059.25 1476.08,1058.68 1475.39,1058.13C1468.31,1052.5 1460.29,1048.72 1452.5,1050.79C1447.51,1052.12 1444.49,1054.1 1442.6,1056.41C1440.71,1058.72 1439.95,1061.34 1439.43,1063.88C1438.67,1067.55 1438.35,1071.09 1436.34,1073.58C1433.47,1077.14 1430.84,1080.27 1429.07,1083.28C1427.39,1086.13 1426.51,1088.85 1427.07,1091.73C1427.84,1095.68 1431.26,1099.85 1438.68,1105.02C1440.68,1106.41 1443.15,1107.45 1445.89,1108.23C1446.92,1108.52 1448,1108.78 1449.09,1109C1451.76,1109.53 1454.58,1109.87 1457.4,1110.07C1462.56,1110.43 1467.71,1110.33 1471.89,1110.09C1472.08,1108.37 1472.36,1106.69 1472.7,1105.1C1470.99,1105.19 1468.97,1105.23 1466.99,1105.1C1466.84,1105.09 1466.68,1105.08 1466.54,1105.06C1466.24,1105.04 1465.95,1105.01 1465.66,1104.98C1463.12,1104.69 1460.76,1104.06 1459.27,1102.88C1458.55,1102.3 1458.13,1101.81 1457.93,1101.42C1457.83,1101.23 1457.78,1101.04 1457.76,1100.88L1457.76,1100.57L1457.84,1100.27C1458,1099.85 1458.46,1099.46 1459.23,1099.26C1460.94,1098.81 1464.62,1099.04 1467.75,1099.02C1468.92,1099.02 1470.02,1098.97 1470.87,1098.83C1471.34,1098.75 1471.73,1098.64 1471.99,1098.48C1472.12,1098.39 1472.24,1098.29 1472.33,1098.2C1472.26,1098.16 1472.17,1098.11 1472.09,1098.07C1471.47,1097.8 1470.53,1097.59 1469.42,1097.38C1466.29,1096.8 1461.89,1096.33 1459.27,1095.4C1457.89,1094.92 1456.97,1094.24 1456.69,1093.49C1456.37,1092.68 1456.46,1092.08 1456.71,1091.67C1457.06,1091.1 1457.87,1090.76 1459.05,1090.79C1461.04,1090.84 1464.29,1091.82 1466.98,1092.58C1468.62,1093.05 1470.04,1093.45 1470.73,1093.41C1470.98,1093.39 1471.23,1093.36 1471.42,1093.32L1471.4,1093.3C1471.06,1092.98 1470.56,1092.62 1469.96,1092.23C1468.01,1090.94 1465.11,1089.28 1463.04,1087.55C1461.49,1086.25 1460.42,1084.87 1460.31,1083.59C1460.18,1082.21 1460.64,1081.51 1461.23,1081.21C1461.78,1080.94 1462.61,1081 1463.61,1081.43C1466.06,1082.51 1469.91,1085.85 1472.44,1087.79C1473.05,1088.26 1473.58,1088.64 1473.99,1088.88C1474.12,1088.96 1474.32,1089.04 1474.35,1089.06C1474.68,1089.08 1474.95,1089.07 1475.15,1089.02C1475.2,1089.01 1475.24,1089 1475.27,1088.99C1475.29,1088.98 1475.31,1088.96 1475.33,1088.96C1475.32,1088.91 1475.3,1088.71 1475.26,1088.57C1475.15,1088.28 1474.98,1087.96 1474.75,1087.6C1473.03,1084.9 1468.54,1080.67 1466.27,1077.77C1465.5,1076.79 1464.98,1075.94 1464.81,1075.32C1464.7,1074.88 1464.72,1074.52 1464.85,1074.23C1465.08,1073.7 1465.41,1073.38 1465.79,1073.19C1466.16,1073.01 1466.61,1072.96 1467.12,1073.06C1467.86,1073.2 1468.8,1073.7 1469.88,1074.46C1472.59,1076.35 1476.35,1079.89 1480.38,1082.32C1482.07,1083.34 1483.81,1084.16 1485.53,1084.55C1487.14,1083.46 1488.81,1082.48 1490.45,1081.62C1485.21,1075.12 1480.16,1067.66 1477.67,1060.53C1477.59,1060.3 1477.51,1060.06 1477.43,1059.83ZM1525.89,1183.05C1531.7,1182.84 1534.12,1180.94 1536.52,1178.78C1539.22,1176.34 1541.92,1173.61 1548.83,1172.35C1552.53,1171.68 1556.03,1168.95 1558.06,1164.87C1559.54,1161.91 1560.24,1158.27 1559.71,1154.19C1559.64,1153.63 1559.55,1153.07 1559.43,1152.5C1558.42,1147.56 1555.63,1142.06 1550.35,1136.37C1549.97,1135.97 1549.58,1135.56 1549.18,1135.15C1545.92,1131.86 1541.82,1128.51 1536.72,1125.18C1535.97,1126.07 1535.14,1126.96 1534.26,1127.83C1533.91,1128.17 1533.55,1128.51 1533.19,1128.84C1532.64,1129.36 1532.07,1129.86 1531.49,1130.35C1531.11,1130.67 1530.73,1130.98 1530.35,1131.29C1530.17,1131.43 1529.99,1131.58 1529.8,1131.72C1530.57,1132.3 1531.37,1132.93 1532.16,1133.58C1533.16,1134.4 1534.14,1135.26 1535.03,1136.13C1536.62,1137.68 1537.88,1139.25 1538.41,1140.6C1538.45,1140.67 1538.48,1140.75 1538.5,1140.83C1538.83,1141.79 1538.88,1142.41 1538.8,1142.77L1538.64,1143.15L1538.5,1143.34L1538.31,1143.49C1537.99,1143.68 1537.44,1143.71 1536.76,1143.36C1535.42,1142.67 1533.01,1140.45 1530.83,1138.73C1530.01,1138.08 1529.22,1137.51 1528.55,1137.14C1528.19,1136.95 1527.87,1136.81 1527.61,1136.78C1527.45,1136.77 1527.28,1136.78 1527.15,1136.79C1527.18,1136.85 1527.21,1136.91 1527.24,1136.96C1527.44,1137.31 1527.75,1137.71 1528.13,1138.16C1529.6,1139.88 1532.01,1142.15 1533.35,1143.99C1534.02,1144.93 1534.42,1145.79 1534.45,1146.45C1534.48,1147.11 1534.41,1147.58 1534.28,1147.9C1534.22,1148.06 1534.15,1148.19 1534.06,1148.3L1533.9,1148.48L1533.7,1148.62L1533.47,1148.73L1533.24,1148.78L1532.8,1148.76C1532.49,1148.7 1532.12,1148.53 1531.71,1148.24C1530.29,1147.2 1528.15,1144.49 1526.37,1142.27C1525.27,1140.91 1524.33,1139.74 1523.79,1139.39C1523.6,1139.27 1523.39,1139.16 1523.23,1139.09L1523.24,1139.19C1523.32,1139.54 1523.45,1139.95 1523.62,1140.43C1524.41,1142.62 1525.98,1145.84 1526.7,1148.3C1527.05,1149.5 1527.19,1150.54 1527.04,1151.25C1526.84,1152.24 1526.42,1152.67 1526.08,1152.81L1525.84,1152.88L1525.6,1152.89L1525.38,1152.85L1525.18,1152.78C1524.84,1152.63 1524.41,1152.2 1523.99,1151.53C1522.74,1149.54 1521.14,1145.12 1519.99,1142.38C1519.7,1141.72 1519.45,1141.16 1519.24,1140.77C1519.15,1140.61 1519.09,1140.49 1519.03,1140.44C1518.77,1140.23 1518.45,1140.07 1518.31,1140.01C1518.29,1140.08 1518.25,1140.19 1518.23,1140.28C1518.11,1140.9 1518.17,1141.83 1518.3,1142.91C1518.66,1145.99 1519.65,1150.24 1519.79,1152.75C1519.85,1153.64 1519.78,1154.35 1519.6,1154.77C1519.54,1154.92 1519.46,1155.04 1519.38,1155.14L1519.22,1155.32L1519.02,1155.46C1518.49,1155.75 1518.03,1155.8 1517.64,1155.7C1517.26,1155.6 1516.93,1155.37 1516.64,1154.97C1516.36,1154.56 1516.11,1153.95 1515.9,1153.18C1515.41,1151.33 1515.06,1148.46 1514.18,1145.65C1513.57,1143.71 1512.71,1141.8 1511.33,1140.3C1510.55,1140.5 1509.8,1140.68 1509.07,1140.84C1510.52,1150.19 1511.05,1158.48 1509.49,1166.31C1509.41,1166.73 1509.32,1167.15 1509.23,1167.57C1509.03,1168.45 1508.8,1169.32 1508.54,1170.19C1508.75,1170.83 1508.98,1171.46 1509.23,1172.08C1510.04,1174.08 1511.09,1175.97 1512.45,1177.6C1513.12,1178.39 1513.86,1179.12 1514.68,1179.78C1517.11,1181.71 1520.26,1182.95 1524.34,1183.06L1525,1183.06C1525.3,1183.06 1525.6,1183.06 1525.89,1183.05ZM1512.9,1139.87C1514.15,1141.43 1514.99,1143.3 1515.59,1145.21C1516.48,1148.04 1516.83,1150.93 1517.33,1152.79C1517.48,1153.34 1517.63,1153.78 1517.83,1154.08C1517.88,1154.16 1517.93,1154.25 1518.01,1154.27C1518.07,1154.28 1518.14,1154.25 1518.23,1154.2C1518.25,1154.14 1518.29,1153.99 1518.31,1153.86C1518.36,1153.45 1518.34,1152.92 1518.28,1152.3C1517.98,1149.1 1516.67,1143.8 1516.69,1141.03C1516.69,1140.43 1516.76,1139.92 1516.89,1139.56C1517.02,1139.19 1517.22,1138.93 1517.45,1138.76C1517.94,1138.39 1518.79,1138.34 1519.96,1139.29C1520.24,1139.51 1520.67,1140.25 1521.14,1141.32C1522.07,1143.44 1523.35,1146.97 1524.49,1149.35C1524.87,1150.14 1525.22,1150.8 1525.53,1151.18C1525.56,1151.11 1525.58,1151.03 1525.6,1150.95C1525.78,1150.06 1525.29,1148.56 1524.67,1146.92C1523.62,1144.17 1522.12,1141.08 1521.79,1139.47C1521.69,1138.98 1521.69,1138.59 1521.77,1138.31L1521.85,1138.11L1521.97,1137.9L1522.15,1137.72L1522.38,1137.58L1522.76,1137.48C1522.9,1137.46 1523.08,1137.47 1523.28,1137.52C1523.6,1137.6 1524.03,1137.79 1524.59,1138.15C1524.99,1138.41 1525.61,1139.04 1526.33,1139.89C1527.85,1141.69 1529.93,1144.48 1531.58,1146.14C1531.94,1146.51 1532.28,1146.82 1532.58,1147.04C1532.69,1147.12 1532.83,1147.19 1532.94,1147.25L1532.94,1147.21C1532.98,1147.03 1532.99,1146.79 1532.97,1146.51C1532.96,1146.26 1532.84,1145.97 1532.65,1145.64C1532.3,1145.01 1531.74,1144.29 1531.09,1143.55C1529.34,1141.54 1527,1139.34 1526.09,1137.92C1525.84,1137.53 1525.68,1137.17 1525.62,1136.88C1525.6,1136.74 1525.59,1136.6 1525.6,1136.48L1525.64,1136.25L1525.72,1136.03C1525.93,1135.61 1526.51,1135.2 1527.74,1135.31C1528.28,1135.36 1528.99,1135.66 1529.79,1136.16C1531.38,1137.16 1533.41,1138.95 1535.12,1140.35C1535.97,1141.05 1536.72,1141.66 1537.28,1141.97C1537.24,1141.78 1537.18,1141.54 1537.1,1141.31C1536.68,1140.07 1535.48,1138.63 1534,1137.18C1532.35,1135.58 1530.36,1133.98 1528.58,1132.65C1525.89,1134.64 1523.27,1136.19 1521.34,1136.95C1518.28,1138.15 1515.48,1139.12 1512.9,1139.87ZM1482.09,1133.66C1482.33,1133.82 1482.58,1133.98 1482.84,1134.13C1484.12,1134.92 1485.37,1135.64 1486.59,1136.28C1487.04,1136.52 1487.49,1136.75 1487.93,1136.96C1493.19,1139.53 1498.05,1140.63 1503.85,1140.14C1504.47,1140.08 1505.1,1140.01 1505.74,1139.92C1506.28,1139.85 1506.83,1139.76 1507.38,1139.66C1507.86,1139.57 1508.34,1139.48 1508.83,1139.37C1509.21,1139.29 1509.58,1139.2 1509.97,1139.11C1510.55,1138.97 1511.15,1138.82 1511.75,1138.65C1514.5,1137.9 1517.49,1136.88 1520.8,1135.57C1522.55,1134.88 1524.91,1133.51 1527.34,1131.75C1527.75,1131.45 1528.17,1131.14 1528.58,1130.82C1528.88,1130.6 1529.17,1130.37 1529.46,1130.13C1529.84,1129.83 1530.22,1129.52 1530.6,1129.2C1531.16,1128.72 1531.71,1128.23 1532.25,1127.73C1532.61,1127.39 1532.97,1127.05 1533.32,1126.7C1534.09,1125.94 1534.82,1125.16 1535.48,1124.38C1535.81,1123.99 1536.12,1123.6 1536.41,1123.22C1537.01,1122.43 1537.53,1121.64 1537.95,1120.88C1539.61,1117.84 1540.3,1114.66 1540.35,1111.52C1540.36,1111.01 1540.35,1110.49 1540.33,1109.98C1540.3,1109.48 1540.26,1108.98 1540.21,1108.49C1540.16,1107.99 1540.09,1107.49 1540.01,1106.99C1539.92,1106.4 1539.8,1105.82 1539.68,1105.24C1539.57,1104.75 1539.45,1104.25 1539.32,1103.77C1538.2,1099.63 1536.39,1095.86 1534.76,1092.92C1533,1089.74 1530.98,1087.14 1528.71,1085.07C1528.35,1084.74 1527.98,1084.42 1527.6,1084.11C1527.23,1083.82 1526.86,1083.53 1526.48,1083.25C1526.08,1082.96 1525.67,1082.69 1525.26,1082.43C1524.73,1082.1 1524.2,1081.78 1523.65,1081.5C1523.21,1081.26 1522.77,1081.04 1522.32,1080.84C1521.05,1080.26 1519.72,1079.79 1518.35,1079.41C1517.87,1079.28 1517.39,1079.16 1516.89,1079.06C1512.38,1078.08 1507.37,1078.11 1501.95,1078.9C1501.66,1078.95 1501.34,1079.01 1500.99,1079.09C1500.52,1079.19 1500,1079.32 1499.44,1079.49C1498.62,1079.73 1497.7,1080.03 1496.72,1080.4C1496.27,1080.57 1495.8,1080.75 1495.32,1080.95C1494.49,1081.29 1493.63,1081.67 1492.75,1082.09C1492.3,1082.31 1491.85,1082.53 1491.39,1082.77C1490.2,1083.38 1489,1084.05 1487.82,1084.79C1487.15,1085.21 1486.48,1085.65 1485.83,1086.11C1482.83,1088.23 1480.08,1090.76 1478.22,1093.67C1477.46,1094.86 1475.81,1098.62 1474.59,1103.49C1474.46,1103.98 1474.35,1104.48 1474.23,1105C1473.88,1106.58 1473.59,1108.27 1473.39,1110C1473.34,1110.45 1473.3,1110.91 1473.26,1111.37L1473.25,1111.49C1473.2,1112.04 1473.17,1112.59 1473.15,1113.14C1473.13,1113.64 1473.12,1114.13 1473.12,1114.62C1473.12,1120.02 1474.33,1125.53 1477.92,1129.89C1478.25,1130.3 1478.6,1130.69 1478.98,1131.07C1479.56,1131.67 1480.2,1132.24 1480.89,1132.79C1481.28,1133.09 1481.68,1133.38 1482.09,1133.66ZM1499.61,1107.86C1497.67,1107.18 1495.8,1106.45 1491.84,1105.32C1491.06,1105.1 1490.56,1104.3 1490.55,1103.34C1490.54,1102.36 1491.05,1101.3 1492.03,1100.9C1492.88,1100.55 1494.23,1100.65 1496.01,1102.16C1497.2,1103.16 1497.98,1103.72 1498.87,1104.16C1498.9,1104.13 1498.92,1104.1 1498.95,1104.08C1499.26,1103.77 1499.7,1103.61 1500.21,1103.62C1500.5,1103.62 1500.81,1103.68 1501.14,1103.78C1499.87,1101.99 1499.16,1101.32 1496.96,1099.96C1494.97,1098.74 1494.45,1097.49 1494.52,1096.57C1494.6,1095.51 1495.45,1094.7 1496.38,1094.4C1497.29,1094.12 1498.21,1094.34 1498.66,1095.01C1500.92,1098.34 1502.18,1099.89 1503.41,1101.48C1503.54,1101.42 1503.67,1101.38 1503.8,1101.35C1503.57,1100.47 1503.19,1099.61 1502.52,1098.34C1501.43,1096.27 1501.62,1094.94 1502.15,1094.18C1502.75,1093.31 1503.9,1093.04 1504.85,1093.26C1505.78,1093.48 1506.46,1094.14 1506.51,1094.94C1506.71,1098.3 1506.96,1100.23 1507.17,1101.94C1507.29,1101.77 1507.41,1101.62 1507.54,1101.48C1507.89,1101.1 1508.27,1100.85 1508.68,1100.76C1508.9,1099.98 1509.04,1099.12 1509.16,1097.88C1509.4,1095.56 1510.29,1094.55 1511.15,1094.2C1512.13,1093.81 1513.24,1094.22 1513.91,1094.93C1514.56,1095.62 1514.77,1096.55 1514.36,1097.25C1512.16,1101.06 1511.36,1102.88 1510.35,1104.86L1510.48,1104.82C1510.6,1104.78 1510.73,1104.75 1510.86,1104.73C1511.6,1103.97 1512.15,1103.16 1512.95,1101.73C1514.09,1099.69 1515.32,1099.12 1516.24,1099.15C1517.3,1099.18 1518.15,1100 1518.48,1100.92C1518.81,1101.81 1518.62,1102.74 1517.97,1103.22C1516.16,1104.56 1514.9,1105.57 1513.86,1106.42C1514.12,1107.02 1514.12,1107.51 1514,1107.89C1513.95,1108.06 1513.87,1108.21 1513.77,1108.35C1514.72,1108.12 1515.6,1107.75 1516.96,1107.05C1519.03,1105.98 1520.37,1106.18 1521.12,1106.71C1521.99,1107.32 1522.25,1108.47 1522.02,1109.42C1521.79,1110.35 1521.12,1111.02 1520.32,1111.07C1518.09,1111.18 1516.49,1111.32 1515.16,1111.46C1515.13,1111.53 1515.09,1111.6 1515.05,1111.66C1516.3,1112.46 1517.73,1113.38 1520.27,1114.77C1520.96,1115.15 1521.19,1116.03 1520.84,1116.93C1520.46,1117.93 1519.39,1118.88 1518.07,1118.71C1517.29,1118.6 1516.36,1118.09 1515.47,1116.76C1514.86,1115.84 1514.4,1115.25 1513.88,1114.76C1513.84,1115.24 1513.61,1115.7 1513.14,1116.07C1513.44,1116.45 1513.78,1116.85 1514.15,1117.29C1514.6,1117.83 1514.56,1118.75 1514.01,1119.56C1513.35,1120.52 1512.05,1121.2 1510.93,1120.66C1510.27,1120.34 1509.59,1119.56 1509.22,1117.91C1509.09,1117.34 1508.97,1116.87 1508.85,1116.45C1508.67,1116.79 1508.44,1117.09 1508.15,1117.3C1508.2,1118.68 1508.29,1120.33 1508.54,1122.82C1508.58,1123.2 1508.47,1123.58 1508.23,1123.93C1507.95,1124.34 1507.49,1124.69 1506.97,1124.91C1506,1125.31 1504.88,1125.19 1504.29,1124.32C1503.88,1123.72 1503.68,1122.61 1504.27,1120.78C1504.84,1119.04 1505.05,1118.09 1505.06,1116.92C1504.81,1116.6 1504.65,1116.21 1504.57,1115.77C1504.54,1115.62 1504.52,1115.47 1504.51,1115.31C1504.41,1115.41 1504.31,1115.51 1504.2,1115.6C1504.1,1115.68 1504,1115.77 1503.89,1115.84C1503.08,1117.3 1502.76,1118.23 1502.39,1120.34C1502.02,1122.46 1501.15,1123.45 1500.35,1123.82C1499.36,1124.29 1498.33,1123.94 1497.73,1123.31C1497.14,1122.69 1496.97,1121.82 1497.41,1121.11C1499.03,1118.53 1499.94,1116.9 1500.71,1115.51C1500.67,1115.46 1500.64,1115.42 1500.61,1115.37C1499.75,1115.84 1499,1116.43 1497.87,1117.46C1496.14,1119.04 1494.81,1119.2 1493.94,1118.88C1492.94,1118.52 1492.39,1117.48 1492.37,1116.5C1492.34,1115.55 1492.81,1114.72 1493.57,1114.47C1496.5,1113.5 1498.27,1112.81 1499.77,1112.21C1499.26,1112.1 1498.81,1111.9 1498.47,1111.57C1497.15,1111.68 1495.57,1111.84 1493.4,1112.13C1492.6,1112.23 1491.82,1111.69 1491.43,1110.82C1491.03,1109.93 1491.07,1108.75 1491.81,1107.99C1492.45,1107.33 1493.73,1106.89 1495.96,1107.56C1497.23,1107.94 1498.1,1108.14 1498.94,1108.22C1499.16,1108.11 1499.4,1108.02 1499.67,1107.95L1499.71,1107.94L1499.61,1107.86ZM1498.43,1105.58C1497.33,1105.09 1496.46,1104.48 1495.06,1103.29C1494.42,1102.75 1493.88,1102.43 1493.42,1102.29C1493.09,1102.18 1492.81,1102.18 1492.59,1102.27C1492.18,1102.44 1492.03,1102.91 1492.03,1103.33C1492.03,1103.47 1492.06,1103.61 1492.1,1103.72C1492.13,1103.8 1492.17,1103.88 1492.24,1103.9C1495.16,1104.74 1496.94,1105.35 1498.45,1105.88C1498.44,1105.79 1498.43,1105.68 1498.43,1105.58ZM1502.42,1102.61C1501.11,1100.9 1499.84,1099.38 1497.44,1095.84C1497.4,1095.77 1497.31,1095.76 1497.23,1095.76C1497.1,1095.75 1496.96,1095.77 1496.83,1095.81C1496.43,1095.94 1496.03,1096.23 1496,1096.68C1495.98,1096.91 1496.07,1097.17 1496.27,1097.45C1496.56,1097.85 1497.03,1098.27 1497.74,1098.7C1500.15,1100.19 1500.87,1100.88 1502.35,1102.94C1502.36,1102.83 1502.38,1102.71 1502.42,1102.61ZM1505.73,1102.3C1505.51,1100.52 1505.25,1098.57 1505.03,1095.04C1505.03,1094.96 1504.96,1094.91 1504.89,1094.86C1504.78,1094.79 1504.65,1094.74 1504.52,1094.7C1504.12,1094.61 1503.62,1094.66 1503.36,1095.02C1503.23,1095.22 1503.17,1095.49 1503.2,1095.83C1503.25,1096.32 1503.44,1096.92 1503.83,1097.65C1504.81,1099.52 1505.21,1100.54 1505.44,1101.98C1505.54,1102.07 1505.64,1102.18 1505.73,1102.3ZM1510.37,1101.51C1511.02,1100.23 1511.82,1098.7 1513.08,1096.51C1513.12,1096.44 1513.09,1096.36 1513.06,1096.29C1513.01,1096.17 1512.93,1096.05 1512.84,1095.95C1512.55,1095.65 1512.11,1095.41 1511.69,1095.58C1511.48,1095.66 1511.29,1095.86 1511.12,1096.17C1510.88,1096.6 1510.72,1097.2 1510.63,1098.03C1510.5,1099.4 1510.35,1100.32 1510.1,1101.17C1510.21,1101.27 1510.3,1101.38 1510.37,1101.51ZM1512.99,1105.23C1514.02,1104.38 1515.29,1103.37 1517.09,1102.03C1517.16,1101.99 1517.16,1101.9 1517.16,1101.82C1517.17,1101.69 1517.14,1101.55 1517.09,1101.42C1516.95,1101.03 1516.64,1100.64 1516.19,1100.62C1515.96,1100.62 1515.7,1100.72 1515.43,1100.94C1515.04,1101.24 1514.65,1101.73 1514.24,1102.45C1513.62,1103.56 1513.14,1104.33 1512.62,1104.98C1512.75,1105.04 1512.87,1105.13 1512.99,1105.23ZM1512.36,1107.68C1512.44,1107.64 1512.52,1107.59 1512.56,1107.51C1512.57,1107.49 1512.58,1107.47 1512.59,1107.44C1512.63,1107.31 1512.58,1107.15 1512.47,1106.94C1512.28,1106.56 1512.06,1106.33 1511.81,1106.22L1511.76,1106.2C1511.67,1106.17 1511.59,1106.16 1511.5,1106.15C1511.3,1106.14 1511.09,1106.18 1510.9,1106.24C1510.17,1106.45 1509.55,1106.97 1509.45,1107.05C1509.34,1107.14 1509.22,1107.19 1509.09,1107.2C1508.9,1107.23 1508.7,1107.18 1508.54,1107.06C1508.45,1106.99 1508.38,1106.91 1508.33,1106.82C1508.23,1106.62 1508.22,1106.39 1508.31,1106.18C1508.38,1106.03 1508.73,1105.21 1508.98,1104.3C1509.07,1104 1509.14,1103.68 1509.18,1103.37L1509.18,1103.35C1509.22,1103.07 1509.24,1102.81 1509.2,1102.57C1509.18,1102.42 1509.17,1102.27 1509.04,1102.21C1508.94,1102.17 1508.87,1102.26 1508.78,1102.33C1508.62,1102.46 1508.47,1102.65 1508.33,1102.86C1507.97,1103.39 1507.68,1104.07 1507.48,1104.6C1507.33,1105 1507.23,1105.32 1507.2,1105.4C1507.11,1105.7 1506.84,1105.91 1506.52,1105.92C1506.38,1105.92 1506.26,1105.89 1506.14,1105.83L1506.1,1105.81C1505.97,1105.72 1505.87,1105.6 1505.81,1105.45L1505.77,1105.36C1505.63,1105.02 1505.22,1104.02 1504.66,1103.32C1504.53,1103.15 1504.39,1103 1504.24,1102.9C1504.19,1102.86 1504.13,1102.81 1504.08,1102.81C1504.06,1102.81 1504.05,1102.81 1504.03,1102.82C1503.71,1102.97 1503.78,1103.33 1503.85,1103.68C1503.93,1104.09 1504.09,1104.51 1504.26,1104.87C1504.5,1105.36 1504.74,1105.74 1504.8,1105.83C1504.86,1105.92 1504.89,1106.03 1504.9,1106.13L1504.91,1106.15C1504.92,1106.26 1504.9,1106.38 1504.86,1106.48L1504.85,1106.51C1504.81,1106.6 1504.76,1106.69 1504.68,1106.76C1504.6,1106.84 1504.51,1106.89 1504.41,1106.92C1504.38,1106.93 1504.35,1106.94 1504.33,1106.95C1504.13,1106.99 1503.91,1106.95 1503.74,1106.82C1503.66,1106.77 1503.32,1106.52 1502.85,1106.22C1502.23,1105.83 1501.39,1105.37 1500.66,1105.17C1500.5,1105.13 1500.35,1105.1 1500.21,1105.1C1500.12,1105.1 1500.04,1105.08 1499.98,1105.13C1499.9,1105.2 1499.91,1105.33 1499.9,1105.51C1499.9,1105.77 1499.97,1106 1500.09,1106.2C1500.17,1106.34 1500.27,1106.46 1500.38,1106.57C1500.54,1106.72 1500.72,1106.86 1500.91,1106.98C1501.98,1107.65 1503.35,1107.87 1503.49,1107.91L1503.51,1107.92C1503.74,1108 1503.91,1108.19 1503.98,1108.41C1504.01,1108.53 1504.02,1108.65 1503.99,1108.78C1503.96,1108.92 1503.88,1109.05 1503.78,1109.15L1503.76,1109.16C1503.61,1109.31 1503.39,1109.38 1503.16,1109.35C1502.95,1109.32 1501.24,1109.07 1500.04,1109.38C1499.75,1109.45 1499.48,1109.54 1499.35,1109.73L1499.33,1109.77C1499.29,1109.84 1499.28,1109.93 1499.29,1110.03C1499.3,1110.09 1499.31,1110.14 1499.32,1110.2C1499.46,1110.74 1500.03,1110.81 1500.62,1110.82C1501.92,1110.85 1503.45,1110.33 1503.67,1110.26C1503.72,1110.24 1503.78,1110.23 1503.83,1110.22C1503.93,1110.21 1504.03,1110.22 1504.13,1110.25C1504.25,1110.29 1504.36,1110.36 1504.45,1110.46C1504.5,1110.51 1504.54,1110.57 1504.57,1110.64L1504.59,1110.69L1504.6,1110.69C1504.64,1110.81 1504.65,1110.93 1504.64,1111.05C1504.64,1111.07 1504.63,1111.1 1504.63,1111.13L1504.63,1111.14L1504.62,1111.14C1504.58,1111.32 1504.47,1111.47 1504.31,1111.58C1504.25,1111.62 1504.06,1111.74 1503.8,1111.93C1503.59,1112.08 1503.34,1112.27 1503.08,1112.5C1502.91,1112.64 1502.74,1112.81 1502.57,1112.98C1502.39,1113.17 1502.21,1113.37 1502.07,1113.58C1501.8,1113.97 1501.6,1114.39 1502,1114.72L1502.02,1114.73C1502.28,1114.94 1502.54,1114.91 1502.79,1114.79L1502.82,1114.78C1502.96,1114.7 1503.11,1114.59 1503.24,1114.47C1503.35,1114.38 1503.45,1114.29 1503.55,1114.18C1503.91,1113.81 1504.24,1113.36 1504.48,1112.98C1504.58,1112.82 1504.67,1112.68 1504.74,1112.55C1504.84,1112.38 1504.91,1112.25 1504.96,1112.17L1504.97,1112.14L1504.99,1112.12C1505.17,1111.84 1505.51,1111.72 1505.82,1111.82L1505.87,1111.83L1505.91,1111.85C1506.02,1111.9 1506.11,1111.97 1506.18,1112.06C1506.21,1112.09 1506.23,1112.12 1506.25,1112.16C1506.27,1112.2 1506.29,1112.23 1506.3,1112.27C1506.32,1112.33 1506.34,1112.39 1506.34,1112.45C1506.35,1112.54 1506.34,1112.64 1506.32,1112.73C1506.31,1112.77 1506.28,1112.84 1506.25,1112.96C1506.23,1113.05 1506.2,1113.16 1506.17,1113.29C1506.07,1113.73 1505.96,1114.37 1505.97,1114.98C1505.98,1115.41 1506.02,1115.85 1506.3,1116.09C1506.36,1116.14 1506.42,1116.18 1506.51,1116.2C1506.55,1116.21 1506.59,1116.22 1506.64,1116.23C1506.74,1116.24 1506.85,1116.24 1506.98,1116.22C1507.43,1116.17 1507.6,1115.74 1507.71,1115.29C1507.79,1115 1507.84,1114.68 1507.86,1114.38C1507.91,1113.63 1507.84,1112.95 1507.83,1112.82C1507.82,1112.78 1507.82,1112.74 1507.82,1112.7C1507.83,1112.62 1507.85,1112.53 1507.88,1112.45C1507.92,1112.36 1507.97,1112.28 1508.04,1112.21C1508.08,1112.17 1508.12,1112.14 1508.17,1112.11C1508.2,1112.09 1508.24,1112.08 1508.27,1112.06C1508.3,1112.05 1508.33,1112.04 1508.36,1112.03C1508.54,1111.98 1508.73,1112 1508.89,1112.08L1508.94,1112.11C1509.07,1112.18 1509.16,1112.29 1509.23,1112.42C1509.32,1112.62 1509.96,1113.99 1510.85,1114.75C1511.25,1115.08 1511.71,1115.3 1512.19,1114.94L1512.22,1114.92C1512.53,1114.66 1512.39,1114.29 1512.22,1113.93C1512.13,1113.74 1512.01,1113.54 1511.88,1113.36C1511.38,1112.65 1510.73,1112.07 1510.62,1111.97L1510.61,1111.96C1510.36,1111.72 1510.31,1111.33 1510.49,1111.03C1510.52,1110.99 1510.54,1110.96 1510.57,1110.93C1510.62,1110.87 1510.68,1110.82 1510.75,1110.78C1510.94,1110.67 1511.18,1110.65 1511.4,1110.74C1511.51,1110.79 1512.26,1111.09 1512.98,1111.13C1513.26,1111.14 1513.55,1111.15 1513.73,1110.97C1513.76,1110.94 1513.79,1110.9 1513.81,1110.87C1513.86,1110.77 1513.88,1110.63 1513.89,1110.46C1513.89,1110.33 1513.85,1110.22 1513.78,1110.13C1513.71,1110.04 1513.61,1109.97 1513.49,1109.91C1513.36,1109.84 1513.21,1109.79 1513.06,1109.74C1512.55,1109.58 1511.95,1109.51 1511.46,1109.49C1511.26,1109.48 1511.07,1109.48 1510.91,1109.48C1510.7,1109.49 1510.55,1109.49 1510.47,1109.49L1510.42,1109.49C1510.35,1109.49 1510.27,1109.48 1510.2,1109.46C1509.91,1109.36 1509.7,1109.1 1509.69,1108.78L1509.69,1108.77C1509.69,1108.7 1509.7,1108.64 1509.71,1108.58C1509.79,1108.27 1510.06,1108.03 1510.4,1108.02C1510.46,1108.01 1510.64,1108 1510.88,1108C1511.21,1107.99 1511.66,1107.93 1512.05,1107.8C1512.16,1107.76 1512.27,1107.73 1512.36,1107.68ZM1515.31,1109.96C1516.59,1109.83 1518.14,1109.7 1520.24,1109.59C1520.32,1109.58 1520.37,1109.52 1520.42,1109.45C1520.49,1109.34 1520.54,1109.21 1520.58,1109.08C1520.67,1108.67 1520.63,1108.17 1520.27,1107.91C1520.08,1107.78 1519.81,1107.73 1519.46,1107.75C1518.97,1107.79 1518.37,1107.98 1517.64,1108.36C1516.61,1108.89 1515.85,1109.24 1515.13,1109.49C1515.21,1109.64 1515.27,1109.79 1515.31,1109.96ZM1513.44,1112.6C1514.88,1113.5 1515.52,1114.17 1516.7,1115.93C1517.29,1116.82 1517.84,1117.22 1518.34,1117.25C1518.75,1117.27 1519.07,1117.02 1519.28,1116.73C1519.4,1116.57 1519.48,1116.39 1519.52,1116.22C1519.53,1116.17 1519.52,1116.08 1519.52,1116.05C1516.57,1114.43 1515.12,1113.46 1513.72,1112.56C1513.65,1112.57 1513.59,1112.58 1513.53,1112.59L1513.44,1112.6ZM1510.31,1116.19C1510.43,1116.59 1510.54,1117.05 1510.66,1117.59C1510.88,1118.59 1511.17,1119.13 1511.57,1119.33C1511.76,1119.42 1511.96,1119.38 1512.14,1119.29C1512.4,1119.17 1512.63,1118.95 1512.79,1118.72C1512.88,1118.6 1512.94,1118.47 1512.98,1118.34C1512.99,1118.3 1512.99,1118.24 1513,1118.21C1512.5,1117.63 1512.07,1117.11 1511.69,1116.63C1511.21,1116.64 1510.75,1116.47 1510.31,1116.19ZM1506.5,1117.7C1506.43,1118.71 1506.19,1119.67 1505.68,1121.24C1505.43,1121.99 1505.34,1122.57 1505.37,1123C1505.39,1123.26 1505.45,1123.45 1505.57,1123.55C1505.67,1123.64 1505.81,1123.66 1505.94,1123.65C1506.16,1123.64 1506.39,1123.56 1506.59,1123.45C1506.75,1123.36 1506.9,1123.25 1506.99,1123.12C1507.03,1123.07 1507.07,1123.02 1507.07,1122.97C1506.83,1120.63 1506.74,1119.04 1506.69,1117.71C1506.63,1117.71 1506.56,1117.7 1506.5,1117.7ZM1501.94,1116.33C1501.18,1117.71 1500.27,1119.33 1498.67,1121.89C1498.63,1121.96 1498.64,1122.03 1498.67,1122.1C1498.73,1122.25 1498.87,1122.37 1499.02,1122.46C1499.33,1122.62 1499.75,1122.58 1500.1,1122.19C1500.46,1121.79 1500.75,1121.11 1500.94,1120.08C1501.24,1118.38 1501.49,1117.4 1501.98,1116.34L1501.94,1116.33ZM1500.43,1113.53C1498.88,1114.15 1497.1,1114.86 1494.03,1115.87C1493.96,1115.9 1493.93,1115.98 1493.9,1116.06C1493.86,1116.18 1493.84,1116.31 1493.84,1116.45C1493.86,1116.87 1494.03,1117.34 1494.45,1117.49C1494.67,1117.57 1494.94,1117.55 1495.27,1117.44C1495.73,1117.27 1496.26,1116.93 1496.87,1116.37C1498.31,1115.06 1499.17,1114.41 1500.34,1113.85C1500.36,1113.75 1500.4,1113.64 1500.43,1113.53ZM1497.85,1109.57C1497.19,1109.44 1496.47,1109.25 1495.54,1108.98C1494.75,1108.74 1494.12,1108.66 1493.64,1108.71C1493.29,1108.75 1493.04,1108.85 1492.87,1109.02C1492.56,1109.34 1492.61,1109.84 1492.78,1110.22C1492.84,1110.35 1492.91,1110.46 1493,1110.55C1493.06,1110.61 1493.13,1110.67 1493.2,1110.66C1495.13,1110.4 1496.59,1110.25 1497.82,1110.15C1497.8,1109.94 1497.81,1109.74 1497.85,1109.57ZM1572.22,1101.78C1578.28,1098.07 1581.1,1093.01 1581.76,1088.3C1582.4,1083.7 1581.01,1079.45 1578.6,1077.31C1570.46,1070.08 1568.81,1063.55 1567.2,1058.63C1566.45,1056.35 1565.74,1054.42 1564.25,1053C1562.77,1051.58 1560.54,1050.68 1556.83,1050.33C1548.47,1049.54 1543.38,1052.77 1538.26,1059.21C1537.73,1059.88 1537.2,1060.58 1536.66,1061.32C1535.86,1062.42 1535.05,1063.6 1534.22,1064.85C1531.36,1069.16 1528.27,1074.32 1524.47,1080.23C1525.04,1080.53 1525.59,1080.86 1526.14,1081.2C1526.55,1081.47 1526.95,1081.74 1527.35,1082.03C1527.77,1082.33 1528.17,1082.64 1528.57,1082.97C1529.83,1081.51 1531.47,1079.76 1533.25,1078.33C1535.74,1076.32 1538.53,1074.97 1541.02,1075.56C1542.04,1075.81 1542.58,1076.26 1542.83,1076.76C1543.09,1077.29 1543.07,1077.94 1542.73,1078.68C1542.08,1080.1 1540.13,1081.98 1538.54,1083.74C1537.61,1084.76 1536.8,1085.72 1536.61,1086.52C1536.56,1086.71 1536.54,1086.88 1536.54,1087.02C1536.54,1087.1 1536.53,1087.17 1536.57,1087.22C1536.59,1087.25 1536.63,1087.24 1536.67,1087.25C1536.73,1087.26 1536.8,1087.27 1536.87,1087.27C1537.1,1087.27 1537.36,1087.22 1537.64,1087.16C1540.02,1086.6 1544.03,1084.37 1547.03,1083.33C1548.51,1082.82 1549.79,1082.63 1550.61,1082.88C1551.9,1083.29 1552.49,1083.85 1552.67,1084.34C1552.89,1084.93 1552.67,1085.64 1551.88,1086.29C1550.52,1087.42 1547.2,1088.66 1544.48,1089.72C1542.84,1090.36 1541.44,1090.89 1540.98,1091.33C1540.76,1091.54 1540.6,1091.73 1540.49,1091.89C1540.47,1091.91 1540.45,1091.94 1540.44,1091.96C1540.49,1091.98 1540.54,1092 1540.59,1092.01C1540.83,1092.08 1541.12,1092.11 1541.47,1092.14C1541.74,1092.15 1542.04,1092.16 1542.35,1092.16C1544.51,1092.17 1547.57,1091.85 1550.16,1091.88C1552.04,1091.9 1553.68,1092.12 1554.65,1092.69C1555.28,1093.05 1555.65,1093.39 1555.84,1093.66C1555.88,1093.74 1555.92,1093.81 1555.96,1093.88L1556.04,1094.12L1556.07,1094.39L1556.03,1094.67L1555.95,1094.87L1555.85,1095.05C1555.75,1095.18 1555.62,1095.3 1555.45,1095.42C1555.18,1095.6 1554.76,1095.76 1554.23,1095.89C1551.85,1096.45 1546.76,1096.44 1543.59,1096.61C1542.82,1096.65 1542.17,1096.71 1541.71,1096.79C1541.56,1096.81 1541.37,1096.87 1541.34,1096.88C1541.15,1097.02 1541,1097.15 1540.89,1097.27C1540.83,1097.35 1540.77,1097.4 1540.77,1097.46C1540.78,1097.56 1540.89,1097.61 1541,1097.69C1541.27,1097.89 1541.66,1098.07 1542.13,1098.24C1545.12,1099.33 1551.05,1099.97 1554.56,1100.89C1555.54,1101.15 1556.35,1101.43 1556.88,1101.74C1557.4,1102.05 1557.71,1102.4 1557.83,1102.75C1558.06,1103.4 1558.03,1103.9 1557.86,1104.26C1557.69,1104.65 1557.35,1104.95 1556.83,1105.11C1556.34,1105.26 1555.63,1105.28 1554.75,1105.2C1552.25,1104.98 1548.18,1103.95 1544.39,1104.11C1543.22,1104.16 1542.09,1104.32 1541.03,1104.66C1541.22,1105.46 1541.37,1106.28 1541.5,1107.1C1553.67,1107.89 1562.54,1106.35 1568.84,1103.55C1569.46,1103.27 1570.06,1102.98 1570.64,1102.68C1571.19,1102.39 1571.71,1102.09 1572.22,1101.78ZM1540.67,1103.23C1541.83,1102.86 1543.06,1102.68 1544.33,1102.63C1548.19,1102.47 1552.34,1103.5 1554.88,1103.73C1555.37,1103.78 1555.78,1103.79 1556.12,1103.75C1556.23,1103.74 1556.32,1103.72 1556.4,1103.69C1556.44,1103.68 1556.49,1103.66 1556.51,1103.64C1556.51,1103.59 1556.49,1103.4 1556.44,1103.24C1556.42,1103.19 1556.36,1103.17 1556.3,1103.13C1556.2,1103.05 1556.07,1102.98 1555.93,1102.91C1555.48,1102.7 1554.88,1102.51 1554.18,1102.32C1550.64,1101.39 1544.65,1100.73 1541.63,1099.63C1540.85,1099.35 1540.25,1099.02 1539.88,1098.68C1539.51,1098.34 1539.33,1097.96 1539.3,1097.56C1539.26,1097.02 1539.55,1096.34 1540.5,1095.66C1540.62,1095.57 1540.82,1095.48 1541.1,1095.41C1541.5,1095.3 1542.14,1095.23 1542.94,1095.17C1545.41,1095 1549.47,1095.01 1552.24,1094.71C1552.99,1094.63 1553.64,1094.53 1554.12,1094.39C1554.21,1094.36 1554.3,1094.33 1554.38,1094.3C1554.25,1094.19 1554.09,1094.07 1553.91,1093.96C1552.95,1093.41 1551.2,1093.33 1549.28,1093.36C1546.12,1093.41 1542.51,1093.82 1540.69,1093.54C1540.18,1093.46 1539.78,1093.32 1539.51,1093.15L1539.17,1092.85L1539.04,1092.64L1538.95,1092.41L1538.9,1092.16L1538.91,1091.91C1538.93,1091.77 1538.97,1091.62 1539.04,1091.46C1539.18,1091.14 1539.46,1090.74 1539.96,1090.26C1540.31,1089.93 1541.11,1089.5 1542.17,1089.05C1544.37,1088.12 1547.75,1086.98 1549.83,1085.87C1550.27,1085.63 1550.65,1085.39 1550.94,1085.16C1551.06,1085.05 1551.19,1084.89 1551.25,1084.82C1551.22,1084.78 1551.17,1084.74 1551.13,1084.71C1550.91,1084.56 1550.59,1084.43 1550.17,1084.29C1549.88,1084.2 1549.5,1084.23 1549.07,1084.31C1548.25,1084.45 1547.26,1084.8 1546.2,1085.23C1543.37,1086.38 1540.06,1088.11 1537.98,1088.6C1537.33,1088.75 1536.77,1088.78 1536.35,1088.69C1535.93,1088.61 1535.62,1088.41 1535.39,1088.12C1535.1,1087.73 1534.94,1087.11 1535.17,1086.17C1535.37,1085.33 1536.08,1084.3 1537.01,1083.24C1538.24,1081.82 1539.85,1080.29 1540.82,1078.98C1541.1,1078.6 1541.33,1078.24 1541.45,1077.92C1541.52,1077.74 1541.57,1077.57 1541.51,1077.43C1541.48,1077.34 1541.38,1077.28 1541.26,1077.21C1541.11,1077.13 1540.91,1077.06 1540.68,1077C1538.57,1076.5 1536.28,1077.79 1534.17,1079.48C1532.47,1080.85 1530.91,1082.52 1529.68,1083.93C1532.07,1086.12 1534.2,1088.85 1536.06,1092.21C1537.71,1095.2 1539.53,1099.03 1540.67,1103.23ZM1517.5,1077.66C1518.13,1076.19 1518.83,1074.39 1519.36,1072.58C1520.06,1070.21 1520.5,1067.82 1520.02,1066.14C1519.91,1065.77 1519.81,1065.48 1519.7,1065.25C1519.68,1065.29 1519.66,1065.33 1519.64,1065.37C1519.4,1065.84 1519.17,1066.48 1518.93,1067.2C1518.42,1068.75 1517.88,1070.67 1517.27,1072.16C1516.81,1073.29 1516.29,1074.19 1515.76,1074.64C1514.78,1075.45 1514.06,1075.4 1513.64,1075.12L1513.37,1074.87C1513.27,1074.76 1513.19,1074.61 1513.12,1074.44C1513.01,1074.16 1512.95,1073.76 1512.93,1073.27C1512.89,1071.46 1513.57,1068.15 1513.87,1065.39C1513.99,1064.36 1514.05,1063.41 1513.98,1062.67C1513.95,1062.28 1513.89,1061.96 1513.75,1061.75C1513.6,1061.51 1513.46,1061.32 1513.33,1061.19L1513.31,1061.17C1513.22,1061.36 1513.06,1061.72 1512.98,1062.04C1512.92,1062.28 1512.86,1062.56 1512.81,1062.85C1512.4,1065.15 1512.29,1068.63 1512.06,1070.97C1511.95,1072.08 1511.81,1072.96 1511.62,1073.4C1511.37,1074.01 1511.12,1074.41 1510.9,1074.66C1510.76,1074.82 1510.63,1074.92 1510.5,1075L1510.13,1075.13L1509.86,1075.14L1509.61,1075.09L1509.39,1074.99L1509.21,1074.87C1508.99,1074.69 1508.77,1074.37 1508.57,1073.91C1507.92,1072.39 1507.4,1069 1506.69,1066.14C1506.27,1064.44 1505.82,1062.93 1505.16,1062.3C1505.09,1062.23 1505,1062.17 1504.93,1062.11C1504.86,1062.59 1504.93,1063.33 1505.03,1064.19C1505.34,1066.75 1506.11,1070.29 1506.23,1072.38C1506.27,1073.14 1506.22,1073.74 1506.08,1074.1C1506.06,1074.17 1506.02,1074.24 1505.99,1074.3L1505.86,1074.5L1505.59,1074.74C1504.78,1075.25 1504,1075.17 1503.26,1074.64C1502.46,1074.08 1501.69,1072.86 1500.98,1071.37C1500.02,1069.35 1499.13,1066.85 1498.28,1065.19C1498.03,1064.71 1497.79,1064.3 1497.54,1064.02C1497.46,1063.94 1497.33,1063.84 1497.3,1063.82C1497.18,1063.83 1497.08,1063.84 1497.03,1063.9C1496.98,1063.96 1496.99,1064.05 1496.99,1064.15C1497,1064.51 1497.13,1064.96 1497.32,1065.49C1497.96,1067.31 1499.32,1069.88 1500.2,1072.72C1500.69,1074.28 1501.03,1075.92 1501.06,1077.56C1501.3,1077.51 1501.53,1077.47 1501.74,1077.44C1507.47,1076.6 1512.75,1076.59 1517.5,1077.66ZM1561.01,1153.07C1568.51,1155.48 1574.74,1153 1578.37,1149.64C1580,1148.14 1581.1,1146.47 1581.53,1145C1583.63,1137.76 1586.34,1133.33 1588.28,1129.83C1589.65,1127.36 1590.64,1125.4 1590.64,1123.16C1590.64,1120.93 1589.65,1118.45 1587.18,1114.96C1583.38,1109.59 1577.56,1105.89 1572.33,1103.43C1571.43,1103.95 1570.47,1104.44 1569.44,1104.9C1563.04,1107.74 1554.03,1109.36 1541.68,1108.59C1541.74,1109.17 1541.78,1109.75 1541.8,1110.33C1542.76,1110.49 1543.77,1110.54 1544.79,1110.51C1549.07,1110.4 1553.64,1108.96 1556.67,1108.42C1557.89,1108.2 1558.88,1108.13 1559.57,1108.27C1560.06,1108.38 1560.43,1108.59 1560.68,1108.89C1560.94,1109.2 1561.09,1109.62 1561.06,1110.17C1560.97,1111.88 1559.81,1113.02 1558.09,1113.75C1555.89,1114.68 1552.77,1114.95 1550.59,1115.28C1550.04,1115.37 1549.55,1115.45 1549.17,1115.56C1549.09,1115.59 1549.01,1115.62 1548.94,1115.64C1549.12,1115.81 1549.42,1116.07 1549.77,1116.29C1549.88,1116.36 1550.11,1116.39 1550.39,1116.44C1551,1116.53 1551.83,1116.59 1552.74,1116.63C1555.19,1116.77 1558.21,1116.87 1559.51,1117.41C1560.18,1117.68 1560.51,1118.1 1560.59,1118.53L1560.6,1118.81L1560.55,1119.08C1560.51,1119.23 1560.43,1119.38 1560.32,1119.54C1560.1,1119.86 1559.68,1120.24 1559,1120.67C1558.05,1121.26 1556.35,1121.52 1554.39,1121.57C1551.68,1121.63 1548.43,1121.36 1546.18,1121.4C1545.49,1121.41 1544.9,1121.45 1544.47,1121.55C1544.4,1121.56 1544.33,1121.58 1544.27,1121.61C1544.29,1121.63 1544.31,1121.65 1544.33,1121.68C1544.47,1121.85 1544.67,1122.04 1544.94,1122.26C1545.48,1122.71 1547.05,1123.25 1548.87,1123.88C1551.84,1124.91 1555.46,1126.11 1557.03,1127.24C1557.9,1127.87 1558.2,1128.58 1558.05,1129.16C1557.99,1129.44 1557.83,1129.72 1557.52,1129.98C1557.22,1130.24 1556.74,1130.5 1556.04,1130.73C1555.22,1131.01 1553.84,1130.76 1552.21,1130.14C1548.91,1128.87 1544.4,1126.18 1541.82,1125.32C1541.46,1125.2 1541.02,1125.14 1540.8,1125.11C1540.82,1125.24 1540.86,1125.43 1540.93,1125.6C1541.04,1125.89 1541.29,1126.2 1541.62,1126.55C1542.22,1127.17 1543.08,1127.85 1544.02,1128.56C1546.52,1130.42 1549.63,1132.42 1550.74,1133.79C1551.17,1134.33 1551.33,1134.84 1551.29,1135.25C1557.16,1141.54 1560.09,1147.65 1561.01,1153.07ZM1471.64,1114.44C1469.28,1114.15 1465.61,1113.74 1462.32,1113.9C1460.78,1113.98 1459.33,1114.17 1458.14,1114.59C1457.11,1114.95 1456.28,1115.46 1455.88,1116.26C1455.75,1116.53 1455.67,1116.72 1455.73,1116.89C1455.77,1116.98 1455.86,1117.03 1455.97,1117.09C1456.18,1117.2 1456.47,1117.28 1456.8,1117.33C1458.71,1117.66 1461.94,1117.3 1464.69,1117.2C1466.71,1117.12 1468.5,1117.2 1469.46,1117.66C1469.97,1117.9 1470.3,1118.14 1470.49,1118.36L1470.71,1118.7L1470.78,1118.92L1470.81,1119.16L1470.76,1119.47L1470.64,1119.74C1470.54,1119.91 1470.36,1120.09 1470.11,1120.25C1469.65,1120.55 1468.82,1120.83 1467.74,1121.08C1465.46,1121.6 1462.02,1122.05 1459.01,1122.59C1457.34,1122.89 1455.8,1123.22 1454.69,1123.61C1454.09,1123.82 1453.63,1124.02 1453.41,1124.29C1453.22,1124.51 1453.06,1124.77 1452.97,1124.93C1453.08,1124.95 1453.23,1124.98 1453.35,1124.98C1453.85,1124.99 1454.49,1124.91 1455.23,1124.78C1459.24,1124.07 1465.74,1121.87 1467.5,1121.9C1468.26,1121.91 1468.8,1121.99 1469.15,1122.1C1469.56,1122.23 1469.81,1122.43 1469.94,1122.63L1470.07,1122.89L1470.13,1123.17L1470.12,1123.44L1470.05,1123.67C1469.94,1123.94 1469.69,1124.29 1469.27,1124.64C1467.85,1125.85 1464.29,1127.64 1461.4,1129.41C1460.31,1130.08 1459.31,1130.75 1458.6,1131.38C1458.2,1131.74 1457.89,1132.07 1457.74,1132.38C1457.69,1132.49 1457.64,1132.61 1457.61,1132.71C1458.04,1132.58 1458.85,1132.32 1459.53,1131.98C1461.9,1130.81 1465.11,1128.78 1467.23,1127.69C1468.31,1127.13 1469.18,1126.84 1469.6,1126.87C1470.6,1126.94 1471.1,1127.34 1471.31,1127.79C1471.45,1128.09 1471.49,1128.47 1471.37,1128.9C1471.26,1129.32 1470.99,1129.83 1470.59,1130.39C1469.04,1132.55 1465.39,1135.73 1463.64,1137.96C1463.32,1138.38 1463.06,1138.76 1462.92,1139.08C1462.88,1139.17 1462.85,1139.31 1462.84,1139.35C1462.93,1139.51 1463.03,1139.62 1463.16,1139.66C1463.3,1139.72 1463.45,1139.7 1463.63,1139.65C1464.02,1139.55 1464.46,1139.3 1464.96,1138.96C1466.65,1137.82 1468.85,1135.7 1471.52,1133.69C1473.05,1132.54 1474.72,1131.42 1476.53,1130.53C1472.87,1125.89 1471.62,1120.11 1471.64,1114.44Z"/>
    </g>
</svg>
