<?xml version="1.0" encoding="UTF-8"?>
<svg xmlns="http://www.w3.org/2000/svg" viewBox="0 0 200 200">
  <g fill="none" stroke="#000" stroke-width="3" stroke-linecap="round" stroke-linejoin="round">
    <!-- Tulip-shaped sundae glass -->
    <path d="M 50 110 Q 50 75 75 70 L 125 70 Q 150 75 150 110 L 145 130 L 55 130 Z"/>
    <!-- Glass stem -->
    <path d="M 95 130 L 90 165 L 110 165 L 105 130"/>
    <!-- Base -->
    <ellipse cx="100" cy="170" rx="24" ry="5"/>
    <!-- Three scoops mounded above the glass rim -->
    <path d="M 60 70 Q 60 38 90 40 Q 95 35 100 42 Q 110 32 120 42 Q 140 38 140 70"/>
    <!-- Front scoop division lines -->
    <path d="M 60 60 Q 78 50 95 60"/>
    <path d="M 105 60 Q 122 50 140 60"/>
    <!-- Cherry -->
    <circle cx="100" cy="32" r="7"/>
    <path d="M 100 25 Q 105 14 115 14"/>
    <!-- Whipped cream swirl on left scoop -->
    <path d="M 70 50 Q 75 45 80 50 Q 78 54 76 52"/>
  </g>
</svg>
