<?xml version="1.0" encoding="UTF-8"?>
<svg xmlns="http://www.w3.org/2000/svg" viewBox="0 0 200 200">
  <g fill="none" stroke="#000" stroke-width="3" stroke-linecap="round" stroke-linejoin="round">
    <!-- Stud on top of head -->
    <ellipse cx="100" cy="20" rx="9" ry="3"/>
    <line x1="91" y1="20" x2="91" y2="14"/>
    <line x1="109" y1="20" x2="109" y2="14"/>
    <!-- Head (cylindrical, rounded) -->
    <path d="M 80 22 L 80 50 Q 80 56 86 56 L 114 56 Q 120 56 120 50 L 120 22 Q 120 18 116 18 L 84 18 Q 80 18 80 22 Z"/>
    <!-- Smile face -->
    <circle cx="92" cy="35" r="2.5"/>
    <circle cx="108" cy="35" r="2.5"/>
    <path d="M 90 42 Q 100 50 110 42"/>
    <!-- Neck stub -->
    <path d="M 92 56 L 92 62 L 108 62 L 108 56"/>
    <!-- Torso (trapezoidal) -->
    <path d="M 70 62 L 130 62 L 138 110 L 62 110 Z"/>
    <!-- Arms -->
    <path d="M 70 65 Q 50 85 55 110 L 72 110 Q 70 88 78 70"/>
    <path d="M 130 65 Q 150 85 145 110 L 128 110 Q 130 88 122 70"/>
    <!-- Hands (claw-style) -->
    <ellipse cx="58" cy="118" rx="9" ry="7"/>
    <ellipse cx="142" cy="118" rx="9" ry="7"/>
    <!-- Legs (separate, with hip block) -->
    <rect x="62" y="110" width="76" height="10"/>
    <!-- Left leg -->
    <path d="M 64 120 L 64 170 L 96 170 L 96 120"/>
    <!-- Right leg -->
    <path d="M 104 120 L 104 170 L 136 170 L 136 120"/>
    <!-- Foot bumps -->
    <line x1="64" y1="170" x2="96" y2="170"/>
    <line x1="104" y1="170" x2="136" y2="170"/>
  </g>
</svg>
