<?xml version="1.0" encoding="UTF-8"?>
<svg xmlns="http://www.w3.org/2000/svg" viewBox="0 0 200 200">
  <g fill="none" stroke="#000" stroke-width="3" stroke-linecap="round" stroke-linejoin="round">
    <!-- Stack of 3 bricks (front view) -->
    <!-- Bottom brick (4-stud) -->
    <rect x="30" y="135" width="140" height="40"/>
    <circle cx="50" cy="130" r="6"/>
    <circle cx="78" cy="130" r="6"/>
    <circle cx="106" cy="130" r="6"/>
    <circle cx="134" cy="130" r="6"/>
    <line x1="44" y1="135" x2="44" y2="124"/>
    <line x1="56" y1="135" x2="56" y2="124"/>
    <line x1="72" y1="135" x2="72" y2="124"/>
    <line x1="84" y1="135" x2="84" y2="124"/>
    <line x1="100" y1="135" x2="100" y2="124"/>
    <line x1="112" y1="135" x2="112" y2="124"/>
    <line x1="128" y1="135" x2="128" y2="124"/>
    <line x1="140" y1="135" x2="140" y2="124"/>
    <!-- Middle brick (3-stud) -->
    <rect x="50" y="80" width="100" height="40"/>
    <circle cx="68" cy="76" r="6"/>
    <circle cx="100" cy="76" r="6"/>
    <circle cx="132" cy="76" r="6"/>
    <line x1="62" y1="80" x2="62" y2="70"/>
    <line x1="74" y1="80" x2="74" y2="70"/>
    <line x1="94" y1="80" x2="94" y2="70"/>
    <line x1="106" y1="80" x2="106" y2="70"/>
    <line x1="126" y1="80" x2="126" y2="70"/>
    <line x1="138" y1="80" x2="138" y2="70"/>
    <!-- Top brick (2-stud) -->
    <rect x="70" y="30" width="60" height="40"/>
    <circle cx="86" cy="26" r="6"/>
    <circle cx="114" cy="26" r="6"/>
    <line x1="80" y1="30" x2="80" y2="20"/>
    <line x1="92" y1="30" x2="92" y2="20"/>
    <line x1="108" y1="30" x2="108" y2="20"/>
    <line x1="120" y1="30" x2="120" y2="20"/>
  </g>
</svg>
