<?xml version="1.0" encoding="UTF-8" standalone="no"?>
<!-- Created with Inkscape (http://www.inkscape.org/) -->

<svg
   xmlns:dc="http://purl.org/dc/elements/1.1/"
   xmlns:cc="http://creativecommons.org/ns#"
   xmlns:rdf="http://www.w3.org/1999/02/22-rdf-syntax-ns#"
   xmlns:svg="http://www.w3.org/2000/svg"
   xmlns="http://www.w3.org/2000/svg"
   xmlns:xlink="http://www.w3.org/1999/xlink"
   xmlns:sodipodi="http://sodipodi.sourceforge.net/DTD/sodipodi-0.dtd"
   xmlns:inkscape="http://www.inkscape.org/namespaces/inkscape"
   width="29.148087mm"
   height="32.147911mm"
   viewBox="0 0 103.28063 113.90992"
   id="svg2"
   version="1.1"
   inkscape:version="0.91 r13725"
   sodipodi:docname="Affe-lineart.svg">
  <title
     id="title4136">monkey - lineart</title>
  <defs
     id="defs4">
    <pattern
       inkscape:collect="always"
       xlink:href="#Polkadots-large"
       id="pattern5779"
       patternTransform="matrix(1.6561395,0,0,1.7268502,135.94129,995.78319)" />
    <pattern
       inkscape:stockid="Polka dots, large"
       id="Polkadots-large"
       patternTransform="translate(0,0) scale(10,10)"
       height="10"
       width="10"
       patternUnits="userSpaceOnUse"
       inkscape:collect="always">
      <circle
         id="circle5469"
         r="0.45"
         cy="0.810"
         cx="2.567"
         style="fill:black;stroke:none" />
      <circle
         id="circle5471"
         r="0.45"
         cy="2.33"
         cx="3.048"
         style="fill:black;stroke:none" />
      <circle
         id="circle5473"
         r="0.45"
         cy="2.415"
         cx="4.418"
         style="fill:black;stroke:none" />
      <circle
         id="circle5475"
         r="0.45"
         cy="3.029"
         cx="1.844"
         style="fill:black;stroke:none" />
      <circle
         id="circle5477"
         r="0.45"
         cy="1.363"
         cx="6.08"
         style="fill:black;stroke:none" />
      <circle
         id="circle5479"
         r="0.45"
         cy="4.413"
         cx="5.819"
         style="fill:black;stroke:none" />
      <circle
         id="circle5481"
         r="0.45"
         cy="4.048"
         cx="4.305"
         style="fill:black;stroke:none" />
      <circle
         id="circle5483"
         r="0.45"
         cy="3.045"
         cx="5.541"
         style="fill:black;stroke:none" />
      <circle
         id="circle5485"
         r="0.45"
         cy="5.527"
         cx="4.785"
         style="fill:black;stroke:none" />
      <circle
         id="circle5487"
         r="0.45"
         cy="5.184"
         cx="2.667"
         style="fill:black;stroke:none" />
      <circle
         id="circle5489"
         r="0.45"
         cy="1.448"
         cx="7.965"
         style="fill:black;stroke:none" />
      <circle
         id="circle5491"
         r="0.45"
         cy="5.049"
         cx="7.047"
         style="fill:black;stroke:none" />
      <circle
         id="circle5493"
         r="0.45"
         cy="0.895"
         cx="4.340"
         style="fill:black;stroke:none" />
      <circle
         id="circle5495"
         r="0.45"
         cy="0.340"
         cx="7.125"
         style="fill:black;stroke:none" />
      <circle
         id="circle5497"
         r="0.45"
         cy="1.049"
         cx="9.553"
         style="fill:black;stroke:none" />
      <circle
         id="circle5499"
         r="0.45"
         cy="2.689"
         cx="7.006"
         style="fill:black;stroke:none" />
      <circle
         id="circle5501"
         r="0.45"
         cy="2.689"
         cx="8.909"
         style="fill:black;stroke:none" />
      <circle
         id="circle5503"
         r="0.45"
         cy="4.407"
         cx="9.315"
         style="fill:black;stroke:none" />
      <circle
         id="circle5505"
         r="0.45"
         cy="3.870"
         cx="7.820"
         style="fill:black;stroke:none" />
      <circle
         id="circle5507"
         r="0.45"
         cy="5.948"
         cx="8.270"
         style="fill:black;stroke:none" />
      <circle
         id="circle5509"
         r="0.45"
         cy="7.428"
         cx="7.973"
         style="fill:black;stroke:none" />
      <circle
         id="circle5511"
         r="0.45"
         cy="8.072"
         cx="9.342"
         style="fill:black;stroke:none" />
      <circle
         id="circle5513"
         r="0.45"
         cy="9.315"
         cx="8.206"
         style="fill:black;stroke:none" />
      <circle
         id="circle5515"
         r="0.45"
         cy="9.475"
         cx="9.682"
         style="fill:black;stroke:none" />
      <circle
         id="circle5517"
         r="0.45"
         cy="6.186"
         cx="9.688"
         style="fill:black;stroke:none" />
      <circle
         id="circle5519"
         r="0.45"
         cy="6.296"
         cx="3.379"
         style="fill:black;stroke:none" />
      <circle
         id="circle5521"
         r="0.45"
         cy="8.204"
         cx="2.871"
         style="fill:black;stroke:none" />
      <circle
         id="circle5523"
         r="0.45"
         cy="8.719"
         cx="4.59"
         style="fill:black;stroke:none" />
      <circle
         id="circle5525"
         r="0.45"
         cy="9.671"
         cx="3.181"
         style="fill:black;stroke:none" />
      <circle
         id="circle5527"
         r="0.45"
         cy="7.315"
         cx="5.734"
         style="fill:black;stroke:none" />
      <circle
         id="circle5529"
         r="0.45"
         cy="6.513"
         cx="6.707"
         style="fill:black;stroke:none" />
      <circle
         id="circle5531"
         r="0.45"
         cy="9.670"
         cx="5.730"
         style="fill:black;stroke:none" />
      <circle
         id="circle5533"
         r="0.45"
         cy="8.373"
         cx="6.535"
         style="fill:black;stroke:none" />
      <circle
         id="circle5535"
         r="0.45"
         cy="7.154"
         cx="4.37"
         style="fill:black;stroke:none" />
      <circle
         id="circle5537"
         r="0.45"
         cy="7.25"
         cx="0.622"
         style="fill:black;stroke:none" />
      <circle
         id="circle5539"
         r="0.45"
         cy="5.679"
         cx="0.831"
         style="fill:black;stroke:none" />
      <circle
         id="circle5541"
         r="0.45"
         cy="8.519"
         cx="1.257"
         style="fill:black;stroke:none" />
      <circle
         id="circle5543"
         r="0.45"
         cy="6.877"
         cx="1.989"
         style="fill:black;stroke:none" />
      <circle
         id="circle5545"
         r="0.45"
         cy="3.181"
         cx="0.374"
         style="fill:black;stroke:none" />
      <circle
         id="circle5547"
         r="0.45"
         cy="1.664"
         cx="1.166"
         style="fill:black;stroke:none" />
      <circle
         id="circle5549"
         r="0.45"
         cy="0.093"
         cx="1.151"
         style="fill:black;stroke:none" />
      <circle
         id="circle5551"
         r="0.45"
         cy="10.093"
         cx="1.151"
         style="fill:black;stroke:none" />
      <circle
         id="circle5553"
         r="0.45"
         cy="4.451"
         cx="1.302"
         style="fill:black;stroke:none" />
      <circle
         id="circle5555"
         r="0.45"
         cy="3.763"
         cx="3.047"
         style="fill:black;stroke:none" />
    </pattern>
  </defs>
  <sodipodi:namedview
     id="base"
     pagecolor="#ffffff"
     bordercolor="#666666"
     borderopacity="1.0"
     inkscape:pageopacity="0.0"
     inkscape:pageshadow="2"
     inkscape:zoom="2.8284271"
     inkscape:cx="6.4958117"
     inkscape:cy="61.015344"
     inkscape:document-units="mm"
     inkscape:current-layer="layer1"
     showgrid="false"
     units="mm"
     inkscape:window-width="1113"
     inkscape:window-height="988"
     inkscape:window-x="926"
     inkscape:window-y="106"
     inkscape:window-maximized="0"
     inkscape:snap-global="false"
     fit-margin-top="1"
     fit-margin-right="1"
     fit-margin-bottom="1"
     fit-margin-left="1" />
  <metadata
     id="metadata7">
    <rdf:RDF>
      <cc:Work
         rdf:about="">
        <dc:format>image/svg+xml</dc:format>
        <dc:type
           rdf:resource="http://purl.org/dc/dcmitype/StillImage" />
        <dc:title>monkey - lineart</dc:title>
        <cc:license
           rdf:resource="http://creativecommons.org/publicdomain/zero/1.0/" />
        <dc:date>2015-02--16</dc:date>
        <dc:creator>
          <cc:Agent>
            <dc:title>Frank Tremmel</dc:title>
          </cc:Agent>
        </dc:creator>
        <dc:subject>
          <rdf:Bag>
            <rdf:li>monkey</rdf:li>
            <rdf:li>animal</rdf:li>
            <rdf:li>affe</rdf:li>
            <rdf:li>tier</rdf:li>
            <rdf:li>outline</rdf:li>
            <rdf:li>line art</rdf:li>
            <rdf:li />
          </rdf:Bag>
        </dc:subject>
        <dc:description>line art monkey</dc:description>
      </cc:Work>
      <cc:License
         rdf:about="http://creativecommons.org/publicdomain/zero/1.0/">
        <cc:permits
           rdf:resource="http://creativecommons.org/ns#Reproduction" />
        <cc:permits
           rdf:resource="http://creativecommons.org/ns#Distribution" />
        <cc:permits
           rdf:resource="http://creativecommons.org/ns#DerivativeWorks" />
      </cc:License>
    </rdf:RDF>
  </metadata>
  <g
     inkscape:label="Ebene 1"
     inkscape:groupmode="layer"
     id="layer1"
     transform="translate(-4.1324769,-942.60096)">
    <path
       style="fill:#ffffff;fill-opacity:1;fill-rule:evenodd;stroke:#ff0000;stroke-width:0.35433072;stroke-linecap:butt;stroke-linejoin:miter;stroke-miterlimit:4;stroke-dasharray:none;stroke-opacity:1"
       d="m 27.697266,0.84765625 c -1.151524,0.007424 -2.314734,0.0475969 -3.478516,0.0917969 C 18.88531,2.328553 14.024774,4.1124746 11.490234,7.8339844 8.554375,14.497784 7.8293412,22.268297 8.6621094,30.816406 c 0.6457007,1.12372 -0.1181445,4.593379 -0.1777344,6.892578 1.0957854,5.38584 4.541337,10.380371 6.894531,15.556641 1.713167,5.66293 2.528105,11.425719 2.121094,17.324219 -0.591519,6.114099 -0.05499,12.36085 -4.417969,18.03125 -1.225941,2.0831 -3.030201,3.965387 0.972657,7.867187 l 8.21875,2.916016 c 2.587648,0.830003 3.932709,2.903553 5.126953,5.126953 0.870685,0.4377 5.207189,2.48367 5.214843,-2.74023 1.077813,0.081 1.798091,0.90664 3.09375,-0.97266 0.499655,-0.8155 0.207053,-1.894841 -0.707031,-3.181641 1.121961,-0.2191 1.714554,0.01138 2.386719,-3.357422 1.907574,1.1728 2.4899,3.403416 3.269531,5.478515 1.028385,1.972998 2.810666,2.250498 4.773438,2.121098 2.658347,1.6847 4.100255,4.18195 8.662109,4.59765 1.44216,-0.6073 0.898178,-1.66493 0,-2.74023 1.014229,0.2072 2.125424,1.06527 3.359375,-0.26563 0.08175,-1.0574 -1.065194,-1.50079 -1.857422,-2.12109 1.60926,0.1153 2.711311,-0.0988 2.740235,-1.06055 -0.374536,-1.275397 -1.823535,-1.475791 -2.828126,-2.121091 1.295268,-0.3408 2.938968,-0.07371 3.359376,-1.945313 -0.469964,-1.1225 -1.570897,-0.981328 -2.47461,-1.236328 l -5.126953,0.175781 3.09375,-2.033203 c 2.772371,-0.035 2.299504,-0.889872 3.623047,-1.326172 2.235612,1.2001 3.766494,2.537244 7.955078,2.652344 3.019834,0.3948 1.508956,-1.023912 1.238281,-1.945312 -0.381713,-0.8839 -1.818021,-1.766491 -3.359375,-2.650391 0.861151,-0.6935 1.139014,-1.471113 3.535156,-1.945313 l 5.65625,0.707032 c 1.708932,-1.2374 1.650822,-2.593307 -0.175781,-4.066406 l -2.121093,0.355468 c -2.079848,-1.4548 -4.875711,-1.194818 -8.132813,0.175782 l -9.898437,1.767578 c -0.952392,-0.1804 -1.862707,-0.430479 -2.121094,-1.767578 1.352282,-4.2054 2.350506,-8.646463 2.296875,-13.789063 2.776705,0.7084 5.649881,0.646503 8.662109,-0.529297 3.769295,0.6656 7.662985,0.217319 11.667969,-1.238281 1.104907,2.7096 0.911457,7.654475 6.894531,9.546875 -1.623991,4.0186 0.02606,5.786347 2.121094,7.248047 l 5.126953,7.248047 c 2.998805,1.7487 3.154492,0.275887 2.650391,-1.945313 l -0.529297,-2.652344 c 0.738201,0.1849 1.002418,-0.293437 2.828125,1.414063 l 2.298828,3.890625 c 1.158853,1.6698 2.495646,0.485203 3.888672,-1.591797 1.392603,-0.236 3.019756,-0.102625 2.828126,-2.828125 2.65699,-1.5665 1.55406,-2.596491 1.06055,-3.712891 -1.1044,-1.0169 -2.574979,-1.667009 -3.888676,-2.474609 L 88.035156,80.490234 c -0.824958,-0.5564 -1.649651,-3.520984 -2.474609,-5.833984 -1.694143,-4.8099 -2.940426,-8.947606 -2.298828,-10.253906 -0.09351,-2.5611 2.118263,-4.609397 4.066406,-6.716797 2.916001,-4.79273 0.324122,-7.332052 -1.767578,-10.076172 C 85.07575,43.449765 84.2084,39.416457 79.548828,36.648438 73.755794,34.003298 67.716364,33.831757 61.695312,33.466797 56.339428,28.956007 50.195242,25.548974 43.664062,22.683594 39.940796,21.382194 35.887828,20.52208 30.759766,21.09375 L 20.064453,23.125 c 0.08996,-3.65397 -1.263649,-6.137098 0.529297,-10.429688 1.574647,-1.839889 3.058884,-5.745235 12.640625,-3.4472651 L 56.746094,23.214844 c 4.831895,2.43026 9.662245,4.788621 14.49414,5.832031 6.989885,0.46356 13.629429,-0.123191 19.445313,-3.181641 2.162306,-1.58333 4.622912,-1.829474 6.365234,-5.302734 -0.453826,-5.0957 -2.424657,-4.374017 -4.242187,-4.242188 -3.708834,-0.0209 -7.744126,1.912451 -11.667969,3.181641 -5.110743,1.92774 -9.96571,-0.243572 -14.849609,-1.945312 L 37.476562,2.53125 C 34.503953,1.1076451 31.151836,0.82538313 27.697266,0.84765625 Z M 32.625,54.923828 c 2.287798,2.8713 4.138839,6.2667 8,7.25 -1.806866,1.1525 -3.269195,2.391 -3.75,3.875 -0.379313,7.8782 -2.404564,16.084701 -1.5,23 l -0.25,4.375 -7.5,-2.125 -4.375,2.25 c -1.593015,-0.2243 -1.234104,-1.1746 -0.875,-2.375 l 5.375,-9.625 c 0.960048,-1.8664 1.617558,-5.2455 2.25,-8.75 1.67027,-2.8448 3.074614,-5.8669 3.75,-9.375 l -2.375,-7.875 1.25,-0.625 z"
       transform="translate(0,946.06317)"
       id="path4270"
       inkscape:connector-curvature="0" />
    <path
       inkscape:connector-curvature="0"
       style="fill:url(#pattern5779);fill-opacity:1;fill-rule:evenodd;stroke:#ff0000;stroke-width:0.35433072;stroke-linecap:butt;stroke-linejoin:miter;stroke-miterlimit:4;stroke-dasharray:none;stroke-opacity:1"
       d="m 27.709708,947.04423 c -1.15152,0.007 -2.31473,0.0476 -3.47852,0.0918 -5.33344,1.3891 -10.19397,3.17302 -12.72851,6.89453 -2.93586,6.6638 -3.6609,14.43431 -2.82813,22.98242 0.6457,1.12372 -0.11814,4.59338 -0.17773,6.89258 1.0957799,5.38584 4.54133,10.38037 6.89453,15.5566 1.71317,5.66294 2.5281,11.42574 2.12109,17.32424 -0.59152,6.1141 -0.055,12.3609 -4.41797,18.0313 -1.22594,2.0831 -3.0302,3.9654 0.97266,7.8672 l 8.21875,2.916 c 2.58765,0.83 3.93271,2.9035 5.12695,5.1269 0.87069,0.4377 5.20719,2.4837 5.21485,-2.7402 1.07781,0.081 1.79809,0.9066 3.09375,-0.9727 0.49965,-0.8155 0.20705,-1.8948 -0.70703,-3.1816 1.12196,-0.2191 1.71455,0.011 2.38672,-3.3574 1.90757,1.1728 2.4899,3.4034 3.26953,5.4785 1.02838,1.973 2.81066,2.2505 4.77344,2.1211 2.65834,1.6847 4.10025,4.1819 8.66211,4.5976 1.44216,-0.6073 0.89817,-1.6649 0,-2.7402 1.01422,0.2072 2.12542,1.0653 3.35937,-0.2656 0.0817,-1.0574 -1.06519,-1.5008 -1.85742,-2.1211 1.60926,0.1153 2.71131,-0.099 2.74023,-1.0606 -0.37453,-1.2754 -1.82353,-1.4758 -2.82812,-2.1211 1.29527,-0.3408 2.93897,-0.074 3.35937,-1.9453 -0.46996,-1.1225 -1.57089,-0.9813 -2.47461,-1.2363 l -5.12695,0.1758 3.09375,-2.0332 c 2.77237,-0.035 2.2995,-0.8899 3.62305,-1.3262 2.23561,1.2001 3.76649,2.5372 7.95508,2.6523 3.01983,0.3948 1.50895,-1.0239 1.23828,-1.9453 -0.38172,-0.8839 -1.81802,-1.7665 -3.35938,-2.6504 0.86115,-0.6935 1.13902,-1.4711 3.53516,-1.9453 l 5.65625,0.7071 c 1.70893,-1.2374 1.65082,-2.5933 -0.17578,-4.0664 l -2.1211,0.3554 c -2.07984,-1.4548 -4.87571,-1.1948 -8.13281,0.1758 l -9.89844,1.7676 c -0.95239,-0.1804 -1.8627,-0.4305 -2.12109,-1.7676 1.35228,-4.2054 2.35051,-8.6465 2.29687,-13.7891 2.77671,0.7084 5.64989,0.6465 8.66211,-0.5293 3.7693,0.6656 7.66299,0.2174 11.66797,-1.2382 1.10491,2.7096 0.91146,7.6544 6.89453,9.5468 -1.62399,4.0186 0.0261,5.7864 2.1211,7.2481 l 5.12695,7.248 c 2.99881,1.7487 3.15449,0.2759 2.65039,-1.9453 l -0.52929,-2.6523 c 0.7382,0.1849 1.00241,-0.2935 2.82812,1.414 l 2.29883,3.8907 c 1.15885,1.6698 2.49565,0.4852 3.88867,-1.5918 1.392602,-0.236 3.019762,-0.1027 2.828132,-2.8282 2.65699,-1.5665 1.55406,-2.5964 1.06055,-3.7128 -1.1044,-1.0169 -2.57498,-1.6671 -3.888682,-2.4747 l -10.42969,-3.1816 c -0.82495,-0.5564 -1.64965,-3.521 -2.47461,-5.834 -1.69414,-4.8099 -2.94042,-8.9476 -2.29882,-10.2539 -0.0935,-2.5611 2.11826,-4.6094 4.0664,-6.7168 2.916,-4.79274 0.32412,-7.33203 -1.76758,-10.07615 -0.48479,-4.15961 -1.35214,-8.19292 -6.01172,-10.96093 -5.79303,-2.64514 -11.83246,-2.81669 -17.85351,-3.18165 -5.35589,-4.51079 -11.50007,-7.91782 -18.03125,-10.7832 -3.72327,-1.3014 -7.77624,-2.16151 -12.9043,-1.58984 l -10.69531,2.03125 c 0.09,-3.65397 -1.26365,-6.1371 0.52929,-10.42969 1.57465,-1.83989 3.05889,-5.74524 12.64063,-3.44727 l 23.51172,13.9668 c 4.83189,2.43026 9.66224,4.78862 14.49414,5.83203 6.98989,0.46356 13.62943,-0.12319 19.44531,-3.18164 2.16231,-1.58333 4.62292,-1.82947 6.36524,-5.30273 -0.45383,-5.0957 -2.42466,-4.37402 -4.24219,-4.24219 -3.70883,-0.0209 -7.74412,1.91245 -11.66797,3.18164 -5.11074,1.92774 -9.96571,-0.24357 -14.84961,-1.94531 l -28.81445,-15.0254 c -2.97261,-1.4236 -6.32473,-1.70586 -9.7793,-1.68359 z m 4.92773,54.07617 c 2.2878,2.8713 4.13884,6.2667 8,7.25 -1.80686,1.1525 -3.26919,2.391 -3.75,3.875 -0.37931,7.8782 -2.40456,16.0847 -1.5,23 l -0.25,4.375 -7.5,-2.125 -4.375,2.25 c -1.59301,-0.2243 -1.2341,-1.1746 -0.875,-2.375 l 5.375,-9.625 c 0.96005,-1.8664 1.61756,-5.2455 2.25,-8.75 1.67027,-2.8448 3.07462,-5.8669 3.75,-9.375 l -2.375,-7.875 1.25,-0.625 z"
       id="path4270-4" />
    <path
       style="color:#000000;display:inline;overflow:visible;visibility:visible;opacity:1;fill:#ffffff;fill-opacity:1;fill-rule:evenodd;stroke:none;stroke-width:0.70769113;stroke-linecap:round;stroke-linejoin:bevel;stroke-miterlimit:4;stroke-dasharray:none;stroke-dashoffset:0;stroke-opacity:1;marker:none;enable-background:accumulate"
       d="m 87.796878,1003.1987 c -2.360369,2.8096 -5.782679,5.3612 -7.201636,4.4353 -1.984799,-1.2952 0.759368,-3.9058 1.643502,-7.5455 1.110543,-4.57182 2.46714,-5.10941 2.507396,-6.3775 1.911807,1.29708 5.730079,6.2984 3.050738,9.4877 z"
       id="path5781"
       inkscape:connector-curvature="0"
       sodipodi:nodetypes="ssscs" />
    <path
       style="fill:#ffffff;fill-opacity:1;fill-rule:evenodd;stroke:#008000;stroke-width:0.35433072;stroke-linecap:butt;stroke-linejoin:miter;stroke-miterlimit:4;stroke-dasharray:none;stroke-opacity:1"
       d="m 48.790368,990.93248 c 1.2669,-0.48234 2.533799,0.25593 3.800699,1.41421 1.677925,1.80159 3.424721,3.39657 5.568466,3.8007 3.287284,-0.77969 6.576876,-1.58938 9.63433,0.61872 4.670494,2.88736 4.180818,5.77469 5.126524,8.66209 -0.100302,7.1319 -2.844061,6.706 -5.038136,8.3969 l -9.192388,3.7123 c -2.357023,1.0061 -4.714045,0.2297 -7.071068,-0.3536 -3.81364,-1.7426 -4.341811,-3.1566 -6.010408,-4.6846 -0.701502,-1.3567 0.01094,-2.7133 2.121321,-4.7729 l 2.12132,-2.3865 c -2.951228,-1.3401 -2.767414,-2.9415 -3.005204,-4.5078 -1.203493,-3.80484 0.696516,-6.76327 1.944544,-9.89952 z"
       id="path4275"
       inkscape:connector-curvature="0"
       sodipodi:nodetypes="ccccccccccccc" />
    <path
       style="fill:#ffffff;fill-opacity:1;fill-rule:evenodd;stroke:none;stroke-width:0.35433072;stroke-linecap:butt;stroke-linejoin:miter;stroke-miterlimit:4;stroke-dasharray:none;stroke-opacity:1"
       d="m 82.5,1031.9874 c 0.340997,-0.8711 0.897351,-1.6912 1.718328,-2.0001 0.695447,-0.2618 1.371275,-0.1272 1.834723,-0.5498 0.549487,-0.501 0.371588,-1.3441 0.613581,-2.0592 0.196361,-0.5802 1.630738,-0.3087 1.833368,-0.8909 l 11.375,4.125 3.125,2.625 c 0.10068,1.1724 -0.15083,1.9775 -2,2.5 0,0 0.25,2.625 -0.5,2.625 -0.75,0 -2.375,0.125 -2.375,0.125 l -1.375,2.125 c -1.013924,0.6182 -1.700862,-0.5619 -2.5,-1.125 l -2.375,-3.25 c -1.05266,-1.1316 -1.658879,-1.1472 -2.25,-1.125 l 0.875,3.625 c -0.156304,0.4843 -0.0611,1.0944 -0.875,1.25 -0.632787,0.1094 -1.39792,-0.046 -2.5,-0.875 -2.24111,-1.4133 -3.258569,-4.5091 -4.625,-7.125 z"
       id="path4283"
       inkscape:connector-curvature="0"
       sodipodi:nodetypes="csssccccsccccccccc" />
    <path
       style="fill:#ffffff;fill-opacity:1;fill-rule:evenodd;stroke:none;stroke-width:0.35433072;stroke-linecap:butt;stroke-linejoin:miter;stroke-miterlimit:4;stroke-dasharray:none;stroke-opacity:1"
       d="m 47.125,1035.4874 c 1.916489,-0.4169 2.979404,-1.858 3.25,-4.25 0.937095,1.6604 2.835267,1.719 4.75,1.75 l 13.625,-3.125 1.75,1.25 c 1.126539,0.087 1.544431,-1.5973 3.875,1.5 -0.625,2.7896 -1.25,1.7414 -1.875,2.125 l -5.75,-0.625 -2.75,1.5 c 2.196491,1.7649 3.552345,3.1095 3.75,3.875 -0.875,1.7028 -1.75,1.2129 -2.625,1.375 l -7.125,-3 -3,1.125 -2.25,-1.75 c -2.688423,-0.5127 -4.174678,1.98 -6.25,3 z"
       id="path4281"
       inkscape:connector-curvature="0"
       sodipodi:nodetypes="cccccccccccccccc" />
    <path
       style="fill:#ffffff;fill-opacity:1;fill-rule:evenodd;stroke:none;stroke-width:0.35433072;stroke-linecap:butt;stroke-linejoin:miter;stroke-miterlimit:4;stroke-dasharray:none;stroke-opacity:1"
       d="m 40.039922,1043.8771 c 0.6096,0.5449 6.802753,-0.8941 6.098796,-3.182 2.948123,-0.5085 3.28779,-2.1349 4.77297,-3.2704 l 2.740039,0 0.972272,1.6794 c -0.582155,0.1367 -1.816352,1.2514 -2.828427,2.033 l 5.568466,0.1767 c 2.130161,1.3029 1.005735,1.8548 0.176776,2.4749 l -1.502601,0.442 1.856155,1.149 c 1.030867,1.4771 0.295514,1.6926 -0.265165,2.0329 l -2.209709,0.1768 2.032932,1.3258 c -0.01006,0.4714 0.05397,0.9429 -0.176777,1.4143 l -3.005203,-0.3536 c 1.066709,1.4012 1.142791,2.2521 0.08839,2.4749 -2.621231,-0.5474 -5.197292,-0.5075 -8.04334,-3.9775 -2.226444,-0.3129 -4.456816,-0.6233 -5.303301,-1.8562 z"
       id="path4279"
       inkscape:connector-curvature="0"
       sodipodi:nodetypes="ccccccccccccccccccc" />
    <path
       style="fill:#ffffff;fill-opacity:1;fill-rule:evenodd;stroke:none;stroke-width:0.35433072;stroke-linecap:butt;stroke-linejoin:miter;stroke-miterlimit:4;stroke-dasharray:none;stroke-opacity:1"
       d="m 11.932427,1037.1596 c 0.953953,-2.6018 6.540738,4.8629 9.811107,2.5632 l 5.922019,-1.6793 c 2.052125,0.1617 3.986223,0.2349 7.866563,1.7677 1.304583,1.4424 2.150312,2.8561 -0.265165,4.0659 0.317725,1.0158 1.358004,1.9035 0.353555,3.8007 -0.762536,0.5079 -1.646689,0.8609 -3.093592,0 0.46098,1.7296 -0.126824,2.7031 -1.06066,3.2704 -2.401516,0.2112 -2.299502,0.2067 -3.447146,0 l -5.656854,-5.8337 c -2.53047,-0.4508 -5.655698,-0.5062 -9.104,-2.5632 -2.514825,-4.247 -1.125327,-3.8798 -1.325827,-5.3917 z"
       id="path4277"
       inkscape:connector-curvature="0"
       sodipodi:nodetypes="cccccccccccc" />
    <path
       style="color:#000000;font-style:normal;font-variant:normal;font-weight:normal;font-stretch:normal;font-size:medium;line-height:normal;font-family:sans-serif;text-indent:0;text-align:start;text-decoration:none;text-decoration-line:none;text-decoration-style:solid;text-decoration-color:#000000;letter-spacing:normal;word-spacing:normal;text-transform:none;direction:ltr;block-progression:tb;writing-mode:lr-tb;baseline-shift:baseline;text-anchor:start;white-space:normal;clip-rule:nonzero;display:inline;overflow:visible;visibility:visible;opacity:1;isolation:auto;mix-blend-mode:normal;color-interpolation:sRGB;color-interpolation-filters:linearRGB;solid-color:#000000;solid-opacity:1;fill:#000000;fill-opacity:1;fill-rule:evenodd;stroke:none;stroke-width:0.14881891;stroke-linecap:butt;stroke-linejoin:miter;stroke-miterlimit:4;stroke-dasharray:none;stroke-dashoffset:0;stroke-opacity:1;color-rendering:auto;image-rendering:auto;shape-rendering:auto;text-rendering:auto;enable-background:accumulate"
       d="m 53.648798,1036.6413 c -0.883191,-0.2783 -2.417275,-0.3347 -3.269712,0.027 -0.648808,0.2753 -1.519711,1.4026 -1.519711,1.4026 0,0 -1.493805,1.3713 -1.623345,1.1392 -0.295509,-0.5294 -0.03847,-0.6158 0.282115,-1.1881 l 0.206466,-1.4884 c 0.811279,-5.5034 1.066911,-11.1134 1.885379,-16.5909 0.474688,-0.9564 1.734138,-0.8346 2.358762,-1.4989 l 0,0 c 0.121151,4.5375 -1.259019,8.0259 -2.331094,12.4055 1.494942,5.3687 8.576942,1.3126 12.454946,1.1631 3.539516,-0.8218 7.757812,-2.2714 8.499858,0.09 2.909178,-2.2412 2.883921,1.5035 1.645821,1.4937 -3.602808,-0.4699 -7.275626,-0.9179 -9.507812,2.1992 1.279713,1.5146 5.406384,2.5659 3.647756,3.8699 -0.04652,0.3794 -1.919315,0.144 -3.300587,-0.3648 -1.786615,-0.6581 -2.774007,-1.0206 -5.204493,-2.3482 -0.923592,0.7418 -1.466789,0.8878 -2.560941,0.9643 0,0 -1.056105,-1.0838 -1.663408,-1.2752 z m 4.22744,2.0659 c 1.039972,0.5516 3.193042,1.267 4.225832,2.0435 1.869745,1.4058 5.873131,1.0876 6.614353,-0.4425 0.356043,-0.7349 -1.9156,-3.2495 -3.662956,-4.487 1.837547,-0.6888 3.079641,-1.156 5.777094,-0.4253 5.266291,1.7449 6.034728,-6.1871 -0.108375,-5.3136 -4.007652,-1.885 -7.833566,0.3681 -12.104742,0.6687 -3.363618,1.1055 -5.818982,1.6759 -7.117557,0.386 1.878241,-3.082 1.836956,-10.5279 2.500637,-12.8466 2.366374,0.063 4.015667,0.7989 7.341316,-0.6647 3.826124,0.8288 9.151725,-0.5484 11.506112,-1.1699 0.76213,3.2544 1.87446,7.5826 6.07646,9.1105 -0.383696,4.3199 0.634241,6.0868 3.38707,7.5324 1.287704,1.6307 3.623031,9.8328 8.235387,7.5468 1.679291,-0.9766 0.05631,-4.3199 0.200003,-4.9455 0.459427,0.1576 0.709634,1.584 2.227234,2.7038 0.139638,2.6074 3.985233,5.3079 5.930185,1.0014 1.249889,0.5254 2.049489,0.254 2.543359,-0.3153 0.7456,-0.8594 0.79432,-2.3979 0.64353,-2.8988 0.49641,0.089 1.2025,-0.2235 1.39515,-0.6414 1.23728,-2.6839 -0.70908,-4.446 -3.13223,-5.2282 -3.699399,-2.2981 -8.137862,-2.8653 -11.926372,-4.887 -1.829909,-3.4921 -1.856223,-8.0076 -3.851215,-11.613 -0.585628,-3.6166 -0.131206,-6.5713 3.346097,-8.4167 2.937655,-3.9861 0.885221,-9.31133 -1.754647,-12.86877 0.309884,-7.24575 -7.371543,-11.77558 -13.267701,-13.07737 -3.332735,-0.73582 -6.491661,-0.95412 -9.530673,-0.53158 -0.637958,0.0887 -2.407285,-0.85722 -3.300726,-1.69557 -8.094935,-5.92191 -17.449989,-11.86278 -27.8963,-11.45314 -3.804233,0.14918 -8.74119,2.83814 -11.573014,2.33142 0.0762,-4.25422 -0.119281,-11.01688 4.808648,-12.24173 7.708008,-1.91585 14.126773,4.47512 20.325366,8.11981 7.974183,4.68872 15.453232,9.38475 24.460309,11.5156 7.53677,1.783 16.541199,-0.71161 23.059334,-3.76169 3.309225,-1.54851 5.801781,-4.92441 4.910902,-7.93406 -0.414758,-1.40118 -1.50239,-2.6864 -3.533361,-2.88395 -6.275132,-0.61037 -11.627922,4.62301 -17.756807,4.38686 -7.731614,-0.2979 -14.924625,-4.26666 -21.672083,-7.90149 -6.79418,-3.66 -13.132809,-8.53779 -20.581327,-10.74423 -4.000872,-0.63479 -8.329307,-0.74899 -12.061792,-0.006 -4.743479,0.9447 -9.080107,2.9759 -11.444629,6.65116 -4.0852742,6.34989 -3.4457438,14.58226 -3.3382688,21.9374 1.1909949,3.75919 -1.0464223,6.86563 0.5624624,11.18818 2.1979184,5.9051 5.8129294,11.19204 7.0529704,17.52045 1.991354,10.1628 1.620488,21.1723 -2.878341,30.5539 -5.4848054,4.6415 1.191472,10.504 6.085222,10.8428 4.391926,0.2405 6.449761,4.098 9.666948,6.545 1.51131,1.1495 6.518797,0.026 4.860635,-3.4919 1.683471,0.9854 2.285205,0.4101 2.818143,-0.434 1.083051,-1.7153 0.727471,-2.47 -0.101224,-3.6374 1.841068,-0.123 2.215503,-1.3344 2.122058,-2.4215 1.13558,2.539 1.595323,5.0856 2.714903,5.7664 3.241646,1.9715 3.521351,0.9437 4.419068,1.2447 0.59137,0.7269 2.119106,1.564 3.039962,2.3261 1.267847,1.0493 6.763663,2.6222 7.365444,1.0572 0.30577,-0.7952 -0.01259,-1.2339 -0.64929,-1.9386 2.008243,0.8992 3.035228,0.1741 3.197224,-0.6283 0.191899,-0.9505 0.19895,-1.4339 -1.150092,-1.8665 1.581387,0.2217 2.195373,0.3652 2.281932,-1.242 0.07508,-1.394 -1.068836,-1.7064 -2.125275,-2.1358 4.755409,-0.153 2.012676,-4.8328 -0.879213,-4.0511 l -3.053661,0.074 c 0.206866,-0.3378 1.734426,-0.5985 2.521464,-0.8414 0.948713,0.053 1.339652,-0.5056 2.229058,-0.9709 z M 12.63227,972.71141 c -0.909018,0.7809 -1.944337,1.36023 -2.866645,2.51778 -0.2821107,-6.8492 -0.7713454,-14.36535 2.689214,-20.41376 2.953396,-5.16199 10.149321,-6.55242 15.725939,-7.08756 7.789189,-0.74746 14.720571,4.83253 20.317689,8.05884 8.663958,4.99411 18.125256,10.49375 28.160526,11.65407 6.553265,0.75771 12.818643,-5.86062 18.208502,-3.71773 4.625726,1.83908 -3.035643,7.03624 -6.705192,8.31223 -6.745361,2.34553 -13.804343,3.56311 -20.783474,0.85521 -10.04154,-3.89611 -19.466017,-9.49959 -28.415587,-15.43328 -5.025191,-3.33177 -13.282582,-6.57002 -17.740627,-1.36559 -2.556082,2.98403 -2.8213,7.37653 -2.496433,12.21727 -0.209899,1.37667 -0.126265,2.5332 1.52833,2.5115 2.679018,-0.89928 5.528864,-1.45193 8.192764,-2.06204 5.170175,-1.18412 10.576882,0.0163 15.106041,1.64061 6.313004,2.29266 11.988331,5.89837 16.688873,9.3443 -3.551363,2.76709 -7.61979,3.80668 -10.466797,7.48828 -2.704855,4.04093 -3.536957,6.70112 -3.829409,10.8313 -0.429651,3.05716 0.61328,5.90586 2.472144,7.80466 -0.837126,0.7135 -1.288675,1.3937 -2.546364,2.1497 -4.485311,4.3169 2.29467,8.1517 4.799878,9.6109 -1.556514,0.6995 -2.530907,1.6782 -3.025563,3.1582 -0.785862,2.3512 -0.551376,5.5866 -0.959564,8.0922 -0.578043,3.5482 -1.047974,8.2091 -1.245103,11.0991 -0.512456,1.4205 0.24675,1.5031 2.240459,1.5654 0.730861,-1.0455 0.824136,-0.6736 1.3188,-1.1802 0.128676,0 1.016812,-1.5963 2.136714,-2.0865 0.779136,-0.3411 1.822696,-0.8595 2.393189,0.4645 0.132993,0.1993 -0.840194,1.1405 -1.874852,1.8281 -0.802963,0.5215 -2.178119,0.8778 -2.030604,0.9588 1.036124,0.5693 3.863491,0.2769 4.76369,0.3702 0.734737,0.076 3.093669,-0.1325 3.39971,0.6739 0.107257,0.8976 -0.649147,0.8082 -1.543417,0.8399 -1.221275,0.043 -2.753741,0.042 -3.192165,0.6012 1.276636,0.5793 4.989148,1.1964 4.7801,2.6046 -0.105373,0.7098 -2.964878,-0.3721 -4.642166,0.01 1.088286,1.6512 3.917992,1.8058 3.623441,2.717 -0.361038,1.1169 -3.48407,-0.2031 -5.492845,-1.2298 1.677105,0.943 3.9122,3.0942 3.169763,3.655 -0.4593,0.347 -4.384899,-0.9531 -6.019422,-2.7018 -1.294203,-1.3846 -1.642342,-1.5671 -3.212363,-2.0553 -1.094206,0.072 -1.781613,1.1101 -3.18949,-0.8674 -0.429349,-0.6031 -1.085246,-1.475 -1.356547,-2.9403 -0.509232,-2.3498 -2.1612,-2.5124 -3.244693,-3.6887 -1.005286,-1.0914 -1.469018,-3.1946 -1.373462,-5.2686 0.331604,-7.1974 1.603016,-13.2362 1.415008,-20.4026 -0.105177,-4.0091 4.1033,-4.5373 5.604422,-5.104 -4.122406,-1.3241 -7.679783,-4.1581 -9.351514,-8.2415 -1.776814,-2.22861 -2.433463,-8.41287 -5.452001,-7.82498 -1.393015,0.89799 0.727231,3.20987 0.804029,4.69938 1.376141,4.9895 4.432429,9.8853 3.052795,15.2159 -1.233638,3.0302 -3.826971,5.6242 -3.783085,9.0435 -0.354555,2.8625 -1.14048,5.9742 -2.752696,8.6321 -2.080616,3.4303 -5.008017,6.3402 -4.620448,9.4459 1.356146,1.2299 3.653446,0.3193 5.556601,-0.3221 2.841546,-1.2261 4.635919,0.3822 7.71094,0.7901 2.616341,0.068 2.091413,3.929 -0.537295,3.2776 1.914507,0.988 2.25493,1.1816 1.049334,3.0876 -1.161977,1.837 -1.873618,0.6659 -3.097139,0.5032 0.2758,0.8541 1.339996,1.1247 -0.319083,2.5411 -1.236012,1.1062 -3.167229,1.1948 -4.264121,-1.7939 -2.23253,-2.5359 -5.267578,-3.6075 -8.259154,-4.7774 -2.033942,-0.7955 -5.638781,-1.0177 -6.040832,-3.4559 -1.172021,-3.9644 4.046192,-7.102 4.87136,-11.6719 2.385454,-13.211 0.660955,-27.523 -6.236557,-39.03066 -2.6080584,-4.35124 -2.8684022,-12.4751 1.971016,-15.00956 l 2.701087,-1.41459 c -1.009043,-0.92172 -2.740897,-0.36327 -3.485649,0.27652 z m 53.597319,8.14806 c 6.217219,0.75305 16.65867,2.22031 17.404075,9.91115 -0.06228,1.84303 -0.508149,3.32481 1.14934,3.86514 1.968355,0.64167 3.45686,4.15001 2.563773,6.54744 -3.253009,8.7326 -8.242641,3.5028 -9.280502,8.3024 -0.500205,1.6971 -3.059311,3.74 -5.270094,4.8773 -2.388723,1.2289 -8.607509,2.4447 -9.538606,2.0662 2.935686,-0.7616 7.194498,-2.8584 8.631462,-4.5854 2.640199,-3.1731 1.738086,-7.4832 0.7381,-10.4045 -1.66496,-5.75205 -8.242768,-7.94334 -13.661347,-6.96137 -2.747117,0.66882 -6.645814,-3.91171 -8.53947,-4.47283 1.860049,-4.45127 8.235818,-6.11329 11.846622,-8.78811 0.963191,-0.29824 2.952762,-0.38233 3.956647,-0.35742 z m -16.575902,10.99157 c 3.602792,1.07973 7.280831,7.01355 11.726375,4.48251 5.005156,-0.8815 10.082042,3.61788 10.195066,8.84515 1.814979,4.8164 -2.425627,8.7329 -7.114703,7.3622 -1.75773,2.0435 -2.924599,2.252 -4.869427,1.5278 -1.56034,-0.2406 -4.637304,-0.6251 -6.321279,-1.2113 -2.247352,-0.7823 -4.444119,-2.4929 -6.574108,-2.6614 0.967734,-3.5819 3.059137,1.34 5.183079,-0.4925 1.020053,2.4757 4.180888,2.6911 5.515588,1.8566 0.59666,-0.373 1.691088,-1.1469 0.830519,-2.6787 0.447808,-1.4616 0.907282,-2.6253 0.138734,-3.5796 -0.133511,0.7908 -0.994312,1.8459 -1.174352,2.7085 -0.220368,1.0558 0.845619,1.3369 -0.08371,2.0978 -0.635945,0.507 -1.167623,0.6631 -1.639347,0.604 -0.528233,-0.066 -0.981288,-0.4023 -1.421392,-0.8179 -0.594213,-0.5611 -1.164815,-1.2672 -1.86496,-1.6495 -0.757698,-0.4138 -2.160244,-0.7303 -3.051152,0.4162 -1.263251,-2.2062 4.651977,-3.3055 0.439747,-4.3711 -3.761408,-1.7232 -2.186282,-9.98555 0.08532,-12.43876 z m 2.39319,4.87815 c -4.153206,0.69766 0.945191,8.86131 3.838283,5.19291 0.826343,-2.52962 -1.28716,-5.08789 -3.838283,-5.19291 z m -0.566406,1.33593 c 0.698314,-0.29702 1.912769,0.0552 2.267768,0.34883 0.933312,0.77197 1.567804,2.39285 1.096076,3.09785 -0.64677,0.9667 -2.13006,0.036 -2.533917,-0.565 -0.27812,-0.4137 -1.680515,-2.51989 -0.829927,-2.88168 z m 9.669922,1.48633 c -3.18249,0.66915 -5.860249,4.33105 -1.06045,4.77225 3.215046,1.9797 8.679345,-2.5903 3.190258,-4.3189 -0.680112,-0.2612 -1.414799,-0.36894 -2.129808,-0.45335 z m 0.279297,1.25005 c 1.554589,-0.038 2.739749,0.9897 2.827005,1.4944 0.07774,0.4498 -1.32739,1.5745 -2.320874,1.5911 -0.921569,0.016 -3.461153,-0.7394 -3.338369,-1.163 0.161369,-0.5568 1.907763,-1.9002 2.832238,-1.9225 z m -28.410157,2.125 c 1.836391,2.5897 3.519069,5.6567 5.408223,5.7415 0.07872,0.6299 -1.163321,1.3065 -2.25002,2.1022 -1.393171,5.7969 -0.636407,11.9458 -1.938177,17.7558 -0.671033,2.9949 1.620888,8.7571 -0.695921,9.7833 -0.879307,-0.2061 -1.812273,-0.6119 -2.792724,-0.9325 -0.980452,-0.3205 -2.185167,-0.7327 -3.254419,-0.5979 -1.37635,0.1734 -2.732765,1.2279 -4.232858,1.7911 -0.676326,-2.6001 3.367745,-5.3601 4.255701,-8.2405 2.499816,-3.7877 1.947451,-8.7052 4.166365,-12.4187 1.914745,-3.8019 3.804168,-7.9326 2.253398,-12.2608 -0.306158,-0.9079 -0.615478,-1.8153 -0.919568,-2.7235 z m 13.747371,8.8165 c 1.231824,0.1712 3.287802,1.5202 5.573062,2.2322 3.025638,0.9428 6.386639,1.3014 8.115356,1.5604 -1.51271,0.6693 -4.671059,1.96 -8.606767,0.7429 -1.676015,-0.5183 -5.112256,-3.2481 -5.081651,-4.5355 z m 48.815128,24.3455 c 0.339795,0.8495 2.742002,2.6365 1.253082,3.6129 -0.437524,0.287 -1.460636,0.5974 -1.981597,-0.8491 l -0.915836,-1.4227 -1.754923,-1.6035 c -2.205399,-1.6829 -3.088656,-1.3282 -3.969411,-0.8235 0.578238,2.0701 2.421197,3.8351 0.893617,4.3528 -2.550786,-0.7718 -4.970101,-5.4245 -6.503189,-7.9788 -3.238983,-2.1849 -1.571215,-3.249 -1.956947,-6.7876 -2.778901,-1.4303 -6.691336,-5.6093 -6.191482,-8.6373 0.894916,-0.8725 2.243279,-1.9688 3.58922,-2.7604 2.079394,-1.223 1.77667,-4.8003 4.553092,-4.6496 -1.162402,4.3017 1.087909,7.7221 2.237753,11.8486 0.558333,3.7177 1.691611,7.6568 6.388728,8.3353 1.303946,0.8446 6.420643,1.1633 7.76715,2.1907 0.525977,0.4013 1.411051,0.7351 2.397151,1.5951 0.67442,0.7299 1.02139,1.3509 0.19945,2.2002 -0.79987,1.3846 -4.507326,-3.8558 -5.513466,-2.555 -0.468609,0.835 3.783909,2.5243 3.992416,3.7841 0.97875,1.3959 -0.736815,2.5713 -2.075678,0.8946 -1.443096,-1.8073 -3.856747,-3.5281 -4.628078,-3.1955 -0.38674,0.4953 2.218948,2.4487 2.218948,2.4487 z"
       id="path4168"
       inkscape:connector-curvature="0"
       sodipodi:nodetypes="sscccccccccccsccccssssccccccccccccccscscccccsscscsssssssscsscssccscsccscsscscscccccscssssssssscccsccccccsscccscccscscscscsscsccscccccccsccccscccscsssssccscsccccccccccsccsccccccccssscccscscssscsccscssscccsccscccccccccccccccccccscccsccccscccc" />
    <path
       style="fill:#000000;fill-opacity:1;fill-rule:evenodd;stroke:none;stroke-width:0.29055119;stroke-linecap:butt;stroke-linejoin:miter;stroke-miterlimit:4;stroke-dasharray:none;stroke-opacity:1"
       d="m 85.707103,998.13186 c -1.870191,-1.49439 -4.468377,0.15185 -4.110943,0.5983 0,0 2.402261,-0.6256 3.225186,0.0665 1.303529,1.09634 0.5243,2.92304 -0.189893,3.89014 -0.404076,0.5472 -1.528151,0.8563 -2.305972,0.3356 -1.093094,-0.7318 0.01371,-1.9941 -0.692392,-2.1973 -0.660379,-0.1901 -1.349817,1.3734 -1.488559,2.0464 -0.144846,0.7027 0.329644,1.6354 0.992514,1.9099 1.3515,0.5596 3.27751,-0.1755 4.18404,-1.3235 1.103112,-1.3969 2.097091,-3.95882 0.386019,-5.32607 z"
       id="path4264"
       inkscape:connector-curvature="0"
       sodipodi:nodetypes="scssssssss" />
    <ellipse
       style="color:#000000;display:inline;overflow:visible;visibility:visible;opacity:1;fill:#000000;fill-opacity:1;fill-rule:evenodd;stroke:none;stroke-width:0.29055119;stroke-linecap:round;stroke-linejoin:bevel;stroke-miterlimit:4;stroke-dasharray:none;stroke-dashoffset:0;stroke-opacity:1;marker:none;enable-background:accumulate"
       id="path4266"
       cx="251.8006"
       cy="969.07568"
       rx="1.281631"
       ry="1.7898641"
       transform="matrix(0.97986703,0.1996512,-0.1996512,0.97986703,0,0)" />
    <ellipse
       style="color:#000000;display:inline;overflow:visible;visibility:visible;opacity:1;fill:#000000;fill-opacity:1;fill-rule:evenodd;stroke:none;stroke-width:0.29055119;stroke-linecap:round;stroke-linejoin:bevel;stroke-miterlimit:4;stroke-dasharray:none;stroke-dashoffset:0;stroke-opacity:1;marker:none;enable-background:accumulate"
       id="path4268"
       cx="326.49625"
       cy="949.6889"
       rx="1.3258252"
       ry="1.7456698"
       transform="matrix(0.9638259,0.2665326,-0.2665326,0.9638259,0,0)" />
  </g>
</svg>
