<?xml version="1.0" encoding="utf-8"?>
<!-- Generator: Adobe Illustrator 24.2.0, SVG Export Plug-In . SVG Version: 6.00 Build 0)  -->
<svg version="1.1" id="Layer_1" xmlns="http://www.w3.org/2000/svg" xmlns:xlink="http://www.w3.org/1999/xlink" x="0px" y="0px"
	 viewBox="0 0 1086.9 774" style="enable-background:new 0 0 1086.9 774;" xml:space="preserve">
<style type="text/css">
	.st0{fill:#010101;}
</style>
<g>
	<path class="st0" d="M512.3,683.3c-6.2,2.6-11.9,4.6-17.3,7.5c-3.9,2.1-7.5,4.6-11.1,7.2c-4.9,3.6-9,2.1-10.6-3.9
		c-1.5-5.9,0.5-11.6,1.5-17.3c0.3-2.1,0.8-3.9,1.5-6.4c-2.8,0.5-4.9,1-7.2,1.3c-5.7,1-9-1.8-8.8-7.5c0.5-8.2,4.1-15.5,10.1-20.9
		c4.1-3.9,9-6.7,13.4-10.3c10.1-8,19.8-16,29.9-24c0.3-0.3,0.5-0.8,1.3-1.5c-9.3-3.1-17.8-6.7-26.8-8.8c-18.8-4.6-37.9-8.5-57-12.4
		c-18.8-3.9-37.6-5.7-56.7-7c-8.8-0.5-17.8-1.3-26.5-1c-5.9,0.3-11.9,1.8-17.5,3.4c-7.5,2.1-12.1,8-16,13.9
		c-10.3,15.7-18,32.7-23.2,51c-1,3.9-3.1,5.9-5.7,5.2c-3.1-1-6.4-2.3-8-5.7c-1.3-2.6-2.6-5.2-4.1-8.5c-1.3,2.8-2.6,5.4-3.6,7.7
		c-1,2.3-2.1,4.9-3.4,7.2c-2.8,5.2-8.5,5.7-11.3,0.8c-3.1-4.9-4.9-10.3-7.2-15.5c-0.8-1.8-1-3.6-1.8-5.7c-0.5,0-1,0.3-1.3,0.3
		c-4.9,1.8-8,0.5-9.5-4.4c-2.6-7.2-2.3-14.7-0.8-22.2c2.6-11.3,6.7-22.2,11.1-33c2.3-5.7,4.6-11.6,5.4-17.5
		c1.3-9.5-3.1-17-10.6-23.5c-1,2.1-2.1,3.9-3.1,5.7c-8.5,17-20.9,30.7-34.3,44.1c-6.7,6.7-14.7,8.5-23.5,9.3
		c-13.4,1-26.5,2.3-40,3.6c-7.7,0.8-15.2,0-22.7-2.6c-3.4-1.3-3.9-4.4-5.2-7c-0.5-1.5-1.3-2.1-2.8-2.3c-5.9-1-11.9-1.8-17.5-3.1
		c-4.1-1-5.7-4.4-3.4-8c2.6-3.9,6.2-7.2,9.5-11.1c-0.5-0.8-1.5-2.1-2.3-3.6c-1.8-3.6-1.5-5.4,1.5-8.2c6.4-5.7,14.2-7.7,22.2-9.3
		c7.7-1.3,15.7-2.3,23.5-3.1c11.1-1.3,16.5-6.7,18.6-19.6c1.8-11.3,0.3-22.4-2.1-33.8c-0.8-3.9-2.8-6.2-5.2-8.5
		c-38.9-39.4-65.5-85.8-78.1-140.2c-3.6-15.5-6.2-31.2-6.7-46.9c-0.5-14.9-0.3-29.9,0-44.8c0.3-7.2,1.3-14.4,2.1-21.4
		c0.3-1.3,0.3-2.6,0.3-3.9c-3.6-0.5-6.7-1-10.1-1.8c-8-1.5-14.7-4.9-20.9-10.1C22,188.7,10.7,168.1,9.2,142.8
		C6.8,106,22,77.6,52.7,57.3c9.8-6.4,20.9-8.8,32.2-10.1c11.1-1.3,21.9-1.3,32.7,2.6c13.9,4.9,23.2,14.9,30.4,27.3
		c1.8,3.4,3.6,6.7,5.4,10.3c38.7-21.9,80.7-24,124-19.6c0.5-2.8,0.5-5.4,1-8c2.6-12.1,8.2-22.7,17.8-30.9
		c14.9-12.6,32.5-18.6,51.5-21.1c18.8-2.3,35.3,2.8,49.5,15.5c7.2,6.4,12.6,14.4,16.2,23.5c9.8,25,12.6,50.8,3.9,76.8
		c-6.2,18.6-16.8,33.5-35.8,41c-0.3,0-0.5,0.3-1,0.8c1,2.3,2.3,4.4,3.6,7c2.1-1.5,4.1-2.8,5.9-4.4c30.7-23.7,65.5-37.1,103.4-44.1
		c26.5-4.9,53.1-5.4,80.2-4.4c24.7,1,49,4.1,72.2,12.6c41.2,15.2,79.4,35.6,110.6,67.3c28.6,29.1,49,63.4,63.1,101.6
		c10.3,28.1,17.8,57,20.6,86.9c1.3,12.6,2.3,25.5,2.8,38.1c0.3,5.7-0.5,11.3-0.8,17c0,1.5-0.3,3.4-0.3,5.2c1.3,0,2.1,0.3,2.8,0.3
		c16.5,0.3,33.2-0.3,49.7,1.3c44.1,4.4,86.3,14.4,124.5,38.1c13.4,8.5,25.8,18,35.3,31.2c8.5,11.6,12.6,25,13.4,39.2
		c1.8,24.7-2.3,48.5-12.9,70.6c-9.5,19.6-22.7,36.3-38.4,51.3c-28.1,26.5-60.3,46.1-95.9,61.3c-22.9,9.8-46.7,15.2-71.1,19.3
		c-22.7,3.6-45.6,6.2-68.6,6.4c-18.6,0.3-36.9-1.3-55.2-3.6c-35.6-4.9-71.1-9.8-106.7-14.7c-30.2-4.1-60.6-5.9-91.2-6.7
		c-13.7-0.5-27.3-2.3-41-2.8c-18.8-0.8-37.4-1.3-56.2-1c-15.5,0.3-31.2,1.3-46.7,2.3c-23.5,1.5-46.7,4.1-69.6,7.5
		c-12.4,1.8-24.7,2.8-37.1,4.1c-6.7,0.8-13.4,1.5-20.4,2.1c-2.6,0.3-4.9,0.5-7.5,0.3c-1.8-0.3-3.6-0.8-5.2-1.8
		c-2.8-2.1-2.6-4.1,0.5-6.2c18.8-12.6,40-18.6,61.6-24c25.8-6.2,51.8-10.3,77.8-13.4c33-3.9,66-5.4,99-5.4c22.2,0,44.3,0.3,66.5,0.8
		c19.6,0.5,38.9,0.8,58.5,1.8c22.2,1.3,44.3,3.1,66.5,5.4c27.8,2.8,55.9,4.1,84,2.6c39.2-2.1,77.3-10.1,114.2-24.2
		c25.8-9.8,50.8-21.4,73.7-37.1c16-10.8,29.4-24.5,37.4-42.3c9-19.8,7-38.7-7-55.9c-6.4-8-15.7-12.6-25-17
		c-13.9-6.4-28.6-9.8-43.6-12.4c-28.4-4.9-57.2-5.4-86.1-4.9c-18.8,0.3-37.4,3.1-55.4,7.7c-2.6,0.8-4.6,1.8-6.4,3.9
		c-11.1,12.9-24.5,22.9-38.1,32.7c-21.9,16-46.1,27.3-70.4,38.7c-27.3,12.6-52.1,28.9-74,49.5c-16,14.9-33,29.1-49.2,43.6
		c-1,1-2.3,2.1-3.6,2.8c-4.9,3.4-9.8,1.5-11.1-4.4C513.6,691.6,513.1,688,512.3,683.3z M276.2,741.1c0,0.3,0.3,0.8,0.3,1
		c12.4-1.5,25-2.8,37.4-4.4c21.9-2.3,43.8-4.9,65.7-7.2c11.6-1,22.9-1.8,34.5-2.1c23.7-0.3,47.4-0.3,71.1,0.5
		c16.8,0.5,33.5,2.8,50.3,3.1c27.8,0.5,55.7,2.6,83.3,6.4c34,4.6,68,9.3,101.8,13.9c18,2.6,36.1,4.4,54.1,4.6
		c23.7,0,47.2-2.6,70.6-5.9c34.3-4.9,66.5-14.9,97.2-31.2c28.9-15.5,55.4-33.8,77.6-58.3c25.3-27.8,39.4-59.8,38.1-97.9
		c-0.5-17.8-5.4-34-18.3-46.9c-5.2-5.2-10.8-10.3-16.8-14.7c-22.9-16.8-48.7-27.1-76-34c-18.3-4.6-36.9-8.5-55.9-9.5
		c-13.1-0.8-26.5-0.5-40-1c-5.4-0.3-10.8-0.5-16.2-1c-4.1-0.5-4.1-1-3.9-5.2c0.8-8,1.8-16,1.8-24c-0.3-11.6-1.3-22.9-2.1-34.5
		c-2.6-29.9-9.5-58.8-19.8-87.1c-11.9-32.5-28.4-62.4-51-88.7c-31.4-36.3-71.7-58.8-115.7-75.5c-21.1-8-43.3-11.3-66-12.4
		c-21.4-1-42.5-1.3-63.9,1.3c-44.1,5.4-85.1,18.8-120.6,46.9c-2.6,2.1-5.7,3.9-8.5,5.4c-3.1,1.5-6.2,0.8-7.7-2.3
		c-3.4-7-6.7-13.9-9.8-20.9c-0.3-0.8-0.3-1.8-0.5-2.6c1.5-0.3,2.8-0.5,4.4-0.8c8.8-1,16.2-4.9,21.9-11.6c4.4-4.9,8.2-10.3,11.3-16.2
		c4.9-9.5,7-20.1,7.7-30.7c1-13.4-1.3-26.3-5.2-38.9c-2.3-8.2-5.9-16-11.6-22.7c-12.6-15.2-28.6-21.4-48.2-18.6
		c-14.9,2.1-28.9,6.4-41.2,15.5c-9.3,6.7-15.7,15.5-18,26.8c-1,4.9-1.3,10.3-1.5,15.2c-0.3,3.4-1.3,4.4-4.6,3.9
		c-2.1-0.3-4.1-1-6.4-1.3c-21.9-2.1-43.8-3.1-65.7,0.5c-21.4,3.6-41.5,9.5-59.5,22.2c-3.4,2.3-4.6,1.5-5.7-2.6
		c-3.9-16.8-12.9-29.9-28.9-37.6c-8.2-3.9-17.3-4.6-26.3-3.6c-11.3,1.3-22.4,3.1-32.2,9C25.1,85.1,7.9,127.9,25.1,167.6
		c10.1,22.7,26,38.7,52.8,39.7c3.1,0,4.6,2.1,4.4,5.4c-1,15.2-2.8,30.7-3.1,45.9c-0.8,25.8,1.3,51.5,8,76.6
		c6.2,22.4,12.9,44.6,24.5,65c17.3,30.2,37.4,58.3,61.9,83.3c2.6,2.6,5.2,5.4,7.7,8.2c-3.1,1.5-3.1,1.5-9.5-1.8c0,0.8,0,1.5,0,2.3
		c1.5,9,1.3,18-0.3,27.1c-2.8,15.7-10.3,24-26.3,25.8c-12.1,1.5-24.2,3.1-36.1,6.4c-1.5,0.5-3.1,1-4.6,1.5c0,0.5,0,0.8,0.3,1.3
		c3.6,0.8,7.2,1.5,11.3,2.3c-4.4,3.4-8.2,6.4-12.1,9.5c-1.5,1.3-3.1,2.6-1.8,5.7c9.5,0.3,19.3,0.8,29.1,1c0.3,4.6-4.6,6.2-7.2,10.1
		c2.1,0.3,3.6,1,5.4,0.8c6.7-0.3,13.7-0.8,20.4-1.3c10.6-0.8,20.9-1.8,31.4-2.6c5.7-0.5,11.1-1.8,15.5-6.2
		c10.3-9.8,19.8-20.4,27.6-32.5c2.8-4.6,5.2-9.5,8-14.4c-1.3-0.5-1.8-1-2.6-1.3c-8.8-3.1-17-7.5-24.7-12.6c-3.1-2.1-3.6-3.9-2.1-7
		c0.8,0.5,1.8,0.8,2.6,1.3c12.6,6.7,25.5,13.7,39.4,17.3c5.9,1.5,9.8,5.2,12.1,10.3c1.8,3.6,3.4,7.7,4.1,11.6
		c1,5.9,0.5,11.6-2.8,17.3c-8.8,14.2-15.2,29.1-16.5,46.1c-0.3,4.1-1.5,8.5,2.1,12.4c0.5-0.3,1-0.5,1.3-1c3.6-2.8,5.2-2.3,6.4,2.1
		c1.5,5.7,3.4,11.3,5.2,17c0.5,1.3,1.5,2.6,2.8,4.6c1-2.3,1.5-3.9,2.3-5.4c2.3-4.6,4.6-9.3,7-13.7c1.3-2.3,3.4-4.4,6.2-3.6
		c3.1,0.8,5.7,2.6,6.4,5.9c0.5,2.3,1.5,4.6,2.6,7.5c2.8-7,5.2-13.4,8-19.6c6.4-13.9,13.1-27.3,24.7-38.1
		c8.2-7.5,17.3-11.1,27.8-11.3c7-0.3,13.9,0.8,20.9,1c20.1,0.8,40,3.9,59.5,8c31.4,7,62.9,14.9,94.3,22.7c7.7,1.8,15.2,4.6,22.7,7
		c-1.5,0.5-3.1,0.3-4.6,0c-1.5-0.3-3.4-0.8-4.9-0.5c-1.3,0-2.8,0.5-3.6,1.5c-12.1,13.1-25.5,24.7-40.5,34.5c-3.4,2.1-6.4,4.4-9.5,7
		c-3.6,3.1-6.2,7.2-8,12.4c2.8-0.5,4.9-0.8,7.2-1.3c7.2-1.3,10.6,2.1,9,9c-1,4.6-2.1,9.3-3.1,13.9c-0.3,0.8-0.3,1.5-0.3,3.1
		c8.5-5.4,17.3-9.3,26.5-11.6c7-1.8,10.3,0.3,11.9,7.2c0.5,2.1,1,4.4,1.5,6.7c1-1,1.8-1.5,2.6-2.1c17.3-15.5,34.8-30.7,52.1-46.1
		c19.6-17.8,41.8-31.7,65.7-43c24.5-11.6,49.2-22.9,71.4-38.7c14.2-10.3,28.4-20.4,39.7-34c0.5-0.8,1.5-1.3,2.6-1.5
		c23.7-7.2,47.7-12.6,72.7-12.1c14.4,0.5,29.1,0.5,43.6,1.3c19.1,1,37.6,3.6,56.2,8c17.3,4.4,33.8,10.6,47.7,21.9
		c16.8,13.7,23.2,32.2,20.9,53.4c-1.5,14.4-8.5,27.1-17.3,38.4c-11.6,15.5-27.1,26.8-43.6,36.3c-58.3,33.5-121.1,52.1-188.4,54.4
		c-24.7,0.8-49.7-0.5-74.5-3.1c-20.6-2.1-41.2-4.1-61.9-5.2c-25-1.3-50-2.1-75-2.6c-20.4-0.5-40.7-0.3-61.1-0.3
		c-34.5,0.3-69.1,2.1-103.6,6.7c-24.5,3.4-49.2,7.2-73.2,13.7C292.2,736.2,284.2,738.5,276.2,741.1z"/>
	<path class="st0" d="M273.6,227.4c-1.8-0.3-4.1-0.3-6.7-0.8c-14.2-2.6-20.6-12.6-18-26.8c1.5-9.3,7.5-15.2,14.7-20.1
		c10.3-7,21.7-7.7,33-3.4c14.4,5.4,19.3,23.7,9.8,35.6C298.4,222,287.3,227.1,273.6,227.4z M275.2,217.8c9.5-0.8,17.3-4.6,23.2-11.9
		c6.4-7.7,2.6-18.8-7.2-20.9c-2.3-0.5-4.4-0.8-6.7-1.3c-13.9-1.8-24.5,6.4-26.3,20.4c-0.8,5.4,1.8,9.8,7,11.6
		C268.5,217.1,271.8,217.3,275.2,217.8z"/>
	<path class="st0" d="M189.8,154.4c-0.8,5.2-1.3,10.1-2.6,14.9c-0.5,2.6-1.8,5.2-3.4,7.5c-3.9,5.7-10.8,5.2-13.7-1
		c-1.3-2.8-2.1-5.9-2.6-9.3c-0.8-9.3,0.5-18,4.6-26.3c1.5-3.1,3.6-5.9,7.7-5.4c3.9,0.5,6.4,3.1,7.2,6.7
		C188.6,145.9,189.1,150.3,189.8,154.4z"/>
	<path class="st0" d="M302,149c0-8,1.8-15.7,4.4-23.5c0.5-1.5,2.6-3.1,4.4-3.9c2.1-0.8,6.2,1.8,7,4.6c1.3,4.4,2.6,9,3.1,13.7
		c0.8,6.7,0.3,13.4-2.3,19.8c-1.5,4.4-4.1,6.4-7.7,6.4s-6.4-2.6-7.5-7C302.7,156,302.5,152.6,302,149z"/>
</g>
</svg>
