<?xml version="1.0" encoding="UTF-8" standalone="no"?>
<!-- Created with Inkscape (http://www.inkscape.org/) -->

<svg
   xmlns:dc="http://purl.org/dc/elements/1.1/"
   xmlns:cc="http://creativecommons.org/ns#"
   xmlns:rdf="http://www.w3.org/1999/02/22-rdf-syntax-ns#"
   xmlns:svg="http://www.w3.org/2000/svg"
   xmlns="http://www.w3.org/2000/svg"
   xmlns:sodipodi="http://sodipodi.sourceforge.net/DTD/sodipodi-0.dtd"
   xmlns:inkscape="http://www.inkscape.org/namespaces/inkscape"
   width="600"
   height="500"
   id="svg2"
   version="1.1"
   inkscape:version="0.48.2 r9819"
   sodipodi:docname="pig-remix-1.svg">
  <defs
     id="defs4" />
  <sodipodi:namedview
     id="base"
     pagecolor="#ffffff"
     bordercolor="#666666"
     borderopacity="1.0"
     inkscape:pageopacity="0.0"
     inkscape:pageshadow="2"
     inkscape:zoom="0.61007592"
     inkscape:cx="94.043863"
     inkscape:cy="241.87227"
     inkscape:document-units="px"
     inkscape:current-layer="g3869"
     showgrid="false"
     borderlayer="true"
     inkscape:showpageshadow="false"
     inkscape:window-width="1464"
     inkscape:window-height="1001"
     inkscape:window-x="204"
     inkscape:window-y="-17"
     inkscape:window-maximized="0"
     showguides="true"
     inkscape:guide-bbox="true" />
  <metadata
     id="metadata7">
    <rdf:RDF>
      <cc:Work
         rdf:about="">
        <dc:format>image/svg+xml</dc:format>
        <dc:type
           rdf:resource="http://purl.org/dc/dcmitype/StillImage" />
        <dc:title></dc:title>
      </cc:Work>
    </rdf:RDF>
  </metadata>
  <g
     inkscape:label="Layer 1"
     inkscape:groupmode="layer"
     id="layer1"
     transform="translate(0,-552.36218)">
    <g
       id="g3012"
       transform="matrix(0.91091219,0,0,0.86575983,187.48525,-30.966996)">
      <g
         id="g3000"
         transform="matrix(1.0107352,0,0,0.99351388,15.165897,139.24098)" />
      <g
         id="g3822">
        <g
           id="g3853"
           transform="matrix(0.3488065,0,0,0.32859306,196.62369,640.15982)">
          <g
             transform="matrix(6.0781748,0,0,5.718659,-1636.8207,-2041.7556)"
             id="g3840">
            <g
               id="g3869"
               transform="matrix(0.99139237,0,0,0.9750392,8.1082953,24.565444)">
              <g
                 id="g3811"
                 transform="matrix(1.1867116,0,0,1.0364878,81.568557,12.674442)">
                <g
                   id="g3797">
                  <g
                     id="g3784">
                    <g
                       transform="matrix(0.90060137,0,0,1.0683842,301.13993,-414.22146)"
                       id="g3882">
                      <g
                         transform="translate(-426.69991,323.04538)"
                         id="g3776">
                        <path
                           id="path3042"
                           d="m 186.203,490.0002 c -4.34648,0.20188 -6.86883,3.14088 -2.38955,9.06521 14.40645,1.45841 2.21082,-11.38111 13.81904,-2.26071 l 2.90775,2.77552 c -2.13606,-6.50852 -9.41123,-9.80881 -14.33724,-9.58002 z"
                           style="fill:#000000;fill-opacity:1;fill-rule:nonzero;stroke:#0a0000;stroke-width:0;stroke-linecap:round;stroke-linejoin:round;stroke-miterlimit:4;stroke-opacity:1;stroke-dashoffset:0"
                           inkscape:connector-curvature="0" />
                        <path
                           id="path3040"
                           d="m 163.68138,491.29566 c -4.05929,0.15684 -9.53132,3.10221 -11.2061,8.60344 l 2.41321,-2.49258 c 9.67021,-8.19068 -0.49009,3.36009 11.5112,2.05034 3.98022,-5.67509 1.34098,-8.31801 -2.71831,-8.1612 z"
                           style="fill:#000000;fill-opacity:1;fill-rule:nonzero;stroke:#0a0000;stroke-width:0;stroke-linecap:round;stroke-linejoin:round;stroke-miterlimit:4;stroke-opacity:1;stroke-dashoffset:0"
                           inkscape:connector-curvature="0" />
                      </g>
                      <g
                         transform="translate(-419.98022,323.04538)"
                         id="g3780">
                        <path
                           id="path3034"
                           d="m 144.4817,536.52225 c -2.6903,0 -4.86407,3.58948 -4.86407,8.00461 0,4.41513 2.17377,7.9648 4.86407,7.9648 2.69034,0 4.86411,-3.54967 4.86411,-7.9648 0,-4.41513 -2.17377,-8.00461 -4.86411,-8.00461 z"
                           style="fill:#000000;fill-opacity:1;fill-rule:nonzero;stroke:#0a0000;stroke-width:0;stroke-linecap:round;stroke-linejoin:round;stroke-miterlimit:4;stroke-opacity:1;stroke-dashoffset:0"
                           inkscape:connector-curvature="0" />
                        <path
                           inkscape:connector-curvature="0"
                           style="fill:#000000;fill-opacity:1;fill-rule:nonzero;stroke:#0a0000;stroke-width:0;stroke-linecap:round;stroke-linejoin:round;stroke-miterlimit:4;stroke-opacity:1;stroke-dashoffset:0"
                           d="m 159.85402,536.52225 c -2.6903,0 -4.86407,3.58948 -4.86407,8.00461 0,4.41513 2.17377,7.9648 4.86407,7.9648 2.69034,0 4.86411,-3.54967 4.86411,-7.9648 0,-4.41513 -2.17377,-8.00461 -4.86411,-8.00461 z"
                           id="path3867" />
                      </g>
                    </g>
                    <path
                       sodipodi:nodetypes="cccccccccccccccccccccccsccccccccccccccccc"
                       inkscape:connector-curvature="0"
                       id="path3000"
                       d="m 32.048516,409.31441 c 13.782951,-1.18044 22.775602,15.88915 31.698979,23.71571 l 6.33297,-0.80462 c 10.650975,-6.56436 22.322702,-7.07852 33.998045,-6.03466 l 3.99976,2.41386 c 0,0 1.99989,-0.4023 3.33315,-2.01154 6.1435,-18.08824 -0.86491,-37.66707 2.33319,-57.93272 -1.11658,-13.00016 9.07888,-1.43859 14.66583,2.01155 13.66845,17.2126 34.94147,38.07352 20.33216,62.76044 l -18.99891,9.25315 -2.99982,2.01154 1.33325,4.82773 c 32.51179,42.78444 -7.01436,121.29892 -56.330085,88.10601 9.887514,-6.59806 34.391685,-16.15475 24.33193,-37.41488 7.309635,24.0861 -10.861265,28.76103 -28.3317,37.01257 -18.927594,1.97633 -43.326804,0.83033 -43.446632,-22.40592 3.103511,-12.12187 3.492192,-12.49579 12.115112,-19.43438 l 3.33314,-0.40231 6.33297,-38.62181 -1.66657,-4.42541 -5.99966,1.20693 c -4.795342,3.52127 -9.709287,6.32024 -14.99913,8.44852 l -4.99971,-2.41386 c -2.824249,-6.95684 -8.110644,-11.29626 -10.0370764,-15.95344 -16.7727921,-40.54844 -9.22290931,-0.83719 11.0370164,21.18348 0,0 2.99983,2.81617 4.99971,1.20692 6.647604,-2.15125 11.817359,-9.65544 19.99885,-9.65544 -2.011386,11.69448 -4.108016,23.36372 -6.33297,35.00101 l -3.99977,4.0231 c -24.1145388,33.10301 12.139912,47.64805 34.66467,45.05878 50.501625,35.60112 91.750735,-44.82407 63.662985,-88.50831 l -2.99982,-4.82773 13.33256,-5.63235 10.99936,-6.43697 c 15.21681,-32.76169 -17.07142,-70.60424 -43.33083,-73.62282 -6.86899,20.82143 5.24154,43.9851 -1.66656,63.16275 -14.835151,-3.41529 -27.082027,-0.84517 -40.997645,5.23004 l -3.33314,0.80462 C 54.176048,418.1579 46.123458,412.14475 33.749235,404.86838 23.314112,409.29657 -10.225649,428.0916 1.4963284,426.88859 10.862552,423.24863 20.3047,410.49567 32.048516,409.31441 z"
                       style="fill:#000000;fill-opacity:1;stroke:#000000;stroke-width:0.5173915px;stroke-linecap:butt;stroke-linejoin:miter;stroke-opacity:1" />
                    <path
                       sodipodi:nodetypes="ccccccccccccccssccc"
                       inkscape:connector-curvature="0"
                       id="path3002"
                       d="m 100.27057,547.69987 -5.666333,12.06932 -4.99971,19.71322 -3.99977,17.70166 -5.99966,-7.24159 -9.99942,3.6208 c 1.958109,-11.046 -1.610714,-24.03606 -0.66663,-34.59871 0.33332,-2.81617 4.33309,-16.49473 4.33309,-16.49473 l 24.665228,5.23003 -1.33325,2.41387 -21.665408,-5.23004 -3.99977,12.87394 c 3.696363,3.11317 -1.09091,32.46334 -0.33332,32.58715 2.3332,0 9.66611,-3.62079 9.66611,-3.62079 0,0 3.99977,8.0462 5.33303,3.62079 1.33325,-4.42541 6.99959,-30.5756 6.99959,-32.18484 0,-1.60924 3.333138,-9.65546 3.333138,-9.65546 l 1.66657,-1.60924 z"
                       style="fill:#000000;fill-opacity:1;stroke:#000000;stroke-width:0.5173915px;stroke-linecap:butt;stroke-linejoin:miter;stroke-opacity:1" />
                    <path
                       sodipodi:nodetypes="ccccccccccsscscccsccccccscssccccccssscsccccscssccccccccccc"
                       inkscape:connector-curvature="0"
                       id="path3004"
                       d="m 155.35002,417.61722 c 28.12859,-0.15906 44.17127,6.30863 67.32944,24.94325 l 9.21329,-6.84958 6.40126,0.88705 -9.94821,13.60643 c 18.43418,31.40908 11.9515,63.79527 -7.33291,91.7268 2.49937,14.4293 0.13505,28.06981 -1.99988,42.24261 l -0.99994,11.26469 -1.66657,2.41386 -8.33285,-4.0231 c 0,0 -9.3328,12.87394 -9.3328,8.85083 0,-4.0231 -2.3332,-25.34556 -2.3332,-26.9548 0,-1.60924 -2.99982,-14.88549 -2.99982,-14.88549 0,0 1.33325,-2.81617 -0.33332,-2.01155 -1.66657,0.80462 -8.66616,4.0231 -8.66616,4.0231 l -8.33285,32.98947 -6.33297,-7.2416 c 0,0 -8.99948,6.03466 -8.66617,2.81618 0.33331,-3.21848 -1.66657,-25.34557 -1.66657,-25.34557 l -5.99965,-0.80462 -13.33256,25.34557 -14.99914,12.06931 -6.99959,12.47163 -5.99966,-9.25314 c 0,0 -13.332557,1.60924 -11.33267,-0.80462 1.99988,-2.41387 21.33209,-49.8865 21.33209,-49.8865 -18.57588,-11.26158 -15.48886,-5.87313 -14.45127,-9.56736 0.33156,-1.18048 0.4139,-0.332 2.96642,-1.71345 3.53104,-1.91106 -1.27193,0.73799 11.86334,7.737 l 5.95451,2.73918 -9.33279,17.29935 c -3.4187,7.22207 -6.01427,14.87579 -8.66617,22.52939 l -5.66634,8.85083 7.99954,-1.20693 c 0,0 3.99977,8.44852 5.33303,7.6439 1.33325,-0.80462 5.66633,-10.46007 8.66616,-11.66701 2.99983,-1.20692 12.33262,-11.26469 13.66588,-13.67855 1.33325,-2.41387 9.33279,-18.9086 9.33279,-18.9086 0,0 0.99994,-4.42541 2.66652,-4.42541 1.66657,0 10.33273,2.81617 10.33273,2.81617 l 0.66663,13.67856 -0.33332,12.06931 6.33297,-5.63234 c 0,0 4.6664,8.44852 5.66634,6.43697 0.99995,-2.01155 5.99965,-30.5756 5.99965,-30.5756 0,0 14.33251,-6.43697 13.99919,-4.82773 -0.33331,1.60924 3.66646,43.85185 4.99972,42.64492 1.33325,-1.20694 7.66622,-6.83928 7.66622,-6.83928 l 7.66623,3.62079 c 3.83645,-17.73129 4.02197,-30.49088 2.99982,-48.27726 l -0.99994,-7.6439 c 24.35394,-24.22928 21.40179,-56.01832 6.99959,-85.28984 l 0.33332,-4.82772 9.93113,-8.83022 -2.68358,-1.20693 -9.91406,7.62329 c -19.85559,-19.63722 -41.92336,-23.73632 -66.99613,-23.73632 z"
                       style="fill:#000000;fill-opacity:1;stroke:#000000;stroke-width:0.5173915px;stroke-linecap:butt;stroke-linejoin:miter;stroke-opacity:1" />
                    <path
                       sodipodi:nodetypes="ccccc"
                       inkscape:connector-curvature="0"
                       id="path3006"
                       d="m 250.60903,421.05408 c -9.09774,15.48582 -12.6117,14.92957 -23.32346,13.68885 -18.79635,-19.77748 11.35369,-39.09439 12.00786,-6.09647 l -4.89729,0.0824 c -9.06914,-34.80208 -11.39599,22.60721 16.21289,-7.67481 z"
                       style="fill:#000000;fill-opacity:1;stroke:#000000;stroke-width:0.5173915px;stroke-linecap:butt;stroke-linejoin:miter;stroke-opacity:1" />
                  </g>
                </g>
              </g>
            </g>
          </g>
        </g>
      </g>
    </g>
  </g>
</svg>
