<?xml version="1.0" encoding="utf-8"?>

<!DOCTYPE svg PUBLIC "-//W3C//DTD SVG 1.1//EN" "http://www.w3.org/Graphics/SVG/1.1/DTD/svg11.dtd">
<svg version="1.1" id="Layer_1" xmlns="http://www.w3.org/2000/svg" xmlns:xlink="http://www.w3.org/1999/xlink" x="0px" y="0px"
	 viewBox="0 0 1364.94 1695.133" style="enable-background:new 0 0 1364.94 1695.133;" xml:space="preserve">
<style type="text/css">
	.st0{enable-background:new    ;}
</style>
<g>
	<path class="st0" d="M622.795,49.956c18.362-3.824,46.793-3.503,66.893,4.242c13.494,5.025,16.077,9.747,24.276,19.464
		c0.73,3.2,3.312,5.421,4.603,8.349c16.129,31.501-1.673,34.393,6.705,57.365c1.452,3.954,5.967,4.475,9.215,6.247
		c-2.39,2.486-5.478,1.139-8.365,0.722c-9.831,11.437-23.609,13.169-38.198,8.581c-14.644-6.015-24.701-18.678-35.56-29.585
		c0.746,9.856,2.542,20.699-2.462,29.769c-7.484,5.402-33.144,14.459-41.606,28.278c-2.743,4.491-4.114,9.993-8.228,13.529
		c-1.772,1.395-2.775-0.802-2.101-2.278c3.807-14.392,4.606-19.221,17.443-28.157c13.402-8.606,13.649-6.914,27.251-13.858
		c2.149-0.954,3.096-3.264,4.523-4.98c2.165-7.979,3.648-22.274,3.561-24.163c-1.644-1.291-3.184-2.727-4.435-4.411
		c5.731-0.309,15.036,9.384,18.309,11.901c25.55,22.224,31.212,20.065,45.576,18.469c3.312-0.674,6.063-3.08,9.519-3.192
		c1.195-0.906,2.574-1.436,4.09-1.54c-11.926-13.673,3.105-25.411-5.999-56.635c-2.855,1.748-5.75,3.761-9.167,4.114
		c-3.063,1.588-6.608,1.652-9.848,2.735c-6.704,0.265-13.273,2.085-20.033,1.853c11.726,10.369,12.878,22.693,13.906,28.454
		c9.829,13.865,9.539,6.702,13.858,13.032c-9.197,1.261-18.439-8.085-18.846-16.577c-1.002-9.824-6.151-19.159-14.275-24.853
		c-2.18,1.09-33.529,1.248-38.583,1.861c1.56,6.963,0.788,28.153-9.712,37.332c-5.927,6.263-15.406,6.4-21.99,11.621
		c-4.25,3.617-4.347,9.519-5.943,14.379c-1.123-39.475,29.84,0.477,34.982-62.754c-4.808-0.405-23.005,1.323-28.542,2.518
		c-11.192,19.41-21.789,26.031-40.692,29.962c-17.906,2.998-18.552,10.536-21.774,23.017c-0.93-6.921,0.826-14.748,5.862-19.849
		c11.278-9.905,29.499-3.883,44.1-22.985c2.382-3.136,5.141-6.047,6.857-9.624c-28.978,3.41-63.561,12.53-75.426,17.066
		c-0.182,15.853-0.571,31.035,3.328,47.22c0.754,3.448,1.62,6.937,1.403,10.506c-5.888-1.072-9.591-18.379-10.442-22.616
		c-2.109-10.674-1.628-21.573-1.612-32.384c-3.601,0.618-6.921,2.197-10.257,3.609c-5.563,15.274-8.503,44.225-8.172,50.396
		c-0.951,18.726,8.44,40.858,10.73,49.169c6.504,5.349,12.198,11.645,18.959,16.681c12.034-10.085,18.787-19.76,20.322-37.011
		c0.281-0.369,0.842-1.107,1.123-1.476c2.895,15.703-5.052,32.4-18.437,40.861c20.701,18.159,53.361,32.117,52.802,40.419
		c5.82,17.664,11.682,123.455,11.797,124.258c5.333-8.79,13.898-15.566,17.09-25.599c2.205-5.959,2.855-12.318,4.363-18.453
		c-4.347-2.438-9.054-4.724-14.187-4.226c-0.281,6.4-0.633,12.84-2.005,19.119c-0.345,0.192-1.035,0.585-1.379,0.786
		c-6.024-43.305,17.229-70.986,19.239-77.695c0.946-1.075,1.965-2.085,3.08-2.991c-0.69,3.064-2.254,5.814-3.216,8.79
		c3.874,2.326,8.284,4.788,9.985,9.255c21.68,0.197,43.369,27.066,48.311,48.086c1.677,4.786,2.841,20.2,2.919,21.004
		c3.447,23.83-0.408,43.406-7.122,66.524c2.254-0.634,4.595-0.762,6.913-1.075c73.378-17.217,75.738-41.758,99.605-57.437
		c3.031-2.791,6.44-5.493,10.666-6.079c-2.549,8.732-33.979,36.999-38.03,39.842c-27.243,19.413-63.001,27.907-79.315,26.104
		c-1.123,4.74-3.489,9.8-8.22,11.845c6.886,39.341,13.873,107.871,10.538,121.451c37.313,12.513,58.263,34.818,98.226,48.391
		c5.87,2.879,12.655,3.136,18.437,6.287c3.031-3.039,5.646-6.464,8.413-9.736c-10.341-13.127-14.126-35.876-12.687-51.206
		c2.588-14.263,4.837-9.194,17.932-21.18c0.609-0.609,1.043-1.331,1.299-2.165c-49.38,16.549-53.966-37.303-38.551-54.39
		c5.213-5.317,14.716-7.811,20.819-2.582c-0.745,5.686,1.175,4.066-6.247,7.418c-8.484,22.559,33.961,42.667,32.416,3.833
		c-0.426-20.929-7.608-8.82,5.886-52.826c1.075-4.186,0.313-8.549,0.778-12.807c0.385-0.16,1.155-0.481,1.54-0.642
		c-0.112,4.451,0.826,9.054-0.634,13.377c-0.095,5.864-6.186,24.757-6.384,25.559c-2.323,19.491,9.758,35.433-5.197,49.698
		c-16.747,10.345-40.04-8.621-31.718-29.489c1.419-0.593,3.272-0.746,4.09-2.246c-15.636-4.931-23.483,24.642-14.708,41.598
		c6.788,15.292,28.325,15.502,42.874,7.923c3.771-0.964,7.22-3.276,19.103-18.141c2.037-2.422,1.5-5.999,3.585-8.381
		c12.466-14.619,11.397-22.652,17.01-28.927c0.064-3.481-0.938-6.881-0.802-10.362c0.218-16.262,0.372-31.482-6.648-48.167
		c-1.662,0.257-30.087,7.9-51.422-4.435c-11.536-6.271-1.611-19.7-0.497-22.712c-4.28-6.149-1.208-10.103,4.619-14.387
		c0.296,7.722,10.349,6.461,14.428,3.585c0.064-0.233,0.184-0.698,0.241-0.93c-5.959-2.205-12.832-2.943-17.603-7.587
		c-1.403-1.516-3.601-3.168-3.176-5.485c1.275-3.128,3.85-5.662,4.515-9.062c1.126-4.755-10.617-9.006-7.362-20.282
		c6.143-9.518,31.461-1.572,29.096-44.598c-1.568-10.484-12.48-25.067-3.561-29.184c-7.453,7.858,8.852,17.784,7.306,39.65
		c-0.54,31.439-24.716,31.055-28.719,36.514c-0.249,4.7,2.189,9.471,5.854,12.398c10.79-0.475,8.549-5.32,10.121-7.603
		c0.698-1.131,1.973,0.088,2.887,0.265c1.253,6.94,1.461,4.351-3.561,9.832c-2.791,0.024-5.582,0.032-8.357,0.016
		c0.04,4.042-2.382,7.234-4.363,10.498c8.298-1.037,8.024,4.928,13.345,8.164c2.558,1.532,5.502,2.237,8.204,3.457
		c2.887,1.428,6.215,0.794,9.255,1.708c-0.072,0.618-0.208,1.853-0.273,2.47c-0.489,0.056-1.468,0.168-1.957,0.225
		c-3.091,4.27-16.317,13.196-29.697,10.706c-2.462,5.582-6.408,14.818-1.195,18.076c14.231,10.534,51.422,10.474,71.648-6.135
		c2.005-1.155,3.328-3.408,5.726-3.825c-0.87,8.188-16.72,15.436-24.54,18.068c2.597,5.221,10.052,19.823,9.784,31.846
		c0.064,8.846,0.545,17.772-0.874,26.537c4.523-0.128,8.982-1.941,12.118-5.245c-8.266-20.474-0.089-47.813,7.041-68.617
		c9.961-30.694,25.324-24.303,24.909-52.08c-17.626-1.441-19.943-26.411-8.782-38.406c-8.822-0.08-17.138-3.849-24.612-8.252
		c-30.858-19.286-32.721-47.534-33.322-49.065c-1.467,1.967-0.816,2.114-2.31,15.069c0.177,0.706,0.361,1.411,0.569,2.125
		c-6.401,0.114-8.721,1.516-15.727-8.324c-0.529-1.684-1.115-3.352-1.788-4.988c-4.756-1.508-6.448-6.6-7.699-10.915
		c-12.204-46.537,35.561-62.95,53.187-43.483c1.291,1.428,2.454,2.967,3.769,4.395c0.104,0.385,0.297,1.155,0.401,1.54
		c-3.357-2.022-11.996-12.567-24.645-10.851c-35.942,4.815-31.892,42.868-26.938,54.911c0.337,0.008,1.027,0.016,1.363,0.016
		c-0.593-6.696-0.858-14.54,4.058-19.801c-1.754,12.523-1.56,30.369,10.41,34.653c-1.67-17.831,4.005-19.955,6.031-24.308
		c1.284-12.354,12.372-35.514,27.973-30.86c2.659-4.797,10.218-6.205,14.644-34.1c1.972-9.613,1.008-20.077,5.052-21.918
		c6.189-1.48,8.829,21.265,16.352,31.429c4.861,0.215,7.415-6.985,18.501-2.606c13.305-6.494,17.453-17.072,31.469-12.463
		c5.939,3.758,9.075,16.69,13.954,19.704c20.678,14.412,8.423,18.975,0.217,33.964c1.542,13.828-4.641,15.827-7.394,18.493
		c3.186,3.834,10.071,9.141,19.753,21.605c1.219,1.989,2.23,4.138,3.89,5.822c0.457,1.235,0.938,2.462,1.452,3.681
		c-1.419,3.134,0.244,2.578,13.786,27.62c4.988,8.958,6.761,19.231,8.228,29.256c28.496,180.191,107.325,173.509,35.84,289.167
		c-13.349,21.923-28.065,44.262-23.578,60.589c11.97,50.236,91.749,37.285,66.804-26.433c-17.282-36.159-71.045,1.608-37.757,18.798
		c3.93,1.62,8.012,0.329,11.733-1.163c-3.529,2.983-8.533,4.291-12.88,2.35c-31.397-14.611,5.612-51.62,33.114-33.835
		c11.207,9.319,11.683,18.28,13.914,27.339c0.642,4.812,0.144,9.688,0.409,14.532c1.111,22.295-26.987,39.976-51.198,31.702
		c-14.764-5.076-25.936-18.798-28.855-34.012c-4.191-28.255,25.391-55.251,43.788-96.357c33.917-78.803-30.878-99.195-53.7-253.456
		c-3.807-24.648-6.275-24.555-19.183-49.73c-0.425-1.323-2.061-0.65-3.031-0.842c-0.345-0.281-1.043-0.842-1.395-1.123
		c0,0-73.861-38.449-98.458-50.869c-2.329,6.522-7.697,5.258-14.548,4.411c4.74-1.452,14.417,2.564,12.222-7.627
		c-4.322-10.627-24.224-22.408-34.717,7.579c-13.58,36.105,28.041,77.287,59.25,71.905c7.567-1.421,9.35-12.411-1.115-18.534
		c1.243-0.032,2.502-0.056,3.769-0.08c2.117,1.82,3.914,3.954,5.75,6.055c0.04,0.521,0.12,1.58,0.168,2.109
		c0.313,0.345,0.946,1.035,1.267,1.379c0.241,4.258-0.994,9.351-5.301,11.18c5.694,0.241,10.193,4.291,13.369,8.685
		c-3.929-1.719-23.167-17.434-28.454,7.603c-2.473,20.428,12.036,21.456,16.561,23.602c-1.516,0.874-3.288,0.938-4.964,1.107
		c0.16,2.727,0.794,5.421,0.81,8.164c-2.62,15.585-16.359,23.086-20.964,35.592c-12.803,33.602-25.207,87.104,10.754,86.276
		c14.906,0.826,34.943,0.049,44.365,14.363c8.603,12.167,9.292,41.603,8.036,48.944c-2.609,19.388-17.56,34.164-14.732,46.017
		c8.515,35.08,43.494,13.178,53.443-2.27c11.814-16.459,7.834-25.84-7.835-33.041c-16.539-2.855-26.22,20.406-16.047,31.967
		c2.029,1.989,5.445,4.234,8.204,2.286c3.44-2.446,4.082-6.889,5.245-10.65c0.922,4.571-0.241,10.209-4.547,12.711
		c-7.594,4.382-16.991-6.709-16.047-16.553c-0.68-10.646,8.915-26.236,23.225-24.179c55.392,21.376-28.233,92.307-46.923,48.872
		c-13.717,2.158-38.407,101.919,46.161,102.941c40.097,1.302,41.866-99.426-13.417-81.729c-28.977,9.847,1.688,54.533,15.574,39.706
		c2.302-1.925,1.732-5.181,1.813-7.827c0.337-2.687-2.574-3.665-4.347-4.86c1.893,0.385,4.186,0.634,5.373,2.414
		c2.326,3.32,1.66,7.843,0.144,11.364c-10.923,12.539-34.86-3.822-34.717-26.457c1.658-14.312,12.686-20.117,27.267-20.266
		c43.156-2.543,47.695,71.261,15.053,88.426c-11.454,6.475-33.921,1.072-46.53-4.09c-0.752,9.712,9.987,10.232,5.381,29.882
		c11.828,23.86,110.95,69.37,141.588,143.377c12.022,27.828,30.234,52.241,46.723,77.487c2.157,3.408,4.074,6.985,6.384,10.305
		c1.973,2.005,2.662,4.796,4.138,7.146c29.248,49.754,32.361,93.876,42.2,148.084c2.537,10.213,11.091,84.792,10.37,111.49
		c0.289,6.64-1.219,13.922,2.775,19.801c0.04,0.433,0.12,1.299,0.161,1.74c-1.901-1.789-3.497-3.946-4.475-6.352
		c-1.477-67.05-22.966-190.391-31.71-218.57c-16.859-59.874-58.127-99.868-82.555-156.617
		c-24.414-58.538-116.443-109.257-136.263-136.119c-1.636,0.321-3.272,0.762-4.603,1.804c-5.413,1.427-10.578,3.721-16.039,5.02
		c-16.906,4.675-34.373,6.881-51.438,10.931c-16.597,3.684-37.933,11.92-45.584,8.292c-51.513,38.944-90.235,88.059-154.677,41.646
		c-24.141-21.504-114.184-132.717-119.727-153.666c-4.379-0.962-9.64-1.171-12.647-4.964c-1.395-1.5-0.569-3.617-0.369-5.373
		c-8.204-0.297-17.892,0.136-23.762-6.753c-0.192-1.508-0.369-3.007-0.545-4.499c-22.096-4.766-7.608-1.526-29.761-3.448
		c-0.024,1.227,0.072,2.486-0.128,3.721c-0.962,1.548-3.064,1.436-4.603,2.021c-1.772,3.505-4.956,6.007-6.592,9.592
		c-10.695,16.785-15.942,25.971-32.937,39.946c-13.161,12.895-35.797,48.37-50.171,67.823
		c-13.335,18.389-35.123,34.701-69.796,73.717c-14.137,15.775-10.312,2.819,11.188,25.824c2.858,3.308,10.77,10.782,2.967,25.118
		c-1.163,1.837-0.658,4.066-0.73,6.111c32.865-11.303,61.24-87.439,83.526-120.577c12.824-17.106,19.897-37.677,32.231-55.088
		c5.012-6.761,8.733-14.331,12.679-21.725c11.388-21.835,25.072-54.237,28.847-54.695l0.441,1.147
		c-6.113,16.502-27.353,62.935-39.409,79.283c-4.929,6.983-12.466,19.485-14.395,24.805c-0.199,0.813-21.335,72.518-26.521,84.295
		c-16.497,49.168-88.565,156.335-123.392,198.272c-38.475,46.774-70.63,38.68-73.477,39.112c-0.104-0.473-0.313-1.411-0.409-1.877
		c34.294,6.333,66.499-31.692,87.399-59.154c102.39-140.467,113.082-197.154,127.963-243.631
		c-13.661,3.955-54.049,118.818-95.716,130.722c-11.763,36.26-71.472,7.646-81.809,88.65c-3.839,27.633-1.41,66.218-28.302,76.629
		c-6.544,3.007-13.802,3.168-20.739,4.555c3.625,1.195,7.434,1.78,11.244,1.925c-0.529,0.433-1.067,0.866-1.604,1.315
		c-4.812-0.16-9.167-2.735-13.97-2.687c-6.183,47.875,1.341,100.52,15.558,137.723c0.826,2.695,3.08,6.584-0.337,8.405
		c-23.769-31.788-28.998-113.838-15.839-148.349c5.622-4.515,11.709-8.509,17.042-13.401c5.121-4.278,27.139-25.213,27.163-25.27
		c5.877-40.556-2.609-86.591,46.362-107.737c4.419-10.611,39.8-48.173,40.604-48.856c-6.416-6.063-13.136-12.238-21.525-15.406
		c-2.574-0.866-6.568-0.457-7.394-3.777c-0.569-3.336,3.248-4.419,5.149-6.295c0.379-0.338,25.797-27.986,35.11-37.171
		c-2.661-32.613,33.395-150.266,43.82-206.644c14.074-73.262,52.975-151.015,98.049-266.207
		c23.167-39.005,16.791-97.867,20.707-109.934c-0.858-2.037-0.954-4.291-1.756-6.336c-7.001-14.949-10.361-31.846-8.052-48.287
		c1.853-15.254,3.36-31.084,10.434-44.975c3.955-8.114,16.897-14.967,19.753-23.602c8.094-21.2,19.297-28.005,35.006-30.547
		c1.764-0.08,3.801-0.273,5.221,1.051c-6.206,3.558-29.704-0.682-37.316,44.389c3.055-0.144,5.662-1.845,8.453-2.903
		c23.193-9.311,47.645-15.246,72.282-19.167c3.064-4.611,3.857-10.795,8.316-14.427c0.513,4.86-2.655,8.95-3.336,13.577
		c32.209-4.002,79.516-7.643,79.516-7.643c9.062-0.088,18.093-0.986,27.163-0.81c-7.023-15.638-20.644-24.62-33.306-26.561
		c-14.385-5.943-74.747-5.762-102.837,5.999c-23.886,11.185-19.218,28.229-31.622,30.178c0.922-2.655,3.553-4.114,4.651-6.648
		C566.465,55.924,580.867,53.337,622.795,49.956 M512.315,115.549c-1.636,1.869-3.673,3.521-4.427,5.983
		c2.783-1.131,5.494-2.446,8.036-4.05c0.337-1.909,0.674-3.817,0.93-5.734C514.97,112.518,513.639,114.074,512.315,115.549
		 M878.135,184.126c-2.375,9.498-2.639,32.948-15.358,46.779c-1.003,1.315-3.088,1.941-3.505,3.585
		c6.905,2.687,13.008,8.397,14.331,15.943c22.434,6.995,78.841,37.639,84.849,39.609c3.208,2.839,7.274,4.411,10.835,6.753
		c1.484,0.385,2.47,1.628,3.833,2.286c-0.762-1.7-1.548-3.384-2.398-5.036c-1.491-2.982-26.26-27.48-29.464-29.898
		c-0.059-0.078-31.474-30.516-38.543-38.382c-16.326-17.539-14.494-16.783-21.798-38.415
		C880.309,186.051,879.924,184.126,878.135,184.126 M925.901,201.793c-3.481,2.037-6.905,4.186-10.434,6.135
		c0.032,0.16,0.104,0.481,0.144,0.642c4.242,2.911,8.164,6.648,13.056,8.397c1.091-1.957,1.411-4.411,3.368-5.806
		c1.58-1.099,3.056-3.368,5.181-2.975c0.834,2.462-1.764,4.315-3.112,6.047c-0.329,1.652-0.634,3.312-0.938,4.972
		c6.368,3.629,4.773,0.931,6.071,6.287c1.355-0.674,2.679-1.468,3.697-2.614c3.625-1.764,7.186-4.258,8.501-8.26
		c-7.622-14.496-6.375-13.578-8.87-16.713C932.226,196.255,933.76,197.127,925.901,201.793 M896.26,212.524
		c4.026,5.133,8.709,9.696,13.088,14.524c2.395,3.101,16.684,3.296,22.142,2.719c1.026-0.626,2.069-1.211,3.136-1.788
		c-0.056-1.059,0.545-2.342-0.425-3.128c-1.588-1.307-3.705-1.644-5.518-2.502c-6.664-3.248-12.086-8.629-18.854-11.645
		C905.274,208.722,900.494,210.751,896.26,212.524 M955.534,214.777c0.024,0.786,0.072,2.366,0.096,3.152
		c-6.387,9.811-16.367,8.942-20.33,14.484c-1.283,0.329-2.582,0.61-3.866,0.858c0.048,3.344-0.016,6.68,0.16,10.025
		c7.615-0.08,4.295-1.086,26.73-7.675c11.327-4.822,8.485-7.906,2.117-16.577C958.95,217.488,957.803,215.21,955.534,214.777
		 M500.895,223.968c5.162,30.672,2.881,93.527-21.108,113.319c36.743,39.835,48.065,40.583,109.991,80.101
		c0.241-2.173-0.553-4.267-0.978-6.36c-4.213-21.936-8.68-126.278-8.693-126.335C536.198,266.548,506.263,228.027,500.895,223.968
		 M913.599,230.632c1.896,3.007,12.039,12.424,13.586,13.088c0.409-3.553,0.954-7.122,2.326-10.45
		C924.081,233.359,918.763,232.188,913.599,230.632 M935.276,247.811c0.711,2.6,7.768,4.993,15.983,4.387
		c2.51-4.635,6.159-8.493,9.263-12.719C953.382,240.007,945.155,245.497,935.276,247.811 M940.024,255.646
		c1.788,3.456,5.141,5.622,7.779,8.365c2.55-2.486,5.814-4.716,6.247-8.565C949.455,256.64,944.595,257.434,940.024,255.646
		 M601.784,359.076c2.863-0.12,5.895-0.674,8.613,0.553c1.027-1.051,1.812-2.342,1.804-3.857
		c1.228-14.478,13.903-26.342,11.091-38.439c-1.339-3.384-4.082-5.895-6.688-8.308C608.48,324.535,603.155,341.585,601.784,359.076
		 M627.15,319.563c0.687,13.114-11.92,31.921-12.415,41.318c12.376,4.226,21.854,20.791,27.379,32.544
		c4.443-1.572,9.03-2.847,13.184-5.149c5.757-2.992,12.301-8.871,15.221-9.03c0.104-7.506-1.548-14.925-4.026-21.982
		c-7.797,3.979-4.278,1.318-17.98,7.595c-5.373,2.566-10.225,6.52-16.208,7.587c1.107-3.837,18.962-14.742,28.943-17.467
		c1.379-0.136,2.711,0.377,4.066,0.601C663.621,347.749,645.304,320.793,627.15,319.563 M479.282,338.161
		c0.464,8.032-45.27,116.581-59.097,152.64c-37.392,99.932-19.241,69.643-63.236,237.633c-1.768,6.328-17.371,73.429-17.371,73.429
		c3.216-2.149,5.606-5.261,8.461-7.835c30.781-31.158,16.07-9.224,67.021-79.026c26.841-35.622,23.268-22.279,45.031-51.158
		c-32.439-46.036-14.561-123.462,7.033-175.584c25.739-64.473,38.014-88.766,91.641-84.448c-1.067-1.484-2.783-2.173-4.291-3.047
		c-9.837-5.618-12.163-9.265-16.328-6.552c-95.611,8.243-124.749,190.519-100.399,285.623c0.658,2.494,1.187,5.558-0.834,7.595
		c-0.489-4.659-3.761-8.22-5.253-12.511c-22.672-61.513-5.412-221.653,64.687-268.428c13.534-9.358,32.123-14.921,42.376-14.748
		c-1.059-2.213-3.625-2.911-5.437-4.347C524.781,381.49,493.272,361.326,479.282,338.161 M618.344,367.65
		c0.899,25.08-14.802,30.7-24.412,45.809c0.024,2.318-0.385,4.603-0.866,6.865c21.363,14.571,31.88,40.863,42.36,59.282
		c17.506,24.883,22.135,64.708,16.192,71.857c-4.062-2.89-0.38-13.195-7.434-34.477c-3.128-10.955-8.669-20.972-13.513-31.221
		c-13.308-25.982-21.349-50.93-48.728-68.4c-4.7-2.839-9.896-4.804-14.387-8.004c-1.315-0.81-2.542-2.045-4.17-2.085
		c-0.802-0.024-15.899-2.551-27.652-0.377c15.668,13.712,58.692,42.493,82.627,124.675c2.622,10.009,5.903,19.977,6.504,30.371
		c-0.65-0.048-1.941-0.136-2.582-0.184c-6.047-16.06-12.562-36.155-18.59-51.527c-25.225-66.926-44.833-73.324-70.542-102.949
		c-32.367,7.036-45.587,44.363-58.175,78.032c-1.949,9.078-1.436,18.421-1.347,27.644c1.52,39.639,17.199,65.697,41.671,87.391
		c4.467,4.002,10.402,5.614,15.47,8.645c30.703-31.769,31.716-11.173,49.081-9.391c7.184-14.585,47.343-41.046,67.646-39.433
		c6.599-0.662,16.416,7.75,19.993,13.818c0.762,1.131,0.85,2.967,2.438,3.28c-0.034-5.854-6.798-111.066-13.345-124.025
		C646.675,436.302,638.018,380.004,618.344,367.65 M662.677,388.733c-6.103,3.36-12.912,6.568-20.073,5.55
		c3.521,8.501,7.338,16.906,9.864,25.775c17.639-8.153,5.54-3.292,16.793-8.79c0.682,0.609,1.419,1.171,2.205,1.684
		c1.115-9.423,0.201-18.911,0.104-28.358C668.083,384.651,665.637,387.322,662.677,388.733 M791.779,387.819
		c0.674,3.272,4.724,4.098,7.514,4.86c-0.618-1.259-1.267-2.478-1.925-3.697C795.524,388.477,793.664,388.052,791.779,387.819
		 M791.105,407.66c5.206,2.673,8.837,2.263,8.982-0.201c-2.919-0.601-5.197-2.534-6.143-5.365
		C791.386,402.6,791.554,405.663,791.105,407.66 M669.799,415.72c-4.692,3.922-11.003,5.846-17.082,5.052
		c2.815,9.752,5.878,19.472,7.667,29.481c-0.257,4.507,0.529,8.95,1.925,13.233c4.515-5.269,3.545-12.759,4.587-19.175
		c0.167-0.802,5.494-24.693,4.531-31.02C670.28,413.611,670.088,414.741,669.799,415.72 M866.058,494.522
		c-1.965,5.606-8.974,5.036-13.77,4.908c-2.43,7.378-5.951,14.403-10.394,20.771c-1.46,2.181-3.657,3.89-4.483,6.456
		c4.05-1.227,7.747-3.408,11.829-4.603c16.45-5.711,39.271-6.365,46.907-4.796c11.619,2.985,23.592,10.794,36.666,19.271
		c0.674,0.73,1.5,1.259,2.518,1.427C927.797,485.366,883.85,518.505,866.058,494.522 M466.627,507.361
		c-3.962,12.294-7.771,24.653-10.634,37.26c2.374,0.465,2.574,3.296,3.416,5.133c7.519,25.799,15.901,50.699,31.87,68.24
		c10.136-4.331,34.771-5.043,35.928-5.197c0.593-0.866,1.187-1.724,1.788-2.582c-5.614,0.152-11.3-1.267-15.951-4.451
		c-33.78-23.101-44.56-57.307-44.373-98.41C468.159,507.353,467.14,507.361,466.627,507.361 M883.557,520.666
		c1.427,7.41,2.085,29.535-0.906,37.204c5.036-0.281,10.057,0.329,15.021,1.203c1.17-13.042,7.828-29.585,6.231-34.661
		C897.423,522.013,890.606,519.198,883.557,520.666 M861.895,522.438c6.425,24.188,6.46,31.448,3.697,37.757
		c4.916-1.347,10.033-1.612,15.085-2.125c-2.214-12.463,0.465-25.014,1.067-37.484C875.112,521.059,868.456,521.356,861.895,522.438
		 M848.647,525.694c-1.524,0.505-3.152,0.922-4.355,2.021c4.568,25.989,7.25,27.84,6.376,35.07
		c4.619-1.051,9.407-1.243,13.938-2.711c-2.975-12.094-3.344-24.637-4.611-36.979C856.073,523.32,852.384,524.668,848.647,525.694
		 M907.52,526.432c-0.995,8.573-3.682,25.311-6.528,33.49c3.248,1.315,6.392,2.887,9.552,4.419
		c-0.297-7.202,4.258-13.297,6.215-19.977c1.564-3.553,1.652-7.53,3.224-11.067C915.748,531.14,911.778,528.525,907.52,526.432
		 M832.311,530.971c0.658,4.363,0.802,8.878,2.334,13.064c3.096,6.368,5.429,13.786,3.801,20.859
		c3.657-1.203,7.563-1.259,11.364-1.612c-5.939-5.536-7.763-28.366-7.547-35.223C838.927,528.966,835.655,530.089,832.311,530.971
		 M921.931,535.366c-0.513,10.674-5.149,20.595-8.91,30.435c1.371,1.556,2.967,2.903,4.467,4.347
		c-0.879-10.953,8.266-17.081,14.067-31.205c-0.569-0.08-1.7-0.233-2.27-0.313C928.179,535.631,924.473,536.016,921.931,535.366
		 M823.906,547.332c-15.827,17.557-31.726,27.716-31.726,27.716c-6.769,10.822-0.613,49.039,7.274,56.852
		c18.678-22.922,18.398-40.178,37.388-67.63c-1.756-8.212-6.047-15.807-6.64-24.292
		C827.707,542.071,826.111,544.966,823.906,547.332 M935.059,544.886c-4.404,11.733-14.831,16.088-16.12,30.154
		c-6.543,17.496-24.889,43.48-36.53,59.049c-7.324,10.114-18.823,23.88-19.279,26.128c5.846-0.978,11.861-2.149,16.938-5.381
		c3.304-2.005,6.56-4.507,10.546-4.876c5.734-0.762,11.909-2.045,17.299,0.834c1.042-8.593,5.282-24.936,14.925-32.745
		c-3.248-13.195-5.207-10.161,6.231-34.493c8.799-18.596,7.04-20.745,7.194-35.327C936.102,547.035,936.655,545.222,935.059,544.886
		 M454.661,550.756c-5.064,27.591-5.795,43.111-4.988,61.944c1.869,0.457,2.133,2.51,2.903,3.978
		c5.012,10.746,14.812,18.782,25.904,22.672c-1.083-1.869-2.999-4.283-1.243-6.368c3.304-3.681,8.621-4.387,13.297-4.675
		c-2.663-1.323-5.068-3.769-4.307-7.001c0.497-0.489,1.002-0.97,1.508-1.444c-18.365-7.271-31.038-55.915-31.381-69.066
		C455.929,550.788,455.087,550.764,454.661,550.756 M852.961,565.119c-4.611,0.016-9.159,1.043-13.77,0.682
		c-1.949-0.393-2.093,1.917-2.51,3.184c-11.064,14.671-10.745,50.775-48.271,85.619c-19.817,17.954-18.738,27.516-126.11-11.268
		c0.393,9.696-4.692,18.389-6.961,27.58c36.736,19.113,108.854,75.497,135.918,64.543c1.315-0.425,2.149,0.89,3.104,1.54
		c-27.649,26.344-116.984-52.492-153.939-69.459c-1.5-0.826-3.873-0.874-4.355-2.799c-32.726-10.795-56.042,3.62-84.969-0.192
		c4.578,9.913,114.735,145.243,123.688,150.779c6.376,4.25,12.936,8.357,20.089,11.188c-0.171-0.802-19.372-59.864-23.819-92.107
		c-1.827-10.243-4.047-43.502-1.836-48.423c1.171,1.973,1.131,4.355,1.484,6.56c6.073,55.974,10.542,58.185,23.217,108.435
		c1.58,9.287,5.077,18.197,6.023,27.62c8.523,1.958,28.625,9.707,58.728-7.964c11.428-7.267,39.05-28.558,39.874-30.162
		c8.292-4.563,15.35-11.388,24.348-14.644c-1.612-3.288,0.73-6.568,1.684-9.656c5.961-15.797,0.5-39.555,0.016-51.727
		c-2.197-0.104-4.371-0.425-6.552-0.457c-2.133,1.147-3.368,3.416-5.012,5.133c-5.518,6.151-11.548,11.829-17.716,17.323
		c-0.529-0.529-1.034-1.051-1.524-1.58c18.82-16.702,124.169-158.154,121.627-162.504
		C892.045,555.192,868.699,563.948,852.961,565.119 M612.378,578.159c-5.032,2.882-27.819,16.478-29.922,21.862
		c14.281,3.01,28.024,18.875,40.909,23.522c6.007,3.248,11.484,7.418,17.379,10.843c0.321,0.425,0.954,1.259,1.275,1.676
		c-0.755-5.82,14.103,1.536,67.678,16.609c11.254,3.248,46.964,11.677,46.964,11.677c3.561-0.144,6.721,1.556,10.089,2.414
		c0.738-0.82,17.774-17.128,20.555-21.565c-1.147,0.337-2.262,0.73-3.384,1.123c-1.227-0.77-2.614-1.163-4.042-1.018
		c-6.376,0.321-12.038-3.176-18.197-4.138c-2.013-1.732-4.651-2.342-6.977-3.473c-31.5-14.63-70.747-44.518-85.298-49.402
		C653.848,569.106,652.707,556.73,612.378,578.159 M545.742,600.47c-4.828,4.042-9.543,8.244-14.636,11.965
		c9.856,0.962,19.576-2.823,27.724-8.132c2.093-0.072,4.218,0.201,6.143,1.115c-2.879,0.986-6.167,0.577-8.653,2.574
		c-4.788,3.144-9.961,5.894-15.695,6.745c-5.522,0.656-48.944,2.926-48.712,9.375c17.739,5.033,48.073,0.201,66.091-3.047
		c-0.849,7.517-45.642,11.184-66.195,7.787c-3.641,0.409-6.969,2.093-10.209,3.697c-1.387,0.417-1.387,1.973-1.636,3.136
		c4.13,1.403,8.525,0.85,12.799,0.898c13.311-0.323,19.27,2.6,28.286,4.756c11.459,2.699,33.718-5.018,34.645,1.588
		c-2.045,0.427-24.511,3.515-28.422,3.256c-5.036,0.144-9.84-1.468-14.668-2.582c3.743,9.809,15.44,4.159,36.145,9.207
		c4.547,1.099,9.279-0.104,13.85,0.842c-0.249,0.521-0.754,1.564-1.01,2.085c-12.341,3.868-12.305,0.457-25.398-1.018
		c0.233,1.291,0.289,2.655,0.858,3.882c4.281,4.509,29.175,4.36,34.637,2.021c13.965-1.332,45.305-10.165,64.888,1.419
		c1.853-8.325,6.175-16.176,6.119-24.861c-45.51-21.577-45.156-29.764-61.6-33.41c-8.814,0.088-15.703-6.352-24.043-8.108
		C552.759,595.314,549.046,598.072,545.742,600.47 M451.871,626.583c0.89,12.543,6.52,24.147,9.11,36.369
		c1.472-2.631,8.511-12.431,13.12-16.673c0.032-0.329,0.096-0.994,0.128-1.331C465.866,641.014,463.298,641.923,451.871,626.583
		 M645.21,636.551c0.233,2.406,0.345,4.828,0.321,7.258c2.79,0.03,10.228,1.484,12.551,3.136c1.588-1.051,2.149-2.791,2.422-4.571
		C655.203,641.042,650.263,638.58,645.21,636.551 M644.93,645.285c-0.16,3.224-0.65,6.456-1.885,9.463
		c3.136-0.096,6.271,0.048,9.407,0.176c0.385,0.818,0.786,1.652,1.187,2.486c-3.831,3.259-1.65,2.579-10.867-0.954
		c-0.978,2.366-1.917,4.756-2.63,7.218c3.007-0.273,6.376-1.139,8.95,0.994c0.369,1.283,0.666,2.622,0.185,3.946
		c2.968,0.47,1.154,0.474,8.782-16.93c-0.521-0.521-1.035-1.026-1.556-1.516C652.196,650.064,648.555,647.306,644.93,645.285
		 M896.188,655.831c-5.686,0.73-10.803,3.376-16.072,5.413c-6.376,2.486-13.313,1.492-19.945,2.406
		c-0.034,0.012-39.271,46.987-39.513,47.79c6.729,0.104,13.417,0.682,20.081,1.556c39.188,7.758,16.738,14.824,45.793,15.855
		c13.222,1.954,52.246-1.799,49.843,13.361c0.401,0.016,1.203,0.04,1.604,0.056c-0.08-4.026-0.257-8.204-2.053-11.877
		c-2.253-3.841-0.946-8.421-1.307-12.615c-31.283-16.498-27.091-53.847-27.243-64.551
		C903.959,655.269,899.829,654.491,896.188,655.831 M825.534,715.008c1.116,11.464,7.665,25.767,4.299,44.101
		c-0.425,4.996-2.671,9.544-3.89,14.355c6.562,1.212,13.543-1.787,27.909-5.349c21.557-6.646,77.395-15.539,81.609-18.365
		c-1.973-3.031-3.152-6.552-5.261-9.463c-15.607-5.991-45.344-1.203-62.442-8.942c-4.932-2.207-3.068-5.373-14.54-10.025
		C844.276,718.176,835.005,715.762,825.534,715.008 M316.57,882.909c-8.934,10.289-17.379,20.988-25.856,31.654
		c32.867-11.29,32.042-16.328,35.728-20.811c3.306-11.56,6.532-19.08,0.858-24.901C323.812,873.582,320.347,878.37,316.57,882.909
		 M209.691,1056.881c-1.532,1.323-3.689,2.238-4.226,4.395c18.469-2.779,29.443-14.649,32.295-32.039
		C228.2,1038.235,219.844,1048.501,209.691,1056.881z"/>
	<path class="st0" d="M575.342,151.582c15.449,2.3,16.79,13.053,19.231,28.574c-0.224,6.801,1.82,13.337,2.197,20.089
		c-7.356-6.785-0.125-51.238-27.403-44.71c-6.389,5.815-16.412,23.608-17.226,39.008c-0.893,21.81,20.878,21.036,28.125,24.468
		c-4.555,0.104-9.11-0.313-13.658-0.473c-21.063-3.88-22.623-23.92-13.585-45.392C563.296,152.08,568.235,150.708,575.342,151.582z"
		/>
	<path class="st0" d="M700.001,169.851c0.81-3.625-0.465-7.442,0.85-10.987c0.233,5.654,2.494,11.532,0.313,17.05
		c-6.612,17.08-7.007,13.509-2.366,26.128c1.708,3.248,2.783,7.049,5.566,9.584c2.109,6.007,6.993,11.26,6.576,17.972
		c-0.241,3.32-3.328,5.004-5.149,7.41c-0.265-0.136-0.802-0.409-1.067-0.537c-14.522,7.03-6.485,2.527-13.858,8.525
		c0.208,3.497-0.12,7.001-0.906,10.418c-3.08,1.901-6.817,1.532-10.249,2.149c-4.507,0.401-9.03,1.909-13.545,0.81
		c-0.994-0.417-2.422,0.016-2.542,1.187c4.004,2.929,14.463,3.994,19.231,4.01c1.026,0.706,2.053,1.411,3.104,2.109
		c0.016,2.414,0.738,5.165-0.858,7.25c-2.509,3.495-8.76,10.371-12.094,7.506c4.385-7.787,10.492-8.003,9.961-13.778
		c-1.436,0.08-2.831,0.345-4.058,1.091c-4.584-1.608-21.738,0.279-21.268-15.671c9.304,3.833,26.805,1.22,31.213,2.246
		c-1.476-4.475-1.572-9.255-0.321-13.786c-15.969-2.029-12.444-13.997-6.392-16.424c-4.486,13.602,3.239,10.08,11.083,13.449
		c3.505-2.189,7.458-3.545,10.907-5.806c9.003-5.573-18.625-33.316-10.361-46.154C695.967,180.405,698.91,175.441,700.001,169.851z"
		/>
	<path class="st0" d="M678.067,167.886c2.831-0.393,5.397,1.147,8.188,1.283c-1.231,2.877-11.338,2.294-12.31,2.374
		c-8.573,0.585-17.748,1.355-24.877,6.64C644.94,167.398,671.773,168.299,678.067,167.886z"/>
	<path class="st0" d="M515.203,179.892c12.78,14.995,20.476,46.448,5.75,49.851C531.013,203.758,516.7,194.596,515.203,179.892z"/>
	<path class="st0" d="M674.186,206.958c-3.641-0.241-6.841-2.149-9.808-4.106c-3.392-2.165-7.691-3.36-9.961-6.905
		c2.029,0.016,4.01,0.465,5.911,1.179c3.376,1.243,7.114,0.698,10.498,1.941C674.652,165.999,677.141,199.07,674.186,206.958z"/>
	<path class="st0" d="M878.544,217.697c1.95,6.961-3.447,16.702-9.552,15.47c-1.548-1.355-0.986-3.721-0.746-5.502
		C872.044,216.488,877.088,217.785,878.544,217.697z"/>
	<path class="st0" d="M880.838,234.763c3.973-3.256,3.492-2.765,8.501-1.299c1.259,2.358,1.083,4.98,0.329,7.474
		c-2.318,0.65-5.036,1.732-7.202,0.12C880.204,239.783,880.758,236.904,880.838,234.763z"/>
	<path class="st0" d="M898.586,242.606c1.564,0.032,3.136,0.048,4.716,0.072c0.818,0.77,1.636,1.532,2.486,2.302
		c-0.048,1.652,0.225,3.408-0.465,4.972C900.356,254.383,891.828,249.113,898.586,242.606z"/>
	<path class="st0" d="M914.008,253.994c1.925-0.882,4.034-0.136,6.023,0.144c0.297,1.981,0.313,4.002,0.024,5.991
		c-1.973,0.577-4.363,1.796-6.143,0.136C911.722,258.734,911.971,255.518,914.008,253.994z"/>
	<path class="st0" d="M928.411,263.666c1.5-0.273,3.039-0.096,4.571-0.072c0.136,2.045,0.249,4.13-0.369,6.119
		c-2.582,0.505-5.197-0.377-6.303-2.895C926.976,265.767,927.32,264.395,928.411,263.666z"/>
	<path class="st0" d="M592.817,267.74c4.94,4.531,8.308,10.466,12.864,15.366c10.874,14.45,59.351,39.969,66.163,19.977
		c4.59-5.418,0.95-16.77,4.852-19.047c11.513,47.42-42.397,31.333-67.911,7.105C602.674,283.94,597.26,276.064,592.817,267.74z"/>
	<path class="st0" d="M942.766,273.057c1.524,0.072,3.064,0.128,4.611,0.225c0.184,1.893,0.385,3.874-0.626,5.59
		c-1.54-0.184-3.464,0.257-4.539-1.155C941.17,276.233,941.74,274.364,942.766,273.057z"/>
	<path class="st0" d="M795.067,304.069c3.585-1.508,6.688-4.451,10.915-3.737c-0.273,0.97-0.545,1.949-0.81,2.927
		c-51.817,39.691-123.113,63.978-131.411,56.804C713.068,351.595,753.307,329.327,795.067,304.069z"/>
	<path class="st0" d="M945.501,316.427c8.223,0.622,22.041,7.855,26.12,27.315c2.262,10.017,1.411,20.322,1.516,30.507
		c-3.588,56.887,9.216,57.639,30.339,91.441c-0.722-0.297-1.428-0.593-2.117-0.882c-1.829-2.486-4.387-4.274-6.312-6.664
		c-29.169-31.022-26.623-47.09-25.767-83.991C973.914,327.168,957.673,323.879,945.501,316.427z"/>
	<path class="st0" d="M835.679,322.53c5.781,1.933,25.085,3.15,31.221,21.557c1.227,3.673,3.063,7.972,1.203,11.717
		c-5.011,1.271-6.409-18.1-19.664-25.134C844.108,328.144,838.013,327.567,835.679,322.53z"/>
	<path class="st0" d="M487.39,333.598c2.43-3.745,9.864-1.845,9.247,2.959c0.144,2.278-1.909,3.609-3.296,5.036
		c-2.358-0.465-5.582-0.441-6.488-3.152C485.906,336.87,486.508,335.033,487.39,333.598z"/>
	<path class="st0" d="M648.643,331.432c-0.12,0.585-0.353,1.748-0.473,2.334c-4.293,3.169-14.089,4.494-27.949,28.462
		C616.8,358.138,633.484,330.291,648.643,331.432z"/>
	<path class="st0" d="M838.686,340.414c0.698,0.032,2.077,0.104,2.775,0.144c6.422,4.925,16.633,16.436,19.809,23.201
		c-0.152,1.291-0.297,2.582-0.433,3.874c-0.569,0.577-1.123,1.171-1.668,1.756c-18.815,0.963-30.113-6.367-32.825-13.698
		c14.585-9.206,9.211-8.555,14.283-13.048C839.978,341.898,839.312,341.144,838.686,340.414 M834.701,358.98
		c-1.171-1.331-2.695-2.189-4.491-1.556c7.933,8.065,22.19,7.146,27.66,7.899c-4.002-5.381-8.156-10.682-12.014-16.176
		C845.566,349.954,843.283,360.83,834.701,358.98z"/>
	<path class="st0" d="M500.791,351.73c-3.088-2.125-2.205-8.044,1.78-8.509c4.962-0.779,8.064,2.442,5.237,8.316
		C505.603,352.268,502.828,353.471,500.791,351.73z"/>
	<path class="st0" d="M513.502,356.679c2.374-2.598,6.031-2.454,8.966-0.946c1.179,2.751,0.946,5.686-0.818,8.116
		C517.253,363.788,512.741,365.499,513.502,356.679z"/>
	<path class="st0" d="M535.933,366.912c3.934,3.244,3.12,5.48,0.104,9.912c-2.518-0.193-5.742-0.241-7.033-2.855
		C527.249,368.629,531.174,366.118,535.933,366.912z"/>
	<path class="st0" d="M946.841,373.119c-31.205,79.321,96.792,128.673,77.767,212.868c-0.642,4.716-2.462,9.142-3.761,13.698
		c-3.302,5.459-9.588,32.214-9.576,39.168c-1.211-5.622,0.465-11.228,0.377-16.865c0.587-24.153,13.162-28.369,8.228-65.016
		c-2.717-49.273-77.541-100.334-81.176-153.859C937.73,390.111,942.804,377.387,946.841,373.119z"/>
	<path class="st0" d="M544.94,385.413c-2.47-2.695-0.754-7.907,3.072-8.052c3.296-0.593,6.223,2.51,5.999,5.71
		c-0.305,1.917-2.101,2.927-3.448,4.082C548.621,386.993,546.231,387.186,544.94,385.413z"/>
	<path class="st0" d="M914.553,377.466c-6.672,16.737-33.364,54.977,17.98,103.936c17.647,15.961,39.875,22.267,35.094,68.801
		c-1.748,1.099-2.462-1.444-2.462-2.687c0.556-37.511-14.972-46.146-28.911-57.052C891.355,454.242,890.455,408.659,914.553,377.466
		z"/>
	<path class="st0" d="M559.207,389.447c1.756-2.502,4.675-2.695,7.49-2.486c2.35,2.029,2.983,5.253,1.452,7.988
		c-4.496,2.248-3.882,2.883-8.91-0.722C559.223,392.631,559.207,391.035,559.207,389.447z"/>
	<path class="st0" d="M508.843,425.6c26.586-4.096,58.183,83.308,62.225,98.907c3.585,11.412,5.461,23.313,9.76,34.517
		c1.845,7.354,5.004,14.444,5.117,22.159c-0.617-0.008-1.853-0.032-2.47-0.048c-18.579-33.073-29.938-123.185-67.815-151.886
		C513.566,427.693,510.976,427.068,508.843,425.6z"/>
	<path class="st0" d="M491.753,448.825c0.201-0.297,0.602-0.874,0.802-1.171c12.136,68.121,47.944,123.77,74.094,137.378
		c3.673,1.636,7.41,3.136,11.003,4.932c0.112,0.457,0.337,1.355,0.449,1.812c-8.644-2.732-16.822,3.118-39.946-22.632
		C511.478,538.086,489.259,477.865,491.753,448.825z"/>
	<path class="st0" d="M526.799,661.148c0.174,0.802,16.428,359.542,96.117,499.766c32.409,54.893,83.216,131.533,147.314,132.574
		c11.212,1.196,31.333-1.115,38.374-3.641c4.219-0.958,66.997-18.06,66.997-18.06c3.653-0.97,30.996-5.269,30.996-5.269
		c7.088-0.911,29.164-0.671,31.75-0.04c0.706,1.01-0.914,1.436-1.492,1.957c-3.469,1.62-44.868,5.484-48.776,6.881
		c-0.808,0.033-15.983,1.984-17.114,2.671c-67.443,7.594-138.575,82.776-252.79-116.695
		C552.876,1037.533,524.203,751.361,526.799,661.148z"/>
	<path class="st0" d="M537.545,673.145c57.047,71.266,150.727,372.527,345.867,342.98c0.803-0.153,14.737-1.236,17.892-2.606
		c15.211-1.61,43.139-10.764,43.619-10.827c5.582-2.326,11.179-4.74,16.97-6.488c1.38-1.323,3.368-1.018,5.133-1.107
		c-7.344,5.085-22.587,11.098-25.013,11.324c-4.571,1.901-9.279,3.553-14.059,4.852c-2.39,1.468-5.357,1.131-7.851,2.35
		c-223.374,50.395-293.085-193.767-380.352-335.979C538.837,676.233,538.123,674.709,537.545,673.145z"/>
	<path class="st0" d="M498.762,690.139c0.722,18.567-1.395,76.735-3.4,92.852c-1.155-0.954-2.286-2.189-1.732-3.817
		C496.038,761.474,497.696,710.605,498.762,690.139z"/>
	<path class="st0" d="M493.381,782.639c1.163,0.938,2.278,2.149,1.812,3.817c-40.028,293.737-122.329,427.264-28.887,527.738
		c30.316,30.152,53.005,34.253,69.09,48.062C319.202,1278.514,466.341,1052.978,493.381,782.639z"/>
	<path class="st0" d="M110.711,1241.479c15.582-10.055,32.855-8.041,36.522-6.239c5.461,0.634,10.618,4.034,13.192,8.918
		c4.039-0.446,15.747-6.78,18.75-7.258c1.067-0.906,2.101-1.869,3.232-2.687c1.756,0.345,3.296,1.436,4.94,2.157
		c0.593,2.029-1.933,1.772-3.176,2.326c0.096,3.601-1.419,6.889-2.63,10.193c16.745-3.192,33.285-4.834,37.741,5.077
		c1.596,6.745-1.676,13.337-5.357,18.79c-4.98,8.368-16.113,12.424-15.759,15.695c-1.604,1.091-3.769,1.075-5.173,2.55
		c-49.305,39.271-34.064,33.858-32.753,40.885c-2.903,0.281-5.469-1.652-6.632-4.194c-4.036-17.896,43.665-44.594,50.685-52.738
		c4.299-2.27,6.68-6.825,8.87-10.963c6.271-12.444-4.972-12.736-7.603-13.77c-7.667-0.866-15.422-0.04-23.129-0.249
		c-2.863-0.529-3.617,2.799-5.341,4.331c-13.802,14.561-11.152,19.095-8.22,36.169c-4.17-4.667-6.007-11.115-6.528-17.25
		c-1.111-13.729,9.742-19.254,15.999-31.253c-1.933,0.048-3.072,1.684-4.571,2.638c-2.47,1.315-5.149,2.182-7.627,3.489
		c-32.215,18.769-65.334,75.8-67.27,83.878c3.064-1.091,5.197-3.705,8.06-5.149c12.663-6.993,27.748-9.72,38.583-19.841
		c32.025-25.847,39.688-15.454,38.342-45.945c-0.794-2.959-1.796-5.927-1.315-9.03c4.347,8.068,5.854,17.716,4.403,26.794
		c-5.71,15.492-20.532,15.974-39.73,33.827c-15.208,13.613-33.668,14.01-45.825,24.172c-2.59,1.941-4.17,4.812-6.199,7.274
		c-0.569,1.059-1.764,0.112-2.55-0.056c-0.978,1.941-1.796,3.962-2.486,6.039c13.867,0.32,68.007-18.735,84.825-4.403
		c2.831,1.764,3.866,4.996,5.437,7.755c6.159-10.069,20.368-23.178,16.625-61.463c0.529-0.577,1.075-1.123,1.628-1.644
		c3.545,8.862,3.296,18.566,2.775,27.941c-4.132,24.656-10.149,27.604-15.366,37.123c-9.581,15.623-14.731,22.629-29.713,24.268
		c-34.861,16.895-114.662,3.635-118.066-55.071c0.422-19.206,10.171-22.406,13.233-24.34c0.561-4.477-2.806-17.741,9.375-28.246
		c6.023-5.365,14.243-7.715,22.191-7.843c-5.048,2.022-31.447,8.879-26.096,34.156c3.917,18.146,24.234,29.721,35.231,26.481
		c1.893-0.674,3.882-0.978,5.878-1.059c5.63-11.372,12.03-22.343,19.103-32.873c-23.429,9.006-21.664,6.028-33.683,6.528
		c3.424,7.034,20.432,1.584,22.88,8.068c-3.833,3.743-20.264,3.24-26.569-4.275c-3.617-4.307-2.823-10.257-4.074-15.39
		c-0.815-7.346,8.432-15.429,15.013-20.619c-1.275-3.224-0.786-7.186,1.812-9.608
		C98.794,1251.071,103.967,1245.225,110.711,1241.479 M111.417,1248.064c-5.277,3.12-9.279,7.916-14.484,11.147
		c-1.355,0.561-1.315,2.189-1.756,3.392c6.978,2.994,21.276-1.854,32.64-4.459c2.526-0.601,5.125-1.949,6.328-4.355
		c0.449-3.112-3.529-5.181-6.199-4.17c-3.392,0.609-5.55,3.441-8.236,5.301c7.714-17.268,29.304-0.666,8.132,6.937
		c-15.788,4.963-31.313,10.234-36.875,3.617c-3.577,5.598-8.974,10.089-11.284,16.473c-1.379,4.323,1.78,8.886,5.854,10.265
		c9.369,4.436,36.737-7.171,37.348-14.58c-1.985-0.356-13.38-5.464-27.107,0.353c-1.307,0.553-2.47,1.572-2.51,3.112
		c4.018,0.329,8.148-0.329,12.07,0.818c-4.783,3.468-17.727,5.242-17.651-0.682c-0.93-5.058,6.786-10.962,22.56-12.054
		c4.13-0.393,8.052,1.075,12.054,1.828c2.526,0.545,4.411,2.454,6.472,3.809c1.805-1.704,13.437-17.345,27.516-27.075
		c0.634-0.585,1.604-0.986,1.788-1.877c-1.556-1.251-3.264-2.286-4.732-3.625C143.609,1237.396,126.82,1237.486,111.417,1248.064
		 M42.046,1322.15c-0.401,7.258,1.812,14.379,5.085,20.787c21.354,43.188,89.787,39.146,96.301,36.209
		c17.152-2.887,24.906-4.402,34.381-21.806c-0.465-3.039-2.807-5.301-4.563-7.675c-7.617-2.4-9.631-4.446-25.334-3.328
		c-2.574,0.89-5.301,0.658-7.972,0.81c-32.89,3.763-51.348,15.176-73.332,0.176c-13.238-8.762-13.11-23.9-7.707-31.694
		c-3.031-4.25-5.598-8.886-6.729-14.018C44.444,1305.004,41.653,1314.323,42.046,1322.15 M59.842,1316.664
		c-6.503,14.198,3.023,31.411,29.368,33.522c0.497-7.883,4.122-15.149,7.001-22.391C93.966,1328.332,78.88,1337.039,59.842,1316.664
		z"/>
	<path class="st0" d="M1238.013,1257.455c10.159-1.372,14.48,0.709,21.661,2.687c3.176,1.949,5.991,4.547,8.308,7.482
		c2.478-0.056,4.186-2.125,6.488-2.767c4.876-1.452,9.552-3.633,13.754-6.504c1.484-0.986,3.352-0.096,4.988,0.008
		c0.305,0.529,0.914,1.596,1.219,2.133c-1.131,0.353-2.254,0.698-3.352,1.058c0.048,3.761-1.059,7.346-2.743,10.698
		c9.521-1.715,28.436-5.08,35.568,1.435c6.017,6.192,0.987,17.521-4.347,24.22c-4.55,6.276-15.405,11.475-14.516,13.706
		c5.333,13.783,4.55,32.926-0.666,46.715c-2.454,7.683-7.651,14.018-11.693,20.883c-17.678,29.223-24.936,20.971-30.17,24.396
		c-19.413,8.986-54.333,7.174-76.548-2.214c-44.87-19.867-50.091-64.839-27.644-77.759c0.115-1.618-4.177-34.614,31.052-36.305
		c0.032,0.192,0.096,0.569,0.136,0.762c-47.062,11.442-23.414,68.361,15.855,58.897c4.74-11.404,11.893-21.589,18.125-32.183
		c-8.178,1.942-15.643,8.153-34.012,4.964c1.42,3.128,5.101,4.074,8.18,4.74c10.066,2.48,14.961-1.168,15.037,5.405
		c-1.109,0.02-12.769,2.923-21.012-1.644c-4.555-2.021-7.779-6.801-7.755-11.805c-0.366-8.955-6.762-10.806,13.722-28.141
		c-3.32-7.765,5.107-11.632,8.084-14.355C1214.595,1265.571,1225.687,1258.818,1238.013,1257.455 M1215.405,1273.47
		c-4.074,2.751-7.338,6.576-11.725,8.878c-0.521,1.139-1.796,2.719-0.497,3.841c1.948,2.976,23.907-2.801,24.709-2.975
		c2.459-0.738,14.986-2.647,12.92-7.707c-0.577-2.286-3.328-2.831-5.341-2.606c-3.521,0.241-5.935,3.056-8.405,5.237
		c1.812-5.004,7.707-8.886,13-6.945c3.481,1.403,4.828,6.119,2.502,9.102c-2.422,3.4-6.656,4.435-10.386,5.702
		c-9.266,2.832-27.856,9.597-34.34,3.2c-11.437,14.952-11.487,13.075-11.364,20.988c8.672,14.254,38.928-0.365,43.347-8.06
		c-0.353-1.115-1.548-1.612-2.31-2.366c-2.689-0.089-17.613-4.118-26.938,3.112c3.048,3.392,8.236,0.393,12.038,2.398
		c-3.304,1.981-7.178,2.639-10.939,3.128c-17.774,0.696-1.676-23.292,29.713-13.385c1.572,0.97,3.015,2.157,4.066,3.729
		c8.629-10.883,18.1-21.34,29.737-29.079C1252.282,1257.316,1230.335,1261.959,1215.405,1273.47 M1279.86,1268.233
		c-4.534,2.519-12.083,4.103-26.553,18.886c-25.8,26.076-46.33,62.798-47.701,68.056c2.711-0.401,4.419-2.703,6.68-4.018
		c9.383-5.686,20.178-8.413,29.809-13.618c7.338-3.553,12.751-9.896,19.721-14.043c3.184-2.454,7.13-3.865,9.92-6.809
		c1.676-0.609,3.36-1.275,4.812-2.35c18.082-12.368,15.26-15.576,12.832-38.856c2.614,3.849,3.288,8.509,4.499,12.912
		c1.668,29.503-7.26,19.133-41.574,49.081c-11.212,9.511-26.12,12.254-38.896,18.935c-4.9,2.775-8.38,7.258-11.861,11.548
		c-0.65-0.321-1.283-0.626-1.893-0.914c-0.77,2.205-1.813,4.299-2.783,6.424c17.877-0.263,52.459-15.133,80.261-7.41
		c3.97,2.125,8.645,4.884,9.183,9.84c3.881-0.693,23.666-25.632,17.114-64.206c-49.289,37.552-39.851,37.119-35.993,43.266
		c-0.986,0.024-1.957,0.064-2.911,0.128c-14.84-8.892,11.205-29.269,23.794-39.249c16.551-12.926,33.226-21.092,33.611-35.471
		c0.064-3.296-3.192-4.732-5.566-6.151c-7.267-1.134-8.557-1.811-28.871-0.858c-4.692,6.424-11.885,11.589-13.377,19.881
		c-1.676,6.857,0.537,13.714,1.443,20.49c-6.464-8.349-8.629-20.667-3.28-30.114c3.16-6.271,9.303-10.442,12.158-16.89
		C1282.827,1266.974,1281.247,1267.367,1279.86,1268.233 M1155.939,1326.817c-18.851,16.26-2.988,79.036,78.666,77.126
		c4.812-0.241,9.8,0.674,14.46-0.946c5.437-0.577,10.369-3.513,15.927-3.384c9.231-2.895,15.254-11.187,20.041-19.111
		c-1.443-3.272-3.28-6.48-6.504-8.268c-15.085-7.985-59.657,3.679-76.003,5.991c-20.811,1.34-42.551-10.494-39.914-31.261
		c0.513-2.863,2.021-5.373,3.023-8.052c-1.083-2.334-2.807-4.291-3.881-6.616C1158.649,1326.487,1160.388,1323.52,1155.939,1326.817
		 M1195.949,1373.548c0.986-7.988,4.258-15.446,7.354-22.8c-12.762,6.64-27.403-0.629-36.185-10.337
		C1163.402,1344.759,1158.904,1367.947,1195.949,1373.548z"/>
	<path class="st0" d="M259.541,1384.022c1.444-1.155,3.473-1.075,5.205-1.524c3.304,2.005,6.833,3.817,10.642,4.611
		c1.171,0.537,1.772,1.989,3.184,2.125c2.574,0.417,4.659,2.229,7.21,2.622c4.37-1.87,2.336-7.695,21.798-10.241
		c25.3-1.62,39.546,16.669,46.258,20.859c2.943,2.366,4.443,6.777,2.687,10.289c7.33,5.827,17.701,15.007,14.508,23.353
		c-0.77,4.571-0.762,9.367-3.521,13.353c-4.7,3.063-7.228,6.469-21.541,5.734c-1.957-0.056-3.633-1.099-5.109-2.27
		c0.698-0.754,1.371-1.5,2.165-2.125c7.154-1.492,15.454-0.481,21.445-5.502c-0.016-0.409-0.048-1.227-0.064-1.636
		c-10.979,5.209-28.259-3.006-33.731-4.563c3.015,5.502,6.785,10.562,9.768,16.096c3.272,5.165,5.63,10.883,8.83,16.055
		c36.605,11.579,62.532-46.44,17.876-58.039c-0.93-0.297-1.796-0.706-2.598-1.227c16.337-0.092,28.962,10.166,31.125,24.765
		c0.225,3.785-0.016,7.587,0.12,11.388c28.586,10.249,15.438,94.807-87.888,85.017c-4.154-0.842-8.076-2.55-12.254-3.248
		l-0.521-0.537c-1.604-0.393-3.224-0.882-4.427-2.053c-16,0.897-25.479-17.898-32.833-29.545
		c-13.539-18.099-15.415-45.933-8.332-62.466c-0.777-0.782-13.273-10.898-14.837-11.46c-1.788-6.56-14.923-19.745-0.994-27.764
		c5.846-1.309,4.071-3.955,32.608,0.722c-2.438-2.839-2.855-6.648-3.208-10.217C261.867,1385.811,260.376,1385.273,259.541,1384.022
		 M294.115,1389.885c-1.387,1.403-4.724,2.454-3.914,4.9c10.867,7.603,19.809,17.491,28.165,27.7
		c1.524-1.171,3.064-2.31,4.635-3.392c3.152-0.521,6.167-1.772,9.391-1.837c36.464-2.097,33.175,25.285,9.447,12.463
		c4.258-1.035,8.669-0.674,12.992-1.227c-5.062-6.208-21.078-6.977-29.24-3.312c-5.825,2.253,18.73,18.136,34.798,15.374
		c3.801-1.179,7.466-4.347,7.531-8.581c-0.882-7.755-8.02-12.286-11.492-18.758c-7.997,6.864-26.704-0.239-38.575-4.25
		c-3.577-1.187-7.635-4.066-7.218-8.292c-0.065-7.983,13.639-7.079,16.392,1.7c-3.031-2.526-6.295-5.991-10.69-4.876
		c-1.885-0.056-2.574,1.796-3.28,3.2c0.706,1.436,1.267,3.128,2.863,3.833c1.422,0.73,25.327,8.337,35.551,6.312
		c0.064-1.01,0.088-2.005,0.072-2.975c-1.997-2.037-4.764-3.12-6.777-5.149C325.804,1385.668,306.944,1384.073,294.115,1389.885
		 M269.887,1390.141c-0.286,3.369,6.3,9.456,9.824,14.395c10.251,13.472,3.119,29.161-1.139,33.458
		c5.75-28.722-2.839-27.154-11.933-40.267c-13.619,0.371-23.888-2.259-32.961,3.296c-5.152,5.259,4.091,18.661,11.773,24.147
		c14.014,10.506,39.809,28.068,46.33,40.436c5.033,7.848,1.202,14.706-4.868,13.794c3.928-5.881,11.981-6.596-34.068-41.727
		c-0.93,0.513-1.925,0.882-2.967,1.115c0.098,2.867-2.55,25.482,5.349,43.355c2.863,7.178,8.252,12.912,11.853,19.688
		c2.043-7.862,5.634-8.402,9.151-11.067c3.256-0.642,6.295-2.165,9.696-1.997c16.671-4.116,61.842,9.531,70.566,8.998
		c-0.144-2.141-0.818-4.17-1.74-6.071c-0.746,0.201-1.476,0.409-2.213,0.634c-15.32-20.533-35.045-15.666-52.537-31.983
		c-21.662-21.409-46.07-18.618-38.783-50.829c1.099-3.232,1.492-6.761,3.641-9.527c-5.57,41.816,4.485,27.1,41.101,58.175
		c11.599,8.874,26.821,9.706,42.569,22.118c-0.962-6.576-31.783-60.943-65.457-83.341
		C278.765,1394.496,274.049,1392.836,269.887,1390.141 M395.38,1449.535c-1.668,4.9-3.841,9.648-6.937,13.834
		c5.699,9.484,4.682,21.49-5.333,29.841c-19.869,16.835-42.129,6.501-70.654,2.358c-5.533-0.527-29.383-5.286-39.946,3.32
		c-1.043,2.165-2.791,4.25-2.871,6.72c4.603,7.683,10.61,15.358,19.336,18.453c9.535-0.053,11.855,5.869,39.369,4.138
		C408.542,1525.556,416.739,1458.397,395.38,1449.535 M350.67,1474.589c3.256,7.474,6.4,15.109,7.659,23.225
		c20.086-0.606,37.594-16.437,29.12-33.121C373.298,1479.698,357.531,1480.073,350.67,1474.589z"/>
	<path class="st0" d="M172.199,1400.904c2.43,1.139,5.197,0.802,7.811,0.874c-0.906,0.361-1.788,0.778-2.647,1.259
		c-1.043-0.297-2.085-0.585-3.136-0.778c23.89,32.426,65.275,45.35,29.055,93.502c0.306-9.597,16.106-27.651,6.352-47.012
		c-4.271-10.711-21.229-26.883-22.969-28.181c-1.5-2.213-3.432-4.074-5.068-6.159c-0.489,0.056-1.484,0.168-1.973,0.224
		c-0.369,10.041-5.365,19.015-7.474,28.687c-8.036,22.288,27.734,47.744,29.625,53.596c-2.105-0.414-26.415-18.47-32.817-36.41
		c-6.893-21.068,14.235-39.837,8.276-52.064c-7.765,20.689-97.356,51.259-105.411,49.209c-1.532-1.756,0.361-3.521,1.572-4.732
		c11.099-12.454,19.608-27.315,32.817-37.797c20.421-14.364,53.316-11.767,59.418-13.561
		C167.764,1400.623,170.851,1403.253,172.199,1400.904 M109.5,1416.237c-9.07,6.902-12.544,12.706-31.437,37.541
		c16.428-3.744,85.164-27.097,97.833-46.595c-1.051-1.492-1.989-3.064-3.272-4.355C163.871,1404.113,129.446,1402.15,109.5,1416.237
		z"/>
	<path class="st0" d="M1109.898,1412.147c2.847,0.16,3.818-2.831,5.854-4.202c-0.297,1.845-1.62,3.208-2.486,4.804
		c1.492-0.064,2.983-0.128,4.499-0.16c3.451,1.916,34.946,4.028,36.802,4.146c27.888-0.148,42.395,12.472,47.549,15.895
		c1.901,2.767,4.82,4.563,6.777,7.306c1.612,1.668,2.542,4.05,4.78,5.052c1.516,3.93,4.138,7.266,6.191,10.923
		c2.502,4.25,4.475,8.782,6.721,13.184c-3.392-0.93-4.876-4.443-6.688-7.097c-14.293-21.989-27.064-35.701-52.521-40.604
		c-5.719-1.369-39.653-4.586-40.468-4.563c30.243,29.014,26.257,43.947,70.79,51.15c7.474,0.706,14.933,1.997,22.471,1.692
		c2.229,0.032,5.341-0.361,6.167,2.366c-4.186,0.553-8.397,0.241-12.591,0.168c-74.513-0.042-67.167-47.797-93.173-57.1
		c16.508,18.208-0.355,102.838-7.867,115.58c-1.083-0.024-2.157-0.024-3.216-0.008c-1.997-4.355-3.384-8.942-5.317-13.313
		c-19.889-48.033-16.85-41.264-17.13-56.515c1.731-18.194,19.548-43.116,24.115-47.765
		C1110.844,1412.853,1110.21,1412.38,1109.898,1412.147 M1112.191,1413.535c-35.922,53.366-23.159,54.386-1.724,108.307
		c0.481-0.04,1.452-0.12,1.941-0.16c5.778-22.143,19.559-88.286,6.015-106.678C1116.41,1414.24,1114.26,1414.008,1112.191,1413.535z
		"/>
	<path class="st0" d="M166.16,1408.202c0.096,0.521,0.281,1.564,0.377,2.085c-17.616,1.767-48.539,13.146-58.584,27.716
		c-0.505-0.096-1.508-0.289-2.005-0.377C112.12,1423.19,151.262,1408.15,166.16,1408.202z"/>
	<path class="st0" d="M941.138,1429.687c19.373-18.851,48.196-23.892,62.442-6.472c0.78,0.025,17.928-7.204,21.02-9.608
		c2.133-0.096,5.285-0.144,5.534,2.679c-1.211,0.273-2.406,0.561-3.593,0.858c0.016,3.745-0.762,7.458-2.807,10.658
		c5.087-0.807,27.65-4.992,33.057-0.128c0.473,0.128,1.411,0.401,1.885,0.537c1.885,2.438,4.098,5.221,3.657,8.533
		c-0.569,3.232-0.914,6.68-2.695,9.535c-10.771,16.344-5.764,7.927-19.271,20.138c0.118,0.808,12.345,33.662-8.156,62.025
		c-6.335,9.619-16.311,31.253-33.089,29.665c-0.289,0.305-0.858,0.914-1.147,1.227c-52.519,16.63-106.862-5.42-115.957-45.873
		c-2.984-14.081-0.74-29.078,12.567-34.421c-5.565-24.146,19.129-39.034,30.772-35.471c-36.506,8.902-32.898,45.918-3.376,58.857
		c5.911,3.039,12.727,1.091,18.854-0.136c9.767-19.988,15.035-25.928,18.838-32.72c-10.45,5.02-22.415,8.397-34.004,5.758
		c1.55,6.54,15.881,4.243,23.233,7.651c-0.409,0.898-0.818,1.813-1.211,2.743c-6.615,0.478-21.914,3.039-27.387-9.118
		c-1.219-2.695-0.666-5.742-1.291-8.549c-0.642-3.464-1.131-7.426,1.027-10.466c3.44-5.317,8.357-9.439,12.96-13.706
		C931.476,1433.637,937.153,1433.784,941.138,1429.687 M969.825,1419.51c-9.744,2.406-18.133,8.34-25.511,14.925
		c-2.278,2.157-6.255,3.047-6.536,6.713c0.553,0.297,1.66,0.874,2.214,1.171c2.735,0.096,5.502,0.281,8.236-0.152
		c20.658-4.308,29.346-5.604,28.278-11.749c-5.192-4.734-8.656-0.989-13.786,3.288c0.778-3.112,3.505-5.317,6.271-6.672
		c7.819-3.62,15.375,5.474,6.079,11.653c-1.943,1.111-25.558,10.304-37.669,8.317c-1.428-0.625-2.727-1.484-4.05-2.245
		c-3.031,4.258-6.753,7.996-9.463,12.487c-4.651,7.797,0.434,12.678,4.074,13.473c7.51,4.755,34.666-5.189,37.364-13.81
		c-12.792-5.624-25.218-2.015-29.801,1.933c0.008,0.257,0.032,0.786,0.04,1.043c4.082,0.553,8.316-0.401,12.31,0.906
		c-4.746,2.905-12.238,4.529-17.018,1.716c-0.353-1.444-1.524-2.943-0.682-4.395c1.756-4.651,6.825-6.672,11.155-8.236
		c13.152-3.573,19.825-0.508,27.78,1.411c0.609,1.018,1.227,2.069,1.845,3.136c8.509-10.963,18.173-21.236,29.617-29.176
		c-1.572-2.422-4.242-3.633-6.616-5.085C993.154,1420.108,980.48,1416.165,969.825,1419.51 M1016.283,1423.872
		c-3.36,1.195-7.17,2.093-9.68,4.788c-15.793,5.686-51.778,52.018-66.451,83.758c2.63-1.371,4.459-3.825,7.033-5.277
		c12.631-8.004,28.462-10.217,39.786-20.418c9.479-7.996,20.506-13.762,30.788-20.595c12.896-11.89,8.801-16.778,7.242-34.252
		c2.525,1.428,7.125,16.316,3.785,27.973c-4.822,11.118-22.496,17.637-32.319,25.88c-9.532,7.274-8.891,10.827-34.196,20.402
		c-21.582,8.966-18.464,10.082-25.31,17.459c-0.666-0.369-1.323-0.714-1.965-1.034c-0.634,1.893-1.267,3.793-1.885,5.71
		c-0.898-0.273-1.885-1.444-1.035-2.374c1.259-6.785,4.21-13.048,6.6-19.464c-2.131,0.714-13.911,8.15-31.325-5.943
		c-1.869-1.419-3.28-3.384-5.341-4.523c-6.038,17.988,6.231,28.13,24.524,32.536c19.562,4.447,84.241-26.052,96.253,3.978
		c2.382-4.09,5.59-7.699,7.531-12.021c0.698-0.674,1.476-1.315,1.901-2.205c12.617-24.519,6.928-50.059,6.977-50.861
		c-1.005,0.553-35.049,24.969-39.265,36.113c-1.019,2.719,1.339,4.836,3.072,6.552c-1.01,0.481-2.093,0.714-3.224,0.69
		c-3.563-3.691-8.589-5.961,2.799-20.402c23.839-27.111,53.126-32.735,55.128-55.464c-6.337-7.445-13.769-6.832-34.565-5.991
		c-10.213,13.348-17.785,13.631-11.853,40.307c-5.798-6.552-7.17-16.015-5.742-24.404c2.326-9.335,10.907-14.965,15.045-23.273
		C1018.697,1421.306,1017.446,1422.605,1016.283,1423.872 M889.716,1522.002c16.37,32.893,55.088,37.816,91.553,37.484
		c4.876-0.674,9.407-3.168,14.379-3.28c0.369-0.329,1.115-0.978,1.492-1.307c8.162,2.633,18.692-11.02,23.281-18.582
		c-4.372-22.105-60.866-5.323-83.341-2.454c-24.393,0.73-46.953-15.533-36.434-38.014c1.027-1.877-0.754-3.521-1.58-5.028
		c-2.197-3.08-3.12-6.777-4.788-10.113C884.899,1485.113,879.739,1502.609,889.716,1522.002z"/>
	<path class="st0" d="M1139.522,1422.461c19.787,0.565,60.349,16.174,63.99,36.025c-0.569,0-1.708-0.008-2.278-0.008
		c-5.081-20.118-48.739-33.969-61.527-33.763C1139.667,1424.153,1139.571,1423.022,1139.522,1422.461z"/>
	<path class="st0" d="M184.485,1424.658c0.537,0.056,1.604,0.168,2.141,0.225c3.424,15.363,11.204,22.966,10.081,54.318
		c-0.569,0.048-1.716,0.152-2.286,0.208C195.534,1445.138,186.216,1439.622,184.485,1424.658z"/>
	<path class="st0" d="M1110.483,1432.75c0.618,0.008,1.845,0.032,2.454,0.04c-0.404,5.047-11.562,0.25-6.296,37.661
		c0.882,5.63,3.737,10.963,2.807,16.785c-0.457-0.032-1.363-0.112-1.82-0.152C1107.579,1481.264,1094.613,1444.542,1110.483,1432.75
		z"/>
	<path class="st0" d="M611.014,1454.917c7.707-5.542,16.529-10.089,26.12-10.875c25.708,0.459,23.181,4.846,29.737,10.362
		c3.313-1.795,17.824-6.727,19.007-8.806c1.163-2.045,3.761-0.922,5.606-0.89c0.393,0.449,1.179,1.339,1.572,1.788
		c-5.133,2.085-3.031,8.541-6.095,12.262c0.802-0.08,21.268-3.208,25.543-2.077c22.161,1.872,9.417,25.451,2.831,31.117
		c-3.946,3.489-8.268,6.512-12.374,9.8c10.957,21.53-2.332,53.68-2.574,54.494c-10.372,12.796-16.159,32.509-33.162,37.011
		c-2.021,0.473-4.267-0.208-6.111,0.93c-29.31,15.385-109.335,4.231-116.663-48.961c-1.798-12.704,0.88-26.455,13.04-30.78
		c-1.934-9.129-1.579-33.191,30.988-36.394c-2.646,2.021-6.191,2.213-9.038,3.906c-21.852,9.212-21.94,33.715-7.362,47.333
		c16.631,15.503,25.899,8.793,31.638,8.413c5.445-11.356,12.038-22.126,18.943-32.648c-4.944,1.75-21.76,9.729-33.635,5.317
		c-0.008,0.449-0.008,1.339-0.008,1.788c2.681,1.973,5.302,3.743,21.621,5.149c0.289,0.698,0.585,1.411,0.882,2.149
		c-0.233,0.473-0.714,1.411-0.946,1.885c-31.483,3.166-27.415-14.879-29.072-20.33c-1.819-7.515,6.29-14.785,14.676-21.774
		c-0.898-3.689-0.441-8.228,2.959-10.514C603.556,1461.926,606.788,1457.82,611.014,1454.917 M625.979,1453.016
		c-6.825,2.735-12.647,7.378-18.173,12.126c-2.294,2.574-7.194,3.264-6.873,7.571c6.031,2.109,12.495,0.104,18.493-1.179
		c12.139-3.053,21.649-4.147,19.993-9.688c-1.307-1.973-3.97-3.096-6.231-2.141c-3.064,0.746-5.245,3.104-7.683,4.916
		c1.893-4.283,6.408-7.731,11.236-7.218c6.949,1.406,6.17,7.712,3.89,10.161c-4.166,5.022-27.959,10.829-36.361,11.059
		c-2.927,0.265-5.734-0.962-7.755-3.031c-3.553,5.405-8.75,9.744-11.204,15.839c-1.82,4.94,2.197,9.936,6.841,11.228
		c8.348,3.199,34.501-6.969,36.273-14.901c-16.762-6.61-31.519,1.168-29.384,2.887c3.817,1.115,7.859,0.353,11.757,1.019
		c-2.744,3.889-19.979,5.661-17.772-1.86c1.019-3.705,4.523-6.039,7.867-7.515c13.791-5.773,25.819-1.457,26.714-1.379
		c2.751,0.257,4.667,2.51,6.68,4.178c8.437-10.995,18.221-21.012,29.553-29.015C654.673,1447.186,637.796,1447.767,625.979,1453.016
		 M675.557,1456.224c-28.101,13.158-58.336,58.65-72.178,86.533c0.842-0.305,1.644-0.69,2.398-1.171
		c12.631-10.875,30.7-12.118,43.315-23.033c10.177-8.91,22.568-14.676,33.314-22.784c12.947-9.684,5.149-27.18,5.59-32.801
		c0.89,0.946,1.965,1.965,2.286,3.336c8.428,35.647-2.982,27.948-41.43,59.41c-17.755,13.648-32.869,8.639-48.72,29.088
		c-0.69-0.289-1.371-0.561-2.045-0.818c-0.954,2.005-1.756,4.066-2.438,6.199c22.49-1.232,78.991-23.226,89.645,2.55
		c0.938,0.112,1.596-0.281,1.973-1.179c8.145-13.552,18.829-21.773,14.684-63.155c-45.65,34.285-40.725,37.183-36.273,42.825
		l-0.481,0.537c-3.97,0.208-7.346-4.066-6.48-7.94c3.837-23.865,69.44-49.189,60.99-69.675c-7.577-7.004-21.38-3.722-29.625-4.058
		c-1.476,0.04-3.023-0.217-4.427,0.289c-7.356,9.846-15.736,13.311-12.976,31.814c0.353,2.719,1.427,5.349,1.275,8.14
		c-6.095-8.405-8.397-20.482-3.216-29.89c3.344-6.408,9.431-10.867,12.599-17.387
		C680.433,1453.232,678.147,1455.157,675.557,1456.224 M547.658,1537.159c8.019,58.774,97.701,58.718,114.458,48.583
		c0.345,0.193,1.026,0.585,1.371,0.778c8.766-3.248,15.085-10.73,19.592-18.646c1.744-10.063-18.729-14.328-37.933-10.69
		c-15.671,1.716-30.892,6.143-46.538,7.94c-4.74-0.128-9.439-0.978-14.123-1.66c-31.872-13.95-23.156-27.597-20.587-38.487
		c-2.847-4.154-4.98-8.725-6.44-13.545C548.597,1516.42,546.383,1527.824,547.658,1537.159 M565.181,1526.613
		c-7.634,21.418,12.653,32.605,29.168,33.402c1.476-8.028,4.587-15.606,7.683-23.105
		C589.062,1545.167,572.589,1535.241,565.181,1526.613z"/>
	<path class="st0" d="M467.269,1503.203c0.625,1.067,2.438,2.839,3.072,0.762c1.788,0.096,3.577,0.048,5.373-0.104
		c0.04,0.193,0.128,0.569,0.168,0.762c-1.941,0.313-3.841,0.818-5.694,1.468c0.866,1.395,1.62,4.603,3.849,3.192
		c0.411,3.577-2.686,0.256,27.844,32.319c20.113,21.25,33.945,39.931,28.663,75.706c-0.682,9.431-4.234,18.317-5.935,27.532
		c-4.724-6.762,11.768-46.977-7.506-77.615c-8.012-14.877-20.899-26.088-31.806-38.703c-2.422-2.213-3.817-5.638-6.961-6.929
		c4.219,40.798-16.19,65.638,34.1,112.95c10.613,10.286,10.174,10.371,10.41,13.024c-5.578-3.656-33.532-25.8-44.477-52.072
		c-11.605-29.141,5.653-70.896-4.234-80.229c-3.755,32.137-89.498,95.483-99.1,93.333c-1.516-1.051-1.147-3.096-0.577-4.539
		c7.218-17.555,11.893-36.057,19.408-53.492c14.219-34.213,39.717-36.888,73.004-45.672
		C466.964,1504.47,467.164,1503.628,467.269,1503.203 M380.527,1601.91c10.997-3.529,64.888-46.819,73.14-59.041
		c2.18-1.794,14.824-15.726,18.951-29.729c-1.107-2.382-3.039-4.251-4.218-6.592C402.505,1517.563,399.176,1541.438,380.527,1601.91
		z"/>
	<path class="st0" d="M793.279,1513.725c1.604-1.403,3.448-2.55,5.678-2.526c-1.043,1.492-2.711,2.318-4.13,3.384
		c1.147,1.155,2.558,1.997,4.162,2.406c6.476,7.335,61.964,32.228,67.029,45.352c14.633,15.458,18.599,43.689,18.221,64.88
		c-2.871-2.807-2.799-7.105-3.521-10.779c-6.726-62.296-40.657-68.922-71.512-89.396c-0.545-0.136-1.644-0.401-2.189-0.529
		c0.281,1.331,0.73,2.622,1.323,3.898c-0.417,0.521-0.842,1.051-1.259,1.596c-2.77-10.086-3.333-8.3-5.502-8.637
		c1.961,28.189-37.833,84.487-57.076,106.582c-2.671,2.63-5.261,6.464-9.519,6.015c-0.946-1.821-1.051-3.858-0.609-5.806
		c1.131-5.301,0.144-10.73,0.898-16.056c1.442-10.505-1.266-26.867,3.986-50.621c7.997-27.061,47.347-47.495,52.714-49.001
		c-0.265-0.433-0.802-1.307-1.067-1.74C791.498,1512.995,792.685,1513.477,793.279,1513.725 M739.819,1615.648
		c0.289,4.082-1.179,8.068-0.642,12.158c5.626-3.05,22.883-27.919,26.345-32.913c33.116-49.322,31.998-61.371,33.362-75.041
		c-1.925-1.62-3.986-3.08-5.983-4.595C735.589,1550.562,740.518,1557.941,739.819,1615.648z"/>
	<path class="st0" d="M457.645,1517.775c-0.176,1.059-0.297,2.558-1.772,2.518c-19.065,4.361-33.761,23.597-44.421,38.03
		c-2.238,3.296-2.671,7.418-4.611,10.859C396.688,1570.655,435.079,1516.392,457.645,1517.775z"/>
	<path class="st0" d="M783.888,1531.24c0.008,0.585,0.024,1.764,0.024,2.358c-14.776,4.469-31.005,36.325-27.371,52.489
		c0.144,1.957,3.136,4.034,0.658,5.678C745.396,1580.945,764.462,1535.819,783.888,1531.24z"/>
	<path class="st0" d="M807.506,1533.325c0.449-0.577,0.914-1.123,1.404-1.636c12.522,30.972,2.332,61.354,64.872,90.904
		c1.853,0.578,3.625,3.625,5.582,1.692c0.072,0.553,0.208,1.66,0.281,2.214c0.946,0.345,1.901,0.714,2.863,1.107
		c0.2,0.473,0.601,1.427,0.802,1.901c-7.585-1.661-39.727-15.627-54.895-34.333C813.651,1580.182,813.432,1551.494,807.506,1533.325
		z"/>
	<path class="st0" d="M819.992,1545.948c-1.379-0.85-4.347-2.606-1.812-4.058c41.191,25.976,38.551,46.855,40.444,55.513
		c-0.553-0.104-1.668-0.313-2.221-0.409C853.869,1585.213,854.715,1569.231,819.992,1545.948z"/>
	<path class="st0" d="M487.992,1544.705c1.419-1.315,2.358,0.77,2.342,1.949c2.469,13.741,19.992,34.031,17.724,62.666
		c-0.385-0.008-1.139-0.032-1.524-0.04c-2.242-11.709,2.9-13.879-14.291-50.172C490.221,1554.562,487.502,1549.83,487.992,1544.705z
		"/>
</g>
</svg>
