<?xml version="1.0" encoding="UTF-8" standalone="no"?>
<!-- Created with Inkscape (http://www.inkscape.org/) -->
<svg xmlns:dc="http://purl.org/dc/elements/1.1/" xmlns:cc="http://creativecommons.org/ns#" xmlns:rdf="http://www.w3.org/1999/02/22-rdf-syntax-ns#" xmlns:svg="http://www.w3.org/2000/svg" xmlns="http://www.w3.org/2000/svg" xmlns:sodipodi="http://sodipodi.sourceforge.net/DTD/sodipodi-0.dtd" xmlns:inkscape="http://www.inkscape.org/namespaces/inkscape" viewBox="0 0 441.67145 585.42114" id="svg2" version="1.1" inkscape:version="0.91 r13725" sodipodi:docname="funnyKaninchen.svg">
  <title id="title4778">funny rabbit</title>
  <defs id="defs4"/>
  <sodipodi:namedview id="base" pagecolor="#ffffff" bordercolor="#666666" borderopacity="1.0" inkscape:pageopacity="0.0" inkscape:pageshadow="2" inkscape:zoom="0.98994949" inkscape:cx="86.887185" inkscape:cy="225.70753" inkscape:document-units="px" inkscape:current-layer="layer3" showgrid="false" inkscape:snap-global="false" inkscape:window-width="1200" inkscape:window-height="1051" inkscape:window-x="177" inkscape:window-y="83" inkscape:window-maximized="0" showguides="false" fit-margin-top="1" fit-margin-right="1" fit-margin-bottom="1" fit-margin-left="1"/>
  <metadata id="metadata7">
    <rdf:RDF>
      <cc:Work rdf:about="">
        <dc:format>image/svg+xml</dc:format>
        <dc:type rdf:resource="http://purl.org/dc/dcmitype/StillImage"/>
        <dc:title>funny rabbit</dc:title>
        <cc:license rdf:resource="http://creativecommons.org/publicdomain/zero/1.0/"/>
        <dc:date>2014-02-03</dc:date>
        <dc:creator>
          <cc:Agent>
            <dc:title>Frank Tremmel</dc:title>
          </cc:Agent>
        </dc:creator>
        <dc:contributor>
          <cc:Agent>
            <dc:title>rejon - clipart request: 
https://openclipart.org/detail/213594/bunny-outline-by-rejon-213594</dc:title>
          </cc:Agent>
        </dc:contributor>
        <dc:subject>
          <rdf:Bag>
            <rdf:li>funny</rdf:li>
            <rdf:li>rabbit</rdf:li>
            <rdf:li>hare</rdf:li>
            <rdf:li>animal</rdf:li>
            <rdf:li>requestfilled</rdf:li>
            <rdf:li>request+completed</rdf:li>
            <rdf:li/>
          </rdf:Bag>
        </dc:subject>
        <dc:description>Clipart request from rejon.
new drawn and given a brown background.
</dc:description>
      </cc:Work>
      <cc:License rdf:about="http://creativecommons.org/publicdomain/zero/1.0/">
        <cc:permits rdf:resource="http://creativecommons.org/ns#Reproduction"/>
        <cc:permits rdf:resource="http://creativecommons.org/ns#Distribution"/>
        <cc:permits rdf:resource="http://creativecommons.org/ns#DerivativeWorks"/>
      </cc:License>
    </rdf:RDF>
  </metadata>
  <g inkscape:groupmode="layer" id="layer3" inkscape:label="Ebene 2" transform="translate(-115.46892,-150.79785)">
    <path style="fill:#ffffff;fill-opacity:1;fill-rule:evenodd;stroke:none;stroke-width:1px;stroke-linecap:butt;stroke-linejoin:miter;stroke-opacity:1" d="m 378.25195,155.82422 c -0.59583,0.0159 -1.20469,0.052 -1.82422,0.10937 -14.18556,1.47772 -27.45887,12.06427 -40.71289,22.85743 0,0 -17.5358,2.37861 -30.71484,22.85742 -10.3302,-1.23307 -28.98653,18.55786 -30.71484,28.92773 -5.17706,1.52464 -27.47196,4.9475 -29.64258,56.42969 -15.13116,16.14204 -29.65963,38.61867 -43.92774,58.21289 -8.42639,16.8669 -18.28598,32.54077 -15.71484,58.57227 -11.25374,9.6187 -21.28548,15.11867 -33.92773,32.5 -10.12969,13.92693 -15.28789,21.91503 -17.85743,34.64257 -0.56541,2.80063 13.92774,20.71485 13.92774,20.71485 12.12156,6.21887 21.28003,16.38825 38.57226,15.71289 10.22472,-0.73212 19.06011,-3.31389 26.42774,-7.85547 l 0.71484,5 c -14.05041,13.08266 -28.47947,24.46255 -40.71484,45.71289 -7.33997,-13.73846 -16.47505,-15.98056 -28.57031,0.71484 -2.27547,4.6552 -3.73449,8.79335 -3.57227,23.57227 -11.66633,-3.69013 -14.38849,7.85605 -16.42773,13.92773 -3.7602,11.19566 -7.65978,17.47835 2.5,35.35743 -9.91004,10.57017 -2.78092,19.24187 3.21289,31.07031 13.44738,9.40071 23.03534,15.85742 32.5,16.42969 -7.4264,11.4264 -14.0999,17.71329 -10.35743,38.92773 3.07245,6.588 3.36738,14.87467 22.85743,11.42969 14.10691,7.09886 27.7877,15.37309 49.28711,2.14258 14.59385,5.96131 22.77654,7.31794 46.42773,-3.57227 11.9118,-5.20765 26.9571,-27.03418 37.14258,-32.14258 9.51616,-3.63414 23.23359,-5.51652 22.14258,-13.57031 10.55593,1.3153 13.69277,0.51078 17.85742,0 14.52381,0.0485 29.04845,-0.55503 43.57226,5 17.1653,6.94789 29.8592,14.78979 55.71289,20 14.86169,0.2613 28.07167,5.06648 46.42969,-4.28711 8.67583,2.3029 26.56569,3.3571 40.71485,-10.71289 12.11477,-2.08813 12.15057,-8.56982 14.28515,-14.28711 0.18542,-2.99498 11.56652,-31.77931 -5,-46.42773 -13.24316,-3.35308 -25.0673,-14.51165 -40,-8.57227 5.09594,-11.59849 6.57258,-17.60424 21.42774,-44.28516 0.49654,-14.31051 12.9049,-17.79418 -15.71289,-58.57226 12.69204,-14.7425 14.41914,-26.43835 10,-36.42774 6.18073,0.49569 13.30308,-3.03753 20.35546,-4.28515 6.71364,-3.50917 9.41354,-13.30148 7.14454,-23.21485 -8.90485,-17.71526 -15.25322,-26.58787 -23.21485,-33.92773 -3.6243,-4.1711 -6.36574,-8.9306 -7.14258,-15 5.45282,-7.4861 11.35272,-12.96121 15,-28.57227 L 535,369.50586 l 6.42773,-13.57227 c 3.14207,-1.17274 5.08242,-32.7071 -12.85546,-47.14257 l 8.57031,0.71484 c 1.93603,-4.49094 2.87932,-9.39671 -6.42774,-18.57227 3.76868,-5.79299 -0.29885,-7.10773 -2.85742,-9.28515 -10.43048,-8.61714 -22.99456,-15.1004 -30,-27.14258 -2.14285,-3.09524 -0.4762,-5.23922 5,-6.42969 2.48073,-9.03078 -2.21139,-30.5105 -31.42969,-42.85742 0.98924,-13.31515 -8.13897,-20.72709 -30,-20.71289 -10.1862,-13.0983 -21.62401,-24.03561 -42.14257,-19.28711 -5.75726,-5.32659 -12.09569,-9.63341 -21.03321,-9.39453 z M 264.28516,383.07617 c 9.6584,7.51458 12.45979,18.1476 31.42968,21.42969 2.85203,4.76958 6.19561,8.80154 10,12.14258 l -8.57226,2.85742 -0.71485,3.57031 -32.85546,16.42969 c 15.24107,-25.68589 7.73306,-40.94687 0.71289,-56.42969 z" id="path4773" inkscape:connector-curvature="0"/>
    <path style="color:#000000;font-style:normal;font-variant:normal;font-weight:normal;font-stretch:normal;font-size:medium;line-height:normal;font-family:sans-serif;text-indent:0;text-align:start;text-decoration:none;text-decoration-line:none;text-decoration-style:solid;text-decoration-color:#000000;letter-spacing:normal;word-spacing:normal;text-transform:none;direction:ltr;block-progression:tb;writing-mode:lr-tb;baseline-shift:baseline;text-anchor:start;white-space:normal;clip-rule:nonzero;display:inline;overflow:visible;visibility:visible;opacity:1;isolation:auto;mix-blend-mode:normal;color-interpolation:sRGB;color-interpolation-filters:linearRGB;solid-color:#000000;solid-opacity:1;fill:#000000;fill-opacity:1;fill-rule:evenodd;stroke:none;stroke-width:1px;stroke-linecap:butt;stroke-linejoin:miter;stroke-miterlimit:4;stroke-dasharray:none;stroke-dashoffset:0;stroke-opacity:1;color-rendering:auto;image-rendering:auto;shape-rendering:auto;text-rendering:auto;enable-background:accumulate" d="m 378.51367,154.3418 c -14.03753,0.0916 -28.96521,9.48787 -41.64648,22.93359 -10.12557,0.64517 -22.0663,8.04784 -32.08008,22.45703 -13.80807,2.66374 -26.23265,15.6052 -31.32227,29.41016 0.0527,-0.47728 0.0469,-0.79102 0.0469,-0.79102 -17.37272,5.5353 -30.0757,26.97176 -29.73828,57.69336 -3.50295,2.78664 -6.56002,5.69103 -8.70899,8.61524 -16.18372,22.02203 -29.11644,41.07938 -40.49804,59.75195 -10.71313,17.57589 -13.31342,45.38599 -12.04883,49.3457 -7.11589,5.61984 -15.54789,12.63416 -20.61524,18.09375 -9.88472,10.64989 -20.10601,21.50637 -26.23242,34.81446 -1.33623,2.9026 -2.4445,6.3178 -3.2832,9.49609 -0.83871,3.17829 0.27429,6.47391 2.64844,11.47461 1.81626,3.8256 3.41147,6.67127 5.55859,9.54687 7.04824,9.43954 16.11892,16.1355 36.91602,21.41407 5.80242,1.47273 13.63647,-0.14683 20.54296,-2.11133 6.17904,-1.75758 11.37033,-2.37352 12.44727,-2.49024 0.005,0.91013 -0.64961,0.71643 -0.56055,1.58008 -16.7057,12.37424 -26.97812,25.06948 -36.1582,40.41406 -0.38493,-0.73621 -1.76181,-0.0582 -2.3418,-1.01367 -0.99359,-1.63682 -2.72963,-3.51117 -6.83203,-6.16406 -2.19295,-1.41812 -4.26927,-2.09302 -6.17578,-2.2207 -1.90651,-0.12769 -3.64359,0.29117 -5.1582,1.06445 -3.02923,1.54656 -5.23694,4.27183 -7.07422,6.38672 -8.04763,9.2636 -7.49486,18.89109 -8.07422,28.46094 -0.72204,-0.27716 -1.02837,0.55294 -2.20898,0.26562 -1.03562,-0.25203 -2.14375,-0.44109 -3.22461,-0.38867 -1.08086,0.0524 -2.17826,0.45191 -2.99805,1.40234 -9.52455,11.04241 -9.38533,21.56496 -10.57813,31.64649 -0.42646,3.60444 0.51718,7.94843 1.98047,11.53125 1.27705,3.12681 2.31387,4.71607 2.63672,5.30664 -0.37187,0.39392 -0.31705,1.09032 -1.17969,2.20312 -1.16144,1.49827 -2.44969,3.28743 -2.71875,5.21875 -1.24183,8.91394 3.06133,18.39676 8.47071,25.23438 6.06955,7.67212 15.04557,11.68964 23.70508,15.375 1.66915,0.71037 3.12281,1.38242 5.1289,1.68359 0.79331,0.1191 1.81712,0.57338 2.41797,0.64453 -10.80588,11.32589 -9.7537,18.96491 -11.83984,27.28907 l 0.33008,3.85156 c 0.84164,4.86757 0.3456,7.69402 3.39648,11.47851 0.90375,1.0776 1.22081,2.05646 1.97852,2.63477 6.32642,6.362 15.34361,5.87824 23,5.19141 6.29033,6.80875 17.0316,9.94387 25.42382,9.57421 8.31283,-0.36616 16.01487,-2.6828 21.83399,-6.98242 15.47324,8.28116 34.09418,4.59431 47.7539,-4.06445 3.98597,-3.13651 8.51956,-5.6828 11.95313,-9.41602 8.50593,-9.24827 19.12731,-19.39851 26.3457,-23.38086 7.30707,-1.44692 12.14218,-4.01167 15.40039,-5.88867 3.10804,-1.79048 4.90166,-3.90997 6.35742,-6.22461 9.36731,1.39274 19.08032,1.26905 28.45899,-0.11523 12.61658,-0.11431 26.7861,1.42073 37.03711,7.21484 22.06037,12.46904 39.61858,15.35481 57.42383,18.2793 15.32225,2.51666 32.57966,-1.23368 37.63476,-5.00977 9.42103,2.31162 18.53408,1.15661 25.86328,-1.43359 7.12237,-2.5171 12.29948,-5.31095 14.88873,-8.84986 2.12047,-0.31493 5.05609,-0.5502 7.13471,-1.54272 2.10566,-1.00543 4.12497,-4.5877 6.00586,-7.08984 8.26766,-10.99848 8.03896,-21.43886 7.35938,-30.42969 l -1.01172,-13.38477 c -0.45473,-6.01584 -4.76848,-10.04621 -8.32422,-12.73828 -3.55574,-2.69208 -7.77722,-3.40955 -11.14649,-4.7539 -7.63161,-3.04505 -14.94143,-5.0794 -22.45312,-4.85938 -1.7757,0.052 -3.31096,-0.52366 -4.96875,-0.64648 1.91676,-3.936 3.75285,-7.86247 5.96484,-11.70703 4.6586,-6.98126 6.27493,-12.82814 9.28711,-18.29297 1.35732,-2.47895 4.21965,-5.72897 5.41211,-9.98242 2.38492,-8.50689 3.80912,-20.26918 1.0918,-29.56836 -3.8115,-13.0437 -12.83725,-24.51147 -16.65625,-28.51563 5.29456,-4.99889 7.69521,-11.50702 10.3789,-17.75976 2.78992,-6.50023 3.68086,-11.57121 1.55469,-17.53321 3.29751,-0.22046 8.4428,-2.10898 13.23438,-3.20703 4.12528,-0.94536 7.50424,-3.77316 9.6914,-7.86133 2.18716,-4.08816 3.23754,-9.4371 2.89453,-15.65039 -0.46726,-8.46389 -6.5059,-15.34691 -10.81445,-21.83593 -5.37938,-8.10178 -8.1499,-11.16076 -15.32422,-18.80079 -0.9067,-0.96555 -3.90008,-5.83008 -4.2168,-7.81445 -0.31668,-1.98437 -0.45703,-3.60937 -0.45703,-3.60937 l -0.21289,0.0176 c 7.10377,-8.08595 11.03022,-14.69627 12.9336,-20.42187 0.83449,-2.51027 1.01901,-2.98481 1.1914,-5.19531 0.33163,0.2008 0.81331,-1.35799 1.2168,-1.34961 1.30456,0.0271 2.51477,-0.78352 4.19531,-2.36719 6.78604,-11.6655 9.17881,-20.64447 7.09571,-29.74414 l -0.002,-0.0234 c -1.19891,-10.68225 -2.18965,-18.27316 -9.25781,-28.14258 1.27376,-0.25958 1.93732,-0.82667 2.44922,-1.2539 1.78469,-1.4895 1.98242,-2.57529 2.16992,-5.42578 l 0.008,-0.11914 -0.0215,-0.11914 c -0.38164,-2.18161 -0.857,-4.53486 -2.20703,-7.71876 l -0.0293,-0.0703 -0.041,-0.0645 c -2.2636,-3.6551 -1.80567,-4.20614 -4.13477,-5.29688 0.52042,-0.12485 -0.33984,-1.92382 -0.33984,-1.92382 0,0 1.11616,-1.30105 1.13281,-2.44336 0.0166,-1.14232 -0.23384,-3.09252 -0.96094,-4.10352 -1.02401,-1.66998 -1.24968,-2.12198 -2.25391,-3.33398 -13.81799,-6.53893 -22.1485,-14.77413 -29.58398,-26.04102 -0.25648,-0.911 -1.54385,-2.55077 -1.45313,-2.88672 0.0958,-0.35446 0.2435,-0.51788 0.56836,-0.71679 0.64972,-0.39783 2.00909,-0.57324 3.32032,-1.08008 l 0.55664,-0.21485 0.0762,-0.59179 c 0.20462,-1.59097 0.93428,-3.10172 1.2793,-5.01953 0.34501,-1.91782 0.17984,-4.21208 -1.40039,-7.0254 l -0.17774,-1.60351 c -4.96873,-14.40287 -13.09547,-20.17373 -20.80078,-26.42773 -2.7064,-2.19668 -5.55955,-3.81648 -8.46289,-5.04493 1.85411,-10.84455 -12.50707,-22.85943 -30.93555,-19.63476 -11.77425,-16.69206 -26.86687,-24.17638 -42.40429,-19.69922 -6.80815,-6.87448 -14.47651,-9.8156 -22.4336,-9.76367 z m 0.0899,4.46875 c 7.2017,-0.10622 13.66945,2.04328 18.57226,6.62109 -5.0143,2.06767 -10.05142,5.37994 -15.01367,10.0625 -1.73867,3.8654 0.79814,2.03253 3.23242,0.33398 24.14288,-19.74369 42.66511,-4.97031 54.09961,8.80079 0.53203,-0.10936 0.62278,-0.12145 1.02344,-0.20118 -3.3609,0.85977 -6.8283,2.21729 -10.33985,4.19727 l 3.09961,0.9707 c 26.41846,-7.50128 34.59986,3.47263 37.38672,12.51172 -4.52231,-1.42626 -9.07602,-2.06672 -13.32031,-2.50976 l -0.40039,1.95898 c 8.10518,2.61604 15.93085,5.10003 23.98828,10.13867 8.05744,5.03863 16.13829,11.60086 20.98047,25.63672 l 0.0293,0.084 c -1.30296,2.43089 0.17329,4.47244 -0.043,5.76953 -0.24783,1.37761 0.45135,2.82572 0.13086,4.47265 -0.91172,0.26793 -2.0703,0.40394 -3.17774,1.08203 -0.63502,0.38883 -1.04394,-0.3894 -1.27734,0.47461 -0.23339,0.86401 -1.40109,-0.10245 -1.0332,1.11524 l -0.3125,1.74609 0.49804,2.41406 c 7.50454,11.39828 17.11252,22.78476 31.31446,29.57032 0.92238,0.96737 1.40962,0.77646 2.00586,1.60547 0.61824,0.85966 0.59123,1.53274 0.58593,1.89648 -0.005,0.36374 0.0583,0.57714 -0.74804,1.26953 -2.09456,0.85434 -3.6349,-1.04996 -5.65235,-1.37891 l -0.66992,2.59571 c -0.0505,1.85728 8.30893,2.83725 11.61523,8.14062 1.22068,2.90054 1.65372,4.97674 2.01954,7.05274 -0.17658,2.3869 -0.41134,2.7592 -1.42383,3.17773 -1.02895,0.42534 -2.90112,0.0918 -5.3418,-1.0039 -1.70058,-0.61809 -3.06339,1.15427 -1.39062,2.53125 9.1807,10.00938 11.47423,18.37192 12.82226,30.38281 0.11359,7.21725 2.23492,11.21155 -7.08984,27.16211 -1.46465,1.34995 -1.55604,1.0498 -1.79102,1.04492 -0.72533,-0.15374 -0.99759,0.0525 -1.12304,-0.22266 -0.23042,-0.76336 -0.16738,-0.87803 -0.29297,-2.08789 -0.114,-1.09816 -0.26347,-2.18658 -0.56836,-3.16992 -0.0111,-0.0562 -0.006,-0.12171 -0.0176,-0.17773 0.36019,-0.89418 -1.5556,-4.08397 -1.96094,0.39453 0.45882,4.47058 0.33129,9.68978 -1.58398,15.45117 -4.01525,7.81198 -21.09625,34.12025 -13.98438,11.44531 -0.33802,-2.17189 -1.05658,-1.80682 -1.89648,-0.63281 -0.002,0.007 -0.004,0.011 -0.006,0.0176 -6.5e-4,0.002 -6.2e-4,0.004 -0.002,0.006 -1.90774,5.9538 -2.35335,12.63492 -6.09376,17.00976 -9.19528,8.2408 -18.08479,14.47643 -29.63867,20.06055 -9.16795,4.43097 -19.75657,7.85167 -35.33398,11.56641 -7.74135,1.84608 -22.803,3.24997 -39.66211,1.95507 -16.85912,-1.2949 -35.38128,-5.1979 -50.62305,-11.13867 -1.32146,-0.7641 -3.56283,1.36598 -0.91601,2.93555 2.21911,0.86494 2.01333,0.96906 4.35351,1.75195 -8.7358,3.25132 -14.8178,6.57111 -25.99609,19.4336 l -4.49414,-0.0742 c -7.15096,-1.63832 -10.28463,-0.47406 -17.45703,-0.26953 -7.44602,0.21232 -17.81139,3.28364 -26.40821,6.28125 -8.59681,2.9976 -15.38867,5.94337 -15.38867,5.94335 -3.05651,4.04774 0.38502,2.24645 1.6875,2.3711 0,0 5.65837,-2.73967 14.17969,-5.71094 8.52131,-2.97128 18.86802,-5.43691 25.80664,-5.63476 13.53414,-0.38593 27.40648,1.87019 38.92188,8.78515 12.51382,7.51458 21.89593,19.24772 28.36718,32.44141 7.5058,15.30292 11.69777,31.05027 10.61524,48.0664 -0.2467,3.87788 -1.63952,11.72662 -3.52344,16.54883 -1.85791,4.75564 -4.13833,5.89828 -5.4375,8.67969 -7.41212,9.15657 -15.23021,11.14779 -26.23828,10.78711 5.78199,-3.55206 9.3723,-8.52971 9.33984,-16.49023 -0.15817,-2.30449 0.43032,-6.63512 -2.89258,-0.34961 0.0311,7.62423 -4.35763,11.8838 -10.12304,15.10156 -5.7654,3.21776 -12.90719,5.25344 -18.65235,3.91992 -7.01854,-1.62908 -10.1605,-3.49143 -12.24218,-5.44141 -2.0485,-1.91887 -1.20034,-3.05413 -3.82422,-5.31054 3.73636,-1.10066 5.5404,-3.06807 8.40429,-5.30664 3.26746,-2.55402 6.40087,-6.53286 8.08204,-8.9961 0.87297,-2.05897 2.38333,-6.63391 1.5332,-7.05273 -3.3034,-1.62744 -2.60577,1.36445 -4.9707,4.85547 -1.55145,2.27317 -3.14311,6.12862 -6.23438,8.54492 -6.18254,4.8326 -14.80042,6.7578 -23.56055,2.35937 -16.72907,-8.39961 -20.09693,-25.96771 -20.16406,-26.22851 -2.32627,-10.66047 -2.98099,-19.18544 -1.24805,-33.61328 1.6066,-4.8425 -0.39809,-4.56736 -1.46484,-0.31836 l -2.1582,23.67578 c -11.90813,0.88952 -22.70051,0.0673 -34.40039,-3.57617 l -2.86914,-1.07617 -3.40235,-1.42969 c -3.55181,-1.49319 -5.19516,-3.00249 -9.57422,-9.10938 -4.36874,-6.09254 -5.87662,-11.97613 -2.66601,-24.11133 1.65252,-6.24605 17.03013,-23.99887 25.54492,-35.99804 3.85569,-5.4335 37.09729,-21.12933 55.42578,-29.99219 l 2.5293,-1.52344 1.07031,-3.17383 6.56836,-1.58007 c 7.61798,7.76076 14.57866,11.37972 24.72852,12.97656 4.96417,-0.59879 2.80421,-3.07862 1.70117,-3.99414 -13.10233,-2.06134 -22.4096,-8.23941 -33.23438,-20.81641 2.11624,0.21636 4.26411,0.29511 6.44141,0.19336 0.64885,-1.95215 0.72021,-3.51981 -0.64258,-4.13086 -16.87188,-2.05454 -31.96951,-7.43681 -39.38477,-24.06836 2.85977,-7.28601 3.82433,-14.16263 5.75977,-21.40039 3.15998,-11.81699 3.81206,-24.318 9.02148,-34.91992 1.48522,-3.02262 4.3694,-7.61287 7.61524,-10.66016 3.62643,-3.4046 5.97656,-5.0039 5.97656,-5.0039 0.39093,-2.10977 0.56276,-3.82564 -0.26367,-3.74414 -0.37565,0.037 -0.9569,0.44592 -1.81836,1.35742 0,0 -2.51378,2.64804 -5.42383,6.10156 -2.91004,3.45352 -6.21757,7.68139 -7.88086,11.06641 -5.45139,11.09436 -6.07519,23.7487 -9.16015,35.28515 -1.98628,7.42786 -2.90873,14.8129 -6.47266,21.24024 -1.62073,2.9229 -5.07092,6.96677 -8.0918,10.20898 -3.02087,3.24221 -5.61328,5.71289 -5.61328,5.71289 -0.5353,1.14636 -0.106,1.64966 1.37891,1.44922 0,0 2.53089,-2.75382 5.69726,-5.79883 1.73162,-1.66524 3.28098,-3.17381 4.61133,-4.56445 0.88485,0.89168 2.31361,1.26878 2.93164,2.31445 10.35934,17.5273 8.60381,33.77131 -2.63476,50.32422 l -3.1836,1.01367 c -7.38757,3.79224 -13.25551,5.3273 -20.03515,13.53125 l -7.46485,9.03125 c -8.95988,9.95749 -9.63421,11.88566 -16.22656,23.26368 l -2.89648,6.16796 c -1.2887,3.10603 -0.49295,5.31897 -0.91407,8.06836 -0.15022,0.0222 -6.71494,0.99796 -13.42382,2.90625 -6.78639,1.93034 -14.59879,3.84357 -19.64649,2.70899 -16.44251,-3.69578 -30.81304,-14.48086 -40.26953,-28.60352 -2.86197,-4.27415 -3.89015,-6.98155 -3.17969,-9.67382 0.71047,-2.69232 2.23819,-5.39147 3.96875,-8.36719 7.14682,-12.28902 14.92557,-24.02731 25.07813,-34.28907 9.94109,-10.04799 34.75232,-26.37646 33.19336,-28.45507 l 0.22265,-0.16407 c 3.62283,-3.73186 4.24034,-6.23803 4.59571,-9.3164 0.12701,-2.93083 -1.3185,-1.46038 -2.29102,-1.3125 l -3.93555,9.34961 c -0.16289,0.11894 -4.08238,2.99446 -9.27343,7.01562 0.14147,-6.18349 1.28007,-30.43696 10.48437,-45.84179 14.68265,-24.5737 24.60201,-36.36912 40.81836,-58.43555 4.93915,-6.72096 15.48491,-13.44012 25.01172,-18.86133 9.5268,-5.42121 17.52148,-9.10156 17.52148,-9.10156 1.74703,-1.78664 1.47913,-2.90203 -0.81445,-3.3418 0,0 -8.32933,3.71528 -17.94922,9.18945 -4.94278,2.81269 -10.22305,6.07603 -14.91992,9.56836 -0.47949,-30.76105 13.90513,-50.3294 26.17187,-51.33007 0.042,-0.0848 0.07,-0.15581 0.10938,-0.23829 -0.67723,2.49138 -1.11151,4.98447 -1.24805,7.42383 0.94841,1.07213 1.8973,1.06035 2.84571,-0.24804 2.2251,-19.46897 16.42727,-35.37687 28.32226,-36.28711 -2.61883,4.23971 -5.07334,8.99111 -7.28515,14.27148 1.13375,0.50652 2.33155,1.47322 3.00781,-1.22266 11.39297,-23.90793 27.09007,-33.74366 34.76953,-34.77539 -1.84585,2.17156 -3.63706,4.41657 -5.35156,6.73047 1.06495,0.60529 2.01025,2.0519 3.52539,-0.49414 2.17689,-2.93793 4.47136,-5.65602 6.84375,-8.17383 1.64732,-1.39756 3.04492,-2.59765 3.04492,-2.59765 -0.14871,-0.0177 -0.30136,-0.0246 -0.45117,-0.0391 12.22421,-11.89894 26.26474,-18.34055 38.26758,-18.51757 z M 269.9375,390.32812 c 6.69985,8.7901 15.65507,14.3999 25.62695,16.39063 2.27118,3.45231 4.70796,6.6055 7.30469,9.43555 l -8.1543,3.39843 -1.42773,3.41602 c -9.87401,4.74233 -17.84375,9.33669 -27.88672,14.29687 8.76958,-14.30867 9.95307,-30.58874 3.73047,-46 -0.0331,-0.23151 -0.0787,-0.46787 -0.11328,-0.69726 0.40427,-0.0308 0.71554,-0.10906 0.91992,-0.24024 z m 245.23438,11.01954 c 0.41525,2.68269 0.79453,5.75324 1.91601,8.09961 4.34542,8.81357 13.33802,13.93607 18.26172,21.35156 4.43747,6.68318 8.73262,15.2879 9.89453,20.08594 1.37944,5.69631 -0.18352,11.26201 -2.09766,14.83984 -1.91413,3.57783 -4.67582,5.82949 -8.04492,6.60156 -4.97469,1.14002 -14.7697,1.81349 -16.71094,1.93945 -1.74589,-3.77956 -4.28995,-7.25344 -7.40234,-10.21289 -12.33157,-11.72559 -27.8925,-16.24502 -41.5957,-25.14453 -1.53607,-0.9976 -2.6329,-3.03407 -4.19531,-4.18359 5.46873,-1.98502 7.81333,-3.77135 12.30664,-5.77734 12.2657,-5.47591 21.53273,-11.78641 29.53515,-20.43555 l 0.0781,-0.0606 0.0645,-0.0723 c 1.67038,-1.90834 3.17112,-2.50864 3.89844,-4.66797 0.29532,0.1785 0.84683,-0.74474 1.1875,-0.71289 1.38991,-0.15762 2.12483,-1.05568 2.9043,-1.65039 z m -155.97071,34.0625 c 13.25779,4.14884 27.94548,6.96162 41.46485,8 17.00232,1.3059 32.08783,0.0126 40.28125,-1.94532 7.1182,-1.70104 12.7952,-2.54966 18.36718,-4.47265 0.67271,0.50254 4.13525,3.77833 6.44336,5.27734 14.1448,9.1863 30.00817,13.44991 41.74024,24.60547 7.95687,7.56586 13.61248,17.27987 9.05664,27.89453 -2.78209,6.48198 -6.93733,13.03365 -11.81836,17.50195 -2.1619,1.97909 -4.39612,4.50463 -7.5625,6.22266 -3.00178,1.62873 -5.32647,0.18322 -5.57617,0.29883 -0.44485,-3.65955 -1.13708,-6.15911 -2.51172,-9.91992 -1.44911,-3.96464 -2.06055,-7.04688 -2.06055,-7.04688 -2.61267,-1.85017 -3.8799,-1.34434 -3.79883,1.51953 0,0 1.33549,3.01193 2.75391,6.89258 1.41842,3.88065 1.8909,9.92061 2.19336,13.17188 0.77647,8.34638 2.51999,16.7344 -1.8125,23.17773 -3.84648,5.72053 -9.35258,10.65595 -15.86524,10.55859 -3.79384,-0.0567 -10.58588,-3.11706 -14.94336,-6.82226 -4.35747,-3.7052 -7.62304,-7.40039 -7.62304,-7.40039 -3.25651,-1.1541 -2.13631,0.30035 -1.36914,3.16992 0,0 2.10223,2.80314 6.61523,6.64063 3.48149,2.96032 10.3208,5.59728 11.89453,7.05664 1.44653,1.34141 -3.245,2.90873 -6.03515,4.88867 -4.71835,3.34821 -10.62908,4.81623 -14.57618,4.84179 -5.26297,0.0341 -11.42361,-3.32813 -17.58007,-7.57812 -6.15645,-4.24998 -10.10938,-7.75391 -10.10938,-7.75391 -2.55287,-1.56466 -5.32016,-3.5219 -3.95117,2.10352 0,0 4.81592,4.36145 11.125,8.7168 1.80943,1.2491 2.22676,1.98813 4.20703,3.14648 -2.84269,2.001 -9.16417,7.07881 -20.03125,6.92187 -4.31148,-0.0623 -10.47532,-2.68412 -15.61719,-6.15234 -3.4854,-2.35092 -7.56946,-4.86053 -9.09765,-6.12695 0.22132,-0.54368 0.67786,-2.03408 0.91406,-2.63867 1.91319,-4.89714 2.82829,-11.91907 3.10742,-16.30664 1.10264,-17.33222 -2.76836,-33.00513 -10.40039,-48.60352 3.18127,-5.36638 21.91472,-33.04783 51.35547,-34.85156 23.07523,-1.41374 37.13795,1.45005 48.20312,6.15625 11.06517,4.70621 19.04493,9.41211 19.04493,9.41211 5.75168,4.97879 6.4111,-1.18641 2.98242,-3.07618 0,0 -6.87891,-4.04321 -18.27149,-8.88867 -9.9685,-4.23977 -20.63888,-8.6898 -39.8164,-8.64648 -2.73965,0.006 -9.36188,0.59956 -12.29492,0.7793 -28.75752,1.76186 -47.38093,28.20619 -52.54297,36.5 -6.73977,-12.55472 -17.49026,-24.37322 -29.63477,-31.66602 -5.25138,-3.15346 -9.25998,-5.07342 -15.27734,-6.60352 12.72516,-11.83963 19.40948,-15.15027 28.42773,-18.95507 z m -148.09765,74.03711 c 0.78803,3.66484 2.29769,6.86158 4.2246,9.54882 4.71155,6.5706 11.60039,10.24991 15.80274,11.46289 10e-4,3.7e-4 0.003,-3.6e-4 0.004,0 10.60601,3.30216 22.13585,5.15417 32.96484,4.94336 -1.14571,2.76331 -4.07505,9.81435 -8.30078,19.66211 -5.16855,12.04493 -8.83514,28.5798 -9.05274,39.29883 -0.64864,31.95259 15.46074,43.71255 31.70703,58.89258 13.55327,12.66374 32.23837,19.72889 50.33399,22.98633 -1.17908,1.71179 -2.55056,3.15103 -4.90234,4.50586 -5.69235,3.08792 -10.43521,3.71303 -15.03125,3.9082 -8.54383,0.3628 -16.5802,-2.31247 -29.26954,-4.34766 -9.51227,-1.4856 -18.85961,-2.58022 -28.4414,-3.12304 -9.05106,-0.51276 -21.05174,-0.74566 -26.65235,-1.98243 -6.91625,-1.52724 -11.53977,-4.1638 -14.82812,-6.5332 -3.28835,-2.36939 -3.06377,-3.71825 -3.95703,-6.40625 0,0 -0.35973,-1.482 -0.94922,-1.84375 -0.68095,-0.41787 -2.39648,-0.0137 -2.39648,-0.0137 -1.35643,0.15266 -3.4874,-1.04753 -5.98829,-2.44141 -2.50089,-1.39387 -5.14764,-3.56547 -7.29687,-6.39648 -4.29847,-5.66203 -6.95094,-13.23303 -2.56445,-23.72461 0.19294,-1.28279 -0.15853,-2.02114 -2.30665,-0.96289 -2.29177,5.48156 -2.84275,10.50896 -2.26367,14.95117 -0.89141,-0.51619 -2.09271,-1.3513 -3.49804,-2.71875 -2.9953,-2.91454 -5.96404,-7.51711 -8.625,-16.82031 -0.88864,-3.10687 -0.0336,-8.96749 2.11914,-13.26758 1.07637,-2.15004 2.88381,-3.70272 3.82812,-5.07031 1.71443,-2.48139 2.14417,-2.98077 1.08594,-3.97852 -0.54574,-0.51455 -2.42576,0.5711 -4.57617,2.3125 -0.57235,-0.0839 -1.35491,0.65262 -2.54297,0.35156 -0.85383,-0.21631 -1.73499,-0.49499 -2.42578,-0.81054 -0.69079,-0.31555 -1.28075,-1.9656 -1.37891,-2.11914 -0.92165,-1.44171 -0.44095,-3.71136 0.49219,-6.81055 0.93314,-3.09919 2.20508,-5.70312 2.20508,-5.70312 l 0.0742,-0.15039 0.0312,-0.16602 c 1.15217,-5.36787 10.04797,-12.33779 14.63867,-18.26172 0.89999,-1.91414 0.39572,-2.58005 -1.73438,-1.80078 -2.26559,2.18009 -4.53045,3.79104 -6.625,5.89258 -4.47261,-0.20583 -7.20135,-1.12173 -7.48437,-3.40039 -0.33823,-2.72317 0.0882,-7.04209 0.75195,-8.20508 11.01837,-19.3057 22.86862,-36.26874 42.82813,-51.6582 z m 295.45312,6.29101 c 3.69319,3.91186 13.16686,14.78399 16.76563,27.09961 2.49812,8.54907 1.20094,19.27057 -1.09961,27.47656 -1.15028,4.103 -2.54956,7.58836 -3.76954,9.81641 -2.49167,3.8093 -2.00271,-8.42558 -2.16015,-9.94922 -0.5086,-4.85229 0.11719,-8.45312 0.11719,-8.45312 -2.02457,-2.81327 -3.70357,-4.36242 -3.72852,0.15625 0,0 0.62461,3.7827 1.125,8.55664 0.50039,4.77394 0.85685,10.56273 0.38281,14.3164 -0.61271,4.85179 -2.87679,9.91332 -5,13.62305 -0.52699,0.92077 -1.04481,1.75799 -1.52343,2.49023 5.82437,-10.11934 3.05828,-26.2182 2.95117,-26.2539 -1.70663,-4.58896 -2.47252,-4.19254 -2.4961,0.13867 0,0 -0.99992,20.5468 -4.23828,31.00195 -2.73608,8.83353 -7.76722,17.08354 -13.66601,24.33008 -5.68557,6.98459 -15.5864,12.87768 -24.02149,16.85156 -3.20308,1.50902 -6.18688,2.74477 -8.65234,3.67969 0.0558,-0.0537 0.1144,-0.10423 0.16992,-0.1582 1.74321,-1.6946 3.36442,-4.44975 4.65039,-6.83985 1.28597,-2.39009 2.18555,-4.40625 2.18555,-4.40625 0.34098,-3.12738 0.20772,-5.05521 -2.28321,-1.01953 0,0 -0.86669,1.93787 -2.10546,4.24024 -1.23877,2.30236 -3.34104,4.85163 -4.63086,6.10547 -6.05369,5.88485 -13.58731,9.23535 -21.74219,11.89453 -7.09473,2.31348 -18.62968,4.47988 -28.24805,5.20507 -3.12097,0.23533 -5.89351,0.39167 -8.42578,0.51758 6.22868,-2.66413 12.11652,-6.75443 15.125,-12.47656 1.54232,-2.12173 2.41391,-5.04483 1.89649,-5.41211 4.64288,-1.2536 7.03019,-2.96712 12.47851,-7.09375 5.82021,-4.4083 11.33362,-11.10407 15.77344,-16.30664 2.40211,-2.81479 5.79471,-6.37931 7.65625,-10.3125 1.35094,-2.85436 2.78604,-7.56288 3.48242,-9.96484 6.14694,-4.21621 9.70764,-11.0665 11.78906,-18.16797 2.84624,-9.71091 4.3521,-19.13494 5.47071,-25.63086 2.77023,0.63252 3.40636,-0.0696 6.24023,-1.65039 2.71242,-1.51307 7.2302,-4.94175 11.41016,-11.1582 5.01946,-7.46502 5.28275,-14.39325 4.50586,-22.74219 l 2.55664,-1.82031 c 0,0 0.88963,0.29101 4.13281,-1.46876 2.65033,-1.43803 4.8447,-4.05286 6.92578,-6.21484 z m -348.27148,24.2832 c 1.43287,0.0995 3.04793,-0.34898 4.96484,0.89063 3.92718,2.53959 4.64733,4.59124 5.42188,5.86719 0.65137,1.0731 0.89088,2.78127 1.89062,4.16601 -1.87004,3.28373 -2.91406,5.59065 -4.55273,9.10157 -1.54356,3.30709 -2.88044,8.51747 -1.49219,11.69335 1.13162,2.58879 4.37131,3.10648 8.29687,3.76954 -3.2296,3.50791 -5.7363,7.01449 -6.5,10.72656 0.004,-0.008 0.0625,-0.13867 0.0625,-0.13867 l -0.10547,0.3164 c 0.0113,-0.0595 0.0308,-0.11831 0.043,-0.17773 -0.098,0.20187 -1.32564,2.74359 -2.28906,5.94336 -1.00224,3.32869 -1.89813,7.29385 -0.0781,10.14062 0.56279,0.88036 1.41201,1.36919 2.31835,1.78321 0.90639,0.41402 1.90635,0.72145 2.85157,0.96093 0.69366,0.17575 1.32683,0.30322 1.89453,0.40821 -0.43931,0.77029 -0.88091,1.57538 -1.31055,2.43359 -2.26806,4.53044 -4.31149,10.0152 -3.04492,14.44336 2.7629,9.65963 5.07307,15.82294 8.40039,19.06055 2.75682,2.68251 6.72499,4.06231 7.47656,4.34179 0.88103,3.38281 1.27534,4.59149 3.16016,7.07422 0.14181,0.18679 1.42883,1.2463 1.57422,1.42774 -9.52367,4.43907 -14.46617,8.22756 -22.28711,14.21289 l -2.95703,0.21289 c 0,0 -0.94529,0.23614 -2.8711,-0.0527 -1.92581,-0.28911 -4.35658,-0.63484 -5.53125,-1.13476 -8.62425,-3.67036 -17.13992,-7.18686 -22.72461,-14.2461 -5.10393,-6.45155 -9.05328,-14.45723 -7.95703,-22.32617 0.12277,-0.88125 0.39892,-2.66319 1.46094,-4.0332 1.06203,-1.37001 2.71094,-2.5332 2.71094,-2.5332 2.28228,-0.84618 1.13458,-2.19532 -0.0547,-2.875 0,0 -1.74067,-2.03515 -3.14062,-5.4629 -1.39996,-3.42772 -2.6306,-7.65393 -2.31836,-10.29296 1.18677,-10.03064 2.40861,-19.17461 9.88476,-29.73828 0.10303,-0.1456 0.64853,-1.07437 1.33008,-1.10743 0.68155,-0.0331 1.61347,0.10319 2.51367,0.32227 1.80041,0.43815 3.45508,1.16406 3.45508,1.16406 1.92655,1.12066 1.82323,0.24819 2.63477,-1.55273 0.802,-10.27601 -1.50245,-18.01138 6.29101,-26.98243 1.86617,-2.14814 3.56248,-4.70923 5.94531,-5.92578 1.19141,-0.60827 3.19994,-1.98035 4.63282,-1.88086 z m 111.16015,0.31055 0.27149,1.44922 0.0273,0.11133 c 0,0 3.64595,19.40681 21.41406,28.32812 5.28597,2.65406 7.8301,4.49711 12.54883,3.16602 l 2.07617,0.99023 c 2.417,2.04123 3.47148,4.21263 5.83203,6.42383 2.36055,2.2112 6.29422,4.4293 13.51563,6.10547 5.57001,1.29285 10.98647,0.45796 16.76562,-2.11133 l 4.62891,0.17188 c 12.34402,1.00983 14.90998,0.72709 27.11133,-7.15625 3.27356,-3.04969 5.69541,-5.61253 6.01562,-7.51758 0,0 0.71005,-1.44033 1.74024,-3.82422 1.67205,1.3642 4.26346,3.39815 7.4375,5.53906 5.28902,3.56748 11.82005,6.45872 17.23242,7.33789 15.08478,2.45033 26.75786,-7.43694 26.01953,-9.33789 4.19486,2.20801 8.51279,3.80637 12.39258,3.78125 5.17831,-0.0335 14.42146,-3.86672 19.29101,-7.32226 1.41114,-1.00136 2.12188,-1.55493 2.58985,-2.01172 -0.38931,5.97481 -1.67806,13.83046 -4.03711,20.91015 -3.09303,9.28241 -8.14239,17.8133 -18.67188,20.5625 -1.18844,0.59582 -1.60522,1.7821 0.63086,2.41993 1.82188,-0.33137 3.4879,-0.84709 5.04102,-1.48828 -0.68205,1.56186 -1.58515,3.58931 -2.54492,5.61718 -1.8245,3.85492 -4.24048,8.37129 -6.28711,10.76953 -4.30331,5.04261 -9.96836,10.38541 -15.63281,14.67579 -5.66446,4.2903 -11.38009,7.51161 -15.5,8.40039 l -0.65625,0.14062 -0.24415,0.625 c -0.5846,1.4908 -0.0347,2.84272 0.28321,3.98047 0.31794,1.13775 0.38993,1.99663 0.27929,2.20703 -6.25274,5.37117 -11.40608,7.84591 -18.71679,10.25586 -7.31071,2.40995 -13.64292,5.45507 -20.89063,7.29687 -13.0038,3.30462 -27.86316,4.31686 -40.88867,2.00196 -17.862,-3.17443 -36.49697,-12.67289 -49.62305,-24.9375 -15.89739,-14.85401 -25.83401,-22.15492 -27.38476,-53.99024 -0.47307,-9.71157 1.7299,-23.93018 6.83789,-35.83398 3.67759,-8.57036 8.6031,-14.85622 11.0957,-17.73633 z m 239.14649,75.1875 c 7.32209,-0.13718 14.80638,1.91621 22.28515,4.90039 3.44097,1.37296 7.4257,2.30136 10.56446,4.67774 3.13876,2.37639 6.47849,4.81989 6.83398,10.15429 l 1.00977,15.15235 c -1.01343,17.95754 -4.44412,27.87545 -10.93555,31.5625 -1.47375,0.57934 -2.85488,0.89649 -4.21875,1.14062 0.80551,-1.67052 1.86719,-3.95143 3.04102,-6.77344 2.1276,-5.11502 4.33317,-11.24478 4.50976,-15.86328 0.43079,-11.26662 -2.56353,-17.88642 -5.79492,-21.63672 -3.23139,-3.75029 -6.46949,-5.07084 -6.46949,-5.07084 -0.66219,0.0497 -1.50258,-0.17627 -1.90696,0.88755 -0.12174,0.32026 -0.067,1.53997 1.01707,1.98798 -0.0445,0.31119 2.68634,1.26577 5.46485,3.82813 0.5673,0.52316 5.60212,9.1155 5.18945,19.9082 -0.14794,3.86907 -2.23395,9.98686 -4.31836,14.99805 -1.18762,3.327 -2.66156,6.54135 -4.36577,9.5832 -1.71468,3.06052 -6.75696,5.95538 -13.42329,8.31133 -7.79987,1.90542 -13.60603,2.98851 -22.27149,1.04101 0.8049,-1.39409 2.31532,-4.0441 4.33985,-7.95898 2.69937,-5.21984 5.69306,-11.53631 6.89258,-16.27539 1.31295,-5.18726 -0.67359,-10.63246 -3.01758,-14.68164 -1.172,-2.02459 -2.76022,-4.02064 -3.86255,-5.17895 -1.85654,-1.73659 -3.18893,-2.99103 -4.34989,-1.94619 -1.1447,1.03022 1.02656,3.35508 2.16054,4.42645 0.92809,0.97523 2.05312,2.84758 3.13023,4.70825 2.1542,3.72134 4.57083,7.88906 3.51542,12.0588 -1.08279,4.2779 -4.02279,10.58741 -6.6875,15.74023 -2.66471,5.15282 -2.95131,6.02852 -5.04492,8.61539 -0.25573,0.31598 -0.90078,0.82206 -0.90078,0.82206 -4.98724,3.56452 -24.52808,6.40844 -36.25157,4.95122 -17.54817,-2.23827 -34.50181,-8.18331 -56.72265,-18.08593 -8.97762,-4.00084 -17.9154,-6.29486 -27.80664,-6.97071 0.026,-0.007 0.0522,-0.0129 0.0781,-0.0195 5.84673,-1.4858 12.30365,-3.10534 18.70899,-5.16797 1.25902,-0.0252 8.12235,0.0218 16.93359,-0.64258 9.69698,-0.73113 21.01431,-2.60454 28.58203,-5.07226 6.17849,-2.01471 11.64321,-4.30442 17.03125,-8.12695 0.18118,-0.0415 1.28156,-0.63671 1.50977,-0.69922 0.82264,-0.22534 1.72394,-0.52823 3.14843,-1.0293 2.849,-1.00213 7.20975,-2.16767 11.51367,-4.19531 8.60787,-4.05527 18.31376,-10.37198 24.45313,-17.91406 4.84331,-5.04661 8.08631,-10.30074 10.85156,-15.5879 1.84865,-0.3429 3.71122,-0.5235 5.58399,-0.55859 z m -319.97461,41.58008 c 1.86741,1.91595 4.28615,2.56554 6.28515,3.67969 2.45585,1.36877 6.0326,4.41053 8.08594,4.41601 1.16268,2.91165 1.41698,4.52 4.70703,6.89063 3.58559,2.58356 9.04657,4.08906 15.79883,6.59765 8.7281,3.24267 18.71253,1.27198 27.25391,1.75586 9.53018,0.5399 19.17312,1.50247 28.57422,2.97071 7.10053,1.10894 19.43463,3.19833 24.83593,4.43945 1.87382,1.83649 -6.73668,5.36706 -10.9375,9.59375 -3.46681,3.48816 -7.07177,9.38001 -11.5664,12.92187 l -11.67383,9.19922 c -15.6992,6.06068 -38.60652,11.91509 -46.29492,-0.40625 -0.99503,-1.60303 -2.65938,-5.04164 -2.73047,-6.16015 -0.14997,-2.35946 0.67497,-5.23398 2.26367,-8.48047 1.5887,-3.24649 3.22266,-5.79102 3.22266,-5.79102 0.39127,-2.08918 -0.0985,-1.2787 -1.72461,-0.34179 0,0 -1.32659,2.02043 -2.98633,5.41211 -1.65975,3.39166 -4.36923,7.08326 -4.15235,10.49609 0.12962,2.03941 1.49433,4.15727 2.59571,5.93164 0.48111,0.7751 0.95768,1.44225 1.39062,1.99609 -0.0983,0.0471 -0.19229,0.0947 -0.2539,0.14258 -5.3848,4.18513 -12.27365,5.70883 -20.33203,5.89063 -9.54508,0.21534 -17.26527,-7.40981 -22.85547,-7.85352 -1.47579,0.4073 -3.15662,-0.9736 -2.98633,-2.01367 0.22518,-8.43526 2.66286,-15.03692 10.90234,-24.16992 0.58081,-1.15857 3.08721,-2.33364 -1.98437,-0.66602 -8.59047,9.52205 -11.30213,17.7573 -11.54297,26.66797 -0.0234,0.002 -0.0469,0.002 -0.0703,0.004 -4.47602,0.43229 -8.87957,1.15885 -14.49219,-2.07813 -0.75698,-1.20516 -1.60898,-2.04174 -2.38086,-2.63086 -0.86666,-0.66146 -1.56855,-3.38285 -2.20898,-4.14648 -1.27235,-1.51702 -1.43556,-4.15266 -2.53516,-10.97657 2.14924,-8.7879 0.73874,-16.09991 11.44336,-27.09179 8.31052,-6.39326 16.37383,-11.65153 26.34961,-16.19922 z" id="path4427" inkscape:connector-curvature="0" sodipodi:nodetypes="scccccsscssssssscccssssscscssscsssssccccccsccscsccsscscssssssscccsscscssssscccscsccccscccccccccccccscccsccscccssccccccccccsccccsccccccccccccsccccccscccccccccssscccccssccssssssccccssscscscsscccccccsssccccccccccssscccsssssccscscccccccssssssccccccsssccsccccccccccccccscccccccccccsssscsscscccccccsscssssscsccsssssccsssssccscsscsscssccscccscccscccsssccscssscscsscccssscsccscsccccccssccssccccssscccsssccsccsssscccssscscssccccsscccscccccsccscsssccccccssssccssccsccssscccsccsscccccsscsscscccssscccccsssssscscssccsssscscsscsccssscscssssscscccsscsssccscscsssscssccssccsssccscccccccsccccccsccccc"/>
    <path style="color:#000000;font-style:normal;font-variant:normal;font-weight:normal;font-stretch:normal;font-size:medium;line-height:normal;font-family:sans-serif;text-indent:0;text-align:start;text-decoration:none;text-decoration-line:none;text-decoration-style:solid;text-decoration-color:#000000;letter-spacing:normal;word-spacing:normal;text-transform:none;direction:ltr;block-progression:tb;writing-mode:lr-tb;baseline-shift:baseline;text-anchor:start;white-space:normal;clip-rule:nonzero;display:inline;overflow:visible;visibility:visible;opacity:1;isolation:auto;mix-blend-mode:normal;color-interpolation:sRGB;color-interpolation-filters:linearRGB;solid-color:#000000;solid-opacity:1;fill:#000000;fill-opacity:1;fill-rule:evenodd;stroke:none;stroke-width:2;stroke-linecap:butt;stroke-linejoin:miter;stroke-miterlimit:4;stroke-dasharray:none;stroke-dashoffset:0;stroke-opacity:1;color-rendering:auto;image-rendering:auto;shape-rendering:auto;text-rendering:auto;enable-background:accumulate" d="m 245.47433,388.77037 c 0,0 -1.68622,2.50113 -3.09347,6.27065 -0.96924,2.59625 -3.00379,5.27729 -4.37091,7.33323 -0.64845,0.97517 -0.73156,2.01731 -1.25018,2.45778 -13.24288,11.24728 -28.05134,18.64461 -39.93388,28.99302 -7.40203,6.44638 -14.41782,11.7033 -21.28683,19.08901 -3.08345,3.3154 -6.86689,6.7733 -8.30468,11.50196 -0.66551,2.18874 -2.0377,4.91108 -2.1942,7.90596 -0.1565,2.99488 0.86809,6.25099 2.0067,8.49443 0.87216,1.71845 0.91604,2.31646 4.72042,4.31976 1.79443,0.9449 3.84418,0.70141 6.1716,0.76394 4.65483,0.12506 9.29638,-1.35796 12.97935,-2.76032 8.8761,-3.37974 17.83667,-8.85752 25.53391,-17.08902 4.7606,-5.09102 9.11943,-12.04921 13.14745,-17.4121 4.89087,-6.51169 9.3377,-17.26799 11.33734,-27.0053 1.99963,-9.73732 1.48493,-18.44587 1.48493,-18.44587 l -0.0896,-2.30497 c 1.41498,-2.22024 2.02546,-2.79056 2.9135,-5.25307 1.41169,-3.91458 2.17969,-6.86412 2.17969,-6.86412 -0.68626,-3.18122 -1.68745,-1.69543 -1.95117,0.005 z m -5.41016,16.35212 c -0.1164,1.09983 0.56206,6.76617 -1.26479,15.66211 -1.97707,9.62744 -7.32539,20.80931 -11.78152,26.74219 -10.46378,13.93145 -23.22036,27.49696 -36.8125,32.67243 -3.38327,1.28825 -6.80468,2.4801 -11.14231,2.36356 -2.16881,-0.0583 -5.16899,-0.10951 -6.75557,-0.72043 -1.58658,-0.61092 -1.61404,-1.11406 -2.76311,-2.55719 -1.16155,-1.45879 -1.84939,-3.78234 -1.70257,-6.5918 0.14681,-2.80946 1.15061,-5.56848 2.10825,-7.42941 2.03042,-3.94562 3.89929,-7.5967 7.05386,-10.98856 6.63718,-7.13645 15.09883,-12.54084 22.65234,-19.11914 11.70342,-10.19242 25.33428,-17.01055 38.35547,-28.76367 1.75212,-1.58149 1.52407,-2.05314 2.05245,-1.27009 z" id="path4484" inkscape:connector-curvature="0" sodipodi:nodetypes="cssssssssssssssccsccccsscssssssscc"/>
    <path style="color:#000000;font-style:normal;font-variant:normal;font-weight:normal;font-stretch:normal;font-size:medium;line-height:normal;font-family:sans-serif;text-indent:0;text-align:start;text-decoration:none;text-decoration-line:none;text-decoration-style:solid;text-decoration-color:#000000;letter-spacing:normal;word-spacing:normal;text-transform:none;direction:ltr;block-progression:tb;writing-mode:lr-tb;baseline-shift:baseline;text-anchor:start;white-space:normal;clip-rule:nonzero;display:inline;overflow:visible;visibility:visible;opacity:1;isolation:auto;mix-blend-mode:normal;color-interpolation:sRGB;color-interpolation-filters:linearRGB;solid-color:#000000;solid-opacity:1;fill:#000000;fill-opacity:1;fill-rule:evenodd;stroke:none;stroke-width:2;stroke-linecap:butt;stroke-linejoin:miter;stroke-miterlimit:4;stroke-dasharray:none;stroke-dashoffset:0;stroke-opacity:1;color-rendering:auto;image-rendering:auto;shape-rendering:auto;text-rendering:auto;enable-background:accumulate" d="m 375.20508,251.74805 c -1.31243,-0.018 -2.93167,0.34549 -4.86914,1.16797 l -0.0996,0.043 -7.91797,5.61719 c -6.10865,4.13331 -14.11685,7.27766 -18.54799,15.57143 -2.7049,4.03866 -3.327,7.9341 -3.87971,8.99892 -3.22329,4.99481 -2.0611,6.33449 -2.48553,9.67913 l -0.13367,2.94504 c 1.26797,2.46643 1.53249,3.44498 2.82394,4.24358 1.29145,0.79859 5.48287,1.5333 6.55162,0.77957 2.0923,-1.47558 3.50069,-4.54843 4.67272,-7.33203 4.76144,-4.68115 9.27842,-9.7573 14.10965,-18.28096 4.61729,-1.24144 9.65819,-5.41441 16.01981,-10.46011 l 0.0879,-0.0684 0.0703,-0.0879 c 1.86577,-2.32611 4.2729,-4.06059 3.96708,-6.3139 -0.15291,-1.12665 -0.22482,-3.0394 -1.42634,-3.59988 -2.61438,1.31489 -7.38347,-2.83811 -8.94307,-2.90265 z m 0.22428,2.84625 c -0.60185,1.58658 -1.90716,2.22958 -3.34152,2.87445 -2.67602,1.92875 -1.86403,2.69482 1.16769,2.72099 2.96431,-1.74377 6.55703,-3.93966 9.44378,-2.20536 0.13352,0.9838 -0.88636,3.0855 -2.5957,5.24023 -6.37614,5.04271 -11.72786,8.04648 -15.93164,9.08594 l -0.41993,0.10547 -0.21289,0.3789 c -6.76362,9.26363 -10.21243,11.80873 -14.29604,16.34989 -1.67007,2.18651 -2.07839,6.86412 -4.28401,8.58566 -0.60875,0.42932 -0.92989,0.50328 -1.66796,0.0469 -0.72581,-0.44881 -1.77339,-1.66913 -2.93555,-3.90234 0.47464,-3.43328 0.47486,-6.6708 1.29492,-9.7793 0.82611,-3.13142 3.78396,-5.55445 5.01563,-8.95898 l -0.0586,0.13086 c 4.13115,-7.73227 10.57318,-10.7974 16.84961,-15.04688 l 0.01,-0.006 7.71093,-5.47265 c 1.87891,-0.49758 2.47969,-0.86242 4.25128,-0.14778 z" id="path4494" inkscape:connector-curvature="0" sodipodi:nodetypes="ccccccccsscccccsccccccccccccscscccccc"/>
    <path style="color:#000000;font-style:normal;font-variant:normal;font-weight:normal;font-stretch:normal;font-size:medium;line-height:normal;font-family:sans-serif;text-indent:0;text-align:start;text-decoration:none;text-decoration-line:none;text-decoration-style:solid;text-decoration-color:#000000;letter-spacing:normal;word-spacing:normal;text-transform:none;direction:ltr;block-progression:tb;writing-mode:lr-tb;baseline-shift:baseline;text-anchor:start;white-space:normal;clip-rule:nonzero;display:inline;overflow:visible;visibility:visible;opacity:1;isolation:auto;mix-blend-mode:normal;color-interpolation:sRGB;color-interpolation-filters:linearRGB;solid-color:#000000;solid-opacity:1;fill:#000000;fill-opacity:1;fill-rule:evenodd;stroke:none;stroke-width:2;stroke-linecap:butt;stroke-linejoin:miter;stroke-miterlimit:4;stroke-dasharray:none;stroke-dashoffset:0;stroke-opacity:1;color-rendering:auto;image-rendering:auto;shape-rendering:auto;text-rendering:auto;enable-background:accumulate" d="m 458.40625,242.35547 c -1.13446,0.36608 -2.17022,1.21485 -2.39648,2.47656 -0.18789,1.04768 -0.7083,2.06764 -0.0335,3.44642 -1.18413,0.69001 -1.3987,1.54092 -1.98215,2.25671 -0.74108,0.90916 -2.06677,2.56812 -1.75698,3.51032 3.31508,3.02475 3.95053,3.87908 8.28049,4.75921 4.84064,1.74019 7.04959,1.60636 11.53711,4.56836 9.50597,7.10401 10.30002,11.93313 12.55804,20.53265 0.59228,0.93489 3.21369,2.07033 4.10602,2.13922 0.89233,0.0689 2.17809,1.29959 2.83258,0.87277 0.6545,-0.42682 1.78577,-2.19668 2.34822,-2.6543 1.08488,-2.87463 0.39439,-8.00714 -0.10487,-10.79966 -0.69148,-3.57914 -2.50144,-6.54954 -4.69503,-10.6024 -4.38718,-8.10572 -6.39615,-14.12794 -16.6663,-18.41183 -4.19222,-1.96802 -9.58143,-3.47838 -14.02717,-2.09403 z m 9.97994,3.82366 c 9.68408,4.08091 13.69416,10.25099 17.8842,17.99246 2.10403,3.8874 3.6659,8.11772 4.31138,11.45872 0.62745,3.2477 1.39123,5.23736 0.7288,6.92438 -1.29307,1.13745 -2.20275,1.84044 -3.22266,0.8164 -0.38576,-0.60891 -0.83013,-1.73527 -1.23047,-3.49218 0.6869,-0.74956 -1.49264,-5.42075 -1.84231,-6.24913 -4.17915,-9.59883 -6.49508,-9.80934 -11.32311,-12.99609 -4.79778,-3.16679 -10.23197,-3.25559 -14.9068,-4.92857 -1.88518,-1.04023 -3.3705,-2.1948 -3.57618,-2.82031 -0.10394,-0.31613 -0.36579,-0.98516 0.33594,-1.08594 1.20176,-0.17259 5.99408,1.71148 4.80329,-0.51786 1.77298,-0.60518 1.76007,-1.69543 -0.1236,-3.16462 -0.89689,-1.58836 -1.44005,-0.83956 -1.17466,-2.57366 0.0868,-0.48411 2.2711,-0.69019 3.00724,-0.92774 3.51161,0.76283 3.57152,1.29779 6.32894,1.56414 z" id="path4496" inkscape:connector-curvature="0" sodipodi:nodetypes="cccscccccsccsccccsccccsccscccccc"/>
    <path style="color:#000000;font-style:normal;font-variant:normal;font-weight:normal;font-stretch:normal;font-size:medium;line-height:normal;font-family:sans-serif;text-indent:0;text-align:start;text-decoration:none;text-decoration-line:none;text-decoration-style:solid;text-decoration-color:#000000;letter-spacing:normal;word-spacing:normal;text-transform:none;direction:ltr;block-progression:tb;writing-mode:lr-tb;baseline-shift:baseline;text-anchor:start;white-space:normal;clip-rule:nonzero;display:inline;overflow:visible;visibility:visible;opacity:1;isolation:auto;mix-blend-mode:normal;color-interpolation:sRGB;color-interpolation-filters:linearRGB;solid-color:#000000;solid-opacity:1;fill:#000000;fill-opacity:1;fill-rule:evenodd;stroke:none;stroke-width:2;stroke-linecap:butt;stroke-linejoin:miter;stroke-miterlimit:4;stroke-dasharray:none;stroke-dashoffset:0;stroke-opacity:1;color-rendering:auto;image-rendering:auto;shape-rendering:auto;text-rendering:auto;enable-background:accumulate" d="m 387.31026,305.73605 c -2.28323,-0.14817 -5.59415,0.98746 -7.25195,2.52929 -1.6578,1.54184 -3.50096,3.70172 -4.34626,5.55553 -0.93474,2.04998 -1.2915,4.78715 -0.12528,7.05915 -4.00113,0.43374 -6.93021,3.15554 -9.83482,4.53209 -1.14395,2.15078 -0.16328,2.60187 1.036,2.87807 3.14303,-1.48956 5.21474,-2.36064 8.27371,-2.84961 -0.21955,4.861 0.83082,7.61688 1.75475,12.18443 0.84906,4.19755 4.0856,8.89184 8.56947,9.16462 2.16926,0.13196 4.00384,-0.0342 6.71764,-2.02595 1.83934,-1.34997 3.67006,-2.83133 4.10156,-5.13281 0.91854,-4.89916 2.25619,-10.42353 2.2207,-16.12695 l 2.31836,0.202 c 2.18969,-1.14286 1.10444,-2.28571 0.043,-3.42857 l -2.61216,0.33175 c -0.0705,-1.06056 -0.01,-1.23211 -0.20034,-2.29854 -0.47302,-2.64802 -0.58691,-5.94578 -2.50781,-8.15095 -1.9209,-2.20517 -5.32774,-4.23998 -8.15654,-4.42355 z m 0.22825,3.60324 c 2.10454,0.13657 3.49128,0.74082 5.17047,2.66852 1.6792,1.9277 1.82913,3.18565 2.22545,5.4043 0.16591,0.92881 -0.26206,2.04094 -0.19587,2.97544 l -17.46986,-0.57896 c 0.24433,-2.0208 0.89306,-2.69496 1.69028,-4.44336 0.74214,-1.62759 1.94526,-3.43062 3.35547,-4.74218 1.41022,-1.31157 3.68911,-1.38337 5.22406,-1.28376 z m -10.26703,13.7154 6.09375,0.1289 -0.002,0.0645 c -0.14045,3.8779 -1.23542,8.42107 1.44336,12.22851 0.87329,1.24124 1.77262,2.09139 2.75977,2.57813 0.98715,0.48673 2.04581,0.56146 3.01953,0.3457 1.51067,-0.33473 2.8671,-1.24385 4.26367,-2.2832 -0.20679,1.05571 -0.41736,2.12237 -0.60938,3.14648 -0.29161,1.55539 -1.818,2.13117 -3.45675,3.03181 -1.63873,0.90063 -3.52894,0.99722 -5.2765,0.8909 -3.24817,-0.1976 -5.32861,-2.74143 -6.01535,-6.13643 -0.92551,-4.57545 -2.44246,-9.38467 -2.22015,-13.99526 z m 11.76368,1.25 c -0.68799,3e-5 -1.27709,0.49124 -1.54493,0.95508 -0.26783,0.46383 -0.37674,0.94564 -0.45507,1.4375 -0.15667,0.98371 0.87328,2.41237 0.87343,3.02724 -4.4e-4,1.76594 -0.18989,2.642 1.56812,2.64209 1.75803,-7e-5 2.76811,-1.25496 2.76768,-3.0209 2.8e-4,-1.15129 0.33384,-2.13216 -0.38697,-3.09179 -0.3604,-0.47982 -0.69826,-1.17355 -1.14195,-1.52793 -0.44368,-0.35439 -0.99233,-0.42126 -1.68031,-0.42129 z" id="path4498" inkscape:connector-curvature="0" sodipodi:nodetypes="sssccccssssccccsssscsccssscccsssccssscccscccscccs"/>
    <path style="color:#000000;font-style:normal;font-variant:normal;font-weight:normal;font-stretch:normal;font-size:medium;line-height:normal;font-family:sans-serif;text-indent:0;text-align:start;text-decoration:none;text-decoration-line:none;text-decoration-style:solid;text-decoration-color:#000000;letter-spacing:normal;word-spacing:normal;text-transform:none;direction:ltr;block-progression:tb;writing-mode:lr-tb;baseline-shift:baseline;text-anchor:start;white-space:normal;clip-rule:nonzero;display:inline;overflow:visible;visibility:visible;opacity:1;isolation:auto;mix-blend-mode:normal;color-interpolation:sRGB;color-interpolation-filters:linearRGB;solid-color:#000000;solid-opacity:1;fill:#000000;fill-opacity:1;fill-rule:evenodd;stroke:none;stroke-width:2;stroke-linecap:butt;stroke-linejoin:miter;stroke-miterlimit:4;stroke-dasharray:none;stroke-dashoffset:0;stroke-opacity:1;color-rendering:auto;image-rendering:auto;shape-rendering:auto;text-rendering:auto;enable-background:accumulate" d="m 458.5625,300.37305 c -1.34884,0.0375 -2.71961,0.45222 -3.95312,1.36914 -1.64471,1.22254 -3.02056,3.27197 -4.02149,6.33203 -1.43909,4.39959 -1.80766,9.75042 -1.41992,14.68164 0.38774,4.93122 1.49358,9.41568 3.30078,12.1875 2.67783,4.10716 6.95864,5.23865 10.63672,4.52344 3.67808,-0.71521 6.92009,-3.12293 7.83008,-6.31055 1.5619,-5.37058 1.89841,-11.45919 1.04164,-16.35888 1.63791,0.27615 2.61421,0.96665 5.17267,0.85668 1.99735,0.12155 2.90788,-2.83395 0.60854,-3.32388 -2.58352,0.11105 -4.26105,-0.81719 -6.248,-1.0767 -0.70981,-2.7744 -1.87503,-4.65743 -3.46938,-7.17144 -1.56493,-2.4676 -4.63298,-5.09287 -8.14258,-5.625 -0.4387,-0.0665 -0.88633,-0.0965 -1.33594,-0.084 z m 0.11586,2.87606 c 0.32368,-0.006 1.59913,0.018 1.9314,0.0684 2.65813,0.40303 4.49378,1.86697 5.7418,3.83487 1.31749,2.07744 1.7027,4.1884 2.36343,6.49873 -4.27773,0.56081 -6.66093,0.96069 -9.58022,1.97588 -2.25137,0.61216 -3.03115,0.74248 -6.1919,1.81529 -2.06959,-1.06619 -0.98626,-5.77298 -0.0758,-8.55753 0.91448,-2.79576 2.23004,-3.69206 3.44072,-4.59199 0.90801,-0.67494 1.39954,-1.02633 2.37055,-1.04361 z m 4.48068,15.30328 c -0.88066,0.12388 -0.93729,-0.83689 -1.44224,-0.30044 -0.51836,0.55069 -0.21881,1.40561 -0.36343,2.03706 1.79418,1.38918 1.25211,2.34157 1.25224,2.83794 -2.2e-4,0.87908 0.57247,2.02135 0.30087,3.19664 0.21146,0.58764 -0.0451,1.08514 0.29572,1.56772 0.34083,0.48258 -0.23209,1.13795 0.5771,1.13799 0.55625,-3e-5 1.5069,-0.22487 2.68628,-0.87817 0.58969,-0.32665 0.71526,-1.20519 0.63823,-2.0292 -0.081,-0.86631 -0.45375,-1.13634 -0.6059,-2.21172 0.55485,-2.62885 -0.28154,-3.39199 0.35951,-6.2774 -0.38757,-0.30675 -0.55426,0.1954 -1.08863,0.12612 -0.93473,0.032 -1.35955,1.2787 -2.60975,0.79346 z m -6.19873,0.12915 c -0.25883,3.57942 -0.79927,7.16937 1.59633,10.57432 1.76404,2.50729 4.05654,3.62308 6.33984,3.58008 1.51656,-0.0286 2.36213,-0.3944 3.75928,-1.14912 -0.0892,0.351 0.0121,0.51389 -0.086,0.85747 -0.62143,2.17682 -2.86966,3.42135 -5.91025,4.0126 -3.04059,0.59124 -5.38005,0.30344 -7.63112,-3.14922 -1.45203,-2.22711 -2.41217,-5.4773 -3.10869,-10.68179 -0.10305,-0.77007 0.41146,-1.62539 0.3918,-2.41666 2.23532,-0.76765 2.8967,-1.09657 4.64879,-1.62768 z" id="path4508" inkscape:connector-curvature="0" sodipodi:nodetypes="scsssscccccscsccsccccsccscccscsscccccssccssscc"/>
    <path style="color:#000000;font-style:normal;font-variant:normal;font-weight:normal;font-stretch:normal;font-size:medium;line-height:normal;font-family:sans-serif;text-indent:0;text-align:start;text-decoration:none;text-decoration-line:none;text-decoration-style:solid;text-decoration-color:#000000;letter-spacing:normal;word-spacing:normal;text-transform:none;direction:ltr;block-progression:tb;writing-mode:lr-tb;baseline-shift:baseline;text-anchor:start;white-space:normal;clip-rule:nonzero;display:inline;overflow:visible;visibility:visible;opacity:1;isolation:auto;mix-blend-mode:normal;color-interpolation:sRGB;color-interpolation-filters:linearRGB;solid-color:#000000;solid-opacity:1;fill:#000000;fill-opacity:1;fill-rule:evenodd;stroke:none;stroke-width:2;stroke-linecap:butt;stroke-linejoin:miter;stroke-miterlimit:4;stroke-dasharray:none;stroke-dashoffset:0;stroke-opacity:1;color-rendering:auto;image-rendering:auto;shape-rendering:auto;text-rendering:auto;enable-background:accumulate" d="m 333.23047,340.29102 c -5.96814,-0.0999 -14.10541,0.92461 -20.86133,3.45937 -3.37796,1.26739 -7.1101,3.07241 -8.57226,5.01523 -5.56986,3.8485 -3.618,4.60515 -1.78791,5.66963 0.59406,-0.27818 1.52204,-3.36546 2.59644,-3.8397 2.1488,-0.94848 5.13259,-2.2068 8.46484,-3.45703 6.6645,-2.50046 14.86605,-4.49079 20.21625,-4.40122 14.71923,0.2464 31.39792,5.93239 44.35797,12.05943 6.48003,3.06351 12.01293,6.12186 15.87891,8.42187 3.27741,2.32463 6.00684,4.75908 7.01171,4.76272 1.2143,0.004 -0.0897,-2.96553 -5.98827,-6.48147 -3.91729,-2.33053 -9.49982,-5.41651 -16.04688,-8.51172 -6.04669,-3.29281 -12.3175,-6.3643 -18.66072,-8.53504 -8.81238,-3.01573 -18.13415,-3.89835 -26.60875,-4.16207 z" id="path4527" inkscape:connector-curvature="0" sodipodi:nodetypes="csccsssscsccsc"/>
    <path style="color:#000000;font-style:normal;font-variant:normal;font-weight:normal;font-stretch:normal;font-size:medium;line-height:normal;font-family:sans-serif;text-indent:0;text-align:start;text-decoration:none;text-decoration-line:none;text-decoration-style:solid;text-decoration-color:#000000;letter-spacing:normal;word-spacing:normal;text-transform:none;direction:ltr;block-progression:tb;writing-mode:lr-tb;baseline-shift:baseline;text-anchor:start;white-space:normal;clip-rule:nonzero;display:inline;overflow:visible;visibility:visible;opacity:1;isolation:auto;mix-blend-mode:normal;color-interpolation:sRGB;color-interpolation-filters:linearRGB;solid-color:#000000;solid-opacity:1;fill:#000000;fill-opacity:1;fill-rule:evenodd;stroke:none;stroke-width:2;stroke-linecap:butt;stroke-linejoin:miter;stroke-miterlimit:4;stroke-dasharray:none;stroke-dashoffset:0;stroke-opacity:1;color-rendering:auto;image-rendering:auto;shape-rendering:auto;text-rendering:auto;enable-background:accumulate" d="m 337.12891,363.91602 c -3.99348,0.23991 -7.90055,0.74735 -11.61719,1.59375 -5.81997,1.32539 -16.14952,6.23591 -22.10663,10.30781 -2.97856,2.03595 -4.09024,2.72894 -5.97501,4.18067 -0.94238,0.72586 -1.34506,2.17121 -1.86813,2.59299 -2.97137,4.41207 3.03279,0.95987 4.60399,-0.25143 1.86082,-1.43328 4.46018,-3.36855 7.39843,-5.37695 5.8765,-4.0168 13.17326,-7.05306 18.39063,-8.24122 14.35379,-3.26882 31.59648,-4.33934 45.64336,-1.47772 7.02343,1.43081 13.63006,4.84997 17.93281,6.1623 2.15138,0.65616 3.85441,1.2286 4.98828,1.64258 0.56694,0.20699 0.99404,0.37442 1.24414,0.48437 0.43212,0.34426 2.44679,1.18054 2.4057,1.11885 0.0886,-0.30347 2.24007,-1.50135 -2.96429,-3.48214 -1.18174,-0.43145 -1.89977,-2.27555 -4.0797,-2.94042 -4.35984,-1.32975 -11.52734,-4.50907 -18.62343,-5.95469 -10.64413,-2.16841 -23.39262,-1.07853 -35.37304,-0.35879 z" id="path4527-7" inkscape:connector-curvature="0" sodipodi:nodetypes="csssccssssscccsscc"/>
    <path style="color:#000000;font-style:normal;font-variant:normal;font-weight:normal;font-stretch:normal;font-size:medium;line-height:normal;font-family:sans-serif;text-indent:0;text-align:start;text-decoration:none;text-decoration-line:none;text-decoration-style:solid;text-decoration-color:#000000;letter-spacing:normal;word-spacing:normal;text-transform:none;direction:ltr;block-progression:tb;writing-mode:lr-tb;baseline-shift:baseline;text-anchor:start;white-space:normal;clip-rule:nonzero;display:inline;overflow:visible;visibility:visible;opacity:1;isolation:auto;mix-blend-mode:normal;color-interpolation:sRGB;color-interpolation-filters:linearRGB;solid-color:#000000;solid-opacity:1;fill:#000000;fill-opacity:1;fill-rule:evenodd;stroke:none;stroke-width:2;stroke-linecap:butt;stroke-linejoin:miter;stroke-miterlimit:4;stroke-dasharray:none;stroke-dashoffset:0;stroke-opacity:1;color-rendering:auto;image-rendering:auto;shape-rendering:auto;text-rendering:auto;enable-background:accumulate" d="m 539.88672,319.04883 c -5.77272,-0.15454 -12.9052,0.0997 -18.51758,1.83984 -18.03108,5.59065 -32.43733,16.5505 -42.26953,26.10938 -4.9161,4.77944 -8.68808,9.21027 -11.19922,12.46093 -2.24266,3.26855 -4.15844,5.28158 -3.61641,5.9972 2.07813,2.74368 2.21361,-0.90027 5.19852,-4.77454 2.45618,-3.17952 6.17204,-7.54486 11.01172,-12.25 9.67936,-9.41028 24.21398,-19.54712 41.82589,-25.00781 5.19975,-1.61222 11.84859,-1.90167 17.51395,-1.75 2.83269,0.0758 5.33298,-0.368 7.12305,-0.20313 1.88938,0.35915 3.30734,0.0324 3.64281,-0.46145 0.36183,-0.53271 -0.53566,-1.25991 -3.45923,-1.5308 -1.82613,-0.1682 -4.36754,-0.35242 -7.2539,-0.42969 z" id="path4527-2" inkscape:connector-curvature="0" sodipodi:nodetypes="csscscssccsccc"/>
    <path style="color:#000000;font-style:normal;font-variant:normal;font-weight:normal;font-stretch:normal;font-size:medium;line-height:normal;font-family:sans-serif;text-indent:0;text-align:start;text-decoration:none;text-decoration-line:none;text-decoration-style:solid;text-decoration-color:#000000;letter-spacing:normal;word-spacing:normal;text-transform:none;direction:ltr;block-progression:tb;writing-mode:lr-tb;baseline-shift:baseline;text-anchor:start;white-space:normal;clip-rule:nonzero;display:inline;overflow:visible;visibility:visible;opacity:1;isolation:auto;mix-blend-mode:normal;color-interpolation:sRGB;color-interpolation-filters:linearRGB;solid-color:#000000;solid-opacity:1;fill:#000000;fill-opacity:1;fill-rule:evenodd;stroke:none;stroke-width:2;stroke-linecap:butt;stroke-linejoin:miter;stroke-miterlimit:4;stroke-dasharray:none;stroke-dashoffset:0;stroke-opacity:1;color-rendering:auto;image-rendering:auto;shape-rendering:auto;text-rendering:auto;enable-background:accumulate" d="m 533.55859,343.98438 c -8.78581,0.14708 -18.04208,1.75068 -26.8905,4.72199 -6.50527,2.18448 -12.83113,5.97938 -18.37903,8.60222 -6.54705,3.0952 -12.12959,6.17923 -16.04687,8.50977 -1.95864,1.16527 -3.49811,2.14112 -4.54297,2.8418 -2.20699,2.09269 -1.14155,3.68757 -0.35763,3.54519 1.32195,-0.24008 5.04083,-3.07388 6.81689,-4.13253 3.86599,-2.30002 8.50603,-5.89407 14.98605,-8.95759 12.96005,-6.12703 29.72803,-12.25945 44.44727,-12.50585 5.62043,-0.0941 9.95756,0.15949 12.88086,0.4414 2.20953,0.43921 4.01222,0.35083 4.87236,0.0323 1.32379,-0.49028 0.50434,-2.15078 -4.58971,-2.64739 -4.86852,-0.33576 -9.3323,-0.50751 -13.19672,-0.45128 z" id="path4527-1" inkscape:connector-curvature="0" sodipodi:nodetypes="cssscscsscscc"/>
    <path style="color:#000000;font-style:normal;font-variant:normal;font-weight:normal;font-stretch:normal;font-size:medium;line-height:normal;font-family:sans-serif;text-indent:0;text-align:start;text-decoration:none;text-decoration-line:none;text-decoration-style:solid;text-decoration-color:#000000;letter-spacing:normal;word-spacing:normal;text-transform:none;direction:ltr;block-progression:tb;writing-mode:lr-tb;baseline-shift:baseline;text-anchor:start;white-space:normal;clip-rule:nonzero;display:inline;overflow:visible;visibility:visible;opacity:1;isolation:auto;mix-blend-mode:normal;color-interpolation:sRGB;color-interpolation-filters:linearRGB;solid-color:#000000;solid-opacity:1;fill:#000000;fill-opacity:1;fill-rule:evenodd;stroke:none;stroke-width:2;stroke-linecap:butt;stroke-linejoin:miter;stroke-miterlimit:4;stroke-dasharray:none;stroke-dashoffset:0;stroke-opacity:1;color-rendering:auto;image-rendering:auto;shape-rendering:auto;text-rendering:auto;enable-background:accumulate" d="m 428.04297,351.07617 c -0.3783,0.009 -4.05335,0.29977 -4.41881,0.33427 -4.38543,0.41416 -5.16667,1.55149 -7.49916,4.1063 -1.555,1.70321 -2.00914,4.35655 -2.60352,6.00279 -0.29719,0.82312 -0.47616,1.59404 -0.51367,2.30469 -0.0375,0.71064 -0.22626,1.83884 0.19894,2.4269 1.04212,1.44118 3.32825,2.7735 5.93192,3.95982 2.60368,1.18632 5.8755,2.39844 9.13031,3.32562 2.67708,0.76259 4.13693,1.02316 6.6236,1.43414 l 0.36914,1.64453 c 0,0 0.10843,1.98304 0.21094,6.50391 0.10251,4.52087 0.10139,9.53358 -1.50782,12.20898 -5.78522,9.61821 -9.87771,13.37972 -14.42968,15.2807 -4.55197,1.90098 -9.95835,1.29737 -15.98187,1.46791 -15.50656,0.43904 -27.60213,-16.75488 -28.96986,-19.55692 0.5525,-0.2768 -0.29689,-0.88652 0.13141,-1.28543 1.68866,-1.5728 2.98929,-2.85299 3.86579,-4.69308 -0.0339,-1.57901 -0.20263,-2.97834 -2.3404,-1.75224 -0.92878,1.94986 -2.12675,2.87289 -3.3351,3.99833 -1.20835,1.12545 -2.4244,1.72112 -5.88951,0.9043 -1.66016,0.97646 -2.79396,1.95293 -0.45898,2.9294 1.8713,0.44112 3.44518,0.49012 4.76758,0.25196 0.92366,1.9596 10.84835,22.70987 32.79994,22.9894 5.91894,0.0754 11.37089,0.7661 16.18053,-1.89008 4.81676,-2.6601 9.47919,-6.6488 15.375,-16.45089 1.41832,-0.0421 1.22105,-0.0935 1.29492,-0.23046 0.62705,1.32087 1.01053,1.70964 1.76367,3.73632 1.69888,4.57162 7.77836,7.91766 12.07617,8.49219 9.5951,1.28268 14.63847,-0.30249 19.02344,-2.44531 4.385,-2.14281 7.34442,-5.71502 11.32617,-8.9336 1.74284,-1.40879 3.91452,-3.92102 5.43946,-6.42187 0.90271,-1.48042 1.33257,-3.00332 1.55664,-4.05664 0.55632,-0.0288 1.99569,-0.20652 2.51395,-0.38421 2.54119,-0.87132 3.6226,-3.11107 5.49972,-5.76813 0.37752,-0.71931 0.56329,-1.3689 -1.63281,-1.15235 -1.79923,2.54681 -3.02637,3.26676 -4.78321,3.86914 -0.80349,0.2755 -2.30417,0.0284 -3.20648,-0.26004 -1.3012,-0.35602 -2.53637,-0.3787 -3.40066,-1.29604 -2.79872,-0.52715 -1.95821,0.93073 -2.37137,1.7048 1.44174,1.5814 3.45464,2.34287 4.84765,2.88253 -0.44693,0.79788 -0.97489,1.73197 -1.62304,2.79492 -1.48658,2.43793 -4.13653,4.74758 -5.34766,5.72657 -4.10218,3.31594 -6.50366,6.11646 -10.50195,8.07031 -3.9983,1.95385 -7.11238,2.53907 -16.5586,1.80078 -3.48169,-0.27212 -7.97931,-2.80948 -10.20703,-6.17383 -1.95437,-2.9515 -3.10905,-5.00539 -3.37695,-5.67383 0.92631,-3.19137 0.52195,-7.44016 0.44336,-10.90625 -0.0947,-4.17788 -0.43145,-5.98699 -0.5279,-6.67633 2.79143,0.35794 5.02961,-0.90133 6.69001,-1.48577 4.99832,-1.75939 9.76198,-6.29634 8.68387,-11.67495 -0.81348,-4.05844 -4.9234,-7.39255 -8.98494,-9.06334 -4.06153,-1.67078 -8.93577,-2.20548 -12.52232,-2.88504 -1.24494,-0.23589 -2.61595,-0.0615 -3.75083,-0.0349 z m 1.36859,3.32953 c 1.00003,-0.0197 3.21793,0.24507 4.33063,0.45591 3.58285,0.67886 5.49087,1.39029 9.27846,2.94838 3.78759,1.5581 7.16314,4.42082 7.42662,5.46345 1.06119,4.19931 -1.96458,6.73483 -6.22629,8.23493 -0.99349,0.3497 -4.54939,0.92824 -7.30078,0.56501 -2.75138,-0.36324 -5.55231,-1.60781 -8.72739,-2.51228 -3.17508,-0.90446 -5.47953,-1.64914 -7.9562,-2.77762 -3.39634,-1.48852 -5.10805,-1.42202 -4.83427,-3.6914 0.49194,-1.36252 1.44759,-3.91626 2.82422,-5.42411 2.06496,-2.26177 4.12266,-2.76718 7.97238,-3.11831 0.32081,-0.0293 2.87927,-0.13736 3.21262,-0.14396 z" id="path4556" inkscape:connector-curvature="0" sodipodi:nodetypes="ccssccssccsssscsccscccssccsssssccccsccccssssscscssssccssssssccscc"/>
    <path style="color:#000000;font-style:normal;font-variant:normal;font-weight:normal;font-stretch:normal;font-size:medium;line-height:normal;font-family:sans-serif;text-indent:0;text-align:start;text-decoration:none;text-decoration-line:none;text-decoration-style:solid;text-decoration-color:#000000;letter-spacing:normal;word-spacing:normal;text-transform:none;direction:ltr;block-progression:tb;writing-mode:lr-tb;baseline-shift:baseline;text-anchor:start;white-space:normal;clip-rule:nonzero;display:inline;overflow:visible;visibility:visible;opacity:1;isolation:auto;mix-blend-mode:normal;color-interpolation:sRGB;color-interpolation-filters:linearRGB;solid-color:#000000;solid-opacity:1;fill:#000000;fill-opacity:1;fill-rule:evenodd;stroke:none;stroke-width:2;stroke-linecap:butt;stroke-linejoin:miter;stroke-miterlimit:4;stroke-dasharray:none;stroke-dashoffset:0;stroke-opacity:1;color-rendering:auto;image-rendering:auto;shape-rendering:auto;text-rendering:auto;enable-background:accumulate" d="m 443.68164,422.41797 c -2.23287,2.82819 -4.63494,3.78476 -7.55469,4.51116 -2.91974,0.72641 -6.50741,1.29956 -11.33398,-1.71038 -1.24279,0.43685 -1.99863,1.21457 -0.88002,3.30441 5.11108,3.18736 9.14807,2.38894 12.69643,1.50614 3.54835,-0.8828 7.083,-2.12985 9.44614,-5.12305 1.79643,-3.99219 0.0708,-3.67962 -2.37388,-2.48828 z" id="path4641" inkscape:connector-curvature="0" sodipodi:nodetypes="csccscc"/>
    <path style="color:#000000;font-style:normal;font-variant:normal;font-weight:normal;font-stretch:normal;font-size:medium;line-height:normal;font-family:sans-serif;text-indent:0;text-align:start;text-decoration:none;text-decoration-line:none;text-decoration-style:solid;text-decoration-color:#000000;letter-spacing:normal;word-spacing:normal;text-transform:none;direction:ltr;block-progression:tb;writing-mode:lr-tb;baseline-shift:baseline;text-anchor:start;white-space:normal;clip-rule:nonzero;display:inline;overflow:visible;visibility:visible;opacity:1;isolation:auto;mix-blend-mode:normal;color-interpolation:sRGB;color-interpolation-filters:linearRGB;solid-color:#000000;solid-opacity:1;fill:#000000;fill-opacity:1;fill-rule:evenodd;stroke:none;stroke-width:2.5;stroke-linecap:butt;stroke-linejoin:miter;stroke-miterlimit:4;stroke-dasharray:none;stroke-dashoffset:0;stroke-opacity:1;color-rendering:auto;image-rendering:auto;shape-rendering:auto;text-rendering:auto;enable-background:accumulate" d="m 489.47226,428.18809 c -2.33329,-1.2123 -4.60163,-2.33368 -3.64218,1.06386 0,0 0.0737,3.32286 2.27969,6.27324 2.206,2.95038 6.47928,6.54712 9.23203,8.27012 7.30921,4.57496 16.56091,3.98049 23.97461,6.68125 4.72831,1.72249 13.12187,5.55196 13.12187,5.55196 3.13728,0.73252 4.21779,-0.29791 2.64277,-3.60449 0,0 -9.39908,-3.32339 -14.15156,-5.05469 -7.93309,-2.88997 -17.72576,-2.61247 -24.26152,-6.70332 -2.10774,-1.31928 -4.9063,-4.54145 -7.04102,-7.39649 -2.13471,-2.85504 -2.15469,-5.08144 -2.15469,-5.08144 z" id="path4677" inkscape:connector-curvature="0" sodipodi:nodetypes="ccsssccsssc"/>
  </g>
</svg>
