<?xml version="1.0" encoding="UTF-8" standalone="no"?>
<!-- Created with Inkscape (http://www.inkscape.org/) -->

<svg
   xmlns:dc="http://purl.org/dc/elements/1.1/"
   xmlns:cc="http://creativecommons.org/ns#"
   xmlns:rdf="http://www.w3.org/1999/02/22-rdf-syntax-ns#"
   xmlns:svg="http://www.w3.org/2000/svg"
   xmlns="http://www.w3.org/2000/svg"
   xmlns:sodipodi="http://sodipodi.sourceforge.net/DTD/sodipodi-0.dtd"
   xmlns:inkscape="http://www.inkscape.org/namespaces/inkscape"
   width="894.96875"
   height="499"
   id="svg2"
   version="1.1"
   inkscape:version="0.48.5 r10040"
   sodipodi:docname="rainbow-lines only.svg">
  <defs
     id="defs4" />
  <sodipodi:namedview
     id="base"
     pagecolor="#ffffff"
     bordercolor="#666666"
     borderopacity="1.0"
     inkscape:pageopacity="0.0"
     inkscape:pageshadow="2"
     inkscape:zoom="0.25000001"
     inkscape:cx="-347.969"
     inkscape:cy="392.7166"
     inkscape:document-units="px"
     inkscape:current-layer="layer1"
     showgrid="false"
     inkscape:window-width="1366"
     inkscape:window-height="721"
     inkscape:window-x="-4"
     inkscape:window-y="-4"
     inkscape:window-maximized="1"
     fit-margin-top="10"
     fit-margin-left="10"
     fit-margin-right="10"
     fit-margin-bottom="10"
     inkscape:snap-global="false" />
  <metadata
     id="metadata7">
    <rdf:RDF>
      <cc:Work
         rdf:about="">
        <dc:format>image/svg+xml</dc:format>
        <dc:type
           rdf:resource="http://purl.org/dc/dcmitype/StillImage" />
        <dc:title />
      </cc:Work>
    </rdf:RDF>
  </metadata>
  <g
     inkscape:label="Layer 1"
     inkscape:groupmode="layer"
     id="layer1"
     transform="translate(-319.02754,-565.89008)">
    <path
       style="opacity:0.98000004;fill:none;stroke:#000000;stroke-width:3;stroke-miterlimit:4;stroke-opacity:1;stroke-dasharray:none"
       d="M 435.96875,1.71875 C 216.0035,1.71875 37.6875,180.03475 37.6875,400 c 0,7.32704 0.203096,14.61419 0.59375,21.84375 4.670002,-1.34618 9.615439,-2.0625 14.71875,-2.0625 4.30481,0 8.49278,0.5314 12.5,1.5 -0.63342,-3.276 -1,-6.63275 -1,-10.09375 C 64.5,392.06829 74.633291,375.32207 89.8125,366 106.90248,189.8706 255.35394,52.1875 435.96875,52.1875 c 177.54154,0 324.02196,133.02602 345.1875,304.84375 26.75712,2.32113 47.82026,24.51423 48.34375,51.75 1.57042,0.31646 3.10823,0.73543 4.625,1.1875 0.0814,-3.31262 0.125,-6.63654 0.125,-9.96875 C 834.25,180.03475 655.934,1.71875 435.96875,1.71875 z m 433.21875,476 c 1.7949,-5.3235 2.78125,-11.03535 2.78125,-16.96875 0,-24.00304 -15.95993,-44.25883 -37.84375,-50.78125 M 139.96875,363.1875 c -6.82507,-3.20176 -14.43043,-5 -22.46875,-5 -10.15195,0 -19.627591,2.86264 -27.6875,7.8125 m 50.15625,-2.8125 c 7.61779,3.57363 14.25998,8.89797 19.375,15.46875 6.35943,-13.85942 18.50092,-24.4901 33.34375,-28.8125 C 215.88386,236.71566 315.9802,151.625 435.96875,151.625 c 107.33703,0 198.77523,68.09468 233.46875,163.4375 9.13413,-7.48631 20.82448,-11.96875 33.5625,-11.96875 5.57154,0 10.92422,0.87476 15.96875,2.46875 -39.51222,-118.43892 -151.27789,-203.84375 -283,-203.84375 -152.27316,0 -277.864,114.09944 -296,261.46875 z m 641.1875,-6.15625 c -1.52859,-0.1326 -3.06192,-0.21875 -4.625,-0.21875 -7.3776,0 -14.39905,1.5265 -20.78125,4.25 0.153,-1.6406 0.25,-3.28815 0.25,-4.96875 0,-23.69956 -15.57342,-43.75091 -37.03125,-50.53125 M 241.8125,360.34375 c -9.24446,-7.86224 -21.23001,-12.625 -34.3125,-12.625 -5.14452,0 -10.11263,0.75634 -14.8125,2.125 m 49.125,10.5 c 1.37857,1.17244 2.68575,2.41398 3.9375,3.71875 9.05539,-7.217 20.48909,-11.5625 32.96875,-11.5625 5.43456,0 10.68803,0.82337 15.625,2.34375 19.11654,-59.99502 75.29365,-103.46875 141.625,-103.46875 64.39272,0 119.23624,40.96928 139.875,98.25 9.67614,-12.80458 25.02914,-21.09375 42.3125,-21.09375 0.90544,0 1.79315,0.0487 2.6875,0.0937 -28.64989,-74.15597 -100.61177,-126.75 -184.875,-126.75 -95.84995,0 -175.78876,68.04003 -194.15625,158.46875 z m 427.625,-45.28125 c -8.08101,6.62317 -14.15954,15.59946 -17.21875,25.875 -8.56745,-7.19228 -19.4613,-11.71266 -31.375,-12.3125 M 338.8125,390.6875 c -3.1004,-0.71758 -6.31211,-1.19653 -9.59375,-1.34375 -5.26363,-16.45179 -18.34263,-29.40871 -34.875,-34.5 m 281.5,-5.21875 c -6.34646,8.39837 -10.25049,18.73187 -10.65625,29.96875 -1.1922,-0.08 -2.38125,-0.15625 -3.59375,-0.15625 -10.58917,0 -20.4725,3.11891 -28.75,8.46875 m -494.5625,33.9375 C 16.165497,428.21885 0,448.61346 0,472.78125 c 0,1.6675 0.0991,3.3091 0.25,4.9375 l 419.125,0 m 0,0 c -0.6174,-24.8141 -18.27205,-45.40225 -41.71875,-50.46875 -5.364,-18.15956 -20.19558,-32.23843 -38.78125,-36.5625 -0.0197,-0.005 -0.0428,0.005 -0.0625,0 4.695,-49.53895 46.38827,-88.3125 97.15625,-88.3125 49.81851,0 90.91856,37.32422 96.875,85.53125 -14.60357,9.43846 -24.25,25.84926 -24.25,44.53125 0,2.1633 0.15435,4.31065 0.40625,6.40625 -11.38886,3.0788 -20.71875,20.63775 -20.71875,33.21875 0,1.9095 0.1155,3.79985 0.3125,5.65625 l 380.59375,0"
       transform="translate(330.52754,575.67133)"
       id="path3933-17"
       inkscape:connector-curvature="0"
       sodipodi:nodetypes="sscscscscccsscsccscssccccscsccsccccccscccscscsccscccccccscscscccsccsccc" />
  </g>
</svg>
