<?xml version="1.0" encoding="UTF-8" standalone="no"?>
<svg id="svg2" xmlns:rdf="http://www.w3.org/1999/02/22-rdf-syntax-ns#" xmlns="http://www.w3.org/2000/svg" height="3539pt" width="1498pt" version="1.1" xmlns:cc="http://creativecommons.org/ns#" xmlns:dc="http://purl.org/dc/elements/1.1/" viewBox="0 0 1498 3539">
<path id="rect4210" style="color-rendering:auto;text-decoration-color:#000000;color:#000000;isolation:auto;mix-blend-mode:normal;shape-rendering:auto;solid-color:#000000;block-progression:tb;text-decoration-line:none;text-decoration-style:solid;image-rendering:auto;white-space:normal;text-indent:0;text-transform:none" d="m935.32 12.195c-0.65 0.028-1.29 0.118-1.92 0.27-4.75 2.861-8.6 5.744-13.36 9.246-184.25 144.23-342.88 325.19-448.7 534.67-0.01 0.01-0.02 0.03-0.03 0.05-1.74 3.35-3.46 6.7-5.18 10.05-0.22 0.45-0.45 0.89-0.67 1.33-6.6 12.96-13 26-19.21 39.12-0.46 0.96-0.9 1.92-1.35 2.88-2.76 5.85-5.48 11.71-8.16 17.59-0.53 1.16-1.05 2.32-1.58 3.48-1.02 2.26-2.04 4.51-3.05 6.77-0.01 0.03-0.03 0.06-0.04 0.1-1.52 3.39-3.03 6.8-4.52 10.21-0.89 2.03-1.77 4.07-2.66 6.11-0.61 1.41-1.22 2.81-1.83 4.22-0.01 0.03-0.03 0.06-0.04 0.09-1.47 3.42-2.93 6.84-4.37 10.27-0.02 0.03-0.03 0.06-0.04 0.09-2.91 6.89-5.76 13.8-8.57 20.72-0.79 1.95-1.57 3.91-2.35 5.86-0.62 1.55-1.25 3.1-1.87 4.65 0 0.01 0 0.01-0.01 0.02-1.37 3.46-2.74 6.92-4.09 10.39l-1.05 2.73c-2.36 6.08-4.69 12.18-6.98 18.3-0.01 0.02-0.02 0.05-0.03 0.08-1.3 3.49-2.6 6.98-3.88 10.47-0.62 1.68-1.22 3.37-1.83 5.05-0.67 1.84-1.35 3.68-2.01 5.53-0.01 0.02-0.02 0.05-0.03 0.08-1.26 3.5-2.51 7.01-3.74 10.52-0.8 2.25-1.58 4.51-2.36 6.76-0.46 1.31-0.92 2.62-1.37 3.93v0.01c-1.22 3.52-2.42 7.05-3.61 10.58-0.28 0.81-0.55 1.63-0.82 2.45-5.71 16.97-11.16 34.03-16.36 51.17-0.15 0.48-0.29 0.96-0.44 1.44-0.93 3.1-1.87 6.2-2.79 9.3 0 0.02-0.01 0.04-0.02 0.06-1.06 3.58-2.11 7.16-3.15 10.74-0.01 0.02-0.01 0.04-0.02 0.06-1.04 3.58-2.07 7.17-3.09 10.76-0.42 1.47-0.82 2.94-1.24 4.41-0.6 2.14-1.21 4.28-1.8 6.42-0.01 0.02-0.01 0.04-0.02 0.06-1 3.6-1.98 7.2-2.96 10.8-0.01 0.02-0.01 0.04-0.02 0.05-0.98 3.61-1.94 7.21-2.9 10.82-0.63 2.38-1.26 4.77-1.88 7.16-0.32 1.24-0.66 2.48-0.98 3.73 0 0.02-0.01 0.04-0.01 0.05-1.88 7.25-3.72 14.51-5.52 21.78 0 0.01-0.01 0.03-0.01 0.05-0.9 3.64-1.79 7.28-2.67 10.92v0.01c-0.88 3.64-1.75 7.27-2.6 10.91-0.47 1.96-0.92 3.93-1.38 5.89-0.39 1.7-0.79 3.38-1.18 5.08 0 0.01 0 0.03-0.01 0.04-0.84 3.64-1.66 7.29-2.48 10.94l-0.39 1.77c-1.51 6.73-2.99 13.48-4.43 20.21l-0.01 0.1c-0.78 3.6-1.55 7.3-2.31 10.9 0 0 0 0.1-0.01 0.1-0.76 3.6-1.51 7.3-2.25 11-0.19 0.9-0.37 1.8-0.56 2.7-0.55 2.8-1.11 5.6-1.65 8.3h-0.01c-0.72 3.7-1.44 7.4-2.14 11.1h-0.01c-0.7 3.7-1.4 7.3-2.09 11l-0.01 0.1c-0.68 3.6-1.36 7.3-2.03 11-0.26 1.4-0.5 2.8-0.75 4.2-0.42 2.3-0.83 4.6-1.24 6.9-0.25 1.4-0.49 2.8-0.73 4.1-1.02 5.9-2.03 11.8-3.01 17.6-0.02 0.2-0.05 0.3-0.07 0.5-0.02 0.1-0.04 0.2-0.05 0.2-1.22 7.4-2.4 14.7-3.55 22-0.31 1.9-0.62 3.9-0.92 5.9-0.27 1.7-0.54 3.5-0.81 5.2-0.57 3.7-1.12 7.4-1.67 11.1s-1.09 7.4-1.62 11.1v0.1c-0.53 3.7-1.06 7.4-1.57 11.1-0.03 0.2-0.05 0.4-0.08 0.5-1.52 11-2.96 21.9-4.34 32.9-0.93 7.4-1.83 14.9-2.7 22.3s-1.71 14.9-2.51 22.3c-13.64 121.5-19.64 243.6-22.97 365.5v0.1c-0.19 5.2-0.35 10.5-0.49 15.8-0.08 3.4-0.14 6.8-0.2 10.2-0.04 1.9-0.09 3.7-0.11 5.6-0.05 3.1-0.07 6.3-0.1 9.4-0.02 2.2-0.05 4.4-0.06 6.5-0.02 3.5-0.01 6.9-0.01 10.3 0 1.8-0.01 3.6 0 5.5 0.02 3.5 0.06 7 0.1 10.5 0.02 1.8 0.03 3.6 0.05 5.3 0.06 3.8 0.13 7.5 0.21 11.3 0.03 1.5 0.05 3 0.09 4.4 0.1 4.2 0.22 8.5 0.35 12.7 0.03 1 0.06 2 0.09 3 0.14 4.5 0.31 8.9 0.49 13.3 0.03 0.8 0.06 1.7 0.09 2.5 0.21 4.9 0.43 9.9 0.68 14.9l0.03 0.6c6 120.5 23.71 240.4 45.47 358.6-0.87 0.5-1.66 1.1-2.36 1.8-98.44 102-181.33 220.6-237 351.8-0.025 0-0.043 0.1-0.062 0.1-39.676 97.4-70.316 203.4-59.686 311.3 7.6457 137.3 18.396 274.8 38.137 411.3 0.009 0 0.018 0.1 0.028 0.2 8.676 53.2 16.948 107.7 36.269 159.8 0.046 0.1 0.094 0.2 0.145 0.4 3.43 8.2 7.227 18.1 13.328 27.2 6.087 9 15.121 17.5 27.821 20.5 16.99 5.5 37.07 8.2 56.26 5 19.29-3.3 38.13-13.3 48.51-32.7 6.24-9.7 12.46-19.4 18.67-29.1 1.22-1.9 2.44-3.8 3.65-5.7 90.86-142.3 179.07-287.7 270.7-429.4 22.62 61.1 42.85 123.7 66.67 185.1 0.2 0.5 0.38 1 0.58 1.5 1.73 4.5 3.48 8.9 5.26 13.4l1.35 3.4 3.21 1.7h0.02c0.06 0 0.12 0 0.17 0.1 1.99 1 3.98 2.1 5.98 3.1 0.44 0.2 0.87 0.4 1.31 0.7 0.4 0.2 0.8 0.3 1.2 0.5 2.18 1.1 4.38 2.2 6.58 3.3 0.32 0.1 0.64 0.3 0.97 0.4 32.14 15.3 65.61 26.6 97.51 39.2-47.56 64.8-74.8 142.2-90.7 220l-0.12 0.6c-0.56 2.7-1.11 5.5-1.64 8.2-0.09 0.5-0.18 1-0.28 1.5-0.49 2.6-0.97 5.1-1.44 7.7-0.07 0.4-0.13 0.7-0.2 1.1-0.47 2.6-0.92 5.1-1.36 7.7-0.21 1.2-0.41 2.4-0.62 3.6-0.29 1.8-0.6 3.6-0.88 5.3-0.27 1.6-0.52 3.2-0.77 4.9-0.23 1.4-0.47 2.9-0.69 4.3-0.46 3.1-0.91 6.1-1.34 9.1l-0.02 0.1-0.01 0.1c-0.34 2.8-0.66 5.7-0.97 8.5s-0.6 5.6-0.89 8.5c-0.28 2.8-0.54 5.6-0.8 8.5-0.02 0.2-0.03 0.4-0.05 0.6-0.46 5.3-0.88 10.5-1.25 15.7-0.01 0.2-0.03 0.4-0.04 0.6-0.2 2.9-0.38 5.7-0.55 8.5-0.17 2.9-0.33 5.7-0.47 8.5-0.15 2.9-0.27 5.7-0.39 8.5s-0.22 5.7-0.31 8.5-0.16 5.7-0.22 8.5c-0.07 2.8-0.12 5.7-0.15 8.5-0.04 2.8-0.06 5.7-0.07 8.5-0.03 8.5 0.05 17 0.25 25.4 0.07 2.9 0.15 5.7 0.24 8.5 0 0.1 0 0.2 0.01 0.3 0.18 5.6 0.41 11.1 0.68 16.7 0.14 2.8 0.3 5.6 0.46 8.5 0.17 2.8 0.34 5.6 0.53 8.4s0.39 5.7 0.61 8.5c0.21 2.8 0.43 5.6 0.67 8.4 0.02 0.3 0.04 0.5 0.06 0.7 0.7 8.3 1.49 16.5 2.39 24.7 0.03 0.3 0.07 0.6 0.1 0.9 0.59 5.4 1.21 10.7 1.87 16 0.35 2.8 0.71 5.6 1.09 8.4 0.37 2.8 0.76 5.6 1.15 8.4l0.18 1.2c1.14 8 2.36 16 3.67 24 0.47 2.8 0.94 5.6 1.42 8.4s0.97 5.6 1.47 8.4c0.51 2.8 1.02 5.5 1.54 8.3s1.06 5.6 1.6 8.4c1.09 5.6 2.21 11.1 3.38 16.7 0.58 2.7 1.18 5.5 1.78 8.3 1.81 8.3 3.71 16.6 5.69 24.9 1.32 5.5 2.68 11 4.07 16.5 1.4 5.6 2.83 11.1 4.3 16.5 0.74 2.8 1.48 5.5 2.23 8.3 0.17 0.6 0.33 1.2 0.5 1.8 1.35 4.8 2.72 9.7 4.12 14.6 11.8 40.9 25.55 81.4 40.83 121l0.02 0.1h0.01c1.93 4.9 3.88 9.8 5.85 14.7 1.98 4.9 3.97 9.7 5.98 14.6 8.06 19.5 16.44 38.9 25.13 58.1 2.17 4.8 4.37 9.6 6.58 14.4 11.06 23.9 22.61 47.7 34.6 71.2 2.4 4.7 4.82 9.4 7.25 14.1 2.44 4.6 4.89 9.3 7.36 14 9.88 18.6 20.04 37.1 30.46 55.5 2.61 4.6 5.23 9.1 7.87 13.7 21.12 36.5 43.27 72.4 66.34 107.5 14.42 22 29.2 43.7 44.31 65.1l2.45 3.4 4.16 0.7h0.04c0.35 0 0.75 0.1 1.19 0.1 1.33 0.2 3.08 0.3 5.4-0.2 2.52-0.5 5.96-2.4 8.13-5.3 0.11-0.1 0.2-0.3 0.3-0.4 2.38-3.2 4.76-6.4 7.12-9.6 4.82-6.5 9.6-13.1 14.35-19.6 1.7-2.4 3.39-4.8 5.08-7.1 0.66-0.9 1.34-1.9 2-2.8 2.36-3.3 4.7-6.6 7.03-9.9 4.67-6.7 9.29-13.3 13.88-20 2.26-3.4 4.56-6.7 6.86-10.1 2.3-3.3 4.5-6.7 6.8-10 2.2-3.4 4.5-6.8 6.7-10.2 4.5-6.7 8.9-13.5 13.3-20.4 2.2-3.4 4.4-6.8 6.5-10.2 2.2-3.4 4.4-6.9 6.5-10.3 2.2-3.4 4.3-6.9 6.5-10.3 2.1-3.5 4.2-6.9 6.3-10.4 2.1-3.4 4.2-6.9 6.3-10.4 4.2-6.9 8.3-13.9 12.4-20.9 2.1-3.5 4.1-7 6.1-10.5 22.3-38.6 43.3-78 63-118 1.8-3.6 3.5-7.3 5.3-10.9 23-47.6 44.3-96.5 63.1-146.4 1-2.8 2-5.6 3.1-8.4 0.3-1 0.7-2 1.1-3 0.6-1.8 1.3-3.5 1.9-5.3l3-8.4 3-8.4c0.9-2.8 1.9-5.6 2.9-8.4 1.9-5.6 3.7-11.2 5.6-16.9l2.7-8.4c0.9-2.8 1.8-5.7 2.7-8.5 1.7-5.7 3.5-11.3 5.1-17 0.9-2.9 1.7-5.7 2.5-8.6 0.5-1.6 1-3.2 1.4-4.8 0.4-1.2 0.7-2.5 1.1-3.7 0.8-2.9 1.6-5.7 2.3-8.6 0.8-2.8 1.6-5.7 2.3-8.6 0.8-2.8 1.5-5.7 2.3-8.6 0.7-2.8 1.4-5.7 2.2-8.6 0.7-2.9 1.4-5.7 2.1-8.6s1.3-5.8 2-8.7l0.6-2.7c1.1-4.9 2.2-9.7 3.3-14.6l1.8-8.7 1.8-8.7c0.5-2.9 1.1-5.8 1.7-8.8 0.5-2.9 1-5.8 1.6-8.7l1.5-8.7v-0.1l1.5-8.7c0.1-1.1 0.3-2.2 0.5-3.3 0.7-4.7 1.5-9.5 2.2-14.3 0.4-2.9 0.8-5.9 1.2-8.8s0.8-5.9 1.1-8.8c0.2-1.4 0.4-2.9 0.5-4.3l0.6-4.5c0.3-3 0.7-5.9 1-8.9 0.3-2.9 0.6-5.9 0.9-8.8 0.2-3 0.5-5.9 0.8-8.9 0.5-5.9 0.9-11.8 1.3-17.8 0.2-2.9 0.4-5.9 0.6-8.8v-0.1c0.2-2.9 0.3-5.9 0.5-8.9 0.1-2.9 0.2-5.9 0.3-8.9s0.2-5.9 0.3-8.9 0.1-6 0.2-8.9c0.1-6 0.1-12 0.1-18 0-2.9-0.1-5.9-0.1-8.9-0.1-3-0.1-6-0.2-9 0-2-0.1-4.1-0.1-6.2-0.1-4.1-0.3-8.2-0.5-12.3v-0.1c0-2-0.2-4-0.3-6v-0.1c-0.1-2-0.2-4.1-0.3-6.1-0.3-4.1-0.6-8.2-0.9-12.3v-0.2c-9.4-116.8-49-231.8-118.1-327 29.3-11.1 59.2-21.9 88.5-34.8 0.1-0.1 0.3-0.2 0.4-0.2 2.2-1 4.5-2 6.7-3l1.2-0.6c2.4-1.1 4.9-2.3 7.3-3.4h0.1c2.5-1.3 5-2.5 7.6-3.7v-0.1l3.3-1.6 1.4-3.3v-0.1c0.2-0.3 0.3-0.7 0.5-1.1 1.3-3 2.5-6 3.8-8.9 25.8-62.2 45.6-126.4 68.6-188.6 97.6 153.4 193.5 309.4 291.1 462 0.2 0.5 0.4 1 0.7 1.5l1.2 2.1c5.8 10 15 16.8 24.7 21.3 11.1 5.2 23.1 7.5 34 8h0.1l0.7 0.1 0.5-0.1h0.2c10.8-1.1 24.4-1.6 37.7-5.3 13.2-3.7 26.9-11.3 34.1-26.2 17.1-31.7 24.7-66.5 32.2-99.5v-0.2-0.1c2.2-11 4.3-22.1 6.2-33.1 1-5.5 2-11 2.9-16.6 1-5.5 1.9-11 2.8-16.5v-0.1l2.7-16.5v-0.1c0.8-5.5 1.7-11 2.5-16.6 0.8-5.5 1.6-11 2.4-16.6 0.8-5.5 1.5-11.1 2.3-16.6 0.7-5.6 1.5-11.1 2.2-16.7 4.3-33.3 8-66.7 11.2-100.1 0.5-5.5 1-11.1 1.6-16.7 8.2-89.1 13.4-178.4 18.7-267.4v-0.1-0.2-0.1-0.2c0-30.6-3.3-60.9-8.4-90.8-0.4-2.7-0.9-5.4-1.4-8.1l-1.5-8.1c-0.5-2.7-1.1-5.4-1.6-8.1-0.6-2.7-1.1-5.4-1.7-8-0.5-2.7-1.1-5.4-1.7-8.1v-0.1c-2.8-11.8-5.8-23.5-9.1-35.1-0.1-0.5-0.3-1-0.4-1.6-1.5-5.1-3-10.3-4.5-15.4-0.6-1.8-1.1-3.5-1.7-5.3-0.3-1.1-0.6-2.2-1-3.3-0.6-2-1.2-3.9-1.8-5.9-0.3-0.8-0.6-1.7-0.9-2.6-0.5-1.7-1.1-3.4-1.7-5-0.4-1.3-0.8-2.5-1.2-3.7-0.4-1.4-0.9-2.9-1.4-4.3s-1-2.8-1.4-4.2c-0.7-2-1.5-4-2.2-6-0.2-0.7-0.5-1.5-0.7-2.2-0.8-2-1.5-4.1-2.3-6.1-0.3-0.8-0.5-1.6-0.8-2.4-0.8-2.2-1.6-4.3-2.4-6.4-0.3-0.7-0.5-1.3-0.7-1.9-1.1-2.7-2.1-5.5-3.2-8.2-54.1-138.8-141-264.4-243.8-370.6 29.5-167.2 54.1-337.4 45.9-508.6v-0.2c-6.4-248.7-26.1-500.2-95-741.39v-0.01-0.02c-30.5-105.83-70-209.67-121.3-307.51l-0.8-1.45c-8.3-16.16-16.9-32.17-25.8-48.01l-0.6-1.02c-1.6-2.92-3.3-5.84-4.9-8.75-0.4-0.61-0.7-1.23-1.1-1.84-1.4-2.55-2.9-5.1-4.4-7.64-0.9-1.56-1.8-3.13-2.7-4.69-1-1.63-1.9-3.27-2.9-4.89-1-1.65-2-3.3-2.9-4.95-1-1.55-1.9-3.11-2.8-4.66-1.3-2.12-2.6-4.23-3.9-6.34-0.6-1.03-1.2-2.05-1.8-3.07-1.5-2.38-2.9-4.76-4.4-7.13-0.5-0.79-1-1.58-1.5-2.36-103.7-167.02-239.7-313.83-395.36-432.89l-9.61-5.492h-0.14c-0.4-0.064-0.81-0.129-1.08-0.172-0.65-0.106-1.32-0.147-1.99-0.121zm-7.74 29.112c-0.15 210.82-0.08 421.63-0.03 632.44-3.39 0.28-7.22 0.51-11.71 1.04-147.23-6.1-292.91-47.41-422.32-117.89 103.33-201.03 256.38-375.53 434.06-515.59zm20.01 1.673c178.21 138.87 329.61 314.74 434.21 515.51-130.9 76.94-282.5 118.21-434.25 117.12-0.05-210.88-0.11-421.76 0.04-632.63zm-463.05 531.7c132.15 71.87 280.76 114.01 431.23 120.12 1.43 0.06 2.9 0.14 4.4 0.24 2.45 0.21 4.41 0.41 6.68 0.56-0.14 6.17-0.25 12.34-0.33 18.5-0.73 49.63-0.08 99.12-0.26 148.43-76.79 2.29-151.69 32.8-208.97 83.59-1.09 0.97-2.17 1.93-3.24 2.91-0.09 0.08-0.18 0.17-0.27 0.25-0.99 0.9-1.98 1.82-2.96 2.74-0.17 0.16-0.34 0.32-0.52 0.48-0.86 0.81-1.72 1.62-2.58 2.45l-1.08 1.05c-0.71 0.68-1.41 1.36-2.1 2.05-0.42 0.42-0.84 0.83-1.26 1.25-0.64 0.64-1.28 1.28-1.92 1.93-0.51 0.52-1.02 1.05-1.53 1.57-0.51 0.53-1.03 1.05-1.54 1.58-0.65 0.68-1.29 1.37-1.94 2.06-0.39 0.41-0.77 0.81-1.16 1.23-0.79 0.84-1.57 1.7-2.35 2.55-0.22 0.25-0.45 0.49-0.67 0.73-0.87 0.96-1.73 1.93-2.59 2.91-0.16 0.17-0.31 0.35-0.47 0.52-0.92 1.05-1.84 2.11-2.75 3.17-0.09 0.1-0.18 0.21-0.27 0.31-3.02 3.53-5.96 7.14-8.82 10.81l-0.01-0.01c-0.02 0.03-0.04 0.06-0.07 0.09-0.02 0.04-0.05 0.07-0.08 0.1v0.01c-0.09 0.11-0.18 0.23-0.28 0.35-39.32 48.29-62.23 107.39-68.73 168.29-0.04 0.4-0.07 0.8-0.11 1.2-0.43 4.2-0.79 8.3-1.07 12.5 0 0 0 0.1-0.01 0.1-0.29 4.5-0.5 9-0.62 13.5-0.02 1-0.03 2-0.05 3-0.02 1.3-0.05 2.6-0.06 3.8v0.7c-0.04 8.9 0.26 17.8 0.9 26.6 0.06 0.9 0.14 1.7 0.21 2.6 0.3 3.7 0.64 7.3 1.06 11 0.25 2.3 0.53 4.5 0.83 6.8 0.16 1.1 0.34 2.3 0.51 3.5 0.15 1.1 0.29 2.2 0.46 3.2 0 0 0 0.1 0.01 0.1 0.69 4.5 1.47 8.9 2.34 13.4 0.19 1 0.41 2 0.61 3 0.71 3.4 1.46 6.9 2.28 10.3 0 0 0.01 0 0.01 0.1 0.52 2.2 1.07 4.4 1.64 6.6 0.31 1.2 0.65 2.4 0.98 3.6 0.27 1 0.53 2 0.81 2.9 0.59 2.1 1.2 4.2 1.83 6.3 0.03 0.1 0.06 0.2 0.08 0.3h0.01c0.66 2.2 1.34 4.3 2.05 6.5 0.44 1.4 0.91 2.7 1.37 4 0.28 0.9 0.54 1.7 0.83 2.5 0.16 0.4 0.33 0.9 0.48 1.3 0.61 1.7 1.22 3.4 1.85 5.1 0.79 2.1 1.61 4.3 2.45 6.4 0.56 1.4 1.15 2.8 1.73 4.2 0.29 0.7 0.57 1.4 0.87 2.1h0.01c0.88 2.1 1.79 4.2 2.72 6.3h0.01c0.93 2 1.89 4.1 2.86 6.2 0.8 1.6 1.62 3.3 2.45 5 0.19 0.4 0.37 0.7 0.56 1.1 1.03 2.1 2.07 4.1 3.14 6.1h0.01c1.06 2 2.15 4 3.26 6 0.86 1.5 1.75 3.1 2.63 4.6 0.27 0.4 0.52 0.9 0.79 1.4 2.23 3.8 4.55 7.5 6.94 11.2 0.1 0.2 0.19 0.3 0.28 0.4 0.01 0 0.01 0 0.01 0.1 1.25 1.9 2.52 3.8 3.81 5.7 0.19 0.3 0.38 0.5 0.57 0.8 1.11 1.6 2.24 3.2 3.38 4.8h0.01c1.34 1.9 2.7 3.8 4.08 5.6 1.39 1.8 2.8 3.7 4.23 5.5h0.01c2.9 3.7 5.86 7.3 8.9 10.8 0.44 0.6 0.89 1.1 1.34 1.6 0.59 0.7 1.18 1.4 1.77 2 0.36 0.5 0.73 0.9 1.1 1.3 0.67 0.8 1.33 1.5 2.01 2.3 0.5 0.5 1 1.1 1.51 1.7 0.51 0.5 1.01 1.1 1.52 1.6 0.65 0.7 1.3 1.4 1.94 2.1 0.4 0.5 0.78 0.9 1.18 1.3 0.84 0.9 1.69 1.8 2.55 2.7 0.17 0.2 0.34 0.4 0.52 0.6 59.61 62.5 140.09 106.7 227.73 112.4-0.53 109.8 0.49 219.9 0.23 329.5v0.4c-0.01 4.1-0.03 8.1-0.05 12.2-0.16 46.5-0.56 92.9-1.44 139.2-1.23 3.3-1.82 6.2-2.47 8.3-69.82 218.9-89.61 449.6-97.35 676.9v0.2 0.1c-1.22 155.3-1.27 312.2 24.23 466.9-0.77-0.1-1.42 0-2.28-0.1-0.21 0-0.41-0.1-0.64-0.1-0.47-0.1-0.95-0.1-1.44-0.2l0.39-0.6-10.72-1.5c-1.51-0.2-3.07-0.4-4.69-0.6-35.4-4.6-70.44-13.1-104.76-23.7-40.62-16.8-82.68-29.9-120.37-49.4-27.9-70.5-50.67-143.5-77.98-215l-0.01-0.1c-10.85-28.9-19.69-58.7-28.2-88.7l-0.05-0.2c-56.83-213.4-115.9-426.2-172.36-639.6 1.23-12.4-2.32-23-4.08-31.7-0.17-0.8-0.34-1.7-0.47-2.5-0.01-0.1-0.02-0.1-0.03-0.2-0.02-0.1-0.03-0.2-0.05-0.3-15.41-83.1-28.83-166.7-37.65-250.7-1.65-15.7-3.14-31.5-4.45-47.2-0.44-5.3-0.86-10.5-1.25-15.8-0.4-5.3-0.78-10.5-1.13-15.8-0.36-5.2-0.69-10.5-1-15.7-0.31-5.3-0.6-10.6-0.87-15.8-0.27-5.3-0.51-10.5-0.73-15.8-0.23-5.3-0.43-10.5-0.6-15.8-0.35-10.5-0.6-21-0.76-31.5v-0.1c-0.08-5.2-0.13-10.5-0.15-15.7-0.06-10.6-0.01-21.1 0.15-31.6 0.08-5.3 0.18-10.5 0.32-15.8 0.13-5.3 0.29-10.5 0.48-15.8v-0.1c0.21-7.6 0.43-15.2 0.66-22.8s0.47-15.2 0.72-22.8c0.51-15.2 1.07-30.4 1.69-45.6s1.3-30.4 2.05-45.5v-0.1c0.38-7.5 0.77-15.1 1.18-22.7s0.84-15.2 1.29-22.8 0.92-15.2 1.42-22.7c0.49-7.6 1-15.2 1.54-22.8 0.53-7.6 1.09-15.1 1.67-22.7 1.16-15.2 2.42-30.3 3.78-45.4 0.68-7.6 1.39-15.1 2.12-22.7s1.5-15.1 2.28-22.7c0.01 0 0 0 0 0 0.79-7.5 1.61-15.1 2.46-22.6v-0.1c0.79-7.2 1.61-14.5 2.46-21.8 26.34-225.4 81.88-449.27 185.24-651.42zm906.46 1.69c43.8 84.91 78.7 174.4 106.7 265.92 0.9 2.94 1.8 5.89 2.7 8.83v0.17c2 6.47 3.9 12.96 5.7 19.45 3.2 11.19 6.3 22.41 9.3 33.64v0.03c1 3.74 2 7.47 3 11.21v0.03c0.9 3.75 1.9 7.49 2.8 11.23 0 0.01 0.1 0.02 0.1 0.03 0.9 3.75 1.8 7.5 2.8 11.25v0.03c2.8 11.27 5.4 22.56 8 33.88v0.02c1.8 7.54 3.4 15.09 5.1 22.65v0.03c0.8 3.77 1.6 7.53 2.4 11.33l2.4 11.4c3.9 18.9 7.5 38 10.9 57l2.1 11.4v0.1c0.6 3.8 1.3 7.6 1.9 11.4 0.7 3.8 1.3 7.6 1.9 11.5 0.7 3.8 1.3 7.6 1.9 11.4 0.6 3.9 1.2 7.7 1.8 11.5 0.6 3.9 1.1 7.7 1.7 11.5s1.2 7.7 1.7 11.5c1.1 7.7 2.2 15.4 3.3 23l0.3 2.4c2.5 18.4 4.8 36.9 6.9 55.3v0.1c0.9 7.7 1.8 15.4 2.6 23.1l2.4 23.1c0.3 2.8 0.5 5.6 0.8 8.4 0.9 9.1 1.7 18.2 2.5 27.3 0.4 3.6 0.7 7.1 1 10.7 2 23.2 3.8 46.5 5.3 69.7 0.6 7.8 1.1 15.5 1.5 23.3 0.1 1.3 0.2 2.7 0.3 4.1 1.3 21.9 2.5 43.8 3.5 65.7 0 0.7 0 1.3 0.1 2 0.6 14.9 1.2 29.7 1.8 44.5 0.3 7.8 0.5 15.6 0.8 23.3 0.5 15.5 1 31 1.4 46.5v0.1 0.2c8.1 170.3-16.7 340.8-46.6 509.3-42.2 225-104.7 446-173.6 664.7-9.8 29.7-19.8 59.4-29.5 89.3v0.2c-1.4 4.2-2.7 8.4-4.1 12.6-1.1 3-2.3 6.1-3.4 9.1-0.5 1.3-1 2.6-1.5 3.8-1.3 3.6-2.6 7.2-3.9 10.8-0.3 0.8-0.6 1.7-0.9 2.5-22.6 62.1-42.2 125-67.5 184.9-11.9 5.7-24 11.1-36.2 16.2h-0.2c-4.8 2-9.7 4-14.6 6-2.5 0.9-5 1.9-7.5 2.9-1.7 0.7-3.4 1.3-5.1 2-18.2 7-36.6 13.8-55 20.8-34 9.5-67.9 18.4-102.2 23.4-4 0.2-7.8 0.6-11.3 1.1-5.1 0.7-9.7 1.5-13.7 1.9 24.2-157.9 26.9-317.9 23.8-476.6v-0.1c-0.3-7.1-0.5-14.2-0.8-21.4-0.3-7.1-0.5-14.2-0.8-21.3-0.3-7.2-0.7-14.3-1-21.4-0.3-7.2-0.7-14.3-1-21.4-0.4-7.2-0.8-14.3-1.2-21.4-0.4-7.2-0.8-14.3-1.2-21.5-0.5-7.1-1-14.2-1.4-21.4-1.5-21.4-3.1-42.8-5-64.2-0.6-7.1-1.2-14.3-1.9-21.4s-1.4-14.3-2.1-21.4-1.5-14.2-2.2-21.4c-0.8-7.1-1.6-14.2-2.5-21.3-7.9-67.6-18.4-134.9-32.44-201.4-5.18-24.5-10.84-49-17.02-73.3-3.53-13.9-7.24-27.7-11.13-41.5-1.94-6.9-3.93-13.8-5.97-20.7-2.03-6.9-4.11-13.8-6.24-20.6-2.13-6.9-4.31-13.7-6.53-20.6l-1.88-5.8c1.79-100.8 1.43-202.2 1.14-303.4-0.15-56.4-0.28-112.7-0.01-168.8 99.28 2.2 197.28-43.7 260.18-120.3 65.9-77.7 90.3-185.9 68.4-284.4-0.5-2-0.9-3.9-1.4-5.8-0.4-1.9-0.9-3.9-1.4-5.8s-1-3.8-1.6-5.7c-0.5-1.9-1.1-3.8-1.6-5.7l-1.8-5.7c-0.6-1.9-1.2-3.8-1.9-5.6-3.2-9.4-6.9-18.6-11-27.7-1.6-3.6-3.4-7.2-5.2-10.8s-3.7-7.2-5.6-10.7c0 0 0-0.1-0.1-0.1-0.9-1.7-1.9-3.5-2.9-5.2-0.1-0.2-0.2-0.4-0.4-0.7-0.8-1.4-1.7-2.9-2.5-4.3-0.4-0.7-0.8-1.3-1.2-1.9-0.6-1.1-1.2-2.1-1.8-3.1-0.7-1-1.3-2-1.9-3-0.4-0.7-0.9-1.3-1.3-2-0.7-1.1-1.4-2.1-2.1-3.2-0.4-0.6-0.7-1.2-1.1-1.8-0.8-1.2-1.6-2.3-2.4-3.5-0.3-0.4-0.6-0.9-0.9-1.3-0.9-1.3-1.8-2.6-2.7-3.9-0.2-0.3-0.4-0.6-0.7-0.9l-3-4.2c-0.1-0.2-0.2-0.3-0.4-0.5-1.1-1.6-2.3-3.1-3.4-4.6-63.3-83.13-162.7-139.57-268.19-141.92 0.1-26.21-0.05-52.38-0.12-78.5-0.06-29.5 0.01-58.93 0.67-88.29 155.24 1.22 310.24-40.78 444.14-119.3v-0.02zm-454.9 306.02h0.07 0.08l6.92 0.01c72.33 0.96 142.43 29.53 198.43 75.36 1.5 1.22 3 2.44 4.5 3.68 7.3 6.18 14.3 12.65 21.1 19.4 5.5 5.4 10.7 10.97 15.8 16.71 18.9 21.55 35.2 45.35 48.1 70.75 0.8 1.6 1.6 3.3 2.4 5 1.6 3.4 3.2 6.7 4.7 10.2 2.2 5.1 4.2 10.3 6.1 15.5 1.3 3.5 2.5 7 3.6 10.5 1.2 3.6 2.2 7.1 3.2 10.7s2 7.2 2.8 10.8c2.6 10.8 4.6 21.8 6 32.8 0.5 3.7 0.9 7.4 1.2 11.1 1.6 16.7 1.7 33.5 0.6 50.2-2.2 33.4-9.6 66.5-22.1 97.5-2 5.2-4.3 10.3-6.6 15.4-11 23.5-25 45.6-41.9 65.5v0.1l-0.1 0.1c-0.9 1.1-1.9 2.3-2.9 3.4-2.9 3.5-5.9 6.8-8.9 10.1-2.1 2.2-4.1 4.4-6.2 6.6-50.6 51.3-119.6 84.5-191.2 91.6-1.49 0.1-2.99 0.3-4.48 0.4-10.3 0.9-20.66 1.2-31.01 0.9l-9.54-0.3-0.08-0.1h-0.09l-10.29-0.5c-1.11-0.1-2.22-0.1-3.33-0.2-78.21-6.4-151.07-45.9-206.19-102-2.12-2.2-4.22-4.3-6.29-6.5-7.23-7.8-14.13-15.8-20.68-24h-0.01c-1.33-1.7-2.65-3.4-3.94-5.1-9.04-12.1-17.05-24.8-24.03-38-3.99-7.6-7.64-15.3-10.96-23.2-0.82-1.9-1.63-3.9-2.42-5.9-1.57-4-3.06-8-4.46-12-0.7-2-1.39-4.1-2.04-6.1-1.32-4.1-2.56-8.1-3.71-12.3-0.58-2-1.13-4.1-1.67-6.2-1.06-4.1-2.05-8.3-2.94-12.5-0.9-4.1-1.72-8.3-2.44-12.6-1.1-6.3-2-12.6-2.72-19-0.95-8.5-1.57-17.1-1.84-25.7-0.14-4.2-0.2-8.5-0.17-12.8 0.06-8.6 0.46-17.1 1.19-25.7 0.74-8.5 1.81-17 3.22-25.5 0.71-4.2 1.49-8.4 2.37-12.6 2.18-10.5 4.9-20.8 8.13-31 1.3-4.1 2.68-8.1 4.15-12.1 0.73-2 1.48-4 2.26-6 2.32-6 4.83-11.9 7.54-17.7 1.8-3.8 3.69-7.7 5.66-11.5s4.03-7.5 6.17-11.2 4.36-7.4 6.67-11c1.16-1.8 2.33-3.6 3.53-5.4 2.39-3.5 4.87-7 7.43-10.5 2.57-3.4 5.21-6.8 7.95-10.1l0.07-0.1 0.08-0.1c5.38-6.95 11.07-13.61 17.04-20 1.99-2.13 4.02-4.23 6.07-6.31 3.08-3.11 6.22-6.15 9.43-9.12 2.14-1.98 4.31-3.93 6.5-5.85 8.78-7.68 18.01-14.87 27.6-21.52 2.4-1.66 4.82-3.29 7.27-4.89 34.22-22.34 72.81-38.07 112.91-45.76 1.43-0.27 2.86-0.54 4.3-0.79 14.9-2.63 30-4.15 45.15-4.48l6.94-0.09zm1.53 53.57c-33.89 0.08-67.78 6.75-98.9 19.86-89.93 36.49-154.53 126.58-158.71 223.88-3.13 62 15.3 126.5 56.46 174.4 52.39 69.5 143.48 106.6 229.7 95.9 66.02-6.9 128.42-40.9 170.22-92.4 48.4-58.3 69.4-138.1 53.9-212.6-12.8-68.9-55.6-131.2-115-168.22-38.4-26.2-84.48-39.67-130.89-40.75-2.26-0.06-4.52-0.08-6.78-0.07zm-0.03 20.14c2.08-0.01 4.17 0.02 6.26 0.07 42.9 1.02 85.44 13.38 120.34 37.24l0.2 0.12 0.2 0.11c54.6 33.96 94.4 91.86 106.1 155.16v0.1 0.1c14.2 68.2-5.3 142.3-49.7 195.8v0.1c-38.4 47.3-96.3 78.9-156.96 85.2h-0.1-0.1c-78.98 9.9-163.88-24.8-211.57-88.3l-0.2-0.2-0.22-0.3c-37.43-43.4-54.77-103.2-51.85-160.7 3.81-88.9 63.93-172.9 146.31-206.27l0.06-0.03 0.07-0.02c28.54-12.05 59.86-18.13 91.16-18.18zm8.56 1125.4c38.22 135.6 58.94 275.7 70.44 416.6 0 0.7 0.1 1.4 0.2 2.2 0.4 5.1 0.8 10.3 1.2 15.4 0.1 1.7 0.2 3.3 0.3 5 0.4 4.5 0.7 9.1 1 13.7 0.2 2.2 0.3 4.4 0.5 6.6 0.3 4.2 0.6 8.5 0.8 12.7 0.2 2.6 0.4 5.2 0.5 7.8 0.3 3.9 0.5 7.9 0.8 11.9 0.1 2.7 0.3 5.3 0.4 8 0.3 4 0.5 8.1 0.7 12.1 0.2 2.8 0.3 5.6 0.5 8.4 0.2 3.7 0.4 7.3 0.5 11 0.2 3.3 0.4 6.6 0.5 9.9 0.2 3.4 0.4 6.9 0.5 10.3 0.2 3.4 0.3 6.9 0.5 10.3 0.1 3.2 0.3 6.3 0.4 9.4l0.6 14.4c0 1.8 0.1 3.7 0.2 5.5 0.2 6.8 0.5 13.5 0.7 20.2v0.1c3.2 161.6 0.2 324.1-25.2 483.5-16.4 57.9-33.49 107.8-55.87 162.9-0.23-419.3 0.05-838.6-0.17-1257.9zm-19.98 1.2c0.22 418.6-0.09 837.2 0.14 1255.8-20.64-55.4-44.3-108.2-55.88-163.2-26.64-155.3-26.55-314.1-25.32-472.3 7.11-208.8 24.47-419.5 81.06-620.3zm643.62 57c111.3 117.6 202.4 258.1 250.5 412.8 0.1 0 0.1 0 0.1 0.1 0.8 2.7 1.6 5.3 2.4 8 0.1 0.2 0.1 0.3 0.2 0.4 4.8 16.2 9.2 32.6 13.1 49.1 9.2 41.9 15.9 84.3 15.8 126.6-10.5 177.9-20.8 356.1-55 530.4-7.5 33.2-15 66.1-30.5 94.6l-0.1 0.2-0.1 0.2c-4.2 8.8-11.3 12.9-21.4 15.7-9.9 2.8-22 3.5-33.3 4.6-1.1-0.1-2.2-0.1-3.3-0.3-1.1-0.1-2.2-0.2-3.3-0.4-6.7-0.9-13.6-2.7-19.6-5.4l-0.1-0.1c-7.6-3.5-13.3-8.4-16.5-14.8-12.2-93.2-45.9-181.1-85.3-264.9-1-2.3-2.1-4.5-3.1-6.8-0.4-0.7-0.7-1.5-1.1-2.2-0.5-1.1-1-2.2-1.5-3.2-1-1.9-1.9-3.8-2.8-5.7-2.8-6-5.7-11.9-8.6-17.8l-0.1-0.1c-48.2-96.5-104.4-188.9-165.4-277.8 66.5-211.3 127.1-425.1 169-643.2zm-1269 0.6c0.97 4.7 2.31 10.1 6.18 15.1 54.96 207.6 112.33 414.6 167.68 622-1.07 1.3-1.7 2.5-2.26 3.7-94.82 138.5-181.38 285.3-237.36 445.1l-0.03 0.1-0.04 0.1c-14.2 43.3-26.22 87.8-31.26 133.8-7.17 12.5-18.92 18.8-33.55 21.3-15.2 2.5-32.99 0.3-47.39-4.4-0.27-0.1-0.54-0.2-0.82-0.3-6.92-1.6-11.54-5.7-15.93-12.3-4.36-6.4-7.855-15.1-11.369-23.5-18.332-49.5-26.532-102.6-35.217-155.9-19.616-135.7-30.335-272.6-37.963-409.6-0.007-0.2-0.017-0.3-0.031-0.5-10.198-102.9 19.123-205.8 58.252-301.9 52.308-123.1 129.46-235.3 221.11-332.8zm180.88 662.8c7.42 26 15.27 52 24.68 77.6-21.1 32.5-41.99 65.2-62.75 98-71.34 112.6-141.21 226.4-212.49 338.2 5.86-28.4 13.72-56.4 22.83-84.2 53.69-153.2 136.34-295 227.73-429.6zm911.17 4.1c57.2 84.3 110 171.5 155.5 262.5 2.6 5.3 5.2 10.7 7.8 16 35.8 74.3 67.4 151.1 84.3 231-76.8-121-153-243.9-230-365.7-2-3.3-4.1-6.5-6.2-9.8-3.4-5.5-6.9-11-10.4-16.4-2.8-4.5-5.6-9-8.4-13.4l-2.1-3.3c-5-7.9-10-15.8-15.1-23.6v-0.1l-0.6-0.9c8.2-25.4 16.7-50.8 25.2-76.3zm-243 356.5v0.1c77.4 104 118 234.2 120.2 363.8v0.1c4.8 181.1-51.5 358.2-128.6 521.4-2.5 5.3-5 10.5-7.5 15.8-32.5 67.1-68.8 132.4-108.7 195.5-2.1 3.3-4.2 6.6-6.3 9.9-2.1 3.4-4.2 6.7-6.4 10-1.4 2.2-2.9 4.5-4.4 6.8-0.7 1-1.3 2-2 3-2.1 3.3-4.3 6.6-6.49 9.9-2.17 3.2-4.36 6.5-6.55 9.7-1.05 1.6-2.1 3.1-3.15 4.7-1.15 1.7-2.3 3.4-3.46 5.1-2.21 3.2-4.43 6.5-6.67 9.7-1.36 2-2.73 4-4.1 5.9-0.87 1.3-1.74 2.5-2.62 3.8-2.25 3.2-4.51 6.4-6.78 9.6-2.26 3.2-4.54 6.4-6.83 9.6s-4.58 6.4-6.89 9.6c-2.3 3.2-4.62 6.3-6.94 9.5s-4.65 6.3-7 9.5c-43.71-62.5-84.6-127.5-121.88-194.6-2.48-4.4-4.95-8.9-7.4-13.4-7.36-13.5-14.57-27-21.63-40.7-2.35-4.5-4.69-9.1-7.01-13.6-2.31-4.6-4.61-9.2-6.9-13.7-2.28-4.6-4.55-9.2-6.79-13.8-4.5-9.2-8.93-18.4-13.28-27.7-13.05-27.7-25.45-55.8-37.15-84.1-3.9-9.4-7.71-18.9-11.45-28.4h-0.02-0.01c-0.02-0.1-0.03-0.1-0.05-0.1-1.99-5.2-3.96-10.4-5.9-15.6-1.95-5.3-3.87-10.5-5.76-15.7-0.01-0.1-0.01-0.1-0.02-0.1-0.25-0.7-0.5-1.4-0.76-2.1-1.63-4.6-3.26-9.2-4.85-13.7-1.83-5.3-3.63-10.6-5.41-15.9h-0.01c-1.78-5.3-3.52-10.6-5.23-16-0.86-2.6-1.71-5.3-2.56-8-0.84-2.7-1.66-5.3-2.48-8h-0.01c-0.83-2.7-1.64-5.3-2.44-8-0.01 0-0.01 0-0.02-0.1-0.8-2.6-1.6-5.3-2.38-8-0.29-0.9-0.57-1.9-0.85-2.9-1.29-4.4-2.56-8.8-3.8-13.2h-0.02c-1.51-5.4-2.98-10.8-4.42-16.2h-0.02c-0.71-2.7-1.42-5.4-2.12-8.1h-0.02c-2.81-10.8-5.48-21.7-8-32.5 0-0.1-0.01-0.1-0.01-0.1-1.89-8.1-3.7-16.3-5.41-24.5h-0.01c-2.29-10.9-4.43-21.8-6.4-32.8h-0.01c-0.98-5.5-1.93-11-2.83-16.5-7.69-46.7-12.36-93.7-13.47-140.7-0.72-30.5 0.05-61 2.46-91.4 0.87-11 1.97-22.1 3.29-33.1 0.87-6.1 1.8-12.1 2.79-18.2 0.21-1.3 0.43-2.6 0.65-3.9 0.28-1.6 0.55-3.3 0.84-5 15.04-86.5 43.12-173.1 95.69-242.5 28.4 8.6 57.42 15.7 86.9 20.4-3.44 6.1-6.66 12.4-9.69 18.7-0.12 0.2-0.24 0.5-0.36 0.7-0.89 1.9-1.77 3.8-2.62 5.6-0.17 0.4-0.34 0.8-0.51 1.1-0.83 1.9-1.63 3.7-2.43 5.6-0.18 0.4-0.37 0.8-0.55 1.2-0.78 1.9-1.54 3.7-2.28 5.5-0.18 0.4-0.36 0.9-0.54 1.3-0.74 1.8-1.46 3.7-2.18 5.5-0.16 0.5-0.33 0.9-0.5 1.3-0.7 1.9-1.39 3.7-2.07 5.6-0.16 0.4-0.31 0.9-0.47 1.3-0.66 1.8-1.3 3.7-1.93 5.5-0.18 0.6-0.36 1.1-0.55 1.7-0.59 1.7-1.18 3.5-1.75 5.3-0.18 0.5-0.34 1.1-0.52 1.6-0.57 1.8-1.14 3.7-1.69 5.5-0.13 0.4-0.24 0.8-0.36 1.2-0.58 2-1.16 3.9-1.71 5.9-0.07 0.2-0.13 0.5-0.2 0.7-0.59 2.2-1.17 4.3-1.73 6.4-2.44 9.3-4.56 18.8-6.37 28.2-0.38 2-0.74 4-1.09 6-0.08 0.5-0.17 0.9-0.24 1.4-0.31 1.7-0.59 3.4-0.88 5.2-0.12 0.7-0.24 1.4-0.36 2.2-0.24 1.5-0.48 3.1-0.71 4.6-0.13 1-0.27 1.9-0.41 2.8-0.2 1.4-0.39 2.9-0.58 4.3-0.14 1.1-0.29 2.1-0.42 3.2-0.18 1.4-0.35 2.8-0.51 4.2-0.12 1-0.24 2.1-0.35 3.1-0.16 1.4-0.32 2.9-0.47 4.3-0.1 1.1-0.21 2.1-0.31 3.2-0.13 1.4-0.26 2.7-0.39 4.1-0.09 1.1-0.19 2.2-0.28 3.4-0.11 1.3-0.21 2.6-0.31 3.9-0.09 1.2-0.18 2.5-0.26 3.7s-0.17 2.5-0.24 3.7c-0.08 1.2-0.14 2.5-0.21 3.7-0.06 1.2-0.13 2.5-0.19 3.7-0.06 1.3-0.11 2.5-0.16 3.8-0.05 1.2-0.1 2.4-0.14 3.7-0.05 1.3-0.08 2.7-0.12 4-0.03 1.1-0.06 2.2-0.08 3.2-0.03 1.4-0.05 2.8-0.07 4.3-0.01 1.1-0.03 2.2-0.04 3.3-0.01 1.5-0.01 2.9-0.01 4.3 0 1-0.01 2-0.01 3 0.01 2.5 0.04 4.9 0.08 7.4v0.1l0.01 0.1c6.04 168.4 76.04 326.5 163.33 466.2 0.83 1.4 1.64 2.8 2.41 4.1l7.94 14 9.04-13.3c80.49-118.6 144.89-251.9 168.59-395.1 0.5-3 1-6.1 1.5-9.2 0-0.1 0.1-0.3 0.1-0.4 0.5-3.1 0.9-6.1 1.3-9.2 0.1-0.1 0.1-0.3 0.1-0.4 0.4-3 0.8-5.9 1.1-8.9 0.1-0.3 0.1-0.6 0.1-0.9 0.4-3 0.7-5.9 1-8.9 0-0.2 0.1-0.4 0.1-0.6 0.3-3.2 0.6-6.3 0.8-9.4 7-86.9-8.8-176.3-54.1-251.9 28.5-5.1 56.3-12.3 83.8-19.9zm-104.8 21.5c53.7 83.8 67.4 189.7 52.1 285.4-21.4 139.4-81.9 269.1-159.62 386.1-15.11-24.5-29.57-49.4-43.13-74.6-62.5-115.8-108.57-244-112.94-376.3-1.07-76.1 12.39-153.7 51.67-219.8 6.77 1.3 13.64 3 20.6 2.4 4.45 15.5 8.66 32.4 14.18 48.1 19.06 56.3 43.6 110.2 60.75 167h5.31c0.72 0.1 1.46 0.1 2.2 0h3.66c30.77-70 57.83-141.6 78.52-215.3 8.5 0.4 16.9-1.6 25.3-2.8h0.1l1.3-0.2z" transform="scale(.8)"/>
</svg>
