<?xml version="1.0" encoding="UTF-8" standalone="no"?>
<svg id="svg4277" xmlns:rdf="http://www.w3.org/1999/02/22-rdf-syntax-ns#" xmlns="http://www.w3.org/2000/svg" height="656.73mm" width="546.26mm" version="1.1" xmlns:cc="http://creativecommons.org/ns#" xmlns:dc="http://purl.org/dc/elements/1.1/" viewBox="0 0 1935.5663 2326.985">
<g id="layer1" transform="translate(2227.8 1156.8)">
<path id="path4" d="m-1646.5-1156.8c-2.7248-0.03-5.4445 0.06-8.1445 0.2676-60.862 3.8125-119.64 22.3-176.38 43.6-24.012 12.7-47.788 26.65-74.238 33.713-23.675 2.475-46.299-9.1141-70.049-5.6016-38.688 0.062-73.751 23.751-101.36 46.551-2.325-27 32.312-34.888 36.975-60.525-32.1 20.562-56.124 52.064-77.648 83.326-26.5 49.087-23.976 111.39 5.1992 158.84 5.2875 9.9875 13.901 19.025 14.613 30.812-19.575 16.2-32.289 40.502-34.226 65.914-4.5375 37.212-2.3739 78.3 18.514 110.56 9.8 9.6125 20.625 20.012 23.162 34.1-4.425-0.3625-12.051 1.4488-11.301-5.9512-37.462 5.9875-73.162 24.751-99.199 52.514-16.938 26.65-35.038 60.937-22.863 92.324 6.0875-12.488 13.389-27.363 28.602-30.088-15.05 31.25-32.939 63.776-32.951 99.701 1.1125 15.012 10.162 29.174 19.85 39.574-5.075-14.65-12.55-29.011-9.7246-45.174 7.45-38.638 33.175-71.564 35.1-111.64-14.262-0.6-24.424 9.8496-36.299 15.662 1.35-20.225 16.65-35.738 26.4-52.312 28.75-13.775 52.061-36.712 81.148-49.5 24.875 1.8875 55.064 8.114 73.789-13.148 32.662-23.1 63.124-50.327 98.986-68.352 49.875-28.5 111-32.523 165.2-13.836-18.825 13.125-43.488 15.325-61.438 29.975 25.65 11.95 57.412-0.74961 82.074 14.4 11.688 10.788 21.174 23.85 34.387 33.037-18.812 15.438-48.737 3.1371-68.387 6.6621 14.938 18.662-28.475-3.675-21.475 19 16.912 14.988 42.336 20.612 57.049 37.262-20.388 2.6125-63.699-13.1-67.924 18.5 5.1375 5 19.411 0.18788 23.549 8.7129-24.175 13.025-53.036 2.1371-78.861 7.6621-38.725 8.6375-82.2 16.488-109.34 48.426-16.225 20.075-43.938 31.462-46.488 60.199-19.225 3.5625-10.525-22.786-19.162-27.461-12.225 22.225-31.462 40.8-38.5 65.562-0.75 2.75-12.387 1.511-7.3868 6.211 9.0875 9.3 14.313 35.714-6.5996 26.701 5.425 5.6125 15.987 7.7363 20.512 15.674 3.35-7.6625-4.8117-28.65 6.4258-27.537 0.8125 14.612-0.5883 32.4 11.574 43.162 9.3625 6.5875 2.5754 20.014 7.0879 29.264 9.9625 32.088-25.351 64.8-5.5507 95.088 4.2625-13.075 8.1003-33.738 21.65-38.775 9.2625 30.675 19.75 63.725 22.25 96.4-13 41.6-18.05 86.287-10.65 129.57 2.825 23.788 7.6503 52.663 25.15 68.563 2.15-35.138-1.4003-77.063 17.662-110.15 6.5875 1.775 3.125 11.675 5.8125 16.65 4.2375 27.837 22.638 50.474 30.488 77.074 16.838 46.025 53.987 85.625 54.662 136.56 3.975 53.488 6.2993 107.49 19.012 159.8 14.425 62.362 50.002 119.95 101.23 158.75 5.5375 5.5375 20.75 12.899 11.162 21.449-43.75 24.45-82.975 58.752-106.4 103.66-22.062 35.912-29.237 82.911-18.887 122.11 10.538 1.1125-0.8-10.675 3-16.125 7.125-20.012 17.675-39.512 32.938-54.475 6.7125-1.9375 2.7371 6.2882 1.7246 9.6757-15.9 46.038-24.287 101.46 2.7129 145 16.988 31.388 50.862 61.286 88.6 57.086-22.6-18.712-41.401-47.274-35.139-76.699 16.95 10.7 29.926 30.988 50.113 38.5 37.075 19.888 79.987 25.7 121.57 26.787 17.2 61.138 60.175 116.24 118.03 143.66 39.488 17.038 84.751 14.401 125.18 2.0761 22.275-13.1 45.963-25.463 71.213-31.613-15.388 24.525-31.063 54.239-22.301 84.014 4.4375 31.862 36.75 46.425 62.213 59.125 11.738 15.475 25.688 32.024 45.838 35.836 20.65 0.4375 41.337-0.074 62.012 0.1758 16.812 3.3875 26.613-13.212 39.088-20.975 42.538-51.312 36.588-122.32 40.375-184.56 8.1125-49.575-15.988-96.051-22.75-144.3 13.262-0.425 16.225-14.6 18.225-23.775 13.075 29.525 16.901 65.788 27.113 97.75 31.975 54.65 98.887 101.98 163.95 76.938 40.188-26.162 66.888-69.687 110.44-91.324 6.6375-15.275-19.65-34.613-2-47.926 59.662-85.038 158.4-144.6 186.39-249.86 8.3-44.638-5.3485-103.19-51.024-123.1-43.188-17.888-91.25-5.4254-133.53 8.4121 3.3-31.525 0.25-67.126-22.188-91.451-15-13.1-33.563-22.525-53.426-25.25-5.3875 1.5125-5.9989-3.2746-6.5489-6.5996 18.988-14.025 45.1-10.787 64.5-24.6 0.6625-19.575-21.989-26.975-37.826-20.912-12.612 3.7 1.3258-8.2 4.6757-9.5625 49.475-22.662 109.01-38.05 162-20.275-1.4375-6.3375-3.3375-13.4-9.375-16.875-36.7-25-82.138-30.413-124.62-39.088-5.8625-3.025-20.963 3.4871-18.488-7.5254 22.975-2.475 46.075-3.975 69.1-5.9375-20.712-7.475-43.587-3.5246-64.6-10.037-85.438-18.988-175.51 6.3754-246.6 54.9-11.912 10.6-24.675 22.025-39.25 28.037 11-44-32.763-68.224-45.613-104.39 32.975-18.05 64.012-39.562 98.25-55.25 29.275-15.262 60.989-31.326 94.976-28.514-4.7125 6.975-17.026 12.225-11.451 21.937 7.6125 2.6375 16.525-1.336 24.688-1.2735-3.475 13.638-28.924 11.638-26.637 28.438 32.638 10.462 65.675-7.2625 98.65-5.1875-6.5125 12.738-33.062 7.3618-28.75 26.137 25.038 11.05 49.874-8.3379 73.762-13.963 7.875-2.675 10.862 5.8379 15.449 9.9629 15.962-1.975 28.538-12.563 39.588-23.426 9.95-0.675-3.8629 9.6504 1.1621 15.4 26.912-0.3 39.013-32.012 60.738-41.975 12.662 14.312 40.675 24.125 51.225 2.0878-8.325-7.5625-29.287-11.675-29.387-26.974 13.35-0.1625 26.749-0.4762 40.012-2.2637 21.65-1.5375 26.262 24.862 37.162 38.375 67.362 89.025 110.71 205.65 215.48 258.74 39.8 6.7875 87.961-10.313 102.02-51.525 9.3375-38.162 0.1512-78.45-14.236-114.22-3.725-13.738-17.001-21.375-26.613-30.787-9.5625-9.9875-32.85-11.576-35.125 5.8985-7.125 37.112 24.464 73.75 9.0136 110.94-11.488 16.175-31.375 1.55-43.75-5.8125-10.262-9.275-21.914-17.288-30.639-28.125-35.938-52.6-76.386-102.46-106.11-159.04-9.8-17.312 17.037-28.587 14.475-46.762 4.0125-46.475-46.926-68.264-63.176-106.2-1.55-25.2 1.525-54.912-16.562-75.324-21.45-20.9-56.138-7.6883-79.375-17.676-72.162-100-149.48-196.56-212.81-302.65-20.2-18.812-37.375-51.4-69.213-48.375-10.838 33.075 25.713 57.012 35.801 85.449 61.562 77.488 109.2 164.84 168.66 243.9 3 7.2375-6.5364 4.5113-10.424 3.0488-44.4-15.8-101.5-9.4246-131.58 29.713-23.312 0.225-48.412-1.6988-71.824 4.5137-25.775-22.4-55.276-40.326-81.176-62.301 15.2 4.35 30.088 10.112 45.926 11.938-22.738-30.4-59.526-45-95.426-51.688 17.5-7.2625 37.401-9.0008 56.238-9.8008 0.4125-4.95-1.3997-9.9617-7.5372-9.8867-32.438-8.2-66.776-6.9617-99.701-8.4492 13.775-11.775 32.126-21.751 39.051-38.863-21.35 8.7-43.762 16.474-67.313 13.324-24.15 1.3375-46.489-12.599-70.576-9.3242 5.5375-24.2 35.8-32.825 42.75-57.025 8.475-12.812-0.2492-28.925-14.449-32.625 12.713-36.838 24.051-75.524 18.988-114.99-15-4.75 4.5997-27.613-7.7129-33.988-12.188-2.35-16.712-22.362-4.8125-27.787 17.125-8.4625 31.213-21.525 47.625-31.15 1.1875-14.275-17.9 5.6992-25.838-1.3008 15.4-12.638 31.488-25.073 42.438-42.086-54.738 4.4875-109.44-8.6383-157.45-34.676-19.6-13.275-46.101-8.4621-66.301-17.287 12.2-7.25 26.35 0.54961 39.412 0.41211 0.4625-6.1125 7.6632-4.1617 11.863-5.1992-21.462-10.512-44.512-16.725-67.912-21.213-28.85-13.212-59.176 4.7996-88.602 1.2246 14.188-6.4625 29.188-11.213 43.051-18.525-59.05-7.8375-126.83 8.5254-166.09 56.025-9.975 16.612-16.938 40.35-39.75 42.438-15.088 20.15-12.875 49.588-30.75 68.15-6.45 8.425-17.788 4.3246-26.75 6.9746-22.225 3.45-39.074 21.675-47.387 41.713-12.1-3.025-34.001 1.9496-32.826-16.4-0.8-7.2-9.425-10.149-11.375-16.074 20.238 0.0125 40.5 0.68633 60.75-0.0761 1.1125-22.612-22.062-35.311-38.475-46.049-5.1375-0.625-6.8618-7.7137-1.5743-8.8887 25.3-7.6625 54.688-1.4738 77.875-15.924 5.5125-3.025-1.0625-8.5754-5-9.0879-18.975-4.3875-29.937-21.888-41.287-36.113-11-12.238-30.288-11.15-43.65-17.125 18.925-12.612 43.199-10.612 64.824-13.35-35.012-13.088-71.674-22.888-108.89-26.9-6.925 4.4-9.3754-9.0488-3.1504-9.4863 40.438-11.962 76.325-47.039 121.28-36.139-8.95-28.488-52.763-10.962-69.051-17.725 30.45-16.725 75.476-40 65.451-81.85-8.875 6.625-16.025 7.8367-10.188-5.0508 23.125-29.588 63.124-40.875 95.524-54.125 1.9375-6.2625-3.9871-18.074 5.2754-19.574 23.012-5.05 45.812-19.013 69.975-9.4883-0.9125 12.862-5.4871 29.575 6.9004 38.713 27.062 4.2375 53.076-11.325 80.488-7.75 19.212 21.125 49.112 26.388 76.387 26.275 26.2 0.6625 53.939-0.89962 77.264-14.1-0.65-11.6-20.663-3.1633-20.801-14.926 21.662-2.0125 42.975-6.8492 64.088-11.574 17.088-11.762 38.212-21.025 54.35-32.062-9.4626-9.85-31.301-5.5012-43.926-13.889-2.7125-9.5375 1.7886-23.388-9.1114-29.463-2.2125-2.2625-10.7-3.4871-6.875-7.7871 28.638-15.638 66.738-25.387 81-57.475-28.575-3.7-59.264 5.0246-84.451-11.838-29.05-6.55 10.763-9.5992 13.338-21.074-54.262-8.1375-110.16 11.925-153.76 42.588-0.025-6.275 2.4496-12.289 2.2871-18.539-45.025-7.45-63.012 43.888-65.475 79.338 3.725 8.725-6.5761 17.776-12.764 10.426-12.538-17.338-35.687-18.251-55.074-17.389-11.388-8.775-22.049-19.675-26.824-33.562-4.725-23.262 7.425-45.536 5.1875-68.736-13.401-23.551-40.191-34.957-66.531-35.242zm-3.0917 13.125c20.518-0.2684 40.688 3.5109 59.297 13.055 6.0125 33-13.124 69.262 5.9882 99.912 12.788 20.188 36.874 31.063 60.449 26.738 17.412 1.8625 27.663 17.95 34.4 32.5 2.0125-3.15 0.4504-10.363 5.7129-10.525 16.225-1.7625 32.224-5.0508 48.387-7.1758 5.5375 4.4625 4.8746 12.238 3.9121 18.562-24.612-5.6375-40.075 16.638-59.475 26.562-20.188 12.1-46.274 19.912-69.174 13.75-1.325-9.2875 3.5117-20.425 3.0117-30.662-39.862-22.862-81.812 20.024-122.62 1.8242-26.05-10.212-48.387 6.5879-67.975 21.15-15.825 5.8625-29.35-6.5871-43.975-10.475 2.2625-8.0625 13.888 3.9375 20.875 4.0625-1.6875-37.925-45.689-45.7-67.764-68.963 5.5625-3.35 21.701 3.1254 19.926-6.7246-30.675-3.55-56.438-24.101-82.125-39.363 5.425-9.4625 21.636-12.387 30.861-19.824 64.088-27.4 129.68-55.987 199.7-62.85 6.8719-0.925 13.75-1.4652 20.59-1.5547zm341.89 31.607c2.0386 0 3.961 0.3145 5.629 1.2715-15.625 5.325-29.675 14.413-42.25 24.988-2.525 6.775 7.4007 3.7613 11.426 3.7988 21.95-3.925 46.212-6.5867 65.688 6.6133 11.425 7.625 30.95 2.2996 39.588 8.4121-19.888 21.85-54.576 21.264-78.426 38.076 8.2875 9.2875 21.862 10.636 29.975 20.049-1.175 13.013 1.5015 31.076 16.539 34.738 4.2875 2.3 16.549-0.35039 11.824 7.2246-37.275 14.738-76.588 24.388-116.62 27.176-5.35 13.738 18.901 13.4 19.238 24.412-40.775-4.9125-88.788 14.299-123.81-14.926-9.3-9.6625 6.0246-15.624 11.85-21.111 9.425-10.1 23.536-8.8504 35.986-8.1504 9.25-39.775-37.637-43.6-64.787-38.537 0.875-26.137 8.8753-55.5 31.963-70.588 19.612-10.225 5.5008 23.325 22.176 22.025 25.062-35.938 66.1-61.888 110.38-64.301 4.1165 0.3695 9.1596-1.1692 13.644-1.1719zm-650.84 32.717c3.053 0.01 6.0789 0.2539 9.0274 0.9805-13.762 14.525-40.998 13.025-50.961 31.25 20.512 1.8 43.499-7.2496 65.236-8.9121 27.688-5.25 50.401 14.412 71.863 28.475-6.2125-0.225-16.775-5.6871-20.725-3.4121 29.275 28.575 71.475 38.224 100.6 67.262-7.5 2.1-15.139 4.0367-22.201 7.3867 4.575 20.15 30.338 24.351 47.338 29.801 21.6 9.55 37.75-12.088 53.65-22.625 20.888-12.688 45.162-1.6367 63.762 9.9883-9.1625 3.7-18.212 7.6742-27.25 11.637-42.012 9.1375-78.674 45.413-83.699 88.738 6.425 0 13.825-15.2 19.537-7.7754-16.262 32.325-54.524 43.549-87.199 50.799 13.088 9.0125 28.475 13.512 41.838 21.938-30.962 17.3-74.438 42.076-110 19.076-8.8625-2.6375-1.5004-16.438-11.775-17.525 1.35-19.025 13.1-38.188 2.1504-56.688-18.05-37.988-0.2379-88.788-33.963-119.88-51.462-21.812-105.03 39.05-89.863 88.625 4.225 21.3 21.637 37.888 29.912 56.113-30.688 4.35-57.987-20.625-88.262-26.338-37.088-23.412-41.45-71.775-43.1-111.6 3.6375-29.325 6.0996-64.138 26.725-85.713 1.725 9.4375-3.3878 24.537-1.2128 35.887 10.962 1.6 11.137-12.836 16.787-19.049 25.6-34.025 63.663-61.514 106.53-67.539 5.0077-0.25 10.171-0.9137 15.26-0.9043zm7.584 136.68c13.074-0.2456 28.438 4.6613 30.844 19.033 8.0625 27 5.5011 56.101 12.764 83.426 2.05 12.738 12.462 24.95 4.9121 38.125-5.425 16.488-21.026 35.525-8.3632 52.287 6.525-15.425 18.901-0.9625 27.451 4.4375 7.7375 6.9 25.612 4.5262 26.037 17.264-27.825 8.8375-57.063 10.836-85.025 18.861-34.288 18.438-61.238 47.589-93.775 68.764-12.3 7.6125-24.237 20.911-39.887 19.398-16.225-18.638-31.275-38.786-41.588-61.361-14.088-35.975-7.1378-76.588 8.9122-110.65 4.2625-11.475 13.926-23.925 25.889-27.125 4.2 12.925 19.911 4.575 30.111 8.75 9.725 14.925 33.475 13.974 47.463 19.637-7.0625 17.188-17.887 41.001-0.074 55.363-4.1125-23.062 11.362-39.062 30.375-48.199-2.175-22.388-20.002-38.839-29.664-58.227-24.012-37.525 4.7762-94.275 48.201-99.375 1.7297-0.23282 3.5503-0.37313 5.418-0.4082zm436.34 220.53c3.0782 0.052 6.0489 0.4375 8.7832 1.4688-4.45 3.95-12.651 5.4879-13.613 12.15 47.212 1.075 96.375-11.1 142.12 4.9121-17.6 2.2625-34.024 9.6871-51.086 14.287 33.012 9.2625 68.05 10.138 101 17.875 41.662 31.7 94.962 40.538 146.12 39.926-14.188 30.9-57.5 25.988-78.463 48.775 12.125 2.5125 24.824 2.0121 36.699 5.7246-40.35 28.825-95.036 20.413-141.8 21.926-33.812-10.075-68.913-33.851-104.86-19.488-11.55 1.6625-23.126-0.59961-34.676-0.59961-17.112 1.3375-26.05 18.862-41.938 23.137-5.3375 10.288-10.812 20.538-15.875 30.938-30.038-2.425-45.649 24.1-49.486 50.025-1.6125 11.562-13.95 5.2008-18.4-1.1367-12.988-5.4375-1.5625-24.15-13.688-30.4-10.088-1.8625-4.0746-14.4-8.5996-21.312-3.525-16.175-22.787-21.751-26.787-37.326 32.6-13.725 16.511-64.187 51.924-74.037 23.775-33.6 45.8-80.162 92.088-85.625 6.4625 0.17187 13.757-1.333 20.529-1.2188zm62.309 149.89c42.738 0.6125 80.662 27.363 123.47 29.775 21.012 5.0625 41.662-2.1887 62.562-3.6387 12.175-4.7375 20.638 11.463 23.875 21.088 9.7625 51.1-2.7875 102.5-18.5 150.81 9.375 9.55 23.288-12.274 34.188-6.3242 5.3125 21.212-9.7751 38.875-19.688 56.062-10.125-1.65 6.9493-23.476-6.8632-26.863-4.95 10.275-11.662 19.65-16.262 30.088 1.05 5.075 9.2133 0.92539 12.301 4.4004-13.875 12.525-30.601 20.411-47.926 26.273 0.4-9.9125-4.2496-28.262 11.4-20.75-11.388-29.038-38.163-51.237-40.088-83.824-2-7.7625 2.6754-19.925-7.3496-23-8.825 18.475-1.2754 39.612 1.4121 58.688-17.612 15.1-48.301 40.5-35.988 67.6 12.312-14.762 22.152-35.463 32.789-52.9 2.175-3.2375 5.3864-8.3 9.9864-6.3125 6.2875 11.938 15.55 21.788 24.525 31.738-14.05 6.2875-11.062 23.399-13.887 35.824-15.7 10.288-33.35-0.38634-49.625-3.2363 1.7125 7.9375 13.337 8.9238 14.412 16.361-33.562-8.65-68.15-18.237-103.25-13.824 28.138 14.512 64.362 10.201 94.475 21.801 13.075 1.725 24.412 14.111 21.25 27.674-5.425 37.538-44.787 60.4-80.85 53.062-24.588-1.025-56.576-7.3871-63.326-35.412-3.4125-17.85-17.874-30.375-34.361-35.688-3.725-12.75 7.4371-26.324 21.412-25.074 21.538 3.275 34.275 23.398 53.562 31.398-14.638-19.9-34.276-43.262-61.801-40.162-10.112-1.1875-14.061-12.374-17.524-20.424-9.9125-20.875-14.325-43.751-15.562-66.701-12.4-28.738-35.514-51.15-57.889-72.4-11.838-9.5875-26.574-16.7-42.049-16.662-13.438-3.2375-0.2879 17.3-9.5879 18.688-18.2-17.888-35.925-36.775-56.375-51.85-1.15-11.75 11.812-17.812 21.725-19.412 7.05 6.0625 7.1758 17.313 14.988 22.463 2.75-13-4.964-33.951-21.789-28.676-11.562 0.25-19.049 10.199-27.887 16.012-7.3875-1.3875-14.6-3.6234-21.963-5.086-0.025-25.225 22.588-49.862 48.676-45.25 25.188 7.325 37.186 33.749 37.049 58.012 20.262-11.075 0.975 19.225 14 25.225 12.6 5.375 24.1 15.037 38.275 15.787 14.838-16.325 11.65-49.799 36.562-57.299 25.675-13.162 42.076-40.012 69.676-50 12.65-13.25 32.962 2.65 47.812-8.0625zm-159.71 5.4004c2.45 4.475 7.3118 7.2121 9.0118 12.1-6.625 0.5-10.586-5.3621-15.774-7.6621 2.1375 14.212 17.325 21.386 28.125 27.986 10.212-5.8875-12.839-12.236-2.8515-17.361-4.9375-6.2625-11.474-11.388-18.512-15.062zm19.562 3.125c1.9625 11.112 18.2 7.725 0 0zm346.8 8.8867c8.625 1.6375 10.486 17.312 19.586 21.975 0.4625 10.2-7.3996 27.65 7.8379 30.312 0.15 33.4 2.3761 76.625-22.986 103.22 7.0375-41.762 18.288-85.836 4.125-127.34-2.175-9.8-14.188-17.351-8.5625-28.176zm-378.11 15.176c0.6125 4.075 8.6379 13.373 15.275 15.523-2.8125-6.825-9.2379-11.711-15.275-15.523zm-232 24.182c48.614 0.352 96.92 10.493 143.01 25.617 25.662 19.988 44.888 51.038 76.65 61.988 2.9875-3.9875-6.3864-13.362-0.4239-18.562 38.1-1.975 64.437 32.224 75.475 64.949 12.562 30.75 18.174 63.725 31.324 94.213 6.2625 13.562-9.6 22.038-12.125 34.275 19.388 10.975 40.25 21.486 45.85 45.174 38.675 56.838 134.43 45.414 168.2-11.023 7.8125-17.262-7.3246-29.264-10.037-45.076 27.1-14.4 57.199-26.35 88.449-23.1 19.325 0.8 37.462 9.1742 56.662 10.324 15.012-3.325 29.9-10.086 45.588-7.9863-18.075 14.812-42.051 19.825-64.801 21.662 3.8 15.762 23.139 16.062 36.076 16.475 25.25 1.975 50.588-3.4504 75.525-3.3379-5.8 8.9875-34.2 7.3758-35.338 21.551 35.575 8.8625 75.012 9.3504 104.7 33.65-16.625 1.025-30.899-12.425-48.174-9.9004-9.725 2.2-35.301-9.5617-31.238 9.1133 44.325 2.8 86.738 27.238 112.71 62.5-4.5875 6.5375-14.75-6.3766-21.287-6.8516-22.812-4.8375-48.289-11.037-70.852-1.9746 31.825 26.062 74.85 32.864 106.46 58.889 30.1 26.112 71.188 31.198 108.81 32.273-24.488 14.775-48.825 30.075-75.062 41.625-51.437 22.1-108.14 27.401-163.57 25.176 0.037 27.725 32.7 28.125 51.25 38.275-59.062 35.162-130.58 40.312-197.76 40.375-9.85 1.4-18.486-4.2507-27.924-5.6757-1.9 15.55 18.287 19.662 27.725 28.35 12.85 6.0625 30.413 0.5386 42.65 4.3886-48.288 20.512-100.99 49.325-154.91 37.838-0.062 5.6625 7.8125 5.886 10.25 10.398-95.75 1.5375-192.1 11.613-287.55 0.5508-67.85-10.475-139.22-29.513-187.79-81.025-18.962-21.638-29.075-47.212-32.875-75.625-9.65-11.125-20.801-0.3375-22.826 11.25-9.7 40-0.4735 81.012 11.976 119.19-52.088-59.287-64.526-144.22-58.826-221.32-2.9125-24.988 6.7011-50.488 0.5761-75.051-40.212 38.525-66.289 91.037-77.102 145.41-19.7-96.838 30.101-189.36 81.576-267.6 7.6625-18.488 28.561-28.212 33.361-47.887-54.738-1.1125-103.61 29.861-143.19 64.174 10.625-40.55 42.163-70.575 73.4-96.5 59.925-40.975 129.35-75.074 203.62-72.699-40.45-55.588-116.92-62.312-180.61-62.949 17.038-15.675 41.911-24.002 65.361-24.664 9.0117-0.63673 18.025-0.90699 27.027-0.8418zm894.74 25.605c47.675 21.7 62.524 77.161 95.137 114.49 53.138 79.338 116.15 152.36 163.55 235.26-7.1625 5.6625-29.826 16.912-29.389-3.0879-77.038-91.7-132.39-199.08-204.35-294.5-10.188-16.2-23.637-32.2-24.949-52.162zm-966.63 9.6856c49.442 0.22909 99.43 13.288 140.97 40.34-12.275 7.625-28.812-7.2254-38.412 5.7246-73.612 12.688-137 56.611-190.72 106.42-9.3125 7.45-14.351 20.875-26.176 24.688-16.3-21.775-16.924-50.924-35.012-71.924 1.7625-17.338 8.4868-35.825 21.824-47.525 10.738 3.4125 24.338 14.138 36.562 12.051 0.2625-39.925 36.5-70.6 75.65-69.438 5.093-0.2496 10.202-0.36354 15.316-0.33984zm-205.95 43.639c-14.938 2.1125-9.4371 24.963-20.85 32.713-18.962 16.838-36.664 37.925-35.914 64.875 0.3125 5.7625 5.3007 10.176 7.6132 15.238-0.675-25.375 8.25-54.275 32.562-65.062 7.6 11.288 13.224 28.587 29.199 30.975-20.5-21.438-7.3614-53.113-12.611-78.738zm741.35 3.9629c-0.5125 0.1-1.5382 0.28673-2.0507 0.38673-42.962 6.9625-79.737 42.489-124.26 34.289 12.962 7.8125 28.3 20.712 44.188 11.762 28.488-13.25 57.512-26.612 82.125-46.438zm-48.275 37.9c-4.875 27.4-6.625 60.9-32 77.963-29.95 1.0375-36.9-29.052-48.713-49.852-10.188 25.475 17.675 50.151 39.213 58.764 41.075 3.225 62.312-61.312 41.5-86.875zm-205.39 44.812c-3.4467-0.0412-6.8706 0.0386-10.244 0.22461-10.3-1.2625-19.712 10.349-5.875 12.887 12.062-8.65 27.65-6.0742 41.15-2.1992-5.1375 14.312-17.938 24.8-21.188 39.938-22.375 51.4 5.7871 129.27 66.287 135.1-35.375-19.5-70.35-55.188-63.275-99.15 6.7375-25.1 13.674-51.312 30.074-72.012 21.938-0.475 33.326 22.999 33.863 42.137 3.125-10.712 5.4622-24.936-4.1503-32.898-17.248-17.5-42.516-23.736-66.643-24.025zm-282.23 39.545c1.6126 0.0164 3.2277 0.11488 4.8496 0.29297-36.95 40.075-58.887 91.162-85.262 138.26-11.838-24.15-15.325-53.613-19.25-80.775 27.025-23.725 57.875-44.525 91.625-57.188 2.6719-0.42188 5.3494-0.61913 8.0372-0.5918zm1122.4 147.08c45.19 0.11125 66.802 50.761 106.03 68.012-9.175 7.75-21.612 7.2504-32.537 8.0254 14.238 20.038 45.337 4.4113 59.012 23.361 8.1875 38.688-24.636 67.938-30.799 104.36-7.825 23.175 5.1868 48.986 26.512 59.549 4.1 9.6625-11.875 3.6136-17.562 2.5761-13.612-2.35-7.1872-25.351-20.35-25.176-13.6 15.312-22.475 36.312-40.875 46.937 0.6125-10.212 7.7372-23.074 3.9747-32.049-21.35 10.412-33.85 35.098-55.162 46.961 0.2-6.6875 12.512-17.374 1.5997-19.898-25.088-1.4375-42.862 23.925-67.287 26.438-0.037-10.45 17.525-18.626 8.5879-29.176-29.275-1.7875-58.489 7.5496-87.476 11.6 3.8625-11.075 25.301-13.038 25.951-28.188-8.2375-4.575-18.125-4.1118-27.188-3.1368-0.825-7.75 4.1743-15.751 12.324-16.863 28.562-4.0625 58.289 0.1012 84.264 12.826 5.375 1.6 2.9985-6.8629 5.0235-9.9004 31.762-21.95 67.55-46.637 81.713-84.437 4.775-17.112-9.6004-31.975-24.338-16.338 7.0125-22.888 32.3-50.938 6.4629-72.113-35.038-15.413-73.062-24.986-105.76-45.148 19.038-20.775 49.011-25.738 75.861-27.113 4.1934-0.7676 8.1938-1.1208 12.024-1.1113zm150.92 31.717c15.956-0.2574 31.37 5.9808 44.67 14.545 2.025 19.475 2.5253 39.124 4.4628 58.611 9.6125 24.662 31.088 41.426 48.463 60.389 16.362 20.488 9.7489 47.662 1.6739 70.074-26.938 1.8-47.462-24.025-74.949-18.338-19.725-1.6-36.126 18.038-56.113 10.438-10.775-30.812 14.5-60.75 23.312-89.25 10.112-18.012 7.8379-44.912-14.037-52.75-14.688-3.825 5.0492-14.149-0.4883-23.324-15.438 1.1875-27.175-9.2758-39.188-16.988 17.112-7.5375 36.526-11.437 55.326-12.887 2.2969-0.3141 4.5879-0.4828 6.8673-0.5195zm-382.11 0.094c31.325 5.475 58.438 28.477 91.775 26.414 0.65-6.8125-12.362-6.4266-9.1993-13.664 49.088-12.95 92.899 17.838 138.11 30.938 1.0375 0.5125 5.3004 1.6016 3.4629 2.8516-55.35 25.675-122.8 21.55-172.86-14.562-13.925-13.95-40.425-17.989-51.287-31.977zm-915.99 19.613c1.5375 37.538-0.7508 77.113-3.0508 114.15-13.325-14.062-9.8242-40.9-24.637-56.275-0.8125-22.15 14.388-41.525 27.688-57.875zm1145.1 28.313c6.6125 0.95 20.198 3.0129 18.086 13.213-6.5125 32.075-32.274 54.625-44.674 84.037 21.038-2.2125 36.736-20.962 58.111-21.412-0.95 14.8-13.361 25.425-23.361 35-16.662 18.412-36.875 34.337-59.938 43.824-26.675 9.325-50.75-14.65-77.75-10.35-57.55-4.425-106.65 28.762-156.16 52.662-39.2 21.825-78.4 44.701-121.84 57.076-12.5 5.75-28.125-0.864-39.537 8.086 14.262 10.812 38.388 10.112 43.938 31.188 6.0875 51.65-24.575 97.851-52.4 138.51 7.225 7.025 13.363-9.7503 19.525-12.65 26.4-32.775 54.288-72.662 47.688-116.95-0.4625-13.9-17.501-20.65-18.176-33.4 14.962-4.475 30.313-7.9 45.426-11.75 16.562 20.325 28.374 43.999 34.611 69.424 13.188 76.412-34.112 147.38-86.787 197.96-29.663 21.962-61.862 40.901-96.787 53.176-68.988 25.638-146.19 25.099-216.66 35.299 58.7 13.138 120.39 2.8754 178.52-5.4121-47.85 23.975-101.59 32.85-154.72 32.938-71.788-6.1253-145.84-12.112-211.19-45.2-84.15-35.138-136.59-119.33-155.74-205.51-4.875-45.175-5.0386-90.761-10.701-135.86 1.3-2.5875-3.1504-11.775 2.9746-10.713 11.038 10.462 19.752 26.763 36.476 28.525 4.1-9.925-5.3133-18.513-8.3008-27.426-20.55-38.912-25.838-83.737-23.775-127.14 5.3-2.0875 5.7 5.3113 7.375 8.6738 8.525 28.775 26.463 53.813 49.051 73.338 47.575 40.912 110.01 56.651 169.4 71.926 39.512 1.85 79.174 0.5747 118.74 0.6622 72.762-9.3125 149.94-20.663 220.14 6.5996 9.475 1.5125 21.65 23.225 30.312 12.412-12.662-13.775-27.614-25.55-42.764-36.562 47.462-16.95 99.414-24.974 141.64-54.137-19.362-2.1875-38.913-2.4375-58.301-4.5-3.1375-2.1625-2.3746-9.1993 4.1504-5.1368 78.125-9.5 159.87-21.014 226.41-66.414-6.25-12.775-44.112 7.4125-47.324-8 90.887-20.4 184.09-53.224 254.31-116.01zm193.8 148.88c26.948 0.4727 49.343 22.38 62.982 44.265 20.85 30.212 32.8 66.225 58.438 92.963 4.1 16.788 21.35 24.511 26.588 40.736 28.138 27.9 59.75 73.937 105.12 59.162 30.062-33.162 0.024-83.986 4.6368-121.24 30.388 6.3375 41.762 40.375 47.75 67.1 7.3875 36.862 5.975 83.201-24.938 109.49-22.112 3.8375-47.051 11.211-67.363-2.2636-58.65-33.9-95.948-92.663-131.65-148.28-31.362-45.588-72.614-89.65-90.076-141.37 2.8805-0.4336 5.7181-0.6133 8.5059-0.5644zm-256.42 130.55c9.2844 0.039 18.469 0.541 26.969 2.291-20.712 7.95-43.276 12.962-61.613 25.875 65.575-0.075 137.09-11.437 197.65 20.926-30.975 6.9-64.163 9.6743-95.801 14.949-19.65 9.5125-47.724 14.212-53.949 38.062 13.375 10.85 32.513 6.7379 48.463 7.5879-1.2125 9.325-13.837 5.7867-20.475 9.7617-20.962 2.5125-37.926 16.288-49.539 33.176-70.225-0.8875-132.97 41.275-182.55 87.225-26.25 9.275-41.588 33.988-53.551 57.676-20.312 49.938-33.224 102.51-50.049 153.55-44.7 64.088-124.65 79.525-195.03 98.525 24.812 15.875 54.624-9.3121 80.199 3.1504-23.2 11.475-50.687 7.6257-73.162 20.488-40.775 17.025-75.574 45.574-114.82 65.236-57.462 14.212-117.21 3.4011-175.38 0.2011 9.9125 9.275 30.437 12.362 41.824 22.938-0.012 7.6125-11.85-0.95-15.688-0.062-43.662 1.3375-89.775-0.614-129.22-21.476-21.45-10.7-38.062-28.524-54.562-45.424-1.5625-2.35-3.7007 0.0004-5.3007 1.0254-0.3625 20.5 0.175 41.025 0.062 61.562-26.375 2.3375-39.124-22.276-45.137-43.676-5.4125-37.025 3.0364-73.912 9.6114-110.19 7.8125-23.3 22.839-43.499 30.852-66.699 2.3125-4.325-1.1375-13.276-6.75-9.2636-27.65 14.225-47.364 39.726-64.289 65.139-3.9875-24.1 12.902-44.338 24.039-64.113 31.7-35.475 62.686-76.488 108.17-94.625-0.475 33.988-6.3129 76.887 23.1 101.51 18.538 15.388 47.964 7.4133 61.039 30.238 45.138 42.912 111.26 23.813 166.54 19.525 39.825 5.4875 80.174 3.8125 119.76-2.8125 42.488-24.7 93.988-33.125 131.94-66-1.6375-3.175-9.0993-6.0496-5.1993-9.8496 16.188-12.025 34.638-20.576 51.4-31.764-1.8875-4.4375-12.15 2.1386-9.25-3.9239 13.95-26.5 45.462-37.051 62.699-60.676-4.35 0.6-10.475 2.1992-7.1875-5.6133 10.312-25.025 33.488-42.3 52.801-60.25 7.0625-3.6125-2.4386-2.361-6.2636-3.0235 4.9625-36.038 41.6-60.176 40.875-97.238-3.4625-19.512-28.974-26.863-34.674-43.113 49.225-60.988 127.39-92.998 203.87-100.34 8.9-0.1062 18.284-0.5312 27.568-0.4921zm-834.93 3.6796c-3.273-0.066-6.5801 0.1566-9.9023 0.6993-16.875-1.425-33.924 13.363-47.387 14.676-3.4375 29.2-24.476 61.45-7.0136 89.562 41.825 42.125 128.63 13.598 131.79-47.852-7.4313-28.683-35.848-56.441-67.486-57.086zm1.8887 6.668c21.154-0.5602 36.904 16.81 48.26 33.182 0.425 23.775-7.6757 50.125-27.926 64.375-21.7 14.2-53.462 20.6-72.975-0.5253-32.338-34.7 6.8254-92.851 48.338-96.676 1.4586-0.2024 2.8925-0.3181 4.3028-0.3555zm596.85 106.49c27.875 6.5 26.9 48.624 6.5996 65.449-19.412 36.912-33.875 76.9-59.775 110.21-17.6 29.475-49.938 45.238-69.5 73-15.038 20.412-37.4 33.388-54.75 51.525-50.112 35.088-111.1 49.95-170.64 59.312 14.5-8.375 41.886-7.9 51.424-28.75 39.362-8.3 81.814-16.775 113.51-43.775 71.775-50.262 116.87-127.05 157.09-202.91 16.712-25.05 16.952-56.338 26.039-84.062zm-539.81 47.52c-0.8636 0.013-1.7325 0.043-2.6055 0.092-37.988 2.5125-68.937 41.289-64.975 78.576 1.05 31 26.825 51.187 51.213 65.6 26.962 0.037 56.187-6.9868 72.449-30.387 17.05-21.275 12.851-51.101 8.6757-76.076-15.803-20.392-37.987-38.168-64.758-37.805zm771.12 2.5294c24.088-0.1 51.738 8.339 66.125 28.789 10.938 25.625 11.95 54.711 12.375 81.836-49.762 35.338-116.66 21.276-170.33 47.664-52.362 12.525-82.625 60.287-118.34 95.949-3.625-29.5 22.4-52.063 25.188-80.051-10.638 0.975-23.549 33.138-28.299 13.051-14.912 9.1875-23.451 32.651-12.951 48.926 2.125 14.638 14.45 30.611 4.3125 44.549-10.375 31.075-11.687 64.863-4.5742 96.838 3.6875 4.25-0.2746 5.6742-2.8497 6.7617-19.175-23.762-40.688-46.549-67.188-62.137 1.3-26.55 25.187-45.587 31.662-70.699 20.888-73 59.762-142.3 118.16-191.81 41.675-33.638 93.576-53.714 146.7-59.664zm-756.26 12.053c24.372-0.6819 39.791 26.871 34.096 49.535-3.7625 16.588-0.5625 36.551-15.312 48.576-12.675 19.7-38.324 16.475-58.449 17.938-10.212-8.9375-18.288-20-27.65-29.775-17.338-41.112 21.514-82.9 62.326-85.75 1.7007-0.3062 3.3655-0.478 4.9902-0.5233zm988.3 131.2c8.8294 0.071 17.686 1.1575 26.211 3.1426 9.8625 10.212 12.724 29.812 10.049 41.25-34.862-25.488-79.525-12.413-114.03 6.7246-58.712 36.35-112.24 82.514-152.36 139.01-11.112 23.925-19.176 50.574-39.738 68.424-3.2625-14.988 3.8121-29.111 9.5996-42.424 19.4-41 44.301-79.476 73.201-114.33 50.588-43.85 106.35-92.274 175.07-101.26 3.9687-0.3984 7.9769-0.5754 11.99-0.543zm-202.21 15.877c3.3907-0.039-4.3397 11.504-6.3085 7.916 0.45-2.775 2.1-5.2258 4.125-7.1133 0.9875-0.5562 1.6991-0.7971 2.1835-0.8027zm-8.6035 10.717c3.3165-0.227 0.041 6.9415-1.9042 7.0235-10.4 11.725-18.438 25.176-26.488 38.551-25.462 31.688-30.249 73.875-51.824 107.71 1.2625-38.1 19.6-73.701 38.35-106.18 11.875-16.925 23.013-35.925 41.113-46.963 0.282-0.085 0.5329-0.1334 0.7539-0.1485zm205.55 13.617c15.591-0.1885 31.775 2.9932 44.791 11.295-11.45 54.725-45.012 102.45-85.125 140.54-42.662 42.138-90.649 81.874-117.89 136.14-38.375-1.2-76.875-20.986-107.88-43.461 23.412-27.838 44.349-57.926 57.574-92.051 44.038-62.85 102.2-118.4 174.4-147.05 9.075-2.0875 18.286-3.6 27.486-5.125 2.1921-0.1595 4.4075-0.2544 6.6348-0.2812zm-1038.3 13.082c17.325 2.875 32.624 12.35 50.012 14.963 2.375 25.738 8.314 58.612 35.726 69.225 28.85 7.7625 59.599 2.7242 88.486-2.5508 16.35-17.425 17.725-45.936 10.9-66.961 8.375-9.4375 23.875-2.5015 34.775-3.9765 2.225 30.612 16.599 58.163 21.924 88.051-29.688 12.688-65.112 3.9875-92.062 17-36.638 1.6625-78.524 9.8625-110.99-12.125-30.75-25.088-33.488-67.35-38.775-103.62zm253.38 3.6641c1.8265 0.016 3.3989 0.5131 4.252 2.0976 7.3875 25.575 19.464 51.476 14.539 78.664-4.4125 8.2625-13.276 10.275-21.889 8.0996-6.8-28.425-19.225-55.575-22.625-84.775 5.6875-0.1875 11.138-1.8129 16.65-2.9629 2.2813 0.1562 6.0282-1.1511 9.0723-1.123zm246.92 129.65c43.288 11.1 71.85 55.999 84.662 96.762 7.2751 9.35-8.5503 19.525-11.588 7.75-17.812-39.35-46.524-73.924-83.949-95.986 3.475-3.025 6.9-6.1628 10.875-8.5253zm-174.35 96.223c8.9391 0.05 13.47 10.227 17.297 17.226 13.175 38.6 10.212 79.989 9.6875 120.1-3.325 1.4125-8.5496 0.8246-10.412 4.5996-1.5625 44.088-42.8 75.774-82.975 85.199-26.488 9.725-52.226-3.95-76.264-13.812-50.6-27.812-98.7-71.087-112.06-129.39 21.488-5.625 42.6 11.899 62.188 4.6368-9.75-6.7875-25.613-11.7-28.338-24.438 27.95 1.0375 56.175 3.8761 84-0.1113 50.625-8.125 91.738-40.813 136-63.988 0.2976-0.02 0.5905-0.029 0.8789-0.028zm439.76 10.939c30.988 14.438 62.061 29.088 93.174 43.463 13.588 1.8 37.95 7.3507 30.875 25.113-38.3 1.9-77.586-6.9507-114.67-16.801-5.9375-16.55-7.4874-34.4-9.375-51.775zm-13.213 11.4c5.325 11.062 10.924 31.924 8.1992 46.699-28.325 24.7-65.111 53.563-57.461 96.213-15.062-9.5125-32.164-32.986-22.601-52.924 10.537-23.275 33.151-37.826 45.701-59.764 7.4501-10.862 13.087-24.95 26.162-30.225zm-866.56 40.025c4.9875 1.0875 5.7618 9.975 8.3243 14.562-7.55 0.35-13.062-8.8625-8.3243-14.562zm881.05 7.5489c36.762 1.675 74.998 12.938 109.71 19.426-27.2 33.938-65.149 58.475-101.11 82.713-14.525 3.5375-29.562 5.3122-44.35 7.5372-21-6.2625-21.2-34.25-9.2129-48.963 10.55-23.338 29.625-40.613 44.963-60.713zm-177.29 36.352c13.612 28.125 5.0265 67.611 5.6015 100.11-9.2375 45.45-5.1015 97.351-36.289 135.11-21.838 36.488-77.325 40.138-108.35 13.875 12.675-2.5875 25.563-3.9996 38.275-6.4121 41.075-10.325 70.8-46.438 83.162-85.688 13.525-51.275 15.325-104.35 17.6-157zm-144.95 55.942c2.9635 0.059 5.5403 0.5293 6.9747 1.9824-15.062 6.625-31.337 9.7629-47.137 14.088 2.7125-11.112 15.225-15.725 25.625-15.588 3.586 0.4609 9.598-0.5814 14.537-0.4824zm-52.783 25.244c7.2921 0.174-7.7715 11.811-9.9043 4.8263 2.4-2.0375 5.1743-3.6368 8.1368-4.6993 0.6952-0.099 1.2814-0.1385 1.7675-0.127z"/>
</g>
</svg>
