<?xml version="1.0" encoding="UTF-8" standalone="no"?>
<!-- Created with Inkscape (http://www.inkscape.org/) -->

<svg
   xmlns:dc="http://purl.org/dc/elements/1.1/"
   xmlns:cc="http://creativecommons.org/ns#"
   xmlns:rdf="http://www.w3.org/1999/02/22-rdf-syntax-ns#"
   xmlns:svg="http://www.w3.org/2000/svg"
   xmlns="http://www.w3.org/2000/svg"
   xmlns:xlink="http://www.w3.org/1999/xlink"
   xmlns:sodipodi="http://sodipodi.sourceforge.net/DTD/sodipodi-0.dtd"
   xmlns:inkscape="http://www.inkscape.org/namespaces/inkscape"
   width="30.94956mm"
   height="19.092533mm"
   viewBox="0 0 109.66379 67.650706"
   id="svg2"
   version="1.1"
   inkscape:version="0.91 r13725"
   sodipodi:docname="Schnecke2-lineart.svg">
  <title
     id="title4136">snail - lineart</title>
  <defs
     id="defs4">
    <pattern
       inkscape:collect="always"
       xlink:href="#Polkadots-large"
       id="pattern6435"
       patternTransform="matrix(0.56249999,0,0,0.52499999,5.6568542,947.52309)" />
    <pattern
       inkscape:collect="always"
       xlink:href="#Polkadots-large"
       id="pattern6249"
       patternTransform="matrix(0.54244679,0,0,0.5954798,0,946)" />
    <pattern
       inkscape:collect="always"
       xlink:href="#Polkadots-large"
       id="pattern6157"
       patternTransform="matrix(1.325,0,0,1.375,0.62500007,946.375)" />
    <pattern
       inkscape:collect="always"
       xlink:href="#Polkadots-large"
       id="pattern6155"
       patternTransform="matrix(0.79999999,0,0,0.94999999,5.6250001,948)" />
    <pattern
       inkscape:stockid="Polka dots, large"
       id="Polkadots-large"
       patternTransform="translate(0,0) scale(10,10)"
       height="10"
       width="10"
       patternUnits="userSpaceOnUse"
       inkscape:collect="always">
      <circle
         id="circle5843"
         r="0.45"
         cy="0.810"
         cx="2.567"
         style="fill:black;stroke:none" />
      <circle
         id="circle5845"
         r="0.45"
         cy="2.33"
         cx="3.048"
         style="fill:black;stroke:none" />
      <circle
         id="circle5847"
         r="0.45"
         cy="2.415"
         cx="4.418"
         style="fill:black;stroke:none" />
      <circle
         id="circle5849"
         r="0.45"
         cy="3.029"
         cx="1.844"
         style="fill:black;stroke:none" />
      <circle
         id="circle5851"
         r="0.45"
         cy="1.363"
         cx="6.08"
         style="fill:black;stroke:none" />
      <circle
         id="circle5853"
         r="0.45"
         cy="4.413"
         cx="5.819"
         style="fill:black;stroke:none" />
      <circle
         id="circle5855"
         r="0.45"
         cy="4.048"
         cx="4.305"
         style="fill:black;stroke:none" />
      <circle
         id="circle5857"
         r="0.45"
         cy="3.045"
         cx="5.541"
         style="fill:black;stroke:none" />
      <circle
         id="circle5859"
         r="0.45"
         cy="5.527"
         cx="4.785"
         style="fill:black;stroke:none" />
      <circle
         id="circle5861"
         r="0.45"
         cy="5.184"
         cx="2.667"
         style="fill:black;stroke:none" />
      <circle
         id="circle5863"
         r="0.45"
         cy="1.448"
         cx="7.965"
         style="fill:black;stroke:none" />
      <circle
         id="circle5865"
         r="0.45"
         cy="5.049"
         cx="7.047"
         style="fill:black;stroke:none" />
      <circle
         id="circle5867"
         r="0.45"
         cy="0.895"
         cx="4.340"
         style="fill:black;stroke:none" />
      <circle
         id="circle5869"
         r="0.45"
         cy="0.340"
         cx="7.125"
         style="fill:black;stroke:none" />
      <circle
         id="circle5871"
         r="0.45"
         cy="1.049"
         cx="9.553"
         style="fill:black;stroke:none" />
      <circle
         id="circle5873"
         r="0.45"
         cy="2.689"
         cx="7.006"
         style="fill:black;stroke:none" />
      <circle
         id="circle5875"
         r="0.45"
         cy="2.689"
         cx="8.909"
         style="fill:black;stroke:none" />
      <circle
         id="circle5877"
         r="0.45"
         cy="4.407"
         cx="9.315"
         style="fill:black;stroke:none" />
      <circle
         id="circle5879"
         r="0.45"
         cy="3.870"
         cx="7.820"
         style="fill:black;stroke:none" />
      <circle
         id="circle5881"
         r="0.45"
         cy="5.948"
         cx="8.270"
         style="fill:black;stroke:none" />
      <circle
         id="circle5883"
         r="0.45"
         cy="7.428"
         cx="7.973"
         style="fill:black;stroke:none" />
      <circle
         id="circle5885"
         r="0.45"
         cy="8.072"
         cx="9.342"
         style="fill:black;stroke:none" />
      <circle
         id="circle5887"
         r="0.45"
         cy="9.315"
         cx="8.206"
         style="fill:black;stroke:none" />
      <circle
         id="circle5889"
         r="0.45"
         cy="9.475"
         cx="9.682"
         style="fill:black;stroke:none" />
      <circle
         id="circle5891"
         r="0.45"
         cy="6.186"
         cx="9.688"
         style="fill:black;stroke:none" />
      <circle
         id="circle5893"
         r="0.45"
         cy="6.296"
         cx="3.379"
         style="fill:black;stroke:none" />
      <circle
         id="circle5895"
         r="0.45"
         cy="8.204"
         cx="2.871"
         style="fill:black;stroke:none" />
      <circle
         id="circle5897"
         r="0.45"
         cy="8.719"
         cx="4.59"
         style="fill:black;stroke:none" />
      <circle
         id="circle5899"
         r="0.45"
         cy="9.671"
         cx="3.181"
         style="fill:black;stroke:none" />
      <circle
         id="circle5901"
         r="0.45"
         cy="7.315"
         cx="5.734"
         style="fill:black;stroke:none" />
      <circle
         id="circle5903"
         r="0.45"
         cy="6.513"
         cx="6.707"
         style="fill:black;stroke:none" />
      <circle
         id="circle5905"
         r="0.45"
         cy="9.670"
         cx="5.730"
         style="fill:black;stroke:none" />
      <circle
         id="circle5907"
         r="0.45"
         cy="8.373"
         cx="6.535"
         style="fill:black;stroke:none" />
      <circle
         id="circle5909"
         r="0.45"
         cy="7.154"
         cx="4.37"
         style="fill:black;stroke:none" />
      <circle
         id="circle5911"
         r="0.45"
         cy="7.25"
         cx="0.622"
         style="fill:black;stroke:none" />
      <circle
         id="circle5913"
         r="0.45"
         cy="5.679"
         cx="0.831"
         style="fill:black;stroke:none" />
      <circle
         id="circle5915"
         r="0.45"
         cy="8.519"
         cx="1.257"
         style="fill:black;stroke:none" />
      <circle
         id="circle5917"
         r="0.45"
         cy="6.877"
         cx="1.989"
         style="fill:black;stroke:none" />
      <circle
         id="circle5919"
         r="0.45"
         cy="3.181"
         cx="0.374"
         style="fill:black;stroke:none" />
      <circle
         id="circle5921"
         r="0.45"
         cy="1.664"
         cx="1.166"
         style="fill:black;stroke:none" />
      <circle
         id="circle5923"
         r="0.45"
         cy="0.093"
         cx="1.151"
         style="fill:black;stroke:none" />
      <circle
         id="circle5925"
         r="0.45"
         cy="10.093"
         cx="1.151"
         style="fill:black;stroke:none" />
      <circle
         id="circle5927"
         r="0.45"
         cy="4.451"
         cx="1.302"
         style="fill:black;stroke:none" />
      <circle
         id="circle5929"
         r="0.45"
         cy="3.763"
         cx="3.047"
         style="fill:black;stroke:none" />
    </pattern>
  </defs>
  <sodipodi:namedview
     id="base"
     pagecolor="#ffffff"
     bordercolor="#666666"
     borderopacity="1.0"
     inkscape:pageopacity="0.0"
     inkscape:pageshadow="2"
     inkscape:zoom="2"
     inkscape:cx="-61.044308"
     inkscape:cy="16.639487"
     inkscape:document-units="mm"
     inkscape:current-layer="layer1"
     showgrid="false"
     inkscape:window-width="2560"
     inkscape:window-height="1420"
     inkscape:window-x="-2"
     inkscape:window-y="-3"
     inkscape:window-maximized="1"
     inkscape:snap-global="false"
     fit-margin-top="1"
     fit-margin-right="1"
     fit-margin-bottom="1"
     fit-margin-left="1" />
  <metadata
     id="metadata7">
    <rdf:RDF>
      <cc:Work
         rdf:about="">
        <dc:format>image/svg+xml</dc:format>
        <dc:type
           rdf:resource="http://purl.org/dc/dcmitype/StillImage" />
        <dc:title>snail - lineart</dc:title>
        <dc:subject>
          <rdf:Bag>
            <rdf:li>snail</rdf:li>
            <rdf:li>molluscs</rdf:li>
            <rdf:li>animal</rdf:li>
            <rdf:li>schnecke</rdf:li>
            <rdf:li>weichtiere</rdf:li>
            <rdf:li>tier</rdf:li>
            <rdf:li>line art</rdf:li>
            <rdf:li>outline</rdf:li>
            <rdf:li />
          </rdf:Bag>
        </dc:subject>
        <dc:date>2015-02-23</dc:date>
        <dc:description>line art snail</dc:description>
        <dc:creator>
          <cc:Agent>
            <dc:title>Frank Tremmel</dc:title>
          </cc:Agent>
        </dc:creator>
        <cc:license
           rdf:resource="http://creativecommons.org/publicdomain/zero/1.0/" />
      </cc:Work>
      <cc:License
         rdf:about="http://creativecommons.org/publicdomain/zero/1.0/">
        <cc:permits
           rdf:resource="http://creativecommons.org/ns#Reproduction" />
        <cc:permits
           rdf:resource="http://creativecommons.org/ns#Distribution" />
        <cc:permits
           rdf:resource="http://creativecommons.org/ns#DerivativeWorks" />
      </cc:License>
    </rdf:RDF>
  </metadata>
  <g
     inkscape:label="Ebene 1"
     inkscape:groupmode="layer"
     id="layer1"
     transform="translate(1.2991738,-961.58452)"
     style="display:inline">
    <path
       style="display:inline;fill:#ffffff;fill-opacity:1;fill-rule:evenodd;stroke:#ff6600;stroke-width:0.35433072;stroke-linecap:butt;stroke-linejoin:miter;stroke-miterlimit:4;stroke-dasharray:none;stroke-opacity:1"
       d="m 36.605535,966.03227 c -6.43061,0.11072 -13.466225,3.11866 -17.451168,7.9043 -3.52558,4.2339 -4.411554,13.62357 -3.521484,14.51367 -1.47734,2.7562 -1.775056,4.99972 -0.972656,6.32032 -1.063916,1.82979 -1.518405,3.83071 -1.28711,5.07031 0.293268,1.57173 2.081297,3.88213 3.527344,3.83403 -0.632482,0.056 -3.661474,0.321 -4.755859,0.3437 -1.28965,0.027 -2.9071732,-0.3548 -4.1640632,-0.064 -1.56504,0.3612 -3.140145,1.0703 -3.666015,2.5879 -0.35967,1.0381 0.685498,2.0902 1.136719,3.0918 0.65716,1.4589 1.242043,3.0823 2.277343,4.2266 1.33504,1.4755 5.4882812,2.9707 5.4882812,2.9707 2.721621,1.7959 8.010179,4.6997 13.142579,5.2539 4.839659,0.5227 10.999279,0.4005 12.236329,0.6152 3.08593,0.5357 11.09613,2.518 16.98437,1.5137 5.27816,-0.9002 11.08296,-3.0296 16.16211,-4.293 3.60135,-0.8959 6.55318,0.2473 8.96485,-3.0254 1.36121,1.3868 3.09534,2.9153 5.05078,2.5176 0.96256,-0.1789 1.93294,-0.7696 2.26172,-1.3047 0.62003,-1.0091 0.1669,-1.6999 -0.6875,-2.1602 -1.0312,-0.3788 -2.3711,-1.3804 -3.21289,-2.0117 1.32283,-0.9718 1.48838,-1.0505 2.41601,-2.7929 0.2409,-0.9651 -0.52522,-1.6821 -0.83984,-2.4551 4.43588,-1.4759 8.11202,-2.9463 13.13476,-3.7266 1.05601,0.478 2.826425,0.6933 3.652345,0.3125 1.25763,-0.5799 2.3836,-2.2069 1.51367,-3.7832 -0.43205,-0.7829 -1.79849,-1.87135 -3.27734,-1.50585 -1.772615,0.43815 -2.975925,1.40215 -3.277345,2.33205 -4.46151,0.1194 -8.98771,1.0717 -13.44922,2.334 -0.95916,-1.5472 -1.63279,-2.065 -2.77929,-2.6485 -0.90593,-0.645 -0.91093,-1.3237 -0.31641,-2.46872 l 6.625,-12.62495 c 0.80018,-0.2497 1.57716,-0.88854 2.20898,-2.14844 0.19052,-0.9891 -0.0522,-2.2902 -1.19921,-3.2793 -0.90557,-0.581 -2.37374,-0.18438 -3.3418,0.88282 -0.88316,1.0733 -1.22042,2.5849 -0.75781,3.6582 0.43825,1.678 -3.62998,5.5871 -5.74219,8.5293 -1.38166,1.92459 -2.84934,4.36503 -4.23047,5.86909 -0.32005,0.3485 -1.30565,1.3811 -2.46484,2.1426 -1.06542,0.6999 -2.89464,0.696 -3.65821,0.6973 l -3.63229,-1.1964 c -0.15963,-0.1241 -0.22542,-0.5148 -0.30716,-0.8407 -0.40184,-1.60292 -2.09784,-1.2036 -2.77734,-2.31252 -0.82419,-1.3453 -0.57968,-1.68344 -0.69727,-2.80273 -0.59515,-5.6648 -1.27224,-11.47485 -3.42578,-16.74805 -2.34457,-5.7409 -10.45398,-12.27031 -18.18164,-13.19531 -0.88334,-0.10574 -1.79033,-0.14863 -2.70899,-0.13282 z"
       id="path4186-6-6-2"
       inkscape:connector-curvature="0"
       sodipodi:nodetypes="ssccscccccccccscccscccccccscccccccccscsccccssss" />
    <path
       style="display:inline;fill:none;fill-opacity:1;fill-rule:evenodd;stroke:#00ffff;stroke-width:0.35433072;stroke-linecap:butt;stroke-linejoin:miter;stroke-miterlimit:4;stroke-dasharray:none;stroke-opacity:1"
       d="m 17.209075,1003.9207 c 0,0 -3.95519,0.3544 -5.16625,0.3795 -1.28965,0.027 -2.9068098,-0.3564 -4.1636998,-0.066 -1.56504,0.3612 -3.14038,1.0702 -3.66625,2.5878 -0.35967,1.0381 0.68521,2.092 1.13643,3.0936 0.65716,1.4589 1.24257,3.0809 2.27787,4.2252 1.33504,1.4755 5.4876698,2.9721 5.4876698,2.9721 2.72162,1.7959 8.0115,4.6994 13.1439,5.2536 4.83966,0.5227 10.99913,0.3989 12.23618,0.6136 3.08593,0.5357 11.09559,2.5188 16.98383,1.5145 5.278161,-0.9002 11.082021,-3.0304 16.161171,-4.2938 3.60135,-0.8958 6.55407,0.2479 8.96574,-3.0247 1.361206,1.3868 3.094684,2.916 5.05013,2.5184 0.962563,-0.1789 1.933081,-0.7707 2.261863,-1.3058 0.620021,-1.0091 0.16646,-1.6987 -0.687943,-2.159 -1.0312,-0.3788 -2.37046,-1.3814 -3.21225,-2.0127 1.32283,-0.9718 1.489374,-1.0505 2.417004,-2.7929 0.240907,-0.9651 -0.526552,-1.6825 -0.841174,-2.4555 4.43588,-1.4759 8.11178,-2.9459 13.13452,-3.7262 1.056004,0.478 2.827634,0.6946 3.653554,0.3138 1.25763,-0.5799 2.3839,-2.208 1.51396,-3.7843 -0.43205,-0.7829 -1.79907,-1.8718 -3.27792,-1.5063 -1.772614,0.4381 -2.976504,1.4022 -3.277924,2.3321 -4.46151,0.1194 -8.98678,1.0724 -13.44829,2.3347 -0.95916,-1.5472 -1.63396,-2.0656 -2.78046,-2.6491 -0.90593,-0.645 -0.91019,-1.324 -0.31567,-2.46906 l 6.62405,-12.6244 c 0.80018,-0.2497 1.57725,-0.888 2.20907,-2.1479 0.19052,-0.9891 -0.0513,-2.2907 -1.19828,-3.2798 -0.90557,-0.581 -2.37363,-0.1833 -3.34169,0.8839 -0.88316,1.0733 -1.22022,2.5841 -0.75761,3.6574 0.43825,1.678 -3.62987,5.586 -5.74208,8.5282 -1.38166,1.9246 -2.85078,4.36546 -4.23191,5.86956 -0.320048,0.3485 -1.30492,1.3822 -2.46411,2.1437 -1.06542,0.6999 -2.89383,0.6954 -3.6574,0.6967 l -3.47431,-1.0714 c -1.115366,4.6225 -3.371686,8.8456 -11.085703,11.1586 -6.552471,1.1599 -12.167782,-0.3876 -17.222456,-3.5546 -5.270235,2.5017 -10.570013,4.4027 -16.330979,-3.0738 -1.353307,-0.7205 -2.39147,-1.6931 -2.912583,-3.0794 z"
       id="path4186-6-6"
       inkscape:connector-curvature="0"
       sodipodi:nodetypes="cssssssssssccscccccssscccccccccsssccccccc" />
    <g
       id="g6251"
       style="fill:url(#pattern6435);fill-opacity:1;stroke:none;stroke-opacity:1">
      <path
         sodipodi:nodetypes="ccscscscscc"
         inkscape:connector-curvature="0"
         id="path4628"
         d="m 78.665629,1005.5163 c -0.699092,0.1076 2.401731,2.1054 4.949748,1.6795 0.353553,-0.088 4.668123,-1.8892 7.115262,-2.4307 2.574804,-0.5697 7.910757,-0.5303 7.910757,-0.5303 0,0 1.013405,-1.9699 1.900344,-2.2097 1.24568,-0.3368 2.59261,0.2402 3.53554,1.0606 0.72883,-1.2932 -1.34487,-3.0866 -3.40295,-2.8726 -1.289495,0.1341 -3.137788,2.2981 -3.137788,2.2981 0,0 -6.311942,0.3683 -9.369165,1.1048 -2.016503,0.4858 -5.391689,2.0772 -5.833631,2.1655 -0.441942,0.088 -3.668117,-0.2652 -3.668117,-0.2652 z"
         style="fill:url(#pattern6435);fill-opacity:1;fill-rule:evenodd;stroke:none;stroke-width:0.35433072;stroke-linecap:butt;stroke-linejoin:miter;stroke-miterlimit:4;stroke-dasharray:none;stroke-opacity:1" />
      <path
         sodipodi:nodetypes="cccsccscc"
         inkscape:connector-curvature="0"
         id="path4630"
         d="m 82.819882,1004.058 c -0.951641,-1.3494 -1.281673,-1.4585 -2.43068,-2.7401 l 7.159457,-14.2305 c 0,0 1.799863,-1.07115 2.077126,-1.98873 0.292558,-0.9682 -0.04419,-2.87262 -1.060661,-3.22618 -0.135278,2.03331 -0.428579,3.97449 -2.209708,4.94975 0,0 -3.604742,5.65366 -5.242099,8.57707 -1.034191,1.8465 -2.889629,5.65349 -2.889629,5.65349 -0.844001,0.8942 1.78394,3.5096 4.596194,3.0052 z"
         style="fill:url(#pattern6435);fill-opacity:1;fill-rule:evenodd;stroke:none;stroke-width:0.35433072;stroke-linecap:butt;stroke-linejoin:miter;stroke-miterlimit:4;stroke-dasharray:none;stroke-opacity:1" />
    </g>
    <path
       style="fill:url(#pattern6249);fill-opacity:1;fill-rule:evenodd;stroke:none;stroke-width:0.35433072;stroke-linecap:butt;stroke-linejoin:miter;stroke-miterlimit:4;stroke-dasharray:none;stroke-opacity:1"
       d="m 35.443727,966.44873 c -5.082318,1.97384 -9.360696,3.88503 -14.053747,8.57367 -3.044531,3.04166 -4.737469,7.24786 -4.065864,11.66726 -0.896706,2.23917 -1.595375,4.47834 -1.325825,6.71751 -0.704768,3.14007 -2.028949,6.16399 -0.972272,9.63433 -2.022211,-1.3338 -2.249866,-3.999 -0.618718,-8.04334 -0.790299,-2.18814 -0.08495,-4.29319 1.237437,-6.36396 -1.281026,-4.79267 0.222154,-9.8505 3.889087,-15.11441 5.378605,-5.74571 10.646801,-6.52301 15.909902,-7.07106 z"
       id="path4632"
       inkscape:connector-curvature="0"
       sodipodi:nodetypes="csccccccc" />
    <path
       style="fill:url(#pattern6155);fill-opacity:1;fill-rule:evenodd;stroke:#ff0000;stroke-width:0.35433072;stroke-linecap:butt;stroke-linejoin:miter;stroke-miterlimit:4;stroke-dasharray:none;stroke-opacity:1"
       d="m 36.312049,1009.5031 c 0.75846,0.1896 4.51232,3.3682 7.82868,3.8513 4.12925,0.6015 9.93664,0.1511 13.57392,-1.8941 2.68222,-1.5081 5.21217,-3.7452 6.16104,-6.6724 0.36434,-1.124 0.25955,-2.4256 0.0446,-3.283 -0.4018,-1.60296 -2.09876,-1.2043 -2.77826,-2.31326 -0.82419,-1.3453 -0.57972,-1.6826 -0.69731,-2.8019 -0.59515,-5.6648 -1.27105,-11.476 -3.42459,-16.7492 -2.34457,-5.7409 -10.45508,-12.2701 -18.18274,-13.1951 -7.06669,-0.8459 -15.604639,2.30258 -20.158859,7.77188 -3.52558,4.2339 -4.412975,13.62452 -3.522905,14.51462 -1.47734,2.7562 -1.774679,4.99914 -0.972279,6.31974 -1.063916,1.82984 -1.518948,3.83108 -1.287653,5.07072 0.319546,1.7126 2.415232,4.3095 3.907736,3.7681 0.0842,1.0102 0.509277,2.0329 2.361237,2.4749 2.00488,3.3153 5.03229,5.6087 7.72766,5.9283 4.75242,0.5635 6.413283,-0.023 9.419683,-2.7906 z"
       id="path4169-2-2"
       inkscape:connector-curvature="0"
       sodipodi:nodetypes="csssssssssccsccscc" />
    <path
       style="display:inline;fill:url(#pattern6157);fill-opacity:1;fill-rule:evenodd;stroke:#ff00ff;stroke-width:0.35433072;stroke-linecap:butt;stroke-linejoin:miter;stroke-miterlimit:4;stroke-dasharray:none;stroke-opacity:1"
       d="m 71.4107,1020.1214 c -5.07915,1.2634 -10.88301,3.3936 -16.161171,4.2938 -5.88824,1.0043 -13.8979,-0.9788 -16.98383,-1.5145 -1.23705,-0.2147 -7.39652,-0.091 -12.23618,-0.6136 -5.1324,-0.5542 -10.42228,-3.4577 -13.1439,-5.2536 0,0 -4.1526298,-1.4966 -5.4876698,-2.9721 -1.0353,-1.1443 -1.62071,-2.7663 -2.27787,-4.2252 -0.45122,-1.0016 -1.4961,-2.0555 -1.13643,-3.0936 0.52587,-1.5176 2.10121,-2.2266 3.66625,-2.5878 1.25689,-0.2904 2.8740498,0.093 4.1636998,0.066 l -2.3042691,2.408 c -0.2225643,1.2805 0.5536471,1.7287 0.9722721,2.4749 2.710576,1.4052 5.421152,2.5712 8.131728,3.6239 3.378922,0.8234 6.719748,1.7611 10.208854,2.2539 3.214602,0.3294 6.635658,0.039 9.63433,1.0165 l 10.871767,1.37 c 3.034666,0.6488 6.069333,-0.5871 9.103999,-1.1049 3.323662,-1.1152 6.646726,-2.2269 9.855301,-2.6516 0.904099,-0.4545 2.101575,-0.6646 3.712311,-0.5303 2.295504,2.047 5.960463,4.4541 6.618954,5.6095 -2.952173,1.1483 -3.606796,0.5349 -7.208146,1.4307 z"
       id="path4186-6-6-8"
       inkscape:connector-curvature="0"
       sodipodi:nodetypes="ssssssssscccccccccccs" />
    <path
       style="color:#000000;font-style:normal;font-variant:normal;font-weight:normal;font-stretch:normal;font-size:medium;line-height:normal;font-family:sans-serif;text-indent:0;text-align:start;text-decoration:none;text-decoration-line:none;text-decoration-style:solid;text-decoration-color:#000000;letter-spacing:normal;word-spacing:normal;text-transform:none;direction:ltr;block-progression:tb;writing-mode:lr-tb;baseline-shift:baseline;text-anchor:start;white-space:normal;clip-rule:nonzero;display:inline;overflow:visible;visibility:visible;opacity:1;isolation:auto;mix-blend-mode:normal;color-interpolation:sRGB;color-interpolation-filters:linearRGB;solid-color:#000000;solid-opacity:1;fill:#000000;fill-opacity:1;fill-rule:evenodd;stroke:none;stroke-width:1.0629921;stroke-linecap:butt;stroke-linejoin:miter;stroke-miterlimit:4;stroke-dasharray:none;stroke-dashoffset:0;stroke-opacity:1;color-rendering:auto;image-rendering:auto;shape-rendering:auto;text-rendering:auto;enable-background:accumulate"
       d="m 10.837891,1005.0103 c -0.70313,0.7812 -1.3988856,1.2343 -2.1162584,1.3674 -0.8771653,0.1628 -1.5679007,-0.059 -2.5627073,-0.8374 -0.1974255,0.2103 -0.5025679,0.2949 -0.5046409,0.4486 0.1796986,0.422 0.6161889,0.6821 1.5729808,0.9535 0.6290879,0.1784 1.7420646,0.2987 1.7471147,0.8017 0.00429,0.4275 -0.3240139,0.3533 -1.2536768,0.2095 -0.6462109,-0.1 -1.7556315,0.1638 -2.2552208,0.4836 0.2048843,0.3913 0.3235207,0.7168 0.453756,0.9227 0.5989284,-0.1722 1.3566052,-0.5788 2.1436933,-0.5836 0.7251848,0 1.6551977,0.2809 1.8194668,0.5386 0.1632806,0.2562 -0.1037533,0.7011 -1.1929453,1.2989 -0.4261769,0.2339 -0.9553022,0.8069 -1.3193097,1.4203 0.01083,0.4412 0.2589127,0.7819 0.6150132,1.1302 0.3592802,-0.6762 0.582302,-1.1888 0.9745883,-1.7372 0.50438,-0.705 1.0819351,-1.2107 1.8506811,-1.2766 0.756777,-0.065 1.903457,0.617 2.825234,1.2405 0.575983,0.3896 -0.03102,0.9006 -0.774659,1.5168 -0.714456,0.5921 -1.930029,1.75 -1.968761,2.5222 0.337302,0.1969 0.737069,0.3242 1.025345,0.3967 0.301471,-0.6452 1.202552,-1.9922 1.67137,-2.4031 0.550017,-0.482 0.995448,-1.271 1.690787,-1.2575 0.990449,0.019 1.547131,0.2275 2.388227,1.0555 0.438671,0.4318 -0.348696,1.0614 -0.985307,1.7851 -0.82111,0.9334 -1.367513,1.7487 -1.681831,2.3869 0.249388,0.2256 0.70666,0.2955 0.896387,0.4768 0.714069,-0.4975 0.995018,-1.1318 1.761691,-2.2159 0.652424,-0.9225 0.969074,-2.0945 1.626247,-1.9407 1.059234,0.2478 2.080239,0.6302 2.66155,0.7037 0.323418,0.041 0.412672,0.6629 -0.0208,1.4928 -0.431694,0.8264 -1.656133,2.9477 -1.652895,3.9833 0.2513,0.2549 0.667641,0.5252 1.293029,0.4479 0.459514,-1.1718 0.687768,-2.6303 1.308797,-4.0106 0.302313,-0.672 0.570183,-1.0548 0.844369,-1.4934 0.07334,-0.1174 1.88714,-0.2057 2.77085,0.3 0.505096,0.289 0.6023,0.3708 0.07007,1.3248 -0.565218,1.0131 -1.353136,3.6264 -1.196462,4.8818 0.24018,0.1096 0.309617,0.1416 0.725434,0.1844 0.628327,-1.1386 0.695347,-2.2166 1.125018,-3.8321 0.208794,-0.785 0.378134,-1.6597 1.030264,-1.9428 0.59069,-0.2565 1.988106,-0.2062 3.038294,0.04 0.844968,0.1981 1.236413,0.3512 0.590442,1.6342 -0.455767,0.9052 -1.070657,3.4675 -1.142726,4.5813 0.134887,0.3117 0.623477,0.2393 1.177816,0.1987 0.265394,-1.3888 0.370574,-3.7912 1.211861,-5.1378 0.37184,-0.5952 0.346734,-0.5888 1.030572,-0.8632 0.463188,-0.1859 1.198434,-0.051 2.17692,0.02 0.841528,0.061 1.291085,0.6654 1.362726,1.9963 0.04487,0.8336 -0.399817,2.8431 -0.225236,3.7021 0.367945,0.083 0.992036,0.1524 1.482946,0.095 0.251476,-0.6004 -0.15239,-1.3731 -0.2595,-2.2246 -0.213208,-1.6955 0.0072,-3.1405 0.776592,-3.1472 0.623818,-0.01 1.22952,0.01 2.810377,0.5071 0.593419,0.1871 0.147996,0.9871 0.378522,2.1201 0.327305,1.6087 0.361595,2.5951 0.340168,3.7236 0.336156,0.1225 0.897114,0.2727 1.374945,0.2223 0.288903,-1.1408 -0.139617,-1.8517 -0.16969,-3.2259 -0.02084,-0.9523 -0.7572,-2.2541 0.506622,-2.2254 0.500201,0.011 1.489362,0.1353 2.261135,0.1842 0.800799,0.051 0.99543,0.9549 1.435097,2.2439 0.529132,1.5512 0.817313,3.5116 0.95783,3.5074 1.182273,0.2458 0.955013,0.019 1.625385,-0.076 0.131297,0 -1.052773,-1.5774 -1.511613,-3.2021 -0.366996,-1.2995 -0.533613,-2.0616 0.6227,-2.2128 0.623597,-0.082 2.091612,-0.1186 2.324091,-0.01 0.607235,0.2941 0.609891,0.6223 1.016959,1.668 0.341722,0.8778 1.495463,2.9827 2.432347,3.6188 0.405614,0 0.596559,-0.1627 1.186335,-0.2376 -0.306644,-0.8457 -1.599369,-1.9474 -2.248294,-3.3528 -0.467096,-1.0116 -1.10102,-1.6607 -0.425927,-1.9289 1.058866,-0.4207 1.408052,-0.5855 2.329669,-0.4443 0.821528,0.1259 1.223678,0.6807 1.755164,1.8773 0.309503,0.6968 1.497664,2.0421 2.396501,2.6871 0.507206,0.056 0.917479,0.049 1.54084,-0.3637 -0.888936,-0.5279 -1.983107,-1.4554 -2.752454,-2.4301 -0.605186,-0.7668 -1.517302,-1.8793 -0.954577,-2.2164 1.205643,-0.7222 1.816135,-0.6512 2.849953,-0.6234 1.079316,0.029 1.509697,0.9145 2.260261,1.8776 0.550504,0.7063 1.445603,2.2459 2.224505,2.3924 0.36486,0.069 0.919382,-0.087 1.092797,-0.4733 -0.615566,-0.494 -2.253848,-1.9314 -2.910178,-2.9059 -0.597784,-0.8877 -1.102939,-1.5722 -0.24111,-1.9176 0.197314,-0.079 1.386732,-0.3941 1.677467,-0.5291 1.115231,-0.5167 1.930747,0.7208 2.576669,1.3526 1.115405,1.0911 2.298277,3.0474 2.298277,3.0474 l 1.63428,-0.4121 c 0,0 -2.144885,-1.9169 -2.940242,-2.7547 -0.833666,-0.8781 -0.871848,-1.8951 -0.05249,-2.0946 0.6347,-0.1545 1.285296,-0.2264 1.756319,-0.2472 0.743221,-0.033 2.100493,0.5184 3.035041,1.3197 1.12995,0.9688 3.825626,3.3774 3.825626,3.3774 l 1.345668,-0.5363 c 0,0 -6.024132,-3.5464 -5.174166,-4.2951 0.378735,-0.3336 1.325616,-0.6052 0.95485,-0.9943 -0.324147,-0.3401 -1.061537,-0.083 -1.847267,-0.042 -2.907015,0.1525 -5.689016,0.4371 -8.466991,1.1248 -2.092037,0.5178 -4.195318,1.3859 -6.272323,1.9173 -5.699035,1.4581 -13.239952,0.8105 -18.968475,0.1161 -2.978469,-1.0581 -6.361718,-0.7112 -9.198752,-1.0865 -6.30442,-0.8406 -12.245839,-2.0908 -18.377999,-5.4005 -2.5105762,-0.95 -1.205494,-3.2026 0.0024,-4.0578 -0.315778,-0.083 -0.652532,-0.1573 -0.943448,-0.2268 z"
       id="path4188"
       inkscape:connector-curvature="0"
       sodipodi:nodetypes="csccsssccsssccssssccssssccssssccssssccssssccssssccssssccssssccssssccssssccssssccssssccssssccsssssccccc" />
    <path
       style="color:#000000;font-style:normal;font-variant:normal;font-weight:normal;font-stretch:normal;font-size:medium;line-height:normal;font-family:sans-serif;text-indent:0;text-align:start;text-decoration:none;text-decoration-line:none;text-decoration-style:solid;text-decoration-color:#000000;letter-spacing:normal;word-spacing:normal;text-transform:none;direction:ltr;block-progression:tb;writing-mode:lr-tb;baseline-shift:baseline;text-anchor:start;white-space:normal;clip-rule:nonzero;display:inline;overflow:visible;visibility:visible;opacity:1;isolation:auto;mix-blend-mode:normal;color-interpolation:sRGB;color-interpolation-filters:linearRGB;solid-color:#000000;solid-opacity:1;fill:#000000;fill-opacity:1;fill-rule:evenodd;stroke:none;stroke-width:1.41732287;stroke-linecap:butt;stroke-linejoin:miter;stroke-miterlimit:4;stroke-dasharray:none;stroke-dashoffset:0;stroke-opacity:1;color-rendering:auto;image-rendering:auto;shape-rendering:auto;text-rendering:auto;enable-background:accumulate"
       d="m 86.419922,34.972658 c -1.582039,0.577715 -1.917958,1.10044 -2.421911,1.867187 -0.821014,1.249145 -0.661143,2.158977 -0.146485,3.474609 -0.02166,1.463939 -1.362707,2.294462 -2.095703,3.335938 -1.125344,1.64616 -2.650241,3.290559 -3.724609,4.787109 -0.742662,1.03451 -1.360614,1.963201 -2.005859,2.988281 -0.645246,1.02508 -1.228716,2.066135 -1.990235,2.517578 -0.988549,0.586031 -1.648327,1.3192 -2.513672,1.953125 -0.734608,0.538151 -2.010697,0.677198 -2.820312,0.576172 l -3.38086,-0.421875 -0.425781,0.970703 c 1.273381,0.308379 2.599077,1.411306 3.892581,1.591797 0.713544,0.09956 2.482066,-0.10158 3.826172,-1 0.917448,-0.613236 1.574196,-1.503354 2.476563,-2.083984 1.145704,-0.737206 1.307876,-1.89079 2.009765,-3.005859 0.70189,-1.11507 1.538731,-2.244646 2.177735,-3.134766 1.037834,-1.44566 2.571233,-3.351573 3.742187,-5.064453 0.585477,-0.85644 1.159498,-1.584797 1.511719,-2.341797 0.352221,-0.757 0.476416,-1.357504 0.285156,-2.089844 -0.16768,-1.041809 0.440484,-1.874206 0.919928,-2.50781 0.563741,-0.745006 2.026546,-1.239483 2.65625,-0.992188 0.973127,0.382163 0.807583,1.904085 0.527344,2.597656 -0.379372,0.938917 -1.075388,1.613341 -1.982422,1.914066 l -2.810547,5.45836 c -1.068924,2.075956 -2.602576,4.1402 -3.516588,6.349659 -0.374257,0.904699 -0.962825,1.880135 -0.90724,2.811115 0.07275,1.218433 0.974353,1.333865 1.817264,1.857205 0.514626,0.319517 0.994561,0.637125 1.415154,1.259977 -0.377792,0.05042 -0.922749,0.615107 -1.38529,0.674299 -0.720754,0.09224 -3.028156,-0.385781 -3.142054,0.259295 0.201456,0.385263 3.749725,0.681728 4.466867,0.662664 1.042096,-0.0277 1.992301,-0.505832 3.135052,-1.023541 1.964741,-0.890101 4.330481,-1.164496 6.4194,-1.531536 2.056555,-0.361353 3.696802,-0.442483 5.668143,-0.683754 0.08389,-0.552475 0.471501,-0.693606 0.765625,-0.974609 0.289662,-0.27674 0.988853,-0.635134 1.818361,-0.865235 0.9102,-0.252485 1.80716,0.0647 2.32617,0.593754 0.61031,0.622124 0.5775,1.521445 0.35352,1.880859 -0.22402,0.359487 -0.91405,1.023081 -1.50781,1.203126 -1.02714,0.311458 -2.23166,0.140671 -3.037116,-0.214847 -2.74773,0.514938 -5.06715,0.860887 -7.391972,1.515482 -1.687441,0.475129 -3.862486,1.254894 -5.869933,1.85453 -1.15175,0.344034 -1.959664,0.778604 -2.807689,1.365314 -1.360174,0.941043 -1.790352,1.296046 -1.817111,1.897484 0.358152,0.156958 2.213421,-0.935226 2.71507,-1.195604 0.558721,-0.29 1.081463,-0.463489 1.640398,-0.542677 0.406135,0.473819 0.525995,1.134827 0.449219,1.679687 -0.102047,0.724201 -0.536798,1.332666 -1.029297,1.556641 -0.954269,0.433975 -1.353588,0.450957 -1.535156,1.183594 -0.174238,0.70306 0.399072,1.199464 0.878906,1.490234 0.498477,0.302068 1.055898,0.477469 1.510154,0.771 0.594106,0.383899 1.193789,0.678837 1.491794,1.037592 0.43413,0.522629 0.446239,1.146963 -1.441406,1.431641 -0.769845,0.116101 -1.982336,-0.277173 -2.712891,-0.673828 -1.131011,-0.614083 -1.55262,-0.96528 -2.324218,-1.861329 -0.961419,1.417088 -2.518138,2.196024 -3.873047,2.285157 -1.409529,0.09273 -3.13801,-0.125151 -5.085938,0.359375 -5.14545,1.279874 -10.811174,3.463403 -15.984375,4.345703 -5.634812,0.961 -13.644731,-0.901904 -16.80664,-1.451172 -0.435379,-0.07563 -1.030233,-0.08375 -1.865235,-0.09375 -0.835001,-0.01 -1.871524,-0.0096 -3.017578,-0.01563 -2.292137,-0.01201 -5.025444,-0.06797 -7.398437,-0.324219 -2.433613,-0.2628 -4.950904,-1.014686 -7.188454,-1.927427 C 17.360773,72.496407 15.590656,71.5565 14.298524,70.720784 13.360232,70.113921 12.20135,69.742372 11.376937,69.361321 10.202675,68.818566 8.8615945,68.04338 8.359359,67.488274 7.4584092,66.49248 6.8743915,64.941754 6.2011559,63.447259 5.6797466,62.591421 5.2196739,61.76931 5.0898278,60.878899 c 0.1815497,-0.523897 0.6453737,-0.95182 1.3183593,-1.300781 0.6729449,-0.348939 1.5030894,-0.664124 2.2734375,-0.765625 1.2766211,-0.168207 2.5445044,0.361035 3.7070314,0.396484 1.349876,0.04116 4.503906,-0.542968 4.503906,-0.542968 l -0.515625,-1.308594 c 0,0 -3.010404,0.133029 -4.080078,0.06055 -1.388923,-0.09412 -2.7008618,-0.521561 -3.9335938,-0.361328 -0.8222532,0.106878 -1.9387398,0.44662 -2.7949218,0.890625 -0.856182,0.444 -3.4638301,1.114695 -3.3183594,2.15625 0.2302399,1.648493 1.6385228,2.709004 2.5976562,4.177734 0.6411202,1.423295 0.6662602,2.679879 1.8359376,3.972656 0.8327797,0.920423 2.216677,1.986126 3.4707032,2.519532 0.903174,0.384169 2.268423,1.163756 3.089844,1.634765 1.491053,0.854981 2.877141,1.643502 5.247979,2.615287 2.291709,0.939351 5.247151,1.843588 7.834052,2.122994 2.466681,0.266422 4.484213,0.632012 6.791016,0.644532 1.614703,0.0088 3.444476,-0.06326 5.02539,0.15039 3.027384,0.409128 11.520443,2.438125 17.66211,1.390625 5.383121,-0.9181 10.700056,-3.182772 15.71289,-4.429687 1.653445,-0.411285 3.670452,-0.344813 5.271484,-0.445313 1.417767,-0.089 2.666489,-1.022281 3.904297,-2.363281 0.621845,0.3101 1.420114,1.251405 2.173829,1.59375 1.517895,0.689444 2.659139,0.827021 4.049311,0.36947 1.090083,-0.358782 2.228038,-1.790266 2.233938,-2.576501 0.01468,-1.956768 -3.110274,-2.685551 -4.011767,-3.376923 0.894077,-0.596095 2.174994,-1.495331 2.343754,-2.472693 0.128238,-0.742684 -0.6443,-1.868009 -0.810547,-2.537109 1.368229,-0.391593 3.563514,-0.950479 5.597472,-1.582859 1.030189,-0.320297 2.340412,-0.721303 3.531088,-1.057455 1.112231,-0.314005 1.715425,-0.547404 2.900737,-0.734686 1.090722,0.4165 2.744502,0.866347 3.746102,0.61133 1.25668,-0.319962 1.79051,-0.963381 2.14843,-1.988281 0.30104,-0.862014 0.40718,-2.483917 -0.36914,-3.494141 -0.3405,-0.443076 -1.07061,-1.034953 -1.67187,-1.191406 -0.60124,-0.156447 -2.03,-0.369237 -2.83789,-0.16602 -0.986764,0.24821 -1.732055,0.977465 -2.09571,1.316407 -0.346385,0.322845 -0.715833,0.867246 -0.919922,1.248047 -2.591696,0.08874 -4.745774,-0.311418 -7.356522,0.186679 -1.734465,0.330913 -3.526098,0.959805 -5.268478,1.621914 -0.444585,-0.442199 -0.226893,-0.458164 -0.640901,-0.805369 -0.841006,-0.61151 -1.438714,-1.109514 -2.007537,-1.489553 0.05612,-0.66627 0.278823,-1.59422 0.709037,-2.307653 1.208355,-2.003841 2.359046,-4.035543 3.271276,-6.17904 l 2.293172,-5.388341 c 1.079213,-0.723271 2.286554,-1.691615 2.599271,-2.658102 0.385151,-1.190354 -0.194976,-2.911759 -1.575834,-3.931738 -0.597866,-0.441617 -1.689554,-0.355453 -2.30472,-0.130812 z"
       transform="translate(0,946.06299)"
       id="path4186"
       inkscape:connector-curvature="0"
       sodipodi:nodetypes="ssccsssssccssssssscssscsssscscssscssssscssscscsssssssscsssssssssssccsssccsssscsssssssssscssscscsscsssssscscccsscsss" />
    <g
       id="g4179"
       transform="translate(-0.44194174,-1.0101525)"
       style="fill:#000000;fill-opacity:1">
      <path
         style="color:#000000;font-style:normal;font-variant:normal;font-weight:normal;font-stretch:normal;font-size:medium;line-height:normal;font-family:sans-serif;text-indent:0;text-align:start;text-decoration:none;text-decoration-line:none;text-decoration-style:solid;text-decoration-color:#000000;letter-spacing:normal;word-spacing:normal;text-transform:none;direction:ltr;block-progression:tb;writing-mode:lr-tb;baseline-shift:baseline;text-anchor:start;white-space:normal;clip-rule:nonzero;display:inline;overflow:visible;visibility:visible;opacity:1;isolation:auto;mix-blend-mode:normal;color-interpolation:sRGB;color-interpolation-filters:linearRGB;solid-color:#000000;solid-opacity:1;fill:#000000;fill-opacity:1;fill-rule:evenodd;stroke:none;stroke-width:2.83464575;stroke-linecap:butt;stroke-linejoin:miter;stroke-miterlimit:4;stroke-dasharray:none;stroke-dashoffset:0;stroke-opacity:1;color-rendering:auto;image-rendering:auto;shape-rendering:auto;text-rendering:auto;enable-background:accumulate"
         d="m 36.388672,19.066406 c -6.697285,0.0795 -13.435563,3.151548 -17.716797,8.292969 -2.048562,2.46016 -3.701663,6.038371 -4.335745,9.199219 -0.431542,2.151203 -0.256942,4.292916 0.183404,6.277344 -0.309663,0.634435 -0.569557,1.260449 -0.772408,1.872159 -0.594039,1.791366 -0.698889,3.460059 -0.131889,4.858309 -0.828755,2.02353 -1.359971,3.04623 -0.988778,5.157706 0.266196,1.514213 1.367991,2.708425 2.28508,3.222159 0.56411,0.316003 1.178583,0.481758 1.713235,0.611444 0.224026,0.960883 1.208194,1.816465 2.243412,2.309665 0.708683,1.425662 1.388369,2.64025 2.421552,3.612276 1.539615,1.448482 3.677163,2.333975 5.45904,2.739784 2.428672,0.553112 4.070529,0.558447 5.78416,0.131857 1.407205,-0.350308 2.872073,-1.278248 4.148706,-2.329848 0.708834,0.456878 1.481308,1.313875 2.09375,1.689491 1.507713,0.924694 3.382825,1.932062 5.404297,2.226562 4.416691,0.6433 10.351037,0.256894 14.472656,-2.060547 2.872241,-1.614959 5.703023,-4.042003 6.814453,-7.470703 0.487886,-1.5051 0.342993,-2.984352 0.07227,-4.064453 -0.322055,-1.284899 -1.422539,-2.073836 -2.103515,-2.300781 -0.809158,-0.269664 -0.980521,-0.674555 -1.261719,-1.355469 -0.02823,-0.19572 -0.0052,-0.587805 -0.07617,-1.263672 -0.596237,-5.675523 -1.269397,-11.622229 -3.521484,-17.136719 -1.317457,-3.22594 -4.085628,-6.41229 -7.535156,-9 C 47.591488,21.697446 43.446471,19.72108 39.25,19.21875 38.302244,19.105298 37.345427,19.055049 36.388672,19.066406 Z m -0.712241,1.95596 c 4.613714,-0.07859 10.426536,3.12377 13.663411,5.530368 3.133789,2.329954 5.584212,5.289678 6.611328,7.804688 2.054981,5.03185 3.348169,10.474307 3.814261,16.140357 0.07989,0.971183 0.168839,1.553615 0.266081,2.453585 0.05713,0.528738 -0.26214,1.913877 -0.563956,2.773513 -0.526997,1.501 -1.624336,3.021664 -2.295687,3.769264 -1.119811,1.247 -4.038677,2.526665 -5.910156,2.947265 -1.712263,0.3848 -4.376093,0.393763 -6.666245,-0.101525 -2.290236,-0.495308 -3.250155,-1.254289 -3.426932,-1.1659 -0.339793,0.444893 2.249103,1.986774 3.317097,2.279604 2.362071,0.64765 4.707979,0.87521 6.987975,0.362784 2.172971,-0.488374 5.013228,-1.522386 6.663067,-3.359606 1.054962,-1.17478 1.943975,-2.696781 2.51662,-4.276578 0.269083,-0.742337 0.433205,-1.550499 0.49709,-2.158814 0.896838,5.1e-5 1.932417,0.504899 2.345778,1.70052 0.213804,0.618415 -0.483899,2.066556 -0.724687,2.809359 -0.786319,2.425697 -3.015682,4.473748 -5.507812,5.875 -3.153013,1.772848 -8.855082,2.415679 -12.675781,1.726562 -2.653285,-0.478557 -4.201602,-1.667513 -6.285349,-2.99483 0.118674,-0.321915 0.512574,-0.954028 0.841605,-1.694392 0.389644,-0.876752 0.593229,-1.764817 0.770527,-2.853517 0.354596,-2.1773 -0.04094,-4.803216 -0.374578,-7.020756 -0.5146,-3.42026 -2.022403,-7.21874 -4.280063,-10.25586 -2.25766,-3.03712 -5.871284,-5.112527 -10.490502,-5.219707 -3.255216,-0.07555 -6.939623,3.030939 -8.746705,5.367569 -0.240619,-1.196005 -0.02653,-3.195027 0.206763,-4.336319 0.589531,-2.88409 2.128488,-6.534852 3.605507,-8.308632 3.688651,-4.429775 9.998912,-7.694486 15.841343,-7.794002 z M 24.728516,37.863281 c 4.078512,-0.0011 6.877502,1.978064 8.888672,4.683594 2.011167,2.70553 3.158131,6.256031 3.640624,9.462891 0.284709,1.89227 0.494148,4.272346 0.157514,6.339346 -0.168317,1.0335 -0.668395,2.092349 -0.956342,2.777841 -0.471064,1.121425 -1.109278,1.723688 -1.8567,2.315215 -0.8124,0.642952 -1.686719,1.16423 -2.531972,1.378144 -1.497068,0.378873 -2.621557,0.609762 -4.945312,-0.01953 -1.979253,-0.535998 -3.894677,-1.2445 -5.582031,-3.642578 1.870069,0.168206 3.600367,-0.644411 4.820312,-2.003906 1.227666,-1.3681 1.98197,-3.284169 2.048828,-5.417969 0.07578,-2.418551 -0.70878,-4.594513 -2.011508,-6.237749 -1.240621,-1.564896 -2.935442,-2.746596 -4.836148,-2.994673 -1.742089,-0.227374 -3.365946,0.439299 -4.590609,1.416705 -0.465715,0.371687 -1.504837,1.332621 -1.836741,1.666322 0.03821,-0.987162 0.323847,-2.86519 1.157476,-4.316214 1.541057,-2.682382 5.771509,-5.406749 8.433937,-5.407439 z m -3.486328,8.382813 c 1.585425,0.141757 3.060289,1.147789 4.067434,2.654007 0.868907,1.29948 1.389678,2.971261 1.332956,4.78154 -0.05472,1.7465 -0.681154,3.267662 -1.597656,4.289062 -0.916502,1.0213 -2.579824,1.639925 -3.867188,1.515625 -1.259328,-0.12145 -1.928987,-0.658876 -2.433593,-1.427734 1.539617,-0.557563 3.026546,-2.515813 3.222656,-3.921875 0.132819,-0.952279 -0.08981,-1.986245 -0.552735,-2.896485 -0.462922,-0.91023 -1.269456,-1.798599 -2.445312,-1.828125 -0.810601,-0.02036 -1.399683,0.149861 -1.955078,0.71875 -0.462028,0.473254 -0.681133,1.079659 -0.722656,1.667969 -0.08305,1.17661 0.471344,2.482113 1.753906,2.882813 -0.117893,-0.975435 -0.508194,-1.522662 -0.430223,-2.581036 0.04071,-0.552541 0.48943,-1.101432 1.16678,-1.180223 0.604611,-0.07033 0.976325,0.407677 1.273476,0.991957 0.29715,0.58428 0.215983,1.523417 0.154029,1.997817 -0.101118,0.7743 -0.627105,1.922972 -1.060546,2.271485 -0.609876,0.490378 -1.928769,0.905437 -2.605122,0.796218 -1.419844,-0.22928 -2.510886,-1.760913 -2.591797,-2.839881 -0.130594,-1.741494 0.37063,-3.174564 1.358915,-4.612169 0.628018,-0.913543 1.735789,-1.803104 2.585017,-2.384268 0.929566,-0.636142 2.259997,-0.992615 3.346737,-0.895447 z"
         transform="translate(0.44194174,947.07314)"
         id="path4169"
         inkscape:connector-curvature="0"
         sodipodi:nodetypes="ssscscssccssscscsssscsssssssssssssscsssscsssscssssscssssssssssscssssscssssscccssssscssssssssss" />
    </g>
    <path
       style="fill:#ffffff;fill-opacity:1;fill-rule:evenodd;stroke:#000000;stroke-width:1.0629921;stroke-linecap:butt;stroke-linejoin:round;stroke-miterlimit:4;stroke-dasharray:none;stroke-opacity:1"
       d="m 34.559844,974.93401 c 2.585011,1.44988 10.814621,9.53737 12.551145,13.87697 1.536969,0.3335 -0.160729,-3.54455 -2.034975,-6.80516 -1.624724,-2.82652 -1.030333,-5.78755 -2.296053,-7.24859 -1.535837,-1.77284 -2.694117,-2.29521 -5.038136,-2.20971 -1.324945,0.0483 -2.469005,1.26869 -3.181981,2.38649 z"
       id="path4626"
       inkscape:connector-curvature="0"
       sodipodi:nodetypes="ccsssc" />
  </g>
</svg>
