<?xml version="1.0" encoding="UTF-8" standalone="no"?>
<svg id="svg2" xmlns:rdf="http://www.w3.org/1999/02/22-rdf-syntax-ns#" xmlns="http://www.w3.org/2000/svg" height="4646pt" width="4065pt" version="1.1" xmlns:cc="http://creativecommons.org/ns#" xmlns:dc="http://purl.org/dc/elements/1.1/" viewBox="0 0 4065 4646">
<path id="path4" fill="#1f1b17" d="m2532.9 22.275c-11.792 0.04018-23.59 0.46484-35.372 1.2844-141.39 8.59-278.94 71.661-376.49 174.51-65.43 68.3-113.86 153-138.67 244.33-198.05 7.07-395.26 54.069-573.39 141.61-202.61 97.7-380.87 245.69-513.97 426.9-165.61-88.19-375.24-85.52-538.85 6.3-112.6 61.53-202.83 162.54-251.97 281.02-79.12 185.94-48.54 412.99 77.83 570.82 68.32 87.26 162.35 154.37 267.59 189.4 99.01 33.93 207.05 37.799 309.02 15.769 36.08 79.17 83.61 153.06 140.05 219.25 1.07 1.68-1.8903 2.5909-3.0703 3.2109-190.33 85.18-358.33 224.91-464.16 405.82-134.26 225.21-171.8 495.98-155.55 754.11-79.12 41.47-147.96 104.05-192.04 182.3-43.44 76.71-64.929 165.51-63.159 253.5 1.09 143.63 56.8 282.93 141.43 397.53 89.66 121.44 212.93 217.85 352.44 275.55 101.84 41.85 213.05 64.07 323.22 55.32 124.37-8.48 248.4-58.67 334.99-149.98 71.1-72.77 113.75-170.6 126.06-271.04 0.49-2.41-1.4797-6.4803 1.8203-6.6703 130.95 137.13 312.83 216.45 497.81 247.47 155.98 26.13 316.49 18.08 470.96-14.12 240.24-50.58 467.07-162.17 654.59-320.39 12.11 67.51 32.401 133.94 63.981 194.99 56.7 113.88 152.93 210.49 272.77 256.23 72.92 28.42 153.14 36.459 230.46 24.969 120.85-17.12 231.91-79.86 318.45-164.53 212.23-210.61 292.13-545.11 194.91-828.26-43.49-125.82-127.62-240.42-244.69-306.5 98.17-74.45 171.84-178.93 213.44-294.59 56.22-154.18 60.72-323.04 34.12-483.77-24.14-143.9-73.749-283.53-145.41-410.6-82.37-146.2-195.81-277.99-339.8-366.2-130.93-81.08-290.09-117.45-442.86-92.45 45.69-229.17 10.29-474.9-106.38-678.13 50.62-61.85 88.621-134.1 110.04-211.14 59.03-204.1-9.4112-437.89-169.18-577.9-103.3-93.076-241.7-146.28-380.9-145.8zm-60.108 104.25c186.56-0.37939 370.65 100.15 470.21 258.44 77.52 120.28 105.14 273.21 67.97 412.03-21.58 83.03-65.519 160.12-125.76 221.18 82.67 135.65 126.87 294.05 128.78 452.77 4.67 237.03-82.25 471.39-226.15 658-47.92 106.07-115.85 202.72-196.1 286.83-94.4 98.28-210.59 179.2-342.3 217.71-110.92 24.05-223.51 45.71-337.48 44.57-97.95-0.92-199.29-26.76-274.76-91.9 17.25 18.86 35.771 36.621 55.941 52.341-139-4.82-277.81-37.67-404.98-94.67-215.21-95.8-396.97-271.89-485.42-491.66-150.89 33.77-315.27-9.9197-431.09-111.83-130.16-110.55-198.85-285.16-186.99-454.67 8.63-135.4 68.329-267.46 166.86-361.11 51.58-49.39 113.42-88.28 180.75-112.25 141.56-51.57 305.94-32.991 432.6 48.509 235.28-306.91 613.29-498.15 999.84-506.85 15.84-104.44 65.099-203.55 139.99-278.23 81.14-81.26 190.89-132.54 304.85-145.15 21.034-2.6843 42.155-4.0165 63.244-4.0594zm13.295 234.86c-126.6-0.12-248.5 86.61-287 207.72-0.37 3.67 5.1594 2.1897 7.8594 2.7297 44.93-99.93 156.66-161.76 264.92-153.75 111.41 4.46 216.68 77.34 259.91 180.13 32.21 72.05 30.22 157.24-2.8703 228.63 4.16 4.84 9.4091 8.8187 14.089 13.219 70.05-99.15 69.901-240.71 1.9609-341.03-53.44-82.1-148.59-135.35-246.59-137.36-4.0903-0.18656-8.1778-0.28189-12.261-0.28593zm-70.697 749.51c-8.9722 0-17.909 0.2125-26.762 0.5781-29.06 9.41-46.96 40.37-53.6 68.77-5.5 16.55 13.441 17.509 22.881 10.659 60.12-26.62 136.51-44.379 194.26-3.1094 66.08 51.43 83.57 138.98 102.82 215.32-5.94-56.62-7.1497-114.6-24.93-169.19-12.77-38.41-37.93-73.451-73.92-93.091-42.82-23.524-92.298-29.919-140.75-29.938zm-1695.9 99.626c-86.337 0.2167-172.74 35.995-229.78 102.19-60.12 66.33-88.551 159.87-74.891 248.45 11.92 88.68 65.85 170.31 142.13 216.87 55.02 34.36 121.3 50.75 185.98 44.92-0.63-4.26-0.2806-9.1703-2.1906-12.97-105.4-3.33-201.28-76.88-240.16-173.55-44.19-103.62-23.83-231.97 52.58-315.26 71.08-81.72 193.29-113.95 294.66-74.191 1.5-2 2.7009-4.2991 3.0609-6.7891-40.958-20.14-86.165-29.785-131.39-29.672zm1683.3 62.35c-59.009 0.3235-116.7 33.027-147.57 83.352-23.34 37.28-32.201 83.729-23.461 126.89-185.69 23.96-363.83 103.41-506.98 223.84-25.74-47.73-71.98-85.24-126.17-94.55-61.31-12.63-127.91 11.39-167.93 59.27-28.46 33.29-43.839 77.43-41.759 121.23 1.16 72.86 53.66 141 123.27 161.91 2.03 0.85 6.9988 1.3106 5.1688 4.5906-37.18 71.47-60.419 150.9-62.389 231.7-2.15 78.5 19.039 158.78 64.909 223.04-17.26-52.62-24.199-108.52-20.559-163.77 7.01-120.38 56.47-234.88 125.7-332.34 109.73-152.16 267.15-268.43 442.92-333.1 111.75-40.44 232.34-60.63 351.01-46.87 101.16 10.26 201.52 48.511 276.76 118.23 78.5 71.19 122.11 176.16 123.87 281.49 12.34-86.85-3.3691-178.7-49.539-253.83-45.52-75.07-118.53-130.85-199.31-163.51-1.16-0.7-3.4191-1.2406-2.0391-2.8906 23.36-54.8 16.169-121.2-18.691-169.55-30.37-44.07-81.99-72.339-135.4-74.759-3.9382-0.2706-7.8786-0.3934-11.812-0.3719zm13.775 25.93c51.029-0.3329 100.94 29.423 125.35 74.281 24.44 41.87 28.981 95.66 12.911 140.62-26.26-8.91-53.11-17.43-80.52-22.67 12.08-39.06-18.82-83.05-59.23-86.18-40.68-5.65-78.571 31.46-76.311 71.98-27.29-0.54-54.549 1.0006-81.709 3.0406-5.94-85.27 58.95-173.04 146.53-180.33 4.3257-0.4695 8.6583-0.714 12.983-0.7422zm-1062.3 22.65c-0.8726-0.019-1.7484-0.019-2.6281 0-45.71 14.94-89.98 36.96-126.3 68.87-31.85 28.77-52.86 69.88-53.93 113.13-1.93 64.69 22.199 126.04 39.969 187.2-10.39-77.91-28.41-172.08 19.8-243.49 42.95-58.5 122.57-65.279 189.15-63.539 12.22-1.42 7.3103-16.541 1.5703-22.541-17.002-19.617-40.582-39.028-67.631-39.631zm1031.4 112.12c22.096 0.2232 37.611 28.077 25.005 47.298-18.1-2.01-36.301-2.7303-54.441-3.9203-7.8-17.18 3.5406-39.81 22.391-42.52 2.4028-0.6084 4.7595-0.8809 7.0453-0.8579zm-810.8 199.1c56.123-0.2665 109.76 36.607 133.16 87.153-21.88 21.77-46.39 41.319-66.3 65.159-9.05-36.25-48.859-61.589-85.419-50.609-35.75 8.96-58.92 49.199-48.37 84.689 7.35 27.36 33.129 49.321 61.809 49.981 1.78-0.22 0.78 2.24 0.2 3-18.35 26.54-35.799 53.84-50.209 82.75-85.44-33.98-121.3-145.32-83.661-226.69 20.95-50.34 69.331-90.04 124.48-94.55 4.775-0.5703 9.5485-0.8602 14.305-0.8828zm1615.5 42.677c147.49 0.798 293.89 53.034 409 145.31 125.71 99.1 216.83 236.48 277.58 383.4 69.17 168.26 100.65 351.99 90.769 533.66-8.75 133.24-41.369 269.22-119.31 379.69-36.79 52.73-85.41 97.58-142.52 127.45-4.98 2.25-9.58 6.6506-15.4 5.7906-77.04-27.8-161.57-34.361-242.03-19.191-140.66 25.73-264.77 111.5-353.89 221.29-68.03 7.36-140.02-0.33-202.04-31.25-47.61-23.32-87.39-61.841-112.55-108.48-38.89-71.7-45.15-157.27-31.55-236.61 17.83-103.17 66.28-199.38 130.92-281.07 97.53-123.72 233-213.96 379.58-269.41 55.28-26.94 73.059-92.97 81.059-148.93 10.6-80.23 3.0206-162.43-18.709-240.25-10.16-32.79-22.17-66.021-43.92-93.081-10.81-13.59-27.29-25.979-45.43-23.809 31.07 27.47 44.42 68.799 58.47 106.76 27.61 86.3 44.34 180.89 21.43 270.2-12.43 47.74-44.1 92.331-90.98 111.03-107.25 44.74-206.16 109.68-289.84 189.97-152.62-79.16-325.62-113.76-496.69-115.76 126.52-87.82 240.99-200.43 315.96-336.75 152.38-154.89 266.48-349.03 318.48-560.58 31.86-7.08 66.721-7.7903 99.841-9.1203 7.2553-0.211 14.51-0.2955 21.764-0.2562zm-1641.6 91.67c20.389-0.1571 36.866 24.092 27.256 42.936-7.81 23.35-45.48 24.68-55 2.05-10.63-17.85 2.9403-43.31 23.62-44.62 1.3875-0.2363 2.7642-0.3551 4.1234-0.3656zm800.6 22.664c-4.3353 0.041-8.6048 0.3452-12.708 0.8718-131.55 13.81-262.68 71.621-345.59 177.49-14.72 20.3-35.31 39.979-35.77 66.689 2.87 35.16 41.011 49.831 70.941 55.061 76.77 15.53 146.67-42.741 223.49-27.481 18.12 4.48 28.69 20.481 37.1 35.891 65.88 101.05 107.96 219.63 106.13 341.23-134.12 45.66-266.82 96.85-404.91 129.57-53.73 12.14-109.28 22.319-164.42 14.459-22.25-3.4-45.001-11.469-60.411-28.639-21.58-22.45-25.329-56.041-22.009-85.641 1.91-24.24 7.3494-50.74 26.809-67.22 23.53-18.28 55.84-9.8088 81.27-23.319-64.41-0.71-130.64-0.0006-193.44 17.159-25.55 8.18-54.96 21.749-61.78 50.309-4.77 17.92 1.4903 40.48 10.02 54.6-8.02-56.24 52.739-109.18 106.86-93.539 20.28 6.61 26.95 30.99 23.45 50.02-6.38 37.78-5.6894 80.889 19.041 112.41 22.21 27.06 57.34 38.53 90.88 43.1 62.65 7.22 125.61-2.5894 187.09-14.309 123.55-25.9 243.33-66.721 361.54-110.48 9.86-4.03 20.421-6.5991 29.331-12.689 82.93-49.37 160.58-111.1 215.92-191.06 35.28-52.08 60.731-114.55 54.141-178.59-4.42-11.65 10.49-18.461 19.95-17.411 17.19 4.38 20.86 25.441 32.85 35.631-2.02-16.9-7.1503-34.83-20.82-46.07-18.23-15.41-43.689-18.48-66.659-16.12-21.9 1.66-45.3 0.6794-65.48 10.609-5.23 2.79-3.2403 9.4012 1.4297 11.281 20.64 11.05 44.89 11.26 67.6 14.03 28.35 54.6 7.7591 119.95-27.561 166.08-55.38 71.68-133.28 121.74-211.95 164.48-6.41-123.65-40.57-244.88-87.43-359.29-11.79-25.29-5.1494-53.88 5.1906-78.37 13.26-36.13 44.979-60.521 63.559-93.441 12.3-23.75 18.41-53.229 6.3297-78.289-11.256-21.76-36.571-29.233-59.981-29.012zm-204.35 70.552c-16.49 25.15-43.48 50.281-61 77.761-16.74 23.95-30.33 55.599-18.62 84.619 2.01 8.3 13.531 17.751 5.4406 26.191-21.86 15.08-51.251 14.331-76.541 10.941-10.45-1.83-27.429-7.0209-23.059-21.361 6.27-38.87 34.329-69.22 60.709-96.48 33.91-31.9 71.43-60.61 113.07-81.67zm-1200.9 483.7c0.8912 0.03 1.7234 0.4218 2.4921 1.1781 122.56 125.36 278.8 215.98 446.11 267.1 110.14 34.1 225.43 50.44 340.43 53.47 40.24 24.11 87.551 36.691 131.89 46.111-245.11 108.82-464 284.53-607.54 512.57-35.4 88.56-57.059 182.94-61.519 278.31 26.33-107.07 74.37-211.36 138.1-302.71 154.66-223.74 388.35-385.77 643.23-475.8 10.57-3.09 20.66-8.8397 31.88-9.1297 83.18-6.02 165.12-22.909 245.9-43.059 19.61-4.75 37.39-15.1 56.72-20.48 193.06-17.23 395.42 10.089 568.14 100.52-105.58 125.24-181.81 286.17-173.57 453.53 4.5 78.2 31.819 157.77 87.889 214.13 64.95 68.67 162.45 95.159 254.53 94.739-97.2 149.75-145.84 330.75-134.15 509.07-0.45 4.37 2.4612 10.621-2.2688 13.741-232.15 200.57-528.86 329.48-836.18 347.85-150.13 8.84-302.92-11.26-443.45-65.88-127.3-49.21-244.55-127.95-331.79-233.51-14.67-164.25-95.18-318.19-208.68-436.02-61.61-65.55-135.35-118.77-213.91-162.15-36.57-69.48-54.12-148.25-54.35-226.56-1.87-78.1 12.051-155.59 31.011-231.06 28.59-114.57 70.849-225.04 108.11-336.88-42.7 85.19-81.331 173.11-115.74 262.25-35.71 95.45-66.63 194.34-72.28 296.73-5.15 72.55 8.72 148.28 49.05 209.76-160.6-70.02-350.46-89.461-514.69-20.341-13.63-215.16 12.72-442.86 110.55-639.52 39.91-80.79 92.219-155.38 154.46-220.54 101.84-106.5 230.34-185.65 367.96-237.08 0.5775-0.2437 1.134-0.3569 1.6688-0.339zm2586.1 925.04c30.12-0.1337 60.333 2.9302 90.219 9.5703 76.46 16.61 147.66 55.789 203.4 110.59 109.12 104.57 160.18 257.43 164.1 406 3.73 124.77-25.26 249.72-79.93 361.71-63.01 126.74-160.84 240.19-288.21 304.93-52.53 28.41-113.11 46.869-173.32 53.559-114.34 14.11-233.04-23.569-319.6-99.239-58.12-49.34-102.22-113.74-132.69-183.31-54.08-126.7-63.46-270-37.83-404.58 32.45-166.21 118.36-323.91 248.97-433.04 89.991-75.942 206.73-125.66 324.89-126.19zm-1304.4 110.8c-4.8892 0.036-9.7743 0.5662-14.559 1.6124-3.79 1.44-7.5294 3.2188-11.509 3.9188-26.6 8.48-45.511 35.57-47.341 63.15-2.5 31.88 17.701 64.691 48.461 74.561-4.9-7.58 7.7994 3.9694 12.359 3.7594 24.01 4.56 51.061-3.81 66.791-22.8-30.59 20.28-77.001 6.6803-89.211-28.78-11.16-27.17 1.4203-61.6 28.12-74.22 19.71-10.97 44.62-8.3391 63.02 4.0609-13.666-16.323-34.944-25.419-56.131-25.262zm-1680.5 58.967c71.785 0.03 143.59 12.691 211.69 35.255 174.3 57.48 327.95 178.38 420.95 337.05 83.79 140.63 115.26 321.89 47.1 475.01-57.37 135.13-191.36 227.48-334.07 250.89-112.14 21.46-229.12 6.3303-336.04-31.88-144.91-52.7-275.5-148.2-364.73-274.3-68.17-92.2-113.38-203.3-120.62-318.4-8.3-112.8 26.09-230 100.97-315.8 69.85-81.99 171.89-132.37 277.23-149.76 32.275-5.4624 64.902-8.0588 97.531-8.0453zm3082.1 29.225c-10.416-0.043-20.83 0.3828-31.191 1.2703-76.97 7.33-150.44 38.779-212.06 84.919-114.48 85.88-191.3 216.76-221.15 355.84-29.54 138.82-12.341 294.17 73.089 410.89 66.85 93.83 183.5 151.65 299.08 139.34-68.26-10.61-131.77-44.33-181.29-92.13-95.77-93.67-138.26-231.72-133.31-363.5 4.37-134.52 55.469-268.46 147.74-367.26 55.23-58.27 126.1-103.73 205.15-120.85 83.56-19.62 174.68-3.4912 246.47 43.569 54.3 34.25 97.22 84.311 128.5 139.96-28.98-78.84-86.2-148.26-159.55-189.94-48.878-28.038-105.23-41.88-161.48-42.109zm-3103.2 206c-107.38 1.07-218.06 40.009-291.07 121.07-79.46 86.33-102.17 214.11-73.1 325.89 1.32 1.96 2.5912 18.65 4.2812 9.8297-12.86-85.94 1.3094-178 48.759-251.79 45.62-73.36 122.92-124.12 206.5-143.49 56.12-13.78 115.04-13.47 171.83-3.9297 176.01 30.74 331.42 153.08 408.53 313.47 35.86 75.25 54.62 160.02 44.55 243.37-7.5 72.01-37.839 141.91-87.719 194.7 81.13-49.33 135.21-138.4 147.33-232.08 12.95-87.88-8.3506-178.01-49.091-256.05-101.02-192.45-313.23-321.5-530.8-320.99z"/>
</svg>
