<?xml version="1.0" encoding="UTF-8"?>
<svg version="1.1" viewBox="0 0 303.89 143.27" xmlns="http://www.w3.org/2000/svg" xmlns:cc="http://creativecommons.org/ns#" xmlns:dc="http://purl.org/dc/elements/1.1/" xmlns:rdf="http://www.w3.org/1999/02/22-rdf-syntax-ns#">
<title>turtle</title>
<metadata>
<rdf:RDF>
<cc:Work rdf:about="">
<dc:format>image/svg+xml</dc:format>
<dc:type rdf:resource="http://purl.org/dc/dcmitype/StillImage"/>
<dc:title>turtle</dc:title>
<dc:date>02/12/2015</dc:date>
<dc:creator>
<cc:Agent>
<dc:title>edited by Paul Sherman</dc:title>
</cc:Agent>
</dc:creator>
<dc:rights>
<cc:Agent>
<dc:title>pd</dc:title>
</cc:Agent>
</dc:rights>
<dc:publisher>
<cc:Agent>
<dc:title>wpclipart</dc:title>
</cc:Agent>
</dc:publisher>
<cc:license rdf:resource="http://creativecommons.org/licenses/publicdomain/"/>
</cc:Work>
<cc:License rdf:about="http://creativecommons.org/licenses/publicdomain/">
<cc:permits rdf:resource="http://creativecommons.org/ns#Reproduction"/>
<cc:permits rdf:resource="http://creativecommons.org/ns#Distribution"/>
<cc:permits rdf:resource="http://creativecommons.org/ns#DerivativeWorks"/>
</cc:License>
</rdf:RDF>
</metadata>
<path d="m205.65 136.99c0-2.8507-1.5844-4.3266-5.384-5.0156-4.3914-0.79632-7.4815-3.3147-8.4197-6.862-0.92512-3.4977-1.2114-3.5702-9.1963-2.3288-8.2952 1.2897-9.4781 1.4522-14.5 1.993-2.75 0.2961-8.15 0.88772-12 1.3147-3.85 0.42699-14.65 0.7589-24 0.73758-15.008-0.0342-21.784-0.43913-33-1.9718-13.352-1.8246-17.581-2.5696-20.167-3.5529-1.2832-0.48787-2.3331-0.66714-2.3331-0.39837s-1.5395-0.15456-3.421-0.94073c-3.1735-1.326-3.5534-1.2803-5.25 0.63176-3.0452 3.4319-11.072 6.5414-18.455 7.1494-1.5421 0.12699-4.0675 1.7446-6.1181 3.9188-3.5295 3.7423-6.0175 4.5005-8.7558 2.6682-1.2992-0.86933-1.242-1.2006 0.427-2.4744 2.1164-1.6152 2.0893-1.6914-1.2099-3.4087-1.7824-0.92775-3.0633-0.9061-5.8422 0.0988-3.203 1.1582-3.6984 1.0967-4.9501-0.61514-1.0032-1.372-1.0929-2.2612-0.32175-3.1904 1.6292-1.963 0.14779-3.3759-3.5396-3.3759-4.0634 0-6.541-2.3535-3.9841-3.7845 1.5494-0.8671 1.5143-1.1219-0.42187-3.058-1.3215-1.3215-1.8786-2.7757-1.4882-3.8848 1.0843-3.0809 5.5035-7.1517 8.4713-7.8036 2.9498-0.64787 3.9856-2.4691 1.4044-2.4691-4.3583 0-20.743-10.135-19.077-11.801 0.38418-0.38429 4.6259-0.73202 9.4261-0.77273 9.9938-0.08475 11.515-0.65935 10.67-4.0293-0.4594-1.8304 0.22853-3.2634 2.9581-6.1618 3.1745-3.3708 8.1614-11.901 14.754-25.235 1.2236-2.475 2.4523-4.725 2.7304-5s1.842-2.2904 3.4753-4.4787c19.517-26.149 49.685-38.9 92.019-38.892l14 0.00244 13 5.1649c12.56 4.9902 31.672 15.579 42 23.27 2.75 2.0478 9.4005 7.5004 14.779 12.117 5.3784 4.6164 11.339 9.2336 13.246 10.26l3.4666 1.8669 7.0487-3.6925c10.691-5.6005 17.133-5.1063 28.011 2.1488 3.6104 2.408 10.484 5.4352 12.949 5.7024 2.1108 0.22888 6.7937 3.0284 8.1334 4.8623 0.91306 1.2498 1.8704 5.0876 2.1707 8.7023 0.29551 3.5566 0.68548 7.354 0.86659 8.4387 0.28581 1.7119-0.16585 1.9328-3.4207 1.6734-2.1161-0.16865-3.75 0.15324-3.75 0.73878 0 1.4818-4.0584 5.1328-7 6.2974-1.375 0.54436-6.6963 1.1705-11.825 1.3914s-9.7818 0.68389-10.34 1.0289c-0.55816 0.34496-3.5618 0.81412-6.6749 1.0426-3.113 0.22845-6.56 0.59243-7.66 0.80886s-2.5664 0.42793-3.2587 0.47001c-0.69228 0.04208-3.8871 2.4929-7.0996 5.4462-3.2125 2.9533-7.9337 6.5961-10.492 8.0952-4.4296 2.5959-5.2931 4.5352-2.0193 4.5352 2.5488 0 9.9482 4.845 11.323 7.4144 0.88497 1.6536 1.044 3.6454 0.49963 6.2558-0.4393 2.1064-0.83691 4.0548-0.88356 4.3298-0.0467 0.275-0.86488 1.6067-1.8183 2.9593-1.9281 2.7354-3.3264 2.0516-4.0065-1.9593-0.41327-2.4372-0.45552-2.4184-1.6825 0.75-1.5277 3.9449-4.0211 4.2036-6.1826 0.64129l-1.5829-2.6087-2.2591 3.6553c-2.4776 4.0089-4.3479 4.2125-4.8844 0.53167-0.30107-2.0653-0.14017-2.203 1.2382-1.059 1.3315 1.1051 1.687 1.0468 2.2288-0.36506 0.93316-2.4318-1.0029-3.995-2.5858-2.0878-0.70403 0.84831-1.8673 1.5424-2.585 1.5424-0.71774 0-2.1899 1.125-3.2715 2.5-2.4773 3.1494-4.1787 3.1992-4.1787 0.12244zm3.575-4.3808c-1.0157-1.0157-2.8548 1.4966-2.0495 2.7996 0.55137 0.89214 1.0049 0.76233 1.7045-0.48787 0.5243-0.93688 0.67953-1.9772 0.34495-2.3118zm18.851 1.0911c0.81083-2.113-0.80229-3.786-2.8812-2.9883-1.333 0.51151-1.3858 0.93692-0.32667 2.6328 1.5358 2.4591 2.3654 2.551 3.2079 0.35547zm-186.53-2.2178c2.6181-2.013 2.1314-4.115-0.95284-4.115-1.2024 0-1.941 0.68491-1.941 1.8 0 0.99-0.54 2.34-1.2 3-1.9926 1.9926 1.3356 1.4357 4.0938-0.68502zm193.48-1.3172c-1.0091-1.6328-2.1686-0.72451-1.6426 1.2868 0.39747 1.5199 0.76052 1.736 1.3404 0.79775 0.43741-0.70773 0.57342-1.6458 0.30225-2.0845zm-26.014-2.1435c-0.1706-2.032 1.2208-2.1861 1.9757-0.21889 0.30295 0.78947 0.0136 1.6559-0.64301 1.9254-0.6566 0.2695 1.1989 0.41107 4.1234 0.31461l5.3172-0.17539-0.58981-3c-0.58909-2.9963-0.58785-2.9972 1.0079-0.72373 1.1985 1.7074 2.4375 2.2197 4.958 2.05 1.8482-0.12446 3.157-0.55519 2.9086-0.95717-0.24844-0.40197 6e-3 -1.0135 0.56461-1.359 0.55897-0.34546 1.0163-0.13452 1.0163 0.46875 0 1.2996 5.1972 0.94228 6.1802-0.42495 1.1541-1.6052-1.0201-4.3757-5.4889-6.9946-4.8349-2.8334-11.181-4.1938-12.162-2.6069-0.8406 1.3601-2.5294 1.3528-2.5294-0.011 0-0.58225 1.3219-2.7198 2.9376-4.75 3.4183-4.2953 8.339-13.727 8.7932-16.854 0.24118-1.6603-0.10412-2.0529-1.4875-1.6911-2.834 0.7411-5.9102-2.6588-5.821-6.4335 0.0427-1.8078 0.67791-3.6576 1.4115-4.1108 1.0601-0.65486 0.99024-0.95583-0.34025-1.4664-2.4415-0.93688-3.668 0.16961-2.535 2.2868 1.2785 2.389-2.9379 6.5775-5.8538 5.815-2.5382-0.66375-5.6917 2.6919-5.3047 5.6448 0.47213 3.6028-3.9729 6.918-9.5397 7.115-3.1156 0.11024-6.9006 1.2628-10.954 3.3355-3.4066 1.7419-6.6692 3.167-7.25 3.167s-1.0561 0.47745-1.0561 1.061c0 0.69185 2.1746 0.87501 6.25 0.52644 8.4976-0.72679 10.736-1.2648 12.716-3.0564 1.9238-1.741 4.0343-2.0188 4.0343-0.53105 0 0.55-0.3375 1.0009-0.75 1.0019-1.6136 4e-3 -7.1991 9.6507-7.2365 12.498-0.0732 5.5665 0.31019 6.36 3.9032 8.0787 1.9708 0.94279 4.2522 2.0309 5.0696 2.418 2.3076 1.0928 6.5329-0.45979 6.3748-2.3425zm17.639-3.5953c0-0.58246 0.45-1.059 1-1.059s1 0.19844 1 0.44098-0.45 0.7191-1 1.059-1 0.14148-1-0.44098zm-28.99-4.5472c-0.98856-1.1911-0.9631-1.5712 0.12756-1.9041 0.74944-0.22875 2.1501-0.66995 3.1126-0.98045 2.0228-0.65254 2.3703 1.3524 0.55 3.1727-1.5688 1.5688-2.2948 1.5136-3.7902-0.28817zm4.7814-5.7207-2.1125-2.1125 2.162-1.7506c2.2174-1.7955 3.014-1.8589 6.9094-0.54951 2.5764 0.866 2.7514 1.5562 1 3.9421-1.9547 2.6628-5.5538 2.8756-7.9588 0.47062zm6.0062-0.64475c1.9959-1.2661-1.1816-3.4766-3.802-2.6449-1.6798 0.53314-1.8652 0.95039-0.92554 2.0826 1.324 1.5953 2.8188 1.7731 4.7275 0.56232zm0.53947-6.3282c-2.5272-1.2225-3.6328-4.3584-1.9836-5.6262 3.4505-2.6524 8.1594-1.6498 9.5551 2.0345 1.5837 4.1804-2.4243 6.0816-7.5716 3.5918zm5.9637-3.4776c-0.52008-1.3553-1.0824-1.5907-3.8005-1.5907-4.6648 0-4.7888 1.8046-0.25505 3.711 3.3955 1.4277 5.0792 0.54745 4.0555-2.1203zm-2.1678-5.1785c-3.8556-3.0093-1.6888-6.6415 4.6322-7.7648 2.2532-0.40042 4.3568 2.713 4.0391 5.978-0.25963 2.6685-0.7419 3.1618-3.304 3.3795-1.7353 0.14747-3.998-0.52398-5.3673-1.5928zm6.6714-2.9504c-0.35251-2.9359-2.8482-3.6689-5.4957-1.614-1.7249 1.3388-1.7023 1.4936 0.49047 3.3528 2.9314 2.4855 5.4091 1.6248 5.0052-1.7388zm-188.87 28.919c0.64991-1.2144 0.62355-2.1765-0.0789-2.8789-0.74002-0.74003-1.8944-0.11559-3.8664 2.0914-1.834 2.0526-2.4257 3.3848-1.7021 3.832 1.4332 0.88576 4.3998-0.71362 5.6473-3.0446zm6.6099 1.8048c0.362-0.58573 2.0761-0.92767 3.809-0.75986 2.9376 0.28445 3.1369 0.1027 2.9444-2.685-0.13712-1.9858-1.3-3.9138-3.4622-5.7401-2.8979-2.4477-3.0223-2.75-1.1324-2.75 1.9567 0 7.1363 4.9359 7.4261 7.0767 0.06875 0.5078 0.18329 1.4858 0.25454 2.1733 0.19383 1.8704 6.442 1.696 11.942-0.33323 5.5017-2.0299 9.5182-5.8652 10.315-9.8495 0.51658-2.5829 0.19918-2.8579-5.795-5.0209-3.4878-1.2586-9.2524-3.795-12.81-5.6364l-6.4685-3.348-2.2693 2.1319c-1.8408 1.7293-3.6407 2.1634-9.5315 2.2987-8.4666 0.19451-11.421 0.96745-14.512 3.7967-2.7408 2.5086-2.8249 3.8805-0.37356 6.0989 1.6607 1.5029 1.9445 1.5207 2.4686 0.15499 0.76582-1.9957 3.0524-1.9741 4.7279 0.0447 1.1795 1.4212 1.4183 1.3425 2.2748-0.75 0.84588-2.0666 1.008-2.1234 1.397-0.48904 0.26232 1.1021-0.67852 3.0164-2.3294 4.7396-2.9264 3.0545-2.6626 5.2692 0.3286 2.7587 1.9206-1.612 3.0973-1.7348 5.0061-0.5228 0.8479 0.53839 1.25 0.15035 1.25-1.2063 0-1.1 0.45-2.2781 1-2.618 1.4468-0.89416 1.2472 5.1282-0.25 7.5441-1.0303 1.6624-0.98636 2.1846 0.25 2.9711 1.9496 1.2402 2.7351 1.2224 3.5402-0.0802zm116.96-2.3c8.1388-0.66182 16.514-1.57 19.402-2.1038 0.879-0.16249 3.6232-0.60973 6.0982-0.99386 8.1829-1.27 11.762-2.5227 12.272-4.2951 0.27565-0.95828 0.83714-2.5605 1.2478-3.5605 0.67002-1.6317 0.33208-1.7563-3.2951-1.2153-6.161 0.91891-12.451 0.82428-15.199-0.22866-1.7174-0.65803-3.4417-0.54404-5.6354 0.37256-1.7385 0.72639-4.6371 1.5808-6.4413 1.8986-1.8042 0.31785-3.7032 0.8392-4.2199 1.1586-4.0388 2.4961-55.281 2.4223-68.37-0.0985-1.1579-0.223-3.6249-0.66176-5.4821-0.97501-1.8572-0.31326-4.7267-0.8491-6.3767-1.1908-1.65-0.34166-3.6203-0.68468-4.3784-0.76226-1.6059-0.16435-2.5586 3.9709-1.1197 4.8602 1.0179 0.62912 10.131 3.1141 14.161 3.8616 1.2851 0.23835 3.9116 0.72661 5.8366 1.085 3.5142 0.6543 4.7505 0.78546 19.5 2.0688 4.4 0.38285 8.0932 0.77897 8.2072 0.88025 0.47574 0.42276 26.417-0.16213 33.793-0.76192zm-132.07-6.2065c1.6543-1.6543 2.0899-3.4534 0.82143-3.3926-0.4125 0.0198-2.1 1.1426-3.75 2.495-2.7769 2.2762-2.838 2.4594-0.82143 2.464 1.1982 3e-3 2.8857-0.70217 3.75-1.5665zm128.57-3.7922c5.8523-1.2497 7.2568-1.5831 9-2.1364 1.0121-0.32124 2.7095-0.75147 3.7719-0.95607 8.9307-1.7199 26.369-8.9303 33.728-13.946 5.1533-3.5123 13.54-11.559 20.5-19.668 6.1396-7.1538 9.3091-10.208 13-12.527 1.375-0.86398 3.2737-2.6118 4.2193-3.8839 1.7157-2.3082 1.6927-2.3362-11-13.354-14.799-12.846-17.313-14.713-30.719-22.822-12.349-7.4692-15.263-8.9774-22.929-11.868-3.3393-1.2592-8.423-3.1883-11.297-4.2868-9.8308-3.7577-40.006-2.7702-57.87 1.8939-17.446 4.5549-32.452 13.084-43.672 24.822-8.3081 8.6916-12.164 14.356-19.267 28.299-3.1651 6.2136-7.0395 12.937-8.6098 14.941-1.5703 2.0041-2.855 4.0712-2.855 4.5935 0 1.5236 9.8902 9.4339 15.422 12.335 2.7928 1.4645 7.5699 4.0436 10.616 5.7311 8.6459 4.7902 20.595 8.4984 34.839 10.812 1.8572 0.30163 4.1853 0.70413 5.1735 0.89445 0.98824 0.19031 6.2187 0.64933 11.623 1.02 5.4046 0.37071 9.92 0.75915 10.034 0.86322 0.47479 0.43244 33.997-0.26635 36.292-0.75654zm84.871-12.417 3.6294-3.2807-3.5 0.47098c-6.0979 0.82056-7.4624 1.6025-9.7585 5.5921-1.2328 2.142-2.2415 4.1718-2.2415 4.5105 0 1.0864 8.1191-3.9016 11.871-7.2928zm-194.66-2.1065c1.0378-1.0982 1.041-1.4531 0.0166-1.8281-0.69914-0.25596-3.9502-2.4793-7.2247-4.9407-5.3799-4.0441-6.3172-4.4093-9.7288-3.7901-2.0764 0.37686-6.6127 0.74393-10.081 0.81571l-6.3052 0.1305 2.5467 2.0308c2.9864 2.3814 14.603 7.0512 19.408 7.8019 1.8394 0.28738 3.5372 0.71538 3.7729 0.95114 0.94526 0.94525 6.3882 0.10597 7.595-1.1711zm164.06-2.2971c0.97626-1.1545 1.5479-2.3261 1.2703-2.6037-0.5671-0.5671-8.5453 4.4844-8.5453 5.4106 0 1.3195 5.6188-0.84837 7.275-2.8069zm33.225-1.5327c1.65-0.27924 3.45-0.60989 4-0.73479 0.55-0.1249 2.6875-0.57443 4.75-0.99896 4.5084-0.92798 4.7008-1.8746 0.84426-4.1527-2.6986-1.5941-7.0786-7.9333-7.8744-11.397-1.2831-5.5841-1.2871-10.255-0.0106-12.271 0.77678-1.2262 2.4364-3.9206 3.6882-5.9876l2.2758-3.7582-2.5758 0.97931c-1.4167 0.53862-4.5243 2.9048-6.9058 5.2582s-6.9932 6.6488-10.248 9.5455l-5.9181 5.2666 3.0301 1.8427c4.7532 2.8906 6.7518 6.7446 6.6905 12.902-0.0532 5.3486-0.0329 5.3854 2.6002 4.7019 1.4596-0.37889 4.0038-0.91736 5.6538-1.1966zm31.658-4.8352c12.405-0.92476 15.088-1.3791 17.508-2.9647 1.2836-0.84107 2.3339-1.7132 2.3339-1.9381s-3.0375-0.41973-6.75-0.43298c-3.7125-0.01325-7.425-0.18387-8.25-0.37915-4.2084-0.99614-5.7989-1.9962-6.8525-4.3085-0.6358-1.3954-1.6041-2.2602-2.1518-1.9218s-0.99575-0.08615-0.99575-0.94361c0-0.85746 0.6382-1.559 1.4182-1.559 0.78002 0 2.2024-0.3009 3.1607-0.66867 1.4012-0.53767 1.6338-0.25292 1.1876 1.4535-1.12 4.283 1.3533 5.7003 9.8966 5.671 4.3103-0.01479 9.6369-0.27543 11.837-0.57921l4-0.55232 0.0828-5.9122c0.0456-3.2517-0.30778-6.6997-0.78518-7.6622-0.96879-1.9532-4.2143-4.2199-7.3949-5.1648-1.7984-0.53426-2.1097-0.18642-2.1844 2.4412-0.11814 4.1552-3.2654 9.2662-6.3807 10.362-3.4039 1.1971-7.4672 0.07313-10.424-2.8834-4.1747-4.1747-2.5493-10.402 3.5304-13.527l2.4443-1.2562-2.8031-2.2351c-2.9248-2.3321-8.8585-4.4865-12.357-4.4865-2.6389 0-9.7746 3.8189-12.813 6.8571-7.6776 7.6776-8.7132 16.562-2.9463 25.276 1.3872 2.0962 3.9085 4.5281 5.6028 5.4043 3.12 1.6134 10.878 3.4056 12.086 2.7921 0.36214-0.18383 3.9621-0.58053 8-0.88155zm-12.588-4.3345c-0.81239-1.3145 2.1699-3.4271 3.9004-2.763 2.0098 0.77123 0.81227 3.6497-1.5184 3.6497-1.0087 0-2.0806-0.39901-2.382-0.88669zm-5.32-5.8317c-3.113-1.1164-0.68955-4.6312 4.0056-5.8096 2.2577-0.56665 2.7417-0.35924 2.7291 1.1696-0.0301 3.6475-3.2727 5.8815-6.7347 4.64zm4.2911-2.3481c0.36253-0.58659 0.4535-1.2722 0.20214-1.5235-0.69747-0.69748-3.7433 0.68337-3.7433 1.6971 0 1.2518 2.7433 1.1174 3.5411-0.17352zm-8.706-5.6613c-4.1919-0.97189-2.2278-7.412 2.8492-9.3422 3.3963-1.2913 5.9622-0.38753 6.6813 2.3532 1.0213 3.8926-4.7215 8.104-9.5306 6.989zm6.549-3.176c1.4962-1.2418 1.5841-2.7565 0.28095-4.8425-0.61172-0.97916-1.396-0.9271-3.6585 0.24289-3.3947 1.7555-4.3785 3.0922-3.6578 4.9701 0.61296 1.5973 4.9387 1.3695 7.0353-0.37057zm-1.2781-9.4683c-2.1679-2.6122 3.4189-5.8211 7.622-4.3778 0.90984 0.31242 1.2751 2.5781 0.66994 4.1552-0.66483 1.7325-6.8999 1.8999-8.2919 0.22258zm6.4757-0.6278c0.23001 0 0.41821-0.67218 0.41821-1.4937 0-1.5531-2.4475-1.6047-4.8568-0.10234-1.1424 0.71236-1.1424 0.98269 0 1.7106 0.74622 0.47547 1.9561 0.64422 2.6886 0.375 0.73248-0.26922 1.52-0.4895 1.75-0.4895zm-32.635 30.564c1.9303-2.3259-2.2498-7.9277-4.3492-5.8284-1.0285 1.0285-0.65301 4.8092 0.60223 6.0644 1.5595 1.5595 2.2952 1.5132 3.747-0.23608zm-10.021-3.9749c1.8605-2.2417-0.4478-2.775-2.4474-0.56545-1.506 1.6641-1.5464 1.9764-0.25609 1.9764 0.8429 0 2.0595-0.63494 2.7035-1.411zm63.719-12.337c2.3006-1.2979 4.3585-5.9505 3.9492-8.9286-0.13784-1.003-1.8901-2.7203-3.8939-3.8163-3.5784-1.9572-3.7052-1.9594-7.1188-0.12099-4.3759 2.3566-5.8836 6.189-3.9138 9.9485 0.78514 1.4985 1.8052 2.4911 2.2667 2.2059 0.46156-0.28526 1.3442 0.08975 1.9613 0.83337 1.3263 1.5981 3.7792 1.5538 6.7494-0.12183zm-6.1597-1.91c-2.0355-2.0355-1.8619-4.6914 0.44321-6.7774 2.2336-2.0214 5.0296-1.4632 6.7899 1.3555 0.99767 1.5975 0.89136 2.3402-0.59832 4.1799-2.2259 2.7489-4.6703 3.2065-6.6348 1.242z"/>
</svg>
