<?xml version="1.0" encoding="UTF-8" standalone="no"?>
<!-- Created with Inkscape (http://www.inkscape.org/) -->
<svg xmlns:rdf="http://www.w3.org/1999/02/22-rdf-syntax-ns#" xmlns="http://www.w3.org/2000/svg" xmlns:cc="http://web.resource.org/cc/" xmlns:dc="http://purl.org/dc/elements/1.1/" xmlns:svg="http://www.w3.org/2000/svg" xmlns:inkscape="http://www.inkscape.org/namespaces/inkscape" xmlns:sodipodi="http://sodipodi.sourceforge.net/DTD/sodipodi-0.dtd" xmlns:ns1="http://sozi.baierouge.fr" xmlns:xlink="http://www.w3.org/1999/xlink" id="svg2461" style="enable-background:new" viewBox="0 0 139.6 157.72" version="1.0" inkscape:version="0.91 r13725">
  <g id="layer2" transform="translate(-649.53 -180.67)">
    <g id="g2388" transform="matrix(.96593 -.25882 .25882 .96593 -53.237 204.14)">
      <path id="path2450" style="stroke-linejoin:round;stroke:#000000;stroke-linecap:round;stroke-width:4;fill:none" d="m731.27 218.87c1.84 1.13 2.78 1.91 2.78 1.91 38.43 89.79 48.28 90.69 46.98 97.34-1.3 6.66 0.23 21.97-32.16 16.35-3.01-3.12-5.04-7.32-5.04-7.32-13.32-10.57-26.49-21.24-43.5-29.32m-25.27-82.56c17.15-5.8 31.03-5.08 41.01-2.61"/>
      <path id="path3244" style="stroke-linejoin:round;stroke:#000000;stroke-width:2;fill:none" d="m730.82 249.71c-2.94 0.22-9.01 2.4-5.37 6.04 3.13 4.22 10.86 6.61 14.97 2.71-0.39-4.46-4.72-9.3-9.6-8.75z"/>
      <path id="path3246" style="stroke-linejoin:round;stroke:#000000;stroke-linecap:round;stroke-width:2;fill:none" d="m776.44 309.59s-2.5-0.55-4.54 1.64c-1.88 2.01-1.96 7.56 0.03 8.78 2 1.22 3.41 0.59 4.55-1.32s0.34-7.98-4.06-5.61"/>
      <path id="path3268" style="stroke-linejoin:round;stroke:#000000;stroke-linecap:round;stroke-width:4;fill:none" d="m728.9 222.66c10.71-14.39-0.41-30.31 0.34-34.66-7.91 3.53-15.33 23.62-13.11 33.68"/>
      <path id="path3334" style="stroke-linejoin:round;stroke:#000000;stroke-linecap:round;stroke-width:4;fill:none" d="m744.14 239.15l3.9-2.64s3.7-0.92 4.9-1.76 2.9-3.5 2.9-3.5 3.71-1.04 4.91-1.88c1.19-0.84 2.9-3.39 2.9-3.39s3.72-1.17 4.9-2c1.18-0.84 2.9-3.27 2.9-3.27s3.73-1.32 4.9-2.15c1.18-0.84 2.91-3.12 2.91-3.12s3.73-1.5 4.9-2.33 2.9-2.94 2.9-2.94 3.74-1.71 4.9-2.54c1.17-0.82 2.91-2.73 2.91-2.73s3.74-1.98 4.9-2.79c1.16-0.82 2.9-2.47 2.9-2.47l3.9-2.64-4.15 2.01-4.16 2.01s-3.91 1.55-5.15 2.17c-1.25 0.63-3.16 1.85-3.16 1.85s-3.91 1.28-5.16 1.92c-1.24 0.63-3.15 2.1-3.15 2.1s-3.91 1.06-5.16 1.7c-1.24 0.65-3.15 2.32-3.15 2.32s-3.91 0.88-5.16 1.53-3.16 2.49-3.16 2.49-3.89 0.72-5.15 1.38c-1.26 0.65-3.16 2.64-3.16 2.64s-3.89 0.59-5.15 1.25c-1.27 0.65-3.16 2.77-3.16 2.77s-3.88 0.47-5.16 1.13c-1.27 0.66-3.15 2.89-3.15 2.89"/>
      <path id="path3340" style="stroke-linejoin:round;stroke:#000000;stroke-linecap:round;stroke-width:4;fill:none" d="m699.96 297.74c-26.43-3.85-29.36-23.5-29.36-23.5"/>
    </g>
  </g>
  <metadata>
    <rdf:RDF>
      <cc:Work>
        <dc:format>image/svg+xml</dc:format>
        <dc:type rdf:resource="http://purl.org/dc/dcmitype/StillImage"/>
        <cc:license rdf:resource="http://creativecommons.org/licenses/publicdomain/"/>
        <dc:publisher>
          <cc:Agent rdf:about="http://openclipart.org/">
            <dc:title>Openclipart</dc:title>
          </cc:Agent>
        </dc:publisher>
        <dc:title>Unicorn head profile</dc:title>
        <dc:date>2008-05-27T15:41:05</dc:date>
        <dc:description>Outline profile of a unicorn head.</dc:description>
        <dc:source>https://openclipart.org/detail/17137/unicorn-head-profile-by-kelan</dc:source>
        <dc:creator>
          <cc:Agent>
            <dc:title>kelan</dc:title>
          </cc:Agent>
        </dc:creator>
        <dc:subject>
          <rdf:Bag>
            <rdf:li>animal</rdf:li>
            <rdf:li>head</rdf:li>
            <rdf:li>inkscape</rdf:li>
            <rdf:li>line art</rdf:li>
            <rdf:li>outline</rdf:li>
            <rdf:li>profile</rdf:li>
            <rdf:li>unicorn</rdf:li>
          </rdf:Bag>
        </dc:subject>
      </cc:Work>
      <cc:License rdf:about="http://creativecommons.org/licenses/publicdomain/">
        <cc:permits rdf:resource="http://creativecommons.org/ns#Reproduction"/>
        <cc:permits rdf:resource="http://creativecommons.org/ns#Distribution"/>
        <cc:permits rdf:resource="http://creativecommons.org/ns#DerivativeWorks"/>
      </cc:License>
    </rdf:RDF>
  </metadata>
</svg>
