<?xml version="1.0" encoding="UTF-8" standalone="no"?>
<svg xmlns:rdf="http://www.w3.org/1999/02/22-rdf-syntax-ns#" xmlns="http://www.w3.org/2000/svg" height="175.35" viewBox="0 0 184.5 175.35001" width="184.5" version="1.1" xmlns:cc="http://creativecommons.org/ns#" xmlns:dc="http://purl.org/dc/elements/1.1/">
<path d="m168.19 174.89c-0.25488-0.40255-0.3132-0.42972-0.48309-0.225-0.24679 0.29736-0.81409 0.2999-1.0591 0.005-0.20572-0.24789 0.29555-2.3098 0.67388-2.7719 0.19671-0.24027 1.651-4.1538 1.794-4.8275 0.047-0.22139 0.22029-0.44532 0.38516-0.49766 0.59982-0.19036 1.6496-2.1788 1.6496-3.1246 0-0.15683 0.36272-1.0367 0.80604-1.9552 0.63588-1.3175 0.84463-1.9393 0.98878-2.9451 0.10052-0.70125 0.27192-1.4411 0.38091-1.6441 0.22829-0.42519 0.006-0.97329-0.91063-2.2498-0.28331-0.39433-0.5151-0.78127-0.5151-0.85984 0-0.0786-0.20063-0.40802-0.44583-0.73209-0.24521-0.32406-0.44771-0.65141-0.45-0.72741-0.002-0.076-0.10089-0.24506-0.21911-0.37568-0.11821-0.13063-0.4492-0.78486-0.73555-1.4539-0.28635-0.669-0.75504-1.5462-1.0415-1.9493-0.28652-0.40312-0.62525-0.93879-0.75275-1.1904-0.27901-0.55052-2.233-2.482-3.4802-3.4403-0.495-0.38029-1.1921-0.92451-1.5492-1.2094-0.3777-0.30134-0.8179-0.51793-1.0527-0.51793-0.22194 0-0.64802-0.16613-0.94683-0.36919-0.60654-0.41216-1.9592-0.48855-7.1396-0.40327-3.5273 0.0581-5.1437-0.43908-6.8949-2.1207-0.85112-0.81729-0.97993-0.88995-1.4441-0.81463-0.73326 0.11899-1.5068-0.36629-1.408-0.88327 0.0409-0.2142-0.0203-0.4681-0.14244-0.59021-0.53756-0.53755-4.1649-1.2922-3.863-0.80366 0.0566 0.0917 0.28667 0.12819 0.51704 0.0821 0.29331-0.0587 0.49057 0.00045 0.67272 0.20178 0.14175 0.15663 0.50369 0.3053 0.80431 0.33039 0.73423 0.0613 0.71196 0.40296-0.0534 0.81971-1.0812 0.58873-2.0437 0.09-3.307-1.7136-0.11791-0.16835-0.52107-0.41058-0.89591-0.5383s-0.86502-0.375-1.0893-0.54951c-0.22427-0.17451-1.2132-0.79133-2.1976-1.3707-2.2767-1.3399-2.671-1.6105-3.5176-2.4143-1.0149-0.96357-0.98336-0.96113-1.8047-0.13977-0.51972 0.51973-0.90832 0.77101-1.3084 0.84606-0.31299 0.0587-0.75368 0.20222-0.97931 0.3189s-0.58458 0.21214-0.79767 0.21214-0.73879 0.17805-1.1682 0.39566c-0.9552 0.48403-2.1599 0.74659-4.0206 0.87622-0.77751 0.0542-1.5487 0.15616-1.7137 0.22664-0.165 0.0705-0.48792 0.16901-0.7176 0.21895-0.23879 0.0519-0.48798 0.24527-0.58196 0.45153-0.0904 0.1984-0.36333 0.44314-0.60652 0.54388-2.277 0.94315-0.53547 6.8921 2.4027 8.2078 1.0419 0.46652 3.3174 3.1794 2.6669 3.1794-0.0362 0 0.0574 0.35438 0.20802 0.7875 0.52696 1.5155 0.0386 2.4022-1.5579 2.8287-1.0024 0.2678-1.8145 0.69962-2.8396 1.51-0.39928 0.31562-0.87625 0.57384-1.0599 0.57384-0.52291 0-4.1361 1.8862-4.7368 2.4728-0.29696 0.28997-0.61264 0.52722-0.70151 0.52722-0.0889 0-0.49102 0.26015-0.89368 0.5781-0.40265 0.31796-1.2046 0.86876-1.7821 1.224-0.5775 0.35525-1.32 0.89805-1.65 1.2062-0.33 0.30818-0.97125 0.76781-1.425 1.0214-0.85074 0.47545-1.65 1.1348-1.65 1.3612 0 0.0708-0.53346 0.67163-1.1855 1.3351-1.3925 1.4171-1.5927 1.8751-1.4426 3.3013 0.24521 2.3307-0.0589 4.1545-0.75483 4.5269-0.20634 0.11043-0.41316 0.37402-0.45959 0.58576-0.22816 1.0404-0.39224 1.3502-0.81402 1.5369l-0.43902 0.19433 0.07893 1.2398c0.08863 1.3921-0.21514 1.8158-1.0221 1.4258-0.61296-0.29626-1.3425-0.35082-1.6855-0.12606-0.64799 0.42459-5.5552 0.82179-6.0007 0.48573-0.58702-0.44278 0.42312-0.74434 3.3577-1.0024 3.0796-0.27082 4.0486-0.75234 3.7869-1.8818-0.09394-0.40548-0.25491-1.2097-0.3577-1.7872l-0.1869-1.05-1.125-0.0239c-0.61875-0.0132-1.2094-0.03-1.3125-0.0375-0.57005-0.0413-0.11711-0.76185 0.75178-1.1959 0.38576-0.19272 0.48572-0.33527 0.48572-0.69266 0-0.48819 0.60415-0.6052 1.6125-0.3123 0.32338 0.0939 0.4125 0.0699 0.4125-0.11133 0-0.94773 1.9353 0.0859 2.231 1.1915 0.33636 1.2577 0.52686-0.99503 0.25012-2.9576-0.2599-1.8431 1.8603-4.5263 5.5439-7.0159 0.4125-0.2788 0.98625-0.73126 1.275-1.0055 0.28875-0.27423 0.7275-0.58639 0.975-0.69372 0.43219-0.18742 1.3068-0.77409 3.9-2.616 1.1965-0.84985 3.8842-2.3552 5.0074-2.8046 0.56147-0.22465 1.4164-0.75774 2.82-1.7584 2.1323-1.5203 1.8075-3.2339-0.93652-4.9411-0.46411-0.28875-1.0907-0.73463-1.3923-0.99085-0.30167-0.25622-0.70395-0.54739-0.89396-0.64704-0.19-0.0996-0.5886-0.56502-0.88576-1.0342-0.29716-0.46912-0.7296-1.0955-0.96098-1.3919-0.55587-0.71212-0.70402-1.4515-0.59316-2.9602 0.0675-0.91813 0.0414-1.2878-0.099-1.4044-0.41789-0.34681 0.0106-1.1714 0.60871-1.1714 0.13788 0 0.25069-0.069 0.25069-0.1533 0-0.36175 1.3611-1.0129 2.3354-1.1173 0.53955-0.0578 1.1967-0.16992 1.4603-0.2492 0.7346-0.22092 2.957-0.57467 3.6293-0.57768 0.59712-0.003 1.7198-0.36571 2.7562-0.89129 0.29908-0.15166 0.93021-0.3616 1.4025-0.46653 0.88328-0.19623 2.4279-1.2943 2.7204-1.934 0.29846-0.65271-0.63569-1.96-1.8792-2.6299-2.1298-1.1473-4.2118-2.906-5.5119-4.6559-1.7261-2.3234-3.3902-3.4778-5.2112-3.6153-0.64722-0.0489-1.8422-0.21729-2.6555-0.37429-0.81329-0.157-1.8167-0.28545-2.2299-0.28545-0.41313 0-1.064-0.0973-1.4463-0.21614-2.6044-0.80977-4.3001-0.81618-4.9619-0.0187-0.10722 0.12919-0.31832 0.23489-0.46912 0.23489s-0.32816 0.0848-0.39414 0.18849c-0.066 0.10367-0.45475 0.42429-0.86396 0.7125-1.0337 0.72807-2.3952 2.1001-2.7718 2.7933-0.17351 0.31938-0.51525 0.9182-0.75942 1.3307-1.6348 2.7619-2.0167 4.4531-2.022 8.955-0.0031 2.6237 0.2517 3.575 0.42103 1.5718 0.08299-0.98173 0.65094-3.0325 1.3887-5.0143 0.29303-0.78718 0.8125-0.91272 0.8125-0.19636 0 0.24264-0.0561 0.4758-0.1246 0.51816-0.0685 0.0423-0.21061 0.46821-0.31574 0.94635s-0.31416 1.1056-0.4645 1.3944c-0.71953 1.382-0.75736 3.675-0.0606 3.675 0.21568 0 0.34011-0.17378 0.4833-0.675 0.10607-0.37125 0.24107-0.83676 0.3-1.0345 0.11573-0.38821 0.55504-0.74265 0.71822-0.57947 0.0553 0.0553 0.0164 0.54618-0.0864 1.091-0.17372 0.9207-0.095 1.9367 0.23524 3.0367 0.0846 0.28162 1.4193-0.59666 1.825-1.2008 0.30433-0.45326 0.3215-0.58026 0.18837-1.3933-0.43398-2.6502-0.13889-4.6323 1.0153-6.8196 0.84069-1.5932 1.8507-1.614 1.3039-0.0269-0.92134 2.6742-1.2906 7.1039-0.76893 9.2237 0.13832 0.56199 0.25251 1.1695 0.25378 1.35 0.001 0.1805 0.07 0.42944 0.15285 0.55319 0.2355 0.35195 0.6185-0.21826 0.44793-0.66689-0.72241-1.9001-0.41435-6.5604 0.47019-7.1128 0.42624-0.26619 0.52602-0.0939 0.27389 0.47295-0.7141 1.6055-0.0257 6.6022 1.0713 7.7766 0.78568 0.84107 1.2007 1.7802 0.78671 1.7802-0.25998 0-1.0999-0.65591-1.538-1.201-0.84306-1.0491-1.3336-0.0579-0.51318 1.0368 1.0185 1.359 1.0922 1.391 1.7321 0.75109 0.78423-0.78423 1.0971-0.82305 1.9752-0.24506 0.41999 0.27644 1.0635 0.621 1.43 0.7657 2.0982 0.8284 3.0624 3.9652 1.5935 5.1842-0.12919 0.10722-0.23497 0.3048-0.23506 0.43907-0.00015 0.27201-0.25607 0.54852-2.0998 2.2691-0.70125 0.6544-1.3444 1.1921-1.4293 1.1949-0.0849 0.003-1.0367 0.84033-2.1151 1.8612-1.0785 1.0208-2.3422 2.1-2.8082 2.3981-0.46605 0.29813-0.84737 0.61419-0.84737 0.70236 0 0.30924-2.2008 2.1306-3.1769 2.6292-0.27395 0.13992-0.78098 0.51308-1.1267 0.82925-0.34575 0.31615-0.81825 0.61993-1.05 0.67506-0.23175 0.0551-0.52262 0.18453-0.64637 0.28755-0.12375 0.10303-0.61984 0.37204-1.1024 0.59781-0.95756 0.44797-2.9476 2.2858-2.9476 2.7222 0 0.13959-0.0913 0.36038-0.20288 0.49062-0.11158 0.13025-0.45859 0.83996-0.77112 1.5771-0.40351 0.95178-0.7795 1.5606-1.297 2.1-0.41843 0.4362-0.72879 0.89961-0.72888 1.0883-0.000086 0.18075-0.06018 0.36574-0.13354 0.41107-0.07336 0.0453-0.17694 0.26871-0.23018 0.49637-0.05324 0.22764-0.18816 0.61641-0.29983 0.86391-0.28123 0.62329-0.5366 1.4707-0.5366 1.7806 0 0.14261-0.09223 0.44157-0.20495 0.66435-0.39316 0.77702-0.44932 1.53-0.11411 1.53 0.67027 0 1.1204 0.63798 0.58156 0.82422-0.51688 0.17863-1.8376-0.1553-1.7905-0.45269 0.02587-0.16309 0.04118-0.48855 0.03404-0.72322-0.0071-0.23468 0.1179-0.63968 0.27788-0.9 0.40844-0.66464 0.60941-1.7531 0.27209-1.4737-0.13256 0.1098-0.39094 0.5148-0.57416 0.9-0.18323 0.3852-0.51486 0.97037-0.73696 1.3004-0.2221 0.33-0.45136 0.75187-0.50947 0.9375-0.11645 0.37197-0.3781 0.43483-0.65544 0.1575-0.29109-0.29109-0.20765-0.79173 0.195-1.17 0.20625-0.19376 0.375-0.4371 0.375-0.54075 0-0.1961 0.19747-0.53543 1.248-2.1446 0.34483-0.5282 0.83381-1.2847 1.0866-1.6811 0.25281-0.3964 0.79281-1.0891 1.2-1.5393 1.0867-1.2016 1.3681-1.6126 1.719-2.5105 1.1486-2.9398 2.4437-4.3314 5.4802-5.8889 0.99485-0.51027 2.1155-1.1791 2.4904-1.4863 0.3749-0.30721 0.75645-0.55855 0.84788-0.55855 0.0914 0 0.76918-0.5978 1.5061-1.3284 0.73693-0.73065 1.5664-1.4851 1.8433-1.6766 0.27689-0.19151 0.84484-0.65684 1.2621-1.0341 1.4495-1.3104 3.4118-3.091 4.3987-3.9915 0.54592-0.49809 1.1858-1.0029 1.4218-1.1218 1.141-0.57472 1.019-2.7634-0.17396-3.1208-0.3153-0.0945-0.73358-0.3424-0.92951-0.55096-0.55941-0.59546-1.3702-0.75102-1.9792-0.37973-2.273 1.3858-5.2727-2.2507-5.0325-6.1008 0.0778-1.2477-0.0621-1.5989-0.34282-0.8605-0.0805 0.21162-0.14732 0.6335-0.14859 0.9375-0.008 2.0165-1.6251 0.34509-2.0408-2.1098-0.10358-0.61175-0.26688-0.68387-0.76248-0.33674-1.954 1.3686-3.0535-1.6717-2.3599-6.5258 0.12378-0.86625 0.2821-1.9827 0.35181-2.4811 0.40052-2.8632 3.6718-7.4082 6.5386-9.0845 1.4249-0.83321 1.7965-1.4864 0.84413-1.4838-0.72322 0.002-4.5715-1.3626-5.9746-2.1185-0.59424-0.32017-1.1937-0.58212-1.3322-0.58212-0.13847 0-0.76602-0.26647-1.3946-0.59215-0.62854-0.32567-2.0092-1.0061-3.0682-1.512-1.059-0.50595-2.1727-1.143-2.475-1.4157-0.30228-0.27267-0.8196-0.60817-1.1496-0.74556-0.33-0.13738-0.8025-0.4396-1.05-0.67158-0.42889-0.40201-3.6639-2.413-3.8817-2.413-0.05713 0-0.27527-0.1123-0.48475-0.24956-0.42656-0.27949-2.1058-0.90399-2.9086-1.0817-0.28875-0.0639-0.68145-0.20036-0.87267-0.3032-0.82136-0.44174-3.6969-0.4802-4.7943-0.0641-0.55441 0.21021-1.3118 0.43791-1.683 0.50599-1.2432 0.228-1.8727 0.3888-2.1896 0.55937-0.33142 0.17833-1.822 0.46449-2.8354 0.5443-2.5491 0.20078-4.6175 0.51209-5.0087 0.75385-0.09301 0.0575-0.71493 0.13049-1.382 0.16224-1.2247 0.0583-2.2186 0.22006-3.742 0.60904-0.45805 0.11696-2.0657 0.27656-3.5726 0.35468-1.6184 0.0839-2.9966 0.23028-3.3672 0.35762-0.34505 0.11857-1.0987 0.3668-1.6747 0.55161-1.2857 0.41249-3.4245 1.551-3.7859 2.0152-0.14673 0.18849-0.57053 0.54666-0.94178 0.79594-1.8273 1.2269-3.7969 4.0815-4.2184 6.1138-0.08555 0.4125-0.21438 0.98625-0.28629 1.275-1.1791 4.7346-1.3418 8.2947-0.42951 9.394 0.98616 1.1882 0.52337 3.1414-0.76605 3.233-0.65499 0.0466-0.67368 0.0617-0.63895 0.51851 0.01967 0.25881-0.05615 0.54685-0.16849 0.64009-0.21603 0.17929-0.69229 0.0749-0.69229-0.1517 0-0.0737-0.10125-0.13395-0.225-0.13395-0.40117 0-0.33625 0.16667 0.87976 2.2585 0.44236 0.76094-0.65246 2.6608-2.0048 3.4789-0.28875 0.17469-0.74687 0.50786-1.018 0.74039-0.96505 0.82751-3.8349 2.0413-5.132 2.1706-0.37125 0.037-0.818 0.1379-0.99278 0.22424-0.48585 0.23997-0.83648 0.1019-1.1636-0.45821l-0.29762-0.5096 0.38765-0.31491c0.67296-0.54669 1.5946-4.1622 1.0539-4.1341-0.52222 0.0272-2.2096 3.2154-1.9204 3.6284 0.53238 0.76008 0.11897 1.3171-0.58331 0.78593-0.16014-0.12113-0.41539-0.22023-0.56721-0.22023-0.49803 0-0.44357-0.39691 0.18775-1.3683 1.7582-2.7054 3.2933-5.5511 3.2974-6.1129 0.0011-0.13407 0.16797-0.53441 0.37105-0.88963 0.30814-0.53898 0.33908-0.69416 0.18699-0.93769-0.36996-0.59241 0.33478-2.619 2.214-6.3664 0.9515-1.8975 1.7713-3.6862 1.8218-3.975 0.05048-0.28875 0.28116-0.82875 0.51263-1.2 0.5067-0.81272 1.2154-2.7199 1.6634-4.4763 0.30928-1.2126 2.1926-5.3813 2.7998-6.1973 0.14378-0.19324 0.3609-0.54973 0.48248-0.7922 0.40364-0.80504 2.59-2.8353 3.4632-3.216 0.44431-0.19368 0.90908-0.40927 1.0328-0.47908 0.12375-0.0698 0.64097-0.36592 1.1494-0.65802 0.5084-0.2921 1.0267-0.53108 1.1517-0.53108 0.12506 0 0.62034-0.22745 1.1006-0.50543 0.48029-0.27799 1.312-0.75323 1.8483-1.0561 0.53625-0.30287 1.2521-0.7673 1.5908-1.0321 0.3387-0.26477 0.7437-0.56578 0.9-0.6689 0.27862-0.18383 0.27863-0.19117 0.0006-0.375-0.15594-0.10312-0.58304-0.44159-0.94911-0.75215s-0.87973-0.67047-1.1415-0.79981c-0.26174-0.12934-0.77964-0.53422-1.1509-0.89974-0.37125-0.36552-1.215-1.1412-1.875-1.7237-1.996-1.759-2.053-1.819-2.347-2.483-0.156-0.353-0.64-1.03-1.077-1.506-0.913-0.995-1.594-1.964-1.594-2.27 0-0.785-2.473-3.807-3.407-4.164-0.351-0.134-0.713-0.333-0.803-0.442-1.221-1.471-4.878-1.462-8.39 0.022-0.45375 0.19163-1.0713 0.38775-1.3723 0.43582-0.30101 0.04807-0.71764 0.22141-0.92586 0.38519s-0.87319 0.50804-1.4777 0.76501c-0.60453 0.25697-1.2844 0.62278-1.5108 0.81291-0.22643 0.19013-0.5461 0.38834-0.71038 0.44048-0.25947 0.08235-2.2529 2.7869-2.2529 3.0566 0 0.05485-0.17365 0.35527-0.38589 0.6676-0.61612 0.9067-1.3467 2.3701-1.5485 3.1018-0.36026 1.3062-1.0859 1.7141-1.6471 0.92596-0.43063-0.60477-0.40603-0.89563 0.08065-0.9535 0.33604-0.03996 0.44313-0.17732 0.67741-0.86892 0.15305-0.4518 0.51343-1.3038 0.80086-1.8934 0.28742-0.58959 0.52259-1.1241 0.52259-1.1878 0-0.06368 0.1388-0.25788 0.30846-0.43157 0.16965-0.17368 0.59153-0.75454 0.9375-1.2908 0.67036-1.039 2.6195-2.5521 3.6565-2.8385 0.26889-0.07424 0.68687-0.27596 0.92885-0.44827 0.24198-0.1723 0.51258-0.31328 0.60134-0.31328 0.17562 0 2.0167-0.69279 2.4766-0.9319 1.521-0.791 3.488-1.188 5.94-1.199l2.175-0.0095 1.3028 0.65786c1.6885 0.85264 3.2293 2.2152 4.6348 4.0986 0.61185 0.81992 1.7537 2.1402 2.5375 2.934 0.78375 0.79376 2.044 2.0877 2.8005 2.8754 0.75653 0.78769 1.8028 1.7203 2.325 2.0724 0.52222 0.35216 1.1082 0.83675 1.3022 1.0769 0.19397 0.24012 0.75085 0.63757 1.2375 0.88324 1.2526 0.6323 0.67941 1.1131-0.70122 0.58814-0.63707-0.24221-0.56469-0.10647 0.30567 0.57329 0.99618 0.77803 1.589 0.71431 3.3804-0.36332 0.20625-0.12407 0.87241-0.46314 1.4804-0.75347l1.1054-0.52788-0.07067-0.73548c-0.05056-0.52617-0.1795-0.84431-0.45309-1.1179-0.70235-0.70235-0.87312-1.9382-0.81302-5.8835 0.03724-2.4441 0.0042-3.4917-0.1104-3.5017-0.08994-0.0078-1.2711-0.0063-2.6248 0.0033-1.9463 0.01385-2.6054-0.03443-3.15-0.23075-1.0944-0.3945-3.4436-1.5875-3.7137-1.886-0.13559-0.14983-0.32193-0.27241-0.4141-0.27241s-0.41559-0.20443-0.71872-0.4543c-0.304-0.25-0.809-0.56-1.122-0.689-0.314-0.129-0.74-0.39-0.946-0.58-0.43906-0.40464-3.0617-1.8765-3.3436-1.8765-0.10611 0-0.4548-0.13351-0.77488-0.2967-0.32007-0.16318-0.82372-0.37623-1.1192-0.47343-0.2955-0.09721-0.79491-0.3469-1.1098-0.55488-0.90197-0.59572-3.8918-0.34596-4.9151 0.4106-0.23389 0.17292-0.51633 0.3144-0.62766 0.3144-0.11132 0-0.33343 0.10016-0.49357 0.22257s-0.56117 0.29524-0.89117 0.38407c-0.33 0.08882-0.9375 0.3195-1.35 0.5126-0.4125 0.19311-1.2225 0.50137-1.8 0.68503-0.95607 0.30406-1.3427 0.47962-2.475 1.1237-0.64544 0.36716-3.4931 1.5334-4.2 1.7201-0.37125 0.09804-0.8775 0.27008-1.125 0.38233-0.2475 0.11224-0.74086 0.28696-1.0963 0.38826-0.35549 0.1013-0.71224 0.3073-0.79278 0.45778-0.08419 0.15731-0.31251 0.27361-0.53718 0.27361-0.46861 0-2.7021 0.71518-3.1196 0.99891-0.16273 0.1106-0.40979 0.20109-0.54902 0.20109-0.41425 0-1.8923 1.537-2.2254 2.3141-0.36262 0.84596-1.1579 1.7359-1.5512 1.7359-0.15429 0-0.46006 0.21314-0.67949 0.47364s-0.92209 0.98944-1.5615 1.6199c-0.63938 0.63042-1.1625 1.2475-1.1625 1.3714 0 0.12382-0.079875 0.30501-0.1775 0.40264-0.29693 0.29693-0.088434 0.31975 0.92893 0.1017 1.2829-0.27497 1.4385-0.26963 1.7552 0.06026 0.30941 0.32223 1.8669 0.51724 2.7915 0.34951 0.531-0.09633 0.59297-0.16252 0.84219-0.89957 0.14796-0.43758 0.4469-0.98127 0.66432-1.2082 0.21742-0.22694 0.39531-0.55253 0.39531-0.72354 0-0.72446 2.7543-1.0419 3.2744-0.37741 0.43459 0.55524 0.0843 2.1822-0.40416 1.8772-0.14637-0.09141-0.44704-0.13161-0.66818-0.08934-0.24191 0.04624-0.40206 0.01014-0.40206-0.09063 0-0.2589-0.78682-0.19148-1.1478 0.09835-0.33446 0.26856-0.84904 1.29-1.04 2.0644-0.06033 0.24464-0.19324 0.5798-0.29534 0.7448-0.10211 0.165-0.23592 0.46744-0.29736 0.6721-0.06144 0.20465-0.24748 0.55574-0.41342 0.78018-0.26486 0.35824-0.29047 0.55387-0.20966 1.6018 0.06565 0.85136 0.03992 1.2352-0.0897 1.3383-0.328 0.261-4.27 0.63533-7.1663 0.68051-1.4273 0.0223-1.7812 0.0736-1.9982 0.28957-0.3732 0.37153-1.3261-0.0516-1.5289-0.679-0.18358-0.56788-0.78357-0.78882-1.1661-0.42941-0.4229 0.3973-0.64154 0.40529-0.84198 0.0308-0.25773-0.48157-0.19892-0.57158 0.99163-1.5177 1.8264-1.4514 3.5061-3.1493 3.8147-3.856 0.1534-0.35136 0.5848-0.96586 0.95867-1.3656 0.37387-0.39969 0.67927-0.78721 0.67868-0.86116-0.000585-0.07394 0.23527-0.3707 0.52414-0.65944 0.28887-0.28875 0.80413-0.84555 1.145-1.2373 0.34089-0.39178 0.98073-0.91883 1.4218-1.1712 0.88089-0.50399 1.3597-1.0716 1.5814-1.8745 0.27231-0.98623 2.9418-2.972 4.2335-3.1493 0.4236-0.05812 1.4114-0.33587 2.1952-0.61723 1.9921-0.71514 2.5583-0.90263 3.075-1.0184 0.2475-0.05543 1.6432-0.70011 3.1016-1.4326 1.4584-0.73251 2.8951-1.3775 3.1926-1.4333 0.29751-0.05581 0.75803-0.24765 1.0234-0.42631 0.5487-0.36944 1.769-0.90108 2.423-1.0556 0.24233-0.05726 0.93569-0.33589 1.5408-0.61919 0.6051-0.2833 1.1831-0.51805 1.2844-0.52167 0.10132-0.0036 0.45421-0.11088 0.78421-0.23836 0.54806-0.21171 2.8026-0.64406 3.399-0.65182 0.13697-0.0018 0.59722 0.27199 1.0228 0.60838 0.42556 0.33639 1.1409 0.73794 1.5897 0.89233 0.44875 0.15439 0.96539 0.38542 1.1481 0.51338 0.1827 0.12797 0.46465 0.23267 0.62656 0.23267 0.32942 0 2.0946 0.87693 3.0139 1.4973 0.67665 0.45662 4.7504 2.7898 5.7604 3.2991 1.2332 0.62194 1.8757 0.77149 3.5396 0.82392 0.9075 0.0286 1.8968 0.0983 2.1984 0.15489 0.7751 0.14541 1.2436-0.31957 1.1354-1.1268-0.11519-0.85879 0.11313-1.7815 0.69595-2.8126 0.28949-0.51215 0.77345-1.4785 1.0755-2.1474 0.80174-1.7757 1.4967-2.835 2.3051-3.5134 0.3932-0.33 0.89522-0.9375 1.1156-1.35s0.73653-1.1421 1.147-1.6213c0.96202-1.1231 1.0545-1.3295 1.6592-3.7037 0.49114-1.9282 0.66352-2.5128 0.8566-2.9047 0.32747-0.66471 1.3716-1.7248 2.1276-2.1603 0.376-0.21655 1.0211-0.67193 1.4336-1.012 0.4125-0.34003 0.95983-0.74871 1.2163-0.90817 1.3235-0.82298 3.1715-2.8321 4.0381-4.39l0.86216-1.5501-0.31788-0.31788c-0.30461-0.30461-0.37001-0.31035-1.566-0.13742-1.6551 0.2393-2.2987 0.22777-3.4274-0.06139-1.2022-0.30799-3.4422-0.17588-4.0266 0.23747-0.20824 0.14729-0.65459 0.31387-0.99188 0.37018-0.989 0.164-3.512 2.119-3.512 2.72 0 0.18728 0.26984 0.87402 0.59964 1.5261 1.2292 2.4304 0.71044 5.3368-1.317 7.3784-0.36427 0.36682-0.83808 0.89739-1.0529 1.179-0.50633 0.66383-1.9681 1.8539-2.1438 1.7454-0.28832-0.17819-0.11288-0.63802 0.43082-1.1292 0.9337-0.84356 1.2715-1.5316 1.3496-2.749l0.06898-1.0748-0.6177-0.40877c-0.55-0.364-0.617-0.473-0.617-1.001 0-0.54083-0.06945-0.64502-0.7875-1.1814-0.962-0.72-1.462-1.189-1.462-1.372 0-0.07597-0.27647-0.22097-0.61438-0.32221-0.3779-0.11322-0.66056-0.30555-0.73437-0.49969-0.15918-0.41867-0.3865-0.58385-1.2458-0.90529-1.3008-0.48655-1.3068-1.233-0.01471-1.8245 0.44599-0.20418 0.88762-0.518 0.98138-0.69738 0.09377-0.17937 0.43091-0.6115 0.7492-0.96028 0.91434-1.0019 0.75169-1.2374-0.54622-0.79088-0.47307 0.16276-1.3944 0.34048-2.0473 0.39494-0.65295 0.05445-1.2228 0.15662-1.2663 0.22705-0.33093 0.53545-1.1703-0.09044-1.458-1.0872-0.13824-0.47894-0.31214-0.72148-0.63443-0.8848-0.71492-0.36229-2.2929-1.9395-2.4541-2.4528-0.15723-0.50079-0.20669-1.0265-0.1808-1.9216 0.01845-0.63784 1.2871-2.0592 2.3925-2.6805 0.34284-0.19269 0.62335-0.39722 0.62335-0.45452s0.21938-0.1943 0.4875-0.30444 0.70796-0.34892 0.97741-0.53062c0.34688-0.23392 0.8286-0.36027 1.65-0.43278 1.1492-0.10145 1.5452-0.26737 2.7351-1.1459 0.20625-0.15229 0.74578-0.52278 1.199-0.82331 0.45318-0.30053 1.1909-0.84528 1.6393-1.2106 0.44842-0.36528 1.0564-0.78846 1.351-0.94039 0.674-0.346 2.861-2.817 2.861-3.231 0-0.04234 0.2743-0.46346 0.60956-0.93583 0.33526-0.47236 0.7472-1.0787 0.91541-1.3474 0.16822-0.26868 0.46852-0.52934 0.66735-0.57924s0.41127-0.16892 0.47209-0.26449 0.59996-0.60411 1.1981-1.1301c1.2249-1.0772 1.3374-1.4231 0.75-2.3075-0.186-0.28-0.507-0.791-0.713-1.135-1.028-1.718-1.616-2.459-3.911-4.927-1.367-1.471-2.731-3.045-3.031-3.497s-0.835-1.176-1.189-1.61c-0.354-0.433-1.049-1.297-1.544-1.921-2.335-2.941-3.172-3.964-3.981-4.866-5.475-6.1066-8.981-10.325-9.51-11.441-1.3255-2.802 0.06149-2.0219 4.2292 2.3784 1.5463 1.6326 3.0909 3.2295 3.4325 3.5488 1.7838 1.6671 12.988 13.053 13.17 13.384 0.08935 0.16218 0.64699 0.70218 1.2392 1.2s1.2837 1.192 1.5366 1.5426c0.2529 0.35062 0.51003 0.63761 0.57138 0.63774 0.06136 0.00013 0.57666 0.43888 1.1451 0.975 1.2284 1.1585 1.1855 1.146 1.0601 0.30971-0.10881-0.7256 0.27631-2.1403 0.8296-3.0474 0.46649-0.76483 0.80502-0.64639 1.581 0.55316 1.0585 1.6363 2.2692 2.1111 3.6398 1.4273 0.43219-0.2156 0.50786-0.21028 1.0671 0.075 1.4215 0.72521 2.9576 0.07897 1.8169-0.76438-0.48427-0.35803-0.84949-1.2066-0.65124-1.5131 0.06774-0.10474 0.12316-0.59408 0.12316-1.0874 0-0.97734 0.33134-1.3002 0.74866-0.72948 0.34209 0.46784 1.3262-0.18893 1.4263-0.95185 0.11267-0.85884 0.71506-0.82651 1.0086 0.05413 0.2859 0.85771 1.532 1.1521 3.0789 0.72745 0.35683-0.09797 0.4125-0.06991 0.4125 0.20795 0 0.69434-2.5478 1.1279-3.6814 0.62641-0.908-0.403-1.719-0.168-1.719 0.497 0 0.06417-0.13351 0.28641-0.2967 0.49386-0.47477 0.60357-0.09799 1.0597 1.0842 1.3126 0.57374 0.12273 0.51653 0.42155-0.225 1.1751-1.204 1.2235-2.0425 1.452-3.1499 0.85844-0.52776-0.28286-0.59552-0.28626-1.2537-0.06281-0.58065 0.19713-0.85694 0.20815-1.6699 0.06658-1.1069-0.19276-1.2829-0.1387-0.7294 0.22399 0.40611 0.26609 0.72012 0.29308 1.6065 0.13807 0.60794-0.10632 0.89424 0.21338 0.49088 0.54814-1.0287 0.85374-3.7125-0.09043-3.2351-1.1381 0.34351-0.75393-0.86802-1.8594-1.243-1.1343-0.47691 0.92225-0.02367 2.0288 1.3494 3.2945l0.66176 0.60999 1.1172-0.09444c0.61448-0.05194 1.2231-0.05383 1.3524-0.0042 0.5969 0.22905-0.43478 1.0016-1.3376 1.0016-0.52334 0-1.2722 0.49203-1.2722 0.83589 0 0.11776-0.10994 0.21411-0.24432 0.21411-0.29369 0-1.4036 0.96284-1.673 1.4513-0.245 0.444-0.932 0.489-0.932 0.06 0-0.15867 0.16875-0.48904 0.375-0.73415 0.21171-0.2516 0.375-0.63545 0.375-0.88151 0-0.23972 0.08199-0.51783 0.18219-0.61804 0.21366-0.21366-1.4893-1.998-4.0776-4.2727-0.86375-0.75906-2.45-2.2417-3.525-3.2947-1.075-1.054-2.664-2.607-3.53-3.452-2.736-2.67-5.25-5.332-5.25-5.56 0-0.121-0.923-1.155-2.052-2.297-1.129-1.1423-1.992-1.9757-1.919-1.852 0.3371 0.56976 5.4848 6.6665 6.6167 7.8365 0.69781 0.72134 1.3656 1.5433 1.4839 1.8266 0.11836 0.28329 0.348 0.55721 0.51031 0.60873 0.16231 0.05151 0.44581 0.3433 0.63 0.64842 0.1842 0.30512 0.63104 0.83184 0.99299 1.1705s0.81632 0.94616 1.0097 1.35c0.19339 0.40384 0.61052 1.05 0.92696 1.436 0.59971 0.73149 1.5797 1.9611 2.4117 3.0258 0.699 0.89457 1.2344 1.5421 1.8761 2.2689 0.30938 0.3504 0.5625 0.72442 0.5625 0.83116 0 0.20606 0.59012 1.0337 1.0441 1.4643 0.15236 0.14452 0.31683 0.59061 0.3737 1.0136 0.1156 0.85984 0.06622 0.92803-1.1928 1.6471-0.96638 0.55194-2.8987 2.1997-3.2424 2.765-0.14657 0.24102-0.39632 0.5077-0.555 0.59263-0.27124 0.14517-0.68953 1.0371-1.074 2.2902-0.2173 0.70826-2.2199 2.3627-3.7846 3.1266-0.3883 0.18957-1.0267 0.6097-1.4187 0.93361-0.39198 0.32392-0.88429 0.67825-1.094 0.78741-0.20972 0.10916-0.54495 0.37364-0.74496 0.58772-0.20001 0.21409-0.42734 0.38925-0.5052 0.38925-0.07785 0-0.36888 0.1996-0.64674 0.44356-0.47859 0.42021-1.7356 0.90644-2.3433 0.90644-0.78532 0-2.3166 0.51856-2.7214 0.92158-0.23666 0.23563-0.49852 0.42842-0.58189 0.42842-1.111 0-1.8888 2.7803-0.88844 3.1755 0.22034 0.08706 0.57979 0.25192 0.79877 0.36638 0.21898 0.11445 0.51366 0.20809 0.65484 0.20809 0.57648 0 1.6998 1.4525 1.6146 2.0877-0.14621 1.0901 1.0546 1.3601 2.5824 0.5806 0.34674-0.17692 1.0115-0.33464 1.575-0.37368 1.2392-0.08584 1.6772-0.2549 2.0832-0.80406 0.17917-0.24234 0.45737-0.44061 0.61823-0.44061s0.56794-0.11022 0.90461-0.24493c0.77506-0.31012 1.3439-0.11256 1.3439 0.46671 0 0.35451-0.04762 0.37822-0.75986 0.37822-0.957 0-1.2768 0.17069-1.3912 0.74257-0.04985 0.24927-0.2381 0.5723-0.41833 0.71783-1.0018 0.80895-1.4553 1.2837-1.7142 1.7945-0.40742 0.80393-0.67056 1.0951-0.98974 1.0951-0.41215 0-0.33463 0.40295 0.09844 0.51164 0.23511 0.05901 0.47312 0.29905 0.6375 0.64294 0.37295 0.78024 0.51246 0.76375 1.4472-0.17102 0.95026-0.95026 1.2042-1.0381 1.1081-0.38356-0.05368 0.36572-0.0125 0.45 0.2199 0.45 0.24071 0 0.27005 0.07236 0.18546 0.45745-0.10344 0.47097 0.1524 1.1874 0.69369 1.9425 0.44229 0.61703 0.52396 1.2043 0.18001 1.2942-0.54384 0.14222-0.42315 1.4331 0.19531 2.0889 0.2792 0.29603 0.50763 0.63469 0.50763 0.75256 0 0.11788 0.06621 0.21432 0.14714 0.21432 0.2456 0 0.34436-0.71512 0.16846-1.2197-0.2363-0.67784-0.2066-0.88026 0.12913-0.88026 0.42972 0 0.63834 0.51712 0.58082 1.4397-0.0647 1.0378 0.0824 1.0242 0.56472-0.05221 0.92222-2.0581 0.51822-4.3703-0.74461-4.2615-1.0298 0.08872-1.9094-1.556-1.4578-2.7257 0.23798-0.61636 0.52311-0.41377 0.62998 0.4476 0.10053 0.81033 0.28192 1.2407 0.65259 1.5483 0.3703 0.30732 0.45806 0.05187 0.18145-0.52818-0.64013-1.3424 0.60999-3.374 2.9941-4.866 0.19594-0.12261 0.39309-0.33902 0.43813-0.48091 0.04503-0.14189 0.28079-0.42535 0.52391-0.62992 0.69301-0.58313 0.95614-1.4412 0.44194-1.4412-0.2 0-0.3-0.1-0.3-0.3 0-0.21747 0.1-0.3 0.36349-0.3 0.19992 0 0.58214-0.18398 0.84938-0.40885 0.36826-0.30986 0.67064-0.41762 1.249-0.44507 1.4947-0.07095 2.4818-0.31363 3.1937-0.78516 0.87921-0.58236 1.0961-0.41829 0.60836 0.46011-0.32574 0.58659-0.43144 0.6624-1.026 0.73585-0.36459 0.04503-0.81032 0.16316-0.99052 0.2625s-0.49739 0.18062-0.70487 0.18062c-0.256 0-0.50802 0.17148-0.78424 0.53363-0.23167 0.30374-0.58667 0.56956-0.82404 0.61703-0.36866 0.07373-1.1842 0.96887-1.1842 1.2998 0 0.06012 0.96188 0.09957 2.1375 0.08768 1.4066-0.01423 2.2914 0.042 2.5875 0.16446 0.786 0.32505 3.1148 0.24394 3.7009-0.12891 0.27448-0.1746 0.66781-0.40036 0.87406-0.50167 0.20625-0.10132 0.73069-0.40646 1.1654-0.6781 0.43473-0.27164 0.90723-0.4958 1.05-0.49813 0.14277-0.0023 0.66459-0.27372 1.1596-0.60308 0.495-0.32936 0.99566-0.58058 1.1126-0.55826 0.42012 0.0802 0.31126 0.37649-0.28277 0.7696-0.511 0.336-0.605 0.478-0.605 0.912 0 0.28271-0.06189 0.55227-0.13753 0.59902-0.07565 0.04675-0.44069 0.60761-0.8112 1.2464-0.3908 0.67371-0.9567 1.3955-1.3477 1.719-0.37072 0.3067-0.97841 1.0154-1.3504 1.575-0.76298 1.1476-3.0596 3.4843-4.0338 4.1041-0.35439 0.22548-0.8357 0.61883-1.0696 0.87412-0.23387 0.25528-0.47675 0.46415-0.53975 0.46415-0.12236 0-0.51308 0.84764-0.89883 1.95-0.17366 0.49626-0.31564 0.675-0.53621 0.675-0.31731 0-0.39071-0.4738-0.15686-1.0125 0.1528-0.35199-0.24204-0.35199-0.55515 0-0.246 0.277-1.313 3.494-1.313 3.958 0 0.14902-0.16875 0.65253-0.375 1.1189s-0.375 0.92295-0.375 1.0146c0 0.09168-0.15959 0.50515-0.35465 0.91884-0.19506 0.41368-0.46797 1.0137-0.60648 1.3333-0.26792 0.61831-2.598 3.2379-2.8833 3.2416-0.23009 0.003-1.1842 1.1874-1.331 1.6522-0.06512 0.20625-0.26315 0.61125-0.44007 0.9s-0.44836 0.82875-0.6032 1.2-0.47909 1.103-0.72056 1.6261c-0.34854 0.75506-0.41755 1.0642-0.3348 1.5 0.05733 0.3019 0.08788 1.1902 0.06789 1.9739-0.04263 1.6713-0.04385 1.5956 0.05678 3.525 0.22766 4.3652 0.67138 5.925 1.6855 5.925 0.0975 0 0.27337 0.14472 0.39082 0.32161l0.21354 0.3216 0.60392-0.34757c0.39965-0.23001 0.70144-0.30965 0.89226-0.23546 0.32303 0.1256 0.29737 0.15339-0.91342 0.98982-0.29856 0.20625-0.88942 0.66243-1.313 1.0137-0.42359 0.3513-0.97605 0.70227-1.2277 0.77994-2.006 0.61913-3.0129 1.1054-3.6322 1.7541-0.17859 0.18705-0.51609 0.38768-0.75 0.44584s-0.59403 0.22055-0.80028 0.36086c-2.2237 1.5128-3.0932 2.0407-4.2961 2.6082-0.5891 0.27792-1.1361 0.62145-1.2155 0.76339-0.07943 0.14194-0.51935 0.50352-0.9776 0.80352-2.1311 1.3951-3.2561 2.394-4.6631 4.1402-0.40664 0.50467-0.84773 0.70254-0.84773 0.38028 0-0.6343-1.2841 0.82712-1.8452 2.1-0.16365 0.37125-0.49544 0.96444-0.73731 1.3182-0.51854 0.75842-1.0991 2.3512-1.2418 3.4068-0.10678 0.7899-0.67198 2.297-1.5186 4.0495-0.278 0.58-0.506 1.13-0.506 1.23 0 0.17315-1.0182 2.3616-1.4211 3.0546-0.91333 1.5707-2.3289 4.4719-2.3289 4.7732 0 0.15196-0.14266 0.73079-0.31702 1.2863l-0.31702 1.01 0.32615 0.34717c0.45989 0.48953 1.6081 0.62388 2.5781 0.30167 0.58325-0.19372 0.78691-0.20756 0.95853-0.0651 0.68452 0.56811-1.3092 1.1734-3.0538 0.9272-1.2021-0.16968-1.2256-0.12188-1.3127 2.6697-0.03476 1.1138-0.12501 2.295-0.20056 2.625-0.68613 2.9971-0.65675 3.0311 1.7883 2.0667 2.6033-1.0269 4.6974-2.5114 5.3968-3.8257l0.37176-0.6987-0.31733-0.34614c-0.17453-0.19037-0.45338-0.61613-0.61966-0.94613s-0.47765-0.76364-0.69193-0.96365c-0.71726-0.66948-0.30492-2.055 0.8141-2.7355 0.29506-0.17944 0.4463-0.39302 0.4463-0.63025 0-0.94936 0.7846-0.86243 1.0305 0.11418 0.16951 0.67317 0.6432 1.0287 1.0421 0.78216 0.16996-0.10504-0.01572-1.189-0.3264-1.9054-0.12199-0.28131-0.33623-1.0338-0.4761-1.6721-0.3594-1.6403-0.24043-3.7684 0.35021-6.2644 0.82503-3.4865 0.95422-3.832 2.4882-6.6554 0.3079-0.56673 0.52482-1.1216 0.48202-1.2332-0.08991-0.23429 0.28605-0.66142 0.58218-0.66142 0.19645 0 1.721-1.1107 3.3773-2.4605 1.5445-1.2587 5.361-2.4291 8.4-2.576 0.78375-0.0379 1.6275-0.10112 1.875-0.14053 0.2475-0.0394 0.95625-0.13566 1.575-0.21389 0.61875-0.0782 1.395-0.21193 1.725-0.29711 0.33-0.0852 0.9375-0.15746 1.35-0.16065 0.4125-0.003 1.1684-0.10446 1.6798-0.22504 0.51138-0.12059 1.3785-0.25168 1.9269-0.29133 0.54839-0.0396 1.075-0.1347 1.1702-0.21122 0.25296-0.20327 0.86263-0.3054 2.8255-0.47332 1.7327-0.14822 3.4774-0.58123 4.9353-1.2248 0.3782-0.16698 0.85875-0.28117 1.0679-0.25376 0.20914 0.0274 0.54096-0.0285 0.73737-0.12434 0.1964-0.0958 0.52922-0.21106 0.73959-0.25616 0.40104-0.086 0.89251-0.88512 0.89251-1.4512 0-1.1905 2.8162-3.8901 4.058-3.8901 0.46141 0 0.34182 0.26652-0.27054 0.60289-1.9721 1.0833-2.7004 1.973-3.0438 3.7182-0.20424 1.0382-0.17798 1.1112 0.41794 1.1633 1.0849 0.0948 2.4285 0.34975 2.7498 0.52168 0.19608 0.10494 0.56059 0.24352 0.81003 0.30796 1.9155 0.49487 2.878 0.78219 3.0232 0.90244 0.0933 0.0773 0.81204 0.47061 1.5972 0.87401 1.383 0.71053 2.7685 1.5608 3.2843 2.0154 0.13813 0.12175 0.40813 0.305 0.6 0.40722 0.19187 0.10221 0.68635 0.43889 1.0989 0.74816 1.048 0.78576 6.6492 3.5641 7.3631 3.6523 0.34936 0.0432 0.6907 0.20049 0.84341 0.38871 0.1411 0.17389 0.64735 0.45056 1.125 0.61481 0.47765 0.16426 1.0812 0.39634 1.3411 0.51575 0.25997 0.1194 0.64255 0.2171 0.85018 0.2171 0.20762 0 0.71626 0.17015 1.1303 0.3781 0.41404 0.20796 0.94271 0.36437 1.1748 0.34758 0.23212-0.0168 0.59078 0.0615 0.79703 0.17392 0.49329 0.26895 1.7295 0.58354 3.2758 0.83364 0.68796 0.11126 1.4642 0.27238 1.725 0.35804 0.26078 0.0857 1.4529 0.29644 2.6492 0.46841 2.8851 0.41474 3.0771 0.43752 4.125 0.48952 0.495 0.0246 1.1025 0.15107 1.35 0.28112s0.9225 0.38073 1.5 0.55706c1.4542 0.44402 1.8213 0.68238 2.9312 1.9035 1.8885 2.0777 2.3375 2.5468 3.5216 3.679 1.5063 1.4404 4.36 3.279 4.7322 3.049 0.0771-0.0476 0.14012-0.34822 0.14012-0.66798 0-0.72216 0.22852-1.3509 0.491-1.3509 0.14732 0 0.20106 0.31162 0.20866 1.21 0.0112 1.3233 0.009 1.3189 0.87312 1.7747 0.88988 0.46943 1.1272 0.42321 1.1272-0.21952 0-1.147 0.588-1.4518 0.61495-0.31879 0.0339 1.424 0.48182 1.705 2.9641 1.8597 1.2222 0.0761 1.1918 0.14425 0.4348-0.97357-0.70374-1.0392-1.0474-1.9383-0.93546-2.4478 0.12955-0.58984 0.39182-0.48306 0.67165 0.27346 0.12376 0.33458 0.44439 0.91378 0.7125 1.2871 0.26811 0.37334 0.48748 0.72391 0.48748 0.77903 0 0.38415 1.0996 1.3768 1.7042 1.5385 0.79185 0.21179 1.0003 0.604 0.62525 1.1764-0.31436 0.47978-0.20703 0.8009 0.57126 1.7091 0.55284 0.64511 1.588 2.0227 2.6198 3.4865 0.32063 0.45486 1.2308 1.1911 2.3852 1.9295 0.26447 0.16915 0.51925 0.42078 0.56619 0.55916 0.13107 0.3864 1.4089 1.2874 2.0134 1.4197 1.7566 0.38435 2.5291 0.44505 5.7896 0.45496 1.98 0.006 4.2412-0.0154 5.025-0.0477 1.5287-0.0629 3.3741 0.37745 3.5548 0.84819 0.0454 0.11846 0.40024 0.37632 0.78843 0.57302 0.43098 0.2184 0.90552 0.63323 1.2188 1.0654 0.28215 0.38928 0.68536 0.88333 0.89604 1.0979 0.21067 0.21456 0.61567 0.72078 0.9 1.1249 0.28432 0.40416 0.69868 0.99145 0.92077 1.3051 0.22211 0.31364 0.61617 1.0541 0.87572 1.6454 0.25953 0.59133 0.70219 1.4352 0.98367 1.8752 0.28149 0.44002 0.5118 0.85011 0.5118 0.91128 0 0.10437 0.90004 2.0698 1.2075 2.6369 0.99916 1.8427 0.95616 5.575-0.0818 7.1046-0.20711 0.30518-0.45632 0.83204-0.55382 1.1708s-0.26604 0.74906-0.37455 0.91179c-0.10851 0.16274-0.19729 0.45608-0.19729 0.65186 0 0.19579-0.0928 0.53514-0.20618 0.75412-0.35581 0.68712-0.71929 1.9394-0.69009 2.3776 0.0551 0.82557-0.009 1.0786-0.38506 1.5258-0.23647 0.28104-0.46401 0.84097-0.59895 1.474-0.1197 0.56143-0.38622 1.6256-0.59227 2.3647-0.46355 1.6627-0.50859 1.62 1.7075 1.62h1.8061l1.3686-0.93741c1.2527-0.858 1.3889-0.91713 1.6078-0.69819 0.57681 0.57681-2.591 2.7967-3.9909 2.7967-0.40255 0-0.94544 0.0744-1.2064 0.16542-0.37701 0.13143-0.59804 0.11601-1.0754-0.075-0.80017-0.32016-0.89481-0.30593-0.89481 0.13458 0 0.51756-0.3566 0.476-0.71041-0.0828zm0.43687-2.2422c0.0573-0.37125 0.20034-1.0312 0.31792-1.4666 0.11758-0.43536 0.15957-0.82508 0.0933-0.86604-0.13664-0.0844-0.65502 1.0148-0.80886 1.7152-0.056 0.25516-0.16421 0.50244-0.24034 0.54949-0.31418 0.19418-0.15254 0.84075 0.19768 0.79082 0.27201-0.0388 0.35604-0.17676 0.4403-0.72294zm-68.954-2.4782c-0.003-1.0405-0.17128-1.3558-0.64341-1.206-0.27123 0.0861-0.28539 0.15143-0.14139 0.6524 0.08802 0.30621 0.1497 0.71368 0.13707 0.9055-0.01263 0.19181 0.05045 0.48594 0.14018 0.6536 0.27642 0.51649 0.51063 0.0525 0.50755-1.0055zm13.211-25.958c-0.26588-1.4173-3.2946-3.2598-3.6823-2.24-0.2192 0.57651-0.0325 0.82419 0.95929 1.2729 0.50337 0.22771 1.1141 0.60067 1.3571 0.82881 1.1268 1.0577 1.5463 1.1002 1.3659 0.13836zm-5.3331-0.81036c0.32961-0.20837-0.18067-1.0852-1.066-1.8317-0.6377-0.53771-0.74548-0.73194-1.2582-2.2674-0.85644-2.5648-1.0035-2.7363-0.92576-1.0793 0.0348 0.7425 0.16609 1.5862 0.29168 1.875 0.12559 0.28875 0.34339 0.82875 0.484 1.2 0.62362 1.6466 1.7211 2.5795 2.4743 2.1034zm36.29-7.92c0-0.31198-1.7527-2.9594-2.3023-3.4775-0.21877-0.20625-0.53878-0.66188-0.71112-1.0125-0.17235-0.35063-0.37484-0.64594-0.44998-0.65625-0.2035-0.0279-0.79988-0.0749-2.4241-0.19105-1.6116-0.11521-1.5779-0.13665-1.3086 0.83266 0.16658 0.59976 1.3803 2.5097 2.011 3.1646 0.34128 0.35437 0.51659 0.4125 1.244 0.4125 0.6503 0 0.92357 0.0722 1.1778 0.31099 0.71083 0.66779 2.7633 1.1257 2.7633 0.61651zm-7.35-2.7814c0-0.0296-0.23625-0.56521-0.525-1.1902-0.28875-0.62496-0.525-1.2726-0.525-1.4391 0-0.21397-0.20904-0.40165-0.7125-0.63968-0.39188-0.18527-0.77021-0.36517-0.84074-0.39976-0.42449-0.20822 1.1254 2.3463 2.0539 3.3851 0.26416 0.29556 0.54935 0.4428 0.54935 0.28362zm-2.1941-0.73362c-0.0615-0.10313-0.29935-0.42375-0.52859-0.7125s-0.65126-1.0644-0.93782-1.7236c-0.45788-1.0533-0.59029-1.2282-1.0928-1.443-1.266-0.54124-1.2335 0.77615 0.0545 2.2149 0.95564 1.0674 2.9316 2.3804 2.5046 1.6642zm-125.98-31.62c0.44127-0.18915 0.99598-0.29523 1.4749-0.28206 0.82063 0.0226 1.8566-0.13504 1.9572-0.29776 0.15917-0.25754 0.24137-3.767 0.08824-3.767-0.08931 0-0.21864-0.15188-0.2874-0.3375-0.10161-0.27431-0.24814-0.3415-0.78267-0.35886-0.36171-0.01174-1.3798-0.06098-2.2625-0.10941-1.7771-0.0975-1.7746-0.09846-2.3786 0.91429-0.45915 0.76996-1.2428 1.9407-1.7849 2.6665-0.24647 0.33-0.55712 0.74891-0.69034 0.9309-0.3921 0.53566-0.15231 0.64289 1.48 0.66184 1.2258 0.0142 2.2573 0.12543 2.4537 0.26451 0.013785 0.01 0.34333-0.11868 0.73233-0.28542zm168.9 71.22c-0.0363-0.10921-0.18303-0.63733-0.32618-1.1736-0.14314-0.53625-0.45078-1.4269-0.68362-1.9793-0.61155-1.4507-0.47126-2.3083 0.2982-1.8229 0.79608 0.50215 1.7069 4.9848 1.0405 5.1207-0.14463 0.0295-0.29262-0.0357-0.32889-0.14496zm1.1276-4.7991c-0.28287-0.0808-0.82287-0.4116-1.2-0.73503-0.62447-0.53555-0.69009-0.56055-0.73479-0.28001-0.0713 0.44727-0.47747 0.30636-0.89514-0.3105-0.28245-0.41715-0.33601-0.64275-0.26278-1.1066 0.0637-0.40332 0.0256-0.65727-0.12369-0.825-0.43155-0.48483-0.38738-2.3423 0.0557-2.3423 0.24906 0 0.42539 0.11682 0.525 0.3478 0.11912 0.27621 0.23312 0.33137 0.55379 0.26799 0.4522-0.0894 0.77997 0.22932 1.505 1.4634 0.70946 1.2075 0.97712 0.80045 0.36249-0.55131-0.74628-1.6412-1.0393-2.9226-0.85297-3.7303 0.0821-0.35616 0.15099-0.89832 0.15301-1.2048 0.003-0.40194 0.12911-0.70016 0.45366-1.0698 0.29105-0.33149 0.45-0.67524 0.45-0.97317 0-0.25335 0.0755-0.62636 0.16779-0.82889 0.25811-0.56649-0.41908-1.838-1.2893-2.4209-0.36953-0.2475-0.67334-0.49538-0.67515-0.55082-0.004-0.12484-1.9331-2.6928-2.1778-2.8992-0.0978-0.0825-0.36174-0.47331-0.58649-0.86846-0.22473-0.39516-0.60669-0.94407-0.84879-1.2198-0.2421-0.27574-0.44019-0.57163-0.44019-0.65754 0-0.0859-0.15687-0.34699-0.34862-0.58019-0.19173-0.23321-0.66628-1.0119-1.0546-1.7305-0.38828-0.71856-0.76623-1.3437-0.83991-1.3893-0.0737-0.0455-0.2444-0.41528-0.37937-0.82165-0.23281-0.70093-0.76405-1.5199-1.4158-2.1826-0.94745-0.96339-2.1831-4.0918-2.3437-5.9335-0.23414-2.6859-1.2192-3.435-4.4656-3.3958l-2.4275 0.0293-1.125-0.58341c-1.6087-0.83425-3.4973-2.6408-3.6926-3.5322-0.0463-0.21139-0.41829-1.049-0.8266-1.8613-0.98225-1.9541-1.1282-3.2428-0.53775-4.749 0.28618-0.73007 0.38347-1.2592 0.38832-2.1123 0.004-0.62599 0.0685-1.436 0.14421-1.8 0.0757-0.36401 0.1447-1.3706 0.15325-2.2368 0.009-0.86625 0.0568-2.0475 0.1073-2.625 0.12933-1.48-0.18203-4.9086-0.54665-6.0192-0.16596-0.50558-0.36307-1.2481-0.438-1.65-0.25414-1.3632-0.39849-1.93-0.57519-2.2584-0.41718-0.77545-0.007-2.5224 0.59189-2.5224 0.43297 0 1.9224 2.4554 2.1447 3.5357 0.62735 3.0482 4.7733 4.8104 6.7375 2.8637 0.96137-0.95282 1.2996-1.123 1.2996-0.65397 0 0.30129-0.8505 1.5296-1.0591 1.5296-0.0733 0-0.23864 0.20394-0.36755 0.45321-0.25197 0.48726-0.2131 0.47923-2.2294 0.4608-0.65766-0.006-0.99078 0.0701-1.3139 0.30015-0.55841 0.39762-2.2828-0.15271-2.7251-0.86971-0.48051-0.77893-0.52455 1.6851-0.0605 3.3832 0.41502 1.5187 0.2523 5.5964-0.30616 7.6723-0.25524 0.94875-0.5456 2.1457-0.64524 2.6599-0.0996 0.5142-0.27387 1.0118-0.38717 1.1059-0.70261 0.58312 1.3928 5.8342 2.3281 5.8342 0.145 0 0.42091 0.16741 0.61314 0.37203 0.86325 0.91889 1.3498 1.043 4.209 1.0734 2.6437 0.0281 3.7622 0.21094 4.5498 0.74364 0.73928 0.50004 2.0332 3.7584 2.3321 5.8731 0.28293 2.0012 1.0439 3.9025 2.1164 5.2879 0.53818 0.69521 1.3456 2.2258 1.3456 2.5509 0 0.14226 0.13638 0.43203 0.30306 0.64393s0.38634 0.57538 0.48816 0.80773c0.28726 0.65561 1.0192 1.8469 1.6418 2.6725 0.31114 0.4125 0.73573 1.1083 0.94356 1.5463 0.20781 0.43797 0.66835 1.113 1.0234 1.5 0.35507 0.38702 0.82949 1.0244 1.0542 1.4164 0.26724 0.4661 0.61122 0.81609 0.99398 1.0114 0.99864 0.50946 1.7403 2.3399 1.2767 3.1509-0.1179 0.20625-0.21677 0.54495-0.21969 0.75268-0.003 0.20772-0.18324 0.63953-0.40071 0.95957-0.69168 1.0179-0.35475 4.4976 0.52021 5.3726 0.0964 0.0964 0.1761 0.38106 0.17724 0.63269 0.003 0.77154 0.16739 1.1348 0.61701 1.3674 0.55335 0.28616 0.55155 0.70884-0.005 1.1049-0.51826 0.36905-0.8494 0.39579-0.97119 0.0784-0.0489-0.12747-0.343-0.33624-0.65353-0.46395-0.31055-0.1277-0.75024-0.40728-0.97712-0.62129-0.22687-0.214-0.4125-0.31416-0.4125-0.22255 0 0.27922 0.75473 1.0836 1.6085 1.7143 1.0416 0.76947 0.99638 1.1624-0.0978 0.84977zm-15.248-37.635c0.24291-0.23025-0.50541-0.38544-1.3891-0.28807-0.46686 0.0514-1.1695 0.089-1.5614 0.0834-0.39188-0.006-0.7125 0.0275-0.7125 0.0735 0.00001 0.32466 3.3329 0.44404 3.6629 0.13119zm-59.46 29.42c0-0.18195 1.0843-1.0256 4.3072-3.3511 2.0846-1.5042 2.8811-2.1115 3.9772-3.0327 0.49084-0.4125 1.1633-0.93143 1.4944-1.1532 0.33106-0.22175 0.71313-0.50181 0.84905-0.62238 0.52028-0.46149 2.6631-1.4488 3.145-1.4491 0.69434-0.00045 0.65129 0.64826-0.0479 0.72238-0.7825 0.0829-2.5474 1.021-3.77 2.0038-0.64898 0.52168-1.3802 1.0778-1.625 1.2358-0.45205 0.29181-1.6916 1.2392-2.6115 1.996-0.27861 0.2292-0.92669 0.68673-1.4402 1.0167-0.51348 0.33-1.2136 0.8025-1.5557 1.05-2.419 1.7498-2.7226 1.9264-2.7226 1.5838zm58.95-22.98c-0.28875-0.17468-0.57899-0.41068-0.64496-0.52444-0.066-0.11377-0.27979-0.20685-0.47515-0.20685-0.2394 0-0.73163-0.36677-1.5098-1.125-0.63502-0.61875-1.2398-1.125-1.344-1.125-0.22461 0-0.60481-0.42132-0.48675-0.53938 0.0452-0.0452 0.73857-0.11269 1.5409-0.15005 1.1365-0.0529 1.5507-0.13339 1.8749-0.36425 0.58737-0.41825 1.7948-0.41932 1.7948-0.002 0 0.16209-0.13163 0.36516-0.29252 0.45127-0.28653 0.15334-0.28503 0.17261 0.0736 0.94277 0.20131 0.43243 0.3667 0.86133 0.3675 0.95311 0.002 0.0918 0.20397 0.42168 0.45147 0.73312 0.56892 0.71589 0.56382 0.79275-0.0702 1.0577-0.66091 0.27615-0.65497 0.27662-1.2798-0.10137zm-13.95-10.996c0-0.1182 0.13097-0.25647 0.29105-0.30727 0.28978-0.092 0.93879-1.3053 1.4056-2.6278 0.24843-0.70379 0.66861-2.7643 1.0859-5.325 0.13443-0.825 0.30093-1.8375 0.36998-2.25 0.20643-1.2332 0.16381-3.2528-0.0776-3.675-0.34751-0.6079-0.28889-1.05 0.13923-1.05 0.51012 0 1.102 1.4935 0.85582 2.1595-0.0883 0.23896-0.12396 0.49374-0.0792 0.56618 0.0799 0.12931-0.1795 1.724-0.61807 3.7993-0.12204 0.5775-0.2895 1.4888-0.37214 2.025-0.24445 1.5864-0.53796 2.9026-0.72534 3.2527-0.0964 0.18015-0.1753 0.47344-0.1753 0.65176s-0.0927 0.50338-0.20595 0.72236c-0.11327 0.21898-0.31193 0.6455-0.44145 0.94783-0.12954 0.30232-0.36708 0.59143-0.52787 0.64247-0.16078 0.051-0.32706 0.22555-0.36949 0.38782-0.0883 0.33762-0.55524 0.40502-0.55524 0.0801zm0-3.1009c0-0.0912 0.20401-0.46803 0.45336-0.83749 0.70569-1.0456 1.1978-2.3638 1.4388-3.8541 0.21883-1.353 0.41967-1.8496 0.57849-1.4303 0.0735 0.19393-0.18641 1.6802-0.52235 2.9876-0.0742 0.28875-0.18183 0.72259-0.23919 0.9641-0.0574 0.2415-0.246 0.65567-0.41921 0.92038-0.17321 0.2647-0.42992 0.69148-0.57045 0.9484-0.24503 0.44792-0.71948 0.64666-0.71948 0.30137zm0.68432-4.8218c0.067-0.26813 0.12955-2.2718 0.13899-4.4526 0.0119-2.751 0.068-3.982 0.18319-4.0204 0.30472-0.10158 0.34411 0.21484 0.43696 3.5096 0.091 3.2287 0.0377 3.8705-0.41868 5.0384-0.2298 0.58812-0.49175 0.53041-0.34046-0.075zm-1.827-0.92934c-0.1532-0.39924 0.0164-3.0669 0.20712-3.2576 0.28368-0.28369 0.35078 0.11917 0.30356 1.8224-0.0414 1.4923-0.25663 2.0972-0.51068 1.4352zm3.9448-6.8332c-0.3039-0.72832-0.49128-3-0.24744-3 0.17621 0 0.19923 0.0676 0.4091 1.2 0.15197 0.82015 0.024 2.245-0.16166 1.8zm-96.99-3.15c0-0.30032 2.9865-1.082 4.8-1.2563 1.4562-0.13997 4.3475-0.29683 4.9849-0.27043 1.8505 0.0767 5.8052-0.78559 7.0078-1.5279 1.4123-0.8717 1.7335-0.37831 0.40196 0.61745-0.70278 0.52557-1.0132 0.64255-2.4375 0.9184-2.3143 0.44823-2.5199 0.47109-5.6071 0.62334-1.5262 0.0753-3.315 0.16459-3.975 0.19851-0.66 0.0339-1.5375 0.14515-1.95 0.24719s-1.1257 0.27957-1.5848 0.3945c-0.98698 0.24705-1.6402 0.26905-1.6402 0.0553zm104.28-2.7928c-0.96797-0.20185-1.8866-0.73079-2.6066-1.501-0.62994-0.67373-1.6253-2.0513-1.6253-2.2494 0-0.71655-1.4781-1.6051-1.9538-1.1746-0.40005 0.36203-0.78827 0.02378-1.1204-0.97615-0.13014-0.39182-0.42777-0.88272-0.66141-1.0909-0.23506-0.20945-0.4676-0.60674-0.52066-0.88957-0.12225-0.65166-1.7649-2.4767-2.9179-3.242-1.2721-0.84426-2.1779-1.3589-2.4113-1.3699-0.11579-0.0055-0.57163-0.1808-1.013-0.38959-0.91252-0.43169-1.7374-0.63624-3.3515-0.83104-2.1691-0.26179-2.938-0.32026-4.5-0.34221-0.97136-0.01365-1.6325-0.08812-1.725-0.19429-0.0825-0.09469-0.52125-0.2082-0.975-0.25224s-1.5-0.15514-2.325-0.24689-2.9706-0.17026-4.7679-0.17448c-2.5334-0.0059-3.3654-0.05627-3.7014-0.2239-0.2384-0.11893-0.65782-0.21198-0.93206-0.20677-1.3982 0.02654-4.0776-0.23482-6.1986-0.60464-0.495-0.08631-1.2712-0.2172-1.725-0.29088-1.4919-0.24224-2.0618-0.40282-2.5717-0.72463-0.27681-0.1747-0.87454-0.51897-1.3283-0.76505-0.51764-0.28073-0.98995-0.6879-1.2678-1.0929-1.2697-1.851-1.5603-2.0195-2.4822-1.4385-2.4216 1.5259-5.1852 1.8791-6.8807 0.87941-0.90587-0.53412-1.1957-0.51196-1.8943 0.14485-0.39123 0.36785-0.60164 0.43346-1.6111 0.50244-0.63862 0.04363-1.2866 0.14651-1.44 0.22861-0.6942 0.37152-2.3191-0.02453-3.2047-0.78113-0.45458-0.38836-0.95761-0.70611-1.1178-0.70611-0.36273 0-0.65133-0.27655-0.65133-0.62413 0-0.22064 0.12141-0.25892 0.73744-0.2325 0.90598 0.03886 1.0076-0.05172 0.75164-0.66974-0.1257-0.30348-0.18821-0.95418-0.16644-1.7327 0.04104-1.4678-0.10587-1.841-0.72487-1.841-0.86941 0-1.6259-0.44249-2.2525-1.3176-1.1406-1.5928-0.60667-2.0934 0.6967-0.65315 0.74085 0.81866 1.6013 1.3775 1.8059 1.173 0.29725-0.29725-0.13028-1.1394-0.66523-1.3104-0.93502-0.29883-1.484-0.71491-1.9959-1.5126-0.44246-0.68951-0.63179-1.2016-1.0459-2.8292-0.46437-1.8251 0.51812-4.7241 1.8717-5.5227 0.56911-0.33578 0.78633-0.12047 0.29219 0.28963-2.0673 1.7157-1.6884 6.9183 0.61798 8.4855 0.63199 0.42945 0.75096 0.37899 0.70528-0.29919-0.04912-0.72942 0.48788-2.6474 1.0429-3.7248 0.27014-0.52441 0.56491-1.156 0.65504-1.4035s0.4711-0.9225 0.84659-1.5 0.77007-1.2188 0.87684-1.425c0.10676-0.20625 0.50939-0.8475 0.89472-1.425s1.0256-1.6466 1.4227-2.3758c0.39717-0.72917 0.9732-1.6159 1.2801-1.9704 0.30686-0.35455 0.91064-1.3313 1.3417-2.1705 0.75066-1.4614 1.1864-1.866 1.0953-1.0172-0.07036 0.65567-1.4099 3.3036-1.9127 3.7808-0.424 0.396-1.571 2.498-1.571 2.872 0 0.07903-0.19829 0.33367-0.44064 0.56585s-0.71662 0.98957-1.0539 1.6831c-0.40867 0.84021-0.73614 1.3169-0.98146 1.4287-0.432 0.197-1.724 2.74-1.724 3.394 0 0.14384-0.09114 0.39468-0.20253 0.55741-0.27546 0.40242-0.42052 1.3016-0.39858 2.4709 0.02354 1.2549 0.20384 1.4203 0.5178 0.47502 0.13736-0.41356 0.3473-0.83289 0.46653-0.93184s0.21971-0.28977 0.22328-0.42404c0.0095-0.35761 1.5967-2.8798 1.9494-3.0978 0.08175-0.05053 0.24017-0.30662 0.35204-0.56911 0.25629-0.60132 1.4378-1.851 1.9252-2.0363 0.2959-0.1125 0.35708-0.22408 0.31008-0.56552-0.04835-0.35122 0.0343-0.48758 0.47409-0.78221 0.293-0.197 0.533-0.448 0.533-0.558 0-0.11021 0.15188-0.27971 0.3375-0.37666 0.55797-0.29142 1.6588-1.531 2.1284-2.3966 1.1057-2.0383 1.8947-4.0977 1.9756-5.1568 0.0439-0.57424 0.11549-1.1018 0.1591-1.1724 0.11891-0.1924 0.95962-3.6942 1.0524-4.3836 0.0444-0.33 0.13169-0.6675 0.19397-0.75 0.67424-0.89327 1.0645-4.205 0.66374-5.6331-0.2118-0.75485-0.22352-1.0295-0.0749-1.7558 0.17959-0.87783 0.25568-2.5695 0.13993-3.111-0.31898-1.4924-0.52722-2.1609-0.78255-2.5125-0.39136-0.53885-0.49534-0.52058-0.42698 0.075 0.0308 0.26812-0.0473 1.095-0.17342 1.8375-0.12615 0.7425-0.30697 1.8225-0.40183 2.4-0.0949 0.5775-0.26121 1.2525-0.36967 1.5s-0.44584 1.0238-0.74974 1.725c-1.2896 2.9758-2.9862 6-3.3661 6-0.07102 0-0.48434 0.52126-0.9185 1.1583-0.43416 0.63709-1.108 1.4769-1.4974 1.8664-0.59514 0.59514-0.72145 0.82296-0.79236 1.4292-0.16122 1.3782-0.15107 3.2696 0.01924 3.5857 0.32186 0.59724-0.43923 0.91543-0.91971 0.38451-0.20218-0.22341-0.24013-0.52454-0.19924-1.581 0.05827-1.5056-0.22144-1.7502-0.62115-0.54304-0.12293 0.37125-0.36898 0.91125-0.54678 1.2-0.36293 0.5894-0.62859 1.703-0.74988 3.1434-0.107 1.266-0.68 1.77-0.68 0.598 0-0.24263-0.06917-0.44115-0.15371-0.44115-0.28053 0-0.47021 0.8121-0.42042 1.8 0.0446 0.88492 0.02199 0.975-0.24471 0.975-1.0344 0 0.0472-5.5892 1.2134-6.27 0.113-0.066 0.205-0.206 0.205-0.311s0.21376-0.59102 0.47502-1.08c0.44064-0.82478 0.76182-1.2181 2.2625-2.7704 0.30938-0.32003 0.5625-0.6566 0.5625-0.74794 0-0.09133 0.34195-0.52032 0.75988-0.95329 0.41794-0.43298 0.83981-0.9264 0.9375-1.0965 0.09769-0.17011 0.5577-0.75968 1.0222-1.3102 0.46454-0.55048 1.116-1.5544 1.4478-2.2309 1.0797-2.2019 1.6477-3.4686 1.8295-4.08 0.0981-0.33 0.2428-0.8025 0.32153-1.05 0.87242-2.7429 0.93181-8.0178 0.0915-8.1304l-0.4077-0.0546 0.0156 1.8425c0.0213 2.5257-0.95165 5.4902-2.4452 7.4502-0.152 0.196-0.275 0.494-0.275 0.661 0 0.37574-1.0015 1.7308-2.0222 2.7361-1.0491 1.0333-1.551 2.2421-1.2764 3.0742 0.16126 0.48863 0.15887 0.62786-0.01439 0.83662-0.1813 0.21845-0.165 0.27888 0.1276 0.47316 0.44426 0.29497 0.4246 0.60966-0.04933 0.78984-0.5961 0.22664-1.1135 0.17733-1.2194-0.11621-0.05209-0.14438-0.22608-0.45201-0.38666-0.68364-1.1728-1.6917-0.97518-4.3982 0.42977-5.8855 0.36356-0.38488 0.66101-0.75226 0.66101-0.8164 0-0.24449 1.2488-1.3519 1.5245-1.3519 0.15904 0 0.44119-0.15188 0.62698-0.3375 0.1858-0.18562 0.52023-0.42043 0.74318-0.52178 0.22295-0.10136 0.40537-0.28698 0.40537-0.4125s0.08948-0.22822 0.19885-0.22822c0.27933 0 0.85115-0.64204 0.85115-0.95567 0-0.2401-0.02709-0.24236-0.33338-0.02783-0.86263 0.60421-1.7317-0.40139-0.9889-1.1442 0.4062-0.4062 0.37368-0.78346-0.11789-1.3677-0.65936-0.7836-0.40353-2.2111 0.58034-3.2383 1.0689-1.1159 1.3615-2.1936 0.8749-3.2221-0.25636-0.54189-0.57889-0.56536-0.37233-0.0271 0.11546 0.30089-0.32876 1.5159-0.75354 2.0611-0.1728 0.22179-0.50417 0.70973-0.73638 1.0843-0.32517 0.52456-0.55383 0.71653-0.99503 0.83533-0.31506 0.08484-0.65647 0.25502-0.75868 0.37817-0.2442 0.29425-0.74911 0.28784-0.74911-0.0095 0-0.13058 0.28234-0.35833 0.64079-0.51689 1.6173-0.7154 2.8877-3.416 2.3708-5.0398-0.07614-0.23918-0.17767-0.67113-0.22563-0.95988-0.15422-0.92852-1.78-2.706-2.143-2.3429-0.04638 0.04638 0.0022 0.39335 0.10793 0.77103 0.25628 0.91535 0.000005 1.6969-0.82883 2.5276-0.33988 0.34064-0.74517 0.81417-0.90066 1.0523-0.15548 0.23813-0.50452 0.52564-0.77562 0.63892-0.32439 0.13554-0.56802 0.38568-0.71257 0.73164-0.24118 0.57722-0.60923 0.80544-0.8732 0.54146-0.17512-0.17512 0.03687-0.67714 0.86356-2.045 0.29475-0.48769 0.46659-0.61404 0.91803-0.675 1.7379-0.23468 1.6562-3.0846-0.13727-4.7853-1.078-1.0223-3.4801-2.4057-3.7274-2.1467-0.28696 0.30055-0.3122 1.5321-0.03143 1.5333 0.25412 0.0012 2.2787 1.8612 2.6109 2.3987 0.22182 0.35891 0.1657 1.2936-0.11272 1.8774-0.2072 0.43452-0.22159 0.59333-0.075 0.82805 0.25085 0.40168 0.22683 0.84627-0.07319 1.3542-0.55911 0.94649-1.0122 0.55323-0.5059-0.43913 0.40325-0.79044 0.39166-0.92052-0.08203-0.92052-0.34219 0-0.37728-0.04325-0.27382-0.3375 0.50821-1.4453-1.9111-4.6573-3.1999-4.2482-1.0063 0.3194-1.4279 3.0857-0.47025 3.0857 0.24292 0 1.4587 0.58376 1.5612 0.7496 0.05112 0.08272 0.15647 0.1504 0.2341 0.1504 0.18988 0 0.17995-0.5012-0.01377-0.69492-0.29088-0.29088 0.0093-0.65508 0.53994-0.65508 0.6013 0 1.004 0.86661 0.68209 1.468-0.09191 0.17174-0.16712 0.47195-0.16712 0.66712 0 0.84524-0.82499 0.96053-1.4516 0.20286-0.233-0.282-0.728-0.629-1.099-0.772-0.37125-0.14325-0.84744-0.4191-1.0582-0.613-0.54504-0.50142-0.68186-0.45206-1.2623 0.45535-0.66338 1.037-1.5046 1.752-2.4698 2.0991-0.90519 0.3255-1.4267 0.99305-0.77574 0.99305 0.42343 0 0.503 0.41304 0.14796 0.76808-0.23334 0.23334-0.41088 0.28483-0.7091 0.20565-0.2188-0.0581-0.63407-0.09882-0.92282-0.09049-1.1955 0.03448-1.2482-0.02146-1.1527-1.224 0.10121-1.2752 0.17355-1.3489 1.6557-1.686 2.3189-0.52742 4.8966-2.8382 4.8971-4.39 0.000048-0.17867-3.4606-0.08266-3.6444 0.10111-0.09112 0.09112-0.28851 0.16567-0.43865 0.16567-0.36309 0-1.4154 0.67329-1.6045 1.0266-0.28442 0.53144-0.8704 0.79917-1.4181 0.64793-0.29836-0.08238-0.59527-0.08296-0.74092-0.0015-0.31353 0.17546-0.73716-0.08562-1.0796-0.66536-0.40755-0.68993 0.08297-0.85822 0.89701-0.30776 0.48155 0.32563 1.3293 0.25062 1.7067-0.151 0.66218-0.70486 2.8182-1.4443 4.2507-1.4579 1.6639-0.01571 2.3317-0.19207 2.9424-0.77698 0.30493-0.29207 0.76562-0.63722 1.0237-0.76701 0.56117-0.28216 0.71916-0.60766 0.41676-0.85862-0.19182-0.1592-0.1775-0.22987 0.10824-0.53403 0.2974-0.31656 0.31242-0.40695 0.155-0.93239-0.096-0.32-0.174-0.727-0.174-0.904 0-1.1936-1.1146-2.1768-2.775-2.4479-0.49665-0.08111-0.33778-0.34172 0.23772-0.38996 1.1322-0.09491 2.6146 0.75958 3.3727 1.9442 0.32586 0.50916 0.39354 0.54346 0.93041 0.47145 0.5078-0.06811 0.64095-0.01574 1.083 0.42589 0.43669 0.4363 0.60565 0.50438 1.2651 0.50972 1.756 0.01425 3.2915 1.1345 3.4656 2.5284 0.10109 0.80912 0.10436 0.81337 0.7517 0.97637 0.99958 0.2517 1.4621 0.0229 1.334-0.65988-0.11863-0.63234 0.19018-0.7223 0.67886-0.19777 0.56302 0.60433 0.3813 1.1802-0.48691 1.5429-0.688 0.28747-0.6936 0.24911 0.11053 0.7574 0.36727 0.23215 0.87772 0.71444 1.1343 1.0718 0.2566 0.35731 0.55133 0.64966 0.65496 0.64966 0.37475 0 1.4835 0.98862 1.7665 1.575 0.50301 1.0426 0.75773 1.4911 1.0221 1.8 0.14126 0.165 0.37267 0.705 0.51425 1.2 0.33552 1.173 0.44339 1.3521 0.8071 1.3397 0.19534-0.0066 0.27504 0.06178 0.22473 0.1929-0.0832 0.21683 0.62586 2.3095 0.9581 2.8276 0.1094 0.17062 0.30137 1.3319 0.42659 2.5805 0.224 2.2337 0.62575 3.4979 1.413 4.4466 0.0755 0.09092 0.24556 0.63255 0.378 1.2036 0.13244 0.57106 0.31892 1.1324 0.41441 1.2475 0.25304 0.30489 0.25075 6.531-0.003 7.9866-0.24199 1.3885-0.60434 2.9234-0.8116 3.4379-1.5304 3.799-1.9489 5.5347-1.8479 7.6621 0.14502 3.0526 0.16282 3.1937 0.49722 3.942 0.17624 0.39436 0.2853 0.80858 0.24235 0.9205-0.1411 0.3677 0.82138 0.89908 1.6412 0.90612 0.99145 0.0085 1.2762 0.38888 0.66223 0.88459-0.22687 0.18318-0.4125 0.41513-0.4125 0.51546 0 0.10032-0.135 0.43429-0.3 0.74214s-0.3 0.68247-0.3 0.83247c0 0.41138-0.75303 1.2909-1.3875 1.6205-0.30937 0.16074-0.5625 0.32844-0.5625 0.37265 0 0.09442 1.3603 0.71221 1.406 0.63855 0.0171-0.02752 0.0971-0.25253 0.1778-0.50003 0.30226-0.92694 1.8097-0.53975 1.8946 0.48664 0.068 0.82235 0.6466 0.83007 0.6466 0.0086 0-1.0004 0.59515-1.1662 0.70096-0.19526 0.0566 0.51904 1.1036 0.621 1.6159 0.15736 0.34422-0.31151 0.60813-0.2935 0.60813 0.0415 0 0.39445-0.58914 0.87381-1.2096 0.98418-2.1373 0.38018-1.0529 3.4723 1.5096 4.3046 0.28875 0.09379 0.795 0.29336 1.125 0.4435 1.7594 0.80044 2.4022 1.043 3.1151 1.1753 0.43172 0.08014 1.1014 0.28165 1.4881 0.44781 1.2848 0.55197 4.6732 0.90772 9.4968 0.99705 3.2191 0.05962 9.9693 0.84613 12.9 1.5031 0.5775 0.12945 1.4888 0.30713 2.025 0.39483 0.53625 0.08771 1.5498 0.42189 2.2524 0.74263 0.70257 0.32074 1.3921 0.58317 1.5323 0.58317 0.14018 0 0.4766 0.18978 0.74759 0.42172 0.271 0.23195 0.76272 0.50019 1.0927 0.59608 0.42115 0.12238 0.7565 0.37505 1.125 0.8476 0.28875 0.37028 0.57059 0.67579 0.6263 0.67892 0.0557 0.0031 0.56083 0.58554 1.1225 1.2943l1.0212 1.2886 0.58077-0.09287c0.31942-0.05108 0.77284-0.19219 1.0076-0.31358 0.23475-0.12139 0.66243-0.22071 0.9504-0.22071 0.28798 0 0.56592-0.06847 0.61762-0.15214 0.0517-0.08368 0.34611-0.28074 0.6542-0.43791 0.63249-0.32268 2.1195-1.6102 2.1195-1.8352 0-0.25662 1.1601-2.1291 1.6396-2.6465 0.25321-0.27322 0.46039-0.52758 0.46039-0.56526s0.13497-0.57215 0.29993-1.1877c0.49231-1.8371 0.43759-3.6986-0.15212-5.1753-0.14826-0.37125-0.44295-1.2531-0.65487-1.9597s-0.59475-1.5739-0.85074-1.9272c-0.25597-0.35337-0.55569-0.94244-0.66601-1.3091-0.22412-0.74467-1.2005-1.849-2.4012-2.7156-0.77704-0.56091-4.575-4.3345-4.575-4.5457 0-0.06581-0.16104-0.31104-0.35787-0.54496-1.3724-1.631-1.1142-6.7312 0.4617-9.1201 0.98297-1.49 3.0991-3.46 4.3962-4.0926 0.20625-0.10059 0.47625-0.24692 0.6-0.32518s0.53768-0.25364 0.91983-0.38972c0.48267-0.17187 0.83814-0.43867 1.1641-0.8737 0.49739-0.66383 0.62375-0.76081 1.8696-1.4348 0.78894-0.42683 1.2934-0.56274 3.6965-0.99584 0.70125-0.12639 1.5788-0.28936 1.95-0.36217 1.5365-0.30133 3.8439 0.36409 5.14 1.4823 0.48713 0.42027 0.93846 0.76412 1.003 0.76412 0.16662 0 2.089 2.2419 2.3506 2.7412 0.666 1.2714 0.54996 3.4375-0.24889 4.6462-0.2318 0.35068-0.46926 0.8401-0.52773 1.0876-0.0585 0.2475-0.23433 0.59138-0.39084 0.76418-0.8684 0.95881 1.5698 2.134 3.5869 1.7289 0.70175-0.14093 0.87864-0.13169 1.0869 0.05679 0.1368 0.12381 0.49925 0.22511 0.80541 0.22511 0.54729 0 1.6327 0.44734 1.8197 0.75 0.0524 0.08486 0.36461 0.29164 0.69368 0.45953 0.69526 0.3547 1.1773 1.256 1.3187 2.4655 0.15136 1.2952 0.663 0.48298 0.87145-1.3834 0.0514-0.45976-0.0103-0.76815-0.2253-1.125-0.33651-0.55882-0.2907-0.86662 0.12898-0.86662 0.48179 0 0.89366 0.53174 0.7948 1.0261-0.051 0.25466 0.006 0.61215 0.13975 0.86982 0.23642 0.45719-0.0402 1.5951-0.68939 2.8356-0.63496 1.2134-3.2774 2.8932-3.6367 2.3119-0.13217-0.21384 0.20625-0.59343 0.52906-0.59343 0.44516 0 0.69467-0.42271 0.38371-0.65008-0.29685-0.21706-0.10412-0.46905 0.44129-0.57703 0.32661-0.06466 0.32603-0.05314 0.074-1.4729-0.24762-1.3947-0.43572-1.7164-1.5134-2.5883-1.0607-0.8582-0.8642-0.82207-3.526-0.64829l-1.3654 0.08914-1.0161-0.56378c-2.1163-1.1742-2.6529-2.0625-2.9687-4.9138-0.21183-1.9129-0.35568-2.3853-1.3272-4.3585-0.28253-0.57384-1.165-1.4165-1.4834-1.4165-0.17408 0-0.27478-0.0675-0.2238-0.15 0.36326-0.58777 2.325 0.3707 2.325 1.1359 0 0.09753 0.11285 0.26996 0.25075 0.38319 0.63584 0.52203 1.2888 2.398 1.499 4.3065 0.27828 2.5274 0.50049 2.9047 0.94197 1.5994 0.11161-0.33 0.35199-0.8025 0.53419-1.05 1.6008-2.1746 0.61738-4.55-3.1608-7.635-1.3096-1.0694-3.5718-1.4987-5.5401-1.0514-0.57747 0.13124-1.4212 0.30489-1.8749 0.3859-1.9619 0.35026-2.4658 0.59305-2.3325 1.124 0.0714 0.28444-0.00002 0.38257-0.40285 0.55357-0.26929 0.11431-0.85251 0.44862-1.296 0.74291-0.44351 0.29429-1.0779 0.58094-1.4097 0.637-0.87399 0.14766-1.6089 0.48798-1.6089 0.74506 0 0.2523 0.48276 0.29629 0.88562 0.08069 0.36856-0.19725 0.87172-0.03703 0.96147 0.30617 0.11266 0.43082 0.92744 0.3763 1.4934-0.09992 0.31044-0.26121 0.55997-0.35668 0.77166-0.29521 0.17207 0.04996 1.0433 0.28474 1.936 0.52173 1.7569 0.46639 1.8357 0.5024 1.6737 0.76457-0.12221 0.19774-1.5268 0.08615-2.1952-0.17439-1.0324-0.40245-1.1382-0.08308-0.20506 0.61935 1.234 0.92891 1.451 1.2057 2.3054 2.9401 0.47041 0.95491 0.91914 1.6482 1.2136 1.875 1.2028 0.92646 1.2596 0.98757 1.1595 1.2482-0.42414 1.1053-2.791-0.80994-3.6192-2.9285-0.34344-0.8786-0.62852-1.3051-1.3685-2.0473-1.0244-1.0274-1.8096-1.3544-0.97806-0.40728 0.25605 0.29162 0.46554 0.60183 0.46554 0.68934 0 0.08752 0.1267 0.3383 0.28156 0.55728s0.49635 0.93816 0.75888 1.5982c0.68963 1.7338 0.91787 2.1602 1.5471 2.8904 0.30937 0.35905 0.5625 0.71622 0.5625 0.7937s0.12778 0.14088 0.28395 0.14088c0.15618 0 0.3255 0.10825 0.37626 0.24056 0.0547 0.14263 0.18726 0.20413 0.32556 0.15106 0.12828-0.04923 0.42963 0.01206 0.66966 0.13618 1.0376 0.53655 2.6168 0.68644 3.7018 0.35134 1.1057-0.34153 2.6207-0.29258 3.1408 0.10148 0.46341 0.3511 1.3195 0.26937 1.8495-0.17657 0.32937-0.27714 0.51793-0.34858 0.62844-0.23807 0.21355 0.21355 0.0239 0.48402-0.33942 0.48402-0.16265 0-0.50316 0.23625-0.75668 0.525-0.47785 0.54424-1.4716 0.7125-2.2983 0.38915-0.16139-0.06312-0.47862-0.04485-0.70499 0.04059-0.32934 0.12431-0.46789 0.10439-0.6934-0.09969-0.3471-0.31412-0.54128-0.32157-0.78321-0.03005-0.51914 0.62552-4.0679 0.01019-4.575-0.79327-0.24842-0.39361-0.36974-0.46121-0.70556-0.39315-1.2519 0.25375-3.1178-1.6167-3.8201-3.8295-1.5885-5.0051-5.2386-6.3497-6.1232-2.2557-0.062 0.28692-0.23686 0.76694-0.38856 1.0667-1.5613 3.0851 0.2781 7.4671 2.5538 6.0837 1.4444-0.878 4.5423-0.05284 5.4086 1.4406 0.20625 0.35556 0.52938 0.84081 0.71806 1.0784 0.18869 0.23754 0.30707 0.52574 0.26304 0.64045-0.044 0.11471-0.007 0.34428 0.0814 0.51017 0.12258 0.22904 0.10922 0.36176-0.0555 0.55163-0.35208 0.40578-0.44627 2.1998-0.14975 2.8525l0.24875 0.54752 0.0455-0.45c0.16605-1.6422 0.41056-2.5097 0.75112-2.6649 0.4745-0.2162 0.5894-0.04793 0.37401 0.54772-0.29946 0.82816-0.18369 2.5941 0.23223 3.5422l0.36194 0.825 0.2896-0.35412c0.15929-0.19477 0.28961-0.45062 0.28961-0.56858 0-0.11795 0.14617-0.41217 0.32484-0.65382 0.3873-0.52386 0.18813-2.2373-0.33779-2.9059-0.37191-0.4728-0.3621-0.54261 0.0762-0.54261 0.86001 0 1.639 2.4317 1.1363 3.5471-0.89474 1.9854-0.9695 3.4568-0.1668 3.2827 0.32011-0.06944 0.469 0.01168 0.81024 0.44148 0.22992 0.2896 0.77935 0.75768 1.221 1.0402 1.1332 0.72488 2.5986 2.1988 2.711 2.7266 0.0512 0.24029 0.16059 0.5607 0.24314 0.71201 0.0825 0.15131 0.10816 0.46597 0.0569 0.69924-0.0512 0.23327-0.0191 0.83276 0.0715 1.3322 0.3941 2.1733-0.40593 3.9452-2.4066 5.3305l-0.63123 0.43704 0.47196 0.38796c0.75879 0.62373 0.36156 1.8679-0.69647 2.1815-0.58053 0.17205-0.6181 0.43688-0.10927 0.77027 1.1806 0.77357-1.1908 5.1612-2.7896 5.1612-0.0993 0-0.531 0.35437-0.95926 0.7875-1.274 1.2884-2.1942 2.0623-2.5328 2.1301-0.84723 0.16965-1.6006 0.1653-2.4614-0.0142zm3.5861-1.3415c1.1811-1.1444 1.126-1.5248-0.18661-1.2898-1.4188 0.25392-4.2922-0.14364-5.289-0.73176-1.0958-0.6465-0.77409 0.12026 0.62346 1.4862 1.4821 1.4486 3.6615 1.6891 4.8522 0.53538zm1.18-2.155c0.37125-0.1041 0.84375-0.30109 1.05-0.43775s0.5077-0.31764 0.66988-0.40217c0.77609-0.40451 1.9977-2.7749 1.4301-2.7749-0.0825 0-0.15-0.10748-0.15-0.23884s-0.135-0.41047-0.3-0.62023c-0.60111-0.76419-0.36264-1.4907 0.53346-1.625 0.75013-0.11249 1.1574-0.45322 0.80689-0.67503-0.52327-0.33112-1.4904 0.03057-1.4904 0.55738 0 0.11096-0.0593 0.20175-0.13182 0.20175-0.0725 0-0.50075 0.22215-0.95163 0.49366-1.1708 0.70501-3.3712 0.73866-3.9545 0.06048-0.64043-0.74454-0.35617-1.1828 0.34183-0.52704l0.34819 0.3271 0.41995-0.40235c0.38121-0.36522 0.44688-0.382 0.7115-0.18187 0.43111 0.32607 0.75097 0.27741 1.036-0.1576 0.24711-0.37712 0.26214-0.38024 0.55514-0.1151 0.29391 0.26598 0.31137 0.26 0.72672-0.24891 0.54346-0.66588 0.52117-0.67651-0.61542-0.29362-1.1724 0.39494-2.1609 0.46448-2.1609 0.15202 0-0.12003 0.16875-0.25807 0.375-0.30676 0.4659-0.10998 0.42051-0.34124-0.094-0.47884-0.51-0.139-0.95-0.552-0.95-0.9 0-0.42515 0.39275-0.48886 0.84083-0.1364 0.46516 0.3659 0.78481 0.3909 1.4515 0.11354 0.54591-0.22712 0.87769-0.17587 0.76488 0.11814-0.0979 0.255 1.1787 0.13814 1.7726-0.16226 0.76159-0.38526 1.6202-1.8951 1.6202-2.8489 0-0.44314 0.37709-0.47266 0.60471-0.04734 0.19401 0.3625 0.0748 1.0368-0.3219 1.8205-0.38133 0.7534-0.0891 0.90334 0.4869 0.24984 1.2975-1.472 1.3222-5.9627 0.0413-7.496-0.74315-0.88949-2.276-1.7927-2.7082-1.5958-0.2597 0.11832-0.42881 0.07887-0.80247-0.18719-0.66269-0.47187-0.73598-0.31377-0.78356 1.6903-0.0305 1.2849-0.0923 1.7591-0.22926 1.7593-0.18805 0.00015-0.25821 0.27452-0.20829 0.81448 0.0147 0.15912-0.0299 0.32787-0.0991 0.375s-0.27962 0.40746-0.4676 0.80074c-0.3538 0.74023-0.77994 1.0929-1.1492 0.95122-0.30024-0.11521-0.2667-0.30422 0.14053-0.79225 0.54648-0.6549 1.5711-4.8513 1.1837-4.8481-0.17388 0.0015-0.6375 0.88774-0.6375 1.2187 0 0.6437-0.6891 1.5485-1.1828 1.5531-0.21075 0.002-0.23537 0.20668-0.18972 1.5773 0.0569 1.7087-0.14916 2.8122-0.79995 4.2837-0.43448 0.98243-4.3148 4.9512-5.3562 5.4783-0.3555 0.17993-0.82552 0.45334-1.0445 0.60756-0.22926 0.16147-0.65419 0.28041-1.0018 0.28041-0.34877 0-0.70317 0.09953-0.83936 0.23571-0.38545 0.38546-0.28011 0.53621 0.29883 0.4276 0.37127-0.06965 0.7164-0.01827 1.13 0.16823 0.45372 0.2046 0.63711 0.22685 0.77047 0.09348 0.24753-0.24753 0.70826-0.21718 0.81213 0.05351 0.56409 1.47 5.2783 2.7162 7.7029 2.0363zm-49.95-13.787c0-0.06722-0.24344-0.25284-0.54098-0.4125-0.29753-0.15965-0.85835-0.45903-1.2462-0.66528-0.38791-0.20625-1.0173-0.59438-1.3986-0.8625-0.96149-0.67611-1.1338-0.60896-0.48119 0.1875 0.30421 0.37125 0.60862 0.675 0.67646 0.675 0.0679 0 0.37768 0.15188 0.68852 0.3375 1.0817 0.64598 2.302 1.0384 2.302 0.74028zm-17.925-2.114c2.0025-0.36416 1.9687-0.52632-0.51136-2.457-0.80836-0.62929-1.6787-1.9214-1.9342-2.8714-0.12754-0.47432-0.44259-0.68522-0.53804-0.36018-0.0323 0.10999-0.14437 0.5881-0.24904 1.0625-0.10467 0.47438-0.24703 0.8625-0.31635 0.8625-0.23142 0-0.12978-1.1523 0.22678-2.5711 0.33954-1.3511 0.38864-2.8289 0.09399-2.8289-0.13732 0-0.30398 0.65554-0.37646 1.4807-0.05927 0.67481-0.17483 1.7615-0.38856 3.6539-0.15214 1.347-0.14237 1.4977 0.12652 1.9534 0.55043 0.93291 0.52299 2.2724-0.03103 1.5147-0.11152-0.15251-0.2589-0.22072-0.32752-0.15158-0.13107 0.13207 0.56266 0.77697 1.0752 0.99956 0.33898 0.1472 1.1867 0.06994 3.15-0.28709zm66.786-0.69955c0.19003-0.489 0.38716-1.1467 0.43806-1.4617 0.0509-0.31491 0.18445-0.66446 0.29677-0.77678 0.26532-0.26532 0.26109-0.52565-0.009-0.52565-0.25383 0-0.83524-0.89264-0.84201-1.2927-0.003-0.15526-0.10378-0.4132-0.2248-0.5732s-0.39402-0.86875-0.60666-1.575c-0.89889-2.9854-0.86867-2.8353-0.68985-3.427 0.75879-2.5106-0.0512-3.9769-1.3345-2.4157-0.37299 0.45372-0.40003 0.46177-0.825 0.24542-0.26557-0.1352-1.0413-0.25156-1.961-0.29416-2.1336-0.09883-2.6908-0.4497-4.1531-2.6152-1.7182-2.5444-0.69315-7.6157 2.0424-10.105 0.26526-0.24136 0.39186-0.44082 0.28134-0.44324-0.82439-0.01804-2.7667 2.5542-3.2814 4.3456-1.1679 4.065-0.61551 6.2148 2.4247 9.4369 1.4366 1.5226 1.8913 1.9605 3.362 3.2381 1.4396 1.2506 1.4824 1.3119 3.2817 4.6941 0.58062 1.0914 0.68079 1.4227 0.81649 2.7 0.2364 2.2252 0.39434 2.3609 0.9834 0.84502zm-59.21 0.336c2.1365-0.50687 3.4893-1.3716 3.4196-2.1859l-0.0446-0.52064-0.975 0.06596c-3.6334 0.24579-4.4708 0.0092-5.7258-1.6175-0.35065-0.4545-0.66246-0.75161-0.69292-0.66024-0.07636 0.22906 0.24637 1.1962 0.58873 1.7643 0.35757 0.59335 0.23057 0.98687-0.29854 0.92503-0.33206-0.03882-0.45021-0.20214-0.79252-1.0956-0.24441-0.63794-0.50014-1.0699-0.65162-1.1006-0.17211-0.03494-0.2144-0.12786-0.13654-0.3 0.06203-0.13716 0.09899-0.45188 0.08212-0.69938-0.22351-3.2803 0.12842-4.7244 1.7455-7.1625 0.86704-1.3072 1.845-1.3957 1.0456-0.09458-1.624 2.6432-1.9056 4.6942-0.91065 6.6335 0.35224 0.6866 0.3877 0.36628 0.11633-1.0507-0.33257-1.7366-0.18384-2.3385 0.8367-3.3862 0.84306-0.86552 1.6441-0.84547 0.84745 0.02121-0.9061 0.98579-1.1316 2.2092-0.62883 3.4124 0.12375 0.29618 0.225 0.65204 0.225 0.79082 0 1.2142 1.9446 2.5435 3.8394 2.6247 1.0624 0.04549 1.5923-0.11435 1.0076-0.30391-1.0479-0.33972-1.8635-0.73289-2.1476-1.0353-0.18269-0.19446-0.5948-0.39794-0.91581-0.45218-0.67272-0.11366-0.75525-0.39523-0.26791-0.91398l0.31572-0.33608-0.31572-0.19718c-0.54691-0.34155-0.33124-1.925 0.26219-1.925 0.39052 0 0.70413-0.39374 0.50777-0.6375-0.0831-0.10312-0.19861-0.40985-0.25674-0.68161-0.0581-0.27176-0.22853-0.60926-0.37868-0.75-1.1175-1.0475-0.81165-4.743 0.62041-7.4968 0.48363-0.93001 0.87932-1.809 0.87932-1.9533 0-0.22629 0.80124-2.5897 1.4343-4.2308 0.11139-0.28875 0.20597-0.7275 0.21018-0.975 0.004-0.2475 0.11379-1.0912 0.24353-1.875 0.37967-2.2935-0.31818-5.8263-1.1551-5.8476-0.23874-0.0061-1.5302 4.3105-1.5476 5.1726-0.008 0.4125-0.0892 0.885-0.17972 1.05-0.0905 0.165-0.2039 0.7725-0.25193 1.35-0.0932 1.1202-0.61289 2.768-1.2998 4.1211-0.23147 0.45592-0.54638 1.097-0.6998 1.4246-0.15342 0.32762-0.76578 1.1376-1.3608 1.8-1.2082 1.345-1.2632 1.4375-1.6082 2.7043-0.80223 2.9459-1.8341 5.3168-2.2122 5.0832-0.06411-0.03962-0.25064-0.0003-0.41451 0.08742-0.25472 0.13632-0.33226 0.09309-0.53449-0.29797-0.24176-0.46752-0.52332-0.48162-0.52433-0.02626-0.0003 0.13951-0.12374 0.45615-0.27429 0.70365-0.52584 0.86448-0.5084 2.6165 0.04107 4.125 0.10518 0.28875 0.26636 0.75477 0.35819 1.0356 0.24398 0.74614 1.1074 2.1144 1.3343 2.1144 0.10744 0 0.32048-0.07815 0.47344-0.17367 0.15295-0.09552 0.38982-0.1308 0.52637-0.0784 0.25276 0.09699 0.30152 0.18914 0.45092 0.85208 0.09989 0.44324 0.9766 1.05 1.5172 1.05 0.26964 0 0.42304 0.11107 0.52546 0.38046 0.31153 0.81939 2.0405 1.1742 3.7479 0.76913zm1.6359-7.0576c0.095-0.11442 0.26376-0.64352 0.37513-1.1758 0.11136-0.53227 0.27905-1.1108 0.37262-1.2857 0.14283-0.26688 0.12119-0.34411-0.13486-0.48115-0.47452-0.25395-0.6281-0.03853-0.57363 0.8046 0.0477 0.73762 0.0326 0.77303-0.34858 0.81714-0.44689 0.05171-0.64644 0.52339-0.4882 1.1539 0.10408 0.41466 0.51973 0.50168 0.79752 0.16697zm53.56-6.514c0-0.60163-0.42389-1.2283-0.83085-1.2283-0.26772 0-0.282 0.17715-0.0342 0.42491 0.14655 0.14655 0.11543 0.20308-0.15 0.2725-0.46218 0.12086-0.41906 0.33887 0.10305 0.52088 0.24088 0.08397 0.47502 0.24921 0.52029 0.3672 0.16029 0.41769 0.39174 0.20665 0.39174-0.3572zm-2.0662-0.02221c-0.0519-0.46361-0.28716-0.61979-0.85878-0.57015-0.57308 0.04976-0.61809 0.54382-0.075 0.82296 0.57841 0.29729 0.98313 0.18772 0.93378-0.25281zm-52.57-1.362c-0.0431-0.47573-0.0133-0.93008 0.0663-1.0097 0.0796-0.07958 0.12026-0.40672 0.0904-0.72696l-0.0543-0.58227-0.23929 0.525c-0.33394 0.73264-0.47372 1.946-0.28221 2.4497 0.26546 0.69823 0.50756 0.31944 0.41913-0.65578zm-8.964-19.168c0.45372-0.88813 0.72684-1.2351 1.1953-1.5184 0.33396-0.20198 0.65006-0.50572 0.70244-0.675 0.05238-0.16927 0.35644-0.59314 0.67567-0.94192 0.32-0.349 0.581-0.732 0.581-0.85 0-0.11885 0.04097-0.32285 0.09105-0.45335 0.10616-0.27665-0.45722-0.34426-0.62372-0.07485-0.05521 0.08933-0.37982 0.28437-0.72135 0.43343-1.2855 0.56104-2.2937 1.7415-2.5018 2.9292-0.10119 0.5775-0.24193 1.1626-0.31276 1.3002-0.15678 0.30463 0.0012 1.2033 0.19092 1.086 0.07467-0.04615 0.40041-0.60193 0.72387-1.2351zm11.873-0.8245c-0.29422-1.4618-0.69082-2.4985-0.95673-2.5007-0.27746-0.0023-0.10184 1.6801 0.2473 2.369 0.19789 0.39052 0.43905 1.0044 0.53592 1.3641 0.37205 1.3817 0.50689 0.424 0.17351-1.2324zm-6.8156-8.4393c0.01572-0.24056 0.06916-0.87614 0.11876-1.4124 0.0496-0.53625 0.04718-1.4067-0.0054-1.9343l-0.09554-0.95932-0.54822 0.59979c-1.1884 1.3002-1.3009 2.7594-0.28808 3.7374 0.58402 0.56396 0.78004 0.5565 0.81844-0.03115zm2.0472-5.3111c-0.12885-0.55866-0.97192-2.2512-1.1213-2.2512-0.20661 0-0.14978 0.86088 0.0956 1.4481 0.12375 0.29618 0.225 0.72806 0.225 0.95975 0 0.322 0.0795 0.43306 0.3375 0.47138 0.42287 0.06281 0.575-0.14343 0.46325-0.62802zm-8.338-9.669c0.97792 0.00045 0.72779-0.3615-0.7125-1.0311-0.70005-0.32547-0.91587-0.36257-1.425-0.24497-0.33 0.07623-0.78562 0.17472-1.0125 0.21889-1.1579 0.2254 0.62441 1.3534 1.8375 1.1629 0.37125-0.0583 0.96188-0.10585 1.3125-0.10567zm-55.068 57.697c-0.04643-0.07513-0.47464-0.17762-0.95158-0.22775-1.1393-0.11976-2.0552-0.44662-2.1157-0.75498-0.06086-0.31066 0.26409-0.31821 0.97163-0.02258 0.29618 0.12375 0.88463 0.22881 1.3077 0.23347 0.95216 0.01049 1.8192 0.2924 1.8192 0.59153 0 0.25208-0.89066 0.40781-1.0313 0.18031zm139.52-10.319c-0.20821-0.2082-0.11239-0.33241 0.56078-0.72691 1.2738-0.74648 1.3455-1.5852 0.22776-2.6626-0.98855-0.95283-0.96749-1.4111 0.0466-1.013 2.4745 0.97155 2.2913 3.911-0.27576 4.4244-0.24633 0.04927-0.49805 0.03942-0.55934-0.02188zm-127.54-22.052c-0.31967-0.21694-0.81246-0.40032-1.1084-0.4125-1.3526-0.05564 0.1311-1.3012 1.7794-1.4939 1.1089-0.12958 1.7931 0.52823 1.4809 1.4238-0.31139 0.89326-1.2399 1.1015-2.1519 0.4826zm29.034-0.815c0-1.0345 3.6013-4.4911 5.925-5.6871 0.86394-0.44464 0.60842-3.4568-0.31921-3.7629-1.0939-0.36102-0.28942-1.6437 1.0309-1.6437 0.47867 0 0.68859-0.07602 0.82847-0.3 0.25615-0.41016 0.66982-0.39506 0.60774 0.02218-0.02636 0.1772-0.14918 0.37188-0.27293 0.43262-0.80924 0.3972-1.055 0.4754-1.2539 0.39905-0.19685-0.07554-0.68274 0.28678-0.52996 0.39518 0.03238 0.02298 0.22762 0.14855 0.43388 0.27906 0.71206 0.45057 1.1389 1.4981 0.90242 2.2146-0.1553 0.47058-0.1619 0.65783-0.02791 0.79182 0.4345 0.4345-0.19841 1.2824-1.4095 1.8884-0.33552 0.16786-0.69816 0.41139-0.80587 0.54117s-0.34294 0.23596-0.52273 0.23596c-0.47148 0-2.6013 2.1039-3.4544 3.4125-0.702 1.076-1.132 1.373-1.132 0.781zm-12.281-8.959c-0.12744-0.23812-0.09689-0.35296 0.15387-0.57848 0.4271-0.38411 0.55883-0.79836 0.4142-1.3026-0.25238-0.87999 0.45166-1.5983 0.76326-0.77875 0.15486 0.4073 0.5854 0.48718 1.2546 0.23277 0.30118-0.11451 0.47121-0.07121 0.87226 0.22214 0.27399 0.2004 0.88628 0.54323 1.3607 0.76184 1.5408 0.71008 0.95651 1.2922-0.7243 0.72152-0.98929-0.33587-2.045-0.17273-2.5821 0.399-0.53686 0.57154-1.2929 0.7328-1.5125 0.3226z"/>
</svg>
