<?xml version="1.0" encoding="UTF-8" standalone="no"?>
<svg xmlns:rdf="http://www.w3.org/1999/02/22-rdf-syntax-ns#" xmlns="http://www.w3.org/2000/svg" height="275.4" viewBox="0 0 206.55 275.39999" width="206.55" version="1.1" xmlns:cc="http://creativecommons.org/ns#" xmlns:dc="http://purl.org/dc/elements/1.1/">
<path d="m181.95 275.25c-0.12375-0.0882-0.79875-0.15195-1.5-0.14163-1.8047 0.0266-1.7692 0.0344-2.0174-0.4456-0.2205-0.42641-0.25743-0.43751-1.8066-0.54311-3.3965-0.23149-3.3316-1.1475 0.39433-5.5728 0.77259-0.91759 1.9785-2.3606 2.6797-3.2068 0.70125-0.84614 1.5663-1.8727 1.9223-2.2813 0.35603-0.40857 0.70743-0.90097 0.78092-1.0942 0.16647-0.43787 1.0283-0.70335 2.4368-0.75063 1.4158-0.0475 3.7031-2.7298 3.7106-4.3515 0.002-0.31237 1.2316-2.5418 1.9396-3.5152 0.8533-1.1732 0.87831-1.2918 0.7116-3.3742-0.25353-3.1669-0.47655-4.4472-1.3325-7.65-0.0882-0.33-0.28824-1.2075-0.44454-1.95-0.44282-2.1036-0.51242-2.3953-1.1812-4.95-0.34554-1.32-0.68711-2.7712-0.75903-3.225-0.0719-0.45375-0.2283-1.1962-0.34749-1.65-0.11918-0.45375-0.33125-1.2975-0.47127-1.875-0.27431-1.1314-1.2395-4.1232-1.6453-5.1-0.35337-0.85054-0.73096-1.2044-1.6988-1.5922-0.46567-0.18657-1.0829-0.49148-1.3717-0.6776-0.75233-0.4849-3.467-1.687-4.0669-1.801-0.27946-0.0531-0.57562-0.14544-0.65812-0.20529-0.4559-0.33067-3.0908-1.649-3.2959-1.649-0.1331 0-0.57764-0.31396-0.98789-0.69769-0.91363-0.8546-1.0174-0.77816-0.69711 0.5133 0.32036 1.2915 0.4055 1.8471 0.45492 2.9685 0.029 0.65722 0.13397 1.041 0.3789 1.385 0.18636 0.2617 0.50589 1.1014 0.71007 1.8659 0.20418 0.76452 0.44046 1.6263 0.52506 1.915 0.36836 1.2572 0.42995 1.6356 0.43332 2.6621 0.005 1.5232-0.80254 3.2414-1.7192 3.6578-1.2094 0.54941-1.6386 0.27705-1.2183-0.7732 0.30102-0.75231 0.30306-1.2118 0.01-2.2515-0.12716-0.4511-0.30005-1.0902-0.38417-1.4202-0.25858-1.0143-2.4074-3.3325-3.3519-3.616-0.16926-0.0508-0.7465-0.37708-1.2828-0.72504-3.6706-2.3818-3.6208-2.3572-6.9951-3.454-2.816-0.91535-4.0466-1.5806-5.0659-2.7386-0.32345-0.36747-0.93143-0.92448-1.351-1.2378-2.2374-1.6706-4.4174-4.594-4.8125-6.4535-0.0613-0.28875-0.20298-0.70401-0.31473-0.9228-0.20109-0.39369-0.68192-3.5331-0.72204-4.7142-0.0114-0.33663-0.14054-0.77538-0.2869-0.975-0.14635-0.19962-0.62001-0.86921-1.0526-1.488l-0.78646-1.125-0.83788 0.0278c-0.46084 0.0153-1.0907 0.13339-1.3997 0.2625-0.30949 0.12931-1.0083 0.23767-1.556 0.24127-0.5468 0.004-1.2775 0.0614-1.6238 0.1284-0.38972 0.0754-1.4365 0.0367-2.7474-0.10161-2.4811-0.26184-2.5403-0.23979-2.1903 0.8157 0.33012 0.99536 0.51544 2.6242 0.55191 4.851 0.0371 2.2642 0.19284 3.0191 0.80149 3.8848 0.25513 0.36291 0.65623 0.93666 0.89133 1.275 1.013 1.4578 2.6081 2.798 3.6695 3.0831 2.053 0.55134 2.9657 2.9021 1.9748 5.086-0.16319 0.35964-0.29671 0.73247-0.29671 0.82853 0 0.24036-2.1728 2.3484-3 2.9106-0.37125 0.25231-1.485 1.2473-2.475 2.211-0.99 0.96376-2.1038 1.9612-2.475 2.2166-0.8319 0.57226-1.6475 1.465-3.0748 3.3655-0.60462 0.80508-1.2954 1.7-1.5351 1.9888-1.9247 2.3185-2.6953 3.807-3.3393 6.45-0.31875 1.3082-0.75448 4.1828-0.75232 4.9631 0.002 0.75009-0.96745 2.0872-1.7787 2.453-0.60559 0.27309-0.85981 0.27256-2.8128-0.006l-0.61805-0.0881-0.85647 1.0946c-1.8264 2.3342-2.0127 4.3798-0.46128 5.066 1.9068 0.84345 2.103 3.8513 0.37944 5.8144-0.24813 0.2826-0.62188 0.83195-0.83057 1.2208-0.20869 0.38883-0.63044 1.0164-0.93722 1.3946-0.90253 1.1126-2.0746 2.5473-2.8695 3.5124-0.4077 0.495-0.86481 1.0558-1.0158 1.2463-0.42016 0.53002-2.1742 0.62118-3.4975 0.18175-0.53625-0.17805-1.4778-0.37894-2.0924-0.4464-0.9019-0.099-1.1719-0.19006-1.4005-0.47227-0.213-0.26304-0.40756-0.33891-0.78561-0.30633-1.0902 0.0939-3.0791-0.79275-3.2935-1.4682-0.0913-0.28776 0.9332-2.4249 2.076-4.3306 0.56845-0.94789 2.1631-3.7288 2.8264-4.9289 0.2355-0.4261 0.99586-1.4048 1.6897-2.175 1.8607-2.0654 2.1195-2.6709 1.9125-4.4752-0.25544-2.2264 0.33712-3.5887 2.5784-5.9277 0.33766-0.35238 0.91768-0.99987 1.2889-1.4389 0.37125-0.43899 1.4127-1.543 2.3144-2.4533 0.90163-0.91032 1.968-2.0939 2.3697-2.6301 0.40169-0.53625 0.81477-1.0425 0.91796-1.125 0.27699-0.22146 1.5833-2.1876 2.5906-3.8992 0.48529-0.82458 1.318-2.0396 1.8505-2.7 0.53248-0.66042 1.1877-1.572 1.456-2.0258 0.26832-0.45375 0.6764-1.0945 0.90684-1.4239 0.5751-0.8221 1.3543-2.116 1.7621-2.9261 0.33148-0.65845 0.36159-0.91407 0.4329-3.675 0.0107-0.41367-0.15786-0.94977-0.54276-1.7263-0.30703-0.61947-0.55825-1.1857-0.55825-1.2584 0-0.31788-3.1886-3.7668-4.275-4.624-1.2106-0.95525-4.5464-4.3028-5.4222-5.4413-0.80764-1.05-2.8522-4.058-3.1807-4.6796-0.0958-0.18126-0.44373-0.64099-0.77316-1.0216-0.32943-0.38062-0.59896-0.81412-0.59896-0.96333 0-0.1492-0.2586-0.60072-0.57466-1.0034-0.31606-0.40264-0.73878-1.035-0.93938-1.4052-0.23661-0.43666-0.58185-0.79288-0.98279-1.0141-0.36359-0.20056-0.69454-0.52557-0.80382-0.78939-0.17713-0.42763-0.49617-0.58675-0.65645-0.3274-0.0412 0.0666 0.0847 0.66976 0.27969 1.3404 0.36692 1.2621 0.40402 3.5922 0.0723 4.5386-0.77864 2.2213-1.288 3.2827-2.0084 4.1856-0.77376 0.96977-1.1434 1.319-2.5554 2.4144-0.37222 0.28875-1.0996 0.95345-1.6164 1.4771s-1.2771 1.1234-1.6896 1.3327c-0.4125 0.20931-1.0322 0.57399-1.377 0.81039-0.53445 0.36636-0.77321 0.42982-1.6172 0.42982-1.1254 0-1.4695-0.2991-0.84979-0.73867 0.18324-0.12998 0.6573-0.48296 1.0534-0.78441 2.0091-1.5288 2.5648-5.5794 1.1565-8.4296-1.4591-2.953-2.126-5.9204-2.0967-9.3289l0.01685-1.9567 0.65697-1.4755c1.6838-3.7816 5.7318-4.5535 7.3484-1.4011 0.78308 1.527 1.9263 0.74568 1.9319-1.3204 0.004-1.3872 0.97969-3.4155 2.0084-4.1742 0.67195-0.49556 2.7914-1.2897 4.0068-1.5014 0.56748-0.0988 3.4878-0.9685 5.7573-1.7145 2.1756-0.71517 1.7922-1.5183-1.1209-2.3481-0.20625-0.0588-1.3875-0.56318-2.625-1.1209-1.2375-0.55776-2.8912-1.298-3.675-1.645-1.6035-0.70986-5.0642-2.568-5.8258-3.128-0.27546-0.20254-0.81546-0.48871-1.2-0.63592-2.6226-1.0041-4.2992-1.8861-5.337-2.8078-0.40578-0.36039-1.182-0.92523-1.725-1.2552-0.54296-0.32997-1.4371-0.91692-1.987-1.3043-0.54989-0.38742-1.3135-0.92437-1.697-1.1932-0.38346-0.26886-1.1895-0.75902-1.7912-1.0892-0.60168-0.33021-1.4669-0.96158-1.9227-1.403-0.45578-0.44145-1.2923-1.1752-1.859-1.6306-1.1089-0.89106-2.6291-2.3502-3.156-3.0293-0.36433-0.46954-0.60988-0.44932-2.8994 0.23883-0.98475 0.296-4.0166 0.76244-6.225 0.95771-0.66 0.0584-1.334 0.1762-1.4977 0.26188-0.16375 0.0857-0.90714 0.14604-1.652 0.13415l-1.3542-0.0216-0.38072 0.48501c-0.20939 0.26676-0.52814 0.77208-0.70834 1.123-0.1802 0.35086-0.63236 0.92991-1.0048 1.2868l-0.67718 0.64885-0.02564 1.5632c-0.0141 0.85977-0.04052 1.7995-0.05871 2.0882-0.01819 0.28875-0.06424 1.0312-0.10233 1.65-0.06672 1.0838-0.42563 3.3283-0.73159 4.575-0.35132 1.4315-0.58703 2.6258-0.72534 3.675-0.08156 0.61875-0.22606 1.6524-0.3211 2.2971-0.12057 0.81781-0.13164 1.77-0.03665 3.15 0.08129 1.181 0.08153 2.7636 0.0006 3.9279-0.09467 1.3619-0.08484 2.1649 0.03261 2.6625 0.09249 0.39188 0.24404 1.0669 0.33677 1.5 0.09274 0.43313 0.24357 0.99 0.33518 1.2375 0.34003 0.91862-0.66342 2.1714-1.7413 2.174-0.85358 0.002-1.0166 0.39813-1.0043 2.4399 0.01523 2.5218 0.25634 3.3221 1.741 5.779 0.36323 0.60111 0.70206 1.3099 0.75295 1.575 0.05089 0.26516 0.2428 0.79791 0.42647 1.1839 0.46069 0.96818 0.5699 1.6806 0.35884 2.341-0.46485 1.4544-1.2375 2.9477-2.0474 3.9572-0.48542 0.60499-1.0743 1.4375-1.3086 1.85-0.23429 0.4125-0.7366 1.0915-1.1162 1.509-0.37964 0.41744-1.129 1.3786-1.6653 2.1359-1.0148 1.4332-1.154 1.5369-2.1632 1.6123-0.33651 0.0252-1.0563 0.0928-1.5995 0.15028-0.71674 0.0759-1.0871 0.0489-1.35-0.0984-0.19926-0.11164-0.86854-0.24502-1.4873-0.2964-0.61875-0.0514-1.5164-0.20464-1.9948-0.34057s-0.99106-0.24716-1.1393-0.24716c-1.0237 0-1.1439-2.0095-0.21387-3.5751 0.22866-0.38492 0.56984-1.1662 0.75818-1.7361 0.18834-0.56994 0.40025-1.1099 0.47091-1.2s0.31329-0.63149 0.53919-1.2032c0.2259-0.57166 0.46891-1.1454 0.54002-1.275 0.23331-0.4251 1.2164-2.6196 1.5166-3.3856 0.16169-0.4125 0.57614-1.3238 0.92099-2.025 0.821-1.6695 0.89066-3.7597 0.17747-5.325-0.53436-1.1728-0.45732-2.9711 0.21404-4.9962 0.77274-2.331 1.2338-5.4883 1.4391-9.8538 0.25948-5.5194 0.31491-7.6239 0.21983-8.3456-0.05828-0.44241-0.08894-1.0406-0.06812-1.3294 0.08865-1.2296 0.25736-5.6408 0.29258-7.65 0.04422-2.5226 0.38596-4.4978 0.89534-5.175 0.68037-0.90447 1.0287-1.7735 0.9919-2.475-0.08343-1.5919-0.05681-1.6603 1.4357-3.6904 0.68891-0.93705 1.7727-1.9644 3.8112-3.6125 1.1783-0.95268 3.9989-3.4822 5.3379-4.7871 0.75346-0.73426 1.7497-1.6966 2.2139-2.1386l0.84394-0.80362-0.08156-2.1214c-0.18749-4.8768-0.19496-4.9123-1.0474-4.9799-0.34073-0.027-0.71358-0.18856-0.95405-0.4133-0.2171-0.2029-0.62472-0.48509-0.90581-0.62709-0.2811-0.14199-0.8211-0.54692-1.2-0.89985-0.37891-0.35292-1.3126-0.96007-2.0748-1.3492-0.8579-0.438-1.8-1.0789-2.4729-1.6823-0.59789-0.53612-1.3243-1.0961-1.6141-1.2444-0.28989-0.14832-0.77143-0.50755-1.0701-0.79828-0.29866-0.29073-1.0297-0.77371-1.6246-1.0733-0.73957-0.37244-1.5349-0.97141-2.515-1.8941-0.78838-0.74219-1.6773-1.4747-1.9754-1.6278-0.29808-0.1531-0.81196-0.56791-1.142-0.9218-2.3234-2.4916-2.6815-2.6963-4.6266-2.6457-1.8251 0.0475-2.6609-0.3394-3.8285-1.7721-0.88281-1.0833-1.1282-1.2213-2.5699-1.4451-0.53625-0.0833-1.3168-0.23906-1.7346-0.34623-0.41779-0.10716-0.93453-0.16141-1.1483-0.12054-0.21378 0.0409-0.75984-0.0336-1.2135-0.16547-0.45358-0.13182-1.3605-0.23971-2.0153-0.23971-0.65482 0-1.5219-0.10052-1.9269-0.22338-0.40499-0.12286-1.1218-0.22411-1.5928-0.225-0.47107-0.0009-1.5383-0.10961-2.3716-0.2416-1.7745-0.28106-2.3997-0.20266-2.8753 0.36052-1.4007 1.6586-7.0916 2.8476-8.6095 1.7988-1.5219-1.0516-3.5278 0.0116-4.124 2.1858-0.23221 0.84676-0.99797 1.9237-1.7271 2.4288-2.0544 1.4234-2.8535 1.9134-4.3584 2.6724-0.91983 0.46395-1.8054 0.84355-1.968 0.84355-0.16255 0-0.72621 0.14094-1.2526 0.31321-1.139 0.37277-5.4926 0.64105-6.4518 0.39757-1.5061-0.38228-1.8704-2.4424-0.65604-3.71 0.48692-0.50823 0.47373-0.60083-0.085534-0.60083-0.52778 0-2.4545-1.0643-2.5964-1.4342-0.050931-0.13273-0.13462-0.59885-0.18598-1.0358l-0.093379-0.79451 1.0311-0.56057c0.56728-0.3 1.4025-0.78 1.8563-1.06 0.45375-0.27918 1.5338-0.88697 2.4-1.3507 0.86625-0.46369 1.9198-1.0653 2.3412-1.3369 0.4214-0.27163 1.2652-0.74249 1.875-1.0463 0.60985-0.30386 1.3788-0.80509 1.7088-1.1138 0.33-0.30876 0.92799-0.7577 1.3289-0.99765 0.40087-0.23995 0.98247-0.60502 1.2924-0.81127 0.30997-0.20625 0.85948-0.57155 1.2211-0.81177 0.36166-0.24022 0.96131-0.68949 1.3326-0.99837 1.4764-1.2284 4.0387-2.0771 6.3-2.0868 0.8664-0.004 2.2116 0.6343 3.2708 1.5513 1.2008 1.0396 2.4085 1.3346 6.7792 1.6565 1.5262 0.1124 2.9775 0.17763 3.225 0.14497 0.2475-0.0327 3.6225-0.1212 7.5-0.19674 5.6399-0.10987 7.6576-0.20537 10.087-0.47748 4.1827-0.4684 6.7576 0.15319 9.4687 2.2858 0.19758 0.15541 0.43444 0.28257 0.52636 0.28257s1.0109 0.39473 2.0423 0.87719c2.9431 1.3768 3.6324 1.6602 4.2751 1.7575 1.2599 0.19073 2.8775 0.53403 3.5524 0.75392 0.61082 0.199 2.5621 0.37157 4.7645 0.42135 0.66255 0.015 0.67309 0.007 1.6115-1.207 1.1005-1.4238 3.9406-4.3215 5.7119-5.8279 2.7058-2.301 4.1314-3.9392 5.2215-6 0.2182-0.4125 0.5748-0.98594 0.79245-1.2743 0.535-0.711 1.372-2.105 1.372-2.288 0-0.08126 0.19276-0.3937 0.42836-0.69433 0.23559-0.30062 0.61388-0.84326 0.84063-1.2059 0.53198-0.8507 5.6932-5.9706 7.8789-7.8157 0.92838-0.78375 2.1693-1.8691 2.7576-2.4119 0.58828-0.5428 1.3058-1.1456 1.5946-1.3395 0.28875-0.19394 1.1854-0.99757 1.9925-1.7858 0.80713-0.78827 1.747-1.6209 2.0885-1.8503 0.74939-0.5033 2.1729-1.8634 3.1878-3.0457l0.74388-0.86661 0.01-1.5656 0.01-1.5656-0.90353 0.11342c-0.49694 0.06239-1.1735 0.13504-1.5035 0.16145-2.4708 0.19774-4.0398 0.46769-4.1906 0.72098-0.38781 0.65139-0.75337 1.0143-1.3053 1.2959-0.32592 0.16627-0.84266 0.52185-1.1483 0.79018-0.30566 0.26833-0.75824 0.61436-1.0057 0.76897-0.2475 0.15461-0.82125 0.59418-1.275 0.97682-0.76989 0.64925-3.6981 2.1034-4.2356 2.1034-0.45421 0-0.71434 0.52212-0.71585 1.4368-0.001 0.6293-0.11034 1.1221-0.375 1.6906-0.20544 0.44132-0.37417 0.91382-0.37494 1.05-0.0021 0.37526-0.85891 1.7908-1.1917 1.9689-0.81933 0.43849-2.1753 0.34602-5.4819-0.37382-1.2156-0.26465-1.9831-0.89406-1.8009-1.477 0.25543-0.81736 0.248-0.99517-0.05786-1.384-0.48861-0.62117-0.4033-0.80612 0.92239-1.9999 0.68003-0.61238 1.3714-1.2968 1.5364-1.5209s0.49132-0.64814 0.72514-0.94232c1.1836-1.4891 0.99725-2.0851-0.6554-2.0958-1.4077-0.0091-1.4334 0.0072-3.9552 2.5174-2.562 2.55-4.796 2.782-5.925 0.615-0.132-0.253-0.645-0.865-1.14-1.36-2.3366-2.3366-2.0135-3.422 1.759-5.9099 1.7334-1.1431 1.6521-1.0471 3.3867-4.0004 0.5848-0.99568 1.3397-2.0757 1.6775-2.4 0.33782-0.32432 0.99954-1.06 1.4705-1.6349 0.47094-0.57486 1.1401-1.3174 1.4869-1.65 1.7041-1.6342 3.955-5.1682 4.1589-6.5298 0.05561-0.37125 0.16453-0.97875 0.24204-1.35s0.28755-1.4512 0.46674-2.4c0.1792-0.94875 0.44996-2.018 0.6017-2.3761 0.15174-0.35808 0.24169-0.70639 0.19989-0.77402-0.10103-0.16347-1.8637-1.1286-2.3312-1.2765-0.56531-0.17877-1.3348-0.82086-1.6005-1.3355-0.13145-0.25462-0.53286-0.82399-0.89202-1.2653-0.35916-0.44127-0.68194-0.94752-0.71728-1.125-0.21989-1.1042-0.21998-1.4303-0.0006-2.1196 0.60003-1.8849 2.0504-3.0095 2.5802-2.0007 1.0484 1.9964 3.4323 3.3914 6.3674 3.7261 1.5715 0.17924 1.5857 0.14534 0.40039-0.95571-0.923-0.855-1.632-1.909-1.632-2.423 0-0.11982-0.35129-0.39586-0.78064-0.61343-1.2829-0.65011-1.7556-1.1119-2.3638-2.3095-0.41847-0.82393-0.74749-1.2514-1.2294-1.5974-1.0255-0.7362-2.3118-2.1296-2.9099-3.1524-0.49421-0.84506-0.65539-0.98924-1.7321-1.5494-0.90524-0.47096-1.3646-0.83082-1.9343-1.5155-0.69374-0.83361-0.81541-1.0753-0.93155-1.8502-0.03192-0.21298-0.42118-0.43988-1.4683-0.85586-1.5021-0.5967-1.8111-0.85363-2.7446-2.2821-0.31491-0.48188-0.70658-0.84483-1.1591-1.0742-1.1694-0.59256-2.8511-2.3765-3.3373-3.5401-0.12018-0.28764-0.60627-0.86858-1.0802-1.291-0.606-0.54-0.892-0.917-0.962-1.268-0.083-0.413-0.245-0.577-0.938-0.949-1.171-0.629-2.228-1.535-2.472-2.119-0.131-0.316-0.625-0.809-1.364-1.364-1.162-0.874-2.136-1.9714-2.505-2.8238-0.108-0.2513-0.375-0.5735-0.593-0.7161-0.357-0.2342-1.295-1.981-1.295-2.4126 0-0.093-0.321-0.2865-0.712-0.43-0.536-0.196-0.928-0.5101-1.58-1.2639l-0.86659-1.0031 0.03423-0.98373c0.07833-2.2512 1.8655-2.4009 4.3989-0.36834 1.4638 1.1744 2.14 1.6134 2.948 1.9138 0.76552 0.28463 2.535 1.7539 3.127 2.5965 0.25535 0.36346 0.63988 0.6404 1.2052 0.86799 1.1664 0.46959 2.074 1.105 2.3501 1.6452 0.1296 0.25359 0.46924 0.72165 0.75476 1.0401 0.28552 0.31849 0.61406 0.80625 0.73007 1.0839 0.12252 0.29323 0.41507 0.60972 0.69792 0.75503 1.4278 0.73351 4.0415 3.3668 4.2403 4.2722 0.0653 0.29729 0.29136 0.56969 0.6724 0.81024 0.31572 0.1993 0.61837 0.43412 0.67257 0.52181s0.51549 0.36854 1.0251 0.62411c0.99939 0.50119 2.5016 1.6901 2.5016 1.9799 0 0.29787 0.77377 0.99573 1.7463 1.575 1.3606 0.81038 1.7431 1.1958 2.5155 2.5349 0.4781 0.82889 0.91469 1.3704 1.381 1.7129 0.37506 0.27547 0.89575 0.67658 1.1571 0.89136 0.26133 0.21478 0.62711 0.47032 0.81284 0.56789 0.18574 0.09756 0.50432 0.50618 0.70796 0.90804 0.33558 0.66224 0.43038 0.7401 1.0123 0.83142 2.2517 0.35336 3.4505 1.3201 4.1145 3.3179 0.30618 0.92125 0.55902 1.2153 1.1556 1.344 0.25957 0.05599 0.73729 0.23618 1.0616 0.4004 0.708 0.35852 0.86987 0.22645 1.1205-0.91422 0.24296-1.1058 0.71388-2.3119 1.0315-2.642 0.16086-0.16717 0.50565-0.64144 0.76621-1.0539 0.47703-0.75519 2.3151-2.625 2.5805-2.625 0.0785 0 0.43832 0.45562 0.79963 1.0125 0.86509 1.3333 1.8413 2.1345 3.387 2.7797 0.28875 0.12053 0.68864 0.3966 0.88865 0.61348 0.46562 0.50491 0.80848 0.4964 1.8999-0.04713 1.9502-0.9712 4.7296-1.425 6.7416-1.1008 4.7066 0.75844 7.8326 0.29576 8.8458-1.3092 0.31368-0.4969 0.46023-0.59849 0.86342-0.59854l0.48562-0.000054-0.0343 1.6876c-0.0446 2.1962-0.0323 2.1589-1.1824 3.5719-1.1511 1.4142-1.1701 1.347 0.42478 1.5042 3.1743 0.31293 3.7885 0.42916 4.6493 0.87985 4.4785 2.3447 11.094 2.7709 10.704 0.68951-0.21625-1.1527 0.76554-1.0556 1.327 0.1313 0.78599 1.6614 0.80268 1.9769 0.1694 3.2006-0.59691 1.1534-1.7716 2.5851-2.1211 2.5851-0.11578 0-0.5989 0.13403-1.0736 0.29785-1.3602 0.4694-3.0351 0.50413-4.6435 0.0963-1.5753-0.39943-1.7083-0.36985-2.6946 0.59932l-0.72501 0.71239 0.95102 0.12673c2.3635 0.31496 6.774 3.832 6.774 5.4017 0 0.15906 0.2737 0.56017 0.60823 0.89137 1.2069 1.1949 2.7038 3.6715 3.339 5.5243 0.21212 0.61875 0.55828 1.515 0.76921 1.9918 0.21093 0.47673 0.38352 0.99159 0.38352 1.1441 0 0.90469 4.533 1.1915 6.4095 0.40551 0.51399-0.21528 0.97839-0.39142 1.032-0.39142 0.40565 0-0.49462 2.6433-1.0843 3.1836-2.0115 1.8432-2.911 2.2554-5.0209 2.3006-2.0585 0.04407-2.072 0.04908-1.6787 0.61969 0.33469 0.48559 0.9579 2.9184 1.0301 4.0211 0.027 0.4125 0.11316 1.0875 0.19146 1.5 0.25683 1.353-0.055 3.4568-0.64617 4.359-0.11992 0.18303-0.35533 0.87053-0.52315 1.5278-0.16781 0.65725-0.40699 1.3904-0.53151 1.6291-0.39425 0.75596-0.2937 1.3441 0.35046 2.05 0.67972 0.74485 0.92128 1.1679 0.92128 1.6136 0 0.17831 0.123 0.50338 0.27331 0.72236 0.87214 1.2705 1.1525 4.1739 0.60936 6.3096-0.15547 0.61132-0.2818 1.3538-0.28075 1.65 0.001 0.29618-0.0962 1.011-0.21611 1.5885-0.83975 4.0442-0.72244 6.0585 0.55726 9.5682 0.29937 0.82104 1.2199 1.7082 1.8857 1.8173 1.883 0.30855 1.8571 0.31147 2.7238-0.30673 1.1739-0.83731 1.9475-1.6227 1.9475-1.9772 0-0.37925 0.23805-0.5543 0.35155-0.25852 0.21638 0.56387-0.40998 1.7835-1.1877 2.3126-0.41863 0.28481-0.86877 0.70536-1.0003 0.93456-0.16947 0.29528-0.40665 0.44775-0.81386 0.52321-0.31607 0.0586-0.93963 0.23141-1.3857 0.38408-1.7575 0.60158-4.2784 0.28117-5.4332-0.69055-0.59277-0.49879-0.7834-0.33136-0.50689 0.44517 0.33595 0.94342 0.2906 3.4413-0.0772 4.2519-0.16319 0.35963-0.29671 0.74258-0.29671 0.85099s-0.16875 0.39766-0.375 0.64277c-0.20625 0.24512-0.375 0.51773-0.375 0.60582 0 0.45734-5.3056 6.169-5.7323 6.171-0.24141 0.001-1.2107 0.99088-1.6731 1.7084-1.8461 2.8648-1.9749 3.1893-1.6749 4.2213 0.28834 0.99186 1.1599 2.4435 1.7396 2.8975 0.24695 0.19339 0.58279 0.61388 0.74631 0.93441s0.48719 0.68097 0.71927 0.80098c0.23207 0.12001 0.50967 0.32391 0.61689 0.45309 0.1105 0.13315 0.43065 0.23589 0.73908 0.23719 1.7168 0.007 1.0246 0.64191-0.85029 0.7796-0.80057 0.0588-1.9956 0.14835-2.6556 0.199-1.0987 0.0843-1.2608 0.0595-1.9204-0.2944-0.96816-0.51939-0.94793-0.53233-1.0604 0.67781-0.0544 0.58536-0.17052 1.1981-0.25804 1.3616-0.22803 0.42608-0.3162 3.5821-0.10711 3.834 0.0917 0.11054 0.61212 0.44613 1.1564 0.74576 1.2168 0.66987 2.896 1.8938 4.2946 3.1304 0.58026 0.51302 1.3228 1.0441 1.65 1.1803 0.32724 0.13614 0.83123 0.40261 1.12 0.59216 0.28875 0.18955 0.9975 0.62714 1.575 0.97241 1.491 0.89144 2.6512 1.8262 3 2.4169 0.165 0.27948 0.7725 0.99391 1.35 1.5876 0.5775 0.5937 1.6238 1.7 2.325 2.4586 2.881 3.1163 3.1803 3.3036 5.7152 3.5776 0.79209 0.0856 1.6947 0.26205 2.0058 0.39204s0.77678 0.23783 1.0348 0.23964c0.25806 0.002 0.73919 0.12591 1.0692 0.27578 0.33 0.14986 0.97125 0.32158 1.425 0.38158s1.1053 0.23295 1.4479 0.38435c0.34262 0.15138 0.98756 0.38124 1.4332 0.51079 0.44567 0.12956 1.4478 0.56558 2.2271 0.96893 0.77923 0.40336 1.6132 0.78055 1.8533 0.83821 0.24011 0.0577 0.70364 0.33347 1.0301 0.6129 0.32644 0.27942 0.78346 0.54977 1.0156 0.60075 0.23212 0.051 0.50656 0.19454 0.60987 0.31902 0.1033 0.12447 0.42859 0.34946 0.72286 0.49995 1.6025 0.81956 4.0182 2.7029 5.9997 4.6776l0.85107 0.84814 2.8422-0.0683c3.1221-0.075 4.8946-0.36156 6.1654-0.9968 0.39974-0.19981 0.90891-0.40713 1.1315-0.46068 0.22259-0.0536 0.83249-0.42523 1.3553-0.82596 0.52284-0.40074 1.1672-0.84064 1.432-0.97755 0.30598-0.15823 0.62014-0.52276 0.86221-1.0005 0.20946-0.41334 0.61482-1.1173 0.90078-1.5643 0.28598-0.44704 0.51995-0.90882 0.51995-1.0262 0-0.11734 0.10338-0.50634 0.22972-0.86445 0.37351-1.0586 0.71378-2.702 0.74259-3.5866 0.12023-3.6887 0.0941-4.9061-0.11733-5.475-0.12267-0.33-0.34075-1.005-0.48463-1.5-0.1439-0.495-0.31058-0.9675-0.37043-1.05-0.0599-0.0825-0.32406-0.77838-0.58711-1.5464-1.1557-3.3742-3.2064-6.387-5.8628-8.6135-1.0383-0.87024-1.652-1.2997-4.125-2.8865-0.495-0.31761-0.98169-0.69219-1.0815-0.83239-0.2748-0.3859-0.82938-0.56038-3.0435-0.95753-1.1138-0.19977-2.3107-0.43654-2.6599-0.52615-0.3492-0.0896-1.1254-0.23197-1.725-0.31636-1.5169-0.21352-3.3787-0.80848-4.081-1.3042-0.32499-0.22939-1.1119-0.72081-1.7488-1.0921-3.8946-2.2705-7.11-6.3067-9.2607-11.625-1.1522-2.8489-1.1137-16.773 0.0546-19.766 0.12144-0.31104 0.2208-0.67105 0.2208-0.80001 0-0.4103 0.8829-2.4573 1.4061-3.2602 0.27756-0.42586 0.6985-1.1118 0.93544-1.5242 0.56007-0.97496 3.4304-3.8002 4.8209-4.7452 0.6-0.405 1.09-0.806 1.09-0.889 0-0.85466 5.1604-4.9385 6.2404-4.9385 0.12348 0 0.44016-0.11152 0.70374-0.24782 1.5365-0.79458 7.5891 0.06557 9.0926 1.2922 0.21354 0.17421 0.586 0.43238 0.82768 0.57369 1.1901 0.69586 2.2176 1.9293 3.1611 3.7948 0.22591 0.44667 0.59778 1.1834 0.82636 1.6371 0.61488 1.2205 1.7473 2.6877 2.214 2.8684 0.22503 0.08714 0.95496 0.29302 1.6221 0.45752l1.2129 0.29907 1.2664-0.39483c1.4379-0.44832 2.2413-1.2049 2.5358-2.388 0.28139-1.1305 0.76368-1.4451 1.3718-0.89482 0.40113 0.36302 0.31799 1.0985-0.31119 2.7526-0.26674 0.70125-0.54865 1.4775-0.62647 1.725-0.27635 0.87885-2.9809 3.3738-4.3132 3.9788-0.38441 0.17458-0.80016 0.37038-0.92391 0.43511-0.13286 0.06949-0.26885 0.4491-0.33206 0.92689-0.31026 2.3449-0.92035 3.3614-2.8529 4.753-1.5431 1.1112-6.0274 1.2542-7.8731 0.25114-2.5438-1.3825-3.1179-1.8826-3.8658-3.3678-0.27544-0.54694-0.61864-1.0918-0.7627-1.2108-0.35364-0.29216-0.96339-1.6992-0.96339-2.2231 0-0.23277-0.20321-0.70372-0.45155-1.0466-0.24835-0.34284-0.55891-0.89167-0.69013-1.2196-0.69198-1.7294-5.3608-2.5604-7.18-1.2779-1.2477 0.87956-1.6446 1.3782-1.3887 1.7445 1.2691 1.8166 1.4971 2.2241 1.6779 2.9991 0.11077 0.47486 0.17814 0.88664 0.1497 0.91508-0.0284 0.02844-0.12212 0.65708-0.20817 1.397-0.23081 1.9843-0.31671 2.3499-0.66668 2.8374-0.35638 0.49637-0.66252 1.0438-1.4799 2.6465-0.92922 1.8219-0.791 2.7526 0.85563 5.7614 0.40635 0.7425 0.99735 1.8767 1.3133 2.5205 0.31599 0.64375 0.99504 1.711 1.509 2.3716 0.51399 0.66064 1.1708 1.5051 1.4595 1.8765 0.74901 0.96348 4.5461 4.4564 5.2136 4.796 0.30866 0.15701 0.92016 0.55548 1.3589 0.88548 1.5722 1.1826 1.7274 1.275 2.14 1.275 0.22992 0 0.60807 0.0723 0.84031 0.16071 0.23225 0.0884 1.157 0.36057 2.0551 0.60485 2.5933 0.70536 3.7047 1.3198 6.9318 3.8324 1.4431 1.1236 2.4283 2.1382 3.6434 3.7519 0.50724 0.6737 1.3094 1.5602 1.7825 1.9701 0.48563 0.4207 1.1577 1.2264 1.5433 1.8501 1.2836 2.0761 1.6413 2.6998 1.6413 2.8618 0 0.0891 0.22828 0.50649 0.50728 0.92753 1.8067 2.7264 2.8726 6.0444 2.3606 7.3484-0.0755 0.19235 0.0787 0.6687 0.48193 1.4888 0.65693 1.3359 0.83301 2.2706 0.55445 2.9432-0.37586 0.90737-0.18291 1.7276 0.62169 2.643 0.762 0.86691 0.71961 2.7335-0.0831 3.6568-0.22542 0.25929-0.45589 1.1791-0.69794 2.7854-0.087 0.5775-0.3153 1.3538-0.5073 1.725-0.37374 0.72264-0.61438 1.5713-0.55874 1.9704 0.10632 0.76284-1.4496 2.7258-2.8808 3.6344l-0.42693 0.27102 0.31443 0.29293c0.68719 0.64023-0.0419 2.7177-1.4362 4.0923-0.36071 0.35562-1.0114 1.1792-1.446 1.8303-0.88596 1.3272-2.402 2.3087-3.5662 2.3087-0.34649 0-1.0438 0.24707-1.905 0.675-1.5512 0.77079-3.7155 0.95318-5.0573 0.42618-1.5589-0.61228-2.2111-0.42088-2.0028 0.58776 0.38093 1.8445 0.46605 2.8114 0.45212 5.1361-0.0251 4.1913-0.48234 8.0361-1.204 10.125-1.4564 4.2154-2.6155 6.8757-3.4198 7.849-0.19272 0.2332-0.3504 0.55149-0.3504 0.70729 0 0.15581-0.2025 0.6026-0.45 0.99287-0.2475 0.39025-0.45 0.79525-0.45 0.89998s-0.2025 0.42105-0.45 0.70293c-0.68535 0.78057-0.56268 1.1508 1.2 3.6226 0.45375 0.63629 1.095 1.6252 1.425 2.1975 2.0893 3.6236 6.4485 6.9551 9.8845 7.5543 3.7017 0.64553 5.519 3.1092 3.8809 5.2613-0.39257 0.51573-0.64283 1.0501-0.7727 1.65-0.10563 0.48796-0.24695 1.1405-0.31404 1.4501-0.0671 0.30962-0.0584 1.5584 0.0192 2.775 0.0777 1.2166 0.16372 2.6171 0.19125 3.1121 0.11916 2.1439 0.27615 3.6562 0.45934 4.425 0.29444 1.2356 0.77226 4.7718 0.98304 7.275 0.0764 0.9075 0.23502 1.9875 0.35246 2.4 0.39856 1.4 0.56563 2.3111 0.47575 2.5943-0.0493 0.15531 0.0161 0.53545 0.14535 0.84477 0.12924 0.3093 0.30252 0.94455 0.38508 1.4116 0.18525 1.048 0.68705 2.6248 1.0573 3.3221 0.15266 0.28752 0.27756 0.62763 0.27756 0.75578 0 0.12816 0.14145 0.50041 0.31434 0.82723 2.3482 4.4391 0.81456 8.2624-2.9991 7.4766-2.7981-0.57661-5.183 3.019-3.6328 5.4771 0.23952 0.37978 0.47818 0.83353 0.5304 1.0083 0.14835 0.49672-0.69789 2.453-1.1865 2.743-0.22176 0.13158-0.5586 0.54298-0.74853 0.91423-0.55931 1.0933-1.2521 1.5321-3.3028 2.0918-0.66 0.18017-1.4997 0.46011-1.8661 0.62208-0.59156 0.26156-2.2558 0.62838-3.7589 0.8285-0.28875 0.0384-0.62625-0.002-0.75-0.0905zm0.32271-1.3641c0.13623-0.0729 0.91248-0.23901 1.725-0.36912 0.8125-0.13011 1.6123-0.32285 1.7773-0.4283s0.60375-0.29923 0.975-0.43063c3.897-1.3793 5.5013-3.2058 4.553-5.1834-0.73604-1.5349-0.22209-3.7678 1.2145-5.2764 0.27497-0.28875 0.62538-0.77329 0.77871-1.0768 0.67627-1.3385 2.0673-1.9621 3.2672-1.4648 0.77097 0.31956 0.86612 0.32704 1.6154 0.12723l0.79616-0.21233 0.0475-1.0492c0.0534-1.18-0.10743-1.867-0.72404-3.0924-0.23336-0.46375-0.46966-1.1725-0.5251-1.575-0.11182-0.81168-0.28672-1.4472-0.67617-2.4568-0.22665-0.58756-0.61957-2.4583-1.4178-6.75-0.21692-1.1663-0.35237-2.1418-0.45827-3.3-0.13965-1.5276-0.77058-5.7968-0.88374-5.9799-0.0934-0.15114-0.65875-4.5124-0.76093-5.8701-0.0466-0.61875-0.15516-1.8338-0.24134-2.7-0.25069-2.5201 0.066-4.2223 1.0764-5.7854 1.1576-1.791 0.29989-2.6644-3.3865-3.4482-1.28-0.27214-4.0756-1.639-5.1376-2.512-0.86946-0.71469-3.7874-3.8035-3.7874-4.0091 0-0.0744-0.30761-0.48156-0.68358-0.90489-0.37596-0.42331-1.0538-1.3199-1.5063-1.9925-0.45253-0.67257-1.1081-1.6278-1.4568-2.1228-0.94415-1.3401-1.196-2.7058-0.64548-3.5002 0.21571-0.31128 0.3922-0.6321 0.3922-0.71295 0-0.0808 0.24143-0.51597 0.53651-0.96693 0.29508-0.45098 0.70551-1.1574 0.91206-1.57 0.20655-0.4125 0.66888-1.29 1.0274-1.95 1.1406-2.0997 1.2813-2.381 1.6582-3.3161 0.46587-1.1558 0.75957-2.1833 0.88661-3.1022 0.0546-0.39503 0.19452-0.94608 0.31087-1.2246 0.47871-1.1457 0.87192-7.1134 0.57144-8.6724-0.11499-0.59661-0.33352-1.8303-0.48562-2.7415-0.1521-0.91122-0.34604-1.7887-0.43097-1.95-0.75247-1.429-1.2703-2.8305-1.1272-3.051 0.2559-0.39425 1.5786-0.26805 2.2059 0.21045 1.2274 0.93618 2.0774 0.58255 1.1452-0.47643-0.4037-0.45864-0.61046-0.83588-0.61046-1.1138 0-0.50065-0.51984-1.434-0.9171-1.6466-0.42369-0.22675-0.37831-0.89085 0.0609-0.89085 0.55953 0 2.3562 2.0748 2.3562 2.7209 0 0.33547 1.4232 1.6013 2.175 1.9345 1.8337 0.81264 1.775 0.80175 2.4545 0.45508 0.86343-0.44047 0.80799-0.59625-0.80447-2.2605-0.83889-0.86583-1.425-1.5947-1.425-1.772 0-0.32361-0.70153-0.99475-1.2077-1.1554-0.52676-0.16719-0.29135-0.59124 0.35794-0.64479 0.71343-0.0589 1.2422 0.26848 1.3694 0.84777 0.53937 2.4558 6.5867 4.4508 8.0092 2.6423 0.48396-0.61527 0.38383-0.69164-1.3963-1.0648-1.7644-0.36982-2.2706-0.63175-3.4101-1.7646-1.1867-1.1798-1.2732-2.0153-0.23499-2.2698 0.36858-0.0904 0.4125-0.0604 0.4125 0.28128 0 0.21032 0.0744 0.42839 0.1653 0.48458 0.0909 0.0562 0.25542 0.31783 0.36557 0.58144 0.60639 1.4513 5.8895 1.8622 6.5394 0.50859 1.1132-2.3187 1.0898-2.8148-0.11532-2.4492-1.54 0.46719-3.889 0.23687-4.6672-0.45762-0.65812-0.58735-0.25782-0.75475 2.0985-0.87759 2.5749-0.13423 2.9222-0.22327 3.9665-1.0171 1.5454-1.1746 0.98301-1.8007-1.3211-1.4704-1.42 0.20353-1.6685 0.14038-1.8633-0.47337-0.15444-0.48659 0.19278-0.72926 1.0434-0.72926 2.569 0 4.8882-1.4691 4.8882-3.0966v-0.65343l-0.7875-0.0218c-0.43312-0.012-1.1233-0.0288-1.5337-0.0375-1.3352-0.0281-1.019-0.98452 0.34868-1.0544 0.53574-0.0274 0.91924-0.14369 1.1935-0.36195 0.22224-0.1769 0.60657-0.41304 0.85407-0.52476 2.109-0.95207 0.9123-3.975-1.2925-3.2649-2.2139 0.71304-2.0423-0.27627 0.29415-1.6956 2.1238-1.2901 1.5562-3.3823-0.91887-3.387-1.7715-0.003-1.8449-0.67148-0.14503-1.3206 1.1356-0.43365 1.2768-0.72263 1.1948-2.4463-0.0774-1.628-0.56479-2.6547-3.3604-7.0787-0.19756-0.31262-0.82897-1.063-1.4032-1.6674-0.57418-0.60446-1.044-1.1638-1.044-1.243 0-0.51789-5.1194-3.333-6.0948-3.3515-0.1541-0.003-0.44894-0.10178-0.65519-0.21968-0.54046-0.30896-2.427-0.26552-2.3886 0.055 0.0132 0.11056 2.4463 2.1351 3.359 2.795 1.9667 1.422 5.7796 6.9345 5.7796 8.3558 0 0.15623 0.10028 0.47796 0.22283 0.71495 0.24067 0.46543 0.43063 1.0146 1.0484 3.0311 0.50549 1.65 0.53924 6.5526 0.0582 8.4481-0.14655 0.5775-0.37492 1.4888-0.50748 2.025-0.48601 1.9661-2.5134 5.2234-3.551 5.7053-0.2727 0.12664-0.92958 0.51568-1.4597 0.86452-0.53015 0.34884-1.2726 0.72846-1.65 0.8436-0.37737 0.11514-0.88862 0.31323-1.1361 0.44019-1.1605 0.59529-2.2338 0.74766-7.425 1.0541-0.88447 0.0522-1.3905 0.27636-1.7557 0.77769-0.49365 0.67767-0.86088 0.43758-3.8168-2.4954-2.0273-2.0116-2.999-2.8624-3.7895-3.3181-0.58465-0.33702-1.198-0.7321-1.363-0.87796-0.42657-0.3771-4.8459-2.4944-5.475-2.6231-0.28875-0.0591-0.78397-0.23852-1.1005-0.39878-0.56049-0.28377-3.282-1.172-3.591-1.172-0.085 0-0.52961-0.17742-0.98799-0.39426-0.45838-0.21685-1.7632-0.58443-2.8996-0.81685-2.969-0.6072-2.5428-0.31572-6.5625-4.4889-0.51652-0.53625-1.0281-1.1438-1.1369-1.35-0.10876-0.20625-0.48996-0.62507-0.84715-0.93071-3.7384-3.199-5.2044-4.3193-5.6522-4.3193-0.0678 0-0.4887-0.26075-0.93525-0.57944-0.44656-0.3187-1.2013-0.76293-1.6771-0.98718-0.5434-0.25608-1.0734-0.65868-1.425-1.0824-0.30789-0.37109-1.1673-1.0998-1.9098-1.6193-3.0789-2.1543-3.2996-2.7769-2.3683-6.6816 0.47598-1.9957 0.36608-5.1338-0.21585-6.1636-0.44603-0.78931-0.90332-2.5686-0.97923-3.8101-0.0574-0.93894-1.3971-0.52991-2.9616 0.90422-0.3813 0.34953-2.7866 1.3551-3.6505 1.5262-0.26095 0.0517-0.77139 0.25131-1.1343 0.44364s-0.76791 0.34994-0.9 0.35025c-0.13209 0.0003-0.44829 0.12747-0.70266 0.28259-0.25437 0.15511-0.74816 0.33029-1.0973 0.38928-0.51491 0.087-0.71949 0.22485-1.0831 0.72991-0.25781 0.35806-0.69895 0.73121-1.0381 0.87812-0.6808 0.29489-1.0976 0.89331-1.4414 2.0695-0.13263 0.45375-0.33371 0.87897-0.44684 0.94495-0.85965 0.50132 1.4654 2.955 2.8001 2.955 0.72134 0 1.0939 0.383 0.67238 0.69123-0.77626 0.56761-2.1603-0.0477-5.3445-2.3761-3.2776-2.3966-2.2615-8.6078 1.8538-11.333 1.6398-1.0857-2.5682-0.56622-4.9125 0.60644-2.042 1.0215-2.2459 1.1978-3.9094 3.3801-1.3865 1.819-0.85592 4.8606 0.94875 5.4384 1.1231 0.35957 1.568 1.0454 0.67317 1.0377-1.2944-0.0113-2.4362-0.65159-4.2041-2.3576-0.44882-0.43313-0.86218-0.7875-0.91857-0.7875-0.0564 0-0.35637-0.43394-0.66662-0.9643-1.1997-2.0508-0.77008-5.5471 0.99163-8.071 0.67991-0.97405 0.63181-1.2116-0.28001-1.3826-0.82434-0.15465-2.8441-0.96502-3.3911-1.3606-0.27155-0.19637-0.84811-0.6031-1.2812-0.90384-1.8295-1.2703-3.6847-3.8844-3.2527-4.5834 0.12296-0.19895 0.51525-0.16271 0.51525 0.0476 0 0.23355 1.2072 1.4682 1.4356 1.4682 0.0952 0 0.43556 0.20931 0.75627 0.46514 2.0338 1.6223 4.2987 1.7255 7.037 0.32072 0.81102-0.41608 3.1011-3.0275 3.7638-4.292 0.97864-1.8673 2.0546-3.124 4.6466-5.4272 2.7401-2.4349 7.6298-3.6603 11.761-2.9475 3.8159 0.65843 5.3752 0.38868 6.4018-1.1075 0.15024-0.21895 0.42987-0.56653 0.62141-0.77241 0.37022-0.39795 0.30784-1.1154-0.20557-2.3642-0.64694-1.5736-0.7748-5.3706-0.27362-8.1257 0.0757-0.41619 0.0305-0.50472-0.36114-0.70724-3.3488-1.7317-1.8198-9.395 2.7912-13.99 2.4649-2.4563 3.4645-4.71 2.8282-6.3763-0.16-0.365-0.27-0.797-0.27-0.963 0-0.17737-0.60068-0.92193-1.4625-1.8128-1.9957-2.063-2.357-2.5719-2.8021-3.9471-0.52012-1.6067-0.5645-4.2275-0.0966-5.7041 0.44394-1.401 0.41244-2.0219-0.13009-2.5644l-0.44134-0.44134-0.94616 0.4401c-2.4703 1.149-6.6762 1.5606-8.2691 0.80925-0.50988-0.24051-1.4126-0.66365-2.006-0.9403-1.86-0.87-3.34-2.708-3.34-4.153 0-1.0973 0.7134-0.96572 1.1124 0.20514 0.77621 2.2781 2.8154 3.8163 5.6401 4.2546 1.9735 0.3062 5.819-0.40198 7.1421-1.3153 0.53337-0.36819 0.98052-0.55861 3.3555-1.429 0.55014-0.20161 1.2917-0.31744 2.2258-0.34767 1.6045-0.05193 1.6736-0.08472 1.3433-0.63721-0.55201-0.92318-2.9487-1.9814-4.4875-1.9814-0.47516 0-0.90808-0.07145-0.96206-0.15878-0.18607-0.30108-1.5854 0.17357-2.2446 0.76138-0.31866 0.28415-0.69672 0.34666-3.6998 0.61179-2.267 0.20014-3.9194-0.19462-4.6471-1.1102-0.55714-0.70094 0.18851-0.94734 1.0746-0.35511 2.3245 1.5536 8.7663 0.16184 10.426-2.2525 0.22804-0.33176 1.7257-1.5278 2.2938-1.8318 0.42678-0.22841 0.91845-0.20649 1.9328 0.08616 2.7768 0.80112 5.5948-0.29788 5.5948-2.1819v-0.47508l-1.4625 0.08122c-0.80438 0.04467-1.9895 0.11543-2.6336 0.15725-1.3482 0.08753-3.8466-0.51654-5.3539-1.2945-0.80229-0.41406-1.5438-0.71107-2.775-1.1116-1.8524-0.60258-6.1227-0.80979-7.0308-0.34116-0.15442 0.07969-0.82942 0.30095-1.5 0.49168-1.5514 0.44124-2.1753 0.65634-2.6442 0.9115-0.20625 0.11223-0.645 0.33553-0.975 0.49622-0.93369 0.45463-2.2445 1.4332-2.299 1.7163-0.18687 0.97034 1.9885 1.7571 2.9726 1.075 0.29839-0.20678 0.64135-0.37597 0.76214-0.37597s0.45466-0.15841 0.74194-0.35201c0.59663-0.40209 1.9615-0.96041 3.5973-1.4715 1.7058-0.53296 5.3869-0.47884 7.125 0.10476 0.82669 0.27758 1.6433 0.42688 2.625 0.47991 1.56 0.08427 1.95 0.20874 1.95 0.62236 0 0.52245-2.3431 0.71304-3.825 0.31112-2.0664-0.56045-2.3464-0.60586-4.5423-0.73675-1.6271-0.09699-2.3486-0.07991-3 0.071-0.47174 0.10928-1.2627 0.29374-1.7577 0.40991-2.268 0.53226-3.3463 1.7898-2.475 2.8862 1.0138 1.2758 0.36725 3.0174-0.82919 2.2335-0.24684-0.16174-0.50526-0.20696-0.78222-0.13687-0.22747 0.05757-0.76779 0.16269-1.2007 0.23361-0.47382 0.07762-1.0035 0.29398-1.3308 0.54359l-0.54363 0.41465 0.0709 1.5058c0.0849 1.8015 0.27202 2.2938 1.3593 3.5755 1.5561 1.8343 3.1264 2.9223 5.4942 3.8065 0.91524 0.34178 2.3871 1.3798 2.503 1.7652 0.051 0.16975 0.25135 0.47835 0.44512 0.68576 0.40556 0.43411 0.81398 1.4918 0.81398 2.1079 0 1.0785 0.72883 0.47282 1.3658-1.135 0.82186-2.0745 0.54012-4.2203-0.65302-4.9735-0.83457-0.52684-0.7208-0.91193 0.19206-0.65012 3.8843 1.114 2.4783 8.6586-1.6714 8.9687-1.4264 0.10659-1.8354-0.32685-1.0335-1.0951 1.3026-1.2479-0.10084-4.0353-2.4914-4.9483-4.1636-1.5901-7.2407-4.6621-7.9273-7.9142-0.12591-0.5964-0.87053-0.56884-1.745 0.06459-0.82743 0.59938-2.8238 1.4729-3.3663 1.4729-0.22535 0-0.63176 0.13722-0.90313 0.30494-1.5844 0.9792-5.3632-0.04081-7.2902-1.9678-1.1851-1.1851-1.1964-1.1876-2.7764-0.60032-1.2294 0.45689-2.3815 0.68874-4.222 0.84963-1.5772 0.13787-1.8541 0.53967-2.3464 3.404-0.12433 0.72346-0.37154 1.8372-0.54935 2.475-0.17781 0.63779-0.4198 1.5127-0.53776 1.9443s-0.28313 0.82716-0.36705 0.87902-0.28605 0.40749-0.44918 0.79027-0.52185 0.93222-0.79714 1.221c-0.2753 0.28875-0.75628 0.93-1.0689 1.425-0.31258 0.495-0.98082 1.305-1.485 1.8-0.50416 0.495-1.2381 1.3219-1.6309 1.8375-0.39283 0.51562-0.7718 0.9375-0.84218 0.9375-0.25585 0-1.7992 2.2321-2.5066 3.6251-0.769 1.5144-1.9798 2.9958-2.6966 3.2991-2.7825 1.1774-3.5893 2.8975-2.0884 4.4529 0.52963 0.54885 1.0074 1.1754 1.0617 1.3924 0.50281 2.0082 2.2318 1.9787 4.405-0.07526 2.4078-2.2756 3.0526-2.6517 4.9601-2.8928 3.0389-0.38412 4.5436-0.91422 5.2298-1.8424 0.36-0.497 0.923-0.623 0.923-0.208 0 0.13788-0.091 0.35725-0.20223 0.4875s-0.30796 0.54056-0.43719 0.91181c-0.66903 1.9221-1.5063 4.162-1.6608 4.4429-0.43569 0.79244-1.3439 1.8373-2.0036 2.3052-2.1329 1.5126-2.7979 2.3239-2.0337 2.4809 0.22688 0.0466 0.8175 0.18069 1.3125 0.29798 1.6889 0.40017 1.8309 0.37409 2.7171-0.49894 0.87559-0.86254 1.1506-1.6755 1.0128-2.994-0.11739-1.1232 0.39967-1.695 1.9964-2.2076 2.4712-0.79344 4.613-1.9907 5.3948-3.0157 0.21229-0.27833 0.6319-0.65728 0.93246-0.84211 1.4911-0.91696 2.0331-1.6806 1.5215-2.1436-0.64116-0.58024-0.20452-1.2647 0.63169-0.99017 0.27132 0.08906 1.4383 0.1744 2.5933 0.18965 4.7894 0.06324 6.9623-1.1419 10.955-6.0759 1.5415-1.9048 1.6827-2.1293 1.8004-2.8622 0.1888-1.1756 0.80443-1.6179 1.445-1.0382 0.61641 0.55785 0.20686 2.159-0.91055 3.5599-0.25583 0.32072-0.46514 0.67274-0.46514 0.78228s-0.19283 0.42088-0.42851 0.69187c-0.23568 0.271-0.52256 0.67308-0.6375 0.89352-0.34908 0.66946-2.2357 2.5188-2.9693 2.9106-2.4596 1.3137-3.0424 2.4445-2.4922 4.836 0.10687 0.46456 0.0551 0.5588-0.78356 1.425-2.8787 2.9734-3.9661 4.0105-4.484 4.2767-0.31898 0.16393-1.2617 1.0061-2.0949 1.8715-0.83323 0.86537-1.727 1.683-1.9861 1.817-0.25912 0.134-0.57352 0.3999-0.69866 0.59088-0.12514 0.19099-0.54765 0.57313-0.93891 0.84921-0.39127 0.27608-1.3526 1.0465-2.1364 1.7121-1.438 1.2212-2.3112 1.8852-2.4793 1.8852-0.32313 0-4.552 4.6177-4.9453 5.4-0.39067 0.77703-2.1693 3.7669-2.4985 4.2-0.15678 0.20625-0.38916 0.60348-0.51639 0.88273s-0.35157 0.68425-0.49853 0.9c-0.14696 0.21574-0.52487 0.78062-0.8398 1.2553-0.5742 0.86539-2.3213 2.662-2.5887 2.662-0.07842 0-0.32519 0.2635-0.54837 0.58555s-0.78924 0.85495-1.2579 1.1842c-0.46866 0.32927-1.0928 0.85889-1.3871 1.177-0.29422 0.31805-1.0968 1.1183-1.7834 1.7783-1.9278 1.8529-4.0681 4.5958-4.2722 5.475-0.04789 0.20625-0.24905 0.7125-0.44702 1.125-0.49844 1.0386-0.98738 2.3556-0.98738 2.6598 0 0.13968-0.12903 0.61088-0.28673 1.0471-0.68175 1.8858-0.97712 7.5099-0.52825 10.058 0.47661 2.7059 0.69051 4.6207 0.71466 6.3973 0.03098 2.2791 0.04982 2.2895 1.4637 0.80125 1.0931-1.1505 1.2656-1.3805 2.5101-3.3455 0.734-1.16 1.827-3.76 1.827-4.36 0-0.22874 0.10399-0.86427 0.23108-1.4123 0.15468-0.66697 0.19819-1.2871 0.13159-1.8758-0.11394-1.0071 0.0013-1.6465 0.29682-1.6465 1.2898 0 0.72916 6.3633-0.74685 8.4776-0.1718 0.24609-0.63335 1.0424-1.0257 1.7697-0.39232 0.72725-0.81114 1.3598-0.93069 1.4057s-0.32346 0.2946-0.45313 0.55273-0.49318 0.73933-0.80781 1.0693c-0.31463 0.33-0.81426 0.97125-1.1103 1.425-0.75612 1.1589-3.1211 3.528-3.8374 3.844-0.32751 0.14449-0.63133 0.37569-0.67515 0.51376-0.13237 0.41706-3.165 3.264-4.9989 4.6928-0.44078 0.34341-1.3183 1.1155-1.95 1.7158-0.63172 0.60027-1.369 1.2415-1.6383 1.425-0.79402 0.54089-1.1578 1.4627-1.1674 2.9586l-0.0082 1.275-0.95251 1.725c-0.52388 0.94875-1.0602 1.9275-1.1919 2.175-0.18797 0.35331-0.24189 0.95151-0.25093 2.7841-0.0063 1.2838-0.06961 2.4282-0.14063 2.5431s-0.10537 1.7645-0.07634 3.6659c0.02903 1.9013 0.04239 3.7269 0.02968 4.0569s-0.04298 1.9838-0.06728 3.675c-0.05228 3.6392-0.44737 7.633-1.0165 10.275-0.3186 1.4791-0.73308 3.1378-1.0208 4.0852-0.60725 1.9992-0.59437 2.5544 0.09032 3.891 1.1137 2.1741 1.0753 3.8928-0.1321 5.8989-0.4322 0.71811-1.4806 2.9394-1.4806 3.137 0 0.12855-0.16395 0.5722-0.36434 0.98587-1.4122 2.9153-2.0522 4.3628-2.2042 4.9848-0.09641 0.39454-0.27389 0.91356-0.3944 1.1534-0.41492 0.82566-0.76176 2.3232-0.57414 2.4789 0.89358 0.7416 1.3461 0.44681 2.3488-1.5301 0.42816-0.84417 0.92627-1.7115 1.1069-1.9274 0.18065-0.21593 0.41404-0.59919 0.51864-0.85173 0.22117-0.53396 0.58432-0.72395 0.85769-0.44871 0.27397 0.27582 0.0238 1.252-0.44777 1.7472-0.20726 0.21767-0.55687 0.93576-0.77691 1.5958-0.22004 0.66-0.47049 1.286-0.55656 1.3911-0.1877 0.22926-0.23226 0.19008 0.77822 0.6843 1.5523 0.75923 2.5313 0.47093 3.7369-1.1004 0.41142-0.53625 0.9971-1.245 1.3015-1.575 0.53593-0.58099 2.3683-3.5692 2.561-4.1765 0.05227-0.1647 0.31398-0.77734 0.58157-1.3614 1.3689-2.988 1.2934-3.7256-0.73769-7.2084l-0.61024-1.0464-0.16695-2.6267c-0.26083-4.1038-0.13682-4.6122 1.2141-4.9769 0.33158-0.0895 0.68726-0.1867 0.79038-0.21594 0.2286-0.0648 0.24649-1.8856 0.03376-3.4376-0.14405-1.0509-0.17714-5.3813-0.08311-10.875 0.04747-2.7733 0.43518-6.3002 0.83272-7.575 0.07718-0.2475 0.27874-1.1806 0.4479-2.0736 0.16916-0.89299 0.38314-1.7648 0.4755-1.9374 0.35387-0.66121-0.07768-3.564-0.52986-3.564-0.39865 0-0.70629-0.43821-0.53385-0.76041 0.11495-0.2148 0.31826-0.29044 0.7872-0.29289 1.5555-0.008 3.8572-2.2928 3.8572-3.8288 0-0.26139 0.64095-0.79547 1.1803-0.98349 0.58923-0.20541 0.8279-0.0405 0.83798 0.57891l0.0067 0.4117 1.853 0.0422c1.0191 0.0232 2.2004-0.0261 2.625-0.10962 2.999-0.58992 4.3656-0.92314 4.5794-1.1167 0.39114-0.35397 5.2661-1.7779 6.9926-2.0425 1.6024-0.24555 5.3626-1.5657 7.35-2.5805 2.7763-1.4176 4.7153-3.5752 5.6657-6.3043 0.23723-0.68124 0.60004-1.7227 0.80626-2.3143 0.38835-1.1141 0.69996-1.4167 1.0738-1.0429 0.28529 0.2853 0.1284 1.1573-0.2737 1.5212-0.16339 0.14786-0.29707 0.41656-0.29707 0.59711s-0.135 0.72065-0.3 1.2002c-0.72116 2.0961 0.17605 2.6177 2.4539 1.4265 1.309-0.68454 2.4346-1.0512 3.2321-1.0529 0.41387-0.0009 1.0045-0.14835 1.4791-0.3693 0.83411-0.38833 1.2349-0.3677 1.2349 0.0636 0 0.57327-1.4429 1.356-2.5065 1.3597-0.4759 0.002-1.1489 0.18081-1.9935 0.5306-0.70125 0.29044-1.7529 0.65486-2.337 0.80983-1.5499 0.41117-2.0649 0.66125-2.4733 1.2009-1.3584 1.7949-2.3896 2.5811-5.0146 3.8228-1.3183 0.62359-3.2371 1.2833-3.7334 1.2834-0.17415 0.00006-0.73784 0.19938-1.2526 0.44292-0.5148 0.24354-1.1898 0.48557-1.5 0.53784-0.3102 0.0523-0.95239 0.22421-1.4271 0.38208-0.4747 0.15788-0.93469 0.28704-1.0222 0.28704-1.7752 0-2.1355 1.8256-0.52471 2.6586 0.66174 0.34219 2.1189 1.51 3.0676 2.4586 0.7802 0.78003 1.4373 1.2221 2.9218 1.9659 0.3187 0.15968 0.85923 0.57816 1.2012 0.92999 0.34193 0.35181 0.8689 0.72126 1.171 0.82096 0.30214 0.0997 0.63488 0.28437 0.73942 0.41034 0.10454 0.12596 0.53182 0.3995 0.9495 0.60785s0.99567 0.59878 1.2844 0.86764c0.28875 0.26888 0.76125 0.61524 1.05 0.76973 0.28875 0.15448 0.69375 0.42246 0.9 0.59548 0.20625 0.17304 0.67875 0.4007 1.05 0.50592 0.37125 0.10521 1.2856 0.48779 2.0319 0.85016 0.74631 0.36237 1.4092 0.65884 1.4731 0.65884s0.5333 0.29267 1.0431 0.65039c0.50978 0.3577 1.8782 1.1259 3.0409 1.7071 1.1627 0.58117 2.4047 1.2673 2.76 1.5246 0.35528 0.25737 0.73353 0.46794 0.84055 0.46794s0.97796 0.405 1.9354 0.9c0.95745 0.495 1.8018 0.9 1.8764 0.9 0.13558 0 1.9421 0.86666 3.0736 1.4745 1.1191 0.6012 2.7483 1.2255 3.1983 1.2255 0.40361 0 1.1116 0.21719 3.1767 0.97452 0.37125 0.13614 0.81 0.36923 0.975 0.51798 0.165 0.14874 0.57 0.31707 0.9 0.37406 0.33 0.057 0.8548 0.26989 1.1662 0.47311 0.31142 0.20324 0.90579 0.43391 1.3208 0.51261 0.41504 0.0787 1.1468 0.37299 1.6262 0.65394 0.47936 0.28095 1.0325 0.56072 1.2292 0.62172 0.60644 0.1881 1.716 0.78609 1.9243 1.0371 0.10884 0.13115 0.49389 0.36939 0.85566 0.52941 1.0727 0.47453 4.806 4.3193 5.4282 5.5904 0.27187 0.55539 0.55862 1.0496 0.63721 1.0981 0.91065 0.56282 1.5183 3.8656 1.1806 6.4171-0.36116 2.7287 0.87026 6.4778 2.3959 7.2942 0.13597 0.0728 0.54784 0.50906 0.91527 0.96953 0.48114 0.60295 0.95747 0.98929 1.7024 1.3807 0.56887 0.29894 1.2782 0.76148 1.5762 1.0279 0.7875 0.70386 1.0603 0.81152 2.3658 0.93357 2.1541 0.20139 3.3579 0.13724 4.1494-0.22114 0.39783-0.18012 1.1403-0.40097 1.65-0.49076 0.50967-0.0898 1.3863-0.2695 1.948-0.39936 1.846-0.42673 4.0471 0.01 5.2906 1.0494 0.32346 0.27042 0.77302 0.60846 0.99904 0.75123 2.3131 1.4611 1.9336 5.1961-0.39271 3.8651-0.8747-0.50045-1.1432-0.56394-1.1432-0.27029 0 0.30285 2.6413 2.6558 3.1834 2.8359 0.27038 0.0898 0.76158 0.41489 1.0916 0.72237 0.33 0.30749 0.90375 0.77328 1.275 1.0351 0.37125 0.26181 0.96471 0.70829 1.3188 0.99216 0.35411 0.28388 0.92672 0.59232 1.2725 0.68543 0.71457 0.19242 1.781 0.70945 2.5759 1.2489 0.29723 0.2017 0.85932 0.43666 1.2491 0.52215 0.89628 0.19656 2.9832 1.0662 3.8866 1.6196 0.38001 0.23279 0.96793 0.57812 1.3065 0.76739 1.2588 0.7038 2.4906 2.2844 2.4906 3.1959 0 0.1523 0.12813 0.56559 0.28475 0.91842 0.4815 1.0848 0.75342 2.235 0.86127 3.6432 0.0746 0.97411 0.19998 1.5305 0.45175 2.0047 0.21879 0.41206 0.31581 0.78655 0.26067 1.0062-0.0577 0.22987 0.0251 0.50844 0.24137 0.81216 0.19353 0.2718 0.39141 0.877 0.48022 1.4688 0.0831 0.55358 0.23862 1.2141 0.34562 1.4679 0.10701 0.25374 0.43938 1.4687 0.73861 2.7 0.29924 1.2312 0.64154 2.6099 0.76068 3.0636 0.11913 0.45375 0.28962 1.3312 0.37886 1.95 0.0892 0.61875 0.25677 1.3612 0.37231 1.65 0.4247 1.0613 0.75056 3.7438 0.70782 5.8268-0.0463 2.2552-0.0829 2.367-1.2235 3.732-0.41523 0.49694-0.88992 1.2184-1.0549 1.6032-0.55626 1.2977-1.356 2.8968-1.7088 3.4166-0.19276 0.28404-0.39807 0.70609-0.45625 0.93789-0.31229 1.2443-1.6729 2.428-2.5361 2.2063-1.9064-0.48954-2.42-0.27163-3.6449 1.5462-1.0288 1.5267-1.8976 2.7172-2.3032 3.156-0.22878 0.2475-0.72778 0.91199-1.1089 1.4766-0.38109 0.56465-0.85939 1.1576-1.0629 1.3176-0.85752 0.67452-1.5982 2.5064-1.1313 2.798 1.5332 0.95747 2.825 0.19952 4.4184-2.5922 0.23541-0.4125 0.69492-1.0538 1.0211-1.425 0.836-0.95145 0.97901-1.3029 0.63311-1.5558-0.50307-0.36784-0.17747-0.71719 0.61975-0.66495 0.80946 0.053 1.1537 0.39422 0.84077 0.83328-0.1029 0.14438-0.24692 0.39899-0.32003 0.5658-0.0731 0.16682-0.37669 0.59508-0.67464 0.95169-0.29794 0.35663-0.54171 0.70362-0.54171 0.77111 0 0.0675-0.23625 0.48144-0.525 0.91989s-0.525 0.86031-0.525 0.93745c0 0.0772-0.19527 0.44996-0.43393 0.82844-1.0278 1.6299-0.18332 2.5553 1.5066 1.651zm-97.145-199.22c-0.165-0.09357-0.33375-0.21409-0.375-0.26784s-0.40656-0.32341-0.81181-0.59925l-0.73681-0.50153 0.34328-0.27797c0.1888-0.15288 0.52037-0.31972 0.73681-0.37075s0.52853-0.21443 0.69353-0.36311c0.80197-0.72263 3.3225-0.87392 3.6723-0.22042 0.31988 0.5977 0.0033 0.83011-1.1309 0.83011-1.5142 0-2.2041 0.42817-1.6596 1.0299 0.56544 0.62481 0.02621 1.1707-0.73181 0.74086zm7.125-8.9241c0-0.33084 2.2824-2.5617 3.8829-3.7952 1.5248-1.1752 1.9951-1.8329 2.0849-2.9155l0.06601-0.79603 0.45004 0.22451c1.1454 0.57139-0.66132 3.5477-2.8844 4.7517-0.20653 0.11186-0.92679 0.784-1.6006 1.4937-1.236 1.303-1.999 1.698-1.999 1.038zm7.4403-7.5091c-0.20821-0.22688-0.5782-0.64875-0.8222-0.9375-0.41345-0.48926-0.50319-0.525-1.3184-0.525-1.0371 0-1.1689-0.26811-0.36723-0.7469 0.71059-0.4244 2.0907-1.7072 2.197-2.0422 0.13215-0.41637 1.1826-0.65973 1.9087-0.44219 0.31628 0.09476 0.70369 0.13146 0.86093 0.08156 0.46835-0.14865 2.1472 0.9347 2.5947 1.6743 0.17076 0.28224-0.15236 0.8004-0.49912 0.8004-0.36189 0-0.37118 0.11689-0.0385 0.48447 0.57964 0.6405-0.52349 1.1228-1.4602 0.63847-0.52102-0.26944-0.89601-0.20777-0.89601 0.14735 0 0.12634-0.0608 0.22971-0.13518 0.22971-0.0744 0-0.27458 0.23625-0.44494 0.525-0.39961 0.67728-1.0207 0.72151-1.5796 0.1125zm2.8785-3.2077c0.052-0.27384-0.65314-0.58404-1.3037-0.57356-0.52508 0.0085-1.5205 0.54128-1.2151 0.65041 0.84202 0.30091 2.4565 0.25165 2.5188-0.07685zm10.019 209.99c1.4524-1.0246 2.649-2.131 3.2869-3.0391 0.33-0.46979 0.97125-1.2786 1.425-1.7973 0.64806-0.74082 0.89937-1.1812 1.1718-2.053 0.19072-0.61047 0.49028-1.465 0.6657-1.8989l0.31894-0.78896-0.30399-0.41104c-0.1672-0.22608-0.58128-0.56598-0.92018-0.75536-1.3344-0.74565-1.5461-2.1161-0.68837-4.4557 1.307-3.5648 2.2139-4.3889 4.6345-4.2112 2.2087 0.16212 2.4358-0.0998 2.5591-2.9516 0.11416-2.6396 0.25048-3.305 1.0378-5.0653 0.38666-0.86451 0.79723-1.8316 0.91239-2.149 0.40548-1.1178 2.2514-3.6298 4.2023-5.7188 3.6082-3.8635 5.6607-5.8542 6.4096-6.2168 0.4082-0.19761 0.98066-0.66771 1.3433-1.1031 0.3476-0.41735 1.0821-1.2445 1.6322-1.8381 1.0572-1.1408 1.0498-1.1222 1.2256-3.1128 0.0713-0.80743-0.11698-1.0082-0.94566-1.0082-0.26769 0-0.49997-0.0923-0.54812-0.21774-0.046-0.11976-0.30231-0.28995-0.56968-0.37818-1.8807-0.62067-5.1796-5.3152-5.1846-7.3778-0.004-1.6236-0.42781-4.74-0.74148-5.4513-0.14554-0.33-0.40519-1.005-0.577-1.5-0.17182-0.495-0.48137-1.305-0.6879-1.8-0.20652-0.495-0.39707-1.1025-0.42344-1.35l-0.0479-0.45 0.82312 0.0359c0.50135 0.0218 1.2343 0.20794 1.875 0.47607 2.0432 0.85504 7.0055 0.88807 9.1519 0.0609l0.75-0.28904-0.0387-1.0419c-0.0213-0.57304 0.0326-1.3794 0.11964-1.7919 0.20179-0.95586 0.20096-3.7071-0.001-4.3267-0.085-0.26032-0.22058-0.74331-0.30135-1.0733-0.0808-0.33-0.39184-0.9375-0.69126-1.35s-1.094-1.5228-1.7657-2.4674c-1.3291-1.869-3.1772-3.504-4.9988-4.4225-0.4799-0.24199-1.1763-0.59913-1.5476-0.79365-1.53-0.80166-4.3282-2.0445-5.55-2.465-0.45375-0.15617-1.365-0.54747-2.025-0.86954-1.9471-0.95019-3.03-1.142-3.3942-0.60127-0.14208 0.21096-0.59837 0.40041-1.4738 0.61191-0.69738 0.16848-1.4736 0.41322-1.725 0.54384-0.42919 0.22302-3.6278 1.1217-4.9611 1.3938-0.33225 0.0678-0.906 0.23346-1.275 0.36808-0.369 0.13464-1.1434 0.38364-1.7209 0.55335-2.2551 0.66273-2.6733 1.3401-2.8506 4.6174-0.0874 1.6156-0.27478 2.1032-0.81011 2.1083-0.13158 0.001-0.50122 0.0935-0.82141 0.20491-0.91213 0.31754-1.5228 0.058-2.1422-0.91018-1.5703-2.4548-4.8378-1.8338-5.6193 1.0679-0.0904 0.33553-0.22068 0.74506-0.28956 0.91006-0.19988 0.47879-0.23532 1.8492-0.0756 2.925 0.0551 0.37125 0.11957 0.945 0.14325 1.275 0.0577 0.80448 0.76537 3.086 1.3045 4.2059 0.23987 0.49827 0.43613 1.096 0.43613 1.3284 0 0.23232 0.16079 0.61349 0.3573 0.84704 0.73164 0.8695 1.0898 5.5735 0.5089 6.683-0.64294 1.228-0.86807 2.0106-0.57835 2.0106 0.20641 0 1.0601-0.50881 1.0612-0.63249 0.00045-0.0591 0.3112-0.45682 0.6904-0.88378 2.1199-2.3868 2.4464-7.2164 0.80004-11.834-0.33828-0.94875-0.64775-1.831-0.68771-1.9605-0.13409-0.43464 0.35717-0.67316 0.71657-0.3479 1.5285 1.3833 2.4783 5.6505 2.0701 9.3002-0.39158 3.5011 1.2353 2.6017 2.2721-1.2561 0.38905-1.4477 0.35213-3.592-0.0967-5.6137-0.46383-2.0893 0.72458-3.6716 2.0026-2.6662 0.27846 0.21903 0.50947 0.27935 0.81388 0.21248 0.39912-0.0877 0.44762-0.0423 0.79473 0.74254 0.39334 0.8894 1.273 2.3194 1.8081 2.9391 0.17806 0.20625 0.48385 0.77036 0.67954 1.2536 0.19568 0.48321 0.51317 1.0023 0.70552 1.1537 0.35097 0.27606 0.7268 0.75176 1.4757 1.8678 0.22144 0.33 0.68278 0.9375 1.0252 1.35s0.92257 1.2014 1.2892 1.753c0.36665 0.55167 0.80521 1.0791 0.97456 1.172s0.97641 0.92406 1.7935 1.847c0.81705 0.92289 1.8222 1.9817 2.2337 2.353 0.4115 0.37125 1.2582 1.2106 1.8815 1.8652 0.62334 0.65463 1.5815 1.6498 2.1293 2.2114 0.54779 0.56166 1.0416 1.2032 1.0975 1.4256 0.0558 0.22243 0.22202 0.57729 0.36932 0.78856 1.4427 2.0693 1.1672 5.2814-0.69189 8.0676-0.47898 0.71784-1.0734 1.6809-1.3209 2.1402-0.2475 0.45926-1.0575 1.6296-1.8 2.6008-0.7425 0.97121-1.485 2.0234-1.65 2.3381-0.165 0.31477-0.37845 0.66571-0.47434 0.77988-0.0959 0.11415-0.49175 0.81505-0.87969 1.5576-0.38794 0.7425-0.90317 1.5862-1.145 1.875-1.2001 1.4332-2.0258 2.4685-2.2568 2.8297-0.33958 0.53098-3.2463 3.1766-3.8464 3.5008-0.26008 0.14053-0.47289 0.36264-0.47289 0.49357 0 0.28049-0.41047 0.88692-1.3764 2.0335-1.5954 1.8937-1.7712 2.2828-1.7555 3.8859 0.025 2.567-0.50443 4.3406-1.5111 5.0622-0.32179 0.23066-0.68576 0.58812-0.80884 0.79437-0.12307 0.20625-0.56674 0.80135-0.98595 1.3224-0.41919 0.5211-0.76218 1.0169-0.76218 1.1019 0 0.0849-0.12447 0.33357-0.27661 0.55255-0.15214 0.21899-0.51507 0.83691-0.80651 1.3732-0.55036 1.0126-1.1672 2.1141-2.4895 4.4456-0.88649 1.563-0.89604 1.6043-0.44397 1.921 0.79438 0.55641 1.78 0.0586 2.4271-1.226 0.13424-0.26644 0.53208-0.84019 0.88408-1.275 1.0423-1.2874 2.0789-3.1757 2.4308-4.428 0.11906-0.42364 0.49694-0.43849 0.6497-0.0255 0.16476 0.44538-0.20463 2.4131-0.59525 3.171-0.18203 0.35314-0.42509 1.0133-0.54013 1.4671-0.11505 0.45375-0.26226 1.0315-0.32716 1.2838-0.0649 0.25233-0.23269 0.63386-0.3729 0.84783-0.14021 0.21399-0.26835 0.67919-0.28477 1.0338l-0.0299 0.64473 0.9 0.24186c0.495 0.13302 1.0012 0.28292 1.125 0.33309 0.45758 0.18551 0.72131 0.1007 1.5881-0.51076zm60.348-38.873c-0.43514-2.2563-1.7487-4.1469-3.5862-5.1617-0.53625-0.29615-1.4138-0.85581-1.95-1.2437-0.53625-0.38789-1.777-1.1352-2.7571-1.6606-0.98017-0.52546-1.8783-1.1022-1.9959-1.2817-0.11758-0.17944-0.57805-0.50449-1.0233-0.72232-1.1398-0.55767-2.6804-2.3309-2.025-2.3309 0.0818 0 0.44974 0.22979 0.81769 0.51065 0.36793 0.28086 1.0488 0.69033 1.513 0.90994 0.46422 0.21962 1.1477 0.63107 1.5188 0.91436 0.37111 0.28327 0.75886 0.51505 0.86166 0.51505 0.2697 0 2.5984 1.1974 4.5151 2.3218 1.8483 1.0842 2.1247 1.1558 2.2674 0.5875 0.62856-2.5044-5.0495-9.0592-7.8474-9.0592-1.0778 0-0.54594-0.7617 1.0544-1.5102 0.99602-0.46587 1.063-0.47628 2.4237-0.3764 1.5878 0.11654 1.7457 0.0323 1.3221-0.70498-0.73557-1.2805-3.3734-2.1037-5.6224-1.7545-1.2033 0.18681-1.5869 0.30597-2.9101 0.90399-1.4929 0.67475-5.6145 0.36519-7.1628-0.53793-0.56089-0.32719-1.3136-0.76486-1.6728-0.9726-0.35913-0.20773-0.92444-0.59586-1.2562-0.8625-1.3343-1.0723-1.4259 0.055-0.25729 3.1656 0.85895 2.2862 1.2528 3.066 1.8509 3.664 0.31417 0.31417 0.76122 0.82033 0.99346 1.1248 0.42609 0.55865 2.9188 2.6917 3.9561 3.3852 0.30855 0.20631 0.76452 0.54958 1.0133 0.76282 0.93298 0.79982 3.8496 2.0817 6.2977 2.768 1.8658 0.52303 2.4333 0.78255 3.214 1.4697 0.37131 0.32684 1.2332 0.89844 1.9152 1.2702 1.3143 0.7164 3.2235 2.4295 3.4252 3.0733 0.41827 1.3351 1.337 2.0261 1.1068 0.8325zm-97.213-96.71c0.02859-0.19616-0.02879-0.62624-0.1275-0.95573-0.83947-2.8019-0.11761-8.6358 1.6021-12.947 0.79825-2.0014 0.82238-1.934-0.7382-2.0615-0.68109-0.0556-1.7249-0.19768-2.3195-0.31568-0.59465-0.11801-1.3709-0.21616-1.725-0.21812-0.3541-0.002-1.0488-0.17039-1.5438-0.3743s-1.1237-0.37106-1.397-0.37144c-0.58642-0.00075-3.3611-1.154-4.269-1.7742-0.34869-0.23821-0.88906-0.51624-1.2008-0.61786-0.31176-0.10161-0.91192-0.41696-1.3337-0.70079-0.42176-0.28382-1.7305-0.98679-2.9083-1.5621l-2.1415-1.0461-1.0998 0.14562c-0.60491 0.0801-1.8423 0.17926-2.7498 0.22039-0.9075 0.0411-2.6288 0.15065-3.825 0.24338-1.1962 0.0927-4.8075 0.20217-8.025 0.2432-3.2175 0.041-6.4912 0.0834-7.275 0.0941-4.5444 0.0622-8.6269-0.71619-9.6589-1.8415-1.1575-1.2621-2.1248-1.5184-3.9296-1.0408-0.65257 0.17266-1.4101 0.36901-1.6835 0.43634-0.27334 0.0673-0.76127 0.29732-1.0843 0.51108-0.32302 0.21376-0.65214 0.38866-0.7314 0.38866-0.07925 0-0.45942 0.27291-0.84482 0.60647-0.3854 0.33357-1.1489 0.83346-1.6966 1.1109-0.54774 0.27742-1.4338 0.85752-1.969 1.2891-0.5352 0.43159-1.2439 0.90324-1.575 1.0481-1.6 0.70016-2.6772 1.2759-4.0519 2.1656-0.825 0.53394-2.175 1.3487-3 1.8106-3.0959 1.7334-3.8839 2.556-2.9349 3.0639 0.84491 0.45218 4.8194-1.0344 7.2099-2.6967 0.20625-0.14342 0.60178-0.3099 0.87896-0.36995 0.27718-0.0601 0.86973-0.27094 1.3168-0.46865 2.5451-1.1256 1.5275 0.56309-1.32 2.1905-0.21652 0.12375-1.059 0.78435-1.8722 1.468-0.81319 0.68365-1.816 1.4035-2.2285 1.5996-1.1459 0.54485-1.4525 0.94583-1.3965 1.8266l0.046 0.74 1.875-0.05c4.6404-0.10705 7.3467-0.99479 9.675-3.1736 0.33-0.30882 0.81452-0.70811 1.0767-0.88731 0.77248-0.528 0.90682-1.2058 0.41725-2.1053-0.46994-0.86343-0.40437-1.063 0.3524-1.0724 0.46653-0.006 0.71611-0.15619 1.5861-0.95541 2.6615-2.445 3.8123-2.5864 5.8233-0.71566l0.7058 0.65655 1.4692-0.0522c1.7452-0.062 2.6272-0.42635 3.4698-1.4335 0.92188-1.1018 2.5293-1.4664 4.5244-1.0261 1.3829 0.30515 2.8151 0.49234 5.2161 0.6817 1.0126 0.0799 2.2276 0.2423 2.7 0.36096 0.47238 0.11867 1.3989 0.25299 2.0589 0.2985 3.9032 0.26913 4.7181 0.61225 6.44 2.7118l0.58997 0.71937 1.4405-0.0992c2.3897-0.16459 3.8807 0.72026 8.1046 4.8096 0.70125 0.67892 1.5788 1.4515 1.95 1.7169 0.37125 0.2654 0.97257 0.74258 1.3363 1.0604 0.36369 0.31781 1.2412 0.91502 1.95 1.3271 0.70881 0.41211 1.66 1.0491 2.1137 1.4155 0.45375 0.36642 1.2638 0.98324 1.8 1.3707 0.53625 0.38747 1.1914 0.90732 1.4559 1.1552 1.4231 1.3337 3.3695 2.1464 3.471 1.4494zm42.773-0.12c0-1.3364 1.1386-3.1915 2.3056-3.7564 0.36013-0.17434 0.78182-0.45765 0.9371-0.62959 0.45443-0.5032 1.7856-1.101 4.4697-2.0072 5.1756-1.7475 7.7611-3.656 10.665-7.8727 0.92871-1.3486 3.0727-5.4264 3.0727-5.8442 0-0.32664 0.88887-1.7694 1.1524-1.8705 0.75885-0.2912 0.28289 1.9727-0.92615 4.4051-0.43321 0.87157-0.83767 1.7534-0.89881 1.9597-0.0611 0.20625-0.26321 0.54375-0.44903 0.75-0.18583 0.20625-0.66018 0.915-1.0541 1.575s-0.80223 1.2507-0.90733 1.3127c-0.10511 0.062-0.33765 0.56824-0.51675 1.125s-0.45886 1.2291-0.6217 1.4942c-0.26898 0.4378-0.28154 0.5863-0.1373 1.6234 0.0873 0.6278 0.15876 1.4458 0.15876 1.8178 0 0.66184 0.1623 1.0552 1.4316 3.4703 0.72182 1.3733 1.6237 1.9323 2.9133 1.8057 0.88969-0.0873 0.93675-0.49919 0.13968-1.2225-2.0424-1.8535-3.0652-4.9782-2.1413-6.5421 0.22765-0.38538 0.24296-0.51691 0.0889-0.7636-0.3938-0.63058 1.2033-2.7622 3.2619-4.3536 5.1145-3.9538 7.3271-8.5441 5.4136-11.231-0.32014-0.44959-0.3579-0.46086-1.5441-0.46086-1.9732 0-3.5924-0.97012-5.6148-3.364-0.51106-0.60493-0.81902-0.48979-1.2876 0.48141-0.48347 1.0021-2.0468 3.1545-2.4547 3.3796-0.15489 0.0855-0.72037 0.5038-1.2566 0.92961-0.53625 0.42581-1.1384 0.86131-1.3382 0.96778-0.19975 0.10647-0.52195 0.38225-0.716 0.61286-0.19404 0.23061-0.65963 0.56782-1.0346 0.74936-0.37501 0.18154-0.86281 0.47942-1.084 0.66196-0.71837 0.59286-2.2213 1.3043-4.4522 2.1074-0.4125 0.1485-1.3575 0.32966-2.1 0.40258-3.2124 0.31547-7.2757 1.4014-8.5929 2.2965-0.30345 0.2062-0.67583 0.37491-0.8275 0.37491s-0.59163 0.25925-0.97768 0.57612-1.032 0.76401-1.4354 0.99365c-2.2823 1.2991-4.4576 4.471-4.6638 6.8005-0.14868 1.6797 0.87008 4.8979 1.1838 3.7397 0.0276-0.10174 0.16001-0.56216 0.29433-1.0232 0.13431-0.461 0.24421-0.92884 0.24421-1.0396 0-1.6948 4.4407-4.7254 8.1285-5.5474 0.68556-0.15281 1.5165-0.34866 1.8465-0.43522 0.33-0.0866 1.1432-0.15899 1.807-0.16096 1.9246-0.006 4.5666-0.64007 6.5761-1.5789 1.8616-0.86981 2.631-1.3749 4.9303-3.2369 1.0942-0.88602 3.4116-4.8491 3.4116-5.8342 0-0.66188 0.29319-1.1058 0.68098-1.0312 0.41162 0.0793 0.57575 1.1765 0.30952 2.0692-0.17825 0.59768-0.42484 1.0905-1.4407 2.8792-0.83226 1.4654-4.1382 4.4792-4.9134 4.4792-0.0798 0-0.3894 0.18562-0.68791 0.4125-1.0369 0.78804-1.6796 1.1314-2.7701 1.4797-0.60313 0.19267-1.2704 0.48699-1.4827 0.65404-0.21238 0.16706-0.59641 0.30435-0.85341 0.30511-0.257 0.00075-0.80477 0.16739-1.2173 0.37031-0.4125 0.20291-0.8175 0.37133-0.9 0.37425-0.7628 0.0271-3.9295 2.7517-4.2042 3.6174-0.0624 0.19675-0.28457 0.61615-0.4936 0.93202s-0.43228 0.92425-0.49612 1.352c-0.0638 0.42772-0.17805 1.1396-0.25382 1.582-0.18336 1.0707 0.22713 2.4927 0.85977 2.9784 0.33782 0.25937 0.463 0.23451 0.463-0.0919zm76.05 0.1717c0-0.18136-2.967-2.9208-3.5258-3.2561-0.2808-0.1685-0.8679-0.54702-1.3047-0.84117-1.136-0.76504-2.7534-1.3897-4.9941-1.9289-3.3711-0.81118-6.0604-1.7058-7.0414-2.3425-0.16972-0.11016-0.81484-0.36942-1.4336-0.57615-0.61875-0.20673-1.6667-0.64093-2.3287-0.9649-0.66205-0.32397-1.4365-0.64016-1.721-0.70266-1.0183-0.22364-2.2278-1.1372-4.5182-3.4126-0.89273-0.88688-1.6969-1.6125-1.787-1.6125-0.18758 0-0.91863-1.5472-1.2049-2.55-0.10598-0.37125-0.25802-0.76105-0.33786-0.86621-0.0799-0.10516-0.32564-0.84313-0.54618-1.6399-0.64554-2.3322-1.0842-2.3371-1.1124-0.0126-0.042 3.4672 0.98979 6.9688 2.7186 9.226 0.23916 0.31224 0.73361 0.9672 1.0988 1.4555 1.4988 2.0041 4.7048 4.828 6.4389 5.6716 0.20625 0.10033 0.68464 0.36894 1.0631 0.59691 0.62959 0.37926 1.8227 0.69868 3.8119 1.0206 0.4125 0.0667 1.3575 0.2585 2.1 0.42613 0.7425 0.16762 1.755 0.3724 2.25 0.45506 0.495 0.0827 1.5365 0.28906 2.3144 0.45867 0.77793 0.1696 1.6554 0.3098 1.95 0.31154 0.29457 0.002 1.0081 0.17019 1.5856 0.37434 1.1122 0.39318 1.9118 0.46511 2.5353 0.22807 0.34182-0.12996 3.0009 0.30566 3.2233 0.52806 0.11256 0.11256 0.7664 0.0732 0.76596-0.0461zm-18.924-10.293c0.0366-0.19166-0.32215-0.64203-1.135-1.425-0.65364-0.62962-1.5139-1.6173-1.9118-2.1948-0.39783-0.5775-0.91172-1.2525-1.142-1.5-0.42581-0.45768-1.5159-2.5427-1.6862-3.225-0.0515-0.20625-0.30297-0.59643-0.5589-0.86707s-0.73165-1.0806-1.0572-1.8c-0.32553-0.71936-0.72518-1.5576-0.88814-1.8626-0.16294-0.3051-0.29596-0.6426-0.2956-0.75 0-0.10741-0.16238-0.73528-0.36167-1.3953-0.76353-2.5287-0.84412-2.8904-0.95247-4.275-0.37314-4.7678 1.0827-9.0884 3.4705-10.3 0.2574-0.13059 0.738-0.45533 1.068-0.72162 2.9757-2.4013 8.3873-1.7053 9.8863 1.2715 0.18693 0.37125 0.48368 0.945 0.65942 1.275 0.17575 0.33 0.35317 0.76875 0.39427 0.975 0.21707 1.0893 3.7067 5.317 4.5739 5.5413 3.9103 1.0114 7.9017-0.1592 7.572-2.2207-0.0634-0.39619-0.0136-0.72672 0.1594-1.0615 0.30998-0.59943 0.20934-0.90909-0.29544-0.90909-0.35338 0-2.0035-0.56144-3.4408-1.1707-0.61603-0.26114-1.574-1.1411-2.5733-2.3638-0.32214-0.39414-0.94261-1.0548-1.3788-1.4681-0.43622-0.41333-0.93438-1.0028-1.107-1.31-0.20549-0.36563-0.67443-0.78366-1.3578-1.2104-0.57415-0.35856-1.3389-0.86879-1.6995-1.1339-2.0423-1.5014-5.2054-2.2056-7.3366-1.6332-0.49171 0.13206-1.0353 0.24012-1.2079 0.24012-0.91722 0-4.277 2.1094-5.4446 3.4184-0.982 1.1009-2.7537 3.5054-2.9775 4.041-0.1256 0.30061-0.40683 0.78054-0.62495 1.0665-0.30111 0.39478-0.44067 0.83038-0.57972 1.8095-0.10072 0.70928-0.25062 1.6271-0.33312 2.0396-0.37614 1.881-0.4615 2.6625-0.46231 4.2323 0 1.0125 0.0808 1.9381 0.20436 2.325 0.11287 0.35351 0.35586 1.3178 0.53995 2.1428 0.23031 1.0321 0.47282 1.6981 0.77735 2.135 0.24343 0.34928 0.73725 1.2699 1.0974 2.0458 0.36014 0.77593 0.72956 1.457 0.82094 1.5135 0.0914 0.0565 0.35938 0.52887 0.59557 1.0498 0.53043 1.1698 1.5244 2.6525 1.99 2.9684 0.1917 0.13008 0.82104 0.68664 1.3985 1.2368 0.5775 0.55017 1.3538 1.1759 1.725 1.3905 0.37125 0.21459 0.95415 0.64207 1.2953 0.94995 0.34119 0.30789 0.81861 0.66231 1.0609 0.78762 0.24231 0.12531 0.531 0.33679 0.64152 0.46996 0.25995 0.31323 0.80873 0.23345 0.87759-0.12758zm-65.362-4.1517c0.31796-0.16221 0.79936-0.48912 1.0698-0.72647 0.49526-0.43469 1.7356-1.246 2.2917-1.4989 1.3918-0.63317 3.244-1.3677 3.4487-1.3677 0.138 0 0.73475-0.16605 1.3261-0.36899 1.1259-0.38639 1.5933-0.48052 4.9002-0.98699 2.3591-0.36131 5.1684-1.4042 6.9209-2.5692 0.44225-0.29399 1.0195-0.6627 1.2829-0.81935 0.45732-0.27207 1.5568-1.1318 2.9928-2.3401 0.84295-0.70932 2.6622-2.928 3.1442-3.8343 0.20236-0.38059 0.47385-0.80902 0.60331-0.95207 0.2697-0.29802 0.23335-0.37996-0.60206-1.3571-0.62351-0.72925-0.8393-0.78681-0.8457-0.22558-0.004 0.39409-1.0128 1.5011-1.683 1.8476-1.0093 0.52193-3.37 0.53375-6.7133 0.03363-5.1391-0.76876-11.31 2.5919-13.77 7.4994-1.9579 3.9053-5.4444 6.473-8.7893 6.473-0.89377 0-1.0562 0.18276-0.45714 0.51428 0.15974 0.0884 0.48241 0.28775 0.71704 0.44302 1.1132 0.73666 2.9748 0.84209 4.1632 0.23578zm41.357-12.106c-1.7563-1.8056-2.5872-6.3974-1.6896-9.3375 0.11333-0.37125 0.31415-1.4512 0.44627-2.4 0.13212-0.94875 0.30987-2.1975 0.39501-2.775 0.49001-3.3237-0.78742-8.1962-1.9055-7.2682-0.29206 0.24239-1.2541 1.9128-1.3626 2.366-0.13265 0.55388-0.43247 1.1346-1.1757 2.2772-0.4354 0.66935-0.69496 1.2807-0.82796 1.95-0.10655 0.53625-0.35003 1.3546-0.54106 1.8186-0.58783 1.4277-0.91854 7.727-0.47939 9.1314 0.40588 1.298 1.8855 3.3 2.439 3.3 0.31044 0 0.31705 0.0365-0.39404-2.175-0.76863-2.3904-0.79408-4.4425-0.0474-3.8228 0.11795 0.09789 0.26068 0.42433 0.31716 0.72541 0.0984 0.5244 0.54237 1.8122 1.2618 3.66 0.35859 0.92095 2.4802 3.0191 3.1935 3.1582 1.0666 0.20798 1.1043 0.14605 0.3706-0.60829zm-6.58-0.42c0-0.0448-0.26292-0.43292-0.58426-0.8625-1.6868-2.255-2.204-7.7798-1.0526-11.244 0.15777-0.4747 0.28686-0.96199 0.28686-1.0829 0-0.78576 2.1967-5.7807 3.1166-7.0866 0.16173-0.2296 0.3445-0.5862 0.40615-0.79245 0.0616-0.20625 0.27172-0.58819 0.46683-0.84876 0.92942-1.2412 2.5938-5.9535 2.7731-7.8512 0.22825-2.4164-0.42144-6.4556-1.1334-7.0465-0.53019-0.44002-1.0307 0.04956-0.91817 0.89808 0.12894 0.97198-0.15299 3.192-0.4927 3.8798-0.14769 0.29902-0.35537 0.94867-0.4615 1.4437-0.23952 1.1171-1.2002 2.9028-1.8005 3.3466-0.24756 0.18304-0.71534 0.69181-1.0395 1.1306-0.32417 0.43881-1.3268 1.4462-2.2281 2.2387-1.1101 0.97611-1.8962 1.8188-2.4369 2.6125-0.43897 0.64437-0.94814 1.3403-1.1315 1.5466-0.18334 0.20625-0.48245 0.8475-0.6647 1.425-0.18224 0.5775-0.52844 1.4314-0.76934 1.8975-0.82168 1.59-0.87672 5.4899-0.1087 7.7025 0.0859 0.2475 0.24175 0.75375 0.34632 1.125 0.43834 1.5564 0.98143 2.346 3.5003 5.0891 1.292 1.407 3.9257 3.0705 3.9257 2.4795zm22.934-1.6454c0.11616-0.24649 0.4102-0.67747 0.65343-0.95772 0.97413-1.1225 1.2934-2.5444 1.0247-4.5635-0.37966-2.853-1.0149-3.0693-1.2822-0.43648-0.0914 0.90057-0.60048 2.2195-1.1696 3.0304-0.3048 0.43429-0.33657 1.3743-0.0882 2.6109 0.19537 0.97282 0.49984 1.0846 0.86185 0.31643zm-0.46471-6.4786c0.0655-1.0205 0.0498-1.0946-0.23201-1.0946-0.38141 0-0.61188 1.6025-0.33515 2.3304 0.24897 0.65485 0.47783 0.15621 0.56715-1.2358zm29.296-2.3168c0.28043-0.09475 0.65225-0.28038 0.82624-0.4125 0.17402-0.13212 0.69715-0.52923 1.1625-0.88246 1.0655-0.80874 1.0446-1.5207-0.0277-0.94675-2.424 1.2973-6.3325-0.89229-8.0469-4.5079-1.3219-2.7878-1.9155-3.5918-3.3818-4.5801-2.6944-1.8161-6.4885-2.5342-9.0603-1.715-0.50167 0.1598-1.0966 0.33126-1.3221 0.38102s-0.73972 0.37634-1.1427 0.72574c-0.403 0.3494-0.98169 0.82681-1.286 1.0609-0.58931 0.45341-0.67823 0.95741-0.15555 0.88176 1.8525-0.26815 4.5548-0.10076 5.5182 0.34182 0.91175 0.41885 2.1286 1.1451 2.5011 1.4928 0.20625 0.19249 0.66 0.49282 1.0083 0.66741 0.801 0.40146 1.6433 1.1369 1.9241 1.68 0.11943 0.23095 0.76658 0.9803 1.4381 1.6652 0.67152 0.68493 1.3198 1.3959 1.4405 1.5798 0.44744 0.68177 3.9897 2.3009 5.6342 2.5753 1.1482 0.1916 2.3905 0.18863 2.9698-0.0071zm-59.708-8.3877c0.97719-1.7877 1.8887-2.8837 5.044-6.065 3.3403-3.3678 3.1614-3.1195 4.3775-6.075 0.63943-1.554 0.95535-3.1998 0.80917-4.2155-0.12786-0.88844-0.25172-0.96712-1.6124-1.0241-0.33-0.01383-1.14-0.25357-1.8-0.53276-1.4038-0.59382-1.4695-0.56288-1.501 0.70624-0.0425 1.7116-1.1757 3.9683-2.8875 5.7503-2.0287 2.1118-3.6365 4.3173-3.6365 4.9882 0 0.22601-0.0925 0.54407-0.20565 0.7068-0.73072 1.0513-0.78199 5.2386-0.0759 6.1988 0.60918 0.82835 0.83187 0.76283 1.4882-0.43787zm-45.186-3.589c2.1599-1.6248 4.7912-6.0047 3.6007-5.9935-0.89631 0.0084-1.5825 0.52573-1.8309 1.3802-0.12972 0.44623-0.43982 1.0769-0.6891 1.4014-0.24928 0.32454-0.69283 0.9347-0.98566 1.3559s-0.68122 0.8476-0.86308 0.94757c-0.56175 0.30878-1.1811 1.2252-0.98648 1.4597 0.29548 0.35603 0.72989 0.21953 1.7546-0.5513zm55.986-15.26c0.32229-0.22688 0.56932-0.50409 0.54897-0.61603-0.0355-0.19535-0.2235-0.30904-1.7912-1.0834-0.91115-0.45002-2.1739-1.6831-2.2968-2.2429-0.0528-0.2405-0.36091-0.82718-0.68464-1.3037-0.32373-0.47656-0.58876-0.98081-0.58895-1.1206-0.00015-0.13975-0.23661-0.84011-0.52536-1.5564-0.6676-1.656-0.67479-2.1777-0.0266-1.929 0.21978 0.08433 1.0775 1.9369 1.4536 3.1394 0.1032 0.33 0.40755 0.97908 0.67632 1.4424s0.53525 0.98915 0.59217 1.1685c0.80587 2.5391 7.4262 3.2012 9.717 0.97187 0.95434-0.92874 0.99063-0.90119-1.3148-0.99786-2.9085-0.12194-4.043-0.99355-4.9266-3.7849-0.97652-3.0849-3.3225-6.5923-5.1961-7.7684-1.1795-0.74044-4.41-0.62018-5.6882 0.21176-0.36477 0.23741-0.71914 0.43166-0.7875 0.43166-0.23309 0-0.12476 0.34798 0.32795 1.0535 0.52731 0.82174 0.57304 1.38 0.30136 3.6783-0.17839 1.5091-0.0323 3.6327 0.27719 4.0301 0.0699 0.08971 0.16729 0.3761 0.21653 0.63643 0.64243 3.3967 7.3614 7.2965 9.7157 5.6392zm-33.86-16.919c1.8856-0.61584 4.1976-1.7868 5.1104-2.5883 0.30028-0.26365 0.63536-0.47936 0.74462-0.47936 0.10927 0 0.56255-0.19398 1.0073-0.43106 0.44474-0.23708 1.3064-0.57177 1.9149-0.74375 1.6264-0.4597 1.6274-0.62494 0.009-1.4344-1.9222-0.96162-3.5915-0.75372-7.4156 0.92358-0.7425 0.32567-1.6177 0.64146-1.9448 0.70175-0.32715 0.0603-0.79349 0.21236-1.0363 0.33793-1.0106 0.52259-2.6442-0.02889-3.4724-1.1722-0.5998-0.82804-0.59478-0.80379-0.50887-2.4568 0.0129-0.2475-0.123-0.95625-0.30191-1.575-1.1895-4.1138-0.0723-8.2782 1.7577-6.5519 1.7822 1.6811 2.671 1.9269 3.3531 0.92693 0.77156-1.1311 0.48994-1.7433-1.1434-2.4852-1.0132-0.46026-2.3111-1.6192-2.6364-2.3541-1.1414-2.5785-3.8081 3.7735-3.0604 7.2895 0.0839 0.39432 0.0343 0.59755-0.23412 0.96066-0.27562 0.37279-0.3078 0.5129-0.16888 0.73534 0.41414 0.66315-0.0657 1.2671-0.62028 0.78079-0.40726-0.35714-1.5847-0.34572-3.1831 0.03088-0.5775 0.13606-1.5012 0.28172-2.0527 0.32367-0.5515 0.04196-1.032 0.15329-1.0678 0.24741-0.11215 0.29502 0.15855 0.80538 0.58019 1.0939 0.2229 0.1525 0.6364 0.52237 0.9189 0.82194 1.1256 1.1937 4.5245 1.4742 5.8356 0.4817 0.52057-0.39407 1.1108-0.46573 1.1108-0.13485 0 0.11909-0.18563 0.3314-0.4125 0.4718-4.5488 2.8151 1.2908 8.1167 6.9166 6.2793zm-13.55-1.482c2.5464-0.46105 3.6205-1.0735 4.0014-2.2818 0.32437-1.029 0.49922-0.95905-2.5446-1.0185-1.4466-0.02826-2.6943-0.09101-2.7727-0.13946s-0.71854-0.15354-1.4225-0.23354c-2.33-0.26475-4.2186-1.4306-5.3158-3.2815-0.66934-1.1291-1.4177-0.16496-1.2241 1.577 0.06218 0.55933 0.11651 1.1382 0.12075 1.2863 0.0042 0.14812 0.19333 0.45187 0.4202 0.67499 0.22688 0.22312 0.71625 0.83623 1.0875 1.3625 0.86357 1.2241 2.5953 2.0348 4.05 1.896 0.57581-0.05493 0.93827-0.01221 1.2 0.14143 0.4653 0.27314 0.96408 0.27659 2.4 0.01661zm12.938-3.4601c1.78-0.48039 2.2853-0.66765 3.1118-1.1532 0.37125-0.2181 0.9689-0.48268 1.3281-0.58796 1.2682-0.37167 0.67694-1.7745-1.4082-3.3412-0.34286-0.25761-0.96863-0.74831-1.3906-1.0905-0.42197-0.34214-1.2593-0.80776-1.8608-1.0347-1.6829-0.63504-2.4945-1.0837-3.2665-1.8058-1.1756-1.0996-1.5154-0.72221-1.2168 1.3517 0.0823 0.57148 0.12346 1.0814 0.0915 1.1331-0.032 0.05172 0.0103 0.39415 0.0939 0.76095 0.12351 0.54204 0.10561 0.75392-0.0956 1.1315-0.24193 0.45397-0.237 0.4812 0.21667 1.1966 0.25533 0.40261 0.42719 0.82855 0.38192 0.94653-0.0453 0.11798 0.0884 0.47245 0.29702 0.78772 0.20864 0.31527 0.37934 0.70817 0.37934 0.87312 0 0.21399 0.24708 0.4262 0.8625 0.74075 1.0645 0.54408 0.83073 0.53544 2.4757 0.0915zm-1.5936-1.2871c-0.93423-0.73487-2.1946-3.4322-2.1946-4.6967 0-0.50734 0.41332-1.197 0.53983-0.90073 0.26904 0.63 0.47028 0.74137 0.80017 0.44282 0.46973-0.4251 0.64855-0.13292 0.74965 1.2249 0.10351 1.39 0.63818 2.3471 1.5529 2.7798 0.40903 0.19348 0.55744 0.35702 0.55744 0.61425 0 0.81029-1.2364 1.1406-2.0054 0.53569zm10.144-4.0926c0.76241-0.44221 1.7237-1.0154 2.1362-1.2737 0.42625-0.26695 1.527-0.69064 2.55-0.98151 1.5014-0.42688 1.8498-0.58198 2.1-0.9348 0.165-0.23265 0.64439-0.79604 1.0653-1.252 1.3626-1.476 2.2762-3.063 1.5972-2.7746-2.141 0.90935-5.6961 1.1815-7.9032 0.605-1.085-0.28342-3.9897-0.43276-4.7243-0.24288-0.29428 0.07606-0.82804 0.21458-1.1862 0.30783-0.36658 0.09546-0.92372 0.41541-1.275 0.73221-0.68872 0.62113-1.654 1.2184-1.9691 1.2184-0.32286 0-0.97946 0.87287-0.87753 1.1666 0.13908 0.40075 0.51128 0.6334 1.0139 0.6338 0.28878 0.0003 0.79106 0.22604 1.3553 0.60929 0.49304 0.33491 1.2993 0.82366 1.7917 1.0861 0.49238 0.26244 1.2365 0.79568 1.6536 1.185 0.95232 0.88891 0.99581 0.88754 2.6721-0.08474zm-20.37-0.409c0.7425-0.09669 1.7876-0.18386 2.3223-0.19373 1.1446-0.02111 1.4784-0.40769 0.57432-0.6653-0.27316-0.07784-0.80458-0.43652-1.1809-0.79708-1.1398-1.092-3.0456-1.4921-4.1114-0.86322-0.40216 0.23728-0.90525 0.34134-1.9944 0.4125-1.9227 0.12562-2.0589 0.78671-0.36652 1.7785 1.1223 0.65771 1.8443 0.70754 4.7566 0.3283zm-3.75-3.436c2.5155-0.57152 2.4468-0.52113 1.9749-1.4482-0.92906-1.8253-2.6215-2.5428-4.8846-2.0707-0.61032 0.12733-1.2853 0.21834-1.5 0.20226-1.6576-0.1242-1.9115 0.06065-1.3965 1.0166 0.88217 1.6376 3.7396 2.7695 5.8062 2.3zm-4.12-4.676c1.9198-0.25769 2.2097-0.49302 1.2817-1.0406-0.28509-0.16821-0.55957-0.43571-0.60995-0.59445-0.22795-0.71821-1.2506-1.0496-3.3964-1.1007-1.1002-0.02618-2.3884-0.10009-2.8628-0.16424-2.2753-0.30768-0.4874 1.8378 2.3619 2.8341 1.0032 0.35082 1.0894 0.35257 3.2256 0.06583zm-2.9625-3.9334c0.60759-0.46123 0.14701-1.2821-0.9375-1.6709-1.9157-0.68677-1.9576-0.69297-3.975-0.5878-2.2783 0.11876-2.6425 0.23288-2.2249 0.697 0.42966 0.47755 1.8035 1.0205 2.5821 1.0205 0.38216 0 0.93063 0.07502 1.2188 0.1667 1.6425 0.52253 2.9484 0.6691 3.3365 0.37449zm-5.0153-3.5324c1.8364-0.15212 1.7149-0.07103 1.4252-0.95124-0.184-0.56-0.319-0.731-0.629-0.799-0.217-0.047-0.664-0.189-0.994-0.315-2.3153-0.88345-6.7036-0.36663-5.5377 0.65218 1.7031 1.4882 2.4841 1.6804 5.7349 1.4111zm-2.612-3.771c0.6433-0.59253-1.7905-1.9461-3.7891-2.1074-3.6241-0.29245-3.8454 0.09148-1.0075 1.7471 1.0181 0.59396 4.2771 0.83875 4.7966 0.36028zm-2.4144-3.8424c-0.174-1.125-1.416-1.62-4.022-1.605-3.1032 0.01765-3.8 0.22594-3.0375 0.90797 1.089 0.97411 1.7371 1.1189 5.467 1.2217l1.6795 0.04627-0.08781-0.57127zm-5.1865-2.9133c0.79737-0.13886 0.9419-0.20848 0.85623-0.4125-0.057-0.137-0.148-0.45-0.203-0.697-0.164-0.7388-0.665-0.877-3.613-0.9969-3.2386-0.13171-3.9482 0.05144-2.7 0.69689 0.2475 0.12799 0.45 0.28223 0.45 0.34277 0 0.75886 3.2053 1.4142 5.2097 1.0652zm-3.78-3.6513c0.9151-0.38235 0.42116-1.8279-0.81079-2.3729-0.72595-0.32112-3.5648-0.29028-3.7695 0.04095-0.88267 1.4282 2.5547 3.1782 4.5803 2.3319zm-4.28-4.1046c0-0.2232-0.816-0.898-1.56-1.2905-0.74-0.3904-1.89-0.5304-1.89-0.2302 0 0.32035 0.46322 1.0391 0.77842 1.2078 0.551 0.2947 2.672 0.543 2.672 0.3129z"/>
</svg>
