<?xml version="1.0" encoding="utf-8"?>

<!DOCTYPE svg PUBLIC "-//W3C//DTD SVG 1.1//EN" "http://www.w3.org/Graphics/SVG/1.1/DTD/svg11.dtd">
<svg version="1.1" id="Layer_1" xmlns="http://www.w3.org/2000/svg" xmlns:xlink="http://www.w3.org/1999/xlink" x="0px" y="0px"
	 viewBox="0 0 1642.235 1637.275" enable-background="new 0 0 1642.235 1637.275" xml:space="preserve">
<g>
	<path fill="#010101" d="M1514.186,17.6c57.752,5.75,98.848-9.111,108.485,36.323c0,0,0.67,1366.179,0.67,1366.18
		c-1.713,182.025,3.253,161.951-6.536,179.306c-9.765,17.316-37.024,15.029-42.211,15.318c-53.213,0.721-6.315,3.812-135.413-0.449
		c-11.872-1.268-70.56,3.393-96.553,1.033c-63.125-6.943-1303.007,2.288-1303.007,2.288c-19.072-8.647-20.389-29.186-21.968-45.995
		C21.532,1390.278,18.736,52.942,24.003,45.17c8.997-13.703,15.311-20.74,42.688-19.445c897.398,1.102,1245.04-6.008,1418.826-6.75
		C1495.09,18.947,1504.62,18.127,1514.186,17.6 M695.055,31.05c-9.906,0.734-639.59,2.216-640.644,2.217
		c-10.435,0.05-18.981,8.382-22.574,17.641c-4.599,9.381-2.372,17.173-2.979,43.437c0.497,56.551-0.905,557.306-0.905,557.306
		c13.741-5.798,10.182-17.071,21.64-2.922c2.815-2.509,5.574-5.061,8.397-7.555c-2.502-3.314-5.438-6.508-6.558-10.599
		c0.435-7.89,5.253-15.446,12.338-18.995c2.388-1.269,5.111-0.307,7.598,0.1c1.162-2.944,2.26-5.895,3.564-8.767
		c-10.536-5.991-11.371-14.259-5.032-24.356c3.036-5.061,8.938-7.192,12.573-11.711c3.414-3.471,6.429-7.591,10.963-9.694
		c12.081-8.34,21.497,9.003,21.355,24.12c3.885-4.868,8.026-9.615,13.586-12.63c-0.734-3.279-2.566-6.394-2.53-9.815
		c1.397-6.6,7.62-10.578,13.792-12.01c-4.082-16.327-0.026-23.313,13.414-31.127c7.178-3.842,15.695-4.049,23.294-1.475
		c-12.332-25.772-38.481-110.732-53.494-146.433c-15.59,2.828-30.729,5.692-44.991-21.697c-4.049-8.971-10.388-22.207-2.587-28.076
		c5.075-3.5,10.599-6.636,16.786-7.534c-11.924-30.32-14.374-31.952-18.988-62.867c-3.896-44.401,8.51-54.286,17.107-67.978
		c3.7-5.188-9.572-27.92-14.37-45.917c-0.278-2.381,2.452-3.685,3.671-5.41c7.273,10.754,14.101,37.515,19.951,46.63
		c11.404,12.031,33.777,13.527,61.313,100.53c6.28-3.728,12.602-8.846,20.378-8.332c2.238-0.934,4.483,0.378,5.624,2.16
		c1.8,2.249,18.126,25.071,13.536,45.525c-2.857,14.418-19.998,19.57-23.465,24.341c0.064,3.678,1.803,6.921,3.443,10.086
		c5.845-3.471,12.053-7.106,19.195-6.158c1.447,2.003,2.937,4.034,4.405,6.051c3.778-1.796,7.62-3.45,11.404-5.246
		c-0.542-2.93-1.019-5.873-1.383-8.824c0.998-0.877,2.003-1.753,3.008-2.616c-7.727-28.393,12.967-62.254,18.988-74.706
		c6.451-12.402,17.634-21.326,29.195-28.711c0.235-20.115-2.046-40.4,1.411-60.358c5.991-36.746,9.642-45.044,27.014-50.835
		c-9.127-33.598-4.002-20.068-9.701-46.601c1.433-1.14,2.844-2.302,4.291-3.436c3.369,6.184,11.8,44.472,13.771,52.14
		c3.842,1.29,7.584,2.808,11.276,4.483c10.006,4.779,41.798,42.829,53.323,86.994c3.891,17.234,3.233,14.456,12.851,19.288
		c45.648,22.506,79.856,73.111,90.038,102.462c0.813,4.077,4.526,6.173,8.012,7.691c5.966,2.609,11.49,6.13,17.506,8.632
		c0.349-2.003,0.463-4.134,0.805-6.101c-25.095-11.52-21.887-21.189-12.973-50.629c5.291-14.466,0.733-33.414,27.143-30.2
		c24.96-96.346,73.018-99.214,81.912-102.996c6.878-16.95,12.944-34.206,19.345-51.334c1.753,0.927,4.833,1.668,4.683,4.155
		c-0.393,5.776-11.593,37.799-15.075,46.017c-5.238,8.436,7.836,23.715,6.8,43.807c0.878,26.986-14.636,70.777-24.912,95.341
		c12.954,10.087,25.425,5.648-1.311,63.993c-3.136,4.647-4.982,11.169-10.385,13.714c-6.85,1.297-13.956,0.121-20.884,0.848
		c-21.728,57.794-35.602,102.14-45.967,149.37c10.015-3.784,16.209,0.905,22.474,6.386c3.136,3.158,8.789-0.335,11.711,3.136
		c7.41,13.946-0.605,18.351-3.072,27.606c-0.15,3.635,3.136,6.215,5.36,8.732c2.844-3.842,5.602-9.409,11.169-8.903
		c7.719,0.955,15.389,4.034,21.262,9.209c4.483,4.006,6.044,9.886,7.306,15.524c2.274,0.021,4.711-0.713,6.871,0.242
		c11.679,14.222,2.64,20.841-0.121,30.521c-3.25,6.044,3.428,10.442,5.111,15.745c0.884,2.801,3.885,3.685,6.444,4.262
		c1.689-3.293,4.063-6.258,7.064-8.446c0.52-0.606,1.632-0.948,1.625-1.875c-0.1-11.957-13.487-30.317,15.945-72.454
		c4.697-5.852,9.758-11.504,16.223-15.46c-16.107-12.329-30.904-16.714-41.626-39.352c-34.375-61.333,29.04-142.309,79.909-160.824
		c21.666-7.337,74.898-39.605,136.654-23.194c-16.353-33.412-26.525-55.316-3.108-85.576c13.684-14.87,44.313-22.08,55.148-20.143
		c15.075,2.744,30.093,7.064,43.743,14.156c9.225-22.492,27.535-33.252,53.045-29.096c8.808-153.367,215.931-166.503,275.047-66.067
		c4.776-3.229,9.737-6.579,12.26-12.01c3.008-6.565,6.237-13.814,4.177-21.212c-6.158-26.976-16.258-34.445-24.163-45.461
		c-0.421-2.074,1.547-3.628,2.594-5.196c11.925,8.635,60.676,73.498,102.212,42.702c6.358-4.127,7.035-12.459,9.166-19.053
		c3.671-12.409,3.721-25.46,2.074-38.205C1337.854,30.578,703.586,31.117,695.055,31.05 M1373.647,31.135
		c3.573,10.076,17.823,31.042,25.083,38.333c6.486,7.121,15.047,11.754,23.293,16.508c7.007,4.113,15.417,5.046,23.237,3.129
		c16.498-3.47,24.23-2.338,49.41-21.69c5.598-3.76,27.967-22.312,37.513-36.893C1525.992,30.531,1388.934,30.873,1373.647,31.135
		 M1550.751,31.086c-8.466,4.876-43.999,53.301-5.831,71.634c13.377,6.294,39.242,8.642,45.632,7.784
		c8.176-1.347,16.387-2.516,24.655-3.265c0.435-14.968-0.492-29.93-0.313-44.891c-0.007-8.931-5.339-16.586-9.815-23.899
		c-5.413-9.442-20.157-6.103-30.5-7.007C1566.668,31.086,1558.613,29.852,1550.751,31.086 M1358.829,35.576
		c-0.082,26.769-3.672,56.514-25.133,70.422c-9.11,6.6-43.715,0.225-75.69-27.143c1.304,13.229,8.282,26.081,4.647,39.488
		c-2.388,9.965-11.055,18.211-21.262,19.644c-0.627,5.146,4.127,4.811,7.477,5.125c21.307,0.441,40.145,27.96,42.139,30.236
		c12.338-12.785,45.299-64.937,133.61-58.305c128.13,18.828,165.629,179.092,63.537,254.462
		c-11.041,7.755-23.543,12.965-35.646,18.753c9.191,7.747,21.429,16.308,24.619,41.876c4.84-0.663,9.829-2.267,14.776-1.354
		c27.646,3.486,26.412,23.573,30.179,29.274c0.344-3.89-7.545-86.053,36.594-93.395c20.88-6.47,45.394,5.167,56.21,8.789
		c-0.72-1.696-0.52-3.785-2.024-4.904c-4.106-3.072-8.903-5.189-12.588-8.796c-5.254-4.712-42.087-34.464-40.379-59.132
		c0.121-8.967,2.566-18.461,8.817-25.168c8.905-9.812,9.401-14.69,46.537-25.482c-0.043-4.954-0.05-9.9-0.064-14.847
		c-2.659-1.775-5.353-3.571-8.461-4.433c-28.185-9.882-48.295-31.161-50.814-37.563c-4.02-7.705-1.682-16.608,0.178-24.562
		c2.131-5.203,5.98-9.516,9.509-13.821c4.073-4.962,12.037-25.308,49.709-36.958c-0.242-1.14-0.471-2.274-0.692-3.407
		c-23.645,7.857-41.695,5.429-67.479,2.516c-16.406-2.284-21.986-7.721-28.19-22.267c-5.048-11.267,3.577-33.864,9.402-45.846
		c-10.656,7.862-18.468,19.124-29.958,25.902c-70.129,44.267-74.311,29.853-94.65,14.719c-8.988-6.749-36.49-45.894-38.526-49.053
		C1363.825,37.914,1361.445,36.381,1358.829,35.576 M1062.841,78.806c-13.51,1.253-31.97,16.553-36.544,19.074
		c-18.987,10.342-27.003,24.656-33.978,33.764c-6.7,10.763-9.879,23.265-13.165,35.389c-4.02,13.129,0.777,27.178-3.799,40.215
		c-27.835-2.391-45.484,8.397-58.818,30.058c-5.187-2.318-15.675-11.753-31.932-14.534c-8.24-1.982-17.363-3.493-25.311,0.242
		c-7.851,3.424-53.85,16.423-48.818,54.713c3.83,31.101,13.35,36.148,16.893,46.737c-1.775,1.333-3.557,2.652-5.353,3.935
		c-22.13-20.555-199.573-5.135-223,121.251c-2.415,37.532,12.423,49.468,17.598,56.267c15.404,13.442,24.328,14.519,36.109,18.896
		c2.252,1.048,4.384-0.67,6.472-1.326c2.83-1.247,5.945-1.162,8.988-1.183c-0.157,5.937-6.044,8.838-8.625,13.586
		c-2.267,5.923-2.145,12.388-3.714,18.482c-4.426-2.245-5.937-7.035-6.857-11.59c-11.346,5.269-26.814,22.561-32.766,50.272
		c-1.611,13.236,3.364,25.945,8.739,37.749c8.408,16.992,38.103,28.368,40.935,29.644c19.627,8.94,81.497,10.352,99.853,4.74
		c3.721-0.014,5.553,3.87,7.085,6.7c4.5,9.444,20.034,22.668,52.04,7.27c2.345-1.205,5.039-1.091,7.598-0.969
		c-7.405,18.835-50.983,31.281-69.09-4.455c-3.575,2.087-5.183,2.387-30.721,4.989c-36.879,3.039-73.909-12.336-74.913-12.581
		c6.918,14.871,8.764,9.096,6.729,23.286c6.023-0.021,10.599,3.792,15.432,6.764c7.292,1.962,25.598,0.348,19.972,23.557
		c5.153-1.19,10.257-2.616,15.546-3.158c3.4,5.888,6.244,12.167,5.831,19.195c-0.021,2.794,3.799,3.543,5.88,2.516
		c6.557-3.029,10.656-10.186,17.819-12.139c6.885,0.413,11.048,7.142,13.315,12.93c0.912,6.807-4.612,11.804-6.786,17.812
		c3.436,1.133,7.092,2.987,10.777,1.504c4.911-2.623,7.377-10.392,13.992-8.781c5.082,0.128,12.103,3.065,11.825,9.081
		c-0.991,5.859-4.569,10.877-6.472,16.451c5.595,1.974,11.305,3.835,17.221,4.59c7.032-8.68,9.326-13.836,17.378-9.451
		c4.883,2.096,7.905,6.657,11.903,9.929c10.279-16.554,4.694-6.149,12.88-27.207c-7.071-0.577-11.069-6.679-14.199-12.31
		c-2.096,1.746-4.063,4.013-6.907,4.426c-4.644-3.24-8.001-22.456,5.909-32.253c8.154-5.795,16.173-11.996,22.403-19.915
		c-7.555-3.664-13.122-10.321-16.629-17.812c-1.504-3.97-6.08-4.875-9.01-7.427c-5.959-3.678-7.527-11.077-11.233-16.558
		c-5.628-4.19-9.933-2.234-23.686-15.531c-4.369-3.999-7.919-9.095-13.457-11.576c-5.289-2.145-7.128-7.648-10.157-11.925
		c-2.438-2.188-5.823-3.001-8.233-5.253c-4.989-3.599-7.513-9.558-12.295-13.315c-24.892-14.451-14.079-13.975-20.293-19.594
		c-35.332-34.215-33.762-29.276-31.997-37.157c12.02,0.946,38.042,19.741,45.468,23.058c5.31,3.771,12.488,3.029,17.52,7.285
		c2.744,1.703,4.298,4.669,6.743,6.707c7.002,3.643,6.213-1.371,18.39,13.878c2.167,2.63,5.802,2.837,8.774,4.106
		c6.165,2.545,11.134,7.263,15.353,12.324c3.514,5.111,10.628,3.557,15.396,6.707c3.243,1.932,5.125,5.317,7.755,7.905
		c2.958,1.568,6.586,0.485,9.687,1.696c7.75,3.03,25.666,15.394,27.563,26.957c16.431-1.479,16.004,4.048,22.303,7.506
		c-0.698-2.231-2.017-4.184-3.678-5.802c-6.386-6.28-10.649-14.32-14.612-22.253c17.936-9.903,33.636,3.69,44.791,7.37
		c-12.823-17.415-38.539-26.758-9.979-39.124c15.261-5.37,45.985,16.101,62.831,42.196c3.617,7.729,31.01,7.03,45.069-4.07
		c3.65-2.887,5.873-7.071,8.689-10.706c15.284,4.076,24.502,6.41,47.328-4.74c5.339-3.072,11.077-5.645,15.61-9.922
		c6.408-6.016,13.35-11.925,16.864-20.214c3.97-6.066,2.73-14.227,7.962-19.573c2.11,0.321,4.099,0.527,6.301,0.862
		c-2.531,40.024,23.407,52.403,61.541,64.955c29.861,6.885,60.484,11.579,90.601,3.25c8.609-1.53,36.212-15.565,40.97-20.279
		c2.26-1.903,4.626-5.132,8.054-3.443c5.717,3.649,9.43,9.601,14.84,13.664c79.278,64.32,219.102,51.551,254.098-44.869
		c5.936-13.796,8.296-48.758,1.81-65.647c-23.64-57.051-104.756-52.967-123.731-39.481c-2.11-1.483-4.562-2.694-6.935-3.557
		c4.49-9.954,15.411-9.044,9.458-44.677c-1.278-6.134-10.143-20.965-16.928-25.76c-16.213-11.169-22.152-15.707-54.513-13.094
		c-23.258,4.921-33.316,30.202-40.899,18.646c-0.641-2.195,1.148-4.141,2.359-5.781c26.066-28.939,23.011-66.77,6.215-83.274
		c-32.501-29.638-52.259-33.914-91.164-12.987c-3.229,1.597-5.866,4.184-9.166,5.61c-3.2,0.306-5.296-2.26-7.677-3.856
		c7.291-12.382,12.202-10.015,24.448-30.543c29.051-47.193,18.557-88.75-1.076-107.416c-19.124-18.841-31.894-13.136-41.191-15.724
		c0.848-2.352,2.238-4.605,2.452-7.135c-10.733-50.801-84.929-78.095-127.095-75.54
		C1093.811,71.037,1078.394,76.012,1062.841,78.806 M1379.186,128.615c-12.802,3.289-52.635,10.393-80.344,52.275
		c-4.498,5.588,0.307,12.445,0.784,18.454c10.054,39.487-15.724,79.08-21.44,89.34c19.022-5.911,5.804-4.192,35.489-6.586
		c-4.248-14.355-6.315-29.773-3.764-44.62c0.456-2.73,4.875-2.267,4.947,0.428c0.19,68.539,9.791,30.283,55.654,77.194
		c6.734,7.218,2.082,8.036,15.168,9.295c8.886,0.44,40.017,2.526,58.37-9.651c6.971-4.69,14.59-9.074,19.231-16.351
		c-3.842,0.207-7.27,2.167-11.034,2.559c-1.169-0.627-3.208-1.497-2.288-3.122c0.976-3.592,4.384-5.659,7.042-7.933
		c12.217-9.597,21.683,4.017,18.525,12.887c-9.089,29.674-9.443,49.882-41.469,58.12c-7.477,1.561-15.132-1.012-21.868-4.127
		c-7.042-3.364-10.442-10.706-13.956-17.206c-4.433-6.541,0.831-2.482-17.634-6.921c9.126,23.42,1.59,42.039-2.808,55.511
		c10.485-3.885,21.013-7.905,32.161-9.459c-8.588-7.436-7.286-6.913-3.165-11.533c21.097,13.335,42.749,32.968,66.089-15.189
		c1.219,0.064,3.649,0.2,4.861,0.264c-0.25,6.258-4.505,11.205-5.66,17.235c7.296-2.75,73.252-42.451,63.494-134.138
		c-10.765-61.928-56.791-106.101-127.509-109.753C1398.381,125.942,1388.787,127.467,1379.186,128.615 M1598.272,135.343
		c-11.034,7.363-22.652,15.168-29.224,27.043c-5.161,11.889-3.257,26.473,4.063,37.036c11.306,11.271,17.042,18.858,42.033,27.364
		c0.164-33.422,0.121-66.844,0.021-100.274C1609.256,128.893,1603.497,131.68,1598.272,135.343 M298.366,162.686
		c-23.238,39.085-18.387,47.304-18.076,58.783c8.938-2.153,17.713-5.403,27.021-5.567c16.964-0.542,34.449-0.328,50.771,4.904
		c-0.285-1.212-0.57-2.416-0.87-3.621c-2.473-0.306-4.783-1.262-6.928-2.488c1.81-1.126,3.671-2.153,5.588-3.072
		c-0.87-2.452-1.889-4.84-2.915-7.22c-2.922,1.711-6.387,2.081-9.252-0.007c2.046-1.525,4.248-2.815,6.515-3.984
		c-1.012-2.245-2.074-4.469-3.093-6.714c-1.882,0.157-3.692,0.364-5.545,0.556c-0.513-0.877-1.026-1.739-1.54-2.602
		c1.625-0.741,3.25-1.475,4.868-2.231c-0.984-1.639-1.846-3.357-2.851-4.982c-1.518-3.008-5.859-1.183-8.275-2.153
		c1.197-2.716,4.605-5.161,2.602-8.432c-1.475-3.471-5.652-2.937-8.724-3.186c1.354-1.967,2.787-3.878,4.255-5.759
		c-2.067-2.673-5.289-3.386-8.489-3.507c0.691-2.031,1.511-4.02,2.317-6.016c-0.499-0.798-0.991-1.604-1.475-2.402
		c-2.267,0.499-4.483,1.055-6.721,1.639c-1.839-2.987,0.962-5.082,3.058-6.807c-1.511-1.732-2.944-3.528-4.305-5.374
		C309.62,148.53,303.156,154.966,298.366,162.686 M571.659,204.276c-13.323,10.676-36.218,45.053-39.36,67.022
		c24.904,10.931,22.256,14.04,19.01,29.409c3.778,2.801,7.883,5.225,12.395,6.664c0.143-1.91,0.292-3.813,0.442-5.716
		c1.825-0.585,3.763-1.098,5.624-1.668c-0.862-1.924-1.732-3.835-2.53-5.773c2.595,0.178,5.218,0.399,7.826,0.599
		c-0.306-2.602-1.062-5.111-1.839-7.598c1.796-0.306,3.756-0.214,5.396-1.119c0.991-1.333,1.433-2.979,2.046-4.505
		c-1.896-1.454-3.771-2.951-5.595-4.469c2.388-0.456,4.747-0.834,7.185-1.14c1.026-2.352,2.081-4.697,3.086-7.064
		c-1.896-0.656-3.771-1.354-5.645-2.039c-0.064-0.841-0.121-1.682-0.171-2.516c1.924-0.107,5.773-0.321,7.698-0.435
		c0.542-2.131,0.791-4.348,1.012-6.522c-1.461-0.585-2.908-1.176-4.348-1.775c-0.007-0.556-0.029-1.675-0.036-2.231
		c2.167-0.207,4.348-0.299,6.522-0.385c0.641-2.231,1.369-4.412,2.096-6.607c-1.005-1.19-2.017-2.374-3.015-3.564
		c2.815-2.11,4.883-4.968,6.044-8.297c-1.112-0.62-3.329-1.86-4.433-2.48c-0.036-0.563-0.107-1.682-0.135-2.245
		c1.718-0.421,3.457-0.77,5.21-1.076c0.492-3.158,1.319-6.251,2.103-9.352c-1.896-0.656-3.806-1.262-5.731-1.803
		c-0.043-0.791-0.071-1.582-0.093-2.366c2.046-0.513,4.027-1.019,6.101-1.597c-0.406-3.322-2.587-5.923-3.756-8.952
		c1.297-0.435,2.602-0.87,3.913-1.297c0.007-0.406,0.021-1.226,0.029-1.632c-1.554-0.663-3.101-1.326-4.633-2.003
		c1.326-1.582,2.93-2.887,4.348-4.376c0.456-2.409-0.421-4.783-0.927-7.106C588.245,192.465,579.549,197.883,571.659,204.276
		 M111.461,199.693c-19.057,34.174-15.384,64.431-5.987,98.876c11.326-4.498,21.611-13.022,34.299-13.015
		c5.716-1.19,7.106,5.018,8.831,8.86c3.129-0.456,6.308-1.076,8.774-3.2c-2.495,0.556-5.025,0.912-7.584,0.934
		c1.24-2.652,3.436-4.605,5.617-6.479c-0.613-1.433-1.254-2.844-1.917-4.241c-1.668,0.435-3.336,0.855-5.004,1.283
		c-0.242-0.927-0.478-1.846-0.72-2.766c1.333-1.247,2.687-2.466,4.077-3.649c-0.406-1.091-0.813-2.174-1.212-3.257
		c-2.074,1.183-4.248,2.174-6.558,2.801c-0.235-3.635,2.509-5.667,4.89-7.776c-0.72-2.21-1.511-4.384-2.281-6.572
		c-1.561,0.2-3.122,0.406-4.683,0.592c-0.242-0.862-0.478-1.725-0.713-2.58c2.716-2.153,2.545-5.396,1.839-8.482
		c-2.181,0.228-4.376,0.214-6.55-0.107c1.297-1.654,2.837-3.108,4.106-4.776c-0.192-1.718-0.984-3.293-1.547-4.897
		c-1.768,0.221-3.55,0.428-5.324,0.249c0.649-2.181,1.925-4.077,3.193-5.937c-0.72-1.789-1.447-3.585-2.167-5.374
		c-2.865,0.485-5.766,0.777-8.653,0.984c1.611-2.523,4.084-4.248,6.55-5.852c-1.582-2.737-3.215-5.446-4.918-8.111
		c-2.309,0.228-4.597,0.492-6.914,0.691c0.67-2.231,1.483-4.405,2.431-6.529c-4.555-4.436-3.669-2.766-8.368-2.345
		c-0.556-0.442-1.112-0.87-1.668-1.304c0.948-1.525,1.946-3.029,2.994-4.49C114.704,202.01,113.101,200.826,111.461,199.693
		 M308.231,237.456c-20.595,9.088-47.134,35.557-60.985,82.718c6.121,3.326,4.129,0.509,9.53,11.804
		c6.843-1.582,13.785-2.694,20.571-4.533c-0.527-2.706-4.706-10.516,2.138-14.035c7.619-5.278,36.953-12.914,50.044-6.55
		c5.823,3.307,5.296,11.077,7.071,16.651c8.525-0.934,17.064-1.611,25.646-1.711c1.019-4.84,0.948-10.029,2.979-14.605
		c1.417-3.661,25.871-7.431,54.855,13.186c3.778,2.538,5.674,7.099,5.902,11.533c0.356,1.418-0.271,4.341,1.746,5.004
		c5.838,2.637,11.953,4.711,18.112,6.493c5.899-12.302,4.292-8.07,15.082-9.879c-1.718-5.082-7.277-6.023-11.782-7.263
		c0-0.584,0.007-1.761,0.014-2.345c2.21-0.086,4.348-0.171,6.586-0.171c-4.187-7.467-3.576-6.007-12.652-8.04
		c-0.171-0.713-0.342-1.433-0.499-2.138c2.138-0.378,4.376-0.684,6.536-1.034c-1.875-2.288-3.314-5.032-5.624-6.893
		c-3.336-1.162-7.57-1.14-9.38-4.74c1.262-0.335,3.792-0.991,5.054-1.326c-2.195-3.15-4.22-6.451-6.8-9.309
		c-2.609-1.568-6.087-0.891-8.831-1.91c1.105-0.891,3.314-2.673,4.419-3.564c-1.205-2.295-2.423-4.647-4.22-6.543
		c-2.965-0.955-6.208-0.535-9.238-0.969c-0.135-0.784-0.257-1.554-0.378-2.331c1.575-0.691,3.165-1.369,4.761-2.024
		c-7.373-10.021-5.029-5.636-16.323-10.285c1.247-1.155,2.509-2.288,3.785-3.407c-7.27-7.073-2.468-4.604-17.948-5.702
		c0.164-0.798,0.335-1.597,0.513-2.388c1.875-0.542,3.778-1.041,5.667-1.589c-4.013-2.552-8.083-5.225-12.638-6.686
		c-4.79,0.549-9.879,1.796-14.534-0.05c2.359-1.361,4.776-2.659,7.163-3.984C357.448,232.621,343.864,222.169,308.231,237.456
		 M1598.344,262.268c-13.84,5.184-61.569,46.725,16.273,97.793c0.414-6.929,0.747-91.921,0.556-103.196
		C1609.591,258.775,1603.789,260.001,1598.344,262.268 M498.685,270.08c-16.068,43.351-23.651,57.25,3.849,69.111
		c18.387,7.88,41.848,26.96,61.948,28.768c4.833-1.932,8.446-6.044,10.585-10.699c4.037-8.31,15.861-36.687,16.216-45.739
		c-12.994-7.925-7.192-4.979-18.696-6.13c-1.604,2.58-3.015,5.282-4.754,7.769c-4.755,7.123-21.43-5.992-25.232-10.556
		c1.468-4.433,2.644-8.952,4.291-13.315c-5.752-5.467-13.101-8.931-21.041-9.601c-1.946,3.657-4.54,7.919-9.052,8.489
		c-15.313-1.768-7.928-11.273-10.307-18.354C504.537,269.887,500.638,270.016,498.685,270.08 M165.44,282.054
		c6.956,18.33-9.9,17.881-28.589,21.897c1.219-2.231,2.673-4.319,4.27-6.301c-1.283-1.974-2.537-3.984-3.778-5.98
		c-4.508,1.848-24.341,10.243-27.043,14.227c-1.183,4.533,2.302,11.54-3.15,14.12c-5.467,3.685-12.032,5.189-17.791,8.361
		c-0.499-0.535-0.998-1.069-1.497-1.597c0.805-2.302,1.511-4.647,1.732-7.092c-4.098,2.16-7.99,4.669-12.096,6.807
		c1.247,5.517,3.607,10.706,6.465,15.574c15.005,25.458,16.808,27.751,84.92-7.527c6.814-3.942,14.234-7.213,19.801-12.944
		c-2.652,0.47-5.275,0.991-7.905,1.511c-0.093-0.442-0.271-1.312-0.356-1.746c4.455-2.744,9.188-5.203,12.944-8.917
		c-0.285-0.535-0.855-1.597-1.14-2.131c-2.267,0.912-4.519,1.882-6.707,2.979c-0.87-0.969-1.732-1.946-2.587-2.915
		c3.158-1.982,6.579-3.493,9.772-5.41c-0.364-1.682-0.727-3.357-1.076-5.032c-2.53,0.506-5.046,1.048-7.598,1.447
		c0.15-3.528,3.464-5.018,6.144-6.501c-0.207-1.625-0.406-3.25-0.592-4.861c-3.5,0.877-7.035,1.696-10.642,1.982
		c1.896-3.008,5.025-4.825,7.855-6.836c-0.741-1.411-1.49-2.815-2.217-4.227c-2.153,0.991-4.369,1.896-6.7,2.366
		c0.848-2.88,2.416-5.417,4.02-7.912C175.932,276.274,170.572,279.061,165.44,282.054 M298.351,313.887
		c-5.374,1.504-11.112,2.409-15.688,5.816c0.998,2.987,2.06,5.966,3.393,8.831c-5.771,7.598-3.282,4.223-30.949,11.048
		c-6.253,1.47-6.496-3.697-8.746-9.993c-8.86,0.214-17.641,3.279-24.626,8.739c1.704,3.243,3.685,6.458,3.956,10.235
		c-6.793,3.642-13.792,7.035-21.091,9.516c-3.899-0.342-6.401-4.205-9.972-5.431c-4.647,0.157-9.124,2.309-12.787,5.096
		c1.16,7.322,43.675,133.358,66.994,172.371c12.866-3.799,26.195-6.465,39.666-6.116c-1.695-18.421-18.919-95.098-21.006-105.612
		c1.162-7.128,7.712-10.87,12.723-15.161c22.842-19.874,78.531-21.31,101.528-6.151c15.106,9.313,21.546,10.896,17.142,31.227
		c-1.701,9.833-14.899,62.851-15.453,90.387c-0.007,5.21-1.162,10.307-2.003,15.424c14.419,3.678,28.618,8.14,42.724,12.88
		c48.078-106.367,55.255-138.631,68.69-190.839c-1.002-0.53-29.447-15.259-35.703-15.588c-3.314,2.808-3.3,7.748-4.726,11.518
		c-6.158-0.592-12.295-1.839-17.727-4.883c-4.904-2.701-10.628-3.785-15.204-7.042c-2.188-3.992-1.475-8.903-2.003-13.229
		c-2.41-1.48-23.715-12.537-44.983-13.885c-1.091,5.218-0.62,10.685-2.024,15.831c-3.385,2.465-24.348,5.005-40.315,0.15
		c-1.604-4.255-0.948-9.031-2.352-13.35c-5.253-2.908-11.583-2.48-17.349-3.557C306.349,311.492,302.322,313.096,298.351,313.887
		 M1435.068,333.603c-7.042,1.497-11.454,7.37-16.294,12.124c4.961,3.008,11.704,4.662,16.879,1.233
		c5.381-3.286,10.578-7.149,14.626-12.025C1445.367,333.517,1440.107,331.799,1435.068,333.603 M151.762,373.119
		c-3.678,5.054-5.581,11.105-8.653,16.508c-2.046,3.4-2.338,7.62-0.955,11.362c15.325,42.902,29.01,86.417,46.787,128.4
		c3.129,7.734,6.971,15.175,9.843,23.023c13.265-7.206,26.309-15.082,40.799-19.666c-0.292-0.919-0.577-1.832-0.855-2.73
		c-4.555,1.197-9.402,3.856-14.035,1.582c3.464-2.566,7.555-4.034,11.426-5.845c-1.312-2.758-2.573-5.56-3.82-8.332
		c-3.215,0.221-6.422,0.442-9.637,0.556c-0.57-0.67-1.133-1.326-1.689-1.982c3.443-1.162,6.836-2.473,10.207-3.835
		c-1.946-5.346-4.234-10.592-7.149-15.482c-2.331,0.834-4.683,1.597-7.064,2.274c-0.556-0.912-1.105-1.825-1.661-2.723
		c1.875-1.219,3.763-2.445,5.845-3.293c-0.898-3.607-2.259-7.078-3.543-10.549c-2.944,0.456-5.93,0.884-8.895,0.364
		c0.349-1.055,0.706-2.096,1.062-3.136c1.789-0.52,3.585-1.034,5.396-1.49c-0.855-3.678-2.003-7.27-3.471-10.742
		c-2.502,0.727-5.011,1.44-7.513,2.16c-0.157-1.49-1.133-3.3,0.036-4.583c1.668-1.055,3.642-1.433,5.481-2.096
		c-0.492-2.523-1.034-4.989-1.611-7.484c-3.443,0.143-6.893,0.399-10.321-0.107c2.423-2.145,5.203-3.813,8.062-5.31
		c-1.29-3.578-2.338-7.228-3.45-10.856c-2.815,0.029-5.624-0.086-8.425-0.178c0.021-0.898,0.05-1.782,0.086-2.659
		c2.188-0.506,4.369-1.076,6.536-1.668c-1.29-3.685-2.466-7.413-3.614-11.141c-3.528,1.319-7.363,1.604-10.414-1.14
		c2.145-2.652,5.724-2.516,8.774-3.215c-0.977-2.452-1.924-4.89-2.83-7.349c-2.844,0.47-5.681,0.984-8.525,1.44
		c-0.257-1.254-0.506-2.502-0.734-3.749c2.359-0.77,4.954-1.24,6.9-2.908c-0.071-1.839-0.706-3.592-1.148-5.36
		c-3.079-0.135-6.158-0.271-9.223-0.413c1.091-2.887,3.293-5.139,6.451-5.524c-0.606-2.274-1.262-4.526-1.967-6.764
		c-2.808,0.242-5.652,0.185-8.461,0.171c0.363-3.293,3.257-4.491,6.08-5.175c-0.827-2.872-1.718-5.724-2.438-8.617
		c-3.478,0.442-7.028,0.984-10.478,0.114c0.05-0.556,0.157-1.675,0.214-2.231c2.63-1.105,5.232-2.252,7.869-3.329
		c-0.677-2.167-1.44-4.291-2.26-6.401c-1.867,0.627-3.6,1.832-5.581,2.039c-1.718-0.385-3.136-1.497-4.583-2.416
		c2.466-1.867,5.246-3.25,7.983-4.683c-0.734-3.072-1.561-6.137-2.345-9.181C163.636,356.54,158.041,365.093,151.762,373.119
		 M503.539,367.78c-17.66,6.126,8.081-10.836-61.976,154.83c-4.498,8.453-6.173,18.112-11.105,26.38
		c7.81,3.5,36.816,14.812,52.81,25.261c0.592-2.559,1.148-5.153,1.661-7.727c-2.88-0.114-5.752-0.292-8.617-0.335
		c-0.321-1.54-0.649-3.072-0.955-4.605c3.813,0.221,7.627,0.093,11.454-0.007c0.485-1.832,0.991-3.649,1.518-5.46
		c-3.193-0.613-6.386-1.19-9.451-2.252c0.321-1.005,0.656-2.003,0.991-2.994c3.222,0.036,6.451,0.135,9.68-0.007
		c0.862-3.514,1.718-7.035,2.509-10.563c-2.958-0.321-5.866-0.592-8.796-0.912c0.114-1.076,0.242-2.138,0.371-3.193
		c3.229-0.093,6.479-0.2,9.722-0.356c1.105-4.063,2.01-8.197,2.466-12.381c-3.008-0.093-6.037-0.527-8.995-0.934
		c2.088-3.785,6.721-3.108,10.193-4.462c1.532-3.15,1.44-6.807,2.081-10.186c-3.25-0.563-7.035-1.24-7.163-5.46
		c2.801,0.15,5.574,0.371,8.382,0.563c1.426-3.963,2.808-7.969,3.357-12.167c-1.718-0.15-3.436-0.257-5.146-0.306
		c-0.349-0.934-0.699-1.86-1.034-2.773c2.537-1.226,5.232-2.01,7.947-2.758c1.34-3.464,2.901-6.85,3.885-10.442
		c-2.559-0.841-5.039-1.718-7.477-2.83c0.549-0.905,1.112-1.796,1.668-2.687c2.637-0.207,5.282-0.406,7.94-0.599
		c0.57-1.889,1.176-3.756,1.796-5.617c-2.623-0.82-5.218-1.661-7.819-2.509c0.285-0.706,0.57-1.404,0.855-2.096
		c2.808-0.071,5.624-0.128,8.454-0.178c1.012-2.88,1.882-5.809,2.48-8.803c-2.751-0.556-5.474-1.062-8.176-1.746
		c-0.029-0.948-0.05-1.896-0.064-2.837c2.587-0.064,7.769-0.178,10.357-0.235c0.905-2.958,2.017-5.845,3.172-8.71
		c-2.416-0.677-4.783-1.518-7.121-2.409c0.014-0.577,0.043-1.732,0.057-2.309c2.837-0.378,5.652-0.691,8.525-0.87
		c0.649-1.718,1.076-3.571,1.632-5.289c-1.989-0.805-3.97-1.632-5.923-2.502c0.264-0.862,0.535-1.725,0.82-2.573
		c1.86-0.086,5.595-0.264,7.456-0.349c0.406-1.882,1.005-3.614,1.504-5.446c-1.041,0.128-3.122,0.378-4.17,0.499
		c-0.677-1.397-1.411-2.773-1.832-4.27c2.473-0.663,5.039-1.076,7.57-1.518c0.848-2.466,1.675-4.94,2.423-7.441
		c-1.304-0.057-3.913-0.171-5.21-0.228c-0.014-0.969-0.014-1.932-0.014-2.887c2.516-1.041,5.125-1.867,7.805-2.388
		c1.162-3.236,2.352-6.472,3.001-9.858c-2.438-0.456-4.847-0.87-7.27-1.304c0.121-0.805,0.242-1.611,0.371-2.402
		c2.972-0.392,5.945-0.748,8.931-1.105c0.912-2.652,1.867-5.289,2.894-7.898C532.1,365.613,516.967,364.672,503.539,367.78
		 M1552.362,379.555c-34.652,24.438-22.499,69.58-21.882,79.232c33.682,8.878,33.571,9.922,50.971,27.392
		c26.294,26.811,18.71,93.581-4.027,122.94c-3.913,4.961-6.194,11.191-11.148,15.289c-1.617,1.392-19.814,23.131-33.351,29.302
		c-10.159,4.724-49.611,37.144-135.527,13.785c-14.527-3.553-54.054-17.81-56.024-18.846c-11.633-5.239-21.269-13.842-29.766-23.194
		c-14.295,15.161-39.723,29.803-69.845,31.533c-94.076-0.048-117.935-37.423-135.371-62.981
		c-15.543,33.277-51.076,45.234-82.319,36.444c-9.772,14.726-32.401,26.205-52.539,18.782c0.228,2.245,0.606,4.583,0.862,6.864
		c11.212-1.019,22.852-0.456,33.415,3.728c13.008,4.638,38.333,12.873,47.87,26.936c3.086,4.562,8.888,5.396,13.372,8.026
		c7.12,4.034,32.924,22.961,41.305,30.692c22.778,18.576,29.494,29.599,34.548,44.741c1.313,4.423,1.227,3.24,22.659,31.355
		c2.309,3.799,7.477,1.746,11.069,2.438c-0.085-6.109-0.905-14.926,5.474-18.383c5.702,0.798,11.355,2.039,17.206,1.932
		c-1.276-5.973-5.132-11.034-5.987-17.092c2.744-3.151,7.106-4.056,10.742-5.823c5.56-1.967,11.618-6.101,17.542-2.773
		c5.902,3.885,1.197,13.051,6.173,17.378c2.694,0.599,5.481-0.128,8.233-0.278c1.754-6.622,2.302-13.849,6.13-19.723
		c2.608-1.589,21.986,0.264,29.388,7.641c11.325,14.953-3.867,23.419-8.831,35.503c20.618,9.577,20.199-5.49,14.455-19.245
		c2.659-2.21,5.168-4.826,8.504-5.994c27.953-4.092,31.006,7.393,38.882,22.93c2.388-0.364,4.647-0.734,7.121-0.998
		c-1.326-5.595-5.367-10.891-3.828-16.814c2.48-4.826,8.311-8.332,13.799-7.042c7.643,2.562,12.464,18.367,17.413,13.343
		c2.694-2.459,6.208-5.567,5.895-9.494c-3.856-3.607-9.466-4.241-13.821-7.042c-8.618-4.796,0.94-11.245,10.457-21.027
		c-7.213-9.568-11.257-15.208-4.533-25.147c1.953-2.644,5.282-3.5,8.254-4.491c23.643-7.378,22.486,8.914,28.86,12.723
		c2.26-5.26,0.62-13.051,6.529-15.859c5.281-3.722,18.078,4.474,20.065,8.411c2.523,4.847,5.909,9.359,7.306,14.712
		c2.279,8.539-2.194,7.837,8.382,11.426c2.019-3.811,5.957-17.611,18.297-7.327c8.67,7.36,22.494,22.014,18.91,32.873
		c2.616-1.126,5.189-2.409,7.947-3.186c8.908-2.21,19.269,6.669,15.225,17.898c-1.925,3.3-5.025,5.667-7.356,8.653
		c4.448,0.485,8.938,0.406,13.372-0.25c2.659-4.761,6.094-9.017,9.679-13.101c7.534,1.575,14.755,6.023,18.475,12.901
		c2.288,3.913-0.164,8.425-0.471,12.538c4.248-1.639,8.653-2.858,13.137-3.714c1.117-7.564-1.732-12.493,15.339-22.374
		c-0.627-5.125-0.727-11.604,3.763-15.018c5.36-4.626,12.36-7.292,19.495-7.128c-1.077-16.475,2.354-27.331,20.129-25.845
		c4.362-0.349,7.762,2.523,11.148,4.754c0-0.002,1.012-362.689,1.012-362.69C1593.456,371.153,1571.453,365.846,1552.362,379.555
		 M338.638,398.145c-45.12,6.967-46.067,18.478-46.829,39.73c4.818-3.421,9.088-7.99,15.068-9.359
		c14.586-1.548,24.732,0.981,31.198,12.83c8.239-13.109,33.527-22.766,50.294,1.29c7.745-23.488,5.09-29.867-10.15-38.233
		C365.581,400.026,352.138,396.313,338.638,398.145 M302.564,439.158c9.426,66.84,5.734,77.234,10.898,85.704
		c2.359-15.384-3.644-68.097-3.543-92.241C307.161,434.083,301.623,435.024,302.564,439.158 M314.617,433.149
		c-1.637,13.05,2.948,43.412,3.414,90.48c1.982,0.307,3.813,0.428,5.838,0.827c0-0.001-0.47-65.732-0.47-65.732
		c-8.036-6.509-6.724-5.38-7.862-13.942c3.414-2.616,7.855-4.455,12.16-2.887c2.887,2.388,3.215,6.6,2.074,9.957
		c-0.599-0.086-1.789-0.257-2.388-0.342c-1.24-1.86-2.488-3.699-3.756-5.531c-1.105,0.57-2.21,1.148-3.307,1.732
		c1.162,2.758,3.143,5.738,6.508,5.745c5.025,1.647,9.081-4.091,7.249-8.589C331.296,437.098,322.728,432.258,314.617,433.149
		 M341.817,446.193c-0.228,5.652,5.011,10.036,10.57,9.737c1.183-2.687,1.725-5.602,1.582-8.532
		c-1.055,0.007-2.11,0.029-3.158,0.064c-0.991,1.625-1.946,3.265-2.937,4.89c-1.005-0.577-2.01-1.155-3.008-1.711
		c1.297-2.687,1.19-7.099,4.697-8.019c4.277-0.784,8.931,2.901,9.843,6.907c1.155,4.733-3.143,7.092-5.453,10.25
		c-0.705,2.899-3.646,46.05-2.979,67.899c2.067,0.392,4.07,0.684,6.166,1.076c5.224-55.981,8.068-31.789,7.064-96.018
		C355.623,433.805,343.777,435.957,341.817,446.193 M368.695,433.47c-0.699,15.824-0.805,31.662-1.404,47.478
		c-0.319,13.274-6.132,23.865-4.476,49.132c1.397,0.264,2.794,0.563,4.191,0.884c8.321-49.051,7.632-66.687,13.471-90.017
		C377.199,437.518,373.336,434.667,368.695,433.47 M1477.877,436.884c-3.205,19.795-1.159,11.604-9.459,28.347
		c14.626-4.077,29.73-7.249,44.969-7.32c-5.218-10.2-15.674-16.066-25.731-20.542
		C1484.605,435.708,1481.113,436.471,1477.877,436.884 M293.448,452.672c0.463,15.268,4.69,30.136,6.187,45.304
		c4.49,31.952,0.199,22.502,6.999,26.266c-0.288-15.575-7.966-84.104-8.097-85.106C295.493,443,292.799,447.519,293.448,452.672
		 M376.814,489.387c-1.233,5.488-1.304,11.148-2.195,16.7c-1.896,8.382-3.322,17.092-2.416,25.703
		c7.278-10.552,5.707-41.436,10.749-61.213c0.349-6.721,3.828-12.823,3.956-19.53c-0.741-1.433-2.224-4.298-2.972-5.731
		C378.617,459.422,379.957,474.818,376.814,489.387 M326.556,459.108c-1.063,35.663,1.919,56.874,2.309,65.96
		c2.124,0.257,4.291,0.599,6.422,0.884c1.799-5.045,0.89-63.853,0.57-69.61C332.95,457.825,329.771,458.659,326.556,459.108
		 M339.949,456.892c1.789,22.923-1.54,45.953,1.276,68.833c1.704,0.2,3.493,0.513,5.232,0.763
		c1.406-12.011,2.779-59.133,2.402-64.713C345.73,460.456,342.815,458.674,339.949,456.892 M142.766,533.758
		c-2.445,8.496,4.968,15.161,6.857,22.902c-1.974-0.007-4.198,0.656-5.98-0.499c-2.231-1.112-4.234-3.436-7.071-2.145
		c-7.33,1.435-3.216,10.623-0.884,18.297c-3.186,2.003-7.049,2.701-10.093,4.918c-3.414,3.728-6.016,9.794-11.711,10.399
		c-10.376,1.521-2.731-11.157-7.769-20.271c-1.561-2.723-3.108-6.151-6.308-7.156c-6.607,0.314-10.492,6.707-13.764,11.604
		c-2.716,5.108-16.605,5.71-14.84,19.687c2.124,5.068,8.404,6.037,12.759,8.539c-5.705,11.556-3.926,2.558-9.059,21.832
		c-3.885-1.276-7.206-4.932-11.625-3.671c-3.257,1.704-5.503,5.289-6.144,8.867c-0.941,7.071,6.151,10.777,10.25,15.275
		c-3.388,7.556-14.394,1.015-16.458,20.557c-2.124,0.114-4.961,0.898-6.386-1.183c-2.48-4.134-1.604-9.309-2.302-13.835
		c-2.416,2.516-3.678,6.379-7.163,7.641c-2.117,1.119-5.061,1.597-5.866,4.234c-2.616,6.197-1.434,56.227-1.283,59.332
		c29.232-25.098,55.574-65.612,87.023-100.495c1-1.01,33.966-35.823,51.648-46.045c24.546-15.546,26.54-15.482,25.51-18.618
		c-0.643-2.642-10.365-29.488-17.57-35.026C162.61,512.46,145.318,520.322,142.766,533.758 M238.799,539.21
		c-16.59,4.71-59.762,30.235-68.847,36.765c-52.247,34.851-111.86,133.528-142.506,151.9c1.051,34.347-4.239,851.511,2.438,864.421
		c9.92,18.24,2.001,15.106,90.038,16.651c237.034,1.656,1293.185-7.773,1447.487-0.841c31.834-0.021,32.986-15.295,40.35-29.93
		c6.764-15.367,4.156-32.389,4.804-48.619c-0.777-31.241,0.912-62.503-0.328-93.737c-0.955,7.905-3.699,16.13-10.186,21.212
		c-30.599,14.978-39.426-8.609-44.114-15.225c-13.697,27.993-28.591,17.759-32.496,9.893c-3.364-4.362-3.792-9.979-4.747-15.175
		c-17.498,1.48-12.224-23.578-11.96-33.508c1.301-45.54,6.934-59.99,4.882-78.947c-7.065,8.059-8.663,19.522-30.55,15.774
		c-1.267,14.185,27.559,36.113,12.545,53.537c-8.81,9.804-34.537,8.051-35.546,20.863c0.727,0.584,1.476,1.19,2.238,1.81
		c4.422-0.676,18.752-6.76,24.363,10.171c2.901,6.743-0.029,14.013,0.143,20.977c2.908-0.021,5.752,0.057,8.682,0.228
		c-0.036,0.905-0.05,1.832-0.043,2.773c-2.623,0.406-5.36,0.72-7.947,1.119c1.19,1.155,2.381,2.338,3.528,3.571
		c6.237-0.713,12.502-0.927,18.803-0.634c-3.486,2.369-0.902,2.113-20.015,3.742c0,0.641,0.007,1.932,0.007,2.58
		c8.432-0.734,16.886-1.504,25.332-0.185c0.114,1.119,0.235,2.252,0.385,3.407c-15.15,0-152.986-3.209-183.754-0.905
		c-2.309,0.292-3.984-1.761-6.073-2.331c-7.927-1.702-107.263-0.088-116.789,0.442c0.007-1.019,0.029-2.024,0.071-3.008
		c7.931-1.906,115.966-2.665,117.587-2.78c-0.05-0.92-0.078-1.818-0.1-2.701c-12.839-3.396-18.403-2.24-120.296-0.285
		c0.656-1.333,1.198-2.773,2.252-3.849c16.625-1.075,98.891-1.647,98.891-1.647c-0.021-1.048-0.036-2.074-0.029-3.086
		c-19.687-1.105-39.509-1.176-59.153,0.734c-7.612-0.107-15.353,2.11-22.859,0.107c2.604-3.217-0.617-3.594,20.407-3.806
		c10.492,0.178,20.87-2.103,31.391-1.511c9.922,0.449,19.837-0.071,29.758-0.542c27.612-58.715,57.312-55.059,75.711-63.566
		c16.447-7.474,28.306-45.577,28.418-53.644c-1.192-10.783-18.12-18.218-1.689-33.607c3.329-3.243,8.404-3.621,11.804-6.743
		c11.077-13.12,4.886-36.763-5.474-45.996c-4.975-4.298-8.368-10.335-14.298-13.486c-4.804-2.545-9.615-6.444-15.346-6.258
		c-34.313,8.531-51.419,15.918-100.965,20.357c-38.277,6.865-121.935-7.244-150.197-9.238c-4.476-0.15-10.25-2.73-13.921,1.048
		c-17.488,15.999-36.194,20.612-36.644,26.786c-1.829,6.808,5.022,38.549-21.455,52.988c0.902,27.995,9.502,29.404,11.797,56.78
		c0.019,15.906-23.464,17.838-25.981,33.679c8.142,1.965,18.777-0.793,23.671,10.114c3.463,14.392,4.966,38.672,8.347,51.299
		c12.752,2.352,25.574-1.411,38.397-0.556c-6.26,7.435-8.376,0.695-37.022,5.446c0.121,0.392,0.356,1.183,0.478,1.575
		c4.354-0.185,42.732,1.515,51.434,2.865c-9.363,2.589-39.335-0.859-51.206,1.155c-2.609,1.347-4.861,3.493-7.848,4.027
		c-15.947,2.63-154.741,9.884-173.476,9.288c-0.121-0.556-0.356-1.668-0.478-2.231c13.419-3.318,34.871-3.638,37.877-3.935
		c0.007-0.62,0.029-1.875,0.036-2.502c-14.641-1.343-32.152,0.782-39.117,0.47c-7.064-0.278-13.835,2.01-20.749,2.965
		c0.292-0.948,0.599-1.86,0.912-2.766c67.723-8.986,55.64-3.146,60.166-8.888c-14.89,0.1-29.78,0.67-44.584,2.238
		c-0.626-7.075,3.987-3.493,46.081-7.983c4.277-9.658,9.879-18.803,17.192-26.473c19.541-23.443,33.507-25.636,30.158-30.051
		c-10.969-17.231-5.922,3.558-26.294-55.105c-2.195-4.448-4.512-8.831-6.493-13.372c-2.024-4.512-7.085-6.215-9.95-10.007
		c-10.415-13.886-11.566-47.421-23.942-68.056c-2.745-4.977-17.522-34.954-24.797-42.111c-7.86-8.131-9.548-2.849-17.748-17.185
		c-14.212-23.824,19.833-52.289,47.856-60.386c54.664-9.942,56.372-3.167,89.739-26.715
		c-6.922-31.418-28.957-133.343-44.905-159.541c-9.214-14.805-12.29-28.512-19.986-29.73c-16.193-3.018-28.413-14.793-32.681-25.902
		c-8.179,1.409-25.422,9.501-38.975,24.641c-3.749,3.878-1.932,9.794-2.744,14.605c0.137,8.694-6.815,28.932-29.231,23.864
		c-8.062-1.083-13.928-7.342-20.1-11.996c-10.796,12.217-18.233,15.064-28.867-1.283c-4.733,2.509-9.701,4.776-15.025,5.624
		c-9.651,0.677-19.487-5.531-22.602-14.79c-2.797-17.509,5.191-47.898-5.218-76.174c-8.208-20.248,3.501-31.084,17.827-40.799
		c10.898-7.05,24.792-5.996,30.706-13.172c-5.602-2.16-11.533-3.464-16.936-6.13c-15.655-7.563-39.149-19.427-52.61-30.001
		c-11.533-9.366-25.061-15.945-36.309-25.674c-5.724-4.213-10.478-9.537-16.13-13.835
		c-43.824-35.513-121.068-93.569-140.146-113.054c-7.755,11.248-13.764,23.586-20.286,35.568
		c-4.918,7.555-9.373,15.916-10.043,25.054c13.822,1.684,12.567,1.201,21.248,9.922c4.084,4.555,9.245,9.965,8.254,16.643
		c0.27,11.192-14.686,32.309-46.409,17.484c-3.892,6.736-4.59,14.562-6.123,22.046c18.893-13.066,24.909-12.232,39.566-3.749
		c16.743,9.597,21.689,38.273,8.603,53.971c-2.509,3.343-4.911,7.007-8.582,9.181c-8.168,4.697-17.078,9.601-26.879,8.503
		c0.057,12.146,2.017,24.249,5.759,35.796c0.463,0,1.383,0,1.846,0.007c14.654-32.189,69.966-44.623,70.059,0.763
		c0.805,8.803-2.203,17.164-3.186,25.781c17.546-2.477,40.477-9.499,76.346-33.807c3.82-2.288,7.99-5.104,12.716-3.742
		c7.441,1.133,15.617,2.495,21.248,7.962c10.197,8.409,22.895,31.343,35.945,44.606c3.863,4.277,9.836,5.624,14.049,9.451
		c8.129,9.157-0.71,20.283-10.521,27.2c2.765,10.427,11.157,25.88-7.249,39.196c-18.914,11.376-44.613,2.183-59.004,10.022
		c-10.744,5.223-35.358,22.456-39.438,28.939c-3.447,9.927-1.145,23.619-26.971,44.392c-6.579,5.203-15.253,6.009-22.631,9.58
		c-2.73,1.426-2.965,4.989-3.265,7.655c-0.406,5.317-2.452,11.839,1.34,16.437c3.92,5.267,7.149,11.248,7.769,17.905
		c4.812,40.619-12.613,43.903,0.342,82.369c2.479,2.571,23.356,12.869,28.226,29.495c3.443,10.235-0.656,20.827-3.628,30.614
		c-1.276,4.319,1.661,7.969,3.343,11.633c19.121,38.936,69.64,57.766,117.166,96.717c17.905,12.444,22.475,29.353,25.781,35.603
		c5.125,10.114,6.365,21.576,9.459,32.367c2.523,7.277-1.682,14.227-5.317,20.222c17.955,0.991,35.931,1.725,53.843,3.471
		c0.406,1.561,0.805,3.129,1.183,4.726c-16.452-2.184-49.686-4.08-62.568-2.737c-0.107,0.52-0.314,1.554-0.421,2.074
		c8.824,0.798,17.741,0.535,26.515,1.918c4.704,0.577,9.366,1.817,14.141,1.753c8.617-0.028,17.135,1.397,25.703,2.153
		c-0.1,1.155-0.299,3.464-0.399,4.626c-11.265-2.502-44.264-5.814-65.846-5.011c-0.271,2.523-0.642,4.883-0.877,7.456
		c6.093,0.289,83.531,3.317,90.202,6.907c-8.501,5.644-15.871-2.268-56.117-0.998c-11.518,0.242-22.916-2.053-34.427-1.639
		c-1.026,2.381-2.06,4.776-3.108,7.171c2.97,0.088,84.759,3.623,92.141,5.695l1.255,3.279c-8.468-0.385-16.943-0.763-25.361-1.739
		c-17.442-1.917-35.04-0.356-52.489-2.124c-9.259,0.264-19.958-1.896-28.247,3.564c14.776,0.706,29.53,2.096,44.342,2.21
		c13.25,0.734,26.872-0.862,39.801,2.894c-0.335,0.998-0.663,2.031-0.977,3.072c-60.285-2.602-211.739-9.382-269.565-2.088
		c10.05,0.413,20.1-0.77,30.158-0.691c54.733-0.241,185.111,5.804,203.99,9.109c1.86,0.235,2.958,1.825,4.056,3.172
		c-0.784,0.599-1.547,1.219-2.309,1.86c-12.677-3.482-139.793-8.773-144.145-8.732c-171.146,2.807-100.444-1.734-155.564,9.558
		c-0.185,1.269-0.363,2.573-0.542,3.877c26.723-3.694,203.784-3.005,230.676-2.951c12.673-0.485,25.111,2.466,37.685,3.557
		c0.314,1.076,0.62,2.16,0.934,3.271c-75.326-5.363-197.56-2.772-243.492-0.185c26.515,3.026,96.013-0.373,151.337,5.467
		c-0.321,0.934-0.977,2.787-1.297,3.714c-300.271-4.471,172.946-2.149-168.714-3.642c-3.585,0.292-7.798,0.071-10.314,3.086
		c14.818,2.448,110.739,5.219,147.075,11.397c-0.328,1.276-0.649,2.58-0.962,3.892c-63.44-7.462-60.667-4.129-109.81-7.741
		c-12.26-0.164-24.527-3.215-36.758-0.92c-3.678,1.433-4.134,6.109-5.638,9.302c82.716,2.98,99.792-1.925,116.475,3.628
		c-0.72,0.834-1.411,1.732-2.11,2.616c-18.142-2.084-110.62-1.402-119.212-0.898c-2.423,1.81-4.056,4.433-6.187,6.558
		c67.139,1.378,44.896,0.316,82.126,3.792c-0.135,1.076-0.257,2.174-0.378,3.286c-25.652-0.519-46.952-4.556-84.97-2.616
		c-4.227,1.974-7.612,5.453-11.162,8.411c12.809,1.326,25.56-1.825,38.376-0.178c9.344,1.083,18.824,0.62,28.098,2.338
		c0,1.012,0,2.046,0.014,3.094c-15.563-0.094-67.003-5.225-91.563,4.362c13.122,1.276,27.05-0.242,39.581,4.569
		c-8.703,4.195-20.093-1.629-43.266,0.264c-19.403-0.284-51.371,14.955-95.534,13.108c-123.652-0.649-133.469-23.181-175.229-42.175
		c-30.641-14.888-34.177-17.847-42.196-24.691c-5.774-4.556-48.356-43.387-53.287-82.012c-0.773-15.284,0.629-23.168,17.563-44.848
		c-5.049-27.199-6.087-40.946,12.994-61.299c-3.015-5.332-3.25-11.754-2.63-17.713c2.777-14.087,2.334-40.561,61.727-74.421
		c58.588-28.096,123.137-9.004,159.79-25.289c-0.606-3.507-1.711-6.843-3.136-10.079c-12.579,2.396-45.9,1.26-53.187-1.775
		c-2.637-0.948-4.982-2.545-7.648-3.393c-7.235-1.81-14.669-2.559-21.961-4.077c-1.023-0.277-56.626-16.556-68.427-18.154
		c-35.352-3.913-35.183-4.431-38.611,5.36c-2.48,4.982-0.128,10.499,0.891,15.531c0.898,4.384,4.455,7.456,6.978,10.934
		c-7.598,5.959-17.827,3.934-26.708,3.265c-0.007-0.82-0.007-1.618-0.007-2.402c7.135-0.157,14.27-0.264,21.405-0.613
		c-1.162-2.651-3.293-4.74-4.341-7.42c-2.138-8.24-2.88-17.114,0.235-25.218c-11.997,4.718-12.856,0.724-20.336,14.505
		c-0.67,0.007-2.01,0.014-2.68,0.014c-0.427-14.264,25.314-19.929,38.982-19.259c31.286-0.176,89.134,19.561,94.807,20.621
		c7.27,1.255,14.697,1.832,21.775,4.07c3.706,1.39,7.156,3.493,11.048,4.398c6.693,2.124,13.735,0.677,20.578,1.618
		c9.052,1.155,18.268,0.777,27.114-1.504c12.982-51.061,38.621-56.353,53.465-64.777c10.221-5.517,22.082-6.5,32.731-10.827
		c15.079-8.342,16.817-26.617,9.409-36.295c-7.142-10.243-12.153-21.733-18.995-32.153c-1.875,1.661-3.849,3.229-6.173,4.22
		c1.219-2.666,2.716-5.182,4.234-7.677c-25.277-43.076-25.694-78.554,13.557-106.389c6.758-4.724,4.846-6.869,24.17-17.356
		c-4.148-4.883-9.373-8.96-12.381-14.733c-4.518-9.176-21.252-35.419-16.258-66.224c0.805-4.191,1.226-8.938,4.79-11.818
		c8.073-4.988,14.498,4.483,21.583,13.564c1.96-5.339,3.336-11.654,8.404-14.975c5.36-3.735,13.863-1.704,16.75,4.198
		c4.597,8.04,6.372,17.285,10.235,25.667c4.191-3.179,9.516-5.032,12.531-9.58c3.813-5.574,9.772-10.848,9.081-18.261
		c1.19-13.037,2.295-26.116,5.239-38.889c0.777-4.483,2.93-8.91,1.59-13.514c-3.246-15.382-11.831-36.974,2.801-69.596
		c4.301-8.761,13.268-16.192,12.36-22.873c-0.084-23.602,15.219-50.231,26.223-65.39c5.909-7.719,13.457-13.942,20.557-20.507
		C445.586,552.937,331.211,507.533,238.799,539.21 M502.22,531.819c-2.488,13.279-4.049,26.736-7.384,39.851
		c-0.157,2.473-2.423,6.615,0.463,8.418c0.072,0.047,36.771,19.902,37.121,20.079c3.001,1.782,6.137-0.663,9.166-1.076
		c3.97-0.969,7.563,1.169,10.82,3.079c-1.404,3.806-3.45,7.334-5.631,10.742c1.001,0.865,41.409,37.293,54.52,45.896
		c21.565,15.935,112.64,89.71,112.64,89.71c6.942,5.374,15.118,8.874,21.925,14.441c19.349,16.092,62.467,37.616,76.388,38.903
		c4.113-5.317,8.083-10.727,12.01-16.173c-3.165-5.61-7.819-10.521-14.184-12.288c-3.778,4.54-5.595,13.529-13.201,12.823
		c-15.148-4.199-21.948-5.204-21.818-10.891c1.354-5.538,5.36-9.965,7.163-15.339c0.741-5.018-6.201-5.959-9.594-4.077
		c-4.148,2.801-6.672,8.682-12.388,8.418c-5.403,0.413-12.759-1.297-13.742-7.62c1.205-5.56,5.374-9.822,7.384-15.04
		c-0.307-5.225-5.118-11.975-11.069-9.145c-5.082,3.386-8.261,9.323-14.32,11.347c-20.079,0.66-9.315-9.542-15.781-21.59
		c-6.287,0.905-12.253,3.35-18.675,3.478c-0.157-3.842,0.093-7.727,1.269-11.397c1.483-4.098-0.87-9.095-4.911-10.663
		c-4.398-2.908-7.748,2.024-11.447,3.436c-12.306-22.273-15.93-8.072-23.315-6.779c-0.613-5.624,2.58-10.571,4.241-15.681
		c0.086-3.956-3.478-6.094-5.381-9.052c-1.376-2.88-0.898-6.607-3.485-8.824c-6.863-6.471-24.697-8.443-35.418-24.356
		c-2.488-3.664-4.441-8.945-9.958-8.24c-0.698,3.065-0.748,6.223-1.14,9.337c-4.127-0.542-8.689,0.577-12.588-1.055
		c-4.056-3.999-6.251-9.416-9.573-13.978c-8.465-9.1,4.193-18.068,4.754-27.748c-0.898-2.851-1.34-6.429-4.034-8.204
		c-2.117,0.385-4.084,1.397-6.23,1.625c-2.773-3.257-1.832-8.026-3.279-11.818c-1.618-3.842-4.262-7.099-6.807-10.342
		c-1.554,0.42-3.086,0.87-4.626,1.304c-3.55-3.329-8.332-4.64-13.072-5.075c-2.053,3.25-4.12,6.508-5.994,9.872
		c-2.594-0.549-5.61-0.449-7.47-2.616c-12.26-13.735-3.488-15.582-0.478-25.667c1.604-3.856,0.264-8.418-2.616-11.255
		c-2.694,0.413-4.947,2.195-7.62,2.637c-4.298-1.461-4.804-7.52-8.867-9.551C511.8,529.068,506.668,531.306,502.22,531.819
		 M717.543,559.396c5.453,4.961,9.836,13.044,18.197,12.866C732.129,567.071,722.837,561.524,717.543,559.396 M737.323,579.276
		c1.739,1.732,3.329,4.262,6.009,4.512c3.45-1.105,6.615-3.172,9.252-5.652c-2.68-2.081-4.84-5.36-8.311-5.987
		C741.157,573.509,739.596,576.888,737.323,579.276 M750.231,587.679c7.12,8.482-0.338,7.685,17.52,15.831
		c2.422-2.401,13.914-10.325-6.009-19.594C757.43,582.348,753.524,585.32,750.231,587.679 M779.583,597.615
		c-1.276,4.255-4.27,7.655-6.002,11.668c0.057,3.336,4.034,5.011,5.809,7.441c3.942-2.031,7.62-4.548,11.668-6.408
		c1.333-0.884,3.3-1.44,3.771-3.15C791.273,602.099,785.713,598.549,779.583,597.615 M899.002,605.541
		c-0.264,0.734-0.513,1.475-0.756,2.224c6.13,6.508,39.386,30.229,47.236,64.114c1.34,6.358,5.595,11.461,8.204,17.292
		c16.522,37.745,22.836,45.084,33.351,56.345c3.778,4.034,3.108,9.858,0.584,14.362c-10.264,3.215-21.063,1.14-31.106-1.81
		c0.533,6.096,6.778,27.713-9.694,21.241c-36.066-16.056-22.06-75.876-33.187-104.08c-10.907,16.701-26.994,37.407-46.815,36.273
		c-4.291,7.598-9.366,14.94-11.711,23.45c-19.827,74.699-34.542,70.713-53.387,83.58c-18.033,10.488-33.716,14.919-39.488,27.47
		c-1.019,4.512,0.413,9.216,1.604,13.593c4.69,15.474,7.584,31.726,6.287,47.941c-0.394,6.186-4.336,22.97,3.571,27.82
		c17.015,14.379,69.866-31.024,76.16-61.47c-2.708,1.91-4.633,4.761-7.384,6.579c-1.654-0.05-3.243-0.585-4.826-0.948
		c8.082-23.815,33.183-26.66,30.457,4.761c-1.568-0.221-3.122-0.449-4.669-0.684c-1.283-4.049-2.751-8.29-6.023-11.176
		c-12.642,40.632-27.227,47.038-51.149,69.902c1.889,1.882,3.771,4.683,7.049,3.322c6.322-0.349,9.095-7.128,12.573-11.355
		c6.372,2.538,9.694,9.345,15.995,12.053c4.626,2.808,10.235,1.853,15.389,2.188c6.593-8.789,14.526-19.053,12.31-30.735
		c-0.114-1.704-0.763-3.735,0.613-5.096c8.846-9.95,20.528-16.736,32.374-22.51c4.426-1.818,9.309-1.768,13.999-2.416
		c0.485-2.438,0.87-4.968,1.525-7.342c4.034-1.96,5.011,2.701,6.943,4.925c7.498,12.074,19.972,22.011,34.541,23.073
		c18.948-0.536,23.765-0.732,37.364-16.579c11.133-13.269,12.167-43.137,8.489-56.83c-1.818-9.145-6.365-17.392-9.551-26.066
		c1.333-1.319,2.637-2.673,3.885-4.07c24.516,23.528,23.201,87.626-8.133,109.497c-6.365,4.583-14.305,5.838-21.754,7.62
		c21.519,31.084,90.623,225.872,61.613,330.857c-1.007,7.598-9.305,7.375-6.586,26.48c1.169,5.809,6.451,9.209,9.822,13.635
		c3.115,10.235,0.677,20.92-1.326,31.091c-7.301,30.722-19.735,33.657-24.733,47.172c-4.209,10.575,4.339,9.865,8.012,14.013
		c5.938,3.782-3.187,20.246-9.38,23.757c-30.688,20.484-55.363,53.974-58.925,64.485c4.042,0.098,104.861-6.569,112.091-7.669
		c4.576-0.898,9.067-2.224,13.757-2.552c-1.012-8.845-4.091-17.278-5.396-26.066c-2.402-9.088-2.366-19.181-7.769-27.2
		c-4.916-4.365-19.37-0.855-23.436-12.131c-3.022-10.666,10.122-21.95,26.793-28.183c-3.174-14.629-13.117-56.644-8.432-68.762
		c4.967-4.444,12.873-4.539,17.827-24.313c3.832-15.845-6.098-17.958,9.715-35.154c0,0,36.336-28.601,54.428-49.645
		c2.317-2.659,3.742-6.215,6.857-8.09c1.704,0.584,3.143,1.711,4.655,2.673c-2.445,8.988-6.85,17.199-12.638,24.47
		c29.389,11.24,146.549,25.403,214.133,5.275c10.702-3.115,45.529-13.48,55.126-19.145c-80.528-61.693-45.111-38.295-63.337-54.057
		c0.955-2.281,1.974-4.526,2.915-6.807c1.853,0.613,4.106,1.468,5.203,3.307c50.424,62.466,91.469,34.686,121.864,124.743
		c4.32,16.492-11.057,16.18-20.549,31.569c-10.836,16.208,17.308,33.011,5.681,49.816c-4.305,8.796-9.758,17.05-16.715,23.992
		c-2.716,2.352-5.467,4.911-6.543,8.482c14.08,7.323,6.82,21.317,1.226,23.315c-32.871,13.126-62.004,8.201-95.427,38.54
		c-4.419,4.12-3.671,10.506-6.55,15.417c66.964-0.434,144.539,2.962,145.521-4.533c3.013-12.685-4.164-29.005-9.494-28.304
		c-4.54-0.107-7.798,3.493-11.982,4.412c-12.889-3.629-13.843-14.768-3.842-24.448c8.596-6.7,20.186-7.206,29.844-11.519
		c2.965-3.129,6.173-7.391,4.483-11.953c-4.79-14.606-23.435-39.055-10.692-48.383c5.453-1.226,11.682-0.2,16.65-3.35
		c2.317-1.233,1.226-4.818,2.153-6.622c-0.912-5.075,5.923-5.082,6.85-9.309c2.053-8.503,1.269-17.313,2.573-25.909
		c0.796-9.371,5.206-10.057,21.854-52.268c0.704-2.053,10.935-29.147,16.893-64.007c3.214-17.597,23.74-73.651,11.091-154.445
		c-2.64-29.938-1.979-20.961-10.963-42.71c-3.15-7.634-8.903-13.785-12.331-21.284c-4.198-8.568-10.043-16.593-18.29-21.619
		c-14.851-8.624-32.4-17.985-50.322-18.881c-23.876-3.419-75.587,3.554-98.613,11.939c-64.899,20.821-34.183,14.057-84.678,23.023
		c-33.054,2.025-31.918,6.798-68.134-6.771c-2.088,4.69-2.894,9.972-5.581,14.384c-7.782,14.385-27.15,15.327-31.868,18.026
		c-2.908,4.341-4.49,10.399-10.314,11.846c-18.228,1.625-21.407-26.327-25.147-38.027c-1.257,3.702-9.062,31.283-22.93,34.898
		c-7.926,3.186-18.839-2.238-18.525-11.533c-1.171-35.996,3.784-69.141-7.855-110.288c-0.438,1.255-12.169,45.186-33.757,43.772
		c-5.26,0.463-10.157-4.184-10.243-9.394c-0.121-7.235,3.108-13.828,5.054-20.642c8.633-31.605,5.261-23.895,6.401-48.376
		c-0.449-10.3,0.763-20.571,0.043-30.856c-2.402,6.857-4.063,14.256-8.225,20.328c-2.887,4.555-10.856,4.476-12.794-1.026
		c-2.915-6.75-4.94-13.856-6.515-21.02c-5.308,1.436-9.006,4.482-14.391-8.019c-3.229-6.558-3.678-13.942-5.282-20.956
		c-3.621-20.892-11.547-40.771-21.041-59.631c-11.442-24.074-16.514-16.278-22.053-21.212c-2.644-12.711-2.864-57.371-49.317-74.849
		C911.982,603.232,905.267,604.451,899.002,605.541 M525.335,624.651c1.169,0.513,2.345,1.048,3.521,1.575
		c2.922-4.647,5.995-9.231,8.254-14.263C532.47,615.47,529.049,620.253,525.335,624.651 M798.65,614.437
		c-7.155,2.568-13.186,4.272-11.02,8.325c2.737,6.351,8.111,11.02,13.507,15.104c3.272,2.994,8.005,2.694,12.06,3.785
		c2.274-4.868,6.023-9.551,6.244-15.082C816.493,621.198,803.789,612.296,798.65,614.437 M521.907,628.429
		c-1.504,1.889-3.4,3.756-3.671,6.28c2.758,3.835,6.914-0.527,7.235-3.821C524.345,629.968,523.104,629.22,521.907,628.429
		 M825.336,629.897c-4.442,20.502-12.128,13.225-3.286,29.117c8.509,11.971,14.205,2.804,22.011-1.953
		c2.174-1.718,5.645-2.908,6.052-6.059c0.82-6.921-5.296-11.212-9.637-15.446C836.513,631.608,830.818,629.968,825.336,629.897
		 M881.14,634.181c2.609,5.21,7.32,8.853,10.563,13.621c2.259,4.861,7.491,6.016,11.818,8.204c5.926,2.835,3.818-0.004,17.584-1.354
		C913.347,643.184,893.327,631.902,881.14,634.181 M514.159,639.42c-1.953,3.122-3.97,6.208-5.545,9.544
		c1.917,0.763,3.842,1.532,5.766,2.309c1.59-3.286,3.108-6.6,4.697-9.886C517.424,640.738,515.784,640.104,514.159,639.42
		 M505.485,653.248c-1.554,2.395-3.008,4.847-4.455,7.306c2.388,0.855,4.811,1.632,7.242,2.381c1.126-2.039,3.364-3.792,3.336-6.272
		C509.74,655.236,507.573,654.281,505.485,653.248 M848.58,662.984c-9.446,7.103-9.176,5.86-7.926,10.136
		c5.595,13.308,17.256,12.357,23.985,13.08c5.232-7.327,10.05-15.004,13.557-23.315C870.91,658.668,863.92,652.282,848.58,662.984
		 M876.792,687.618c-3.257,4.597-8.461,8.24-9.245,14.213c12.52,9.128,39.104-23.095,39.117-31.163
		c-2.737-5.132-7.833-8.111-12.859-10.57C885.623,667.582,883.527,679.086,876.792,687.618 M916.08,663.462
		c5.424,9.9,6.564,12.33,9.608,37.799c1.118,20.738,6.506,57.707,24.113,68.534c0.356-6.729,0.478-13.45,0.741-20.157
		c10.428,1.247,20.421,7.684,31.148,4.049c-2.32-7.586-24.067-34.167-39.452-62.432C936.76,680.729,937.232,665.387,916.08,663.462
		 M498.514,664.951c-1.226,2.709-2.495,5.403-3.428,8.233c3.371-0.15,6.75-0.171,10.136-0.193c0.349-1.632,0.506-3.542,0.969-5.068
		C503.61,666.954,501.058,665.971,498.514,664.951 M974.763,664.631c0.699,2.338,0.413,5.531,2.488,7.292
		c2.673,2.338,5.773,4.148,8.268,6.736c8.007,7.779,15.048,30.585,18.055,36.808c15.766,35.519,14.647,63.24,21.896,69.068
		c1.176-5.389,1.597-11.034,4.769-15.759c1.682,1.54,4.041,2.694,4.597,5.125c1.597,8.461,2.188,17.278,5.588,25.304
		c4.781-7.462,11.095-52.17,8.482-65.633c-0.364-3.464-1.646-6.8-1.682-10.264c1.24-1.14,2.766-1.917,4.234-2.744
		c4.768,9.066,5.025,19.523,7.285,29.338c3.104,40.595,9.04,27.03,7.969,70.251c-1.176,11.497-1.589,23.123-4.205,34.42
		c-1.853,12.559-8.211,23.985-9.002,36.765c12.202-5.499,26.641-31.346,29.887-42.018c1.775-4.918,2.794-11.426,8.475-13.414
		c15.316,32.733,14.389,59.671,14.17,133.054c3.051,7.931,34.505-18.269,26.579-53.473c2.381-1.333,5.317-3.614,8.111-2.117
		c3.514,3.493,1.475,9.344,2.259,13.714c-0.229,9.736,7.119,34.581,13.436,39.73c4.663,4.332,10.968-3.522,11.804-8.354
		c0.827-4.947,2.046-9.822,3.115-14.719c0.784-0.47,1.582-0.934,2.395-1.39c4.337,5.288,2.383,3.876,2.48,20.336
		c8.332-3.094,17.876-7.47,21.234-16.38c1.746-4.084,3.835-8.218,3.685-12.787c1.238-12.256-16.162-35.248-21.326-48.497
		c-14.972-36.075-11.679-74.787-35.867-100.017c-0.456,6.265-1.589,13.985-7.527,17.556c-2.038,1.304-3.763-1.133-5.346-2.11
		c2.288-5.46,4.997-11.162,4.22-17.271c-2.445-26.072-6.829-26.632-32.26-52.361c-13.464-12.488-28.033-24.52-45.261-31.369
		c-0.563,1.953,0.435,4.555-0.763,6.444c-1.818,0.328-3.635,0.549-5.453,0.67C1047.197,696.409,1042.099,670.765,974.763,664.631
		 M492.662,679.022c-0.264,2.744-0.52,5.517-0.748,8.282c4.22-2.331,9.494-4.013,11.818-8.56
		C500.018,678.708,496.347,678.765,492.662,679.022 M490.103,699.35c-15.495,19.753-25.262,48.523-17.99,72.775
		c4.013-7.306,8.047-14.583,12.923-21.355c-2.58,0.827-5.054,1.96-7.342,3.414c-0.713-0.135-1.411-0.257-2.103-0.371
		c-0.321-1.126-0.634-2.26-0.934-3.379c3.272-2.103,6.586-4.141,10-6.002c0.05-0.82,0.107-1.632,0.164-2.431
		c-2.751,0.128-5.524,0.178-8.261,0.264c-0.192-0.912-0.371-1.81-0.549-2.709c3.806-2.231,9.95-2.908,10.064-8.532
		c-2.951-0.677-6.258-0.977-7.798-3.927c3.129-1.133,6.308-2.103,9.523-2.972c-1.561-1.739-3.486-3.407-4.084-5.745
		c0.356-1.041,0.927-1.982,1.447-2.937c1.782,0.542,3.578,1.062,5.389,1.554c0.684-1.982,1.369-4.013,1.525-6.123
		c-1.169-1.953-2.545-3.728-3.849-5.56c0.998-1.197,2.01-2.388,3.036-3.557c1.454,1.226,2.887,2.48,4.327,3.749
		c1.497-4.341,1.761-8.981,3.286-13.315c1.069,1.062,2.124,2.153,3.186,3.236c3.2-2.195,6.401-4.405,9.665-6.508
		c0.036-0.57,0.1-1.711,0.128-2.281C502.876,686.926,495.94,693.206,490.103,699.35 M517.281,686.805
		c-0.128,0.57-0.392,1.718-0.527,2.288c3.015,1.055,6.044,2.345,9.316,2.202C524.145,688.33,520.66,687.104,517.281,686.805
		 M525.514,695.123c0.934,4.341,1.647,8.746,2.979,13.001c3.093-3.82,2.723-8.846,1.989-13.407
		C529.241,694.817,526.754,695.023,525.514,695.123 M855.993,701.032c-8.15,9.692-21.089,7.052-30.108,30.849
		c13.893,1.288,7.292,7.838,18.867,11.896c6.003-14.774,7.112-31.966,17.577-38.454c-0.969-3.286-1.903-6.586-2.488-9.95
		C858.559,697.262,857.433,699.257,855.993,701.032 M513.118,701.054c1.311,0.271,2.63,0.556,3.956,0.841
		c-0.563-0.756-1.126-1.497-1.682-2.231C514.622,700.12,513.867,700.583,513.118,701.054 M500.089,711.567
		c1.019,0.328,2.06,0.677,3.093,1.019c1.276-2.552,2.552-5.146,2.93-8.012C503.795,706.62,501.914,709.087,500.089,711.567
		 M518.258,709.685c-0.513,2.495-1.005,5.011-1.475,7.527c2.958-1.304,5.759-2.915,8.603-4.455
		c-0.592-1.233-1.169-2.466-1.725-3.699C521.807,709.193,520.068,709.486,518.258,709.685 M509.861,709.621
		c-1.012,2.188-2.067,4.369-3.122,6.543c1.989,0.328,3.756,0.363,5.816,0.791c0.299-2.124,0.499-4.384,0.813-6.465
		C512.192,710.184,511.023,709.892,509.861,709.621 M1403.442,722.045c-1.411,3.471-1.932,7.192-2.416,10.884
		c-0.178,5.353-7.406,7.791-11.775,6.066c-4.483-3.058-3.329-10.435-8.446-12.965c-6.62-2.03-17.799-1.351-21.191,5.339
		c-2.203,4.134,1.29,8.332,3.635,11.54c1.896,2.758,6.722,4.22,6.714,7.99c-4.433,5.852-12.402,8.575-15.318,15.703
		c6.272,3.642,12.83,6.793,18.832,10.913c-2.777,6.713-12.634,24.538-21.619,16.7c-4.818-4.156-7.463-10.207-12.374-14.27
		c-2.138,1.176-4.213,2.459-6.173,3.899c1.554,6.408,4.106,12.588,4.305,19.288c-5.481,2.395-11.497,2.673-17.349,3.265
		c-7.727-13.862-6.669-17.482-11.155-20.749c-7.399-4.854-17.271-5.581-25.182-1.504c1.582,5.446,1.461,11.169,1.262,16.807
		c0.492,3.813-2.096,7.406-5.538,8.732c-10.673,4.426-26.65-3.821-23.008-10.207c5.27-8.247,22.517-24.586,7.463-30.856
		c-5.952-2.545-12.281-4.804-18.86-4.291c-5.321,24.661,0.429,19.914-21.633,21.269c-8.969-10.82,3.642-28.099-23.443-13.115
		c4.883,12.38,6.076,10.06,3.984,20.635c-7.014-0.057-14.027,0.029-21.013-0.007c-0.442,2.138-1.426,4.391-0.67,6.579
		c0.798,2.837,3.678,6.422,0.663,8.931c-3.628,2.416-8.247,1.041-12.317,1.012c2.958,7.605,5.431,15.439,5.895,23.664
		c0.905,2.723,0.028,7.477,3.044,8.903c94.099,0.965,426.41-4.26,433.319-4.22c0.035-4.884,0.478-58.942-0.007-64.264
		c-0.093-13.122,3.857-26.701-12.88-29.053c-14.55-1.121-17.5,15.488-6.907,28.433c-0.784,0.927-2.352,2.78-3.136,3.706
		c-3.835-2.459-7.719-5.88-12.652-5.046c-4.933,0.171-9.416,3.172-12.153,7.128c-2.58,5.046,1.803,9.958,0.741,15.175
		c-3.913,0.756-8.667-0.057-11.554,3.208c-1.803,2.195-4.569,4.213-4.826,7.263c0.114,4.604,1.946,9.024,1.746,13.671
		c-7.761-1.134-11.022-6.275-26.016,7.028c-1.076-0.535-2.146-1.076-3.193-1.59c-1.753-7.099,4.141-13.229,2.858-20.193
		c-2.195-4.255-6.622-6.729-10.906-8.439c-3.706,4.433-5.994,11.747-12.531,12.709c-5.766,0.527-11.583-0.029-17.342,0.214
		c-0.642-0.513-1.276-1.019-1.882-1.504c0.52-7.285,5.481-12.787,10.25-17.798c-1.639-2.53-2.452-6.016-5.467-7.242
		c-2.288-0.941-5.481-2.096-7.242,0.52c-10.787,7.854-4.75,10.392-22.018,8.361c-0.392-6.051,5.417-9.088,8.66-13.201
		c2.288-2.06,0.577-5.802,0.378-8.282c-2.473-6.657-8.525-10.955-12.851-16.308c-2.381-2.16-4.669-5.488-8.29-4.833
		c-2.958,2.666-4.17,6.636-6.087,10.029C1406.917,758.237,1438.017,735.448,1403.442,722.045 M494.358,754.241
		c-15.809,15.615-20.183,30.185-24.32,54.92c-2.202,13.141-4.23,58.365-1.575,73.73c13.337,1.302,33.268,2.489,46.017-3.357
		c-1.361-1.148-2.602-3.2-4.626-2.851c-11.96,1.597-23.828,4.305-35.988,3.364c0.855-1.589,1.725-3.172,2.552-4.768
		c11.077,0.078,21.889-2.495,32.88-3.371c-0.513-1.625-1.055-3.229-1.625-4.811c-17.043,1.19-25.178,4.53-33.664,2.374
		c4.907-7.283,1.738-3.312,30.692-7.748c-0.584-1.511-1.148-3.015-1.682-4.526c-8.895-0.492-17.691,1.589-26.572,1.646
		c-0.456-0.941-0.905-1.867-1.354-2.78c4.284-3.495,3.367-2.421,25.489-4.619c-0.82-2.117-1.689-4.212-2.502-6.322
		c-7.463-0.014-14.997,0.064-22.26,1.917c0.093-2.21,0.378-4.398,0.877-6.543c6.344-0.1,12.616-1.197,18.974-1.297
		c-0.428-2.024-0.941-4.027-1.504-6.016c-6.144,0.706-12.374,1.426-18.532,0.592c0.948-1.497,0.67-5.339,3.243-5.581
		c4.498,0,9.01,0.228,13.493-0.428c-0.221-2.495-0.449-5.061-0.563-7.534c-5.189,0.093-10.364,0.257-15.539-0.021
		c1.005-7.334,9.715-4.883,14.719-6.13c0.114-1.846,0.05-4.013,0.264-5.745c-3.856-0.413-7.677-0.727-11.476-1.397
		c0.299-1.019,0.606-2.031,0.92-3.036c3.443-0.891,6.957-1.497,10.364-2.523c1.14-2.288,0.641-5.032,0.855-7.441
		c-3.072,0.321-6.123,0.663-9.202,0.848c-0.328-1.354-0.684-2.701-1.019-4.034c3.371-1.49,7.042-1.903,10.663-2.466
		c0.527-1.24,1.069-2.473,1.625-3.692c-3.022-1.098-6.109-2.081-9.195-2.951c0.007-1.276,0.014-3.828,0.021-5.104
		c3.457,0.763,6.9,1.568,10.364,2.324c0.634-1.041,1.276-2.074,1.924-3.101c-2.994-1.982-6.244-3.92-7.99-7.192
		c1.205-0.649,2.431-1.276,3.642-1.917c2.53,1.468,5.232,2.63,7.919,3.785c-1.076-4.405-3.236-8.482-3.87-12.994
		c4.305-1.034,6.101,2.488,7.477,5.553c0.449,0.071,1.34,0.207,1.782,0.271c0.043-2.673,0.128-8.019,0.171-10.692
		c1.668-0.962,3.414-1.796,5.253-2.374c0.021,3.008,0.057,6.087,0.057,9.145c0.934,0.071,1.882,0.15,2.83,0.235
		c0.898-2.644,1.54-5.524,3.314-7.734c1.39-1.233,4.234-2.473,5.553-0.599c0.093,3.4-3.692,5.46-3.55,8.903
		c2.067,2.039,5.068,1.825,7.719,2.188c1.803,0.235,2.744,1.982,3.714,3.314c-2.117,0.57-4.298,1.034-6.394,1.618
		c-0.413,4.847,4.64,7.798,4.034,12.638c-2.167-0.77-4.127-1.276-6.18-2.124c-0.235,3.421-0.449,6.9-0.706,10.35
		c-1.197-0.078-3.578-0.242-4.768-0.321c-0.143-2.758-0.264-5.503-0.371-8.225c-1.561,0.755-3.115,1.518-4.662,2.295
		c-0.47,3.072-1.119,6.108-1.753,9.152c-1.354-0.292-2.709-0.584-4.049-0.862c-0.178-3.165-0.378-6.365-0.556-9.494
		c-3.129,6.372-2.21,13.685-2.516,20.556c46.596-9.184,33.997-57.879,9.48-59.916C505.264,743.25,499.027,748.275,494.358,754.241
		 M509.362,772.182c2.922-0.791,4.875-3.136,5.659-5.987C512.313,767.256,510.552,769.623,509.362,772.182 M1469.922,783.208
		c-0.955,0.478-0.955,0.962-0.014,1.447C1470.835,784.163,1470.835,783.679,1469.922,783.208 M520.945,845.583
		c-3.828,5.945-5.909,13.3-4.184,20.314c1.105,3.521,4.006,6.044,6.643,8.475c7.327-5.424,13.621-13.856,12.78-23.458
		c-3.371,1.376-6.401,3.899-5.823,8.147c-3.093-0.064-6.422-1.974-6.329-5.367c2.5-12.014,29.113-15.981,16.921,15.631
		c-9.691,22.035-57.187,31.815-76.26,20.785c-3.521-2.103-8.254-3.585-9.031-8.183c1.853-1.133,3.828-2.11,5.481-3.528
		c0.1-3.913,0.784-8.176-0.57-11.903c-3.272-3.984-10.278-4.184-13.528-0.021c-3.614,6.479-6.223,13.621-6.558,21.098
		c10.932,8.854,14.217,13.425,36.573,17.057c8.511,0.143,17.313,2.096,25.71-0.299c2.623-0.748,4.961-2.338,7.698-2.751
		c2.117-0.349,4.248,0.178,6.379,0.128c7.5,0.626,43.464-12.428,52.974-34.327c9.593-20.425,0.823-36.064-11.412-40.97
		C543.59,823.772,527.581,832.105,520.945,845.583 M410.806,848.199c-0.755,6.082-3.324,6.234,8.76,17.962
		c4.184,4.106,7.62,9.024,12.502,12.381c0.584-2.958,0.713-6.087-0.285-8.974c-4.205-10.663-8.874-21.205-15.139-30.842
		C413.636,841.043,411.077,844.229,410.806,848.199 M383.3,861.763c-0.759,31.292,43.488,66.513,46.502,69.261
		c0.506-4.74,0.257-9.544,0.577-14.284c2.357-38.932,16.293-6.732-30.585-62.19c-3.771-4.697-7.27-9.829-12.595-12.916
		C382.024,847.016,383.314,854.906,383.3,861.763 M1563.04,844.122c-0.958,0.022-375.886,3.859-384.023,4.106
		c1.492,46.282,33.928,48.402,33.294,80.708c3.207,2.716,6.95,4.904,11.169,5.517c66.839,7.894,73.523-1.624,124.159-14.227
		c66.083-23.488,71.718-22.097,111.785-24.605c55.51,0,75.46,30.148,77.287,31.597c11.827,8.754,30.596,31.63,39.074,52.068
		c27.02,68.543,20.736,95.598,17.663,166.576c0.598,46.247-23.269,136.186-0.912,190.055c4.797,15.588,9.658,31.911,20.378,44.613
		c-0.882-17.692-0.21-535.386-0.371-537.534C1596.048,843.609,1579.54,843.745,1563.04,844.122 M659.551,846.795
		c-8.283,2.977-34.274,19.296-41.084,24.363c-7.905,5.888-17.463,9.038-26.872,11.568c-6.337,1.867-12.937,0.898-19.38,0.47
		c-5.389,4.989-10.278,11.091-17.463,13.493c-51.848,18.987-44.883,15.287-52.753,35.418c-1.105,0.029-2.202,0.064-3.293,0.114
		c-2.994-6.137-0.107-12.965,0.442-19.295c-7.776-0.249-15.61-0.164-23.315-1.39c-5.446-0.927-11.397,2.502-16.608-0.221
		c-8.739-3.863-14.968-11.354-22.759-16.629c-3.471,12.324-4.27,25.161-3.692,37.927c5.424,4.013,11.169,7.955,14.933,13.7
		c32.817,49.131,22.992,70.976,22.117,88.898c11.213,11.782,23.516,19.788,29.652,22.517c-4.49,16.971-17.299,29.644-27.649,43.201
		c-1.946,2.723-4.961,5.182-5.474,8.603c6.55,20.436,20.26,31.586,35.739,33.13c-5.018-7.007-11.953-12.823-14.868-21.134
		c-8.922-34.496,34.464-65.182,69.246-50.301c0.713-4.455,1.589-8.831,2.473-13.222c-7.285-0.15-13.778-3.5-19.993-6.907
		c-4.54-2.758-7.712-7.142-11.005-11.198c1.447-1.554,2.858-3.143,4.198-4.79c4.875,5.31,10.777,9.601,17.313,12.666
		c10.239,4.897,30.416,0.191,38.347-5.545c28.909-27.861,19.848-44.367,16.572-61.185c2.259-0.87,5.36-3.065,7.342-0.57
		c4.462,3.785,6.85,9.095,8.204,14.662c31.217-24.307,26.746-21.981,45.083-29.516c25.041-11.256,48.223,0.722,56.16-15.924
		c0.784-5.517,0.527-11.411-1.725-16.572c-30.8,17.82-26.272,20.218-87.387,6.016c0.777,1.924,1.668,3.82,2.566,5.709
		c-0.791,0.948-2.381,2.851-3.179,3.799c-3.265-1.832-7.449-2.887-9.287-6.386c-5.298-10.736,1.256-23.729,16.843-21.191
		c2.459,0.178,2.894,2.965,3.692,4.804c-2.687,1.197-5.289,2.58-7.712,4.248c11.309,6.257,37.361,13.458,54.991,8.967
		c12.726-4.43,44.463-21.044,43.387-33.814c-1.39-2.302-4.02-3.272-6.258-4.498C703.112,889.221,686.646,837.952,659.551,846.795
		 M454.421,855.897c1.853,0.82,3.685,1.718,5.474,2.694c-0.114-3.428-0.264-6.907-0.363-10.3
		C457.522,850.601,455.604,853.032,454.421,855.897 M407.193,935.101c-45.652,26.087-52.54,76.11-34.755,107.259
		c1.483-2.887,2.466-6.03,3.6-9.038c0.834,0.121,1.675,0.257,2.523,0.413c-1.169,4.099-3.236,8.026-3.771,12.288
		c3.592,9.599,52.808,61.543,3.721,88.391c-29.145,13.991-40.991,5.727-61.534,29.06c-6.501,8.86-12.331,18.767-12.973,30.051
		c-0.879,56.884,41.387,46.05,55.055,34.128c14.866-10.692,7.868-47.399-3.999-41.762c-4.405,0.77-8.575,2.409-12.823,3.756
		c13.197,3.407,9.138,17.796,4.811,23.13c-7.57,10.258-30.237,15.664-31.505-16.08c-2.338,0.071-4.676-0.107-6.992-0.257
		c2.937-1.718,7.128-2.217,8.575-5.724c7.147-14.621,17.83-18.568,32.638-18.169c5.624,0.449,12.474,0.249,16.415,5.018
		c29.774-9.068,14.717-18.864,30.699-22.517c3.186-0.641,6.472,2.088,9.473,0.178c1.105-0.698,29.295-19.226,34.028-25.175
		c0.943-7.726-14.674-45.051-15.047-46.06c-0.364,0.043-1.091,0.128-1.454,0.171c-1.91,3.151-3.828,6.436-6.764,8.767
		c1.532-4.441,4.419-8.275,5.945-12.688c-5.112-27.461-38.206-62.997-1.925-102.013c2.873-3.478,7.356-4.932,11.547-6.116
		c0.948,2.096,1.732,4.262,2.402,6.472c-3.39,1.148-11.72,1.401-15.467,13.821c-6.138,32.767-1.843,48.919,7.99,78.206
		c3.25-5.652,4.811-12.06,6.223-18.354c0.506-0.121,1.518-0.356,2.024-0.478c-0.877,7.741-4.448,14.797-6.151,22.317
		c0.592,6.046,14.181,36.327,17.713,49.246c4.69-3.785,8.475-8.482,12.281-13.115c-2.573-6.116-3.799-12.673-4.647-19.209
		c-1.537-41.774,14.516-48.185,5.553-60.607c-12.885-16.61-21.867-30.807-26.095-61.883c-2.374-8.796-2.309-17.99-4.298-26.843
		C429.193,940.66,413.886,932.243,407.193,935.101 M433.523,942.977c2.843,29.641,9.247,64.097,30.165,85.298
		C470.359,1003.314,452.836,956.381,433.523,942.977 M1561.372,979.664c-0.77,0.841,0.542,2.445,1.526,1.81
		C1563.631,980.612,1562.32,979.015,1561.372,979.664 M1563.289,983.157c5.9,24.644,13.047,34.265,8.019,123.795
		c-2.217,9.744-2.388,19.787-4.541,29.545c-1.383,9.808-4.89,19.338-4.248,29.395c0.032,1.002,0.491,161.398,14.206,190.361
		c7.052,14.455,9.732,53.286,23.094,68.27c12.696-9.202,8.516-27.216,0.043-39.353c-11.067-19.701-17.397-42.99-18.069-47.129
		c-1.304-5.652-4.17-10.799-5.332-16.487c-5.823-21.754-1.212-44.449-0.806-66.538c1.761-15.774,0.456-31.74,2.979-47.457
		c0.142-1.904,22.883-144.802-0.762-196.228C1573.189,1001.824,1570.253,991.403,1563.289,983.157 M469.176,1040.207
		c-5.111,42.279-6.745,34.964-3.371,63.765c24.484-30.648,22.493-27.33,30.706-44.028
		C486.731,1054.356,477.658,1047.585,469.176,1040.207 M523.126,1078.669c-18.519,3.304-29.833,20.497-29.694,31.619
		c0.651,15.899,12.844,29.403,20.45,29.694c18.545-4.86,29.103-23.176,29.773-32.417c-3.847-12.922-26.175-18.533-31.804,2.039
		c3.728,1.86,8.347,1.953,11.476,4.897c3.068,1.794-4.442,11.355-13.586,7.89c-4.134-1.832-7.299-5.702-8.589-9.972
		c0.064-5.845,2.979-11.661,7.762-15.054c14.979-10.598,16.896-11.109,30.229-9.316c6.694,2.323,13.565,11.678,9.886,31.013
		c-5.628,22.058-61.548,58.808-88.292-5.702c-4.098,4.134-7.648,8.753-11.625,12.994c1.497,9.238,4.491,18.197,5.439,27.535
		c2.15,46.805-7.837,60.495,1.404,82.133c11.351,20.849,74.217,80.901,124.323,27.513c23.551-25.551,17.494-56.903,6.6-65.041
		c-21.383-17.478-65.341-6.029-67.03,29.267c-0.602,5.683,10.074,15.346,18.347,13.557c15.786-0.441,34.739-24.687,21.433-31.255
		c-2.488-2.723-6.764-2.473-9.28,0.014c-4.968,2.709-3.286,10.977-9.23,12.324c-2.459-0.656-4.091-3.079-4.647-5.438
		c1.351-18.283,37.586-23.356,38.59-7.228c9.466,37.213-73.787,66.799-62.525,1.611c1.169-4.056,3.364-7.712,4.662-11.718
		c-9.53-0.235-21.105,1.967-28.618-5.453c-3.343-2.06-1.654-6.216-0.941-9.188c14.917,18.083,68.961-1.271,81.078-52.603
		c0.784-12.374,2.559-26.209-4.74-37.121C555.992,1081.499,538.379,1074.777,523.126,1078.669 M983.031,1139.49
		c-21.487,3.33-69.263,6.667-83.823,23.137c-14.481,16.984-13.884,29.89-8.51,37.877c2.46,2.345,29.879,14.295,43.465,64.292
		c4.815,12.033,10.746,42.788,16.209,52.824c4.398,6.907,12.709,9.473,18.311,15.118c4.212,4.113,4.54,10.392,5.531,15.852
		c1.676,14.022,9.35,39.695,20.592,50.707c3.674,2.647,0.967,2.739,13.479-4.391c-0.435-8.838-11.91-9.665-14.37-17.549
		c-4.407-21.554,33.478-26.688,32.118-62.04c-22.531-4.093-38.382,0.43-40.129,0.627c-14.992-1.054-17.532-8.302-12.766-19.594
		c3.792-5.146,9.28-8.888,12.552-14.455c2.563-9.406-11.14-12.474-21.276-17.677c-7.855-4.141-13.628-10.991-19.886-17.092
		c-8.382-8.518-12.274-20.863-11.205-32.681c1.294-12.951,25.296-29.737,39.666-32.332c8.503-2.53,17.242-4.091,25.995-5.453
		c4.355-2.48,6.002-7.89,6.693-12.545c2.438-11.854,7.249-23.308,7.384-35.561C1004.179,1134.722,993.687,1138.072,983.031,1139.49
		 M428.234,1142.94c-10.977,8.589-23.087,15.553-34.256,23.849c2.203,3.4,4.255,7.256,8.047,9.131
		c7.613,4.369,16.95,5.888,23.272,12.374c19.125,15.886-14.087,52.931-20.614,73.43c16.699,2.048,26.633,9.553,17.392,36.772
		c-1.818,7.235-5.81,8.629,10.663,19.922c11.523,8.048,37.526,0.854,45.204-11.112c3.839-5.87,12.156-18.538,2.844-33.329
		c-4.148-2.623-8.047-7.919-13.586-6.536c-7.142,2.26-15.389,4.94-19.423,11.832c-2.851,4.341-5.068,9.729-2.153,14.79
		c3.785,3.108,9.266,4.448,13.928,2.68c3.621-1.96,2.951-6.943,3.486-10.3c-2.709,0.592-5.46,1.076-8.197,1.525
		c-0.257-1.433-0.542-2.844-0.827-4.248c4.733-1.511,9.387-3.236,13.778-5.56c3.475,6.535-0.454,25.863-9.993,30.428
		c-6.073,2.951-13.372,6.358-20.1,3.464c-2.823-1.269-2.488-4.804-2.488-7.363c8.523,2.156,4.451,3.079,15.061-0.527
		c-17.239-8.459-21.834-15.749-7.62-33.437c-9.108-16.627,2.739-27.096,6.173-31.711c-1.892-5.975-10.445-15.241-2.801-56.124
		c1.768-16.551,0.535-33.422-3.6-49.545C437.379,1136.054,433.145,1139.996,428.234,1142.94 M553.105,1178.7
		c4.555,0.014,9.095-0.021,13.671,0c-0.955-4.034-1.903-8.083-2.908-12.074C560.654,1170.966,556.883,1174.851,553.105,1178.7
		 M370.014,1179.199c18.484,20.231,2.877,34.501,7.57,43.151c14.668,29.78-33.414,69.612-20.143,88.698
		c10.592,10.545,34.622,8.155,44.427-0.691c18.081-18.489,12.627-37.367,4.341-39.652c-7.065-2.755-22.254,4.998-25.981,22.802
		c7.277-1.661,13.386-5.916,19.395-10.079c0.962,0.592,1.924,1.19,2.901,1.81c-3.865,11.165-22.852,19.355-32.189,18.418
		c-2.709-2.074-4.213-5.282-6.166-7.997c1.632-1.903,3.984-3.257,5.367-5.303c3.093-13.051,14.69-22.688,27.214-26.344
		c1.604-6.201,2.994-12.581,6.151-18.212c3.083-5.675,19.545-25.677,19.886-38.561c-0.499-4.754,0.748-11.49-4.056-14.519
		c-7.242-6.372-16.75-8.589-25.403-12.26c-4.063-1.468-5.795-5.738-8.054-9.059C379.915,1173.44,374.925,1176.269,370.014,1179.199
		 M334.96,1180.874c-4.491,1.953-7.62,5.959-10.121,10.029c10.407-1.162,20.435-4.412,30.065-8.404
		C349.073,1178.408,341.489,1179.313,334.96,1180.874 M978.954,1189.142c-14.733,2.409-32.741,13.868-37.763,25.361
		c-1.52,11.633,9.849,29.529,13.258,32.681c8.375,6.351,18.703,8.896,28.447,12.352c7.826,3.628,14.612,12.752,11.347,21.704
		c-4.153,7.925-16.808,23.568-4.098,25.646c12.124,1.454,24.405-0.805,36.48,1.454c-0.007-4.177,0.2-8.347,0.485-12.502
		c-24.408-11.528-14.76-37.073-4.854-45.789c7.097-6.709,2.943-1.707,5.474-37.399c0.535-6.044,0.798-12.117,0.991-18.169
		C1007.283,1183.58,990.429,1188.231,978.954,1189.142 M323.598,1193.818c-1.647,5.139-1.483,10.934,1.54,15.56
		c3.161,11.868,26.065-3.918,17.606-11.369c-3.977-0.043-6.322,3.493-9.722,4.904c-2.122-7.929-1.668-6.933,4.441-11.789
		C332.878,1192.2,328.26,1193.127,323.598,1193.818 M1539.924,1231.695c-5.053,16.526-5.709-3.839,5.838,81.506
		c0.797,10.299,3.161,98.42,29.167,133.952c6.41,7.99,28.84,11.576,28.333-12.901c-14.592-6.997-26.238-15.357-29.124-45.639
		c-12.72-92.356-6.02,33.417-19.73-198.074C1549.575,1204.26,1544.593,1217.924,1539.924,1231.695 M1409.607,1218.68
		c21.786,20.264,21.985,25.596,24.976,40.721c3.11,30.074-16.224,26.187-20.336,41.284c-2.716,6.871,4.312,12.588,4.925,19.159
		c-0.805,14.876-9.124,27.677-14.298,41.27c-4.932,14.854-20.826,23.866-36.138,27.371c-18.797,4.456-51.579,30.841-49.103,45.832
		c2.317,3.949,7.734,3.165,11.633,4.426c16.184-17.785,46.352-32.151,68.69-37.549c11.718-1.554,23.443-4.241,33.786-10.214
		c-2.737-4.776-6.971-8.382-9.979-12.93c-1.262-5.353,3.008-9.551,6.208-13.243c4.909-5.016,20.843-26.353,19.587-37.563
		c-2.794-6.95-9.095-12.21-10.856-19.616c-1.625-19.626,9.411-32.967,26.38-42.952c-2.899-11.234-13.428-31.356-23.351-37.079
		C1432.024,1221.866,1420.791,1219.186,1409.607,1218.68 M285.251,1227.383c-41.148,14.946-161.143-1.453-193.911,62.575
		c-10.641,25.212-8.251,24.982-7.028,33.194c3.969-3.38,30.825-27.886,64.143-39.474c4.376-1.86,9.366-2.416,13.201-5.389
		c14.837-10.992,29.052-17.595,50.899-16.294c0.87,2.217,1.54,4.419,2.124,6.771c-19.201-0.014-77.427,26.656-98.677,81.499
		c-6.787,17.762-12.585,24.052-5.139,67.5c2.154,16.052,7.875,13.624,24.391,24.213c48.064,24.873,71.978,23.541,98.1,21.155
		c7.826-1.447,13.493-7.976,17.684-14.284c5.57-7.754,3.855-27.63-5.317-36.059c-4.59-4.091-9.38-9.28-16.059-9.316
		c-6.023,0.214-11.839,3.571-17.933,1.996c-18.688-8.69,27.219-49.749,63.95-30.478c7.313,4.027,12.816,10.521,17.884,17.007
		c3.706,4.213,3.785,10.1,5.439,15.204c1.475-2.466,3.343-5.089,2.423-8.19c0.1-6.672-3.749-12.837-2.302-19.594
		c-0.699-3.628,2.872-5.282,5.31-6.793c24.353-14.071,52.127,6.943,61.263,33.743c4.904-0.071,9.786-0.77,13.806-3.799
		c-0.986-6.027-14.521-14.255-7.805-16.85c10.756-5.332,22.588-0.392,33.002,3.507c11.062,3.854,30.711,21.182,35.482,41.968
		c0.748,2.288,0.335,5.396,2.659,6.814c5.374,3.877,12.039,6.215,16.18,11.647c19.565,22.567,16.093,26.347,19.273,38.896
		c3.657-1.661,6.935-4.07,10.685-5.545c8.846-3.322,18.261-4.676,27.207-7.662c43.615-17.441,24.096,12.302,122.933-36.844
		c5.125-2.687,10.813-4.547,15.139-8.539c-19.102-7.555-40.165-5.381-59.688-11.148c-35.497-10.663-78.907-5.743-94.614-29.331
		c1.29-1.212,2.566-2.488,4.163-3.279c4.063,1.105,6.522,4.968,10.285,6.7c24.995,12.187,64.499,11.809,91.927,13.728
		c61.819,10.088,56.463,3.265,68.063,19.352c6.519,9.972,1.319,17.273-1.882,17.456c-10.229,0.397,4.021-12.037-78.869,25.133
		c16.662,1.439,117.268,9.9,132.135,2.416c7.834-9.589,10.636-52.103,2.552-67.628c-2.566-4.754-3.008-10.3-5.524-15.054
		c-17.526-39.326-72.083-71.785-93.288-92.027c-7.506-7.797-23.083-12.175-32.553-42.938c-20.27,31.526-47.415,43.135-78.876,38.027
		c-9.152-2.545-17.449-7.377-26.444-10.357c9.151,41.948-52.776,68.539-77.479,32.275c-16.187,14.126-16.298,17.216-39.851,16.387
		c-14.031-0.701-27.499-9.769-26.9-24.883c1.148-26.927,11.949-34.738,18.055-49.474c10.728-25.095,9.662-22.575,6.351-29.93
		c-3.992,5.196-7.384,11.226-13.593,14.127c-29.694,15.234-40.067,6.999-52.382-2.324c-4.098-3.35-5.453-8.796-6.836-13.643
		C294.41,1224.788,289.812,1226.014,285.251,1227.383 M453.145,1247.319c-2.096,5.111-1.561,10.784-1.376,16.201
		c3.657-1.148,7.377-2.074,11.141-2.787C460.893,1255.495,456.666,1251.553,453.145,1247.319 M1523.181,1272.651
		c2.815,12.987,8.054,25.845,7.185,39.374c-1.126,17.085,0.87,34.178-0.171,51.277c-4.707,56.75-2.677,68.342,1.198,78.976
		c8.121,12.942,13.151,8.277,18.561,0.456c6.948-16.174,0.12-7.242-7.805-77.429c-2.266-55.207-9.62-99.266-12.217-108.527
		C1527.101,1261.76,1524.371,1267.034,1523.181,1272.651 M124.248,1304.284c-74.002,48.52-44.263,95.885-41.669,108.356
		c0.613,1.554-0.984,2.666-2.039,3.521c-4.307-0.028-4.976-4.142-10.87-14.676c-4.469,7.078-8.176,14.947-8.147,23.515
		c-0.442,7.548-2.509,15.339-0.385,22.795c5.332,17.278,19.045,29.609,29.865,43.429c6.992,8.254,16.515,13.664,25.396,19.616
		c42.704,34.987,128.339,61.921,152.784,62.568c32.846,3.274,76.77,4.712,107.537-4.491c11.65-3.853,45.052-6.05,62.211-25.482
		c20.908-20.64,30.688-50.737,22.217-74.435c-8.423-26.984-54.94-39.298-83.73-37.856c0.007-1.711,0.014-3.45,0.442-5.096
		c8.217-6.085,47.36,5.117,55.768,6.529c-1.226-4.49-2.21-9.28-4.997-13.101c-23.773-27.151-32.573-26.471-44.292-25.567
		c0.727,4.255,2.295,9.081-0.798,12.894c-2.872,3.657-6.037,8.275-11.355,7.997c-4.07,0.242-8.61,2.267-12.474,0.214
		c-7.808-11.794,1.798-19.365-29.815-33.714c-6.565-3.058-14.769-3.621-20.763,1.041c-0.043,8.61,1.369,17.948-2.587,25.91
		c-3.799,4.59-6.13,11.362-12.253,13.365c-2.744-7.298-1.843-20.524-11.027-28.561c-24.939-27.879-57.512-7.764-63.986,3.692
		c5.168-0.193,10.35-0.549,15.517-0.014c4.945,0.951,22.212,9.011,25.254,21.64c3.683,14.008,1.651,39.652-16.123,48.376
		c-30.058,13.37-71.662-0.674-122.712-17.171c-18.472-8.563-24.88-8.131-19.138-23.7c5.534-14.286-21.429-43.872,19.473-104.964
		c6.223-9.43,13.521-18.083,20.549-26.915C135.574,1296.301,129.972,1300.485,124.248,1304.284 M1522.404,1324.506
		c-1.701,6.83-10.595,84.96-5.51,105.078c0.927-0.007,1.867,0.007,2.83,0.036
		C1519.317,1407.366,1526.507,1354.075,1522.404,1324.506 M693.244,1338.49c31.711,26.566,44.386,56.57,50.743,97.629
		C769.187,1412.986,714.706,1348.256,693.244,1338.49 M1484.206,1391.963c-0.392,1.14,0.007,1.54,1.183,1.183
		C1485.739,1391.97,1485.347,1391.571,1484.206,1391.963 M1609.634,1425.478c-0.15,3.129,1.254,5.98,2.63,8.689
		c0.349-4.184,0.356-8.418,0.378-12.573C1611.53,1422.791,1610.368,1423.988,1609.634,1425.478z"/>
	<path fill="#010101" d="M288.038,52.562c2.103,5.574-4.761,4.398-7.94,5.253C275.607,42.098,290.246,46.474,288.038,52.562z"/>
	<path fill="#010101" d="M365.189,63.096c0.62-1.682,2.716-0.813,4.084-1.005c1.19,6.322,4.704,12.78,2.623,19.281
		c-2.388,9.223-5.488,18.767-11.725,26.138c-12.479,10.453-37.913,0.682-44.734,1.632c-2.309,1.247-4.426,2.801-6.536,4.348
		c-4.807-6.43-3.961-21.628-9.038-41.07c-1.012-7.427,8.881-10.563,14.519-8.418c9.459,2.21,14.64,11.768,23.515,15.025
		c6.893,1.269,13.386-3.022,19.437-5.652C361.675,71.621,363.371,67.002,365.189,63.096 M306.192,71.521
		c1.24,10.906,3.742,21.64,4.818,32.574c1.397-0.527,2.787-1.062,4.184-1.597c-0.639-26.707,0.001-29.975-2.267-32.895
		C310.597,69.882,308.409,70.83,306.192,71.521 M317.611,73.567c-1.81,9.067-0.406,18.333,0.328,27.435
		c3.393,0.299,6.636,1.347,9.794,2.573c1.219-7.156,0.934-14.441,0.934-21.668C325.28,78.785,321.795,75.584,317.611,73.567
		 M359.023,81.999c-0.57,5.039,0.585,10.114,0.713,15.161c4.633-6.187,7.199-14.156,6.365-21.897
		C363.727,77.452,360.327,78.899,359.023,81.999 M346.35,86.604c0.207,6.593,0.078,13.229,0.955,19.78
		c3.457-1.654,7.94-3.058,9.437-6.942c0.157-5.531-0.449-11.062-0.919-16.565C352.615,83.995,349.429,85.164,346.35,86.604
		 M331.724,84.537c-0.307,6.85-0.478,13.728-0.029,20.585c3.265,3.093,8.496,0.777,12.409,1.404
		c-0.1-6.465-0.527-12.93-0.777-19.388C339.45,86.297,335.651,85.114,331.724,84.537z"/>
	<path fill="#010101" d="M615.459,93.496c6.037-1.681,11.152,10.151,1.105,13.044C608.43,105.415,608.44,95.443,615.459,93.496z"/>
	<path fill="#010101" d="M139.787,110.239c5.161-1.86,5.595-7.912,9.159-11.362c5.524,8.418,1.411,18.782-0.1,27.741
		c-1.019,6.415-5.503,12.338-11.747,14.391c-6.016,1.775-11.732-2.081-17.677-2.01c-4.683,4.669-8.275,11.875-15.439,13.03
		c-3.592,0.15-7.441-2.295-8.553-5.788c-7.579-22.637-7.509-19.661-5.103-24.741c3.108,0.691,6.244,1.447,9.444,1.525
		c4.091-4.17,5.474-11.561,11.896-12.98c5.852-3.065,10.87,2.096,16.365,3.286C132.296,114.766,136.237,112.178,139.787,110.239
		 M141.968,115.414c0.356,2.416,1.433,4.676,2.53,6.843c0.791-3.414,1.24-6.9,1.661-10.371
		C144.691,112.969,143.158,114.017,141.968,115.414 M113.478,114.552c1.169,6.337,3.2,12.502,3.906,18.924
		c4.483,0.499,8.952,1.19,13.265,2.545C127.477,120.244,127.742,116.183,113.478,114.552 M109.644,117.132
		c-6.45,10.289-4.059,9.663-13.97,11.54c2.516,6.237,4.597,12.638,6.558,19.067C117.685,141.755,115.1,133.874,109.644,117.132
		 M130.442,118.999c1.554,6.002,2.915,12.046,4.476,18.048c8.73-4.759,7.851-5.243,4.148-19.772
		C136.173,117.788,133.315,118.415,130.442,118.999z"/>
	<path fill="#010101" d="M66.499,115.236c-0.178-2.687,2.26-4.419,3.992-6.066c2.238,1.475,4.797,2.687,6.408,4.925
		c0.356,3.307-1.761,8.539-6.166,6.757C67.825,120.767,66.898,117.602,66.499,115.236z"/>
	<path fill="#010101" d="M623.663,119.335c0.756-2.409,4.355-3.813,6.023-1.518c2.295,3.243,3.735,7.007,5.624,10.499
		c6.052-0.47,12.11-3.129,18.211-1.939c7.242,2.402,6.308,12.21,12.224,16.073c5.21,1.932,9.765-1.825,14.469-3.393
		c0.42,1.946,1.126,3.899,0.969,5.916c-0.716,2.498-12.653,17.333-21.234,21.504c-5.987,1.725-10.863-1.846-16.123-3.671
		c-5.374-2.231-10.464,2.11-15.809,2.302c-7.434,2.188-15.111-3.414-17.798-10.121C609.755,144.945,612.657,145.287,623.663,119.335
		 M627.469,127.125c-3.892,7.527-7.983,15.075-10.414,23.215c0.599,2.908,3.186,4.904,4.961,7.163
		c3.942-6.643,6.379-14.027,9.081-21.219C632.316,132.578,629.337,129.848,627.469,127.125 M635.787,133.868
		c-4.177,7.669-7.142,15.966-9.48,24.363c21.073-2.72,17.681-9.163,25.403-25.054C646.422,133.704,641.083,133.747,635.787,133.868
		 M654.149,135.172c-2.987,5.98-5.381,12.231-8.632,18.076c3.108,1.44,5.588,3.806,7.662,6.501c2.224-4.505,5.103-8.91,5.959-13.921
		C658.625,141.88,655.738,138.708,654.149,135.172 M661.647,148.223c-2.395,4.177-4.583,8.489-6.194,13.03
		c7.292-1.304,12.281-7.342,16.415-12.965C668.461,148.373,665.04,148.337,661.647,148.223z"/>
	<path fill="#010101" d="M1386.57,147.803c-0.737-12.981,21.535-22.256,21.469,1.547c-1.055,0.314-2.074,0.627-3.086,0.955
		c-2.352-2.281-4.526-5.895-8.425-4.989c-2.58,1.048-4.355,3.336-6.736,4.697C1388.338,150.134,1387.347,148.808,1386.57,147.803z"
		/>
	<path fill="#010101" d="M1473.044,166.585c3.286-0.064,6.935-1.411,9.986,0.335c10.118,8.929,3.221,22.016-3.108,21.048
		c-1.653-1.675-1.989-4.248-2.281-6.436C1477.157,176.257,1474.441,171.602,1473.044,166.585z"/>
	<path fill="#010101" d="M1351.395,179.015c1.508-13.358,25.695-10.103,31.006-2.694c6.05,6.634,5.472,20.13,0.998,28.468
		c-1.689-0.984-3.229-2.16-4.69-3.421c0.164-5.346,0.998-10.891-1.212-15.973c-2.302-5.282-7.598-9.929-13.864-8.168
		C1359.292,176.834,1355.714,181.246,1351.395,179.015z"/>
	<path fill="#010101" d="M1431.333,210.05c4.398-4.833,9.744-10.143,16.843-9.551c17.122,4.479,25.673,25.167,22.524,33.864
		c-2.153-1.233-5.082-2.131-5.766-4.804c-1.996-6.8-5.025-14.975-12.645-16.971c-5.246-0.264-11.811-1.704-15.966,2.459
		c-3.906,2.623-4.797,8.518-10.157,9.138C1423.599,218.717,1428.118,214.02,1431.333,210.05z"/>
	<path fill="#010101" d="M878.951,388.294c35.249-12.175,61.638,8.955,72.454,28.675c1.461,2.694,2.78,5.481,4.448,8.069
		c12.888-15.854,10.281-15.69,29.003-27.107c22.159-13.368,60.052-8.635,73.338,13.414c12.105,23.124,7.565,34.087-5.923,56.801
		c-13.124,23.589-36.625,38.208-46.68,46.031c-10.113,6.85-44.584,33.335-50.771,36.972c-12.043,7.275-5.791,8.12-17.256,9.615
		c-6.386-7.769-10.307-17.135-16.358-25.133c-37.413-52.715-77.367-99.11-61.185-130.602
		C864.461,397.781,870.64,390.981,878.951,388.294 M877.198,417.176c-25.841,23.336,23.943,73.606,60.151,129.447
		c1.155,1.739,2.894,2.958,4.505,4.262c17.371-24.449,151.76-78.251,92.661-141.429c-17.148-14.593-48.049-1.779-62.411,9.943
		c-7.605,5.581-12.089,14.156-18.39,20.991c-8.869-7.115-4.683-7.279-8.475-13.721C935.866,411.677,919.732,380.567,877.198,417.176
		z"/>
	<path fill="#010101" d="M285.814,631.23c12.742-9.351,37.18-4.935,47.029,5.888c9.289,10.018,11.833,10.726,12.181,29.837
		c0.762,33.61-21.217,76.596-27.805,106.133c-1.54,6.75-1.119,14.063-4.284,20.378c-3.514-0.485-6.971-1.297-10.385-2.21
		c-0.242,0.62-0.485,1.247-0.72,1.882c-0.178-0.82-0.349-1.625-0.52-2.423c-5.906-0.803-51.201-12.702-80.9-8.831
		c-7.947,0.977-16.023-0.406-23.45-3.286c-23.672-13.353-2.413-86.244,53.159-78.227c-1.183-23.221,2.472-31.785,16.451-50.6
		C271.893,642.57,278.272,636.12,285.814,631.23 M285.008,642.456c-8.247,5.289-16.194,11.832-20.656,20.756
		c-12.59,22.445-8.846,30.703-1.775,48.355c0.791,1.753-0.649,3.4-1.803,4.583c-6.748-1.476-11.919-13.308-31.491-7.641
		c-13.446,3.018-33.922,20.551-28.875,43.173c9.34,37.934,26.411,10.156,107.522,33.807c3.331-25.005,3.844-31.259,16.273-61.035
		c2.453-5.843,21.512-40.624,2.552-71.285c-5.781-8.418-15.503-14.534-25.874-14.747
		C295.379,638.244,289.406,638.842,285.008,642.456z"/>
	<path fill="#010101" d="M479.347,669.242c-0.77,20.841-59.862,57.274-66.196,60.75c-38.583,23.107-63.688,39.38-85.883,76.602
		c-26.847,54.235,24.935,118.221-25.339,170.739c-9.751,12.652-23.415,22.096-38.625,26.95
		c-12.773,5.695-25.068,12.573-38.668,16.294c-13.267,5.421-123.763,36.887-156.783,114.037
		c-13.225,24.255-13.037,59.952,9.387,75.098c-13.543,1.116-19.064-19.935-21.782-33.166c-0.941-11.091,1.497-22.274,4.519-32.88
		c76.934-161.991,258.552-91.273,261.718-230.12c1.878-47.311-30.329-91.399,37.521-150.489
		c14.724-15.386,62.117-39.804,86.047-59.253C467.577,690.022,473.194,674.246,479.347,669.242z"/>
	<path fill="#010101" d="M906.557,741.347c0.349,2.922-2.388,4.704-4.519,6.059c-3.356-7.824-3.667-20.961-28.34-11.918
		c-0.741-1.632-2.53-3.493-1.426-5.325C881.332,715.745,903.205,712.388,906.557,741.347z"/>
	<path fill="#010101" d="M439.268,749.736c4.084-4.469,6.536-10.321,11.198-14.291c-3.373,12.807-17.191,23.649-28.361,30.664
		c-8.432,4.961-14.605,13.265-23.871,16.886c-5.567,2.623-9.53,7.726-15.189,10.171C389.503,785.047,425.68,762.662,439.268,749.736
		z"/>
	<path fill="#010101" d="M873.477,760.67c4.362-0.763,8.382,2.352,11.362,5.146c2.88,3.592,2.979,8.575,3.122,12.987
		c-0.344,14.882-21.425,16.079-20.906-8.382C867.818,766.593,869.671,762.295,873.477,760.67 M875.216,767.463
		c-0.449,2.017-0.898,3.984-0.827,6.094c1.176,2.537,3.386,4.398,5.182,6.543C879.301,775.56,880.434,769.388,875.216,767.463z"/>
	<path fill="#010101" d="M432.061,798.868c6.208-4.84,11.625-10.663,18.126-15.104c-5.282,9.765-15.51,15.196-22.566,23.408
		c-2.766,3.949-3.528,8.917-6.258,12.901C420.008,811.634,426.566,804.371,432.061,798.868z"/>
	<path fill="#010101" d="M354.661,830.672c1.532-8.689,5.852-17.534,13.5-22.331c-1.568,4.826-5.937,7.883-8.318,12.246
		C358.025,823.901,356.892,827.579,354.661,830.672z"/>
	<path fill="#010101" d="M347.547,850.48c0.934,5.225,0.185,10.542,0.121,15.809c0.071,1.497-0.92,2.687-1.689,3.87
		C345.11,863.595,345.566,856.803,347.547,850.48z"/>
	<path fill="#010101" d="M779.462,870.317c-0.663-5.909,0.855-14.313,8.054-15.296c8.958,11.163,15.422,32.497,6.394,42.645
		c-3.179,1.896-7.17-0.463-8.824-3.293C783.176,886.347,779.469,878.728,779.462,870.317 M786.576,865.976
		c0.292,4.376,0.627,9.131,3.913,12.417C790.253,873.988,789.533,869.426,786.576,865.976z"/>
	<path fill="#010101" d="M217.758,875.299c4.465-8.675,25.731-24.285,44.271,1.604c11.119,11.756,4.009,44.62-0.827,59.888
		c-1.771,5.15-15.319-0.094-48.861,2.887c-22.022,2.596-49.815-25.413-13.785-47.129c5.218-2.922,11.469-2.865,17.256-3.493
		C215.505,884.408,215.634,879.533,217.758,875.299 M223.232,887.188c1.112,5.317,5.118,9.508,5.553,15.047
		c-1.568,0.413-3.122,1.026-4.761,1.098c-3.485-1.818-6.073-5.438-10.2-5.973c-20.428-0.576-35.834,21.334-17.855,30.564
		c14.627,9.588,44.745,0.701,59.332,2.694c7.293-19.316,5.156-54.693-14.027-59.446
		C231.769,869.438,219.576,875.757,223.232,887.188z"/>
	<path fill="#010101" d="M673.201,877.316c1.946-1.055,3.585-2.573,5.381-3.856c4.011,3.934,14.017,10.19-5.56,24.548
		c-7.862,5.389-18.418,2.217-25.168-3.543c-3.678-2.965-4.597-8.012-5.431-12.374C640.15,874.504,670.68,877.751,673.201,877.316
		 M651.176,884.458c2.787,3.3,5.994,6.23,9.815,8.325c6.094,1.247,10.521-4.041,14.341-7.862
		C667.271,885.649,659.231,885.121,651.176,884.458z"/>
	<path fill="#010101" d="M382.951,929.648c0.228-4.113,0.257-8.575,3.093-11.861C386.493,922.05,386.372,926.64,382.951,929.648z"/>
	<path fill="#010101" d="M348.253,919.007c6.093,21.075-17.734,74.576-27.192,79.553
		C325.399,989.972,344.439,967.937,348.253,919.007z"/>
	<path fill="#010101" d="M549.976,921.238c1.625,0.306,3.25,0.627,4.883,0.927c4.633,8.974,2.83,19.416,3.564,29.131
		c-2.181-0.613-3.692-0.107-5.681-0.406c-1.468,3.571-2.979,7.149-4.619,10.656c-1.882-0.784-3.607-1.397-5.417-2.21
		c-1.789,2.801-3.621,5.574-5.467,8.354c-2.21-1.29-4.205-2.887-5.98-4.712c-8.122,6.63-6.058,4.764-13.037,5.125
		c0.05-2.723,0.207-5.296,0.328-7.976c-3.357,0.912-6.779,1.59-10.2,2.203c1.475-5.716,0.385-11.889,2.63-17.399
		c4.54,2.138,8.069,6.486,13.422,6.714c9.188,0.171,19.445-3.785,24.042-12.189C550.632,933.654,548.287,927.189,549.976,921.238z"
		/>
	<path fill="#010101" d="M387.199,977.226c1.903,7.099,0.421,14.69-0.677,21.832c-0.592,0.021-1.775,0.05-2.366,0.064
		C384.854,991.781,385.317,984.375,387.199,977.226z"/>
	<path fill="#010101" d="M279.969,1047.2c5.139-5.624,10.335-11.219,15.824-16.508c-0.927,2.73-1.903,5.652-4.191,7.584
		C287.767,1041.269,284.531,1045.247,279.969,1047.2z"/>
	<path fill="#010101" d="M261.294,1063.365c-16.109,7.598-32.339,14.99-48.619,22.239c-9.865,4.22-18.24,11.069-27.919,15.646
		c0.043-0.499,0.128-1.49,0.171-1.989c3.314-1.654,6.558-3.436,9.63-5.496C206.482,1085.402,254.377,1064.318,261.294,1063.365z"/>
	<path fill="#010101" d="M341.496,1081.805c1.39-3.329,4.07-5.816,6.843-8.005C347.54,1077.457,344.889,1080.337,341.496,1081.805z"
		/>
	<path fill="#010101" d="M313.512,1099.026c-11.242,14.04-49.414,34.741-49.438,57.614c-0.135,4.376,1.34,8.539,2.017,12.816
		c-0.513-0.029-1.54-0.1-2.053-0.135c-1.704-7.285-8.547-23.604,18.903-45.582C283.944,1122.919,303.398,1104.965,313.512,1099.026z
		"/>
	<path fill="#010101" d="M184.385,1100.865c-4.327,5.424-10.742,8.589-15.631,13.45c-6.073,4.768-9.145,12.039-13.885,17.919
		C156.315,1121.167,175.323,1104.75,184.385,1100.865z"/>
	<path fill="#010101" d="M375.773,1152.249c-0.356-6.308,5.168-10.756,10.364-13.058
		C383.236,1143.931,379.18,1147.865,375.773,1152.249z"/>
	<path fill="#010101" d="M478.877,1330.35c1.319,0.349,2.687,0.67,3.935,1.29c0.164,1.112,0.485,3.336,0.642,4.448
		C480.83,1335.169,478.648,1333.38,478.877,1330.35z"/>
	<path fill="#010101" d="M336.813,1424.188c3.029,0.984,5.781,2.687,7.99,4.997c-5.802,5.417-13.828-0.599-20.321,2.702
		c-22.991,9.341-26.39,17.955-32.645,29.958c-3.935,7.363-3.82,16.244-1.903,24.213c6.01,26.962,16.536,31.847,39.994,40.807
		c8.096,3.055,41.419,11.733,58.512,0.257c6.517-3.549,20.917-20.097,20.45-34.506c0-37.92-59.661-49.38-73.751-6.001
		c-5.207,16.271,17.429,27.731,32.289,18.881c7.078-4.255,7.876-14.847,3.714-21.412c-2.16-2.851-6.094-2.359-8.981-3.927
		c0.086-0.948,0.257-2.844,0.335-3.792c29.308-9.03,35.325,44.644-2.509,44.156c-53.001-7.01-32.02-68.925,5.046-70.116
		c24.108-1.382,34.178,2.176,47.649,18.468c22.111,34.27-5.848,64.259-43.372,72.668c-11.419,2.915-23.151-0.549-34.163-3.535
		c-61.497-15.151-74.817-84.94-21.098-111.486C332.223,1419.991,331.68,1422.495,336.813,1424.188z"/>
</g>
</svg>
